<?xml version="1.0" encoding="utf-8"?>
<Project name="HA_01" themeId="0" version="65540" templateID="SimpleProjectTemplate">
  <MediaItems>
    <MediaItem id="4" filePath="C:\Users\UB_JGarcia\Documents\GitHub\HolidayAnimation2015\Renders\0003.png" arWidth="960" arHeight="540" duration="0" songTitle="" songArtist="" songAlbum="" songCopyrightUrl="" songArtistUrl="" songAudioFileUrl="" stabilizationMode="0" mediaItemType="2" />
    <MediaItem id="5" filePath="C:\Users\UB_JGarcia\Documents\GitHub\HolidayAnimation2015\Renders\0004.png" arWidth="960" arHeight="540" duration="0" songTitle="" songArtist="" songAlbum="" songCopyrightUrl="" songArtistUrl="" songAudioFileUrl="" stabilizationMode="0" mediaItemType="2" />
    <MediaItem id="6" filePath="C:\Users\UB_JGarcia\Documents\GitHub\HolidayAnimation2015\Renders\0005.png" arWidth="960" arHeight="540" duration="0" songTitle="" songArtist="" songAlbum="" songCopyrightUrl="" songArtistUrl="" songAudioFileUrl="" stabilizationMode="0" mediaItemType="2" />
    <MediaItem id="7" filePath="C:\Users\UB_JGarcia\Documents\GitHub\HolidayAnimation2015\Renders\0006.png" arWidth="960" arHeight="540" duration="0" songTitle="" songArtist="" songAlbum="" songCopyrightUrl="" songArtistUrl="" songAudioFileUrl="" stabilizationMode="0" mediaItemType="2" />
    <MediaItem id="8" filePath="C:\Users\UB_JGarcia\Documents\GitHub\HolidayAnimation2015\Renders\0007.png" arWidth="960" arHeight="540" duration="0" songTitle="" songArtist="" songAlbum="" songCopyrightUrl="" songArtistUrl="" songAudioFileUrl="" stabilizationMode="0" mediaItemType="2" />
    <MediaItem id="9" filePath="C:\Users\UB_JGarcia\Documents\GitHub\HolidayAnimation2015\Renders\0008.png" arWidth="960" arHeight="540" duration="0" songTitle="" songArtist="" songAlbum="" songCopyrightUrl="" songArtistUrl="" songAudioFileUrl="" stabilizationMode="0" mediaItemType="2" />
    <MediaItem id="10" filePath="C:\Users\UB_JGarcia\Documents\GitHub\HolidayAnimation2015\Renders\0009.png" arWidth="960" arHeight="540" duration="0" songTitle="" songArtist="" songAlbum="" songCopyrightUrl="" songArtistUrl="" songAudioFileUrl="" stabilizationMode="0" mediaItemType="2" />
    <MediaItem id="11" filePath="C:\Users\UB_JGarcia\Documents\GitHub\HolidayAnimation2015\Renders\0010.png" arWidth="960" arHeight="540" duration="0" songTitle="" songArtist="" songAlbum="" songCopyrightUrl="" songArtistUrl="" songAudioFileUrl="" stabilizationMode="0" mediaItemType="2" />
    <MediaItem id="12" filePath="C:\Users\UB_JGarcia\Documents\GitHub\HolidayAnimation2015\Renders\0011.png" arWidth="960" arHeight="540" duration="0" songTitle="" songArtist="" songAlbum="" songCopyrightUrl="" songArtistUrl="" songAudioFileUrl="" stabilizationMode="0" mediaItemType="2" />
    <MediaItem id="13" filePath="C:\Users\UB_JGarcia\Documents\GitHub\HolidayAnimation2015\Renders\0012.png" arWidth="960" arHeight="540" duration="0" songTitle="" songArtist="" songAlbum="" songCopyrightUrl="" songArtistUrl="" songAudioFileUrl="" stabilizationMode="0" mediaItemType="2" />
    <MediaItem id="14" filePath="C:\Users\UB_JGarcia\Documents\GitHub\HolidayAnimation2015\Renders\0013.png" arWidth="960" arHeight="540" duration="0" songTitle="" songArtist="" songAlbum="" songCopyrightUrl="" songArtistUrl="" songAudioFileUrl="" stabilizationMode="0" mediaItemType="2" />
    <MediaItem id="15" filePath="C:\Users\UB_JGarcia\Documents\GitHub\HolidayAnimation2015\Renders\0014.png" arWidth="960" arHeight="540" duration="0" songTitle="" songArtist="" songAlbum="" songCopyrightUrl="" songArtistUrl="" songAudioFileUrl="" stabilizationMode="0" mediaItemType="2" />
    <MediaItem id="16" filePath="C:\Users\UB_JGarcia\Documents\GitHub\HolidayAnimation2015\Renders\0015.png" arWidth="960" arHeight="540" duration="0" songTitle="" songArtist="" songAlbum="" songCopyrightUrl="" songArtistUrl="" songAudioFileUrl="" stabilizationMode="0" mediaItemType="2" />
    <MediaItem id="17" filePath="C:\Users\UB_JGarcia\Documents\GitHub\HolidayAnimation2015\Renders\0016.png" arWidth="960" arHeight="540" duration="0" songTitle="" songArtist="" songAlbum="" songCopyrightUrl="" songArtistUrl="" songAudioFileUrl="" stabilizationMode="0" mediaItemType="2" />
    <MediaItem id="18" filePath="C:\Users\UB_JGarcia\Documents\GitHub\HolidayAnimation2015\Renders\0017.png" arWidth="960" arHeight="540" duration="0" songTitle="" songArtist="" songAlbum="" songCopyrightUrl="" songArtistUrl="" songAudioFileUrl="" stabilizationMode="0" mediaItemType="2" />
    <MediaItem id="19" filePath="C:\Users\UB_JGarcia\Documents\GitHub\HolidayAnimation2015\Renders\0018.png" arWidth="960" arHeight="540" duration="0" songTitle="" songArtist="" songAlbum="" songCopyrightUrl="" songArtistUrl="" songAudioFileUrl="" stabilizationMode="0" mediaItemType="2" />
    <MediaItem id="20" filePath="C:\Users\UB_JGarcia\Documents\GitHub\HolidayAnimation2015\Renders\0019.png" arWidth="960" arHeight="540" duration="0" songTitle="" songArtist="" songAlbum="" songCopyrightUrl="" songArtistUrl="" songAudioFileUrl="" stabilizationMode="0" mediaItemType="2" />
    <MediaItem id="21" filePath="C:\Users\UB_JGarcia\Documents\GitHub\HolidayAnimation2015\Renders\0020.png" arWidth="960" arHeight="540" duration="0" songTitle="" songArtist="" songAlbum="" songCopyrightUrl="" songArtistUrl="" songAudioFileUrl="" stabilizationMode="0" mediaItemType="2" />
    <MediaItem id="22" filePath="C:\Users\UB_JGarcia\Documents\GitHub\HolidayAnimation2015\Renders\0021.png" arWidth="960" arHeight="540" duration="0" songTitle="" songArtist="" songAlbum="" songCopyrightUrl="" songArtistUrl="" songAudioFileUrl="" stabilizationMode="0" mediaItemType="2" />
    <MediaItem id="23" filePath="C:\Users\UB_JGarcia\Documents\GitHub\HolidayAnimation2015\Renders\0022.png" arWidth="960" arHeight="540" duration="0" songTitle="" songArtist="" songAlbum="" songCopyrightUrl="" songArtistUrl="" songAudioFileUrl="" stabilizationMode="0" mediaItemType="2" />
    <MediaItem id="24" filePath="C:\Users\UB_JGarcia\Documents\GitHub\HolidayAnimation2015\Renders\0023.png" arWidth="960" arHeight="540" duration="0" songTitle="" songArtist="" songAlbum="" songCopyrightUrl="" songArtistUrl="" songAudioFileUrl="" stabilizationMode="0" mediaItemType="2" />
    <MediaItem id="25" filePath="C:\Users\UB_JGarcia\Documents\GitHub\HolidayAnimation2015\Renders\0024.png" arWidth="960" arHeight="540" duration="0" songTitle="" songArtist="" songAlbum="" songCopyrightUrl="" songArtistUrl="" songAudioFileUrl="" stabilizationMode="0" mediaItemType="2" />
    <MediaItem id="26" filePath="C:\Users\UB_JGarcia\Documents\GitHub\HolidayAnimation2015\Renders\0025.png" arWidth="960" arHeight="540" duration="0" songTitle="" songArtist="" songAlbum="" songCopyrightUrl="" songArtistUrl="" songAudioFileUrl="" stabilizationMode="0" mediaItemType="2" />
    <MediaItem id="27" filePath="C:\Users\UB_JGarcia\Documents\GitHub\HolidayAnimation2015\Renders\0026.png" arWidth="960" arHeight="540" duration="0" songTitle="" songArtist="" songAlbum="" songCopyrightUrl="" songArtistUrl="" songAudioFileUrl="" stabilizationMode="0" mediaItemType="2" />
    <MediaItem id="28" filePath="C:\Users\UB_JGarcia\Documents\GitHub\HolidayAnimation2015\Renders\0027.png" arWidth="960" arHeight="540" duration="0" songTitle="" songArtist="" songAlbum="" songCopyrightUrl="" songArtistUrl="" songAudioFileUrl="" stabilizationMode="0" mediaItemType="2" />
    <MediaItem id="29" filePath="C:\Users\UB_JGarcia\Documents\GitHub\HolidayAnimation2015\Renders\0028.png" arWidth="960" arHeight="540" duration="0" songTitle="" songArtist="" songAlbum="" songCopyrightUrl="" songArtistUrl="" songAudioFileUrl="" stabilizationMode="0" mediaItemType="2" />
    <MediaItem id="30" filePath="C:\Users\UB_JGarcia\Documents\GitHub\HolidayAnimation2015\Renders\0029.png" arWidth="960" arHeight="540" duration="0" songTitle="" songArtist="" songAlbum="" songCopyrightUrl="" songArtistUrl="" songAudioFileUrl="" stabilizationMode="0" mediaItemType="2" />
    <MediaItem id="31" filePath="C:\Users\UB_JGarcia\Documents\GitHub\HolidayAnimation2015\Renders\0030.png" arWidth="960" arHeight="540" duration="0" songTitle="" songArtist="" songAlbum="" songCopyrightUrl="" songArtistUrl="" songAudioFileUrl="" stabilizationMode="0" mediaItemType="2" />
    <MediaItem id="32" filePath="C:\Users\UB_JGarcia\Documents\GitHub\HolidayAnimation2015\Renders\0031.png" arWidth="960" arHeight="540" duration="0" songTitle="" songArtist="" songAlbum="" songCopyrightUrl="" songArtistUrl="" songAudioFileUrl="" stabilizationMode="0" mediaItemType="2" />
    <MediaItem id="33" filePath="C:\Users\UB_JGarcia\Documents\GitHub\HolidayAnimation2015\Renders\0032.png" arWidth="960" arHeight="540" duration="0" songTitle="" songArtist="" songAlbum="" songCopyrightUrl="" songArtistUrl="" songAudioFileUrl="" stabilizationMode="0" mediaItemType="2" />
    <MediaItem id="34" filePath="C:\Users\UB_JGarcia\Documents\GitHub\HolidayAnimation2015\Renders\0033.png" arWidth="960" arHeight="540" duration="0" songTitle="" songArtist="" songAlbum="" songCopyrightUrl="" songArtistUrl="" songAudioFileUrl="" stabilizationMode="0" mediaItemType="2" />
    <MediaItem id="35" filePath="C:\Users\UB_JGarcia\Documents\GitHub\HolidayAnimation2015\Renders\0034.png" arWidth="960" arHeight="540" duration="0" songTitle="" songArtist="" songAlbum="" songCopyrightUrl="" songArtistUrl="" songAudioFileUrl="" stabilizationMode="0" mediaItemType="2" />
    <MediaItem id="36" filePath="C:\Users\UB_JGarcia\Documents\GitHub\HolidayAnimation2015\Renders\0035.png" arWidth="960" arHeight="540" duration="0" songTitle="" songArtist="" songAlbum="" songCopyrightUrl="" songArtistUrl="" songAudioFileUrl="" stabilizationMode="0" mediaItemType="2" />
    <MediaItem id="37" filePath="C:\Users\UB_JGarcia\Documents\GitHub\HolidayAnimation2015\Renders\0036.png" arWidth="960" arHeight="540" duration="0" songTitle="" songArtist="" songAlbum="" songCopyrightUrl="" songArtistUrl="" songAudioFileUrl="" stabilizationMode="0" mediaItemType="2" />
    <MediaItem id="38" filePath="C:\Users\UB_JGarcia\Documents\GitHub\HolidayAnimation2015\Renders\0037.png" arWidth="960" arHeight="540" duration="0" songTitle="" songArtist="" songAlbum="" songCopyrightUrl="" songArtistUrl="" songAudioFileUrl="" stabilizationMode="0" mediaItemType="2" />
    <MediaItem id="39" filePath="C:\Users\UB_JGarcia\Documents\GitHub\HolidayAnimation2015\Renders\0038.png" arWidth="960" arHeight="540" duration="0" songTitle="" songArtist="" songAlbum="" songCopyrightUrl="" songArtistUrl="" songAudioFileUrl="" stabilizationMode="0" mediaItemType="2" />
    <MediaItem id="40" filePath="C:\Users\UB_JGarcia\Documents\GitHub\HolidayAnimation2015\Renders\0039.png" arWidth="960" arHeight="540" duration="0" songTitle="" songArtist="" songAlbum="" songCopyrightUrl="" songArtistUrl="" songAudioFileUrl="" stabilizationMode="0" mediaItemType="2" />
    <MediaItem id="41" filePath="C:\Users\UB_JGarcia\Documents\GitHub\HolidayAnimation2015\Renders\0040.png" arWidth="960" arHeight="540" duration="0" songTitle="" songArtist="" songAlbum="" songCopyrightUrl="" songArtistUrl="" songAudioFileUrl="" stabilizationMode="0" mediaItemType="2" />
    <MediaItem id="42" filePath="C:\Users\UB_JGarcia\Documents\GitHub\HolidayAnimation2015\Renders\0041.png" arWidth="960" arHeight="540" duration="0" songTitle="" songArtist="" songAlbum="" songCopyrightUrl="" songArtistUrl="" songAudioFileUrl="" stabilizationMode="0" mediaItemType="2" />
    <MediaItem id="43" filePath="C:\Users\UB_JGarcia\Documents\GitHub\HolidayAnimation2015\Renders\0042.png" arWidth="960" arHeight="540" duration="0" songTitle="" songArtist="" songAlbum="" songCopyrightUrl="" songArtistUrl="" songAudioFileUrl="" stabilizationMode="0" mediaItemType="2" />
    <MediaItem id="44" filePath="C:\Users\UB_JGarcia\Documents\GitHub\HolidayAnimation2015\Renders\0043.png" arWidth="960" arHeight="540" duration="0" songTitle="" songArtist="" songAlbum="" songCopyrightUrl="" songArtistUrl="" songAudioFileUrl="" stabilizationMode="0" mediaItemType="2" />
    <MediaItem id="45" filePath="C:\Users\UB_JGarcia\Documents\GitHub\HolidayAnimation2015\Renders\0044.png" arWidth="960" arHeight="540" duration="0" songTitle="" songArtist="" songAlbum="" songCopyrightUrl="" songArtistUrl="" songAudioFileUrl="" stabilizationMode="0" mediaItemType="2" />
    <MediaItem id="46" filePath="C:\Users\UB_JGarcia\Documents\GitHub\HolidayAnimation2015\Renders\0045.png" arWidth="960" arHeight="540" duration="0" songTitle="" songArtist="" songAlbum="" songCopyrightUrl="" songArtistUrl="" songAudioFileUrl="" stabilizationMode="0" mediaItemType="2" />
    <MediaItem id="47" filePath="C:\Users\UB_JGarcia\Documents\GitHub\HolidayAnimation2015\Renders\0046.png" arWidth="960" arHeight="540" duration="0" songTitle="" songArtist="" songAlbum="" songCopyrightUrl="" songArtistUrl="" songAudioFileUrl="" stabilizationMode="0" mediaItemType="2" />
    <MediaItem id="48" filePath="C:\Users\UB_JGarcia\Documents\GitHub\HolidayAnimation2015\Renders\0047.png" arWidth="960" arHeight="540" duration="0" songTitle="" songArtist="" songAlbum="" songCopyrightUrl="" songArtistUrl="" songAudioFileUrl="" stabilizationMode="0" mediaItemType="2" />
    <MediaItem id="49" filePath="C:\Users\UB_JGarcia\Documents\GitHub\HolidayAnimation2015\Renders\0048.png" arWidth="960" arHeight="540" duration="0" songTitle="" songArtist="" songAlbum="" songCopyrightUrl="" songArtistUrl="" songAudioFileUrl="" stabilizationMode="0" mediaItemType="2" />
    <MediaItem id="50" filePath="C:\Users\UB_JGarcia\Documents\GitHub\HolidayAnimation2015\Renders\0049.png" arWidth="960" arHeight="540" duration="0" songTitle="" songArtist="" songAlbum="" songCopyrightUrl="" songArtistUrl="" songAudioFileUrl="" stabilizationMode="0" mediaItemType="2" />
    <MediaItem id="51" filePath="C:\Users\UB_JGarcia\Documents\GitHub\HolidayAnimation2015\Renders\0050.png" arWidth="960" arHeight="540" duration="0" songTitle="" songArtist="" songAlbum="" songCopyrightUrl="" songArtistUrl="" songAudioFileUrl="" stabilizationMode="0" mediaItemType="2" />
    <MediaItem id="52" filePath="C:\Users\UB_JGarcia\Documents\GitHub\HolidayAnimation2015\Renders\0051.png" arWidth="960" arHeight="540" duration="0" songTitle="" songArtist="" songAlbum="" songCopyrightUrl="" songArtistUrl="" songAudioFileUrl="" stabilizationMode="0" mediaItemType="2" />
    <MediaItem id="53" filePath="C:\Users\UB_JGarcia\Documents\GitHub\HolidayAnimation2015\Renders\0052.png" arWidth="960" arHeight="540" duration="0" songTitle="" songArtist="" songAlbum="" songCopyrightUrl="" songArtistUrl="" songAudioFileUrl="" stabilizationMode="0" mediaItemType="2" />
    <MediaItem id="54" filePath="C:\Users\UB_JGarcia\Documents\GitHub\HolidayAnimation2015\Renders\0053.png" arWidth="960" arHeight="540" duration="0" songTitle="" songArtist="" songAlbum="" songCopyrightUrl="" songArtistUrl="" songAudioFileUrl="" stabilizationMode="0" mediaItemType="2" />
    <MediaItem id="55" filePath="C:\Users\UB_JGarcia\Documents\GitHub\HolidayAnimation2015\Renders\0054.png" arWidth="960" arHeight="540" duration="0" songTitle="" songArtist="" songAlbum="" songCopyrightUrl="" songArtistUrl="" songAudioFileUrl="" stabilizationMode="0" mediaItemType="2" />
    <MediaItem id="56" filePath="C:\Users\UB_JGarcia\Documents\GitHub\HolidayAnimation2015\Renders\0055.png" arWidth="960" arHeight="540" duration="0" songTitle="" songArtist="" songAlbum="" songCopyrightUrl="" songArtistUrl="" songAudioFileUrl="" stabilizationMode="0" mediaItemType="2" />
    <MediaItem id="57" filePath="C:\Users\UB_JGarcia\Documents\GitHub\HolidayAnimation2015\Renders\0056.png" arWidth="960" arHeight="540" duration="0" songTitle="" songArtist="" songAlbum="" songCopyrightUrl="" songArtistUrl="" songAudioFileUrl="" stabilizationMode="0" mediaItemType="2" />
    <MediaItem id="58" filePath="C:\Users\UB_JGarcia\Documents\GitHub\HolidayAnimation2015\Renders\0057.png" arWidth="960" arHeight="540" duration="0" songTitle="" songArtist="" songAlbum="" songCopyrightUrl="" songArtistUrl="" songAudioFileUrl="" stabilizationMode="0" mediaItemType="2" />
    <MediaItem id="59" filePath="C:\Users\UB_JGarcia\Documents\GitHub\HolidayAnimation2015\Renders\0058.png" arWidth="960" arHeight="540" duration="0" songTitle="" songArtist="" songAlbum="" songCopyrightUrl="" songArtistUrl="" songAudioFileUrl="" stabilizationMode="0" mediaItemType="2" />
    <MediaItem id="60" filePath="C:\Users\UB_JGarcia\Documents\GitHub\HolidayAnimation2015\Renders\0059.png" arWidth="960" arHeight="540" duration="0" songTitle="" songArtist="" songAlbum="" songCopyrightUrl="" songArtistUrl="" songAudioFileUrl="" stabilizationMode="0" mediaItemType="2" />
    <MediaItem id="61" filePath="C:\Users\UB_JGarcia\Documents\GitHub\HolidayAnimation2015\Renders\0060.png" arWidth="960" arHeight="540" duration="0" songTitle="" songArtist="" songAlbum="" songCopyrightUrl="" songArtistUrl="" songAudioFileUrl="" stabilizationMode="0" mediaItemType="2" />
    <MediaItem id="62" filePath="C:\Users\UB_JGarcia\Documents\GitHub\HolidayAnimation2015\Renders\0061.png" arWidth="960" arHeight="540" duration="0" songTitle="" songArtist="" songAlbum="" songCopyrightUrl="" songArtistUrl="" songAudioFileUrl="" stabilizationMode="0" mediaItemType="2" />
    <MediaItem id="63" filePath="C:\Users\UB_JGarcia\Documents\GitHub\HolidayAnimation2015\Renders\0062.png" arWidth="960" arHeight="540" duration="0" songTitle="" songArtist="" songAlbum="" songCopyrightUrl="" songArtistUrl="" songAudioFileUrl="" stabilizationMode="0" mediaItemType="2" />
    <MediaItem id="64" filePath="C:\Users\UB_JGarcia\Documents\GitHub\HolidayAnimation2015\Renders\0063.png" arWidth="960" arHeight="540" duration="0" songTitle="" songArtist="" songAlbum="" songCopyrightUrl="" songArtistUrl="" songAudioFileUrl="" stabilizationMode="0" mediaItemType="2" />
    <MediaItem id="65" filePath="C:\Users\UB_JGarcia\Documents\GitHub\HolidayAnimation2015\Renders\0064.png" arWidth="960" arHeight="540" duration="0" songTitle="" songArtist="" songAlbum="" songCopyrightUrl="" songArtistUrl="" songAudioFileUrl="" stabilizationMode="0" mediaItemType="2" />
    <MediaItem id="66" filePath="C:\Users\UB_JGarcia\Documents\GitHub\HolidayAnimation2015\Renders\0065.png" arWidth="960" arHeight="540" duration="0" songTitle="" songArtist="" songAlbum="" songCopyrightUrl="" songArtistUrl="" songAudioFileUrl="" stabilizationMode="0" mediaItemType="2" />
    <MediaItem id="67" filePath="C:\Users\UB_JGarcia\Documents\GitHub\HolidayAnimation2015\Renders\0066.png" arWidth="960" arHeight="540" duration="0" songTitle="" songArtist="" songAlbum="" songCopyrightUrl="" songArtistUrl="" songAudioFileUrl="" stabilizationMode="0" mediaItemType="2" />
    <MediaItem id="68" filePath="C:\Users\UB_JGarcia\Documents\GitHub\HolidayAnimation2015\Renders\0067.png" arWidth="960" arHeight="540" duration="0" songTitle="" songArtist="" songAlbum="" songCopyrightUrl="" songArtistUrl="" songAudioFileUrl="" stabilizationMode="0" mediaItemType="2" />
    <MediaItem id="69" filePath="C:\Users\UB_JGarcia\Documents\GitHub\HolidayAnimation2015\Renders\0068.png" arWidth="960" arHeight="540" duration="0" songTitle="" songArtist="" songAlbum="" songCopyrightUrl="" songArtistUrl="" songAudioFileUrl="" stabilizationMode="0" mediaItemType="2" />
    <MediaItem id="70" filePath="C:\Users\UB_JGarcia\Documents\GitHub\HolidayAnimation2015\Renders\0069.png" arWidth="960" arHeight="540" duration="0" songTitle="" songArtist="" songAlbum="" songCopyrightUrl="" songArtistUrl="" songAudioFileUrl="" stabilizationMode="0" mediaItemType="2" />
    <MediaItem id="71" filePath="C:\Users\UB_JGarcia\Documents\GitHub\HolidayAnimation2015\Renders\0070.png" arWidth="960" arHeight="540" duration="0" songTitle="" songArtist="" songAlbum="" songCopyrightUrl="" songArtistUrl="" songAudioFileUrl="" stabilizationMode="0" mediaItemType="2" />
    <MediaItem id="72" filePath="C:\Users\UB_JGarcia\Documents\GitHub\HolidayAnimation2015\Renders\0071.png" arWidth="960" arHeight="540" duration="0" songTitle="" songArtist="" songAlbum="" songCopyrightUrl="" songArtistUrl="" songAudioFileUrl="" stabilizationMode="0" mediaItemType="2" />
    <MediaItem id="73" filePath="C:\Users\UB_JGarcia\Documents\GitHub\HolidayAnimation2015\Renders\0072.png" arWidth="960" arHeight="540" duration="0" songTitle="" songArtist="" songAlbum="" songCopyrightUrl="" songArtistUrl="" songAudioFileUrl="" stabilizationMode="0" mediaItemType="2" />
    <MediaItem id="74" filePath="C:\Users\UB_JGarcia\Documents\GitHub\HolidayAnimation2015\Renders\0073.png" arWidth="960" arHeight="540" duration="0" songTitle="" songArtist="" songAlbum="" songCopyrightUrl="" songArtistUrl="" songAudioFileUrl="" stabilizationMode="0" mediaItemType="2" />
    <MediaItem id="75" filePath="C:\Users\UB_JGarcia\Documents\GitHub\HolidayAnimation2015\Renders\0074.png" arWidth="960" arHeight="540" duration="0" songTitle="" songArtist="" songAlbum="" songCopyrightUrl="" songArtistUrl="" songAudioFileUrl="" stabilizationMode="0" mediaItemType="2" />
    <MediaItem id="76" filePath="C:\Users\UB_JGarcia\Documents\GitHub\HolidayAnimation2015\Renders\0075.png" arWidth="960" arHeight="540" duration="0" songTitle="" songArtist="" songAlbum="" songCopyrightUrl="" songArtistUrl="" songAudioFileUrl="" stabilizationMode="0" mediaItemType="2" />
    <MediaItem id="77" filePath="C:\Users\UB_JGarcia\Documents\GitHub\HolidayAnimation2015\Renders\0076.png" arWidth="960" arHeight="540" duration="0" songTitle="" songArtist="" songAlbum="" songCopyrightUrl="" songArtistUrl="" songAudioFileUrl="" stabilizationMode="0" mediaItemType="2" />
    <MediaItem id="78" filePath="C:\Users\UB_JGarcia\Documents\GitHub\HolidayAnimation2015\Renders\0077.png" arWidth="960" arHeight="540" duration="0" songTitle="" songArtist="" songAlbum="" songCopyrightUrl="" songArtistUrl="" songAudioFileUrl="" stabilizationMode="0" mediaItemType="2" />
    <MediaItem id="79" filePath="C:\Users\UB_JGarcia\Documents\GitHub\HolidayAnimation2015\Renders\0078.png" arWidth="960" arHeight="540" duration="0" songTitle="" songArtist="" songAlbum="" songCopyrightUrl="" songArtistUrl="" songAudioFileUrl="" stabilizationMode="0" mediaItemType="2" />
    <MediaItem id="80" filePath="C:\Users\UB_JGarcia\Documents\GitHub\HolidayAnimation2015\Renders\0079.png" arWidth="960" arHeight="540" duration="0" songTitle="" songArtist="" songAlbum="" songCopyrightUrl="" songArtistUrl="" songAudioFileUrl="" stabilizationMode="0" mediaItemType="2" />
    <MediaItem id="81" filePath="C:\Users\UB_JGarcia\Documents\GitHub\HolidayAnimation2015\Renders\0080.png" arWidth="960" arHeight="540" duration="0" songTitle="" songArtist="" songAlbum="" songCopyrightUrl="" songArtistUrl="" songAudioFileUrl="" stabilizationMode="0" mediaItemType="2" />
    <MediaItem id="82" filePath="C:\Users\UB_JGarcia\Documents\GitHub\HolidayAnimation2015\Renders\0081.png" arWidth="960" arHeight="540" duration="0" songTitle="" songArtist="" songAlbum="" songCopyrightUrl="" songArtistUrl="" songAudioFileUrl="" stabilizationMode="0" mediaItemType="2" />
    <MediaItem id="83" filePath="C:\Users\UB_JGarcia\Documents\GitHub\HolidayAnimation2015\Renders\0082.png" arWidth="960" arHeight="540" duration="0" songTitle="" songArtist="" songAlbum="" songCopyrightUrl="" songArtistUrl="" songAudioFileUrl="" stabilizationMode="0" mediaItemType="2" />
    <MediaItem id="84" filePath="C:\Users\UB_JGarcia\Documents\GitHub\HolidayAnimation2015\Renders\0083.png" arWidth="960" arHeight="540" duration="0" songTitle="" songArtist="" songAlbum="" songCopyrightUrl="" songArtistUrl="" songAudioFileUrl="" stabilizationMode="0" mediaItemType="2" />
    <MediaItem id="85" filePath="C:\Users\UB_JGarcia\Documents\GitHub\HolidayAnimation2015\Renders\0084.png" arWidth="960" arHeight="540" duration="0" songTitle="" songArtist="" songAlbum="" songCopyrightUrl="" songArtistUrl="" songAudioFileUrl="" stabilizationMode="0" mediaItemType="2" />
    <MediaItem id="86" filePath="C:\Users\UB_JGarcia\Documents\GitHub\HolidayAnimation2015\Renders\0085.png" arWidth="960" arHeight="540" duration="0" songTitle="" songArtist="" songAlbum="" songCopyrightUrl="" songArtistUrl="" songAudioFileUrl="" stabilizationMode="0" mediaItemType="2" />
    <MediaItem id="87" filePath="C:\Users\UB_JGarcia\Documents\GitHub\HolidayAnimation2015\Renders\0086.png" arWidth="960" arHeight="540" duration="0" songTitle="" songArtist="" songAlbum="" songCopyrightUrl="" songArtistUrl="" songAudioFileUrl="" stabilizationMode="0" mediaItemType="2" />
    <MediaItem id="88" filePath="C:\Users\UB_JGarcia\Documents\GitHub\HolidayAnimation2015\Renders\0087.png" arWidth="960" arHeight="540" duration="0" songTitle="" songArtist="" songAlbum="" songCopyrightUrl="" songArtistUrl="" songAudioFileUrl="" stabilizationMode="0" mediaItemType="2" />
    <MediaItem id="89" filePath="C:\Users\UB_JGarcia\Documents\GitHub\HolidayAnimation2015\Renders\0088.png" arWidth="960" arHeight="540" duration="0" songTitle="" songArtist="" songAlbum="" songCopyrightUrl="" songArtistUrl="" songAudioFileUrl="" stabilizationMode="0" mediaItemType="2" />
    <MediaItem id="90" filePath="C:\Users\UB_JGarcia\Documents\GitHub\HolidayAnimation2015\Renders\0089.png" arWidth="960" arHeight="540" duration="0" songTitle="" songArtist="" songAlbum="" songCopyrightUrl="" songArtistUrl="" songAudioFileUrl="" stabilizationMode="0" mediaItemType="2" />
    <MediaItem id="91" filePath="C:\Users\UB_JGarcia\Documents\GitHub\HolidayAnimation2015\Renders\0090.png" arWidth="960" arHeight="540" duration="0" songTitle="" songArtist="" songAlbum="" songCopyrightUrl="" songArtistUrl="" songAudioFileUrl="" stabilizationMode="0" mediaItemType="2" />
    <MediaItem id="92" filePath="C:\Users\UB_JGarcia\Documents\GitHub\HolidayAnimation2015\Renders\0091.png" arWidth="960" arHeight="540" duration="0" songTitle="" songArtist="" songAlbum="" songCopyrightUrl="" songArtistUrl="" songAudioFileUrl="" stabilizationMode="0" mediaItemType="2" />
    <MediaItem id="93" filePath="C:\Users\UB_JGarcia\Documents\GitHub\HolidayAnimation2015\Renders\0092.png" arWidth="960" arHeight="540" duration="0" songTitle="" songArtist="" songAlbum="" songCopyrightUrl="" songArtistUrl="" songAudioFileUrl="" stabilizationMode="0" mediaItemType="2" />
    <MediaItem id="94" filePath="C:\Users\UB_JGarcia\Documents\GitHub\HolidayAnimation2015\Renders\0093.png" arWidth="960" arHeight="540" duration="0" songTitle="" songArtist="" songAlbum="" songCopyrightUrl="" songArtistUrl="" songAudioFileUrl="" stabilizationMode="0" mediaItemType="2" />
    <MediaItem id="95" filePath="C:\Users\UB_JGarcia\Documents\GitHub\HolidayAnimation2015\Renders\0094.png" arWidth="960" arHeight="540" duration="0" songTitle="" songArtist="" songAlbum="" songCopyrightUrl="" songArtistUrl="" songAudioFileUrl="" stabilizationMode="0" mediaItemType="2" />
    <MediaItem id="96" filePath="C:\Users\UB_JGarcia\Documents\GitHub\HolidayAnimation2015\Renders\0095.png" arWidth="960" arHeight="540" duration="0" songTitle="" songArtist="" songAlbum="" songCopyrightUrl="" songArtistUrl="" songAudioFileUrl="" stabilizationMode="0" mediaItemType="2" />
    <MediaItem id="97" filePath="C:\Users\UB_JGarcia\Documents\GitHub\HolidayAnimation2015\Renders\0096.png" arWidth="960" arHeight="540" duration="0" songTitle="" songArtist="" songAlbum="" songCopyrightUrl="" songArtistUrl="" songAudioFileUrl="" stabilizationMode="0" mediaItemType="2" />
    <MediaItem id="98" filePath="C:\Users\UB_JGarcia\Documents\GitHub\HolidayAnimation2015\Renders\0097.png" arWidth="960" arHeight="540" duration="0" songTitle="" songArtist="" songAlbum="" songCopyrightUrl="" songArtistUrl="" songAudioFileUrl="" stabilizationMode="0" mediaItemType="2" />
    <MediaItem id="99" filePath="C:\Users\UB_JGarcia\Documents\GitHub\HolidayAnimation2015\Renders\0098.png" arWidth="960" arHeight="540" duration="0" songTitle="" songArtist="" songAlbum="" songCopyrightUrl="" songArtistUrl="" songAudioFileUrl="" stabilizationMode="0" mediaItemType="2" />
    <MediaItem id="100" filePath="C:\Users\UB_JGarcia\Documents\GitHub\HolidayAnimation2015\Renders\0099.png" arWidth="960" arHeight="540" duration="0" songTitle="" songArtist="" songAlbum="" songCopyrightUrl="" songArtistUrl="" songAudioFileUrl="" stabilizationMode="0" mediaItemType="2" />
    <MediaItem id="101" filePath="C:\Users\UB_JGarcia\Documents\GitHub\HolidayAnimation2015\Renders\0100.png" arWidth="960" arHeight="540" duration="0" songTitle="" songArtist="" songAlbum="" songCopyrightUrl="" songArtistUrl="" songAudioFileUrl="" stabilizationMode="0" mediaItemType="2" />
    <MediaItem id="102" filePath="C:\Users\UB_JGarcia\Documents\GitHub\HolidayAnimation2015\Renders\0101.png" arWidth="960" arHeight="540" duration="0" songTitle="" songArtist="" songAlbum="" songCopyrightUrl="" songArtistUrl="" songAudioFileUrl="" stabilizationMode="0" mediaItemType="2" />
    <MediaItem id="103" filePath="C:\Users\UB_JGarcia\Documents\GitHub\HolidayAnimation2015\Renders\0102.png" arWidth="960" arHeight="540" duration="0" songTitle="" songArtist="" songAlbum="" songCopyrightUrl="" songArtistUrl="" songAudioFileUrl="" stabilizationMode="0" mediaItemType="2" />
    <MediaItem id="104" filePath="C:\Users\UB_JGarcia\Documents\GitHub\HolidayAnimation2015\Renders\0103.png" arWidth="960" arHeight="540" duration="0" songTitle="" songArtist="" songAlbum="" songCopyrightUrl="" songArtistUrl="" songAudioFileUrl="" stabilizationMode="0" mediaItemType="2" />
    <MediaItem id="105" filePath="C:\Users\UB_JGarcia\Documents\GitHub\HolidayAnimation2015\Renders\0104.png" arWidth="960" arHeight="540" duration="0" songTitle="" songArtist="" songAlbum="" songCopyrightUrl="" songArtistUrl="" songAudioFileUrl="" stabilizationMode="0" mediaItemType="2" />
    <MediaItem id="106" filePath="C:\Users\UB_JGarcia\Documents\GitHub\HolidayAnimation2015\Renders\0105.png" arWidth="960" arHeight="540" duration="0" songTitle="" songArtist="" songAlbum="" songCopyrightUrl="" songArtistUrl="" songAudioFileUrl="" stabilizationMode="0" mediaItemType="2" />
    <MediaItem id="107" filePath="C:\Users\UB_JGarcia\Documents\GitHub\HolidayAnimation2015\Renders\0106.png" arWidth="960" arHeight="540" duration="0" songTitle="" songArtist="" songAlbum="" songCopyrightUrl="" songArtistUrl="" songAudioFileUrl="" stabilizationMode="0" mediaItemType="2" />
    <MediaItem id="108" filePath="C:\Users\UB_JGarcia\Documents\GitHub\HolidayAnimation2015\Renders\0107.png" arWidth="960" arHeight="540" duration="0" songTitle="" songArtist="" songAlbum="" songCopyrightUrl="" songArtistUrl="" songAudioFileUrl="" stabilizationMode="0" mediaItemType="2" />
    <MediaItem id="109" filePath="C:\Users\UB_JGarcia\Documents\GitHub\HolidayAnimation2015\Renders\0108.png" arWidth="960" arHeight="540" duration="0" songTitle="" songArtist="" songAlbum="" songCopyrightUrl="" songArtistUrl="" songAudioFileUrl="" stabilizationMode="0" mediaItemType="2" />
    <MediaItem id="110" filePath="C:\Users\UB_JGarcia\Documents\GitHub\HolidayAnimation2015\Renders\0109.png" arWidth="960" arHeight="540" duration="0" songTitle="" songArtist="" songAlbum="" songCopyrightUrl="" songArtistUrl="" songAudioFileUrl="" stabilizationMode="0" mediaItemType="2" />
    <MediaItem id="111" filePath="C:\Users\UB_JGarcia\Documents\GitHub\HolidayAnimation2015\Renders\0110.png" arWidth="960" arHeight="540" duration="0" songTitle="" songArtist="" songAlbum="" songCopyrightUrl="" songArtistUrl="" songAudioFileUrl="" stabilizationMode="0" mediaItemType="2" />
    <MediaItem id="112" filePath="C:\Users\UB_JGarcia\Documents\GitHub\HolidayAnimation2015\Renders\0111.png" arWidth="960" arHeight="540" duration="0" songTitle="" songArtist="" songAlbum="" songCopyrightUrl="" songArtistUrl="" songAudioFileUrl="" stabilizationMode="0" mediaItemType="2" />
    <MediaItem id="113" filePath="C:\Users\UB_JGarcia\Documents\GitHub\HolidayAnimation2015\Renders\0112.png" arWidth="960" arHeight="540" duration="0" songTitle="" songArtist="" songAlbum="" songCopyrightUrl="" songArtistUrl="" songAudioFileUrl="" stabilizationMode="0" mediaItemType="2" />
    <MediaItem id="114" filePath="C:\Users\UB_JGarcia\Documents\GitHub\HolidayAnimation2015\Renders\0113.png" arWidth="960" arHeight="540" duration="0" songTitle="" songArtist="" songAlbum="" songCopyrightUrl="" songArtistUrl="" songAudioFileUrl="" stabilizationMode="0" mediaItemType="2" />
    <MediaItem id="115" filePath="C:\Users\UB_JGarcia\Documents\GitHub\HolidayAnimation2015\Renders\0114.png" arWidth="960" arHeight="540" duration="0" songTitle="" songArtist="" songAlbum="" songCopyrightUrl="" songArtistUrl="" songAudioFileUrl="" stabilizationMode="0" mediaItemType="2" />
    <MediaItem id="116" filePath="C:\Users\UB_JGarcia\Documents\GitHub\HolidayAnimation2015\Renders\0115.png" arWidth="960" arHeight="540" duration="0" songTitle="" songArtist="" songAlbum="" songCopyrightUrl="" songArtistUrl="" songAudioFileUrl="" stabilizationMode="0" mediaItemType="2" />
    <MediaItem id="117" filePath="C:\Users\UB_JGarcia\Documents\GitHub\HolidayAnimation2015\Renders\0116.png" arWidth="960" arHeight="540" duration="0" songTitle="" songArtist="" songAlbum="" songCopyrightUrl="" songArtistUrl="" songAudioFileUrl="" stabilizationMode="0" mediaItemType="2" />
    <MediaItem id="118" filePath="C:\Users\UB_JGarcia\Documents\GitHub\HolidayAnimation2015\Renders\0117.png" arWidth="960" arHeight="540" duration="0" songTitle="" songArtist="" songAlbum="" songCopyrightUrl="" songArtistUrl="" songAudioFileUrl="" stabilizationMode="0" mediaItemType="2" />
    <MediaItem id="119" filePath="C:\Users\UB_JGarcia\Documents\GitHub\HolidayAnimation2015\Renders\0118.png" arWidth="960" arHeight="540" duration="0" songTitle="" songArtist="" songAlbum="" songCopyrightUrl="" songArtistUrl="" songAudioFileUrl="" stabilizationMode="0" mediaItemType="2" />
    <MediaItem id="120" filePath="C:\Users\UB_JGarcia\Documents\GitHub\HolidayAnimation2015\Renders\0119.png" arWidth="960" arHeight="540" duration="0" songTitle="" songArtist="" songAlbum="" songCopyrightUrl="" songArtistUrl="" songAudioFileUrl="" stabilizationMode="0" mediaItemType="2" />
    <MediaItem id="121" filePath="C:\Users\UB_JGarcia\Documents\GitHub\HolidayAnimation2015\Renders\0120.png" arWidth="960" arHeight="540" duration="0" songTitle="" songArtist="" songAlbum="" songCopyrightUrl="" songArtistUrl="" songAudioFileUrl="" stabilizationMode="0" mediaItemType="2" />
    <MediaItem id="124" filePath="C:\Users\UB_JGarcia\Documents\GitHub\HolidayAnimation2015\Renders\0123.png" arWidth="960" arHeight="540" duration="0" songTitle="" songArtist="" songAlbum="" songCopyrightUrl="" songArtistUrl="" songAudioFileUrl="" stabilizationMode="0" mediaItemType="2" />
    <MediaItem id="125" filePath="C:\Users\UB_JGarcia\Documents\GitHub\HolidayAnimation2015\Renders\0124.png" arWidth="960" arHeight="540" duration="0" songTitle="" songArtist="" songAlbum="" songCopyrightUrl="" songArtistUrl="" songAudioFileUrl="" stabilizationMode="0" mediaItemType="2" />
    <MediaItem id="126" filePath="C:\Users\UB_JGarcia\Documents\GitHub\HolidayAnimation2015\Renders\0125.png" arWidth="960" arHeight="540" duration="0" songTitle="" songArtist="" songAlbum="" songCopyrightUrl="" songArtistUrl="" songAudioFileUrl="" stabilizationMode="0" mediaItemType="2" />
    <MediaItem id="127" filePath="C:\Users\UB_JGarcia\Documents\GitHub\HolidayAnimation2015\Renders\0126.png" arWidth="960" arHeight="540" duration="0" songTitle="" songArtist="" songAlbum="" songCopyrightUrl="" songArtistUrl="" songAudioFileUrl="" stabilizationMode="0" mediaItemType="2" />
    <MediaItem id="128" filePath="C:\Users\UB_JGarcia\Documents\GitHub\HolidayAnimation2015\Renders\0127.png" arWidth="960" arHeight="540" duration="0" songTitle="" songArtist="" songAlbum="" songCopyrightUrl="" songArtistUrl="" songAudioFileUrl="" stabilizationMode="0" mediaItemType="2" />
    <MediaItem id="129" filePath="C:\Users\UB_JGarcia\Documents\GitHub\HolidayAnimation2015\Renders\0128.png" arWidth="960" arHeight="540" duration="0" songTitle="" songArtist="" songAlbum="" songCopyrightUrl="" songArtistUrl="" songAudioFileUrl="" stabilizationMode="0" mediaItemType="2" />
    <MediaItem id="130" filePath="C:\Users\UB_JGarcia\Documents\GitHub\HolidayAnimation2015\Renders\0129.png" arWidth="960" arHeight="540" duration="0" songTitle="" songArtist="" songAlbum="" songCopyrightUrl="" songArtistUrl="" songAudioFileUrl="" stabilizationMode="0" mediaItemType="2" />
    <MediaItem id="131" filePath="C:\Users\UB_JGarcia\Documents\GitHub\HolidayAnimation2015\Renders\0130.png" arWidth="960" arHeight="540" duration="0" songTitle="" songArtist="" songAlbum="" songCopyrightUrl="" songArtistUrl="" songAudioFileUrl="" stabilizationMode="0" mediaItemType="2" />
    <MediaItem id="132" filePath="C:\Users\UB_JGarcia\Documents\GitHub\HolidayAnimation2015\Renders\0131.png" arWidth="960" arHeight="540" duration="0" songTitle="" songArtist="" songAlbum="" songCopyrightUrl="" songArtistUrl="" songAudioFileUrl="" stabilizationMode="0" mediaItemType="2" />
    <MediaItem id="133" filePath="C:\Users\UB_JGarcia\Documents\GitHub\HolidayAnimation2015\Renders\0132.png" arWidth="960" arHeight="540" duration="0" songTitle="" songArtist="" songAlbum="" songCopyrightUrl="" songArtistUrl="" songAudioFileUrl="" stabilizationMode="0" mediaItemType="2" />
    <MediaItem id="134" filePath="C:\Users\UB_JGarcia\Documents\GitHub\HolidayAnimation2015\Renders\0133.png" arWidth="960" arHeight="540" duration="0" songTitle="" songArtist="" songAlbum="" songCopyrightUrl="" songArtistUrl="" songAudioFileUrl="" stabilizationMode="0" mediaItemType="2" />
    <MediaItem id="135" filePath="C:\Users\UB_JGarcia\Documents\GitHub\HolidayAnimation2015\Renders\0134.png" arWidth="960" arHeight="540" duration="0" songTitle="" songArtist="" songAlbum="" songCopyrightUrl="" songArtistUrl="" songAudioFileUrl="" stabilizationMode="0" mediaItemType="2" />
    <MediaItem id="136" filePath="C:\Users\UB_JGarcia\Documents\GitHub\HolidayAnimation2015\Renders\0135.png" arWidth="960" arHeight="540" duration="0" songTitle="" songArtist="" songAlbum="" songCopyrightUrl="" songArtistUrl="" songAudioFileUrl="" stabilizationMode="0" mediaItemType="2" />
    <MediaItem id="137" filePath="C:\Users\UB_JGarcia\Documents\GitHub\HolidayAnimation2015\Renders\0136.png" arWidth="960" arHeight="540" duration="0" songTitle="" songArtist="" songAlbum="" songCopyrightUrl="" songArtistUrl="" songAudioFileUrl="" stabilizationMode="0" mediaItemType="2" />
    <MediaItem id="138" filePath="C:\Users\UB_JGarcia\Documents\GitHub\HolidayAnimation2015\Renders\0137.png" arWidth="960" arHeight="540" duration="0" songTitle="" songArtist="" songAlbum="" songCopyrightUrl="" songArtistUrl="" songAudioFileUrl="" stabilizationMode="0" mediaItemType="2" />
    <MediaItem id="139" filePath="C:\Users\UB_JGarcia\Documents\GitHub\HolidayAnimation2015\Renders\0138.png" arWidth="960" arHeight="540" duration="0" songTitle="" songArtist="" songAlbum="" songCopyrightUrl="" songArtistUrl="" songAudioFileUrl="" stabilizationMode="0" mediaItemType="2" />
    <MediaItem id="140" filePath="C:\Users\UB_JGarcia\Documents\GitHub\HolidayAnimation2015\Renders\0139.png" arWidth="960" arHeight="540" duration="0" songTitle="" songArtist="" songAlbum="" songCopyrightUrl="" songArtistUrl="" songAudioFileUrl="" stabilizationMode="0" mediaItemType="2" />
    <MediaItem id="141" filePath="C:\Users\UB_JGarcia\Documents\GitHub\HolidayAnimation2015\Renders\0140.png" arWidth="960" arHeight="540" duration="0" songTitle="" songArtist="" songAlbum="" songCopyrightUrl="" songArtistUrl="" songAudioFileUrl="" stabilizationMode="0" mediaItemType="2" />
    <MediaItem id="142" filePath="C:\Users\UB_JGarcia\Documents\GitHub\HolidayAnimation2015\Renders\0141.png" arWidth="960" arHeight="540" duration="0" songTitle="" songArtist="" songAlbum="" songCopyrightUrl="" songArtistUrl="" songAudioFileUrl="" stabilizationMode="0" mediaItemType="2" />
    <MediaItem id="143" filePath="C:\Users\UB_JGarcia\Documents\GitHub\HolidayAnimation2015\Renders\0142.png" arWidth="960" arHeight="540" duration="0" songTitle="" songArtist="" songAlbum="" songCopyrightUrl="" songArtistUrl="" songAudioFileUrl="" stabilizationMode="0" mediaItemType="2" />
    <MediaItem id="144" filePath="C:\Users\UB_JGarcia\Documents\GitHub\HolidayAnimation2015\Renders\0143.png" arWidth="960" arHeight="540" duration="0" songTitle="" songArtist="" songAlbum="" songCopyrightUrl="" songArtistUrl="" songAudioFileUrl="" stabilizationMode="0" mediaItemType="2" />
    <MediaItem id="145" filePath="C:\Users\UB_JGarcia\Documents\GitHub\HolidayAnimation2015\Renders\0144.png" arWidth="960" arHeight="540" duration="0" songTitle="" songArtist="" songAlbum="" songCopyrightUrl="" songArtistUrl="" songAudioFileUrl="" stabilizationMode="0" mediaItemType="2" />
    <MediaItem id="146" filePath="C:\Users\UB_JGarcia\Documents\GitHub\HolidayAnimation2015\Renders\0145.png" arWidth="960" arHeight="540" duration="0" songTitle="" songArtist="" songAlbum="" songCopyrightUrl="" songArtistUrl="" songAudioFileUrl="" stabilizationMode="0" mediaItemType="2" />
    <MediaItem id="147" filePath="C:\Users\UB_JGarcia\Documents\GitHub\HolidayAnimation2015\Renders\0146.png" arWidth="960" arHeight="540" duration="0" songTitle="" songArtist="" songAlbum="" songCopyrightUrl="" songArtistUrl="" songAudioFileUrl="" stabilizationMode="0" mediaItemType="2" />
    <MediaItem id="148" filePath="C:\Users\UB_JGarcia\Documents\GitHub\HolidayAnimation2015\Renders\0147.png" arWidth="960" arHeight="540" duration="0" songTitle="" songArtist="" songAlbum="" songCopyrightUrl="" songArtistUrl="" songAudioFileUrl="" stabilizationMode="0" mediaItemType="2" />
    <MediaItem id="149" filePath="C:\Users\UB_JGarcia\Documents\GitHub\HolidayAnimation2015\Renders\0148.png" arWidth="960" arHeight="540" duration="0" songTitle="" songArtist="" songAlbum="" songCopyrightUrl="" songArtistUrl="" songAudioFileUrl="" stabilizationMode="0" mediaItemType="2" />
    <MediaItem id="150" filePath="C:\Users\UB_JGarcia\Documents\GitHub\HolidayAnimation2015\Renders\0149.png" arWidth="960" arHeight="540" duration="0" songTitle="" songArtist="" songAlbum="" songCopyrightUrl="" songArtistUrl="" songAudioFileUrl="" stabilizationMode="0" mediaItemType="2" />
    <MediaItem id="151" filePath="C:\Users\UB_JGarcia\Documents\GitHub\HolidayAnimation2015\Renders\0150.png" arWidth="960" arHeight="540" duration="0" songTitle="" songArtist="" songAlbum="" songCopyrightUrl="" songArtistUrl="" songAudioFileUrl="" stabilizationMode="0" mediaItemType="2" />
    <MediaItem id="152" filePath="C:\Users\UB_JGarcia\Documents\GitHub\HolidayAnimation2015\Renders\0151.png" arWidth="960" arHeight="540" duration="0" songTitle="" songArtist="" songAlbum="" songCopyrightUrl="" songArtistUrl="" songAudioFileUrl="" stabilizationMode="0" mediaItemType="2" />
    <MediaItem id="153" filePath="C:\Users\UB_JGarcia\Documents\GitHub\HolidayAnimation2015\Renders\0152.png" arWidth="960" arHeight="540" duration="0" songTitle="" songArtist="" songAlbum="" songCopyrightUrl="" songArtistUrl="" songAudioFileUrl="" stabilizationMode="0" mediaItemType="2" />
    <MediaItem id="154" filePath="C:\Users\UB_JGarcia\Documents\GitHub\HolidayAnimation2015\Renders\0153.png" arWidth="960" arHeight="540" duration="0" songTitle="" songArtist="" songAlbum="" songCopyrightUrl="" songArtistUrl="" songAudioFileUrl="" stabilizationMode="0" mediaItemType="2" />
    <MediaItem id="155" filePath="C:\Users\UB_JGarcia\Documents\GitHub\HolidayAnimation2015\Renders\0154.png" arWidth="960" arHeight="540" duration="0" songTitle="" songArtist="" songAlbum="" songCopyrightUrl="" songArtistUrl="" songAudioFileUrl="" stabilizationMode="0" mediaItemType="2" />
    <MediaItem id="156" filePath="C:\Users\UB_JGarcia\Documents\GitHub\HolidayAnimation2015\Renders\0155.png" arWidth="960" arHeight="540" duration="0" songTitle="" songArtist="" songAlbum="" songCopyrightUrl="" songArtistUrl="" songAudioFileUrl="" stabilizationMode="0" mediaItemType="2" />
    <MediaItem id="157" filePath="C:\Users\UB_JGarcia\Documents\GitHub\HolidayAnimation2015\Renders\0156.png" arWidth="960" arHeight="540" duration="0" songTitle="" songArtist="" songAlbum="" songCopyrightUrl="" songArtistUrl="" songAudioFileUrl="" stabilizationMode="0" mediaItemType="2" />
    <MediaItem id="158" filePath="C:\Users\UB_JGarcia\Documents\GitHub\HolidayAnimation2015\Renders\0157.png" arWidth="960" arHeight="540" duration="0" songTitle="" songArtist="" songAlbum="" songCopyrightUrl="" songArtistUrl="" songAudioFileUrl="" stabilizationMode="0" mediaItemType="2" />
    <MediaItem id="159" filePath="C:\Users\UB_JGarcia\Documents\GitHub\HolidayAnimation2015\Renders\0158.png" arWidth="960" arHeight="540" duration="0" songTitle="" songArtist="" songAlbum="" songCopyrightUrl="" songArtistUrl="" songAudioFileUrl="" stabilizationMode="0" mediaItemType="2" />
    <MediaItem id="160" filePath="C:\Users\UB_JGarcia\Documents\GitHub\HolidayAnimation2015\Renders\0159.png" arWidth="960" arHeight="540" duration="0" songTitle="" songArtist="" songAlbum="" songCopyrightUrl="" songArtistUrl="" songAudioFileUrl="" stabilizationMode="0" mediaItemType="2" />
    <MediaItem id="161" filePath="C:\Users\UB_JGarcia\Documents\GitHub\HolidayAnimation2015\Renders\0160.png" arWidth="960" arHeight="540" duration="0" songTitle="" songArtist="" songAlbum="" songCopyrightUrl="" songArtistUrl="" songAudioFileUrl="" stabilizationMode="0" mediaItemType="2" />
    <MediaItem id="162" filePath="C:\Users\UB_JGarcia\Documents\GitHub\HolidayAnimation2015\Renders\0161.png" arWidth="960" arHeight="540" duration="0" songTitle="" songArtist="" songAlbum="" songCopyrightUrl="" songArtistUrl="" songAudioFileUrl="" stabilizationMode="0" mediaItemType="2" />
    <MediaItem id="163" filePath="C:\Users\UB_JGarcia\Documents\GitHub\HolidayAnimation2015\Renders\0162.png" arWidth="960" arHeight="540" duration="0" songTitle="" songArtist="" songAlbum="" songCopyrightUrl="" songArtistUrl="" songAudioFileUrl="" stabilizationMode="0" mediaItemType="2" />
    <MediaItem id="164" filePath="C:\Users\UB_JGarcia\Documents\GitHub\HolidayAnimation2015\Renders\0163.png" arWidth="960" arHeight="540" duration="0" songTitle="" songArtist="" songAlbum="" songCopyrightUrl="" songArtistUrl="" songAudioFileUrl="" stabilizationMode="0" mediaItemType="2" />
    <MediaItem id="165" filePath="C:\Users\UB_JGarcia\Documents\GitHub\HolidayAnimation2015\Renders\0164.png" arWidth="960" arHeight="540" duration="0" songTitle="" songArtist="" songAlbum="" songCopyrightUrl="" songArtistUrl="" songAudioFileUrl="" stabilizationMode="0" mediaItemType="2" />
    <MediaItem id="166" filePath="C:\Users\UB_JGarcia\Documents\GitHub\HolidayAnimation2015\Renders\0165.png" arWidth="960" arHeight="540" duration="0" songTitle="" songArtist="" songAlbum="" songCopyrightUrl="" songArtistUrl="" songAudioFileUrl="" stabilizationMode="0" mediaItemType="2" />
    <MediaItem id="167" filePath="C:\Users\UB_JGarcia\Documents\GitHub\HolidayAnimation2015\Renders\0166.png" arWidth="960" arHeight="540" duration="0" songTitle="" songArtist="" songAlbum="" songCopyrightUrl="" songArtistUrl="" songAudioFileUrl="" stabilizationMode="0" mediaItemType="2" />
    <MediaItem id="168" filePath="C:\Users\UB_JGarcia\Documents\GitHub\HolidayAnimation2015\Renders\0167.png" arWidth="960" arHeight="540" duration="0" songTitle="" songArtist="" songAlbum="" songCopyrightUrl="" songArtistUrl="" songAudioFileUrl="" stabilizationMode="0" mediaItemType="2" />
    <MediaItem id="169" filePath="C:\Users\UB_JGarcia\Documents\GitHub\HolidayAnimation2015\Renders\0168.png" arWidth="960" arHeight="540" duration="0" songTitle="" songArtist="" songAlbum="" songCopyrightUrl="" songArtistUrl="" songAudioFileUrl="" stabilizationMode="0" mediaItemType="2" />
    <MediaItem id="170" filePath="C:\Users\UB_JGarcia\Documents\GitHub\HolidayAnimation2015\Renders\0169.png" arWidth="960" arHeight="540" duration="0" songTitle="" songArtist="" songAlbum="" songCopyrightUrl="" songArtistUrl="" songAudioFileUrl="" stabilizationMode="0" mediaItemType="2" />
    <MediaItem id="171" filePath="C:\Users\UB_JGarcia\Documents\GitHub\HolidayAnimation2015\Renders\0170.png" arWidth="960" arHeight="540" duration="0" songTitle="" songArtist="" songAlbum="" songCopyrightUrl="" songArtistUrl="" songAudioFileUrl="" stabilizationMode="0" mediaItemType="2" />
    <MediaItem id="172" filePath="C:\Users\UB_JGarcia\Documents\GitHub\HolidayAnimation2015\Renders\0171.png" arWidth="960" arHeight="540" duration="0" songTitle="" songArtist="" songAlbum="" songCopyrightUrl="" songArtistUrl="" songAudioFileUrl="" stabilizationMode="0" mediaItemType="2" />
    <MediaItem id="173" filePath="C:\Users\UB_JGarcia\Documents\GitHub\HolidayAnimation2015\Renders\0172.png" arWidth="960" arHeight="540" duration="0" songTitle="" songArtist="" songAlbum="" songCopyrightUrl="" songArtistUrl="" songAudioFileUrl="" stabilizationMode="0" mediaItemType="2" />
    <MediaItem id="174" filePath="C:\Users\UB_JGarcia\Documents\GitHub\HolidayAnimation2015\Renders\0173.png" arWidth="960" arHeight="540" duration="0" songTitle="" songArtist="" songAlbum="" songCopyrightUrl="" songArtistUrl="" songAudioFileUrl="" stabilizationMode="0" mediaItemType="2" />
    <MediaItem id="175" filePath="C:\Users\UB_JGarcia\Documents\GitHub\HolidayAnimation2015\Renders\0174.png" arWidth="960" arHeight="540" duration="0" songTitle="" songArtist="" songAlbum="" songCopyrightUrl="" songArtistUrl="" songAudioFileUrl="" stabilizationMode="0" mediaItemType="2" />
    <MediaItem id="176" filePath="C:\Users\UB_JGarcia\Documents\GitHub\HolidayAnimation2015\Renders\0175.png" arWidth="960" arHeight="540" duration="0" songTitle="" songArtist="" songAlbum="" songCopyrightUrl="" songArtistUrl="" songAudioFileUrl="" stabilizationMode="0" mediaItemType="2" />
    <MediaItem id="177" filePath="C:\Users\UB_JGarcia\Documents\GitHub\HolidayAnimation2015\Renders\0176.png" arWidth="960" arHeight="540" duration="0" songTitle="" songArtist="" songAlbum="" songCopyrightUrl="" songArtistUrl="" songAudioFileUrl="" stabilizationMode="0" mediaItemType="2" />
    <MediaItem id="178" filePath="C:\Users\UB_JGarcia\Documents\GitHub\HolidayAnimation2015\Renders\0177.png" arWidth="960" arHeight="540" duration="0" songTitle="" songArtist="" songAlbum="" songCopyrightUrl="" songArtistUrl="" songAudioFileUrl="" stabilizationMode="0" mediaItemType="2" />
    <MediaItem id="179" filePath="C:\Users\UB_JGarcia\Documents\GitHub\HolidayAnimation2015\Renders\0178.png" arWidth="960" arHeight="540" duration="0" songTitle="" songArtist="" songAlbum="" songCopyrightUrl="" songArtistUrl="" songAudioFileUrl="" stabilizationMode="0" mediaItemType="2" />
    <MediaItem id="180" filePath="C:\Users\UB_JGarcia\Documents\GitHub\HolidayAnimation2015\Renders\0179.png" arWidth="960" arHeight="540" duration="0" songTitle="" songArtist="" songAlbum="" songCopyrightUrl="" songArtistUrl="" songAudioFileUrl="" stabilizationMode="0" mediaItemType="2" />
    <MediaItem id="181" filePath="C:\Users\UB_JGarcia\Documents\GitHub\HolidayAnimation2015\Renders\0180.png" arWidth="960" arHeight="540" duration="0" songTitle="" songArtist="" songAlbum="" songCopyrightUrl="" songArtistUrl="" songAudioFileUrl="" stabilizationMode="0" mediaItemType="2" />
    <MediaItem id="182" filePath="C:\Users\UB_JGarcia\Documents\GitHub\HolidayAnimation2015\Renders\0181.png" arWidth="960" arHeight="540" duration="0" songTitle="" songArtist="" songAlbum="" songCopyrightUrl="" songArtistUrl="" songAudioFileUrl="" stabilizationMode="0" mediaItemType="2" />
    <MediaItem id="183" filePath="C:\Users\UB_JGarcia\Documents\GitHub\HolidayAnimation2015\Renders\0182.png" arWidth="960" arHeight="540" duration="0" songTitle="" songArtist="" songAlbum="" songCopyrightUrl="" songArtistUrl="" songAudioFileUrl="" stabilizationMode="0" mediaItemType="2" />
    <MediaItem id="184" filePath="C:\Users\UB_JGarcia\Documents\GitHub\HolidayAnimation2015\Renders\0183.png" arWidth="960" arHeight="540" duration="0" songTitle="" songArtist="" songAlbum="" songCopyrightUrl="" songArtistUrl="" songAudioFileUrl="" stabilizationMode="0" mediaItemType="2" />
    <MediaItem id="185" filePath="C:\Users\UB_JGarcia\Documents\GitHub\HolidayAnimation2015\Renders\0184.png" arWidth="960" arHeight="540" duration="0" songTitle="" songArtist="" songAlbum="" songCopyrightUrl="" songArtistUrl="" songAudioFileUrl="" stabilizationMode="0" mediaItemType="2" />
    <MediaItem id="186" filePath="C:\Users\UB_JGarcia\Documents\GitHub\HolidayAnimation2015\Renders\0185.png" arWidth="960" arHeight="540" duration="0" songTitle="" songArtist="" songAlbum="" songCopyrightUrl="" songArtistUrl="" songAudioFileUrl="" stabilizationMode="0" mediaItemType="2" />
    <MediaItem id="187" filePath="C:\Users\UB_JGarcia\Documents\GitHub\HolidayAnimation2015\Renders\0186.png" arWidth="960" arHeight="540" duration="0" songTitle="" songArtist="" songAlbum="" songCopyrightUrl="" songArtistUrl="" songAudioFileUrl="" stabilizationMode="0" mediaItemType="2" />
    <MediaItem id="188" filePath="C:\Users\UB_JGarcia\Documents\GitHub\HolidayAnimation2015\Renders\0187.png" arWidth="960" arHeight="540" duration="0" songTitle="" songArtist="" songAlbum="" songCopyrightUrl="" songArtistUrl="" songAudioFileUrl="" stabilizationMode="0" mediaItemType="2" />
    <MediaItem id="189" filePath="C:\Users\UB_JGarcia\Documents\GitHub\HolidayAnimation2015\Renders\0188.png" arWidth="960" arHeight="540" duration="0" songTitle="" songArtist="" songAlbum="" songCopyrightUrl="" songArtistUrl="" songAudioFileUrl="" stabilizationMode="0" mediaItemType="2" />
    <MediaItem id="190" filePath="C:\Users\UB_JGarcia\Documents\GitHub\HolidayAnimation2015\Renders\0189.png" arWidth="960" arHeight="540" duration="0" songTitle="" songArtist="" songAlbum="" songCopyrightUrl="" songArtistUrl="" songAudioFileUrl="" stabilizationMode="0" mediaItemType="2" />
    <MediaItem id="191" filePath="C:\Users\UB_JGarcia\Documents\GitHub\HolidayAnimation2015\Renders\0190.png" arWidth="960" arHeight="540" duration="0" songTitle="" songArtist="" songAlbum="" songCopyrightUrl="" songArtistUrl="" songAudioFileUrl="" stabilizationMode="0" mediaItemType="2" />
    <MediaItem id="192" filePath="C:\Users\UB_JGarcia\Documents\GitHub\HolidayAnimation2015\Renders\0191.png" arWidth="960" arHeight="540" duration="0" songTitle="" songArtist="" songAlbum="" songCopyrightUrl="" songArtistUrl="" songAudioFileUrl="" stabilizationMode="0" mediaItemType="2" />
    <MediaItem id="193" filePath="C:\Users\UB_JGarcia\Documents\GitHub\HolidayAnimation2015\Renders\0192.png" arWidth="960" arHeight="540" duration="0" songTitle="" songArtist="" songAlbum="" songCopyrightUrl="" songArtistUrl="" songAudioFileUrl="" stabilizationMode="0" mediaItemType="2" />
    <MediaItem id="194" filePath="C:\Users\UB_JGarcia\Documents\GitHub\HolidayAnimation2015\Renders\0193.png" arWidth="960" arHeight="540" duration="0" songTitle="" songArtist="" songAlbum="" songCopyrightUrl="" songArtistUrl="" songAudioFileUrl="" stabilizationMode="0" mediaItemType="2" />
    <MediaItem id="195" filePath="C:\Users\UB_JGarcia\Documents\GitHub\HolidayAnimation2015\Renders\0194.png" arWidth="960" arHeight="540" duration="0" songTitle="" songArtist="" songAlbum="" songCopyrightUrl="" songArtistUrl="" songAudioFileUrl="" stabilizationMode="0" mediaItemType="2" />
    <MediaItem id="196" filePath="C:\Users\UB_JGarcia\Documents\GitHub\HolidayAnimation2015\Renders\0195.png" arWidth="960" arHeight="540" duration="0" songTitle="" songArtist="" songAlbum="" songCopyrightUrl="" songArtistUrl="" songAudioFileUrl="" stabilizationMode="0" mediaItemType="2" />
    <MediaItem id="197" filePath="C:\Users\UB_JGarcia\Documents\GitHub\HolidayAnimation2015\Renders\0196.png" arWidth="960" arHeight="540" duration="0" songTitle="" songArtist="" songAlbum="" songCopyrightUrl="" songArtistUrl="" songAudioFileUrl="" stabilizationMode="0" mediaItemType="2" />
    <MediaItem id="198" filePath="C:\Users\UB_JGarcia\Documents\GitHub\HolidayAnimation2015\Renders\0197.png" arWidth="960" arHeight="540" duration="0" songTitle="" songArtist="" songAlbum="" songCopyrightUrl="" songArtistUrl="" songAudioFileUrl="" stabilizationMode="0" mediaItemType="2" />
    <MediaItem id="199" filePath="C:\Users\UB_JGarcia\Documents\GitHub\HolidayAnimation2015\Renders\0198.png" arWidth="960" arHeight="540" duration="0" songTitle="" songArtist="" songAlbum="" songCopyrightUrl="" songArtistUrl="" songAudioFileUrl="" stabilizationMode="0" mediaItemType="2" />
    <MediaItem id="200" filePath="C:\Users\UB_JGarcia\Documents\GitHub\HolidayAnimation2015\Renders\0199.png" arWidth="960" arHeight="540" duration="0" songTitle="" songArtist="" songAlbum="" songCopyrightUrl="" songArtistUrl="" songAudioFileUrl="" stabilizationMode="0" mediaItemType="2" />
    <MediaItem id="201" filePath="C:\Users\UB_JGarcia\Documents\GitHub\HolidayAnimation2015\Renders\0200.png" arWidth="960" arHeight="540" duration="0" songTitle="" songArtist="" songAlbum="" songCopyrightUrl="" songArtistUrl="" songAudioFileUrl="" stabilizationMode="0" mediaItemType="2" />
    <MediaItem id="202" filePath="C:\Users\UB_JGarcia\Documents\GitHub\HolidayAnimation2015\Renders\0201.png" arWidth="960" arHeight="540" duration="0" songTitle="" songArtist="" songAlbum="" songCopyrightUrl="" songArtistUrl="" songAudioFileUrl="" stabilizationMode="0" mediaItemType="2" />
    <MediaItem id="203" filePath="C:\Users\UB_JGarcia\Documents\GitHub\HolidayAnimation2015\Renders\0202.png" arWidth="960" arHeight="540" duration="0" songTitle="" songArtist="" songAlbum="" songCopyrightUrl="" songArtistUrl="" songAudioFileUrl="" stabilizationMode="0" mediaItemType="2" />
    <MediaItem id="204" filePath="C:\Users\UB_JGarcia\Documents\GitHub\HolidayAnimation2015\Renders\0203.png" arWidth="960" arHeight="540" duration="0" songTitle="" songArtist="" songAlbum="" songCopyrightUrl="" songArtistUrl="" songAudioFileUrl="" stabilizationMode="0" mediaItemType="2" />
    <MediaItem id="205" filePath="C:\Users\UB_JGarcia\Documents\GitHub\HolidayAnimation2015\Renders\0204.png" arWidth="960" arHeight="540" duration="0" songTitle="" songArtist="" songAlbum="" songCopyrightUrl="" songArtistUrl="" songAudioFileUrl="" stabilizationMode="0" mediaItemType="2" />
    <MediaItem id="206" filePath="C:\Users\UB_JGarcia\Documents\GitHub\HolidayAnimation2015\Renders\0205.png" arWidth="960" arHeight="540" duration="0" songTitle="" songArtist="" songAlbum="" songCopyrightUrl="" songArtistUrl="" songAudioFileUrl="" stabilizationMode="0" mediaItemType="2" />
    <MediaItem id="207" filePath="C:\Users\UB_JGarcia\Documents\GitHub\HolidayAnimation2015\Renders\0206.png" arWidth="960" arHeight="540" duration="0" songTitle="" songArtist="" songAlbum="" songCopyrightUrl="" songArtistUrl="" songAudioFileUrl="" stabilizationMode="0" mediaItemType="2" />
    <MediaItem id="208" filePath="C:\Users\UB_JGarcia\Documents\GitHub\HolidayAnimation2015\Renders\0207.png" arWidth="960" arHeight="540" duration="0" songTitle="" songArtist="" songAlbum="" songCopyrightUrl="" songArtistUrl="" songAudioFileUrl="" stabilizationMode="0" mediaItemType="2" />
    <MediaItem id="209" filePath="C:\Users\UB_JGarcia\Documents\GitHub\HolidayAnimation2015\Renders\0208.png" arWidth="960" arHeight="540" duration="0" songTitle="" songArtist="" songAlbum="" songCopyrightUrl="" songArtistUrl="" songAudioFileUrl="" stabilizationMode="0" mediaItemType="2" />
    <MediaItem id="210" filePath="C:\Users\UB_JGarcia\Documents\GitHub\HolidayAnimation2015\Renders\0209.png" arWidth="960" arHeight="540" duration="0" songTitle="" songArtist="" songAlbum="" songCopyrightUrl="" songArtistUrl="" songAudioFileUrl="" stabilizationMode="0" mediaItemType="2" />
    <MediaItem id="211" filePath="C:\Users\UB_JGarcia\Documents\GitHub\HolidayAnimation2015\Renders\0210.png" arWidth="960" arHeight="540" duration="0" songTitle="" songArtist="" songAlbum="" songCopyrightUrl="" songArtistUrl="" songAudioFileUrl="" stabilizationMode="0" mediaItemType="2" />
    <MediaItem id="212" filePath="C:\Users\UB_JGarcia\Documents\GitHub\HolidayAnimation2015\Renders\0211.png" arWidth="960" arHeight="540" duration="0" songTitle="" songArtist="" songAlbum="" songCopyrightUrl="" songArtistUrl="" songAudioFileUrl="" stabilizationMode="0" mediaItemType="2" />
    <MediaItem id="213" filePath="C:\Users\UB_JGarcia\Documents\GitHub\HolidayAnimation2015\Renders\0212.png" arWidth="960" arHeight="540" duration="0" songTitle="" songArtist="" songAlbum="" songCopyrightUrl="" songArtistUrl="" songAudioFileUrl="" stabilizationMode="0" mediaItemType="2" />
    <MediaItem id="214" filePath="C:\Users\UB_JGarcia\Documents\GitHub\HolidayAnimation2015\Renders\0213.png" arWidth="960" arHeight="540" duration="0" songTitle="" songArtist="" songAlbum="" songCopyrightUrl="" songArtistUrl="" songAudioFileUrl="" stabilizationMode="0" mediaItemType="2" />
    <MediaItem id="215" filePath="C:\Users\UB_JGarcia\Documents\GitHub\HolidayAnimation2015\Renders\0214.png" arWidth="960" arHeight="540" duration="0" songTitle="" songArtist="" songAlbum="" songCopyrightUrl="" songArtistUrl="" songAudioFileUrl="" stabilizationMode="0" mediaItemType="2" />
    <MediaItem id="216" filePath="C:\Users\UB_JGarcia\Documents\GitHub\HolidayAnimation2015\Renders\0215.png" arWidth="960" arHeight="540" duration="0" songTitle="" songArtist="" songAlbum="" songCopyrightUrl="" songArtistUrl="" songAudioFileUrl="" stabilizationMode="0" mediaItemType="2" />
    <MediaItem id="217" filePath="C:\Users\UB_JGarcia\Documents\GitHub\HolidayAnimation2015\Renders\0216.png" arWidth="960" arHeight="540" duration="0" songTitle="" songArtist="" songAlbum="" songCopyrightUrl="" songArtistUrl="" songAudioFileUrl="" stabilizationMode="0" mediaItemType="2" />
    <MediaItem id="218" filePath="C:\Users\UB_JGarcia\Documents\GitHub\HolidayAnimation2015\Renders\0217.png" arWidth="960" arHeight="540" duration="0" songTitle="" songArtist="" songAlbum="" songCopyrightUrl="" songArtistUrl="" songAudioFileUrl="" stabilizationMode="0" mediaItemType="2" />
    <MediaItem id="219" filePath="C:\Users\UB_JGarcia\Documents\GitHub\HolidayAnimation2015\Renders\0218.png" arWidth="960" arHeight="540" duration="0" songTitle="" songArtist="" songAlbum="" songCopyrightUrl="" songArtistUrl="" songAudioFileUrl="" stabilizationMode="0" mediaItemType="2" />
    <MediaItem id="220" filePath="C:\Users\UB_JGarcia\Documents\GitHub\HolidayAnimation2015\Renders\0219.png" arWidth="960" arHeight="540" duration="0" songTitle="" songArtist="" songAlbum="" songCopyrightUrl="" songArtistUrl="" songAudioFileUrl="" stabilizationMode="0" mediaItemType="2" />
    <MediaItem id="221" filePath="C:\Users\UB_JGarcia\Documents\GitHub\HolidayAnimation2015\Renders\0220.png" arWidth="960" arHeight="540" duration="0" songTitle="" songArtist="" songAlbum="" songCopyrightUrl="" songArtistUrl="" songAudioFileUrl="" stabilizationMode="0" mediaItemType="2" />
    <MediaItem id="222" filePath="C:\Users\UB_JGarcia\Documents\GitHub\HolidayAnimation2015\Renders\0221.png" arWidth="960" arHeight="540" duration="0" songTitle="" songArtist="" songAlbum="" songCopyrightUrl="" songArtistUrl="" songAudioFileUrl="" stabilizationMode="0" mediaItemType="2" />
    <MediaItem id="223" filePath="C:\Users\UB_JGarcia\Documents\GitHub\HolidayAnimation2015\Renders\0222.png" arWidth="960" arHeight="540" duration="0" songTitle="" songArtist="" songAlbum="" songCopyrightUrl="" songArtistUrl="" songAudioFileUrl="" stabilizationMode="0" mediaItemType="2" />
    <MediaItem id="224" filePath="C:\Users\UB_JGarcia\Documents\GitHub\HolidayAnimation2015\Renders\0223.png" arWidth="960" arHeight="540" duration="0" songTitle="" songArtist="" songAlbum="" songCopyrightUrl="" songArtistUrl="" songAudioFileUrl="" stabilizationMode="0" mediaItemType="2" />
    <MediaItem id="225" filePath="C:\Users\UB_JGarcia\Documents\GitHub\HolidayAnimation2015\Renders\0224.png" arWidth="960" arHeight="540" duration="0" songTitle="" songArtist="" songAlbum="" songCopyrightUrl="" songArtistUrl="" songAudioFileUrl="" stabilizationMode="0" mediaItemType="2" />
    <MediaItem id="226" filePath="C:\Users\UB_JGarcia\Documents\GitHub\HolidayAnimation2015\Renders\0225.png" arWidth="960" arHeight="540" duration="0" songTitle="" songArtist="" songAlbum="" songCopyrightUrl="" songArtistUrl="" songAudioFileUrl="" stabilizationMode="0" mediaItemType="2" />
    <MediaItem id="227" filePath="C:\Users\UB_JGarcia\Documents\GitHub\HolidayAnimation2015\Renders\0226.png" arWidth="960" arHeight="540" duration="0" songTitle="" songArtist="" songAlbum="" songCopyrightUrl="" songArtistUrl="" songAudioFileUrl="" stabilizationMode="0" mediaItemType="2" />
    <MediaItem id="228" filePath="C:\Users\UB_JGarcia\Documents\GitHub\HolidayAnimation2015\Renders\0227.png" arWidth="960" arHeight="540" duration="0" songTitle="" songArtist="" songAlbum="" songCopyrightUrl="" songArtistUrl="" songAudioFileUrl="" stabilizationMode="0" mediaItemType="2" />
    <MediaItem id="229" filePath="C:\Users\UB_JGarcia\Documents\GitHub\HolidayAnimation2015\Renders\0228.png" arWidth="960" arHeight="540" duration="0" songTitle="" songArtist="" songAlbum="" songCopyrightUrl="" songArtistUrl="" songAudioFileUrl="" stabilizationMode="0" mediaItemType="2" />
    <MediaItem id="230" filePath="C:\Users\UB_JGarcia\Documents\GitHub\HolidayAnimation2015\Renders\0229.png" arWidth="960" arHeight="540" duration="0" songTitle="" songArtist="" songAlbum="" songCopyrightUrl="" songArtistUrl="" songAudioFileUrl="" stabilizationMode="0" mediaItemType="2" />
    <MediaItem id="231" filePath="C:\Users\UB_JGarcia\Documents\GitHub\HolidayAnimation2015\Renders\0230.png" arWidth="960" arHeight="540" duration="0" songTitle="" songArtist="" songAlbum="" songCopyrightUrl="" songArtistUrl="" songAudioFileUrl="" stabilizationMode="0" mediaItemType="2" />
    <MediaItem id="232" filePath="C:\Users\UB_JGarcia\Documents\GitHub\HolidayAnimation2015\Renders\0231.png" arWidth="960" arHeight="540" duration="0" songTitle="" songArtist="" songAlbum="" songCopyrightUrl="" songArtistUrl="" songAudioFileUrl="" stabilizationMode="0" mediaItemType="2" />
    <MediaItem id="233" filePath="C:\Users\UB_JGarcia\Documents\GitHub\HolidayAnimation2015\Renders\0232.png" arWidth="960" arHeight="540" duration="0" songTitle="" songArtist="" songAlbum="" songCopyrightUrl="" songArtistUrl="" songAudioFileUrl="" stabilizationMode="0" mediaItemType="2" />
    <MediaItem id="234" filePath="C:\Users\UB_JGarcia\Documents\GitHub\HolidayAnimation2015\Renders\0233.png" arWidth="960" arHeight="540" duration="0" songTitle="" songArtist="" songAlbum="" songCopyrightUrl="" songArtistUrl="" songAudioFileUrl="" stabilizationMode="0" mediaItemType="2" />
    <MediaItem id="235" filePath="C:\Users\UB_JGarcia\Documents\GitHub\HolidayAnimation2015\Renders\0234.png" arWidth="960" arHeight="540" duration="0" songTitle="" songArtist="" songAlbum="" songCopyrightUrl="" songArtistUrl="" songAudioFileUrl="" stabilizationMode="0" mediaItemType="2" />
    <MediaItem id="236" filePath="C:\Users\UB_JGarcia\Documents\GitHub\HolidayAnimation2015\Renders\0235.png" arWidth="960" arHeight="540" duration="0" songTitle="" songArtist="" songAlbum="" songCopyrightUrl="" songArtistUrl="" songAudioFileUrl="" stabilizationMode="0" mediaItemType="2" />
    <MediaItem id="237" filePath="C:\Users\UB_JGarcia\Documents\GitHub\HolidayAnimation2015\Renders\0236.png" arWidth="960" arHeight="540" duration="0" songTitle="" songArtist="" songAlbum="" songCopyrightUrl="" songArtistUrl="" songAudioFileUrl="" stabilizationMode="0" mediaItemType="2" />
    <MediaItem id="238" filePath="C:\Users\UB_JGarcia\Documents\GitHub\HolidayAnimation2015\Renders\0237.png" arWidth="960" arHeight="540" duration="0" songTitle="" songArtist="" songAlbum="" songCopyrightUrl="" songArtistUrl="" songAudioFileUrl="" stabilizationMode="0" mediaItemType="2" />
    <MediaItem id="239" filePath="C:\Users\UB_JGarcia\Documents\GitHub\HolidayAnimation2015\Renders\0238.png" arWidth="960" arHeight="540" duration="0" songTitle="" songArtist="" songAlbum="" songCopyrightUrl="" songArtistUrl="" songAudioFileUrl="" stabilizationMode="0" mediaItemType="2" />
    <MediaItem id="240" filePath="C:\Users\UB_JGarcia\Documents\GitHub\HolidayAnimation2015\Renders\0239.png" arWidth="960" arHeight="540" duration="0" songTitle="" songArtist="" songAlbum="" songCopyrightUrl="" songArtistUrl="" songAudioFileUrl="" stabilizationMode="0" mediaItemType="2" />
    <MediaItem id="241" filePath="C:\Users\UB_JGarcia\Documents\GitHub\HolidayAnimation2015\Renders\0240.png" arWidth="960" arHeight="540" duration="0" songTitle="" songArtist="" songAlbum="" songCopyrightUrl="" songArtistUrl="" songAudioFileUrl="" stabilizationMode="0" mediaItemType="2" />
    <MediaItem id="242" filePath="C:\Users\UB_JGarcia\Documents\GitHub\HolidayAnimation2015\Renders\0241.png" arWidth="960" arHeight="540" duration="0" songTitle="" songArtist="" songAlbum="" songCopyrightUrl="" songArtistUrl="" songAudioFileUrl="" stabilizationMode="0" mediaItemType="2" />
    <MediaItem id="243" filePath="C:\Users\UB_JGarcia\Documents\GitHub\HolidayAnimation2015\Renders\0242.png" arWidth="960" arHeight="540" duration="0" songTitle="" songArtist="" songAlbum="" songCopyrightUrl="" songArtistUrl="" songAudioFileUrl="" stabilizationMode="0" mediaItemType="2" />
    <MediaItem id="244" filePath="C:\Users\UB_JGarcia\Documents\GitHub\HolidayAnimation2015\Renders\0243.png" arWidth="960" arHeight="540" duration="0" songTitle="" songArtist="" songAlbum="" songCopyrightUrl="" songArtistUrl="" songAudioFileUrl="" stabilizationMode="0" mediaItemType="2" />
    <MediaItem id="245" filePath="C:\Users\UB_JGarcia\Documents\GitHub\HolidayAnimation2015\Renders\0244.png" arWidth="960" arHeight="540" duration="0" songTitle="" songArtist="" songAlbum="" songCopyrightUrl="" songArtistUrl="" songAudioFileUrl="" stabilizationMode="0" mediaItemType="2" />
    <MediaItem id="246" filePath="C:\Users\UB_JGarcia\Documents\GitHub\HolidayAnimation2015\Renders\0245.png" arWidth="960" arHeight="540" duration="0" songTitle="" songArtist="" songAlbum="" songCopyrightUrl="" songArtistUrl="" songAudioFileUrl="" stabilizationMode="0" mediaItemType="2" />
    <MediaItem id="247" filePath="C:\Users\UB_JGarcia\Documents\GitHub\HolidayAnimation2015\Renders\0246.png" arWidth="960" arHeight="540" duration="0" songTitle="" songArtist="" songAlbum="" songCopyrightUrl="" songArtistUrl="" songAudioFileUrl="" stabilizationMode="0" mediaItemType="2" />
    <MediaItem id="248" filePath="C:\Users\UB_JGarcia\Documents\GitHub\HolidayAnimation2015\Renders\0247.png" arWidth="960" arHeight="540" duration="0" songTitle="" songArtist="" songAlbum="" songCopyrightUrl="" songArtistUrl="" songAudioFileUrl="" stabilizationMode="0" mediaItemType="2" />
    <MediaItem id="249" filePath="C:\Users\UB_JGarcia\Documents\GitHub\HolidayAnimation2015\Renders\0248.png" arWidth="960" arHeight="540" duration="0" songTitle="" songArtist="" songAlbum="" songCopyrightUrl="" songArtistUrl="" songAudioFileUrl="" stabilizationMode="0" mediaItemType="2" />
    <MediaItem id="250" filePath="C:\Users\UB_JGarcia\Documents\GitHub\HolidayAnimation2015\Renders\0249.png" arWidth="960" arHeight="540" duration="0" songTitle="" songArtist="" songAlbum="" songCopyrightUrl="" songArtistUrl="" songAudioFileUrl="" stabilizationMode="0" mediaItemType="2" />
    <MediaItem id="251" filePath="C:\Users\UB_JGarcia\Documents\GitHub\HolidayAnimation2015\Renders\0250.png" arWidth="960" arHeight="540" duration="0" songTitle="" songArtist="" songAlbum="" songCopyrightUrl="" songArtistUrl="" songAudioFileUrl="" stabilizationMode="0" mediaItemType="2" />
    <MediaItem id="252" filePath="C:\Users\UB_JGarcia\Documents\GitHub\HolidayAnimation2015\Renders\0251.png" arWidth="960" arHeight="540" duration="0" songTitle="" songArtist="" songAlbum="" songCopyrightUrl="" songArtistUrl="" songAudioFileUrl="" stabilizationMode="0" mediaItemType="2" />
    <MediaItem id="253" filePath="C:\Users\UB_JGarcia\Documents\GitHub\HolidayAnimation2015\Renders\0252.png" arWidth="960" arHeight="540" duration="0" songTitle="" songArtist="" songAlbum="" songCopyrightUrl="" songArtistUrl="" songAudioFileUrl="" stabilizationMode="0" mediaItemType="2" />
    <MediaItem id="254" filePath="C:\Users\UB_JGarcia\Documents\GitHub\HolidayAnimation2015\Renders\0253.png" arWidth="960" arHeight="540" duration="0" songTitle="" songArtist="" songAlbum="" songCopyrightUrl="" songArtistUrl="" songAudioFileUrl="" stabilizationMode="0" mediaItemType="2" />
    <MediaItem id="255" filePath="C:\Users\UB_JGarcia\Documents\GitHub\HolidayAnimation2015\Renders\0254.png" arWidth="960" arHeight="540" duration="0" songTitle="" songArtist="" songAlbum="" songCopyrightUrl="" songArtistUrl="" songAudioFileUrl="" stabilizationMode="0" mediaItemType="2" />
    <MediaItem id="256" filePath="C:\Users\UB_JGarcia\Documents\GitHub\HolidayAnimation2015\Renders\0255.png" arWidth="960" arHeight="540" duration="0" songTitle="" songArtist="" songAlbum="" songCopyrightUrl="" songArtistUrl="" songAudioFileUrl="" stabilizationMode="0" mediaItemType="2" />
    <MediaItem id="257" filePath="C:\Users\UB_JGarcia\Documents\GitHub\HolidayAnimation2015\Renders\0256.png" arWidth="960" arHeight="540" duration="0" songTitle="" songArtist="" songAlbum="" songCopyrightUrl="" songArtistUrl="" songAudioFileUrl="" stabilizationMode="0" mediaItemType="2" />
    <MediaItem id="258" filePath="C:\Users\UB_JGarcia\Documents\GitHub\HolidayAnimation2015\Renders\0257.png" arWidth="960" arHeight="540" duration="0" songTitle="" songArtist="" songAlbum="" songCopyrightUrl="" songArtistUrl="" songAudioFileUrl="" stabilizationMode="0" mediaItemType="2" />
    <MediaItem id="259" filePath="C:\Users\UB_JGarcia\Documents\GitHub\HolidayAnimation2015\Renders\0258.png" arWidth="960" arHeight="540" duration="0" songTitle="" songArtist="" songAlbum="" songCopyrightUrl="" songArtistUrl="" songAudioFileUrl="" stabilizationMode="0" mediaItemType="2" />
    <MediaItem id="260" filePath="C:\Users\UB_JGarcia\Documents\GitHub\HolidayAnimation2015\Renders\0259.png" arWidth="960" arHeight="540" duration="0" songTitle="" songArtist="" songAlbum="" songCopyrightUrl="" songArtistUrl="" songAudioFileUrl="" stabilizationMode="0" mediaItemType="2" />
    <MediaItem id="261" filePath="C:\Users\UB_JGarcia\Documents\GitHub\HolidayAnimation2015\Renders\0260.png" arWidth="960" arHeight="540" duration="0" songTitle="" songArtist="" songAlbum="" songCopyrightUrl="" songArtistUrl="" songAudioFileUrl="" stabilizationMode="0" mediaItemType="2" />
    <MediaItem id="262" filePath="C:\Users\UB_JGarcia\Documents\GitHub\HolidayAnimation2015\Renders\0261.png" arWidth="960" arHeight="540" duration="0" songTitle="" songArtist="" songAlbum="" songCopyrightUrl="" songArtistUrl="" songAudioFileUrl="" stabilizationMode="0" mediaItemType="2" />
    <MediaItem id="263" filePath="C:\Users\UB_JGarcia\Documents\GitHub\HolidayAnimation2015\Renders\0262.png" arWidth="960" arHeight="540" duration="0" songTitle="" songArtist="" songAlbum="" songCopyrightUrl="" songArtistUrl="" songAudioFileUrl="" stabilizationMode="0" mediaItemType="2" />
    <MediaItem id="264" filePath="C:\Users\UB_JGarcia\Documents\GitHub\HolidayAnimation2015\Renders\0263.png" arWidth="960" arHeight="540" duration="0" songTitle="" songArtist="" songAlbum="" songCopyrightUrl="" songArtistUrl="" songAudioFileUrl="" stabilizationMode="0" mediaItemType="2" />
    <MediaItem id="265" filePath="C:\Users\UB_JGarcia\Documents\GitHub\HolidayAnimation2015\Renders\0264.png" arWidth="960" arHeight="540" duration="0" songTitle="" songArtist="" songAlbum="" songCopyrightUrl="" songArtistUrl="" songAudioFileUrl="" stabilizationMode="0" mediaItemType="2" />
    <MediaItem id="266" filePath="C:\Users\UB_JGarcia\Documents\GitHub\HolidayAnimation2015\Renders\0265.png" arWidth="960" arHeight="540" duration="0" songTitle="" songArtist="" songAlbum="" songCopyrightUrl="" songArtistUrl="" songAudioFileUrl="" stabilizationMode="0" mediaItemType="2" />
    <MediaItem id="267" filePath="C:\Users\UB_JGarcia\Documents\GitHub\HolidayAnimation2015\Renders\0266.png" arWidth="960" arHeight="540" duration="0" songTitle="" songArtist="" songAlbum="" songCopyrightUrl="" songArtistUrl="" songAudioFileUrl="" stabilizationMode="0" mediaItemType="2" />
    <MediaItem id="268" filePath="C:\Users\UB_JGarcia\Documents\GitHub\HolidayAnimation2015\Renders\0267.png" arWidth="960" arHeight="540" duration="0" songTitle="" songArtist="" songAlbum="" songCopyrightUrl="" songArtistUrl="" songAudioFileUrl="" stabilizationMode="0" mediaItemType="2" />
    <MediaItem id="269" filePath="C:\Users\UB_JGarcia\Documents\GitHub\HolidayAnimation2015\Renders\0268.png" arWidth="960" arHeight="540" duration="0" songTitle="" songArtist="" songAlbum="" songCopyrightUrl="" songArtistUrl="" songAudioFileUrl="" stabilizationMode="0" mediaItemType="2" />
    <MediaItem id="270" filePath="C:\Users\UB_JGarcia\Documents\GitHub\HolidayAnimation2015\Renders\0269.png" arWidth="960" arHeight="540" duration="0" songTitle="" songArtist="" songAlbum="" songCopyrightUrl="" songArtistUrl="" songAudioFileUrl="" stabilizationMode="0" mediaItemType="2" />
    <MediaItem id="271" filePath="C:\Users\UB_JGarcia\Documents\GitHub\HolidayAnimation2015\Renders\0270.png" arWidth="960" arHeight="540" duration="0" songTitle="" songArtist="" songAlbum="" songCopyrightUrl="" songArtistUrl="" songAudioFileUrl="" stabilizationMode="0" mediaItemType="2" />
    <MediaItem id="272" filePath="C:\Users\UB_JGarcia\Documents\GitHub\HolidayAnimation2015\Renders\0271.png" arWidth="960" arHeight="540" duration="0" songTitle="" songArtist="" songAlbum="" songCopyrightUrl="" songArtistUrl="" songAudioFileUrl="" stabilizationMode="0" mediaItemType="2" />
    <MediaItem id="273" filePath="C:\Users\UB_JGarcia\Documents\GitHub\HolidayAnimation2015\Renders\0272.png" arWidth="960" arHeight="540" duration="0" songTitle="" songArtist="" songAlbum="" songCopyrightUrl="" songArtistUrl="" songAudioFileUrl="" stabilizationMode="0" mediaItemType="2" />
    <MediaItem id="274" filePath="C:\Users\UB_JGarcia\Documents\GitHub\HolidayAnimation2015\Renders\0273.png" arWidth="960" arHeight="540" duration="0" songTitle="" songArtist="" songAlbum="" songCopyrightUrl="" songArtistUrl="" songAudioFileUrl="" stabilizationMode="0" mediaItemType="2" />
    <MediaItem id="275" filePath="C:\Users\UB_JGarcia\Documents\GitHub\HolidayAnimation2015\Renders\0274.png" arWidth="960" arHeight="540" duration="0" songTitle="" songArtist="" songAlbum="" songCopyrightUrl="" songArtistUrl="" songAudioFileUrl="" stabilizationMode="0" mediaItemType="2" />
    <MediaItem id="276" filePath="C:\Users\UB_JGarcia\Documents\GitHub\HolidayAnimation2015\Renders\0275.png" arWidth="960" arHeight="540" duration="0" songTitle="" songArtist="" songAlbum="" songCopyrightUrl="" songArtistUrl="" songAudioFileUrl="" stabilizationMode="0" mediaItemType="2" />
    <MediaItem id="277" filePath="C:\Users\UB_JGarcia\Documents\GitHub\HolidayAnimation2015\Renders\0276.png" arWidth="960" arHeight="540" duration="0" songTitle="" songArtist="" songAlbum="" songCopyrightUrl="" songArtistUrl="" songAudioFileUrl="" stabilizationMode="0" mediaItemType="2" />
    <MediaItem id="278" filePath="C:\Users\UB_JGarcia\Documents\GitHub\HolidayAnimation2015\Renders\0277.png" arWidth="960" arHeight="540" duration="0" songTitle="" songArtist="" songAlbum="" songCopyrightUrl="" songArtistUrl="" songAudioFileUrl="" stabilizationMode="0" mediaItemType="2" />
    <MediaItem id="279" filePath="C:\Users\UB_JGarcia\Documents\GitHub\HolidayAnimation2015\Renders\0278.png" arWidth="960" arHeight="540" duration="0" songTitle="" songArtist="" songAlbum="" songCopyrightUrl="" songArtistUrl="" songAudioFileUrl="" stabilizationMode="0" mediaItemType="2" />
    <MediaItem id="280" filePath="C:\Users\UB_JGarcia\Documents\GitHub\HolidayAnimation2015\Renders\0279.png" arWidth="960" arHeight="540" duration="0" songTitle="" songArtist="" songAlbum="" songCopyrightUrl="" songArtistUrl="" songAudioFileUrl="" stabilizationMode="0" mediaItemType="2" />
    <MediaItem id="281" filePath="C:\Users\UB_JGarcia\Documents\GitHub\HolidayAnimation2015\Renders\0280.png" arWidth="960" arHeight="540" duration="0" songTitle="" songArtist="" songAlbum="" songCopyrightUrl="" songArtistUrl="" songAudioFileUrl="" stabilizationMode="0" mediaItemType="2" />
    <MediaItem id="282" filePath="C:\Users\UB_JGarcia\Documents\GitHub\HolidayAnimation2015\Renders\0281.png" arWidth="960" arHeight="540" duration="0" songTitle="" songArtist="" songAlbum="" songCopyrightUrl="" songArtistUrl="" songAudioFileUrl="" stabilizationMode="0" mediaItemType="2" />
    <MediaItem id="283" filePath="C:\Users\UB_JGarcia\Documents\GitHub\HolidayAnimation2015\Renders\0282.png" arWidth="960" arHeight="540" duration="0" songTitle="" songArtist="" songAlbum="" songCopyrightUrl="" songArtistUrl="" songAudioFileUrl="" stabilizationMode="0" mediaItemType="2" />
    <MediaItem id="284" filePath="C:\Users\UB_JGarcia\Documents\GitHub\HolidayAnimation2015\Renders\0283.png" arWidth="960" arHeight="540" duration="0" songTitle="" songArtist="" songAlbum="" songCopyrightUrl="" songArtistUrl="" songAudioFileUrl="" stabilizationMode="0" mediaItemType="2" />
    <MediaItem id="285" filePath="C:\Users\UB_JGarcia\Documents\GitHub\HolidayAnimation2015\Renders\0284.png" arWidth="960" arHeight="540" duration="0" songTitle="" songArtist="" songAlbum="" songCopyrightUrl="" songArtistUrl="" songAudioFileUrl="" stabilizationMode="0" mediaItemType="2" />
    <MediaItem id="286" filePath="C:\Users\UB_JGarcia\Documents\GitHub\HolidayAnimation2015\Renders\0285.png" arWidth="960" arHeight="540" duration="0" songTitle="" songArtist="" songAlbum="" songCopyrightUrl="" songArtistUrl="" songAudioFileUrl="" stabilizationMode="0" mediaItemType="2" />
    <MediaItem id="287" filePath="C:\Users\UB_JGarcia\Documents\GitHub\HolidayAnimation2015\Renders\0286.png" arWidth="960" arHeight="540" duration="0" songTitle="" songArtist="" songAlbum="" songCopyrightUrl="" songArtistUrl="" songAudioFileUrl="" stabilizationMode="0" mediaItemType="2" />
    <MediaItem id="288" filePath="C:\Users\UB_JGarcia\Documents\GitHub\HolidayAnimation2015\Renders\0287.png" arWidth="960" arHeight="540" duration="0" songTitle="" songArtist="" songAlbum="" songCopyrightUrl="" songArtistUrl="" songAudioFileUrl="" stabilizationMode="0" mediaItemType="2" />
    <MediaItem id="289" filePath="C:\Users\UB_JGarcia\Documents\GitHub\HolidayAnimation2015\Renders\0288.png" arWidth="960" arHeight="540" duration="0" songTitle="" songArtist="" songAlbum="" songCopyrightUrl="" songArtistUrl="" songAudioFileUrl="" stabilizationMode="0" mediaItemType="2" />
    <MediaItem id="290" filePath="C:\Users\UB_JGarcia\Documents\GitHub\HolidayAnimation2015\Renders\0289.png" arWidth="960" arHeight="540" duration="0" songTitle="" songArtist="" songAlbum="" songCopyrightUrl="" songArtistUrl="" songAudioFileUrl="" stabilizationMode="0" mediaItemType="2" />
    <MediaItem id="291" filePath="C:\Users\UB_JGarcia\Documents\GitHub\HolidayAnimation2015\Renders\0290.png" arWidth="960" arHeight="540" duration="0" songTitle="" songArtist="" songAlbum="" songCopyrightUrl="" songArtistUrl="" songAudioFileUrl="" stabilizationMode="0" mediaItemType="2" />
    <MediaItem id="292" filePath="C:\Users\UB_JGarcia\Documents\GitHub\HolidayAnimation2015\Renders\0291.png" arWidth="960" arHeight="540" duration="0" songTitle="" songArtist="" songAlbum="" songCopyrightUrl="" songArtistUrl="" songAudioFileUrl="" stabilizationMode="0" mediaItemType="2" />
    <MediaItem id="293" filePath="C:\Users\UB_JGarcia\Documents\GitHub\HolidayAnimation2015\Renders\0292.png" arWidth="960" arHeight="540" duration="0" songTitle="" songArtist="" songAlbum="" songCopyrightUrl="" songArtistUrl="" songAudioFileUrl="" stabilizationMode="0" mediaItemType="2" />
    <MediaItem id="294" filePath="C:\Users\UB_JGarcia\Documents\GitHub\HolidayAnimation2015\Renders\0293.png" arWidth="960" arHeight="540" duration="0" songTitle="" songArtist="" songAlbum="" songCopyrightUrl="" songArtistUrl="" songAudioFileUrl="" stabilizationMode="0" mediaItemType="2" />
    <MediaItem id="295" filePath="C:\Users\UB_JGarcia\Documents\GitHub\HolidayAnimation2015\Renders\0294.png" arWidth="960" arHeight="540" duration="0" songTitle="" songArtist="" songAlbum="" songCopyrightUrl="" songArtistUrl="" songAudioFileUrl="" stabilizationMode="0" mediaItemType="2" />
    <MediaItem id="296" filePath="C:\Users\UB_JGarcia\Documents\GitHub\HolidayAnimation2015\Renders\0295.png" arWidth="960" arHeight="540" duration="0" songTitle="" songArtist="" songAlbum="" songCopyrightUrl="" songArtistUrl="" songAudioFileUrl="" stabilizationMode="0" mediaItemType="2" />
    <MediaItem id="297" filePath="C:\Users\UB_JGarcia\Documents\GitHub\HolidayAnimation2015\Renders\0296.png" arWidth="960" arHeight="540" duration="0" songTitle="" songArtist="" songAlbum="" songCopyrightUrl="" songArtistUrl="" songAudioFileUrl="" stabilizationMode="0" mediaItemType="2" />
    <MediaItem id="298" filePath="C:\Users\UB_JGarcia\Documents\GitHub\HolidayAnimation2015\Renders\0297.png" arWidth="960" arHeight="540" duration="0" songTitle="" songArtist="" songAlbum="" songCopyrightUrl="" songArtistUrl="" songAudioFileUrl="" stabilizationMode="0" mediaItemType="2" />
    <MediaItem id="299" filePath="C:\Users\UB_JGarcia\Documents\GitHub\HolidayAnimation2015\Renders\0298.png" arWidth="960" arHeight="540" duration="0" songTitle="" songArtist="" songAlbum="" songCopyrightUrl="" songArtistUrl="" songAudioFileUrl="" stabilizationMode="0" mediaItemType="2" />
    <MediaItem id="300" filePath="C:\Users\UB_JGarcia\Documents\GitHub\HolidayAnimation2015\Renders\0299.png" arWidth="960" arHeight="540" duration="0" songTitle="" songArtist="" songAlbum="" songCopyrightUrl="" songArtistUrl="" songAudioFileUrl="" stabilizationMode="0" mediaItemType="2" />
    <MediaItem id="301" filePath="C:\Users\UB_JGarcia\Documents\GitHub\HolidayAnimation2015\Renders\0300.png" arWidth="960" arHeight="540" duration="0" songTitle="" songArtist="" songAlbum="" songCopyrightUrl="" songArtistUrl="" songAudioFileUrl="" stabilizationMode="0" mediaItemType="2" />
    <MediaItem id="302" filePath="C:\Users\UB_JGarcia\Documents\GitHub\HolidayAnimation2015\Renders\0301.png" arWidth="960" arHeight="540" duration="0" songTitle="" songArtist="" songAlbum="" songCopyrightUrl="" songArtistUrl="" songAudioFileUrl="" stabilizationMode="0" mediaItemType="2" />
    <MediaItem id="303" filePath="C:\Users\UB_JGarcia\Documents\GitHub\HolidayAnimation2015\Renders\0302.png" arWidth="960" arHeight="540" duration="0" songTitle="" songArtist="" songAlbum="" songCopyrightUrl="" songArtistUrl="" songAudioFileUrl="" stabilizationMode="0" mediaItemType="2" />
    <MediaItem id="304" filePath="C:\Users\UB_JGarcia\Documents\GitHub\HolidayAnimation2015\Renders\0303.png" arWidth="960" arHeight="540" duration="0" songTitle="" songArtist="" songAlbum="" songCopyrightUrl="" songArtistUrl="" songAudioFileUrl="" stabilizationMode="0" mediaItemType="2" />
    <MediaItem id="305" filePath="C:\Users\UB_JGarcia\Documents\GitHub\HolidayAnimation2015\Renders\0304.png" arWidth="960" arHeight="540" duration="0" songTitle="" songArtist="" songAlbum="" songCopyrightUrl="" songArtistUrl="" songAudioFileUrl="" stabilizationMode="0" mediaItemType="2" />
    <MediaItem id="306" filePath="C:\Users\UB_JGarcia\Documents\GitHub\HolidayAnimation2015\Renders\0305.png" arWidth="960" arHeight="540" duration="0" songTitle="" songArtist="" songAlbum="" songCopyrightUrl="" songArtistUrl="" songAudioFileUrl="" stabilizationMode="0" mediaItemType="2" />
    <MediaItem id="307" filePath="C:\Users\UB_JGarcia\Documents\GitHub\HolidayAnimation2015\Renders\0306.png" arWidth="960" arHeight="540" duration="0" songTitle="" songArtist="" songAlbum="" songCopyrightUrl="" songArtistUrl="" songAudioFileUrl="" stabilizationMode="0" mediaItemType="2" />
    <MediaItem id="308" filePath="C:\Users\UB_JGarcia\Documents\GitHub\HolidayAnimation2015\Renders\0307.png" arWidth="960" arHeight="540" duration="0" songTitle="" songArtist="" songAlbum="" songCopyrightUrl="" songArtistUrl="" songAudioFileUrl="" stabilizationMode="0" mediaItemType="2" />
    <MediaItem id="309" filePath="C:\Users\UB_JGarcia\Documents\GitHub\HolidayAnimation2015\Renders\0308.png" arWidth="960" arHeight="540" duration="0" songTitle="" songArtist="" songAlbum="" songCopyrightUrl="" songArtistUrl="" songAudioFileUrl="" stabilizationMode="0" mediaItemType="2" />
    <MediaItem id="310" filePath="C:\Users\UB_JGarcia\Documents\GitHub\HolidayAnimation2015\Renders\0309.png" arWidth="960" arHeight="540" duration="0" songTitle="" songArtist="" songAlbum="" songCopyrightUrl="" songArtistUrl="" songAudioFileUrl="" stabilizationMode="0" mediaItemType="2" />
    <MediaItem id="311" filePath="C:\Users\UB_JGarcia\Documents\GitHub\HolidayAnimation2015\Renders\0310.png" arWidth="960" arHeight="540" duration="0" songTitle="" songArtist="" songAlbum="" songCopyrightUrl="" songArtistUrl="" songAudioFileUrl="" stabilizationMode="0" mediaItemType="2" />
    <MediaItem id="312" filePath="C:\Users\UB_JGarcia\Documents\GitHub\HolidayAnimation2015\Renders\0311.png" arWidth="960" arHeight="540" duration="0" songTitle="" songArtist="" songAlbum="" songCopyrightUrl="" songArtistUrl="" songAudioFileUrl="" stabilizationMode="0" mediaItemType="2" />
    <MediaItem id="313" filePath="C:\Users\UB_JGarcia\Documents\GitHub\HolidayAnimation2015\Renders\0312.png" arWidth="960" arHeight="540" duration="0" songTitle="" songArtist="" songAlbum="" songCopyrightUrl="" songArtistUrl="" songAudioFileUrl="" stabilizationMode="0" mediaItemType="2" />
    <MediaItem id="314" filePath="C:\Users\UB_JGarcia\Documents\GitHub\HolidayAnimation2015\Renders\0313.png" arWidth="960" arHeight="540" duration="0" songTitle="" songArtist="" songAlbum="" songCopyrightUrl="" songArtistUrl="" songAudioFileUrl="" stabilizationMode="0" mediaItemType="2" />
    <MediaItem id="315" filePath="C:\Users\UB_JGarcia\Documents\GitHub\HolidayAnimation2015\Renders\0314.png" arWidth="960" arHeight="540" duration="0" songTitle="" songArtist="" songAlbum="" songCopyrightUrl="" songArtistUrl="" songAudioFileUrl="" stabilizationMode="0" mediaItemType="2" />
    <MediaItem id="316" filePath="C:\Users\UB_JGarcia\Documents\GitHub\HolidayAnimation2015\Renders\0315.png" arWidth="960" arHeight="540" duration="0" songTitle="" songArtist="" songAlbum="" songCopyrightUrl="" songArtistUrl="" songAudioFileUrl="" stabilizationMode="0" mediaItemType="2" />
    <MediaItem id="317" filePath="C:\Users\UB_JGarcia\Documents\GitHub\HolidayAnimation2015\Renders\0316.png" arWidth="960" arHeight="540" duration="0" songTitle="" songArtist="" songAlbum="" songCopyrightUrl="" songArtistUrl="" songAudioFileUrl="" stabilizationMode="0" mediaItemType="2" />
    <MediaItem id="318" filePath="C:\Users\UB_JGarcia\Documents\GitHub\HolidayAnimation2015\Renders\0317.png" arWidth="960" arHeight="540" duration="0" songTitle="" songArtist="" songAlbum="" songCopyrightUrl="" songArtistUrl="" songAudioFileUrl="" stabilizationMode="0" mediaItemType="2" />
    <MediaItem id="319" filePath="C:\Users\UB_JGarcia\Documents\GitHub\HolidayAnimation2015\Renders\0318.png" arWidth="960" arHeight="540" duration="0" songTitle="" songArtist="" songAlbum="" songCopyrightUrl="" songArtistUrl="" songAudioFileUrl="" stabilizationMode="0" mediaItemType="2" />
    <MediaItem id="320" filePath="C:\Users\UB_JGarcia\Documents\GitHub\HolidayAnimation2015\Renders\0319.png" arWidth="960" arHeight="540" duration="0" songTitle="" songArtist="" songAlbum="" songCopyrightUrl="" songArtistUrl="" songAudioFileUrl="" stabilizationMode="0" mediaItemType="2" />
    <MediaItem id="321" filePath="C:\Users\UB_JGarcia\Documents\GitHub\HolidayAnimation2015\Renders\0320.png" arWidth="960" arHeight="540" duration="0" songTitle="" songArtist="" songAlbum="" songCopyrightUrl="" songArtistUrl="" songAudioFileUrl="" stabilizationMode="0" mediaItemType="2" />
    <MediaItem id="322" filePath="C:\Users\UB_JGarcia\Documents\GitHub\HolidayAnimation2015\Renders\0321.png" arWidth="960" arHeight="540" duration="0" songTitle="" songArtist="" songAlbum="" songCopyrightUrl="" songArtistUrl="" songAudioFileUrl="" stabilizationMode="0" mediaItemType="2" />
    <MediaItem id="323" filePath="C:\Users\UB_JGarcia\Documents\GitHub\HolidayAnimation2015\Renders\0322.png" arWidth="960" arHeight="540" duration="0" songTitle="" songArtist="" songAlbum="" songCopyrightUrl="" songArtistUrl="" songAudioFileUrl="" stabilizationMode="0" mediaItemType="2" />
    <MediaItem id="324" filePath="C:\Users\UB_JGarcia\Documents\GitHub\HolidayAnimation2015\Renders\0323.png" arWidth="960" arHeight="540" duration="0" songTitle="" songArtist="" songAlbum="" songCopyrightUrl="" songArtistUrl="" songAudioFileUrl="" stabilizationMode="0" mediaItemType="2" />
    <MediaItem id="325" filePath="C:\Users\UB_JGarcia\Documents\GitHub\HolidayAnimation2015\Renders\0324.png" arWidth="960" arHeight="540" duration="0" songTitle="" songArtist="" songAlbum="" songCopyrightUrl="" songArtistUrl="" songAudioFileUrl="" stabilizationMode="0" mediaItemType="2" />
    <MediaItem id="326" filePath="C:\Users\UB_JGarcia\Documents\GitHub\HolidayAnimation2015\Renders\0325.png" arWidth="960" arHeight="540" duration="0" songTitle="" songArtist="" songAlbum="" songCopyrightUrl="" songArtistUrl="" songAudioFileUrl="" stabilizationMode="0" mediaItemType="2" />
    <MediaItem id="327" filePath="C:\Users\UB_JGarcia\Documents\GitHub\HolidayAnimation2015\Renders\0326.png" arWidth="960" arHeight="540" duration="0" songTitle="" songArtist="" songAlbum="" songCopyrightUrl="" songArtistUrl="" songAudioFileUrl="" stabilizationMode="0" mediaItemType="2" />
    <MediaItem id="328" filePath="C:\Users\UB_JGarcia\Documents\GitHub\HolidayAnimation2015\Renders\0327.png" arWidth="960" arHeight="540" duration="0" songTitle="" songArtist="" songAlbum="" songCopyrightUrl="" songArtistUrl="" songAudioFileUrl="" stabilizationMode="0" mediaItemType="2" />
    <MediaItem id="329" filePath="C:\Users\UB_JGarcia\Documents\GitHub\HolidayAnimation2015\Renders\0328.png" arWidth="960" arHeight="540" duration="0" songTitle="" songArtist="" songAlbum="" songCopyrightUrl="" songArtistUrl="" songAudioFileUrl="" stabilizationMode="0" mediaItemType="2" />
    <MediaItem id="330" filePath="C:\Users\UB_JGarcia\Documents\GitHub\HolidayAnimation2015\Renders\0329.png" arWidth="960" arHeight="540" duration="0" songTitle="" songArtist="" songAlbum="" songCopyrightUrl="" songArtistUrl="" songAudioFileUrl="" stabilizationMode="0" mediaItemType="2" />
    <MediaItem id="331" filePath="C:\Users\UB_JGarcia\Documents\GitHub\HolidayAnimation2015\Renders\0330.png" arWidth="960" arHeight="540" duration="0" songTitle="" songArtist="" songAlbum="" songCopyrightUrl="" songArtistUrl="" songAudioFileUrl="" stabilizationMode="0" mediaItemType="2" />
    <MediaItem id="332" filePath="C:\Users\UB_JGarcia\Documents\GitHub\HolidayAnimation2015\Renders\0331.png" arWidth="960" arHeight="540" duration="0" songTitle="" songArtist="" songAlbum="" songCopyrightUrl="" songArtistUrl="" songAudioFileUrl="" stabilizationMode="0" mediaItemType="2" />
    <MediaItem id="333" filePath="C:\Users\UB_JGarcia\Documents\GitHub\HolidayAnimation2015\Renders\0332.png" arWidth="960" arHeight="540" duration="0" songTitle="" songArtist="" songAlbum="" songCopyrightUrl="" songArtistUrl="" songAudioFileUrl="" stabilizationMode="0" mediaItemType="2" />
    <MediaItem id="334" filePath="C:\Users\UB_JGarcia\Documents\GitHub\HolidayAnimation2015\Renders\0333.png" arWidth="960" arHeight="540" duration="0" songTitle="" songArtist="" songAlbum="" songCopyrightUrl="" songArtistUrl="" songAudioFileUrl="" stabilizationMode="0" mediaItemType="2" />
    <MediaItem id="335" filePath="C:\Users\UB_JGarcia\Documents\GitHub\HolidayAnimation2015\Renders\0334.png" arWidth="960" arHeight="540" duration="0" songTitle="" songArtist="" songAlbum="" songCopyrightUrl="" songArtistUrl="" songAudioFileUrl="" stabilizationMode="0" mediaItemType="2" />
    <MediaItem id="336" filePath="C:\Users\UB_JGarcia\Documents\GitHub\HolidayAnimation2015\Renders\0335.png" arWidth="960" arHeight="540" duration="0" songTitle="" songArtist="" songAlbum="" songCopyrightUrl="" songArtistUrl="" songAudioFileUrl="" stabilizationMode="0" mediaItemType="2" />
    <MediaItem id="337" filePath="C:\Users\UB_JGarcia\Documents\GitHub\HolidayAnimation2015\Renders\0336.png" arWidth="960" arHeight="540" duration="0" songTitle="" songArtist="" songAlbum="" songCopyrightUrl="" songArtistUrl="" songAudioFileUrl="" stabilizationMode="0" mediaItemType="2" />
    <MediaItem id="338" filePath="C:\Users\UB_JGarcia\Documents\GitHub\HolidayAnimation2015\Renders\0337.png" arWidth="960" arHeight="540" duration="0" songTitle="" songArtist="" songAlbum="" songCopyrightUrl="" songArtistUrl="" songAudioFileUrl="" stabilizationMode="0" mediaItemType="2" />
    <MediaItem id="339" filePath="C:\Users\UB_JGarcia\Documents\GitHub\HolidayAnimation2015\Renders\0338.png" arWidth="960" arHeight="540" duration="0" songTitle="" songArtist="" songAlbum="" songCopyrightUrl="" songArtistUrl="" songAudioFileUrl="" stabilizationMode="0" mediaItemType="2" />
    <MediaItem id="340" filePath="C:\Users\UB_JGarcia\Documents\GitHub\HolidayAnimation2015\Renders\0339.png" arWidth="960" arHeight="540" duration="0" songTitle="" songArtist="" songAlbum="" songCopyrightUrl="" songArtistUrl="" songAudioFileUrl="" stabilizationMode="0" mediaItemType="2" />
    <MediaItem id="341" filePath="C:\Users\UB_JGarcia\Documents\GitHub\HolidayAnimation2015\Renders\0340.png" arWidth="960" arHeight="540" duration="0" songTitle="" songArtist="" songAlbum="" songCopyrightUrl="" songArtistUrl="" songAudioFileUrl="" stabilizationMode="0" mediaItemType="2" />
    <MediaItem id="342" filePath="C:\Users\UB_JGarcia\Documents\GitHub\HolidayAnimation2015\Renders\0341.png" arWidth="960" arHeight="540" duration="0" songTitle="" songArtist="" songAlbum="" songCopyrightUrl="" songArtistUrl="" songAudioFileUrl="" stabilizationMode="0" mediaItemType="2" />
    <MediaItem id="343" filePath="C:\Users\UB_JGarcia\Documents\GitHub\HolidayAnimation2015\Renders\0342.png" arWidth="960" arHeight="540" duration="0" songTitle="" songArtist="" songAlbum="" songCopyrightUrl="" songArtistUrl="" songAudioFileUrl="" stabilizationMode="0" mediaItemType="2" />
    <MediaItem id="344" filePath="C:\Users\UB_JGarcia\Documents\GitHub\HolidayAnimation2015\Renders\0343.png" arWidth="960" arHeight="540" duration="0" songTitle="" songArtist="" songAlbum="" songCopyrightUrl="" songArtistUrl="" songAudioFileUrl="" stabilizationMode="0" mediaItemType="2" />
    <MediaItem id="345" filePath="C:\Users\UB_JGarcia\Documents\GitHub\HolidayAnimation2015\Renders\0344.png" arWidth="960" arHeight="540" duration="0" songTitle="" songArtist="" songAlbum="" songCopyrightUrl="" songArtistUrl="" songAudioFileUrl="" stabilizationMode="0" mediaItemType="2" />
    <MediaItem id="346" filePath="C:\Users\UB_JGarcia\Documents\GitHub\HolidayAnimation2015\Renders\0345.png" arWidth="960" arHeight="540" duration="0" songTitle="" songArtist="" songAlbum="" songCopyrightUrl="" songArtistUrl="" songAudioFileUrl="" stabilizationMode="0" mediaItemType="2" />
    <MediaItem id="347" filePath="C:\Users\UB_JGarcia\Documents\GitHub\HolidayAnimation2015\Renders\0346.png" arWidth="960" arHeight="540" duration="0" songTitle="" songArtist="" songAlbum="" songCopyrightUrl="" songArtistUrl="" songAudioFileUrl="" stabilizationMode="0" mediaItemType="2" />
    <MediaItem id="348" filePath="C:\Users\UB_JGarcia\Documents\GitHub\HolidayAnimation2015\Renders\0347.png" arWidth="960" arHeight="540" duration="0" songTitle="" songArtist="" songAlbum="" songCopyrightUrl="" songArtistUrl="" songAudioFileUrl="" stabilizationMode="0" mediaItemType="2" />
    <MediaItem id="349" filePath="C:\Users\UB_JGarcia\Documents\GitHub\HolidayAnimation2015\Renders\0348.png" arWidth="960" arHeight="540" duration="0" songTitle="" songArtist="" songAlbum="" songCopyrightUrl="" songArtistUrl="" songAudioFileUrl="" stabilizationMode="0" mediaItemType="2" />
    <MediaItem id="350" filePath="C:\Users\UB_JGarcia\Documents\GitHub\HolidayAnimation2015\Renders\0349.png" arWidth="960" arHeight="540" duration="0" songTitle="" songArtist="" songAlbum="" songCopyrightUrl="" songArtistUrl="" songAudioFileUrl="" stabilizationMode="0" mediaItemType="2" />
    <MediaItem id="351" filePath="C:\Users\UB_JGarcia\Documents\GitHub\HolidayAnimation2015\Renders\0350.png" arWidth="960" arHeight="540" duration="0" songTitle="" songArtist="" songAlbum="" songCopyrightUrl="" songArtistUrl="" songAudioFileUrl="" stabilizationMode="0" mediaItemType="2" />
    <MediaItem id="352" filePath="C:\Users\UB_JGarcia\Documents\GitHub\HolidayAnimation2015\Renders\0351.png" arWidth="960" arHeight="540" duration="0" songTitle="" songArtist="" songAlbum="" songCopyrightUrl="" songArtistUrl="" songAudioFileUrl="" stabilizationMode="0" mediaItemType="2" />
    <MediaItem id="353" filePath="C:\Users\UB_JGarcia\Documents\GitHub\HolidayAnimation2015\Renders\0352.png" arWidth="960" arHeight="540" duration="0" songTitle="" songArtist="" songAlbum="" songCopyrightUrl="" songArtistUrl="" songAudioFileUrl="" stabilizationMode="0" mediaItemType="2" />
    <MediaItem id="354" filePath="C:\Users\UB_JGarcia\Documents\GitHub\HolidayAnimation2015\Renders\0353.png" arWidth="960" arHeight="540" duration="0" songTitle="" songArtist="" songAlbum="" songCopyrightUrl="" songArtistUrl="" songAudioFileUrl="" stabilizationMode="0" mediaItemType="2" />
    <MediaItem id="355" filePath="C:\Users\UB_JGarcia\Documents\GitHub\HolidayAnimation2015\Renders\0354.png" arWidth="960" arHeight="540" duration="0" songTitle="" songArtist="" songAlbum="" songCopyrightUrl="" songArtistUrl="" songAudioFileUrl="" stabilizationMode="0" mediaItemType="2" />
    <MediaItem id="356" filePath="C:\Users\UB_JGarcia\Documents\GitHub\HolidayAnimation2015\Renders\0355.png" arWidth="960" arHeight="540" duration="0" songTitle="" songArtist="" songAlbum="" songCopyrightUrl="" songArtistUrl="" songAudioFileUrl="" stabilizationMode="0" mediaItemType="2" />
    <MediaItem id="357" filePath="C:\Users\UB_JGarcia\Documents\GitHub\HolidayAnimation2015\Renders\0356.png" arWidth="960" arHeight="540" duration="0" songTitle="" songArtist="" songAlbum="" songCopyrightUrl="" songArtistUrl="" songAudioFileUrl="" stabilizationMode="0" mediaItemType="2" />
    <MediaItem id="358" filePath="C:\Users\UB_JGarcia\Documents\GitHub\HolidayAnimation2015\Renders\0357.png" arWidth="960" arHeight="540" duration="0" songTitle="" songArtist="" songAlbum="" songCopyrightUrl="" songArtistUrl="" songAudioFileUrl="" stabilizationMode="0" mediaItemType="2" />
    <MediaItem id="359" filePath="C:\Users\UB_JGarcia\Documents\GitHub\HolidayAnimation2015\Renders\0358.png" arWidth="960" arHeight="540" duration="0" songTitle="" songArtist="" songAlbum="" songCopyrightUrl="" songArtistUrl="" songAudioFileUrl="" stabilizationMode="0" mediaItemType="2" />
    <MediaItem id="360" filePath="C:\Users\UB_JGarcia\Documents\GitHub\HolidayAnimation2015\Renders\0359.png" arWidth="960" arHeight="540" duration="0" songTitle="" songArtist="" songAlbum="" songCopyrightUrl="" songArtistUrl="" songAudioFileUrl="" stabilizationMode="0" mediaItemType="2" />
    <MediaItem id="361" filePath="C:\Users\UB_JGarcia\Documents\GitHub\HolidayAnimation2015\Renders\0360.png" arWidth="960" arHeight="540" duration="0" songTitle="" songArtist="" songAlbum="" songCopyrightUrl="" songArtistUrl="" songAudioFileUrl="" stabilizationMode="0" mediaItemType="2" />
  </MediaItems>
  <Extents>
    <ImageClip extentID="1467" gapBefore="0" mediaItemID="303" duration="0.029999999999999999">
      <Effects />
      <Transitions />
      <BoundProperties>
        <BoundPropertyInt Name="rotateStepNinety" Value="0" />
      </BoundProperties>
    </ImageClip>
    <ImageClip extentID="1304" gapBefore="0" mediaItemID="140" duration="0.029999999999999999">
      <Effects />
      <Transitions />
      <BoundProperties>
        <BoundPropertyInt Name="rotateStepNinety" Value="0" />
      </BoundProperties>
    </ImageClip>
    <ImageClip extentID="1468" gapBefore="0" mediaItemID="304" duration="0.029999999999999999">
      <Effects />
      <Transitions />
      <BoundProperties>
        <BoundPropertyInt Name="rotateStepNinety" Value="0" />
      </BoundProperties>
    </ImageClip>
    <ImageClip extentID="1305" gapBefore="0" mediaItemID="141" duration="0.029999999999999999">
      <Effects />
      <Transitions />
      <BoundProperties>
        <BoundPropertyInt Name="rotateStepNinety" Value="0" />
      </BoundProperties>
    </ImageClip>
    <ImageClip extentID="1469" gapBefore="0" mediaItemID="305" duration="0.029999999999999999">
      <Effects />
      <Transitions />
      <BoundProperties>
        <BoundPropertyInt Name="rotateStepNinety" Value="0" />
      </BoundProperties>
    </ImageClip>
    <ImageClip extentID="1306" gapBefore="0" mediaItemID="142" duration="0.029999999999999999">
      <Effects />
      <Transitions />
      <BoundProperties>
        <BoundPropertyInt Name="rotateStepNinety" Value="0" />
      </BoundProperties>
    </ImageClip>
    <ImageClip extentID="1470" gapBefore="0" mediaItemID="306" duration="0.029999999999999999">
      <Effects />
      <Transitions />
      <BoundProperties>
        <BoundPropertyInt Name="rotateStepNinety" Value="0" />
      </BoundProperties>
    </ImageClip>
    <ImageClip extentID="1307" gapBefore="0" mediaItemID="143" duration="0.029999999999999999">
      <Effects />
      <Transitions />
      <BoundProperties>
        <BoundPropertyInt Name="rotateStepNinety" Value="0" />
      </BoundProperties>
    </ImageClip>
    <ImageClip extentID="1471" gapBefore="0" mediaItemID="307" duration="0.029999999999999999">
      <Effects />
      <Transitions />
      <BoundProperties>
        <BoundPropertyInt Name="rotateStepNinety" Value="0" />
      </BoundProperties>
    </ImageClip>
    <ImageClip extentID="1308" gapBefore="0" mediaItemID="144" duration="0.029999999999999999">
      <Effects />
      <Transitions />
      <BoundProperties>
        <BoundPropertyInt Name="rotateStepNinety" Value="0" />
      </BoundProperties>
    </ImageClip>
    <ImageClip extentID="1472" gapBefore="0" mediaItemID="308" duration="0.029999999999999999">
      <Effects />
      <Transitions />
      <BoundProperties>
        <BoundPropertyInt Name="rotateStepNinety" Value="0" />
      </BoundProperties>
    </ImageClip>
    <ImageClip extentID="1309" gapBefore="0" mediaItemID="145" duration="0.029999999999999999">
      <Effects />
      <Transitions />
      <BoundProperties>
        <BoundPropertyInt Name="rotateStepNinety" Value="0" />
      </BoundProperties>
    </ImageClip>
    <ImageClip extentID="1473" gapBefore="0" mediaItemID="309" duration="0.029999999999999999">
      <Effects />
      <Transitions />
      <BoundProperties>
        <BoundPropertyInt Name="rotateStepNinety" Value="0" />
      </BoundProperties>
    </ImageClip>
    <ImageClip extentID="1310" gapBefore="0" mediaItemID="146" duration="0.029999999999999999">
      <Effects />
      <Transitions />
      <BoundProperties>
        <BoundPropertyInt Name="rotateStepNinety" Value="0" />
      </BoundProperties>
    </ImageClip>
    <ImageClip extentID="1474" gapBefore="0" mediaItemID="310" duration="0.029999999999999999">
      <Effects />
      <Transitions />
      <BoundProperties>
        <BoundPropertyInt Name="rotateStepNinety" Value="0" />
      </BoundProperties>
    </ImageClip>
    <ImageClip extentID="1311" gapBefore="0" mediaItemID="147" duration="0.029999999999999999">
      <Effects />
      <Transitions />
      <BoundProperties>
        <BoundPropertyInt Name="rotateStepNinety" Value="0" />
      </BoundProperties>
    </ImageClip>
    <ImageClip extentID="1475" gapBefore="0" mediaItemID="311" duration="0.029999999999999999">
      <Effects />
      <Transitions />
      <BoundProperties>
        <BoundPropertyInt Name="rotateStepNinety" Value="0" />
      </BoundProperties>
    </ImageClip>
    <ImageClip extentID="1312" gapBefore="0" mediaItemID="148" duration="0.029999999999999999">
      <Effects />
      <Transitions />
      <BoundProperties>
        <BoundPropertyInt Name="rotateStepNinety" Value="0" />
      </BoundProperties>
    </ImageClip>
    <ImageClip extentID="1476" gapBefore="0" mediaItemID="312" duration="0.029999999999999999">
      <Effects />
      <Transitions />
      <BoundProperties>
        <BoundPropertyInt Name="rotateStepNinety" Value="0" />
      </BoundProperties>
    </ImageClip>
    <ImageClip extentID="1313" gapBefore="0" mediaItemID="149" duration="0.029999999999999999">
      <Effects />
      <Transitions />
      <BoundProperties>
        <BoundPropertyInt Name="rotateStepNinety" Value="0" />
      </BoundProperties>
    </ImageClip>
    <ImageClip extentID="1477" gapBefore="0" mediaItemID="313" duration="0.029999999999999999">
      <Effects />
      <Transitions />
      <BoundProperties>
        <BoundPropertyInt Name="rotateStepNinety" Value="0" />
      </BoundProperties>
    </ImageClip>
    <ImageClip extentID="1314" gapBefore="0" mediaItemID="150" duration="0.029999999999999999">
      <Effects />
      <Transitions />
      <BoundProperties>
        <BoundPropertyInt Name="rotateStepNinety" Value="0" />
      </BoundProperties>
    </ImageClip>
    <ImageClip extentID="1478" gapBefore="0" mediaItemID="314" duration="0.029999999999999999">
      <Effects />
      <Transitions />
      <BoundProperties>
        <BoundPropertyInt Name="rotateStepNinety" Value="0" />
      </BoundProperties>
    </ImageClip>
    <ImageClip extentID="1315" gapBefore="0" mediaItemID="151" duration="0.029999999999999999">
      <Effects />
      <Transitions />
      <BoundProperties>
        <BoundPropertyInt Name="rotateStepNinety" Value="0" />
      </BoundProperties>
    </ImageClip>
    <ImageClip extentID="1479" gapBefore="0" mediaItemID="315" duration="0.029999999999999999">
      <Effects />
      <Transitions />
      <BoundProperties>
        <BoundPropertyInt Name="rotateStepNinety" Value="0" />
      </BoundProperties>
    </ImageClip>
    <ImageClip extentID="1316" gapBefore="0" mediaItemID="152" duration="0.029999999999999999">
      <Effects />
      <Transitions />
      <BoundProperties>
        <BoundPropertyInt Name="rotateStepNinety" Value="0" />
      </BoundProperties>
    </ImageClip>
    <ImageClip extentID="1480" gapBefore="0" mediaItemID="316" duration="0.029999999999999999">
      <Effects />
      <Transitions />
      <BoundProperties>
        <BoundPropertyInt Name="rotateStepNinety" Value="0" />
      </BoundProperties>
    </ImageClip>
    <ImageClip extentID="1317" gapBefore="0" mediaItemID="153" duration="0.029999999999999999">
      <Effects />
      <Transitions />
      <BoundProperties>
        <BoundPropertyInt Name="rotateStepNinety" Value="0" />
      </BoundProperties>
    </ImageClip>
    <ImageClip extentID="1481" gapBefore="0" mediaItemID="317" duration="0.029999999999999999">
      <Effects />
      <Transitions />
      <BoundProperties>
        <BoundPropertyInt Name="rotateStepNinety" Value="0" />
      </BoundProperties>
    </ImageClip>
    <ImageClip extentID="1318" gapBefore="0" mediaItemID="154" duration="0.029999999999999999">
      <Effects />
      <Transitions />
      <BoundProperties>
        <BoundPropertyInt Name="rotateStepNinety" Value="0" />
      </BoundProperties>
    </ImageClip>
    <ImageClip extentID="1482" gapBefore="0" mediaItemID="318" duration="0.029999999999999999">
      <Effects />
      <Transitions />
      <BoundProperties>
        <BoundPropertyInt Name="rotateStepNinety" Value="0" />
      </BoundProperties>
    </ImageClip>
    <ImageClip extentID="1319" gapBefore="0" mediaItemID="155" duration="0.029999999999999999">
      <Effects />
      <Transitions />
      <BoundProperties>
        <BoundPropertyInt Name="rotateStepNinety" Value="0" />
      </BoundProperties>
    </ImageClip>
    <ImageClip extentID="1483" gapBefore="0" mediaItemID="319" duration="0.029999999999999999">
      <Effects />
      <Transitions />
      <BoundProperties>
        <BoundPropertyInt Name="rotateStepNinety" Value="0" />
      </BoundProperties>
    </ImageClip>
    <ImageClip extentID="1320" gapBefore="0" mediaItemID="156" duration="0.029999999999999999">
      <Effects />
      <Transitions />
      <BoundProperties>
        <BoundPropertyInt Name="rotateStepNinety" Value="0" />
      </BoundProperties>
    </ImageClip>
    <ImageClip extentID="1484" gapBefore="0" mediaItemID="320" duration="0.029999999999999999">
      <Effects />
      <Transitions />
      <BoundProperties>
        <BoundPropertyInt Name="rotateStepNinety" Value="0" />
      </BoundProperties>
    </ImageClip>
    <ImageClip extentID="1321" gapBefore="0" mediaItemID="157" duration="0.029999999999999999">
      <Effects />
      <Transitions />
      <BoundProperties>
        <BoundPropertyInt Name="rotateStepNinety" Value="0" />
      </BoundProperties>
    </ImageClip>
    <ImageClip extentID="1485" gapBefore="0" mediaItemID="321" duration="0.029999999999999999">
      <Effects />
      <Transitions />
      <BoundProperties>
        <BoundPropertyInt Name="rotateStepNinety" Value="0" />
      </BoundProperties>
    </ImageClip>
    <ImageClip extentID="1322" gapBefore="0" mediaItemID="158" duration="0.029999999999999999">
      <Effects />
      <Transitions />
      <BoundProperties>
        <BoundPropertyInt Name="rotateStepNinety" Value="0" />
      </BoundProperties>
    </ImageClip>
    <ImageClip extentID="1486" gapBefore="0" mediaItemID="322" duration="0.029999999999999999">
      <Effects />
      <Transitions />
      <BoundProperties>
        <BoundPropertyInt Name="rotateStepNinety" Value="0" />
      </BoundProperties>
    </ImageClip>
    <ImageClip extentID="1323" gapBefore="0" mediaItemID="159" duration="0.029999999999999999">
      <Effects />
      <Transitions />
      <BoundProperties>
        <BoundPropertyInt Name="rotateStepNinety" Value="0" />
      </BoundProperties>
    </ImageClip>
    <ImageClip extentID="1487" gapBefore="0" mediaItemID="323" duration="0.029999999999999999">
      <Effects />
      <Transitions />
      <BoundProperties>
        <BoundPropertyInt Name="rotateStepNinety" Value="0" />
      </BoundProperties>
    </ImageClip>
    <ImageClip extentID="1324" gapBefore="0" mediaItemID="160" duration="0.029999999999999999">
      <Effects />
      <Transitions />
      <BoundProperties>
        <BoundPropertyInt Name="rotateStepNinety" Value="0" />
      </BoundProperties>
    </ImageClip>
    <ImageClip extentID="1488" gapBefore="0" mediaItemID="324" duration="0.029999999999999999">
      <Effects />
      <Transitions />
      <BoundProperties>
        <BoundPropertyInt Name="rotateStepNinety" Value="0" />
      </BoundProperties>
    </ImageClip>
    <ImageClip extentID="1325" gapBefore="0" mediaItemID="161" duration="0.029999999999999999">
      <Effects />
      <Transitions />
      <BoundProperties>
        <BoundPropertyInt Name="rotateStepNinety" Value="0" />
      </BoundProperties>
    </ImageClip>
    <ImageClip extentID="1489" gapBefore="0" mediaItemID="325" duration="0.029999999999999999">
      <Effects />
      <Transitions />
      <BoundProperties>
        <BoundPropertyInt Name="rotateStepNinety" Value="0" />
      </BoundProperties>
    </ImageClip>
    <ImageClip extentID="1326" gapBefore="0" mediaItemID="162" duration="0.029999999999999999">
      <Effects />
      <Transitions />
      <BoundProperties>
        <BoundPropertyInt Name="rotateStepNinety" Value="0" />
      </BoundProperties>
    </ImageClip>
    <ImageClip extentID="1490" gapBefore="0" mediaItemID="326" duration="0.029999999999999999">
      <Effects />
      <Transitions />
      <BoundProperties>
        <BoundPropertyInt Name="rotateStepNinety" Value="0" />
      </BoundProperties>
    </ImageClip>
    <ImageClip extentID="1327" gapBefore="0" mediaItemID="163" duration="0.029999999999999999">
      <Effects />
      <Transitions />
      <BoundProperties>
        <BoundPropertyInt Name="rotateStepNinety" Value="0" />
      </BoundProperties>
    </ImageClip>
    <ImageClip extentID="1491" gapBefore="0" mediaItemID="327" duration="0.029999999999999999">
      <Effects />
      <Transitions />
      <BoundProperties>
        <BoundPropertyInt Name="rotateStepNinety" Value="0" />
      </BoundProperties>
    </ImageClip>
    <ImageClip extentID="1328" gapBefore="0" mediaItemID="164" duration="0.029999999999999999">
      <Effects />
      <Transitions />
      <BoundProperties>
        <BoundPropertyInt Name="rotateStepNinety" Value="0" />
      </BoundProperties>
    </ImageClip>
    <ImageClip extentID="1492" gapBefore="0" mediaItemID="328" duration="0.029999999999999999">
      <Effects />
      <Transitions />
      <BoundProperties>
        <BoundPropertyInt Name="rotateStepNinety" Value="0" />
      </BoundProperties>
    </ImageClip>
    <ImageClip extentID="1329" gapBefore="0" mediaItemID="165" duration="0.029999999999999999">
      <Effects />
      <Transitions />
      <BoundProperties>
        <BoundPropertyInt Name="rotateStepNinety" Value="0" />
      </BoundProperties>
    </ImageClip>
    <ImageClip extentID="1493" gapBefore="0" mediaItemID="329" duration="0.029999999999999999">
      <Effects />
      <Transitions />
      <BoundProperties>
        <BoundPropertyInt Name="rotateStepNinety" Value="0" />
      </BoundProperties>
    </ImageClip>
    <ImageClip extentID="1330" gapBefore="0" mediaItemID="166" duration="0.029999999999999999">
      <Effects />
      <Transitions />
      <BoundProperties>
        <BoundPropertyInt Name="rotateStepNinety" Value="0" />
      </BoundProperties>
    </ImageClip>
    <ImageClip extentID="1494" gapBefore="0" mediaItemID="330" duration="0.029999999999999999">
      <Effects />
      <Transitions />
      <BoundProperties>
        <BoundPropertyInt Name="rotateStepNinety" Value="0" />
      </BoundProperties>
    </ImageClip>
    <ImageClip extentID="1331" gapBefore="0" mediaItemID="167" duration="0.029999999999999999">
      <Effects />
      <Transitions />
      <BoundProperties>
        <BoundPropertyInt Name="rotateStepNinety" Value="0" />
      </BoundProperties>
    </ImageClip>
    <ImageClip extentID="1168" gapBefore="0" mediaItemID="4" duration="0.029999999999999999">
      <Effects />
      <Transitions />
      <BoundProperties>
        <BoundPropertyInt Name="rotateStepNinety" Value="0" />
      </BoundProperties>
    </ImageClip>
    <ImageClip extentID="1495" gapBefore="0" mediaItemID="331" duration="0.029999999999999999">
      <Effects />
      <Transitions />
      <BoundProperties>
        <BoundPropertyInt Name="rotateStepNinety" Value="0" />
      </BoundProperties>
    </ImageClip>
    <ImageClip extentID="1332" gapBefore="0" mediaItemID="168" duration="0.029999999999999999">
      <Effects />
      <Transitions />
      <BoundProperties>
        <BoundPropertyInt Name="rotateStepNinety" Value="0" />
      </BoundProperties>
    </ImageClip>
    <ImageClip extentID="1169" gapBefore="0" mediaItemID="5" duration="0.029999999999999999">
      <Effects />
      <Transitions />
      <BoundProperties>
        <BoundPropertyInt Name="rotateStepNinety" Value="0" />
      </BoundProperties>
    </ImageClip>
    <ImageClip extentID="1496" gapBefore="0" mediaItemID="332" duration="0.029999999999999999">
      <Effects />
      <Transitions />
      <BoundProperties>
        <BoundPropertyInt Name="rotateStepNinety" Value="0" />
      </BoundProperties>
    </ImageClip>
    <ImageClip extentID="1333" gapBefore="0" mediaItemID="169" duration="0.029999999999999999">
      <Effects />
      <Transitions />
      <BoundProperties>
        <BoundPropertyInt Name="rotateStepNinety" Value="0" />
      </BoundProperties>
    </ImageClip>
    <ImageClip extentID="1170" gapBefore="0" mediaItemID="6" duration="0.029999999999999999">
      <Effects />
      <Transitions />
      <BoundProperties>
        <BoundPropertyInt Name="rotateStepNinety" Value="0" />
      </BoundProperties>
    </ImageClip>
    <ImageClip extentID="1497" gapBefore="0" mediaItemID="333" duration="0.029999999999999999">
      <Effects />
      <Transitions />
      <BoundProperties>
        <BoundPropertyInt Name="rotateStepNinety" Value="0" />
      </BoundProperties>
    </ImageClip>
    <ImageClip extentID="1334" gapBefore="0" mediaItemID="170" duration="0.029999999999999999">
      <Effects />
      <Transitions />
      <BoundProperties>
        <BoundPropertyInt Name="rotateStepNinety" Value="0" />
      </BoundProperties>
    </ImageClip>
    <ImageClip extentID="1171" gapBefore="0" mediaItemID="7" duration="0.029999999999999999">
      <Effects />
      <Transitions />
      <BoundProperties>
        <BoundPropertyInt Name="rotateStepNinety" Value="0" />
      </BoundProperties>
    </ImageClip>
    <ImageClip extentID="1498" gapBefore="0" mediaItemID="334" duration="0.029999999999999999">
      <Effects />
      <Transitions />
      <BoundProperties>
        <BoundPropertyInt Name="rotateStepNinety" Value="0" />
      </BoundProperties>
    </ImageClip>
    <ImageClip extentID="1335" gapBefore="0" mediaItemID="171" duration="0.029999999999999999">
      <Effects />
      <Transitions />
      <BoundProperties>
        <BoundPropertyInt Name="rotateStepNinety" Value="0" />
      </BoundProperties>
    </ImageClip>
    <ImageClip extentID="1172" gapBefore="0" mediaItemID="8" duration="0.029999999999999999">
      <Effects />
      <Transitions />
      <BoundProperties>
        <BoundPropertyInt Name="rotateStepNinety" Value="0" />
      </BoundProperties>
    </ImageClip>
    <ImageClip extentID="1499" gapBefore="0" mediaItemID="335" duration="0.029999999999999999">
      <Effects />
      <Transitions />
      <BoundProperties>
        <BoundPropertyInt Name="rotateStepNinety" Value="0" />
      </BoundProperties>
    </ImageClip>
    <ImageClip extentID="1336" gapBefore="0" mediaItemID="172" duration="0.029999999999999999">
      <Effects />
      <Transitions />
      <BoundProperties>
        <BoundPropertyInt Name="rotateStepNinety" Value="0" />
      </BoundProperties>
    </ImageClip>
    <ImageClip extentID="1173" gapBefore="0" mediaItemID="9" duration="0.029999999999999999">
      <Effects />
      <Transitions />
      <BoundProperties>
        <BoundPropertyInt Name="rotateStepNinety" Value="0" />
      </BoundProperties>
    </ImageClip>
    <ImageClip extentID="1500" gapBefore="0" mediaItemID="336" duration="0.029999999999999999">
      <Effects />
      <Transitions />
      <BoundProperties>
        <BoundPropertyInt Name="rotateStepNinety" Value="0" />
      </BoundProperties>
    </ImageClip>
    <ImageClip extentID="1337" gapBefore="0" mediaItemID="173" duration="0.029999999999999999">
      <Effects />
      <Transitions />
      <BoundProperties>
        <BoundPropertyInt Name="rotateStepNinety" Value="0" />
      </BoundProperties>
    </ImageClip>
    <ImageClip extentID="1174" gapBefore="0" mediaItemID="10" duration="0.029999999999999999">
      <Effects />
      <Transitions />
      <BoundProperties>
        <BoundPropertyInt Name="rotateStepNinety" Value="0" />
      </BoundProperties>
    </ImageClip>
    <ImageClip extentID="1501" gapBefore="0" mediaItemID="337" duration="0.029999999999999999">
      <Effects />
      <Transitions />
      <BoundProperties>
        <BoundPropertyInt Name="rotateStepNinety" Value="0" />
      </BoundProperties>
    </ImageClip>
    <ImageClip extentID="1338" gapBefore="0" mediaItemID="174" duration="0.029999999999999999">
      <Effects />
      <Transitions />
      <BoundProperties>
        <BoundPropertyInt Name="rotateStepNinety" Value="0" />
      </BoundProperties>
    </ImageClip>
    <ImageClip extentID="1175" gapBefore="0" mediaItemID="11" duration="0.029999999999999999">
      <Effects />
      <Transitions />
      <BoundProperties>
        <BoundPropertyInt Name="rotateStepNinety" Value="0" />
      </BoundProperties>
    </ImageClip>
    <ImageClip extentID="1502" gapBefore="0" mediaItemID="338" duration="0.029999999999999999">
      <Effects />
      <Transitions />
      <BoundProperties>
        <BoundPropertyInt Name="rotateStepNinety" Value="0" />
      </BoundProperties>
    </ImageClip>
    <ImageClip extentID="1339" gapBefore="0" mediaItemID="175" duration="0.029999999999999999">
      <Effects />
      <Transitions />
      <BoundProperties>
        <BoundPropertyInt Name="rotateStepNinety" Value="0" />
      </BoundProperties>
    </ImageClip>
    <ImageClip extentID="1176" gapBefore="0" mediaItemID="12" duration="0.029999999999999999">
      <Effects />
      <Transitions />
      <BoundProperties>
        <BoundPropertyInt Name="rotateStepNinety" Value="0" />
      </BoundProperties>
    </ImageClip>
    <ImageClip extentID="1503" gapBefore="0" mediaItemID="339" duration="0.029999999999999999">
      <Effects />
      <Transitions />
      <BoundProperties>
        <BoundPropertyInt Name="rotateStepNinety" Value="0" />
      </BoundProperties>
    </ImageClip>
    <ImageClip extentID="1340" gapBefore="0" mediaItemID="176" duration="0.029999999999999999">
      <Effects />
      <Transitions />
      <BoundProperties>
        <BoundPropertyInt Name="rotateStepNinety" Value="0" />
      </BoundProperties>
    </ImageClip>
    <ImageClip extentID="1177" gapBefore="0" mediaItemID="13" duration="0.029999999999999999">
      <Effects />
      <Transitions />
      <BoundProperties>
        <BoundPropertyInt Name="rotateStepNinety" Value="0" />
      </BoundProperties>
    </ImageClip>
    <ImageClip extentID="1504" gapBefore="0" mediaItemID="340" duration="0.029999999999999999">
      <Effects />
      <Transitions />
      <BoundProperties>
        <BoundPropertyInt Name="rotateStepNinety" Value="0" />
      </BoundProperties>
    </ImageClip>
    <ImageClip extentID="1341" gapBefore="0" mediaItemID="177" duration="0.029999999999999999">
      <Effects />
      <Transitions />
      <BoundProperties>
        <BoundPropertyInt Name="rotateStepNinety" Value="0" />
      </BoundProperties>
    </ImageClip>
    <ImageClip extentID="1178" gapBefore="0" mediaItemID="14" duration="0.029999999999999999">
      <Effects />
      <Transitions />
      <BoundProperties>
        <BoundPropertyInt Name="rotateStepNinety" Value="0" />
      </BoundProperties>
    </ImageClip>
    <ImageClip extentID="1505" gapBefore="0" mediaItemID="341" duration="0.029999999999999999">
      <Effects />
      <Transitions />
      <BoundProperties>
        <BoundPropertyInt Name="rotateStepNinety" Value="0" />
      </BoundProperties>
    </ImageClip>
    <ImageClip extentID="1342" gapBefore="0" mediaItemID="178" duration="0.029999999999999999">
      <Effects />
      <Transitions />
      <BoundProperties>
        <BoundPropertyInt Name="rotateStepNinety" Value="0" />
      </BoundProperties>
    </ImageClip>
    <ImageClip extentID="1179" gapBefore="0" mediaItemID="15" duration="0.029999999999999999">
      <Effects />
      <Transitions />
      <BoundProperties>
        <BoundPropertyInt Name="rotateStepNinety" Value="0" />
      </BoundProperties>
    </ImageClip>
    <ImageClip extentID="1506" gapBefore="0" mediaItemID="342" duration="0.029999999999999999">
      <Effects />
      <Transitions />
      <BoundProperties>
        <BoundPropertyInt Name="rotateStepNinety" Value="0" />
      </BoundProperties>
    </ImageClip>
    <ImageClip extentID="1343" gapBefore="0" mediaItemID="179" duration="0.029999999999999999">
      <Effects />
      <Transitions />
      <BoundProperties>
        <BoundPropertyInt Name="rotateStepNinety" Value="0" />
      </BoundProperties>
    </ImageClip>
    <ImageClip extentID="1180" gapBefore="0" mediaItemID="16" duration="0.029999999999999999">
      <Effects />
      <Transitions />
      <BoundProperties>
        <BoundPropertyInt Name="rotateStepNinety" Value="0" />
      </BoundProperties>
    </ImageClip>
    <ImageClip extentID="1507" gapBefore="0" mediaItemID="343" duration="0.029999999999999999">
      <Effects />
      <Transitions />
      <BoundProperties>
        <BoundPropertyInt Name="rotateStepNinety" Value="0" />
      </BoundProperties>
    </ImageClip>
    <ImageClip extentID="1344" gapBefore="0" mediaItemID="180" duration="0.029999999999999999">
      <Effects />
      <Transitions />
      <BoundProperties>
        <BoundPropertyInt Name="rotateStepNinety" Value="0" />
      </BoundProperties>
    </ImageClip>
    <ImageClip extentID="1181" gapBefore="0" mediaItemID="17" duration="0.029999999999999999">
      <Effects />
      <Transitions />
      <BoundProperties>
        <BoundPropertyInt Name="rotateStepNinety" Value="0" />
      </BoundProperties>
    </ImageClip>
    <ImageClip extentID="1508" gapBefore="0" mediaItemID="344" duration="0.029999999999999999">
      <Effects />
      <Transitions />
      <BoundProperties>
        <BoundPropertyInt Name="rotateStepNinety" Value="0" />
      </BoundProperties>
    </ImageClip>
    <ImageClip extentID="1345" gapBefore="0" mediaItemID="181" duration="0.029999999999999999">
      <Effects />
      <Transitions />
      <BoundProperties>
        <BoundPropertyInt Name="rotateStepNinety" Value="0" />
      </BoundProperties>
    </ImageClip>
    <ImageClip extentID="1182" gapBefore="0" mediaItemID="18" duration="0.029999999999999999">
      <Effects />
      <Transitions />
      <BoundProperties>
        <BoundPropertyInt Name="rotateStepNinety" Value="0" />
      </BoundProperties>
    </ImageClip>
    <ImageClip extentID="1509" gapBefore="0" mediaItemID="345" duration="0.029999999999999999">
      <Effects />
      <Transitions />
      <BoundProperties>
        <BoundPropertyInt Name="rotateStepNinety" Value="0" />
      </BoundProperties>
    </ImageClip>
    <ImageClip extentID="1346" gapBefore="0" mediaItemID="182" duration="0.029999999999999999">
      <Effects />
      <Transitions />
      <BoundProperties>
        <BoundPropertyInt Name="rotateStepNinety" Value="0" />
      </BoundProperties>
    </ImageClip>
    <ImageClip extentID="1183" gapBefore="0" mediaItemID="19" duration="0.029999999999999999">
      <Effects />
      <Transitions />
      <BoundProperties>
        <BoundPropertyInt Name="rotateStepNinety" Value="0" />
      </BoundProperties>
    </ImageClip>
    <ImageClip extentID="1510" gapBefore="0" mediaItemID="346" duration="0.029999999999999999">
      <Effects />
      <Transitions />
      <BoundProperties>
        <BoundPropertyInt Name="rotateStepNinety" Value="0" />
      </BoundProperties>
    </ImageClip>
    <ImageClip extentID="1347" gapBefore="0" mediaItemID="183" duration="0.029999999999999999">
      <Effects />
      <Transitions />
      <BoundProperties>
        <BoundPropertyInt Name="rotateStepNinety" Value="0" />
      </BoundProperties>
    </ImageClip>
    <ImageClip extentID="1184" gapBefore="0" mediaItemID="20" duration="0.029999999999999999">
      <Effects />
      <Transitions />
      <BoundProperties>
        <BoundPropertyInt Name="rotateStepNinety" Value="0" />
      </BoundProperties>
    </ImageClip>
    <ImageClip extentID="1511" gapBefore="0" mediaItemID="347" duration="0.029999999999999999">
      <Effects />
      <Transitions />
      <BoundProperties>
        <BoundPropertyInt Name="rotateStepNinety" Value="0" />
      </BoundProperties>
    </ImageClip>
    <ImageClip extentID="1348" gapBefore="0" mediaItemID="184" duration="0.029999999999999999">
      <Effects />
      <Transitions />
      <BoundProperties>
        <BoundPropertyInt Name="rotateStepNinety" Value="0" />
      </BoundProperties>
    </ImageClip>
    <ImageClip extentID="1185" gapBefore="0" mediaItemID="21" duration="0.029999999999999999">
      <Effects />
      <Transitions />
      <BoundProperties>
        <BoundPropertyInt Name="rotateStepNinety" Value="0" />
      </BoundProperties>
    </ImageClip>
    <ImageClip extentID="1512" gapBefore="0" mediaItemID="348" duration="0.029999999999999999">
      <Effects />
      <Transitions />
      <BoundProperties>
        <BoundPropertyInt Name="rotateStepNinety" Value="0" />
      </BoundProperties>
    </ImageClip>
    <ImageClip extentID="1349" gapBefore="0" mediaItemID="185" duration="0.029999999999999999">
      <Effects />
      <Transitions />
      <BoundProperties>
        <BoundPropertyInt Name="rotateStepNinety" Value="0" />
      </BoundProperties>
    </ImageClip>
    <ImageClip extentID="1186" gapBefore="0" mediaItemID="22" duration="0.029999999999999999">
      <Effects />
      <Transitions />
      <BoundProperties>
        <BoundPropertyInt Name="rotateStepNinety" Value="0" />
      </BoundProperties>
    </ImageClip>
    <ImageClip extentID="1513" gapBefore="0" mediaItemID="349" duration="0.029999999999999999">
      <Effects />
      <Transitions />
      <BoundProperties>
        <BoundPropertyInt Name="rotateStepNinety" Value="0" />
      </BoundProperties>
    </ImageClip>
    <ImageClip extentID="1350" gapBefore="0" mediaItemID="186" duration="0.029999999999999999">
      <Effects />
      <Transitions />
      <BoundProperties>
        <BoundPropertyInt Name="rotateStepNinety" Value="0" />
      </BoundProperties>
    </ImageClip>
    <ImageClip extentID="1187" gapBefore="0" mediaItemID="23" duration="0.029999999999999999">
      <Effects />
      <Transitions />
      <BoundProperties>
        <BoundPropertyInt Name="rotateStepNinety" Value="0" />
      </BoundProperties>
    </ImageClip>
    <ImageClip extentID="1514" gapBefore="0" mediaItemID="350" duration="0.029999999999999999">
      <Effects />
      <Transitions />
      <BoundProperties>
        <BoundPropertyInt Name="rotateStepNinety" Value="0" />
      </BoundProperties>
    </ImageClip>
    <ImageClip extentID="1351" gapBefore="0" mediaItemID="187" duration="0.029999999999999999">
      <Effects />
      <Transitions />
      <BoundProperties>
        <BoundPropertyInt Name="rotateStepNinety" Value="0" />
      </BoundProperties>
    </ImageClip>
    <ImageClip extentID="1188" gapBefore="0" mediaItemID="24" duration="0.029999999999999999">
      <Effects />
      <Transitions />
      <BoundProperties>
        <BoundPropertyInt Name="rotateStepNinety" Value="0" />
      </BoundProperties>
    </ImageClip>
    <ImageClip extentID="1515" gapBefore="0" mediaItemID="351" duration="0.029999999999999999">
      <Effects />
      <Transitions />
      <BoundProperties>
        <BoundPropertyInt Name="rotateStepNinety" Value="0" />
      </BoundProperties>
    </ImageClip>
    <ImageClip extentID="1352" gapBefore="0" mediaItemID="188" duration="0.029999999999999999">
      <Effects />
      <Transitions />
      <BoundProperties>
        <BoundPropertyInt Name="rotateStepNinety" Value="0" />
      </BoundProperties>
    </ImageClip>
    <ImageClip extentID="1189" gapBefore="0" mediaItemID="25" duration="0.029999999999999999">
      <Effects />
      <Transitions />
      <BoundProperties>
        <BoundPropertyInt Name="rotateStepNinety" Value="0" />
      </BoundProperties>
    </ImageClip>
    <ImageClip extentID="1516" gapBefore="0" mediaItemID="352" duration="0.029999999999999999">
      <Effects />
      <Transitions />
      <BoundProperties>
        <BoundPropertyInt Name="rotateStepNinety" Value="0" />
      </BoundProperties>
    </ImageClip>
    <ImageClip extentID="1353" gapBefore="0" mediaItemID="189" duration="0.029999999999999999">
      <Effects />
      <Transitions />
      <BoundProperties>
        <BoundPropertyInt Name="rotateStepNinety" Value="0" />
      </BoundProperties>
    </ImageClip>
    <ImageClip extentID="1190" gapBefore="0" mediaItemID="26" duration="0.029999999999999999">
      <Effects />
      <Transitions />
      <BoundProperties>
        <BoundPropertyInt Name="rotateStepNinety" Value="0" />
      </BoundProperties>
    </ImageClip>
    <ImageClip extentID="1517" gapBefore="0" mediaItemID="353" duration="0.029999999999999999">
      <Effects />
      <Transitions />
      <BoundProperties>
        <BoundPropertyInt Name="rotateStepNinety" Value="0" />
      </BoundProperties>
    </ImageClip>
    <ImageClip extentID="1354" gapBefore="0" mediaItemID="190" duration="0.029999999999999999">
      <Effects />
      <Transitions />
      <BoundProperties>
        <BoundPropertyInt Name="rotateStepNinety" Value="0" />
      </BoundProperties>
    </ImageClip>
    <ImageClip extentID="1191" gapBefore="0" mediaItemID="27" duration="0.029999999999999999">
      <Effects />
      <Transitions />
      <BoundProperties>
        <BoundPropertyInt Name="rotateStepNinety" Value="0" />
      </BoundProperties>
    </ImageClip>
    <ImageClip extentID="1518" gapBefore="0" mediaItemID="354" duration="0.029999999999999999">
      <Effects />
      <Transitions />
      <BoundProperties>
        <BoundPropertyInt Name="rotateStepNinety" Value="0" />
      </BoundProperties>
    </ImageClip>
    <ImageClip extentID="1355" gapBefore="0" mediaItemID="191" duration="0.029999999999999999">
      <Effects />
      <Transitions />
      <BoundProperties>
        <BoundPropertyInt Name="rotateStepNinety" Value="0" />
      </BoundProperties>
    </ImageClip>
    <ImageClip extentID="1192" gapBefore="0" mediaItemID="28" duration="0.029999999999999999">
      <Effects />
      <Transitions />
      <BoundProperties>
        <BoundPropertyInt Name="rotateStepNinety" Value="0" />
      </BoundProperties>
    </ImageClip>
    <ImageClip extentID="1519" gapBefore="0" mediaItemID="355" duration="0.029999999999999999">
      <Effects />
      <Transitions />
      <BoundProperties>
        <BoundPropertyInt Name="rotateStepNinety" Value="0" />
      </BoundProperties>
    </ImageClip>
    <ImageClip extentID="1356" gapBefore="0" mediaItemID="192" duration="0.029999999999999999">
      <Effects />
      <Transitions />
      <BoundProperties>
        <BoundPropertyInt Name="rotateStepNinety" Value="0" />
      </BoundProperties>
    </ImageClip>
    <ImageClip extentID="1193" gapBefore="0" mediaItemID="29" duration="0.029999999999999999">
      <Effects />
      <Transitions />
      <BoundProperties>
        <BoundPropertyInt Name="rotateStepNinety" Value="0" />
      </BoundProperties>
    </ImageClip>
    <ImageClip extentID="1520" gapBefore="0" mediaItemID="356" duration="0.029999999999999999">
      <Effects />
      <Transitions />
      <BoundProperties>
        <BoundPropertyInt Name="rotateStepNinety" Value="0" />
      </BoundProperties>
    </ImageClip>
    <ImageClip extentID="1357" gapBefore="0" mediaItemID="193" duration="0.029999999999999999">
      <Effects />
      <Transitions />
      <BoundProperties>
        <BoundPropertyInt Name="rotateStepNinety" Value="0" />
      </BoundProperties>
    </ImageClip>
    <ImageClip extentID="1194" gapBefore="0" mediaItemID="30" duration="0.029999999999999999">
      <Effects />
      <Transitions />
      <BoundProperties>
        <BoundPropertyInt Name="rotateStepNinety" Value="0" />
      </BoundProperties>
    </ImageClip>
    <ImageClip extentID="1521" gapBefore="0" mediaItemID="357" duration="0.029999999999999999">
      <Effects />
      <Transitions />
      <BoundProperties>
        <BoundPropertyInt Name="rotateStepNinety" Value="0" />
      </BoundProperties>
    </ImageClip>
    <ImageClip extentID="1358" gapBefore="0" mediaItemID="194" duration="0.029999999999999999">
      <Effects />
      <Transitions />
      <BoundProperties>
        <BoundPropertyInt Name="rotateStepNinety" Value="0" />
      </BoundProperties>
    </ImageClip>
    <ImageClip extentID="1195" gapBefore="0" mediaItemID="31" duration="0.029999999999999999">
      <Effects />
      <Transitions />
      <BoundProperties>
        <BoundPropertyInt Name="rotateStepNinety" Value="0" />
      </BoundProperties>
    </ImageClip>
    <ImageClip extentID="1522" gapBefore="0" mediaItemID="358" duration="0.029999999999999999">
      <Effects />
      <Transitions />
      <BoundProperties>
        <BoundPropertyInt Name="rotateStepNinety" Value="0" />
      </BoundProperties>
    </ImageClip>
    <ImageClip extentID="1359" gapBefore="0" mediaItemID="195" duration="0.029999999999999999">
      <Effects />
      <Transitions />
      <BoundProperties>
        <BoundPropertyInt Name="rotateStepNinety" Value="0" />
      </BoundProperties>
    </ImageClip>
    <ImageClip extentID="1196" gapBefore="0" mediaItemID="32" duration="0.029999999999999999">
      <Effects />
      <Transitions />
      <BoundProperties>
        <BoundPropertyInt Name="rotateStepNinety" Value="0" />
      </BoundProperties>
    </ImageClip>
    <ImageClip extentID="1523" gapBefore="0" mediaItemID="359" duration="0.029999999999999999">
      <Effects />
      <Transitions />
      <BoundProperties>
        <BoundPropertyInt Name="rotateStepNinety" Value="0" />
      </BoundProperties>
    </ImageClip>
    <ImageClip extentID="1360" gapBefore="0" mediaItemID="196" duration="0.029999999999999999">
      <Effects />
      <Transitions />
      <BoundProperties>
        <BoundPropertyInt Name="rotateStepNinety" Value="0" />
      </BoundProperties>
    </ImageClip>
    <ImageClip extentID="1197" gapBefore="0" mediaItemID="33" duration="0.029999999999999999">
      <Effects />
      <Transitions />
      <BoundProperties>
        <BoundPropertyInt Name="rotateStepNinety" Value="0" />
      </BoundProperties>
    </ImageClip>
    <ImageClip extentID="1524" gapBefore="0" mediaItemID="360" duration="0.029999999999999999">
      <Effects />
      <Transitions />
      <BoundProperties>
        <BoundPropertyInt Name="rotateStepNinety" Value="0" />
      </BoundProperties>
    </ImageClip>
    <ImageClip extentID="1361" gapBefore="0" mediaItemID="197" duration="0.029999999999999999">
      <Effects />
      <Transitions />
      <BoundProperties>
        <BoundPropertyInt Name="rotateStepNinety" Value="0" />
      </BoundProperties>
    </ImageClip>
    <ImageClip extentID="1198" gapBefore="0" mediaItemID="34" duration="0.029999999999999999">
      <Effects />
      <Transitions />
      <BoundProperties>
        <BoundPropertyInt Name="rotateStepNinety" Value="0" />
      </BoundProperties>
    </ImageClip>
    <ImageClip extentID="1525" gapBefore="0" mediaItemID="361" duration="0.029999999999999999">
      <Effects />
      <Transitions />
      <BoundProperties>
        <BoundPropertyInt Name="rotateStepNinety" Value="0" />
      </BoundProperties>
    </ImageClip>
    <ImageClip extentID="1362" gapBefore="0" mediaItemID="198" duration="0.029999999999999999">
      <Effects />
      <Transitions />
      <BoundProperties>
        <BoundPropertyInt Name="rotateStepNinety" Value="0" />
      </BoundProperties>
    </ImageClip>
    <ImageClip extentID="1199" gapBefore="0" mediaItemID="35" duration="0.029999999999999999">
      <Effects />
      <Transitions />
      <BoundProperties>
        <BoundPropertyInt Name="rotateStepNinety" Value="0" />
      </BoundProperties>
    </ImageClip>
    <ImageClip extentID="1363" gapBefore="0" mediaItemID="199" duration="0.029999999999999999">
      <Effects />
      <Transitions />
      <BoundProperties>
        <BoundPropertyInt Name="rotateStepNinety" Value="0" />
      </BoundProperties>
    </ImageClip>
    <ImageClip extentID="1200" gapBefore="0" mediaItemID="36" duration="0.029999999999999999">
      <Effects />
      <Transitions />
      <BoundProperties>
        <BoundPropertyInt Name="rotateStepNinety" Value="0" />
      </BoundProperties>
    </ImageClip>
    <ImageClip extentID="1364" gapBefore="0" mediaItemID="200" duration="0.029999999999999999">
      <Effects />
      <Transitions />
      <BoundProperties>
        <BoundPropertyInt Name="rotateStepNinety" Value="0" />
      </BoundProperties>
    </ImageClip>
    <ImageClip extentID="1201" gapBefore="0" mediaItemID="37" duration="0.029999999999999999">
      <Effects />
      <Transitions />
      <BoundProperties>
        <BoundPropertyInt Name="rotateStepNinety" Value="0" />
      </BoundProperties>
    </ImageClip>
    <ImageClip extentID="1365" gapBefore="0" mediaItemID="201" duration="0.029999999999999999">
      <Effects />
      <Transitions />
      <BoundProperties>
        <BoundPropertyInt Name="rotateStepNinety" Value="0" />
      </BoundProperties>
    </ImageClip>
    <ImageClip extentID="1202" gapBefore="0" mediaItemID="38" duration="0.029999999999999999">
      <Effects />
      <Transitions />
      <BoundProperties>
        <BoundPropertyInt Name="rotateStepNinety" Value="0" />
      </BoundProperties>
    </ImageClip>
    <ImageClip extentID="1366" gapBefore="0" mediaItemID="202" duration="0.029999999999999999">
      <Effects />
      <Transitions />
      <BoundProperties>
        <BoundPropertyInt Name="rotateStepNinety" Value="0" />
      </BoundProperties>
    </ImageClip>
    <ImageClip extentID="1203" gapBefore="0" mediaItemID="39" duration="0.029999999999999999">
      <Effects />
      <Transitions />
      <BoundProperties>
        <BoundPropertyInt Name="rotateStepNinety" Value="0" />
      </BoundProperties>
    </ImageClip>
    <ImageClip extentID="1367" gapBefore="0" mediaItemID="203" duration="0.029999999999999999">
      <Effects />
      <Transitions />
      <BoundProperties>
        <BoundPropertyInt Name="rotateStepNinety" Value="0" />
      </BoundProperties>
    </ImageClip>
    <ImageClip extentID="1204" gapBefore="0" mediaItemID="40" duration="0.029999999999999999">
      <Effects />
      <Transitions />
      <BoundProperties>
        <BoundPropertyInt Name="rotateStepNinety" Value="0" />
      </BoundProperties>
    </ImageClip>
    <ImageClip extentID="1368" gapBefore="0" mediaItemID="204" duration="0.029999999999999999">
      <Effects />
      <Transitions />
      <BoundProperties>
        <BoundPropertyInt Name="rotateStepNinety" Value="0" />
      </BoundProperties>
    </ImageClip>
    <ImageClip extentID="1205" gapBefore="0" mediaItemID="41" duration="0.029999999999999999">
      <Effects />
      <Transitions />
      <BoundProperties>
        <BoundPropertyInt Name="rotateStepNinety" Value="0" />
      </BoundProperties>
    </ImageClip>
    <ImageClip extentID="1369" gapBefore="0" mediaItemID="205" duration="0.029999999999999999">
      <Effects />
      <Transitions />
      <BoundProperties>
        <BoundPropertyInt Name="rotateStepNinety" Value="0" />
      </BoundProperties>
    </ImageClip>
    <ImageClip extentID="1206" gapBefore="0" mediaItemID="42" duration="0.029999999999999999">
      <Effects />
      <Transitions />
      <BoundProperties>
        <BoundPropertyInt Name="rotateStepNinety" Value="0" />
      </BoundProperties>
    </ImageClip>
    <ImageClip extentID="1370" gapBefore="0" mediaItemID="206" duration="0.029999999999999999">
      <Effects />
      <Transitions />
      <BoundProperties>
        <BoundPropertyInt Name="rotateStepNinety" Value="0" />
      </BoundProperties>
    </ImageClip>
    <ImageClip extentID="1207" gapBefore="0" mediaItemID="43" duration="0.029999999999999999">
      <Effects />
      <Transitions />
      <BoundProperties>
        <BoundPropertyInt Name="rotateStepNinety" Value="0" />
      </BoundProperties>
    </ImageClip>
    <ImageClip extentID="1371" gapBefore="0" mediaItemID="207" duration="0.029999999999999999">
      <Effects />
      <Transitions />
      <BoundProperties>
        <BoundPropertyInt Name="rotateStepNinety" Value="0" />
      </BoundProperties>
    </ImageClip>
    <ImageClip extentID="1208" gapBefore="0" mediaItemID="44" duration="0.029999999999999999">
      <Effects />
      <Transitions />
      <BoundProperties>
        <BoundPropertyInt Name="rotateStepNinety" Value="0" />
      </BoundProperties>
    </ImageClip>
    <ImageClip extentID="1372" gapBefore="0" mediaItemID="208" duration="0.029999999999999999">
      <Effects />
      <Transitions />
      <BoundProperties>
        <BoundPropertyInt Name="rotateStepNinety" Value="0" />
      </BoundProperties>
    </ImageClip>
    <ImageClip extentID="1209" gapBefore="0" mediaItemID="45" duration="0.029999999999999999">
      <Effects />
      <Transitions />
      <BoundProperties>
        <BoundPropertyInt Name="rotateStepNinety" Value="0" />
      </BoundProperties>
    </ImageClip>
    <ImageClip extentID="1373" gapBefore="0" mediaItemID="209" duration="0.029999999999999999">
      <Effects />
      <Transitions />
      <BoundProperties>
        <BoundPropertyInt Name="rotateStepNinety" Value="0" />
      </BoundProperties>
    </ImageClip>
    <ImageClip extentID="1210" gapBefore="0" mediaItemID="46" duration="0.029999999999999999">
      <Effects />
      <Transitions />
      <BoundProperties>
        <BoundPropertyInt Name="rotateStepNinety" Value="0" />
      </BoundProperties>
    </ImageClip>
    <ImageClip extentID="1374" gapBefore="0" mediaItemID="210" duration="0.029999999999999999">
      <Effects />
      <Transitions />
      <BoundProperties>
        <BoundPropertyInt Name="rotateStepNinety" Value="0" />
      </BoundProperties>
    </ImageClip>
    <ImageClip extentID="1211" gapBefore="0" mediaItemID="47" duration="0.029999999999999999">
      <Effects />
      <Transitions />
      <BoundProperties>
        <BoundPropertyInt Name="rotateStepNinety" Value="0" />
      </BoundProperties>
    </ImageClip>
    <ImageClip extentID="1375" gapBefore="0" mediaItemID="211" duration="0.029999999999999999">
      <Effects />
      <Transitions />
      <BoundProperties>
        <BoundPropertyInt Name="rotateStepNinety" Value="0" />
      </BoundProperties>
    </ImageClip>
    <ImageClip extentID="1212" gapBefore="0" mediaItemID="48" duration="0.029999999999999999">
      <Effects />
      <Transitions />
      <BoundProperties>
        <BoundPropertyInt Name="rotateStepNinety" Value="0" />
      </BoundProperties>
    </ImageClip>
    <ImageClip extentID="1376" gapBefore="0" mediaItemID="212" duration="0.029999999999999999">
      <Effects />
      <Transitions />
      <BoundProperties>
        <BoundPropertyInt Name="rotateStepNinety" Value="0" />
      </BoundProperties>
    </ImageClip>
    <ImageClip extentID="1213" gapBefore="0" mediaItemID="49" duration="0.029999999999999999">
      <Effects />
      <Transitions />
      <BoundProperties>
        <BoundPropertyInt Name="rotateStepNinety" Value="0" />
      </BoundProperties>
    </ImageClip>
    <ImageClip extentID="1377" gapBefore="0" mediaItemID="213" duration="0.029999999999999999">
      <Effects />
      <Transitions />
      <BoundProperties>
        <BoundPropertyInt Name="rotateStepNinety" Value="0" />
      </BoundProperties>
    </ImageClip>
    <ImageClip extentID="1214" gapBefore="0" mediaItemID="50" duration="0.029999999999999999">
      <Effects />
      <Transitions />
      <BoundProperties>
        <BoundPropertyInt Name="rotateStepNinety" Value="0" />
      </BoundProperties>
    </ImageClip>
    <ImageClip extentID="1378" gapBefore="0" mediaItemID="214" duration="0.029999999999999999">
      <Effects />
      <Transitions />
      <BoundProperties>
        <BoundPropertyInt Name="rotateStepNinety" Value="0" />
      </BoundProperties>
    </ImageClip>
    <ImageClip extentID="1215" gapBefore="0" mediaItemID="51" duration="0.029999999999999999">
      <Effects />
      <Transitions />
      <BoundProperties>
        <BoundPropertyInt Name="rotateStepNinety" Value="0" />
      </BoundProperties>
    </ImageClip>
    <ImageClip extentID="1379" gapBefore="0" mediaItemID="215" duration="0.029999999999999999">
      <Effects />
      <Transitions />
      <BoundProperties>
        <BoundPropertyInt Name="rotateStepNinety" Value="0" />
      </BoundProperties>
    </ImageClip>
    <ImageClip extentID="1216" gapBefore="0" mediaItemID="52" duration="0.029999999999999999">
      <Effects />
      <Transitions />
      <BoundProperties>
        <BoundPropertyInt Name="rotateStepNinety" Value="0" />
      </BoundProperties>
    </ImageClip>
    <ImageClip extentID="1380" gapBefore="0" mediaItemID="216" duration="0.029999999999999999">
      <Effects />
      <Transitions />
      <BoundProperties>
        <BoundPropertyInt Name="rotateStepNinety" Value="0" />
      </BoundProperties>
    </ImageClip>
    <ImageClip extentID="1217" gapBefore="0" mediaItemID="53" duration="0.029999999999999999">
      <Effects />
      <Transitions />
      <BoundProperties>
        <BoundPropertyInt Name="rotateStepNinety" Value="0" />
      </BoundProperties>
    </ImageClip>
    <ImageClip extentID="1381" gapBefore="0" mediaItemID="217" duration="0.029999999999999999">
      <Effects />
      <Transitions />
      <BoundProperties>
        <BoundPropertyInt Name="rotateStepNinety" Value="0" />
      </BoundProperties>
    </ImageClip>
    <ImageClip extentID="1218" gapBefore="0" mediaItemID="54" duration="0.029999999999999999">
      <Effects />
      <Transitions />
      <BoundProperties>
        <BoundPropertyInt Name="rotateStepNinety" Value="0" />
      </BoundProperties>
    </ImageClip>
    <ImageClip extentID="1382" gapBefore="0" mediaItemID="218" duration="0.029999999999999999">
      <Effects />
      <Transitions />
      <BoundProperties>
        <BoundPropertyInt Name="rotateStepNinety" Value="0" />
      </BoundProperties>
    </ImageClip>
    <ImageClip extentID="1219" gapBefore="0" mediaItemID="55" duration="0.029999999999999999">
      <Effects />
      <Transitions />
      <BoundProperties>
        <BoundPropertyInt Name="rotateStepNinety" Value="0" />
      </BoundProperties>
    </ImageClip>
    <ImageClip extentID="1383" gapBefore="0" mediaItemID="219" duration="0.029999999999999999">
      <Effects />
      <Transitions />
      <BoundProperties>
        <BoundPropertyInt Name="rotateStepNinety" Value="0" />
      </BoundProperties>
    </ImageClip>
    <ImageClip extentID="1220" gapBefore="0" mediaItemID="56" duration="0.029999999999999999">
      <Effects />
      <Transitions />
      <BoundProperties>
        <BoundPropertyInt Name="rotateStepNinety" Value="0" />
      </BoundProperties>
    </ImageClip>
    <ImageClip extentID="1384" gapBefore="0" mediaItemID="220" duration="0.029999999999999999">
      <Effects />
      <Transitions />
      <BoundProperties>
        <BoundPropertyInt Name="rotateStepNinety" Value="0" />
      </BoundProperties>
    </ImageClip>
    <ImageClip extentID="1221" gapBefore="0" mediaItemID="57" duration="0.029999999999999999">
      <Effects />
      <Transitions />
      <BoundProperties>
        <BoundPropertyInt Name="rotateStepNinety" Value="0" />
      </BoundProperties>
    </ImageClip>
    <ImageClip extentID="1385" gapBefore="0" mediaItemID="221" duration="0.029999999999999999">
      <Effects />
      <Transitions />
      <BoundProperties>
        <BoundPropertyInt Name="rotateStepNinety" Value="0" />
      </BoundProperties>
    </ImageClip>
    <ImageClip extentID="1222" gapBefore="0" mediaItemID="58" duration="0.029999999999999999">
      <Effects />
      <Transitions />
      <BoundProperties>
        <BoundPropertyInt Name="rotateStepNinety" Value="0" />
      </BoundProperties>
    </ImageClip>
    <ImageClip extentID="1386" gapBefore="0" mediaItemID="222" duration="0.029999999999999999">
      <Effects />
      <Transitions />
      <BoundProperties>
        <BoundPropertyInt Name="rotateStepNinety" Value="0" />
      </BoundProperties>
    </ImageClip>
    <ImageClip extentID="1223" gapBefore="0" mediaItemID="59" duration="0.029999999999999999">
      <Effects />
      <Transitions />
      <BoundProperties>
        <BoundPropertyInt Name="rotateStepNinety" Value="0" />
      </BoundProperties>
    </ImageClip>
    <ImageClip extentID="1387" gapBefore="0" mediaItemID="223" duration="0.029999999999999999">
      <Effects />
      <Transitions />
      <BoundProperties>
        <BoundPropertyInt Name="rotateStepNinety" Value="0" />
      </BoundProperties>
    </ImageClip>
    <ImageClip extentID="1224" gapBefore="0" mediaItemID="60" duration="0.029999999999999999">
      <Effects />
      <Transitions />
      <BoundProperties>
        <BoundPropertyInt Name="rotateStepNinety" Value="0" />
      </BoundProperties>
    </ImageClip>
    <ImageClip extentID="1388" gapBefore="0" mediaItemID="224" duration="0.029999999999999999">
      <Effects />
      <Transitions />
      <BoundProperties>
        <BoundPropertyInt Name="rotateStepNinety" Value="0" />
      </BoundProperties>
    </ImageClip>
    <ImageClip extentID="1225" gapBefore="0" mediaItemID="61" duration="0.029999999999999999">
      <Effects />
      <Transitions />
      <BoundProperties>
        <BoundPropertyInt Name="rotateStepNinety" Value="0" />
      </BoundProperties>
    </ImageClip>
    <ImageClip extentID="1389" gapBefore="0" mediaItemID="225" duration="0.029999999999999999">
      <Effects />
      <Transitions />
      <BoundProperties>
        <BoundPropertyInt Name="rotateStepNinety" Value="0" />
      </BoundProperties>
    </ImageClip>
    <ImageClip extentID="1226" gapBefore="0" mediaItemID="62" duration="0.029999999999999999">
      <Effects />
      <Transitions />
      <BoundProperties>
        <BoundPropertyInt Name="rotateStepNinety" Value="0" />
      </BoundProperties>
    </ImageClip>
    <ImageClip extentID="1390" gapBefore="0" mediaItemID="226" duration="0.029999999999999999">
      <Effects />
      <Transitions />
      <BoundProperties>
        <BoundPropertyInt Name="rotateStepNinety" Value="0" />
      </BoundProperties>
    </ImageClip>
    <ImageClip extentID="1227" gapBefore="0" mediaItemID="63" duration="0.029999999999999999">
      <Effects />
      <Transitions />
      <BoundProperties>
        <BoundPropertyInt Name="rotateStepNinety" Value="0" />
      </BoundProperties>
    </ImageClip>
    <ImageClip extentID="1391" gapBefore="0" mediaItemID="227" duration="0.029999999999999999">
      <Effects />
      <Transitions />
      <BoundProperties>
        <BoundPropertyInt Name="rotateStepNinety" Value="0" />
      </BoundProperties>
    </ImageClip>
    <ImageClip extentID="1228" gapBefore="0" mediaItemID="64" duration="0.029999999999999999">
      <Effects />
      <Transitions />
      <BoundProperties>
        <BoundPropertyInt Name="rotateStepNinety" Value="0" />
      </BoundProperties>
    </ImageClip>
    <ImageClip extentID="1392" gapBefore="0" mediaItemID="228" duration="0.029999999999999999">
      <Effects />
      <Transitions />
      <BoundProperties>
        <BoundPropertyInt Name="rotateStepNinety" Value="0" />
      </BoundProperties>
    </ImageClip>
    <ImageClip extentID="1229" gapBefore="0" mediaItemID="65" duration="0.029999999999999999">
      <Effects />
      <Transitions />
      <BoundProperties>
        <BoundPropertyInt Name="rotateStepNinety" Value="0" />
      </BoundProperties>
    </ImageClip>
    <ImageClip extentID="1393" gapBefore="0" mediaItemID="229" duration="0.029999999999999999">
      <Effects />
      <Transitions />
      <BoundProperties>
        <BoundPropertyInt Name="rotateStepNinety" Value="0" />
      </BoundProperties>
    </ImageClip>
    <ImageClip extentID="1230" gapBefore="0" mediaItemID="66" duration="0.029999999999999999">
      <Effects />
      <Transitions />
      <BoundProperties>
        <BoundPropertyInt Name="rotateStepNinety" Value="0" />
      </BoundProperties>
    </ImageClip>
    <ImageClip extentID="1394" gapBefore="0" mediaItemID="230" duration="0.029999999999999999">
      <Effects />
      <Transitions />
      <BoundProperties>
        <BoundPropertyInt Name="rotateStepNinety" Value="0" />
      </BoundProperties>
    </ImageClip>
    <ImageClip extentID="1231" gapBefore="0" mediaItemID="67" duration="0.029999999999999999">
      <Effects />
      <Transitions />
      <BoundProperties>
        <BoundPropertyInt Name="rotateStepNinety" Value="0" />
      </BoundProperties>
    </ImageClip>
    <ImageClip extentID="1395" gapBefore="0" mediaItemID="231" duration="0.029999999999999999">
      <Effects />
      <Transitions />
      <BoundProperties>
        <BoundPropertyInt Name="rotateStepNinety" Value="0" />
      </BoundProperties>
    </ImageClip>
    <ImageClip extentID="1232" gapBefore="0" mediaItemID="68" duration="0.029999999999999999">
      <Effects />
      <Transitions />
      <BoundProperties>
        <BoundPropertyInt Name="rotateStepNinety" Value="0" />
      </BoundProperties>
    </ImageClip>
    <ImageClip extentID="1396" gapBefore="0" mediaItemID="232" duration="0.029999999999999999">
      <Effects />
      <Transitions />
      <BoundProperties>
        <BoundPropertyInt Name="rotateStepNinety" Value="0" />
      </BoundProperties>
    </ImageClip>
    <ImageClip extentID="1233" gapBefore="0" mediaItemID="69" duration="0.029999999999999999">
      <Effects />
      <Transitions />
      <BoundProperties>
        <BoundPropertyInt Name="rotateStepNinety" Value="0" />
      </BoundProperties>
    </ImageClip>
    <ImageClip extentID="1397" gapBefore="0" mediaItemID="233" duration="0.029999999999999999">
      <Effects />
      <Transitions />
      <BoundProperties>
        <BoundPropertyInt Name="rotateStepNinety" Value="0" />
      </BoundProperties>
    </ImageClip>
    <ImageClip extentID="1234" gapBefore="0" mediaItemID="70" duration="0.029999999999999999">
      <Effects />
      <Transitions />
      <BoundProperties>
        <BoundPropertyInt Name="rotateStepNinety" Value="0" />
      </BoundProperties>
    </ImageClip>
    <ImageClip extentID="1398" gapBefore="0" mediaItemID="234" duration="0.029999999999999999">
      <Effects />
      <Transitions />
      <BoundProperties>
        <BoundPropertyInt Name="rotateStepNinety" Value="0" />
      </BoundProperties>
    </ImageClip>
    <ImageClip extentID="1235" gapBefore="0" mediaItemID="71" duration="0.029999999999999999">
      <Effects />
      <Transitions />
      <BoundProperties>
        <BoundPropertyInt Name="rotateStepNinety" Value="0" />
      </BoundProperties>
    </ImageClip>
    <ImageClip extentID="1399" gapBefore="0" mediaItemID="235" duration="0.029999999999999999">
      <Effects />
      <Transitions />
      <BoundProperties>
        <BoundPropertyInt Name="rotateStepNinety" Value="0" />
      </BoundProperties>
    </ImageClip>
    <ImageClip extentID="1236" gapBefore="0" mediaItemID="72" duration="0.029999999999999999">
      <Effects />
      <Transitions />
      <BoundProperties>
        <BoundPropertyInt Name="rotateStepNinety" Value="0" />
      </BoundProperties>
    </ImageClip>
    <ImageClip extentID="1400" gapBefore="0" mediaItemID="236" duration="0.029999999999999999">
      <Effects />
      <Transitions />
      <BoundProperties>
        <BoundPropertyInt Name="rotateStepNinety" Value="0" />
      </BoundProperties>
    </ImageClip>
    <ImageClip extentID="1237" gapBefore="0" mediaItemID="73" duration="0.029999999999999999">
      <Effects />
      <Transitions />
      <BoundProperties>
        <BoundPropertyInt Name="rotateStepNinety" Value="0" />
      </BoundProperties>
    </ImageClip>
    <ImageClip extentID="1401" gapBefore="0" mediaItemID="237" duration="0.029999999999999999">
      <Effects />
      <Transitions />
      <BoundProperties>
        <BoundPropertyInt Name="rotateStepNinety" Value="0" />
      </BoundProperties>
    </ImageClip>
    <ImageClip extentID="1238" gapBefore="0" mediaItemID="74" duration="0.029999999999999999">
      <Effects />
      <Transitions />
      <BoundProperties>
        <BoundPropertyInt Name="rotateStepNinety" Value="0" />
      </BoundProperties>
    </ImageClip>
    <ImageClip extentID="1402" gapBefore="0" mediaItemID="238" duration="0.029999999999999999">
      <Effects />
      <Transitions />
      <BoundProperties>
        <BoundPropertyInt Name="rotateStepNinety" Value="0" />
      </BoundProperties>
    </ImageClip>
    <ImageClip extentID="1239" gapBefore="0" mediaItemID="75" duration="0.029999999999999999">
      <Effects />
      <Transitions />
      <BoundProperties>
        <BoundPropertyInt Name="rotateStepNinety" Value="0" />
      </BoundProperties>
    </ImageClip>
    <ImageClip extentID="1403" gapBefore="0" mediaItemID="239" duration="0.029999999999999999">
      <Effects />
      <Transitions />
      <BoundProperties>
        <BoundPropertyInt Name="rotateStepNinety" Value="0" />
      </BoundProperties>
    </ImageClip>
    <ImageClip extentID="1240" gapBefore="0" mediaItemID="76" duration="0.029999999999999999">
      <Effects />
      <Transitions />
      <BoundProperties>
        <BoundPropertyInt Name="rotateStepNinety" Value="0" />
      </BoundProperties>
    </ImageClip>
    <ImageClip extentID="1404" gapBefore="0" mediaItemID="240" duration="0.029999999999999999">
      <Effects />
      <Transitions />
      <BoundProperties>
        <BoundPropertyInt Name="rotateStepNinety" Value="0" />
      </BoundProperties>
    </ImageClip>
    <ImageClip extentID="1241" gapBefore="0" mediaItemID="77" duration="0.029999999999999999">
      <Effects />
      <Transitions />
      <BoundProperties>
        <BoundPropertyInt Name="rotateStepNinety" Value="0" />
      </BoundProperties>
    </ImageClip>
    <ImageClip extentID="1405" gapBefore="0" mediaItemID="241" duration="0.029999999999999999">
      <Effects />
      <Transitions />
      <BoundProperties>
        <BoundPropertyInt Name="rotateStepNinety" Value="0" />
      </BoundProperties>
    </ImageClip>
    <ImageClip extentID="1242" gapBefore="0" mediaItemID="78" duration="0.029999999999999999">
      <Effects />
      <Transitions />
      <BoundProperties>
        <BoundPropertyInt Name="rotateStepNinety" Value="0" />
      </BoundProperties>
    </ImageClip>
    <ImageClip extentID="1406" gapBefore="0" mediaItemID="242" duration="0.029999999999999999">
      <Effects />
      <Transitions />
      <BoundProperties>
        <BoundPropertyInt Name="rotateStepNinety" Value="0" />
      </BoundProperties>
    </ImageClip>
    <ImageClip extentID="1243" gapBefore="0" mediaItemID="79" duration="0.029999999999999999">
      <Effects />
      <Transitions />
      <BoundProperties>
        <BoundPropertyInt Name="rotateStepNinety" Value="0" />
      </BoundProperties>
    </ImageClip>
    <ImageClip extentID="1407" gapBefore="0" mediaItemID="243" duration="0.029999999999999999">
      <Effects />
      <Transitions />
      <BoundProperties>
        <BoundPropertyInt Name="rotateStepNinety" Value="0" />
      </BoundProperties>
    </ImageClip>
    <ImageClip extentID="1244" gapBefore="0" mediaItemID="80" duration="0.029999999999999999">
      <Effects />
      <Transitions />
      <BoundProperties>
        <BoundPropertyInt Name="rotateStepNinety" Value="0" />
      </BoundProperties>
    </ImageClip>
    <ImageClip extentID="1408" gapBefore="0" mediaItemID="244" duration="0.029999999999999999">
      <Effects />
      <Transitions />
      <BoundProperties>
        <BoundPropertyInt Name="rotateStepNinety" Value="0" />
      </BoundProperties>
    </ImageClip>
    <ImageClip extentID="1245" gapBefore="0" mediaItemID="81" duration="0.029999999999999999">
      <Effects />
      <Transitions />
      <BoundProperties>
        <BoundPropertyInt Name="rotateStepNinety" Value="0" />
      </BoundProperties>
    </ImageClip>
    <ImageClip extentID="1409" gapBefore="0" mediaItemID="245" duration="0.029999999999999999">
      <Effects />
      <Transitions />
      <BoundProperties>
        <BoundPropertyInt Name="rotateStepNinety" Value="0" />
      </BoundProperties>
    </ImageClip>
    <ImageClip extentID="1246" gapBefore="0" mediaItemID="82" duration="0.029999999999999999">
      <Effects />
      <Transitions />
      <BoundProperties>
        <BoundPropertyInt Name="rotateStepNinety" Value="0" />
      </BoundProperties>
    </ImageClip>
    <ImageClip extentID="1410" gapBefore="0" mediaItemID="246" duration="0.029999999999999999">
      <Effects />
      <Transitions />
      <BoundProperties>
        <BoundPropertyInt Name="rotateStepNinety" Value="0" />
      </BoundProperties>
    </ImageClip>
    <ImageClip extentID="1247" gapBefore="0" mediaItemID="83" duration="0.029999999999999999">
      <Effects />
      <Transitions />
      <BoundProperties>
        <BoundPropertyInt Name="rotateStepNinety" Value="0" />
      </BoundProperties>
    </ImageClip>
    <ImageClip extentID="1411" gapBefore="0" mediaItemID="247" duration="0.029999999999999999">
      <Effects />
      <Transitions />
      <BoundProperties>
        <BoundPropertyInt Name="rotateStepNinety" Value="0" />
      </BoundProperties>
    </ImageClip>
    <ImageClip extentID="1248" gapBefore="0" mediaItemID="84" duration="0.029999999999999999">
      <Effects />
      <Transitions />
      <BoundProperties>
        <BoundPropertyInt Name="rotateStepNinety" Value="0" />
      </BoundProperties>
    </ImageClip>
    <ImageClip extentID="1412" gapBefore="0" mediaItemID="248" duration="0.029999999999999999">
      <Effects />
      <Transitions />
      <BoundProperties>
        <BoundPropertyInt Name="rotateStepNinety" Value="0" />
      </BoundProperties>
    </ImageClip>
    <ImageClip extentID="1249" gapBefore="0" mediaItemID="85" duration="0.029999999999999999">
      <Effects />
      <Transitions />
      <BoundProperties>
        <BoundPropertyInt Name="rotateStepNinety" Value="0" />
      </BoundProperties>
    </ImageClip>
    <ImageClip extentID="1413" gapBefore="0" mediaItemID="249" duration="0.029999999999999999">
      <Effects />
      <Transitions />
      <BoundProperties>
        <BoundPropertyInt Name="rotateStepNinety" Value="0" />
      </BoundProperties>
    </ImageClip>
    <ImageClip extentID="1250" gapBefore="0" mediaItemID="86" duration="0.029999999999999999">
      <Effects />
      <Transitions />
      <BoundProperties>
        <BoundPropertyInt Name="rotateStepNinety" Value="0" />
      </BoundProperties>
    </ImageClip>
    <ImageClip extentID="1414" gapBefore="0" mediaItemID="250" duration="0.029999999999999999">
      <Effects />
      <Transitions />
      <BoundProperties>
        <BoundPropertyInt Name="rotateStepNinety" Value="0" />
      </BoundProperties>
    </ImageClip>
    <ImageClip extentID="1251" gapBefore="0" mediaItemID="87" duration="0.029999999999999999">
      <Effects />
      <Transitions />
      <BoundProperties>
        <BoundPropertyInt Name="rotateStepNinety" Value="0" />
      </BoundProperties>
    </ImageClip>
    <ImageClip extentID="1415" gapBefore="0" mediaItemID="251" duration="0.029999999999999999">
      <Effects />
      <Transitions />
      <BoundProperties>
        <BoundPropertyInt Name="rotateStepNinety" Value="0" />
      </BoundProperties>
    </ImageClip>
    <ImageClip extentID="1252" gapBefore="0" mediaItemID="88" duration="0.029999999999999999">
      <Effects />
      <Transitions />
      <BoundProperties>
        <BoundPropertyInt Name="rotateStepNinety" Value="0" />
      </BoundProperties>
    </ImageClip>
    <ImageClip extentID="1416" gapBefore="0" mediaItemID="252" duration="0.029999999999999999">
      <Effects />
      <Transitions />
      <BoundProperties>
        <BoundPropertyInt Name="rotateStepNinety" Value="0" />
      </BoundProperties>
    </ImageClip>
    <ImageClip extentID="1253" gapBefore="0" mediaItemID="89" duration="0.029999999999999999">
      <Effects />
      <Transitions />
      <BoundProperties>
        <BoundPropertyInt Name="rotateStepNinety" Value="0" />
      </BoundProperties>
    </ImageClip>
    <ImageClip extentID="1417" gapBefore="0" mediaItemID="253" duration="0.029999999999999999">
      <Effects />
      <Transitions />
      <BoundProperties>
        <BoundPropertyInt Name="rotateStepNinety" Value="0" />
      </BoundProperties>
    </ImageClip>
    <ImageClip extentID="1254" gapBefore="0" mediaItemID="90" duration="0.029999999999999999">
      <Effects />
      <Transitions />
      <BoundProperties>
        <BoundPropertyInt Name="rotateStepNinety" Value="0" />
      </BoundProperties>
    </ImageClip>
    <ImageClip extentID="1418" gapBefore="0" mediaItemID="254" duration="0.029999999999999999">
      <Effects />
      <Transitions />
      <BoundProperties>
        <BoundPropertyInt Name="rotateStepNinety" Value="0" />
      </BoundProperties>
    </ImageClip>
    <ImageClip extentID="1255" gapBefore="0" mediaItemID="91" duration="0.029999999999999999">
      <Effects />
      <Transitions />
      <BoundProperties>
        <BoundPropertyInt Name="rotateStepNinety" Value="0" />
      </BoundProperties>
    </ImageClip>
    <ImageClip extentID="1419" gapBefore="0" mediaItemID="255" duration="0.029999999999999999">
      <Effects />
      <Transitions />
      <BoundProperties>
        <BoundPropertyInt Name="rotateStepNinety" Value="0" />
      </BoundProperties>
    </ImageClip>
    <ImageClip extentID="1256" gapBefore="0" mediaItemID="92" duration="0.029999999999999999">
      <Effects />
      <Transitions />
      <BoundProperties>
        <BoundPropertyInt Name="rotateStepNinety" Value="0" />
      </BoundProperties>
    </ImageClip>
    <ImageClip extentID="1420" gapBefore="0" mediaItemID="256" duration="0.029999999999999999">
      <Effects />
      <Transitions />
      <BoundProperties>
        <BoundPropertyInt Name="rotateStepNinety" Value="0" />
      </BoundProperties>
    </ImageClip>
    <ImageClip extentID="1257" gapBefore="0" mediaItemID="93" duration="0.029999999999999999">
      <Effects />
      <Transitions />
      <BoundProperties>
        <BoundPropertyInt Name="rotateStepNinety" Value="0" />
      </BoundProperties>
    </ImageClip>
    <ImageClip extentID="1421" gapBefore="0" mediaItemID="257" duration="0.029999999999999999">
      <Effects />
      <Transitions />
      <BoundProperties>
        <BoundPropertyInt Name="rotateStepNinety" Value="0" />
      </BoundProperties>
    </ImageClip>
    <ImageClip extentID="1258" gapBefore="0" mediaItemID="94" duration="0.029999999999999999">
      <Effects />
      <Transitions />
      <BoundProperties>
        <BoundPropertyInt Name="rotateStepNinety" Value="0" />
      </BoundProperties>
    </ImageClip>
    <ImageClip extentID="1422" gapBefore="0" mediaItemID="258" duration="0.029999999999999999">
      <Effects />
      <Transitions />
      <BoundProperties>
        <BoundPropertyInt Name="rotateStepNinety" Value="0" />
      </BoundProperties>
    </ImageClip>
    <ImageClip extentID="1259" gapBefore="0" mediaItemID="95" duration="0.029999999999999999">
      <Effects />
      <Transitions />
      <BoundProperties>
        <BoundPropertyInt Name="rotateStepNinety" Value="0" />
      </BoundProperties>
    </ImageClip>
    <ImageClip extentID="1423" gapBefore="0" mediaItemID="259" duration="0.029999999999999999">
      <Effects />
      <Transitions />
      <BoundProperties>
        <BoundPropertyInt Name="rotateStepNinety" Value="0" />
      </BoundProperties>
    </ImageClip>
    <ImageClip extentID="1260" gapBefore="0" mediaItemID="96" duration="0.029999999999999999">
      <Effects />
      <Transitions />
      <BoundProperties>
        <BoundPropertyInt Name="rotateStepNinety" Value="0" />
      </BoundProperties>
    </ImageClip>
    <ImageClip extentID="1424" gapBefore="0" mediaItemID="260" duration="0.029999999999999999">
      <Effects />
      <Transitions />
      <BoundProperties>
        <BoundPropertyInt Name="rotateStepNinety" Value="0" />
      </BoundProperties>
    </ImageClip>
    <ImageClip extentID="1261" gapBefore="0" mediaItemID="97" duration="0.029999999999999999">
      <Effects />
      <Transitions />
      <BoundProperties>
        <BoundPropertyInt Name="rotateStepNinety" Value="0" />
      </BoundProperties>
    </ImageClip>
    <ImageClip extentID="1425" gapBefore="0" mediaItemID="261" duration="0.029999999999999999">
      <Effects />
      <Transitions />
      <BoundProperties>
        <BoundPropertyInt Name="rotateStepNinety" Value="0" />
      </BoundProperties>
    </ImageClip>
    <ImageClip extentID="1262" gapBefore="0" mediaItemID="98" duration="0.029999999999999999">
      <Effects />
      <Transitions />
      <BoundProperties>
        <BoundPropertyInt Name="rotateStepNinety" Value="0" />
      </BoundProperties>
    </ImageClip>
    <ImageClip extentID="1426" gapBefore="0" mediaItemID="262" duration="0.029999999999999999">
      <Effects />
      <Transitions />
      <BoundProperties>
        <BoundPropertyInt Name="rotateStepNinety" Value="0" />
      </BoundProperties>
    </ImageClip>
    <ImageClip extentID="1263" gapBefore="0" mediaItemID="99" duration="0.029999999999999999">
      <Effects />
      <Transitions />
      <BoundProperties>
        <BoundPropertyInt Name="rotateStepNinety" Value="0" />
      </BoundProperties>
    </ImageClip>
    <ImageClip extentID="1427" gapBefore="0" mediaItemID="263" duration="0.029999999999999999">
      <Effects />
      <Transitions />
      <BoundProperties>
        <BoundPropertyInt Name="rotateStepNinety" Value="0" />
      </BoundProperties>
    </ImageClip>
    <ImageClip extentID="1264" gapBefore="0" mediaItemID="100" duration="0.029999999999999999">
      <Effects />
      <Transitions />
      <BoundProperties>
        <BoundPropertyInt Name="rotateStepNinety" Value="0" />
      </BoundProperties>
    </ImageClip>
    <ImageClip extentID="1428" gapBefore="0" mediaItemID="264" duration="0.029999999999999999">
      <Effects />
      <Transitions />
      <BoundProperties>
        <BoundPropertyInt Name="rotateStepNinety" Value="0" />
      </BoundProperties>
    </ImageClip>
    <ImageClip extentID="1265" gapBefore="0" mediaItemID="101" duration="0.029999999999999999">
      <Effects />
      <Transitions />
      <BoundProperties>
        <BoundPropertyInt Name="rotateStepNinety" Value="0" />
      </BoundProperties>
    </ImageClip>
    <ImageClip extentID="1429" gapBefore="0" mediaItemID="265" duration="0.029999999999999999">
      <Effects />
      <Transitions />
      <BoundProperties>
        <BoundPropertyInt Name="rotateStepNinety" Value="0" />
      </BoundProperties>
    </ImageClip>
    <ImageClip extentID="1266" gapBefore="0" mediaItemID="102" duration="0.029999999999999999">
      <Effects />
      <Transitions />
      <BoundProperties>
        <BoundPropertyInt Name="rotateStepNinety" Value="0" />
      </BoundProperties>
    </ImageClip>
    <ImageClip extentID="1430" gapBefore="0" mediaItemID="266" duration="0.029999999999999999">
      <Effects />
      <Transitions />
      <BoundProperties>
        <BoundPropertyInt Name="rotateStepNinety" Value="0" />
      </BoundProperties>
    </ImageClip>
    <ImageClip extentID="1267" gapBefore="0" mediaItemID="103" duration="0.029999999999999999">
      <Effects />
      <Transitions />
      <BoundProperties>
        <BoundPropertyInt Name="rotateStepNinety" Value="0" />
      </BoundProperties>
    </ImageClip>
    <ImageClip extentID="1431" gapBefore="0" mediaItemID="267" duration="0.029999999999999999">
      <Effects />
      <Transitions />
      <BoundProperties>
        <BoundPropertyInt Name="rotateStepNinety" Value="0" />
      </BoundProperties>
    </ImageClip>
    <ImageClip extentID="1268" gapBefore="0" mediaItemID="104" duration="0.029999999999999999">
      <Effects />
      <Transitions />
      <BoundProperties>
        <BoundPropertyInt Name="rotateStepNinety" Value="0" />
      </BoundProperties>
    </ImageClip>
    <ImageClip extentID="1432" gapBefore="0" mediaItemID="268" duration="0.029999999999999999">
      <Effects />
      <Transitions />
      <BoundProperties>
        <BoundPropertyInt Name="rotateStepNinety" Value="0" />
      </BoundProperties>
    </ImageClip>
    <ImageClip extentID="1269" gapBefore="0" mediaItemID="105" duration="0.029999999999999999">
      <Effects />
      <Transitions />
      <BoundProperties>
        <BoundPropertyInt Name="rotateStepNinety" Value="0" />
      </BoundProperties>
    </ImageClip>
    <ImageClip extentID="1433" gapBefore="0" mediaItemID="269" duration="0.029999999999999999">
      <Effects />
      <Transitions />
      <BoundProperties>
        <BoundPropertyInt Name="rotateStepNinety" Value="0" />
      </BoundProperties>
    </ImageClip>
    <ImageClip extentID="1270" gapBefore="0" mediaItemID="106" duration="0.029999999999999999">
      <Effects />
      <Transitions />
      <BoundProperties>
        <BoundPropertyInt Name="rotateStepNinety" Value="0" />
      </BoundProperties>
    </ImageClip>
    <ImageClip extentID="1434" gapBefore="0" mediaItemID="270" duration="0.029999999999999999">
      <Effects />
      <Transitions />
      <BoundProperties>
        <BoundPropertyInt Name="rotateStepNinety" Value="0" />
      </BoundProperties>
    </ImageClip>
    <ImageClip extentID="1271" gapBefore="0" mediaItemID="107" duration="0.029999999999999999">
      <Effects />
      <Transitions />
      <BoundProperties>
        <BoundPropertyInt Name="rotateStepNinety" Value="0" />
      </BoundProperties>
    </ImageClip>
    <ImageClip extentID="1435" gapBefore="0" mediaItemID="271" duration="0.029999999999999999">
      <Effects />
      <Transitions />
      <BoundProperties>
        <BoundPropertyInt Name="rotateStepNinety" Value="0" />
      </BoundProperties>
    </ImageClip>
    <ImageClip extentID="1272" gapBefore="0" mediaItemID="108" duration="0.029999999999999999">
      <Effects />
      <Transitions />
      <BoundProperties>
        <BoundPropertyInt Name="rotateStepNinety" Value="0" />
      </BoundProperties>
    </ImageClip>
    <ImageClip extentID="1436" gapBefore="0" mediaItemID="272" duration="0.029999999999999999">
      <Effects />
      <Transitions />
      <BoundProperties>
        <BoundPropertyInt Name="rotateStepNinety" Value="0" />
      </BoundProperties>
    </ImageClip>
    <ImageClip extentID="1273" gapBefore="0" mediaItemID="109" duration="0.029999999999999999">
      <Effects />
      <Transitions />
      <BoundProperties>
        <BoundPropertyInt Name="rotateStepNinety" Value="0" />
      </BoundProperties>
    </ImageClip>
    <ImageClip extentID="1437" gapBefore="0" mediaItemID="273" duration="0.029999999999999999">
      <Effects />
      <Transitions />
      <BoundProperties>
        <BoundPropertyInt Name="rotateStepNinety" Value="0" />
      </BoundProperties>
    </ImageClip>
    <ImageClip extentID="1274" gapBefore="0" mediaItemID="110" duration="0.029999999999999999">
      <Effects />
      <Transitions />
      <BoundProperties>
        <BoundPropertyInt Name="rotateStepNinety" Value="0" />
      </BoundProperties>
    </ImageClip>
    <ImageClip extentID="1438" gapBefore="0" mediaItemID="274" duration="0.029999999999999999">
      <Effects />
      <Transitions />
      <BoundProperties>
        <BoundPropertyInt Name="rotateStepNinety" Value="0" />
      </BoundProperties>
    </ImageClip>
    <ImageClip extentID="1275" gapBefore="0" mediaItemID="111" duration="0.029999999999999999">
      <Effects />
      <Transitions />
      <BoundProperties>
        <BoundPropertyInt Name="rotateStepNinety" Value="0" />
      </BoundProperties>
    </ImageClip>
    <ImageClip extentID="1439" gapBefore="0" mediaItemID="275" duration="0.029999999999999999">
      <Effects />
      <Transitions />
      <BoundProperties>
        <BoundPropertyInt Name="rotateStepNinety" Value="0" />
      </BoundProperties>
    </ImageClip>
    <ImageClip extentID="1276" gapBefore="0" mediaItemID="112" duration="0.029999999999999999">
      <Effects />
      <Transitions />
      <BoundProperties>
        <BoundPropertyInt Name="rotateStepNinety" Value="0" />
      </BoundProperties>
    </ImageClip>
    <ImageClip extentID="1440" gapBefore="0" mediaItemID="276" duration="0.029999999999999999">
      <Effects />
      <Transitions />
      <BoundProperties>
        <BoundPropertyInt Name="rotateStepNinety" Value="0" />
      </BoundProperties>
    </ImageClip>
    <ImageClip extentID="1277" gapBefore="0" mediaItemID="113" duration="0.029999999999999999">
      <Effects />
      <Transitions />
      <BoundProperties>
        <BoundPropertyInt Name="rotateStepNinety" Value="0" />
      </BoundProperties>
    </ImageClip>
    <ImageClip extentID="1441" gapBefore="0" mediaItemID="277" duration="0.029999999999999999">
      <Effects />
      <Transitions />
      <BoundProperties>
        <BoundPropertyInt Name="rotateStepNinety" Value="0" />
      </BoundProperties>
    </ImageClip>
    <ImageClip extentID="1278" gapBefore="0" mediaItemID="114" duration="0.029999999999999999">
      <Effects />
      <Transitions />
      <BoundProperties>
        <BoundPropertyInt Name="rotateStepNinety" Value="0" />
      </BoundProperties>
    </ImageClip>
    <ImageClip extentID="1442" gapBefore="0" mediaItemID="278" duration="0.029999999999999999">
      <Effects />
      <Transitions />
      <BoundProperties>
        <BoundPropertyInt Name="rotateStepNinety" Value="0" />
      </BoundProperties>
    </ImageClip>
    <ImageClip extentID="1279" gapBefore="0" mediaItemID="115" duration="0.029999999999999999">
      <Effects />
      <Transitions />
      <BoundProperties>
        <BoundPropertyInt Name="rotateStepNinety" Value="0" />
      </BoundProperties>
    </ImageClip>
    <ImageClip extentID="1443" gapBefore="0" mediaItemID="279" duration="0.029999999999999999">
      <Effects />
      <Transitions />
      <BoundProperties>
        <BoundPropertyInt Name="rotateStepNinety" Value="0" />
      </BoundProperties>
    </ImageClip>
    <ImageClip extentID="1280" gapBefore="0" mediaItemID="116" duration="0.029999999999999999">
      <Effects />
      <Transitions />
      <BoundProperties>
        <BoundPropertyInt Name="rotateStepNinety" Value="0" />
      </BoundProperties>
    </ImageClip>
    <ImageClip extentID="1444" gapBefore="0" mediaItemID="280" duration="0.029999999999999999">
      <Effects />
      <Transitions />
      <BoundProperties>
        <BoundPropertyInt Name="rotateStepNinety" Value="0" />
      </BoundProperties>
    </ImageClip>
    <ImageClip extentID="1281" gapBefore="0" mediaItemID="117" duration="0.029999999999999999">
      <Effects />
      <Transitions />
      <BoundProperties>
        <BoundPropertyInt Name="rotateStepNinety" Value="0" />
      </BoundProperties>
    </ImageClip>
    <ImageClip extentID="1445" gapBefore="0" mediaItemID="281" duration="0.029999999999999999">
      <Effects />
      <Transitions />
      <BoundProperties>
        <BoundPropertyInt Name="rotateStepNinety" Value="0" />
      </BoundProperties>
    </ImageClip>
    <ImageClip extentID="1282" gapBefore="0" mediaItemID="118" duration="0.029999999999999999">
      <Effects />
      <Transitions />
      <BoundProperties>
        <BoundPropertyInt Name="rotateStepNinety" Value="0" />
      </BoundProperties>
    </ImageClip>
    <ImageClip extentID="1446" gapBefore="0" mediaItemID="282" duration="0.029999999999999999">
      <Effects />
      <Transitions />
      <BoundProperties>
        <BoundPropertyInt Name="rotateStepNinety" Value="0" />
      </BoundProperties>
    </ImageClip>
    <ImageClip extentID="1283" gapBefore="0" mediaItemID="119" duration="0.029999999999999999">
      <Effects />
      <Transitions />
      <BoundProperties>
        <BoundPropertyInt Name="rotateStepNinety" Value="0" />
      </BoundProperties>
    </ImageClip>
    <ImageClip extentID="1447" gapBefore="0" mediaItemID="283" duration="0.029999999999999999">
      <Effects />
      <Transitions />
      <BoundProperties>
        <BoundPropertyInt Name="rotateStepNinety" Value="0" />
      </BoundProperties>
    </ImageClip>
    <ImageClip extentID="1284" gapBefore="0" mediaItemID="120" duration="0.029999999999999999">
      <Effects />
      <Transitions />
      <BoundProperties>
        <BoundPropertyInt Name="rotateStepNinety" Value="0" />
      </BoundProperties>
    </ImageClip>
    <ImageClip extentID="1448" gapBefore="0" mediaItemID="284" duration="0.029999999999999999">
      <Effects />
      <Transitions />
      <BoundProperties>
        <BoundPropertyInt Name="rotateStepNinety" Value="0" />
      </BoundProperties>
    </ImageClip>
    <ImageClip extentID="1285" gapBefore="0" mediaItemID="121" duration="0.029999999999999999">
      <Effects />
      <Transitions />
      <BoundProperties>
        <BoundPropertyInt Name="rotateStepNinety" Value="0" />
      </BoundProperties>
    </ImageClip>
    <ImageClip extentID="1449" gapBefore="0" mediaItemID="285" duration="0.029999999999999999">
      <Effects />
      <Transitions />
      <BoundProperties>
        <BoundPropertyInt Name="rotateStepNinety" Value="0" />
      </BoundProperties>
    </ImageClip>
    <ImageClip extentID="1450" gapBefore="0" mediaItemID="286" duration="0.029999999999999999">
      <Effects />
      <Transitions />
      <BoundProperties>
        <BoundPropertyInt Name="rotateStepNinety" Value="0" />
      </BoundProperties>
    </ImageClip>
    <ImageClip extentID="1451" gapBefore="0" mediaItemID="287" duration="0.029999999999999999">
      <Effects />
      <Transitions />
      <BoundProperties>
        <BoundPropertyInt Name="rotateStepNinety" Value="0" />
      </BoundProperties>
    </ImageClip>
    <ImageClip extentID="1288" gapBefore="0" mediaItemID="124" duration="0.029999999999999999">
      <Effects />
      <Transitions />
      <BoundProperties>
        <BoundPropertyInt Name="rotateStepNinety" Value="0" />
      </BoundProperties>
    </ImageClip>
    <ImageClip extentID="1452" gapBefore="0" mediaItemID="288" duration="0.029999999999999999">
      <Effects />
      <Transitions />
      <BoundProperties>
        <BoundPropertyInt Name="rotateStepNinety" Value="0" />
      </BoundProperties>
    </ImageClip>
    <ImageClip extentID="1289" gapBefore="0" mediaItemID="125" duration="0.029999999999999999">
      <Effects />
      <Transitions />
      <BoundProperties>
        <BoundPropertyInt Name="rotateStepNinety" Value="0" />
      </BoundProperties>
    </ImageClip>
    <ImageClip extentID="1453" gapBefore="0" mediaItemID="289" duration="0.029999999999999999">
      <Effects />
      <Transitions />
      <BoundProperties>
        <BoundPropertyInt Name="rotateStepNinety" Value="0" />
      </BoundProperties>
    </ImageClip>
    <ImageClip extentID="1290" gapBefore="0" mediaItemID="126" duration="0.029999999999999999">
      <Effects />
      <Transitions />
      <BoundProperties>
        <BoundPropertyInt Name="rotateStepNinety" Value="0" />
      </BoundProperties>
    </ImageClip>
    <ImageClip extentID="1454" gapBefore="0" mediaItemID="290" duration="0.029999999999999999">
      <Effects />
      <Transitions />
      <BoundProperties>
        <BoundPropertyInt Name="rotateStepNinety" Value="0" />
      </BoundProperties>
    </ImageClip>
    <ImageClip extentID="1291" gapBefore="0" mediaItemID="127" duration="0.029999999999999999">
      <Effects />
      <Transitions />
      <BoundProperties>
        <BoundPropertyInt Name="rotateStepNinety" Value="0" />
      </BoundProperties>
    </ImageClip>
    <ImageClip extentID="1455" gapBefore="0" mediaItemID="291" duration="0.029999999999999999">
      <Effects />
      <Transitions />
      <BoundProperties>
        <BoundPropertyInt Name="rotateStepNinety" Value="0" />
      </BoundProperties>
    </ImageClip>
    <ImageClip extentID="1292" gapBefore="0" mediaItemID="128" duration="0.029999999999999999">
      <Effects />
      <Transitions />
      <BoundProperties>
        <BoundPropertyInt Name="rotateStepNinety" Value="0" />
      </BoundProperties>
    </ImageClip>
    <ImageClip extentID="1456" gapBefore="0" mediaItemID="292" duration="0.029999999999999999">
      <Effects />
      <Transitions />
      <BoundProperties>
        <BoundPropertyInt Name="rotateStepNinety" Value="0" />
      </BoundProperties>
    </ImageClip>
    <ImageClip extentID="1293" gapBefore="0" mediaItemID="129" duration="0.029999999999999999">
      <Effects />
      <Transitions />
      <BoundProperties>
        <BoundPropertyInt Name="rotateStepNinety" Value="0" />
      </BoundProperties>
    </ImageClip>
    <ImageClip extentID="1457" gapBefore="0" mediaItemID="293" duration="0.029999999999999999">
      <Effects />
      <Transitions />
      <BoundProperties>
        <BoundPropertyInt Name="rotateStepNinety" Value="0" />
      </BoundProperties>
    </ImageClip>
    <ImageClip extentID="1294" gapBefore="0" mediaItemID="130" duration="0.029999999999999999">
      <Effects />
      <Transitions />
      <BoundProperties>
        <BoundPropertyInt Name="rotateStepNinety" Value="0" />
      </BoundProperties>
    </ImageClip>
    <ImageClip extentID="1458" gapBefore="0" mediaItemID="294" duration="0.029999999999999999">
      <Effects />
      <Transitions />
      <BoundProperties>
        <BoundPropertyInt Name="rotateStepNinety" Value="0" />
      </BoundProperties>
    </ImageClip>
    <ImageClip extentID="1295" gapBefore="0" mediaItemID="131" duration="0.029999999999999999">
      <Effects />
      <Transitions />
      <BoundProperties>
        <BoundPropertyInt Name="rotateStepNinety" Value="0" />
      </BoundProperties>
    </ImageClip>
    <ImageClip extentID="1459" gapBefore="0" mediaItemID="295" duration="0.029999999999999999">
      <Effects />
      <Transitions />
      <BoundProperties>
        <BoundPropertyInt Name="rotateStepNinety" Value="0" />
      </BoundProperties>
    </ImageClip>
    <ImageClip extentID="1296" gapBefore="0" mediaItemID="132" duration="0.029999999999999999">
      <Effects />
      <Transitions />
      <BoundProperties>
        <BoundPropertyInt Name="rotateStepNinety" Value="0" />
      </BoundProperties>
    </ImageClip>
    <ImageClip extentID="1460" gapBefore="0" mediaItemID="296" duration="0.029999999999999999">
      <Effects />
      <Transitions />
      <BoundProperties>
        <BoundPropertyInt Name="rotateStepNinety" Value="0" />
      </BoundProperties>
    </ImageClip>
    <ImageClip extentID="1297" gapBefore="0" mediaItemID="133" duration="0.029999999999999999">
      <Effects />
      <Transitions />
      <BoundProperties>
        <BoundPropertyInt Name="rotateStepNinety" Value="0" />
      </BoundProperties>
    </ImageClip>
    <ImageClip extentID="1461" gapBefore="0" mediaItemID="297" duration="0.029999999999999999">
      <Effects />
      <Transitions />
      <BoundProperties>
        <BoundPropertyInt Name="rotateStepNinety" Value="0" />
      </BoundProperties>
    </ImageClip>
    <ImageClip extentID="1298" gapBefore="0" mediaItemID="134" duration="0.029999999999999999">
      <Effects />
      <Transitions />
      <BoundProperties>
        <BoundPropertyInt Name="rotateStepNinety" Value="0" />
      </BoundProperties>
    </ImageClip>
    <ImageClip extentID="1462" gapBefore="0" mediaItemID="298" duration="0.029999999999999999">
      <Effects />
      <Transitions />
      <BoundProperties>
        <BoundPropertyInt Name="rotateStepNinety" Value="0" />
      </BoundProperties>
    </ImageClip>
    <ImageClip extentID="1299" gapBefore="0" mediaItemID="135" duration="0.029999999999999999">
      <Effects />
      <Transitions />
      <BoundProperties>
        <BoundPropertyInt Name="rotateStepNinety" Value="0" />
      </BoundProperties>
    </ImageClip>
    <ImageClip extentID="1463" gapBefore="0" mediaItemID="299" duration="0.029999999999999999">
      <Effects />
      <Transitions />
      <BoundProperties>
        <BoundPropertyInt Name="rotateStepNinety" Value="0" />
      </BoundProperties>
    </ImageClip>
    <ImageClip extentID="1300" gapBefore="0" mediaItemID="136" duration="0.029999999999999999">
      <Effects />
      <Transitions />
      <BoundProperties>
        <BoundPropertyInt Name="rotateStepNinety" Value="0" />
      </BoundProperties>
    </ImageClip>
    <ImageClip extentID="1464" gapBefore="0" mediaItemID="300" duration="0.029999999999999999">
      <Effects />
      <Transitions />
      <BoundProperties>
        <BoundPropertyInt Name="rotateStepNinety" Value="0" />
      </BoundProperties>
    </ImageClip>
    <ImageClip extentID="1301" gapBefore="0" mediaItemID="137" duration="0.029999999999999999">
      <Effects />
      <Transitions />
      <BoundProperties>
        <BoundPropertyInt Name="rotateStepNinety" Value="0" />
      </BoundProperties>
    </ImageClip>
    <ImageClip extentID="1465" gapBefore="0" mediaItemID="301" duration="0.029999999999999999">
      <Effects />
      <Transitions />
      <BoundProperties>
        <BoundPropertyInt Name="rotateStepNinety" Value="0" />
      </BoundProperties>
    </ImageClip>
    <ImageClip extentID="1302" gapBefore="0" mediaItemID="138" duration="0.029999999999999999">
      <Effects />
      <Transitions />
      <BoundProperties>
        <BoundPropertyInt Name="rotateStepNinety" Value="0" />
      </BoundProperties>
    </ImageClip>
    <ImageClip extentID="1466" gapBefore="0" mediaItemID="302" duration="0.029999999999999999">
      <Effects />
      <Transitions />
      <BoundProperties>
        <BoundPropertyInt Name="rotateStepNinety" Value="0" />
      </BoundProperties>
    </ImageClip>
    <ImageClip extentID="1303" gapBefore="0" mediaItemID="139" duration="0.029999999999999999">
      <Effects />
      <Transitions />
      <BoundProperties>
        <BoundPropertyInt Name="rotateStepNinety" Value="0" />
      </BoundProperties>
    </ImageClip>
    <ExtentSelector extentID="1" gapBefore="0" primaryTrack="true">
      <Effects />
      <Transitions />
      <BoundProperties />
      <ExtentRefs>
        <ExtentRef id="1168" />
        <ExtentRef id="1169" />
        <ExtentRef id="1170" />
        <ExtentRef id="1171" />
        <ExtentRef id="1172" />
        <ExtentRef id="1173" />
        <ExtentRef id="1174" />
        <ExtentRef id="1175" />
        <ExtentRef id="1176" />
        <ExtentRef id="1177" />
        <ExtentRef id="1178" />
        <ExtentRef id="1179" />
        <ExtentRef id="1180" />
        <ExtentRef id="1181" />
        <ExtentRef id="1182" />
        <ExtentRef id="1183" />
        <ExtentRef id="1184" />
        <ExtentRef id="1185" />
        <ExtentRef id="1186" />
        <ExtentRef id="1187" />
        <ExtentRef id="1188" />
        <ExtentRef id="1189" />
        <ExtentRef id="1190" />
        <ExtentRef id="1191" />
        <ExtentRef id="1192" />
        <ExtentRef id="1193" />
        <ExtentRef id="1194" />
        <ExtentRef id="1195" />
        <ExtentRef id="1196" />
        <ExtentRef id="1197" />
        <ExtentRef id="1198" />
        <ExtentRef id="1199" />
        <ExtentRef id="1200" />
        <ExtentRef id="1201" />
        <ExtentRef id="1202" />
        <ExtentRef id="1203" />
        <ExtentRef id="1204" />
        <ExtentRef id="1205" />
        <ExtentRef id="1206" />
        <ExtentRef id="1207" />
        <ExtentRef id="1208" />
        <ExtentRef id="1209" />
        <ExtentRef id="1210" />
        <ExtentRef id="1211" />
        <ExtentRef id="1212" />
        <ExtentRef id="1213" />
        <ExtentRef id="1214" />
        <ExtentRef id="1215" />
        <ExtentRef id="1216" />
        <ExtentRef id="1217" />
        <ExtentRef id="1218" />
        <ExtentRef id="1219" />
        <ExtentRef id="1220" />
        <ExtentRef id="1221" />
        <ExtentRef id="1222" />
        <ExtentRef id="1223" />
        <ExtentRef id="1224" />
        <ExtentRef id="1225" />
        <ExtentRef id="1226" />
        <ExtentRef id="1227" />
        <ExtentRef id="1228" />
        <ExtentRef id="1229" />
        <ExtentRef id="1230" />
        <ExtentRef id="1231" />
        <ExtentRef id="1232" />
        <ExtentRef id="1233" />
        <ExtentRef id="1234" />
        <ExtentRef id="1235" />
        <ExtentRef id="1236" />
        <ExtentRef id="1237" />
        <ExtentRef id="1238" />
        <ExtentRef id="1239" />
        <ExtentRef id="1240" />
        <ExtentRef id="1241" />
        <ExtentRef id="1242" />
        <ExtentRef id="1243" />
        <ExtentRef id="1244" />
        <ExtentRef id="1245" />
        <ExtentRef id="1246" />
        <ExtentRef id="1247" />
        <ExtentRef id="1248" />
        <ExtentRef id="1249" />
        <ExtentRef id="1250" />
        <ExtentRef id="1251" />
        <ExtentRef id="1252" />
        <ExtentRef id="1253" />
        <ExtentRef id="1254" />
        <ExtentRef id="1255" />
        <ExtentRef id="1256" />
        <ExtentRef id="1257" />
        <ExtentRef id="1258" />
        <ExtentRef id="1259" />
        <ExtentRef id="1260" />
        <ExtentRef id="1261" />
        <ExtentRef id="1262" />
        <ExtentRef id="1263" />
        <ExtentRef id="1264" />
        <ExtentRef id="1265" />
        <ExtentRef id="1266" />
        <ExtentRef id="1267" />
        <ExtentRef id="1268" />
        <ExtentRef id="1269" />
        <ExtentRef id="1270" />
        <ExtentRef id="1271" />
        <ExtentRef id="1272" />
        <ExtentRef id="1273" />
        <ExtentRef id="1274" />
        <ExtentRef id="1275" />
        <ExtentRef id="1276" />
        <ExtentRef id="1277" />
        <ExtentRef id="1278" />
        <ExtentRef id="1279" />
        <ExtentRef id="1280" />
        <ExtentRef id="1281" />
        <ExtentRef id="1282" />
        <ExtentRef id="1283" />
        <ExtentRef id="1284" />
        <ExtentRef id="1285" />
        <ExtentRef id="1288" />
        <ExtentRef id="1289" />
        <ExtentRef id="1290" />
        <ExtentRef id="1291" />
        <ExtentRef id="1292" />
        <ExtentRef id="1293" />
        <ExtentRef id="1294" />
        <ExtentRef id="1295" />
        <ExtentRef id="1296" />
        <ExtentRef id="1297" />
        <ExtentRef id="1298" />
        <ExtentRef id="1299" />
        <ExtentRef id="1300" />
        <ExtentRef id="1301" />
        <ExtentRef id="1302" />
        <ExtentRef id="1303" />
        <ExtentRef id="1304" />
        <ExtentRef id="1305" />
        <ExtentRef id="1306" />
        <ExtentRef id="1307" />
        <ExtentRef id="1308" />
        <ExtentRef id="1309" />
        <ExtentRef id="1310" />
        <ExtentRef id="1311" />
        <ExtentRef id="1312" />
        <ExtentRef id="1313" />
        <ExtentRef id="1314" />
        <ExtentRef id="1315" />
        <ExtentRef id="1316" />
        <ExtentRef id="1317" />
        <ExtentRef id="1318" />
        <ExtentRef id="1319" />
        <ExtentRef id="1320" />
        <ExtentRef id="1321" />
        <ExtentRef id="1322" />
        <ExtentRef id="1323" />
        <ExtentRef id="1324" />
        <ExtentRef id="1325" />
        <ExtentRef id="1326" />
        <ExtentRef id="1327" />
        <ExtentRef id="1328" />
        <ExtentRef id="1329" />
        <ExtentRef id="1330" />
        <ExtentRef id="1331" />
        <ExtentRef id="1332" />
        <ExtentRef id="1333" />
        <ExtentRef id="1334" />
        <ExtentRef id="1335" />
        <ExtentRef id="1336" />
        <ExtentRef id="1337" />
        <ExtentRef id="1338" />
        <ExtentRef id="1339" />
        <ExtentRef id="1340" />
        <ExtentRef id="1341" />
        <ExtentRef id="1342" />
        <ExtentRef id="1343" />
        <ExtentRef id="1344" />
        <ExtentRef id="1345" />
        <ExtentRef id="1346" />
        <ExtentRef id="1347" />
        <ExtentRef id="1348" />
        <ExtentRef id="1349" />
        <ExtentRef id="1350" />
        <ExtentRef id="1351" />
        <ExtentRef id="1352" />
        <ExtentRef id="1353" />
        <ExtentRef id="1354" />
        <ExtentRef id="1355" />
        <ExtentRef id="1356" />
        <ExtentRef id="1357" />
        <ExtentRef id="1358" />
        <ExtentRef id="1359" />
        <ExtentRef id="1360" />
        <ExtentRef id="1361" />
        <ExtentRef id="1362" />
        <ExtentRef id="1363" />
        <ExtentRef id="1364" />
        <ExtentRef id="1365" />
        <ExtentRef id="1366" />
        <ExtentRef id="1367" />
        <ExtentRef id="1368" />
        <ExtentRef id="1369" />
        <ExtentRef id="1370" />
        <ExtentRef id="1371" />
        <ExtentRef id="1372" />
        <ExtentRef id="1373" />
        <ExtentRef id="1374" />
        <ExtentRef id="1375" />
        <ExtentRef id="1376" />
        <ExtentRef id="1377" />
        <ExtentRef id="1378" />
        <ExtentRef id="1379" />
        <ExtentRef id="1380" />
        <ExtentRef id="1381" />
        <ExtentRef id="1382" />
        <ExtentRef id="1383" />
        <ExtentRef id="1384" />
        <ExtentRef id="1385" />
        <ExtentRef id="1386" />
        <ExtentRef id="1387" />
        <ExtentRef id="1388" />
        <ExtentRef id="1389" />
        <ExtentRef id="1390" />
        <ExtentRef id="1391" />
        <ExtentRef id="1392" />
        <ExtentRef id="1393" />
        <ExtentRef id="1394" />
        <ExtentRef id="1395" />
        <ExtentRef id="1396" />
        <ExtentRef id="1397" />
        <ExtentRef id="1398" />
        <ExtentRef id="1399" />
        <ExtentRef id="1400" />
        <ExtentRef id="1401" />
        <ExtentRef id="1402" />
        <ExtentRef id="1403" />
        <ExtentRef id="1404" />
        <ExtentRef id="1405" />
        <ExtentRef id="1406" />
        <ExtentRef id="1407" />
        <ExtentRef id="1408" />
        <ExtentRef id="1409" />
        <ExtentRef id="1410" />
        <ExtentRef id="1411" />
        <ExtentRef id="1412" />
        <ExtentRef id="1413" />
        <ExtentRef id="1414" />
        <ExtentRef id="1415" />
        <ExtentRef id="1416" />
        <ExtentRef id="1417" />
        <ExtentRef id="1418" />
        <ExtentRef id="1419" />
        <ExtentRef id="1420" />
        <ExtentRef id="1421" />
        <ExtentRef id="1422" />
        <ExtentRef id="1423" />
        <ExtentRef id="1424" />
        <ExtentRef id="1425" />
        <ExtentRef id="1426" />
        <ExtentRef id="1427" />
        <ExtentRef id="1428" />
        <ExtentRef id="1429" />
        <ExtentRef id="1430" />
        <ExtentRef id="1431" />
        <ExtentRef id="1432" />
        <ExtentRef id="1433" />
        <ExtentRef id="1434" />
        <ExtentRef id="1435" />
        <ExtentRef id="1436" />
        <ExtentRef id="1437" />
        <ExtentRef id="1438" />
        <ExtentRef id="1439" />
        <ExtentRef id="1440" />
        <ExtentRef id="1441" />
        <ExtentRef id="1442" />
        <ExtentRef id="1443" />
        <ExtentRef id="1444" />
        <ExtentRef id="1445" />
        <ExtentRef id="1446" />
        <ExtentRef id="1447" />
        <ExtentRef id="1448" />
        <ExtentRef id="1449" />
        <ExtentRef id="1450" />
        <ExtentRef id="1451" />
        <ExtentRef id="1452" />
        <ExtentRef id="1453" />
        <ExtentRef id="1454" />
        <ExtentRef id="1455" />
        <ExtentRef id="1456" />
        <ExtentRef id="1457" />
        <ExtentRef id="1458" />
        <ExtentRef id="1459" />
        <ExtentRef id="1460" />
        <ExtentRef id="1461" />
        <ExtentRef id="1462" />
        <ExtentRef id="1463" />
        <ExtentRef id="1464" />
        <ExtentRef id="1465" />
        <ExtentRef id="1466" />
        <ExtentRef id="1467" />
        <ExtentRef id="1468" />
        <ExtentRef id="1469" />
        <ExtentRef id="1470" />
        <ExtentRef id="1471" />
        <ExtentRef id="1472" />
        <ExtentRef id="1473" />
        <ExtentRef id="1474" />
        <ExtentRef id="1475" />
        <ExtentRef id="1476" />
        <ExtentRef id="1477" />
        <ExtentRef id="1478" />
        <ExtentRef id="1479" />
        <ExtentRef id="1480" />
        <ExtentRef id="1481" />
        <ExtentRef id="1482" />
        <ExtentRef id="1483" />
        <ExtentRef id="1484" />
        <ExtentRef id="1485" />
        <ExtentRef id="1486" />
        <ExtentRef id="1487" />
        <ExtentRef id="1488" />
        <ExtentRef id="1489" />
        <ExtentRef id="1490" />
        <ExtentRef id="1491" />
        <ExtentRef id="1492" />
        <ExtentRef id="1493" />
        <ExtentRef id="1494" />
        <ExtentRef id="1495" />
        <ExtentRef id="1496" />
        <ExtentRef id="1497" />
        <ExtentRef id="1498" />
        <ExtentRef id="1499" />
        <ExtentRef id="1500" />
        <ExtentRef id="1501" />
        <ExtentRef id="1502" />
        <ExtentRef id="1503" />
        <ExtentRef id="1504" />
        <ExtentRef id="1505" />
        <ExtentRef id="1506" />
        <ExtentRef id="1507" />
        <ExtentRef id="1508" />
        <ExtentRef id="1509" />
        <ExtentRef id="1510" />
        <ExtentRef id="1511" />
        <ExtentRef id="1512" />
        <ExtentRef id="1513" />
        <ExtentRef id="1514" />
        <ExtentRef id="1515" />
        <ExtentRef id="1516" />
        <ExtentRef id="1517" />
        <ExtentRef id="1518" />
        <ExtentRef id="1519" />
        <ExtentRef id="1520" />
        <ExtentRef id="1521" />
        <ExtentRef id="1522" />
        <ExtentRef id="1523" />
        <ExtentRef id="1524" />
        <ExtentRef id="1525" />
      </ExtentRefs>
    </ExtentSelector>
    <ExtentSelector extentID="2" gapBefore="0" primaryTrack="false">
      <Effects />
      <Transitions />
      <BoundProperties />
      <ExtentRefs />
    </ExtentSelector>
    <ExtentSelector extentID="3" gapBefore="0" primaryTrack="false">
      <Effects />
      <Transitions />
      <BoundProperties />
      <ExtentRefs />
    </ExtentSelector>
    <ExtentSelector extentID="4" gapBefore="0" primaryTrack="false">
      <Effects />
      <Transitions />
      <BoundProperties />
      <ExtentRefs />
    </ExtentSelector>
  </Extents>
  <BoundPlaceholders>
    <BoundPlaceholder placeholderID="SingleExtentView" extentID="0" />
    <BoundPlaceholder placeholderID="Main" extentID="1" />
    <BoundPlaceholder placeholderID="SoundTrack" extentID="2" />
    <BoundPlaceholder placeholderID="Text" extentID="4" />
    <BoundPlaceholder placeholderID="Narration" extentID="3" />
  </BoundPlaceholders>
  <BoundProperties>
    <BoundPropertyFloatSet Name="AspectRatio">
      <BoundPropertyFloatElement Value="1.7777776718139648" />
    </BoundPropertyFloatSet>
    <BoundPropertyFloat Name="DuckedNarrationAndSoundTrackMix" Value="0.5" />
    <BoundPropertyFloat Name="DuckedVideoAndNarrationMix" Value="0.5" />
    <BoundPropertyFloat Name="DuckedVideoAndSoundTrackMix" Value="0.5" />
    <BoundPropertyFloat Name="SoundTrackMix" Value="0.5" />
  </BoundProperties>
  <ThemeOperationLog themeID="0">
    <MonolithicThemeOperations />
  </ThemeOperationLog>
  <AudioDuckingProperties emphasisPlaceholderID="Narration" />
</Project>