<?xml version="1.0" encoding="utf-8"?>
<Project name="HA_12_2_2015" themeId="0" version="65540" templateID="SimpleProjectTemplate">
  <MediaItems>
    <MediaItem id="1" filePath="F:\Art_and_Design\HolidayAnimation2015\Jars+Kitchen+Logos\HolidayAnimation2015\Renders\0007.png" arWidth="960" arHeight="540" duration="0" songTitle="" songArtist="" songAlbum="" songCopyrightUrl="" songArtistUrl="" songAudioFileUrl="" stabilizationMode="0" mediaItemType="2" />
    <MediaItem id="2" filePath="F:\Art_and_Design\HolidayAnimation2015\Jars+Kitchen+Logos\HolidayAnimation2015\Renders\0008.png" arWidth="960" arHeight="540" duration="0" songTitle="" songArtist="" songAlbum="" songCopyrightUrl="" songArtistUrl="" songAudioFileUrl="" stabilizationMode="0" mediaItemType="2" />
    <MediaItem id="3" filePath="F:\Art_and_Design\HolidayAnimation2015\Jars+Kitchen+Logos\HolidayAnimation2015\Renders\0009.png" arWidth="960" arHeight="540" duration="0" songTitle="" songArtist="" songAlbum="" songCopyrightUrl="" songArtistUrl="" songAudioFileUrl="" stabilizationMode="0" mediaItemType="2" />
    <MediaItem id="4" filePath="F:\Art_and_Design\HolidayAnimation2015\Jars+Kitchen+Logos\HolidayAnimation2015\Renders\0010.png" arWidth="960" arHeight="540" duration="0" songTitle="" songArtist="" songAlbum="" songCopyrightUrl="" songArtistUrl="" songAudioFileUrl="" stabilizationMode="0" mediaItemType="2" />
    <MediaItem id="5" filePath="F:\Art_and_Design\HolidayAnimation2015\Jars+Kitchen+Logos\HolidayAnimation2015\Renders\0011.png" arWidth="960" arHeight="540" duration="0" songTitle="" songArtist="" songAlbum="" songCopyrightUrl="" songArtistUrl="" songAudioFileUrl="" stabilizationMode="0" mediaItemType="2" />
    <MediaItem id="6" filePath="F:\Art_and_Design\HolidayAnimation2015\Jars+Kitchen+Logos\HolidayAnimation2015\Renders\0012.png" arWidth="960" arHeight="540" duration="0" songTitle="" songArtist="" songAlbum="" songCopyrightUrl="" songArtistUrl="" songAudioFileUrl="" stabilizationMode="0" mediaItemType="2" />
    <MediaItem id="7" filePath="F:\Art_and_Design\HolidayAnimation2015\Jars+Kitchen+Logos\HolidayAnimation2015\Renders\0013.png" arWidth="960" arHeight="540" duration="0" songTitle="" songArtist="" songAlbum="" songCopyrightUrl="" songArtistUrl="" songAudioFileUrl="" stabilizationMode="0" mediaItemType="2" />
    <MediaItem id="8" filePath="F:\Art_and_Design\HolidayAnimation2015\Jars+Kitchen+Logos\HolidayAnimation2015\Renders\0014.png" arWidth="960" arHeight="540" duration="0" songTitle="" songArtist="" songAlbum="" songCopyrightUrl="" songArtistUrl="" songAudioFileUrl="" stabilizationMode="0" mediaItemType="2" />
    <MediaItem id="9" filePath="F:\Art_and_Design\HolidayAnimation2015\Jars+Kitchen+Logos\HolidayAnimation2015\Renders\0015.png" arWidth="960" arHeight="540" duration="0" songTitle="" songArtist="" songAlbum="" songCopyrightUrl="" songArtistUrl="" songAudioFileUrl="" stabilizationMode="0" mediaItemType="2" />
    <MediaItem id="10" filePath="F:\Art_and_Design\HolidayAnimation2015\Jars+Kitchen+Logos\HolidayAnimation2015\Renders\0016.png" arWidth="960" arHeight="540" duration="0" songTitle="" songArtist="" songAlbum="" songCopyrightUrl="" songArtistUrl="" songAudioFileUrl="" stabilizationMode="0" mediaItemType="2" />
    <MediaItem id="11" filePath="F:\Art_and_Design\HolidayAnimation2015\Jars+Kitchen+Logos\HolidayAnimation2015\Renders\0017.png" arWidth="960" arHeight="540" duration="0" songTitle="" songArtist="" songAlbum="" songCopyrightUrl="" songArtistUrl="" songAudioFileUrl="" stabilizationMode="0" mediaItemType="2" />
    <MediaItem id="12" filePath="F:\Art_and_Design\HolidayAnimation2015\Jars+Kitchen+Logos\HolidayAnimation2015\Renders\0018.png" arWidth="960" arHeight="540" duration="0" songTitle="" songArtist="" songAlbum="" songCopyrightUrl="" songArtistUrl="" songAudioFileUrl="" stabilizationMode="0" mediaItemType="2" />
    <MediaItem id="13" filePath="F:\Art_and_Design\HolidayAnimation2015\Jars+Kitchen+Logos\HolidayAnimation2015\Renders\0019.png" arWidth="960" arHeight="540" duration="0" songTitle="" songArtist="" songAlbum="" songCopyrightUrl="" songArtistUrl="" songAudioFileUrl="" stabilizationMode="0" mediaItemType="2" />
    <MediaItem id="14" filePath="F:\Art_and_Design\HolidayAnimation2015\Jars+Kitchen+Logos\HolidayAnimation2015\Renders\0020.png" arWidth="960" arHeight="540" duration="0" songTitle="" songArtist="" songAlbum="" songCopyrightUrl="" songArtistUrl="" songAudioFileUrl="" stabilizationMode="0" mediaItemType="2" />
    <MediaItem id="15" filePath="F:\Art_and_Design\HolidayAnimation2015\Jars+Kitchen+Logos\HolidayAnimation2015\Renders\0021.png" arWidth="960" arHeight="540" duration="0" songTitle="" songArtist="" songAlbum="" songCopyrightUrl="" songArtistUrl="" songAudioFileUrl="" stabilizationMode="0" mediaItemType="2" />
    <MediaItem id="16" filePath="F:\Art_and_Design\HolidayAnimation2015\Jars+Kitchen+Logos\HolidayAnimation2015\Renders\0022.png" arWidth="960" arHeight="540" duration="0" songTitle="" songArtist="" songAlbum="" songCopyrightUrl="" songArtistUrl="" songAudioFileUrl="" stabilizationMode="0" mediaItemType="2" />
    <MediaItem id="17" filePath="F:\Art_and_Design\HolidayAnimation2015\Jars+Kitchen+Logos\HolidayAnimation2015\Renders\0023.png" arWidth="960" arHeight="540" duration="0" songTitle="" songArtist="" songAlbum="" songCopyrightUrl="" songArtistUrl="" songAudioFileUrl="" stabilizationMode="0" mediaItemType="2" />
    <MediaItem id="18" filePath="F:\Art_and_Design\HolidayAnimation2015\Jars+Kitchen+Logos\HolidayAnimation2015\Renders\0024.png" arWidth="960" arHeight="540" duration="0" songTitle="" songArtist="" songAlbum="" songCopyrightUrl="" songArtistUrl="" songAudioFileUrl="" stabilizationMode="0" mediaItemType="2" />
    <MediaItem id="19" filePath="F:\Art_and_Design\HolidayAnimation2015\Jars+Kitchen+Logos\HolidayAnimation2015\Renders\0025.png" arWidth="960" arHeight="540" duration="0" songTitle="" songArtist="" songAlbum="" songCopyrightUrl="" songArtistUrl="" songAudioFileUrl="" stabilizationMode="0" mediaItemType="2" />
    <MediaItem id="20" filePath="F:\Art_and_Design\HolidayAnimation2015\Jars+Kitchen+Logos\HolidayAnimation2015\Renders\0026.png" arWidth="960" arHeight="540" duration="0" songTitle="" songArtist="" songAlbum="" songCopyrightUrl="" songArtistUrl="" songAudioFileUrl="" stabilizationMode="0" mediaItemType="2" />
    <MediaItem id="21" filePath="F:\Art_and_Design\HolidayAnimation2015\Jars+Kitchen+Logos\HolidayAnimation2015\Renders\0027.png" arWidth="960" arHeight="540" duration="0" songTitle="" songArtist="" songAlbum="" songCopyrightUrl="" songArtistUrl="" songAudioFileUrl="" stabilizationMode="0" mediaItemType="2" />
    <MediaItem id="22" filePath="F:\Art_and_Design\HolidayAnimation2015\Jars+Kitchen+Logos\HolidayAnimation2015\Renders\0028.png" arWidth="960" arHeight="540" duration="0" songTitle="" songArtist="" songAlbum="" songCopyrightUrl="" songArtistUrl="" songAudioFileUrl="" stabilizationMode="0" mediaItemType="2" />
    <MediaItem id="23" filePath="F:\Art_and_Design\HolidayAnimation2015\Jars+Kitchen+Logos\HolidayAnimation2015\Renders\0029.png" arWidth="960" arHeight="540" duration="0" songTitle="" songArtist="" songAlbum="" songCopyrightUrl="" songArtistUrl="" songAudioFileUrl="" stabilizationMode="0" mediaItemType="2" />
    <MediaItem id="24" filePath="F:\Art_and_Design\HolidayAnimation2015\Jars+Kitchen+Logos\HolidayAnimation2015\Renders\0030.png" arWidth="960" arHeight="540" duration="0" songTitle="" songArtist="" songAlbum="" songCopyrightUrl="" songArtistUrl="" songAudioFileUrl="" stabilizationMode="0" mediaItemType="2" />
    <MediaItem id="25" filePath="F:\Art_and_Design\HolidayAnimation2015\Jars+Kitchen+Logos\HolidayAnimation2015\Renders\0031.png" arWidth="960" arHeight="540" duration="0" songTitle="" songArtist="" songAlbum="" songCopyrightUrl="" songArtistUrl="" songAudioFileUrl="" stabilizationMode="0" mediaItemType="2" />
    <MediaItem id="26" filePath="F:\Art_and_Design\HolidayAnimation2015\Jars+Kitchen+Logos\HolidayAnimation2015\Renders\0032.png" arWidth="960" arHeight="540" duration="0" songTitle="" songArtist="" songAlbum="" songCopyrightUrl="" songArtistUrl="" songAudioFileUrl="" stabilizationMode="0" mediaItemType="2" />
    <MediaItem id="27" filePath="F:\Art_and_Design\HolidayAnimation2015\Jars+Kitchen+Logos\HolidayAnimation2015\Renders\0033.png" arWidth="960" arHeight="540" duration="0" songTitle="" songArtist="" songAlbum="" songCopyrightUrl="" songArtistUrl="" songAudioFileUrl="" stabilizationMode="0" mediaItemType="2" />
    <MediaItem id="28" filePath="F:\Art_and_Design\HolidayAnimation2015\Jars+Kitchen+Logos\HolidayAnimation2015\Renders\0034.png" arWidth="960" arHeight="540" duration="0" songTitle="" songArtist="" songAlbum="" songCopyrightUrl="" songArtistUrl="" songAudioFileUrl="" stabilizationMode="0" mediaItemType="2" />
    <MediaItem id="29" filePath="F:\Art_and_Design\HolidayAnimation2015\Jars+Kitchen+Logos\HolidayAnimation2015\Renders\0035.png" arWidth="960" arHeight="540" duration="0" songTitle="" songArtist="" songAlbum="" songCopyrightUrl="" songArtistUrl="" songAudioFileUrl="" stabilizationMode="0" mediaItemType="2" />
    <MediaItem id="30" filePath="F:\Art_and_Design\HolidayAnimation2015\Jars+Kitchen+Logos\HolidayAnimation2015\Renders\0036.png" arWidth="960" arHeight="540" duration="0" songTitle="" songArtist="" songAlbum="" songCopyrightUrl="" songArtistUrl="" songAudioFileUrl="" stabilizationMode="0" mediaItemType="2" />
    <MediaItem id="31" filePath="F:\Art_and_Design\HolidayAnimation2015\Jars+Kitchen+Logos\HolidayAnimation2015\Renders\0037.png" arWidth="960" arHeight="540" duration="0" songTitle="" songArtist="" songAlbum="" songCopyrightUrl="" songArtistUrl="" songAudioFileUrl="" stabilizationMode="0" mediaItemType="2" />
    <MediaItem id="32" filePath="F:\Art_and_Design\HolidayAnimation2015\Jars+Kitchen+Logos\HolidayAnimation2015\Renders\0038.png" arWidth="960" arHeight="540" duration="0" songTitle="" songArtist="" songAlbum="" songCopyrightUrl="" songArtistUrl="" songAudioFileUrl="" stabilizationMode="0" mediaItemType="2" />
    <MediaItem id="33" filePath="F:\Art_and_Design\HolidayAnimation2015\Jars+Kitchen+Logos\HolidayAnimation2015\Renders\0039.png" arWidth="960" arHeight="540" duration="0" songTitle="" songArtist="" songAlbum="" songCopyrightUrl="" songArtistUrl="" songAudioFileUrl="" stabilizationMode="0" mediaItemType="2" />
    <MediaItem id="34" filePath="F:\Art_and_Design\HolidayAnimation2015\Jars+Kitchen+Logos\HolidayAnimation2015\Renders\0040.png" arWidth="960" arHeight="540" duration="0" songTitle="" songArtist="" songAlbum="" songCopyrightUrl="" songArtistUrl="" songAudioFileUrl="" stabilizationMode="0" mediaItemType="2" />
    <MediaItem id="35" filePath="F:\Art_and_Design\HolidayAnimation2015\Jars+Kitchen+Logos\HolidayAnimation2015\Renders\0041.png" arWidth="960" arHeight="540" duration="0" songTitle="" songArtist="" songAlbum="" songCopyrightUrl="" songArtistUrl="" songAudioFileUrl="" stabilizationMode="0" mediaItemType="2" />
    <MediaItem id="36" filePath="F:\Art_and_Design\HolidayAnimation2015\Jars+Kitchen+Logos\HolidayAnimation2015\Renders\0042.png" arWidth="960" arHeight="540" duration="0" songTitle="" songArtist="" songAlbum="" songCopyrightUrl="" songArtistUrl="" songAudioFileUrl="" stabilizationMode="0" mediaItemType="2" />
    <MediaItem id="37" filePath="F:\Art_and_Design\HolidayAnimation2015\Jars+Kitchen+Logos\HolidayAnimation2015\Renders\0043.png" arWidth="960" arHeight="540" duration="0" songTitle="" songArtist="" songAlbum="" songCopyrightUrl="" songArtistUrl="" songAudioFileUrl="" stabilizationMode="0" mediaItemType="2" />
    <MediaItem id="38" filePath="F:\Art_and_Design\HolidayAnimation2015\Jars+Kitchen+Logos\HolidayAnimation2015\Renders\0044.png" arWidth="960" arHeight="540" duration="0" songTitle="" songArtist="" songAlbum="" songCopyrightUrl="" songArtistUrl="" songAudioFileUrl="" stabilizationMode="0" mediaItemType="2" />
    <MediaItem id="39" filePath="F:\Art_and_Design\HolidayAnimation2015\Jars+Kitchen+Logos\HolidayAnimation2015\Renders\0045.png" arWidth="960" arHeight="540" duration="0" songTitle="" songArtist="" songAlbum="" songCopyrightUrl="" songArtistUrl="" songAudioFileUrl="" stabilizationMode="0" mediaItemType="2" />
    <MediaItem id="40" filePath="F:\Art_and_Design\HolidayAnimation2015\Jars+Kitchen+Logos\HolidayAnimation2015\Renders\0046.png" arWidth="960" arHeight="540" duration="0" songTitle="" songArtist="" songAlbum="" songCopyrightUrl="" songArtistUrl="" songAudioFileUrl="" stabilizationMode="0" mediaItemType="2" />
    <MediaItem id="41" filePath="F:\Art_and_Design\HolidayAnimation2015\Jars+Kitchen+Logos\HolidayAnimation2015\Renders\0047.png" arWidth="960" arHeight="540" duration="0" songTitle="" songArtist="" songAlbum="" songCopyrightUrl="" songArtistUrl="" songAudioFileUrl="" stabilizationMode="0" mediaItemType="2" />
    <MediaItem id="42" filePath="F:\Art_and_Design\HolidayAnimation2015\Jars+Kitchen+Logos\HolidayAnimation2015\Renders\0048.png" arWidth="960" arHeight="540" duration="0" songTitle="" songArtist="" songAlbum="" songCopyrightUrl="" songArtistUrl="" songAudioFileUrl="" stabilizationMode="0" mediaItemType="2" />
    <MediaItem id="43" filePath="F:\Art_and_Design\HolidayAnimation2015\Jars+Kitchen+Logos\HolidayAnimation2015\Renders\0049.png" arWidth="960" arHeight="540" duration="0" songTitle="" songArtist="" songAlbum="" songCopyrightUrl="" songArtistUrl="" songAudioFileUrl="" stabilizationMode="0" mediaItemType="2" />
    <MediaItem id="44" filePath="F:\Art_and_Design\HolidayAnimation2015\Jars+Kitchen+Logos\HolidayAnimation2015\Renders\0050.png" arWidth="960" arHeight="540" duration="0" songTitle="" songArtist="" songAlbum="" songCopyrightUrl="" songArtistUrl="" songAudioFileUrl="" stabilizationMode="0" mediaItemType="2" />
    <MediaItem id="45" filePath="F:\Art_and_Design\HolidayAnimation2015\Jars+Kitchen+Logos\HolidayAnimation2015\Renders\0051.png" arWidth="960" arHeight="540" duration="0" songTitle="" songArtist="" songAlbum="" songCopyrightUrl="" songArtistUrl="" songAudioFileUrl="" stabilizationMode="0" mediaItemType="2" />
    <MediaItem id="46" filePath="F:\Art_and_Design\HolidayAnimation2015\Jars+Kitchen+Logos\HolidayAnimation2015\Renders\0052.png" arWidth="960" arHeight="540" duration="0" songTitle="" songArtist="" songAlbum="" songCopyrightUrl="" songArtistUrl="" songAudioFileUrl="" stabilizationMode="0" mediaItemType="2" />
    <MediaItem id="47" filePath="F:\Art_and_Design\HolidayAnimation2015\Jars+Kitchen+Logos\HolidayAnimation2015\Renders\0053.png" arWidth="960" arHeight="540" duration="0" songTitle="" songArtist="" songAlbum="" songCopyrightUrl="" songArtistUrl="" songAudioFileUrl="" stabilizationMode="0" mediaItemType="2" />
    <MediaItem id="48" filePath="F:\Art_and_Design\HolidayAnimation2015\Jars+Kitchen+Logos\HolidayAnimation2015\Renders\0054.png" arWidth="960" arHeight="540" duration="0" songTitle="" songArtist="" songAlbum="" songCopyrightUrl="" songArtistUrl="" songAudioFileUrl="" stabilizationMode="0" mediaItemType="2" />
    <MediaItem id="49" filePath="F:\Art_and_Design\HolidayAnimation2015\Jars+Kitchen+Logos\HolidayAnimation2015\Renders\0055.png" arWidth="960" arHeight="540" duration="0" songTitle="" songArtist="" songAlbum="" songCopyrightUrl="" songArtistUrl="" songAudioFileUrl="" stabilizationMode="0" mediaItemType="2" />
    <MediaItem id="50" filePath="F:\Art_and_Design\HolidayAnimation2015\Jars+Kitchen+Logos\HolidayAnimation2015\Renders\0056.png" arWidth="960" arHeight="540" duration="0" songTitle="" songArtist="" songAlbum="" songCopyrightUrl="" songArtistUrl="" songAudioFileUrl="" stabilizationMode="0" mediaItemType="2" />
    <MediaItem id="51" filePath="F:\Art_and_Design\HolidayAnimation2015\Jars+Kitchen+Logos\HolidayAnimation2015\Renders\0057.png" arWidth="960" arHeight="540" duration="0" songTitle="" songArtist="" songAlbum="" songCopyrightUrl="" songArtistUrl="" songAudioFileUrl="" stabilizationMode="0" mediaItemType="2" />
    <MediaItem id="52" filePath="F:\Art_and_Design\HolidayAnimation2015\Jars+Kitchen+Logos\HolidayAnimation2015\Renders\0058.png" arWidth="960" arHeight="540" duration="0" songTitle="" songArtist="" songAlbum="" songCopyrightUrl="" songArtistUrl="" songAudioFileUrl="" stabilizationMode="0" mediaItemType="2" />
    <MediaItem id="53" filePath="F:\Art_and_Design\HolidayAnimation2015\Jars+Kitchen+Logos\HolidayAnimation2015\Renders\0059.png" arWidth="960" arHeight="540" duration="0" songTitle="" songArtist="" songAlbum="" songCopyrightUrl="" songArtistUrl="" songAudioFileUrl="" stabilizationMode="0" mediaItemType="2" />
    <MediaItem id="54" filePath="F:\Art_and_Design\HolidayAnimation2015\Jars+Kitchen+Logos\HolidayAnimation2015\Renders\0060.png" arWidth="960" arHeight="540" duration="0" songTitle="" songArtist="" songAlbum="" songCopyrightUrl="" songArtistUrl="" songAudioFileUrl="" stabilizationMode="0" mediaItemType="2" />
    <MediaItem id="55" filePath="F:\Art_and_Design\HolidayAnimation2015\Jars+Kitchen+Logos\HolidayAnimation2015\Renders\0061.png" arWidth="960" arHeight="540" duration="0" songTitle="" songArtist="" songAlbum="" songCopyrightUrl="" songArtistUrl="" songAudioFileUrl="" stabilizationMode="0" mediaItemType="2" />
    <MediaItem id="56" filePath="F:\Art_and_Design\HolidayAnimation2015\Jars+Kitchen+Logos\HolidayAnimation2015\Renders\0062.png" arWidth="960" arHeight="540" duration="0" songTitle="" songArtist="" songAlbum="" songCopyrightUrl="" songArtistUrl="" songAudioFileUrl="" stabilizationMode="0" mediaItemType="2" />
    <MediaItem id="57" filePath="F:\Art_and_Design\HolidayAnimation2015\Jars+Kitchen+Logos\HolidayAnimation2015\Renders\0063.png" arWidth="960" arHeight="540" duration="0" songTitle="" songArtist="" songAlbum="" songCopyrightUrl="" songArtistUrl="" songAudioFileUrl="" stabilizationMode="0" mediaItemType="2" />
    <MediaItem id="58" filePath="F:\Art_and_Design\HolidayAnimation2015\Jars+Kitchen+Logos\HolidayAnimation2015\Renders\0064.png" arWidth="960" arHeight="540" duration="0" songTitle="" songArtist="" songAlbum="" songCopyrightUrl="" songArtistUrl="" songAudioFileUrl="" stabilizationMode="0" mediaItemType="2" />
    <MediaItem id="59" filePath="F:\Art_and_Design\HolidayAnimation2015\Jars+Kitchen+Logos\HolidayAnimation2015\Renders\0065.png" arWidth="960" arHeight="540" duration="0" songTitle="" songArtist="" songAlbum="" songCopyrightUrl="" songArtistUrl="" songAudioFileUrl="" stabilizationMode="0" mediaItemType="2" />
    <MediaItem id="60" filePath="F:\Art_and_Design\HolidayAnimation2015\Jars+Kitchen+Logos\HolidayAnimation2015\Renders\0066.png" arWidth="960" arHeight="540" duration="0" songTitle="" songArtist="" songAlbum="" songCopyrightUrl="" songArtistUrl="" songAudioFileUrl="" stabilizationMode="0" mediaItemType="2" />
    <MediaItem id="61" filePath="F:\Art_and_Design\HolidayAnimation2015\Jars+Kitchen+Logos\HolidayAnimation2015\Renders\0067.png" arWidth="960" arHeight="540" duration="0" songTitle="" songArtist="" songAlbum="" songCopyrightUrl="" songArtistUrl="" songAudioFileUrl="" stabilizationMode="0" mediaItemType="2" />
    <MediaItem id="62" filePath="F:\Art_and_Design\HolidayAnimation2015\Jars+Kitchen+Logos\HolidayAnimation2015\Renders\0068.png" arWidth="960" arHeight="540" duration="0" songTitle="" songArtist="" songAlbum="" songCopyrightUrl="" songArtistUrl="" songAudioFileUrl="" stabilizationMode="0" mediaItemType="2" />
    <MediaItem id="63" filePath="F:\Art_and_Design\HolidayAnimation2015\Jars+Kitchen+Logos\HolidayAnimation2015\Renders\0069.png" arWidth="960" arHeight="540" duration="0" songTitle="" songArtist="" songAlbum="" songCopyrightUrl="" songArtistUrl="" songAudioFileUrl="" stabilizationMode="0" mediaItemType="2" />
    <MediaItem id="64" filePath="F:\Art_and_Design\HolidayAnimation2015\Jars+Kitchen+Logos\HolidayAnimation2015\Renders\0070.png" arWidth="960" arHeight="540" duration="0" songTitle="" songArtist="" songAlbum="" songCopyrightUrl="" songArtistUrl="" songAudioFileUrl="" stabilizationMode="0" mediaItemType="2" />
    <MediaItem id="65" filePath="F:\Art_and_Design\HolidayAnimation2015\Jars+Kitchen+Logos\HolidayAnimation2015\Renders\0071.png" arWidth="960" arHeight="540" duration="0" songTitle="" songArtist="" songAlbum="" songCopyrightUrl="" songArtistUrl="" songAudioFileUrl="" stabilizationMode="0" mediaItemType="2" />
    <MediaItem id="66" filePath="F:\Art_and_Design\HolidayAnimation2015\Jars+Kitchen+Logos\HolidayAnimation2015\Renders\0072.png" arWidth="960" arHeight="540" duration="0" songTitle="" songArtist="" songAlbum="" songCopyrightUrl="" songArtistUrl="" songAudioFileUrl="" stabilizationMode="0" mediaItemType="2" />
    <MediaItem id="67" filePath="F:\Art_and_Design\HolidayAnimation2015\Jars+Kitchen+Logos\HolidayAnimation2015\Renders\0073.png" arWidth="960" arHeight="540" duration="0" songTitle="" songArtist="" songAlbum="" songCopyrightUrl="" songArtistUrl="" songAudioFileUrl="" stabilizationMode="0" mediaItemType="2" />
    <MediaItem id="68" filePath="F:\Art_and_Design\HolidayAnimation2015\Jars+Kitchen+Logos\HolidayAnimation2015\Renders\0074.png" arWidth="960" arHeight="540" duration="0" songTitle="" songArtist="" songAlbum="" songCopyrightUrl="" songArtistUrl="" songAudioFileUrl="" stabilizationMode="0" mediaItemType="2" />
    <MediaItem id="69" filePath="F:\Art_and_Design\HolidayAnimation2015\Jars+Kitchen+Logos\HolidayAnimation2015\Renders\0075.png" arWidth="960" arHeight="540" duration="0" songTitle="" songArtist="" songAlbum="" songCopyrightUrl="" songArtistUrl="" songAudioFileUrl="" stabilizationMode="0" mediaItemType="2" />
    <MediaItem id="70" filePath="F:\Art_and_Design\HolidayAnimation2015\Jars+Kitchen+Logos\HolidayAnimation2015\Renders\0076.png" arWidth="960" arHeight="540" duration="0" songTitle="" songArtist="" songAlbum="" songCopyrightUrl="" songArtistUrl="" songAudioFileUrl="" stabilizationMode="0" mediaItemType="2" />
    <MediaItem id="71" filePath="F:\Art_and_Design\HolidayAnimation2015\Jars+Kitchen+Logos\HolidayAnimation2015\Renders\0077.png" arWidth="960" arHeight="540" duration="0" songTitle="" songArtist="" songAlbum="" songCopyrightUrl="" songArtistUrl="" songAudioFileUrl="" stabilizationMode="0" mediaItemType="2" />
    <MediaItem id="72" filePath="F:\Art_and_Design\HolidayAnimation2015\Jars+Kitchen+Logos\HolidayAnimation2015\Renders\0078.png" arWidth="960" arHeight="540" duration="0" songTitle="" songArtist="" songAlbum="" songCopyrightUrl="" songArtistUrl="" songAudioFileUrl="" stabilizationMode="0" mediaItemType="2" />
    <MediaItem id="73" filePath="F:\Art_and_Design\HolidayAnimation2015\Jars+Kitchen+Logos\HolidayAnimation2015\Renders\0079.png" arWidth="960" arHeight="540" duration="0" songTitle="" songArtist="" songAlbum="" songCopyrightUrl="" songArtistUrl="" songAudioFileUrl="" stabilizationMode="0" mediaItemType="2" />
    <MediaItem id="74" filePath="F:\Art_and_Design\HolidayAnimation2015\Jars+Kitchen+Logos\HolidayAnimation2015\Renders\0080.png" arWidth="960" arHeight="540" duration="0" songTitle="" songArtist="" songAlbum="" songCopyrightUrl="" songArtistUrl="" songAudioFileUrl="" stabilizationMode="0" mediaItemType="2" />
    <MediaItem id="75" filePath="F:\Art_and_Design\HolidayAnimation2015\Jars+Kitchen+Logos\HolidayAnimation2015\Renders\0081.png" arWidth="960" arHeight="540" duration="0" songTitle="" songArtist="" songAlbum="" songCopyrightUrl="" songArtistUrl="" songAudioFileUrl="" stabilizationMode="0" mediaItemType="2" />
    <MediaItem id="76" filePath="F:\Art_and_Design\HolidayAnimation2015\Jars+Kitchen+Logos\HolidayAnimation2015\Renders\0082.png" arWidth="960" arHeight="540" duration="0" songTitle="" songArtist="" songAlbum="" songCopyrightUrl="" songArtistUrl="" songAudioFileUrl="" stabilizationMode="0" mediaItemType="2" />
    <MediaItem id="77" filePath="F:\Art_and_Design\HolidayAnimation2015\Jars+Kitchen+Logos\HolidayAnimation2015\Renders\0083.png" arWidth="960" arHeight="540" duration="0" songTitle="" songArtist="" songAlbum="" songCopyrightUrl="" songArtistUrl="" songAudioFileUrl="" stabilizationMode="0" mediaItemType="2" />
    <MediaItem id="78" filePath="F:\Art_and_Design\HolidayAnimation2015\Jars+Kitchen+Logos\HolidayAnimation2015\Renders\0084.png" arWidth="960" arHeight="540" duration="0" songTitle="" songArtist="" songAlbum="" songCopyrightUrl="" songArtistUrl="" songAudioFileUrl="" stabilizationMode="0" mediaItemType="2" />
    <MediaItem id="79" filePath="F:\Art_and_Design\HolidayAnimation2015\Jars+Kitchen+Logos\HolidayAnimation2015\Renders\0085.png" arWidth="960" arHeight="540" duration="0" songTitle="" songArtist="" songAlbum="" songCopyrightUrl="" songArtistUrl="" songAudioFileUrl="" stabilizationMode="0" mediaItemType="2" />
    <MediaItem id="80" filePath="F:\Art_and_Design\HolidayAnimation2015\Jars+Kitchen+Logos\HolidayAnimation2015\Renders\0086.png" arWidth="960" arHeight="540" duration="0" songTitle="" songArtist="" songAlbum="" songCopyrightUrl="" songArtistUrl="" songAudioFileUrl="" stabilizationMode="0" mediaItemType="2" />
    <MediaItem id="81" filePath="F:\Art_and_Design\HolidayAnimation2015\Jars+Kitchen+Logos\HolidayAnimation2015\Renders\0087.png" arWidth="960" arHeight="540" duration="0" songTitle="" songArtist="" songAlbum="" songCopyrightUrl="" songArtistUrl="" songAudioFileUrl="" stabilizationMode="0" mediaItemType="2" />
    <MediaItem id="82" filePath="F:\Art_and_Design\HolidayAnimation2015\Jars+Kitchen+Logos\HolidayAnimation2015\Renders\0088.png" arWidth="960" arHeight="540" duration="0" songTitle="" songArtist="" songAlbum="" songCopyrightUrl="" songArtistUrl="" songAudioFileUrl="" stabilizationMode="0" mediaItemType="2" />
    <MediaItem id="83" filePath="F:\Art_and_Design\HolidayAnimation2015\Jars+Kitchen+Logos\HolidayAnimation2015\Renders\0089.png" arWidth="960" arHeight="540" duration="0" songTitle="" songArtist="" songAlbum="" songCopyrightUrl="" songArtistUrl="" songAudioFileUrl="" stabilizationMode="0" mediaItemType="2" />
    <MediaItem id="84" filePath="F:\Art_and_Design\HolidayAnimation2015\Jars+Kitchen+Logos\HolidayAnimation2015\Renders\0090.png" arWidth="960" arHeight="540" duration="0" songTitle="" songArtist="" songAlbum="" songCopyrightUrl="" songArtistUrl="" songAudioFileUrl="" stabilizationMode="0" mediaItemType="2" />
    <MediaItem id="85" filePath="F:\Art_and_Design\HolidayAnimation2015\Jars+Kitchen+Logos\HolidayAnimation2015\Renders\0091.png" arWidth="960" arHeight="540" duration="0" songTitle="" songArtist="" songAlbum="" songCopyrightUrl="" songArtistUrl="" songAudioFileUrl="" stabilizationMode="0" mediaItemType="2" />
    <MediaItem id="86" filePath="F:\Art_and_Design\HolidayAnimation2015\Jars+Kitchen+Logos\HolidayAnimation2015\Renders\0092.png" arWidth="960" arHeight="540" duration="0" songTitle="" songArtist="" songAlbum="" songCopyrightUrl="" songArtistUrl="" songAudioFileUrl="" stabilizationMode="0" mediaItemType="2" />
    <MediaItem id="87" filePath="F:\Art_and_Design\HolidayAnimation2015\Jars+Kitchen+Logos\HolidayAnimation2015\Renders\0093.png" arWidth="960" arHeight="540" duration="0" songTitle="" songArtist="" songAlbum="" songCopyrightUrl="" songArtistUrl="" songAudioFileUrl="" stabilizationMode="0" mediaItemType="2" />
    <MediaItem id="88" filePath="F:\Art_and_Design\HolidayAnimation2015\Jars+Kitchen+Logos\HolidayAnimation2015\Renders\0094.png" arWidth="960" arHeight="540" duration="0" songTitle="" songArtist="" songAlbum="" songCopyrightUrl="" songArtistUrl="" songAudioFileUrl="" stabilizationMode="0" mediaItemType="2" />
    <MediaItem id="89" filePath="F:\Art_and_Design\HolidayAnimation2015\Jars+Kitchen+Logos\HolidayAnimation2015\Renders\0095.png" arWidth="960" arHeight="540" duration="0" songTitle="" songArtist="" songAlbum="" songCopyrightUrl="" songArtistUrl="" songAudioFileUrl="" stabilizationMode="0" mediaItemType="2" />
    <MediaItem id="90" filePath="F:\Art_and_Design\HolidayAnimation2015\Jars+Kitchen+Logos\HolidayAnimation2015\Renders\0096.png" arWidth="960" arHeight="540" duration="0" songTitle="" songArtist="" songAlbum="" songCopyrightUrl="" songArtistUrl="" songAudioFileUrl="" stabilizationMode="0" mediaItemType="2" />
    <MediaItem id="91" filePath="F:\Art_and_Design\HolidayAnimation2015\Jars+Kitchen+Logos\HolidayAnimation2015\Renders\0097.png" arWidth="960" arHeight="540" duration="0" songTitle="" songArtist="" songAlbum="" songCopyrightUrl="" songArtistUrl="" songAudioFileUrl="" stabilizationMode="0" mediaItemType="2" />
    <MediaItem id="92" filePath="F:\Art_and_Design\HolidayAnimation2015\Jars+Kitchen+Logos\HolidayAnimation2015\Renders\0098.png" arWidth="960" arHeight="540" duration="0" songTitle="" songArtist="" songAlbum="" songCopyrightUrl="" songArtistUrl="" songAudioFileUrl="" stabilizationMode="0" mediaItemType="2" />
    <MediaItem id="93" filePath="F:\Art_and_Design\HolidayAnimation2015\Jars+Kitchen+Logos\HolidayAnimation2015\Renders\0099.png" arWidth="960" arHeight="540" duration="0" songTitle="" songArtist="" songAlbum="" songCopyrightUrl="" songArtistUrl="" songAudioFileUrl="" stabilizationMode="0" mediaItemType="2" />
    <MediaItem id="94" filePath="F:\Art_and_Design\HolidayAnimation2015\Jars+Kitchen+Logos\HolidayAnimation2015\Renders\0100.png" arWidth="960" arHeight="540" duration="0" songTitle="" songArtist="" songAlbum="" songCopyrightUrl="" songArtistUrl="" songAudioFileUrl="" stabilizationMode="0" mediaItemType="2" />
    <MediaItem id="95" filePath="F:\Art_and_Design\HolidayAnimation2015\Jars+Kitchen+Logos\HolidayAnimation2015\Renders\0101.png" arWidth="960" arHeight="540" duration="0" songTitle="" songArtist="" songAlbum="" songCopyrightUrl="" songArtistUrl="" songAudioFileUrl="" stabilizationMode="0" mediaItemType="2" />
    <MediaItem id="96" filePath="F:\Art_and_Design\HolidayAnimation2015\Jars+Kitchen+Logos\HolidayAnimation2015\Renders\0102.png" arWidth="960" arHeight="540" duration="0" songTitle="" songArtist="" songAlbum="" songCopyrightUrl="" songArtistUrl="" songAudioFileUrl="" stabilizationMode="0" mediaItemType="2" />
    <MediaItem id="97" filePath="F:\Art_and_Design\HolidayAnimation2015\Jars+Kitchen+Logos\HolidayAnimation2015\Renders\0103.png" arWidth="960" arHeight="540" duration="0" songTitle="" songArtist="" songAlbum="" songCopyrightUrl="" songArtistUrl="" songAudioFileUrl="" stabilizationMode="0" mediaItemType="2" />
    <MediaItem id="98" filePath="F:\Art_and_Design\HolidayAnimation2015\Jars+Kitchen+Logos\HolidayAnimation2015\Renders\0104.png" arWidth="960" arHeight="540" duration="0" songTitle="" songArtist="" songAlbum="" songCopyrightUrl="" songArtistUrl="" songAudioFileUrl="" stabilizationMode="0" mediaItemType="2" />
    <MediaItem id="99" filePath="F:\Art_and_Design\HolidayAnimation2015\Jars+Kitchen+Logos\HolidayAnimation2015\Renders\0105.png" arWidth="960" arHeight="540" duration="0" songTitle="" songArtist="" songAlbum="" songCopyrightUrl="" songArtistUrl="" songAudioFileUrl="" stabilizationMode="0" mediaItemType="2" />
    <MediaItem id="100" filePath="F:\Art_and_Design\HolidayAnimation2015\Jars+Kitchen+Logos\HolidayAnimation2015\Renders\0106.png" arWidth="960" arHeight="540" duration="0" songTitle="" songArtist="" songAlbum="" songCopyrightUrl="" songArtistUrl="" songAudioFileUrl="" stabilizationMode="0" mediaItemType="2" />
    <MediaItem id="101" filePath="F:\Art_and_Design\HolidayAnimation2015\Jars+Kitchen+Logos\HolidayAnimation2015\Renders\0107.png" arWidth="960" arHeight="540" duration="0" songTitle="" songArtist="" songAlbum="" songCopyrightUrl="" songArtistUrl="" songAudioFileUrl="" stabilizationMode="0" mediaItemType="2" />
    <MediaItem id="102" filePath="F:\Art_and_Design\HolidayAnimation2015\Jars+Kitchen+Logos\HolidayAnimation2015\Renders\0108.png" arWidth="960" arHeight="540" duration="0" songTitle="" songArtist="" songAlbum="" songCopyrightUrl="" songArtistUrl="" songAudioFileUrl="" stabilizationMode="0" mediaItemType="2" />
    <MediaItem id="103" filePath="F:\Art_and_Design\HolidayAnimation2015\Jars+Kitchen+Logos\HolidayAnimation2015\Renders\0109.png" arWidth="960" arHeight="540" duration="0" songTitle="" songArtist="" songAlbum="" songCopyrightUrl="" songArtistUrl="" songAudioFileUrl="" stabilizationMode="0" mediaItemType="2" />
    <MediaItem id="104" filePath="F:\Art_and_Design\HolidayAnimation2015\Jars+Kitchen+Logos\HolidayAnimation2015\Renders\0110.png" arWidth="960" arHeight="540" duration="0" songTitle="" songArtist="" songAlbum="" songCopyrightUrl="" songArtistUrl="" songAudioFileUrl="" stabilizationMode="0" mediaItemType="2" />
    <MediaItem id="105" filePath="F:\Art_and_Design\HolidayAnimation2015\Jars+Kitchen+Logos\HolidayAnimation2015\Renders\0111.png" arWidth="960" arHeight="540" duration="0" songTitle="" songArtist="" songAlbum="" songCopyrightUrl="" songArtistUrl="" songAudioFileUrl="" stabilizationMode="0" mediaItemType="2" />
    <MediaItem id="106" filePath="F:\Art_and_Design\HolidayAnimation2015\Jars+Kitchen+Logos\HolidayAnimation2015\Renders\0112.png" arWidth="960" arHeight="540" duration="0" songTitle="" songArtist="" songAlbum="" songCopyrightUrl="" songArtistUrl="" songAudioFileUrl="" stabilizationMode="0" mediaItemType="2" />
    <MediaItem id="107" filePath="F:\Art_and_Design\HolidayAnimation2015\Jars+Kitchen+Logos\HolidayAnimation2015\Renders\0113.png" arWidth="960" arHeight="540" duration="0" songTitle="" songArtist="" songAlbum="" songCopyrightUrl="" songArtistUrl="" songAudioFileUrl="" stabilizationMode="0" mediaItemType="2" />
    <MediaItem id="108" filePath="F:\Art_and_Design\HolidayAnimation2015\Jars+Kitchen+Logos\HolidayAnimation2015\Renders\0114.png" arWidth="960" arHeight="540" duration="0" songTitle="" songArtist="" songAlbum="" songCopyrightUrl="" songArtistUrl="" songAudioFileUrl="" stabilizationMode="0" mediaItemType="2" />
    <MediaItem id="109" filePath="F:\Art_and_Design\HolidayAnimation2015\Jars+Kitchen+Logos\HolidayAnimation2015\Renders\0115.png" arWidth="960" arHeight="540" duration="0" songTitle="" songArtist="" songAlbum="" songCopyrightUrl="" songArtistUrl="" songAudioFileUrl="" stabilizationMode="0" mediaItemType="2" />
    <MediaItem id="110" filePath="F:\Art_and_Design\HolidayAnimation2015\Jars+Kitchen+Logos\HolidayAnimation2015\Renders\0116.png" arWidth="960" arHeight="540" duration="0" songTitle="" songArtist="" songAlbum="" songCopyrightUrl="" songArtistUrl="" songAudioFileUrl="" stabilizationMode="0" mediaItemType="2" />
    <MediaItem id="111" filePath="F:\Art_and_Design\HolidayAnimation2015\Jars+Kitchen+Logos\HolidayAnimation2015\Renders\0117.png" arWidth="960" arHeight="540" duration="0" songTitle="" songArtist="" songAlbum="" songCopyrightUrl="" songArtistUrl="" songAudioFileUrl="" stabilizationMode="0" mediaItemType="2" />
    <MediaItem id="112" filePath="F:\Art_and_Design\HolidayAnimation2015\Jars+Kitchen+Logos\HolidayAnimation2015\Renders\0118.png" arWidth="960" arHeight="540" duration="0" songTitle="" songArtist="" songAlbum="" songCopyrightUrl="" songArtistUrl="" songAudioFileUrl="" stabilizationMode="0" mediaItemType="2" />
    <MediaItem id="113" filePath="F:\Art_and_Design\HolidayAnimation2015\Jars+Kitchen+Logos\HolidayAnimation2015\Renders\0119.png" arWidth="960" arHeight="540" duration="0" songTitle="" songArtist="" songAlbum="" songCopyrightUrl="" songArtistUrl="" songAudioFileUrl="" stabilizationMode="0" mediaItemType="2" />
    <MediaItem id="114" filePath="F:\Art_and_Design\HolidayAnimation2015\Jars+Kitchen+Logos\HolidayAnimation2015\Renders\0120.png" arWidth="960" arHeight="540" duration="0" songTitle="" songArtist="" songAlbum="" songCopyrightUrl="" songArtistUrl="" songAudioFileUrl="" stabilizationMode="0" mediaItemType="2" />
    <MediaItem id="115" filePath="F:\Art_and_Design\HolidayAnimation2015\Jars+Kitchen+Logos\HolidayAnimation2015\Renders\0121.png" arWidth="960" arHeight="540" duration="0" songTitle="" songArtist="" songAlbum="" songCopyrightUrl="" songArtistUrl="" songAudioFileUrl="" stabilizationMode="0" mediaItemType="2" />
    <MediaItem id="116" filePath="F:\Art_and_Design\HolidayAnimation2015\Jars+Kitchen+Logos\HolidayAnimation2015\Renders\0122.png" arWidth="960" arHeight="540" duration="0" songTitle="" songArtist="" songAlbum="" songCopyrightUrl="" songArtistUrl="" songAudioFileUrl="" stabilizationMode="0" mediaItemType="2" />
    <MediaItem id="117" filePath="F:\Art_and_Design\HolidayAnimation2015\Jars+Kitchen+Logos\HolidayAnimation2015\Renders\0123.png" arWidth="960" arHeight="540" duration="0" songTitle="" songArtist="" songAlbum="" songCopyrightUrl="" songArtistUrl="" songAudioFileUrl="" stabilizationMode="0" mediaItemType="2" />
    <MediaItem id="118" filePath="F:\Art_and_Design\HolidayAnimation2015\Jars+Kitchen+Logos\HolidayAnimation2015\Renders\0124.png" arWidth="960" arHeight="540" duration="0" songTitle="" songArtist="" songAlbum="" songCopyrightUrl="" songArtistUrl="" songAudioFileUrl="" stabilizationMode="0" mediaItemType="2" />
    <MediaItem id="119" filePath="F:\Art_and_Design\HolidayAnimation2015\Jars+Kitchen+Logos\HolidayAnimation2015\Renders\0125.png" arWidth="960" arHeight="540" duration="0" songTitle="" songArtist="" songAlbum="" songCopyrightUrl="" songArtistUrl="" songAudioFileUrl="" stabilizationMode="0" mediaItemType="2" />
    <MediaItem id="120" filePath="F:\Art_and_Design\HolidayAnimation2015\Jars+Kitchen+Logos\HolidayAnimation2015\Renders\0126.png" arWidth="960" arHeight="540" duration="0" songTitle="" songArtist="" songAlbum="" songCopyrightUrl="" songArtistUrl="" songAudioFileUrl="" stabilizationMode="0" mediaItemType="2" />
    <MediaItem id="121" filePath="F:\Art_and_Design\HolidayAnimation2015\Jars+Kitchen+Logos\HolidayAnimation2015\Renders\0127.png" arWidth="960" arHeight="540" duration="0" songTitle="" songArtist="" songAlbum="" songCopyrightUrl="" songArtistUrl="" songAudioFileUrl="" stabilizationMode="0" mediaItemType="2" />
    <MediaItem id="122" filePath="F:\Art_and_Design\HolidayAnimation2015\Jars+Kitchen+Logos\HolidayAnimation2015\Renders\0128.png" arWidth="960" arHeight="540" duration="0" songTitle="" songArtist="" songAlbum="" songCopyrightUrl="" songArtistUrl="" songAudioFileUrl="" stabilizationMode="0" mediaItemType="2" />
    <MediaItem id="123" filePath="F:\Art_and_Design\HolidayAnimation2015\Jars+Kitchen+Logos\HolidayAnimation2015\Renders\0129.png" arWidth="960" arHeight="540" duration="0" songTitle="" songArtist="" songAlbum="" songCopyrightUrl="" songArtistUrl="" songAudioFileUrl="" stabilizationMode="0" mediaItemType="2" />
    <MediaItem id="124" filePath="F:\Art_and_Design\HolidayAnimation2015\Jars+Kitchen+Logos\HolidayAnimation2015\Renders\0130.png" arWidth="960" arHeight="540" duration="0" songTitle="" songArtist="" songAlbum="" songCopyrightUrl="" songArtistUrl="" songAudioFileUrl="" stabilizationMode="0" mediaItemType="2" />
    <MediaItem id="125" filePath="F:\Art_and_Design\HolidayAnimation2015\Jars+Kitchen+Logos\HolidayAnimation2015\Renders\0131.png" arWidth="960" arHeight="540" duration="0" songTitle="" songArtist="" songAlbum="" songCopyrightUrl="" songArtistUrl="" songAudioFileUrl="" stabilizationMode="0" mediaItemType="2" />
    <MediaItem id="126" filePath="F:\Art_and_Design\HolidayAnimation2015\Jars+Kitchen+Logos\HolidayAnimation2015\Renders\0132.png" arWidth="960" arHeight="540" duration="0" songTitle="" songArtist="" songAlbum="" songCopyrightUrl="" songArtistUrl="" songAudioFileUrl="" stabilizationMode="0" mediaItemType="2" />
    <MediaItem id="127" filePath="F:\Art_and_Design\HolidayAnimation2015\Jars+Kitchen+Logos\HolidayAnimation2015\Renders\0133.png" arWidth="960" arHeight="540" duration="0" songTitle="" songArtist="" songAlbum="" songCopyrightUrl="" songArtistUrl="" songAudioFileUrl="" stabilizationMode="0" mediaItemType="2" />
    <MediaItem id="128" filePath="F:\Art_and_Design\HolidayAnimation2015\Jars+Kitchen+Logos\HolidayAnimation2015\Renders\0134.png" arWidth="960" arHeight="540" duration="0" songTitle="" songArtist="" songAlbum="" songCopyrightUrl="" songArtistUrl="" songAudioFileUrl="" stabilizationMode="0" mediaItemType="2" />
    <MediaItem id="129" filePath="F:\Art_and_Design\HolidayAnimation2015\Jars+Kitchen+Logos\HolidayAnimation2015\Renders\0135.png" arWidth="960" arHeight="540" duration="0" songTitle="" songArtist="" songAlbum="" songCopyrightUrl="" songArtistUrl="" songAudioFileUrl="" stabilizationMode="0" mediaItemType="2" />
    <MediaItem id="130" filePath="F:\Art_and_Design\HolidayAnimation2015\Jars+Kitchen+Logos\HolidayAnimation2015\Renders\0136.png" arWidth="960" arHeight="540" duration="0" songTitle="" songArtist="" songAlbum="" songCopyrightUrl="" songArtistUrl="" songAudioFileUrl="" stabilizationMode="0" mediaItemType="2" />
    <MediaItem id="131" filePath="F:\Art_and_Design\HolidayAnimation2015\Jars+Kitchen+Logos\HolidayAnimation2015\Renders\0137.png" arWidth="960" arHeight="540" duration="0" songTitle="" songArtist="" songAlbum="" songCopyrightUrl="" songArtistUrl="" songAudioFileUrl="" stabilizationMode="0" mediaItemType="2" />
    <MediaItem id="132" filePath="F:\Art_and_Design\HolidayAnimation2015\Jars+Kitchen+Logos\HolidayAnimation2015\Renders\0138.png" arWidth="960" arHeight="540" duration="0" songTitle="" songArtist="" songAlbum="" songCopyrightUrl="" songArtistUrl="" songAudioFileUrl="" stabilizationMode="0" mediaItemType="2" />
    <MediaItem id="133" filePath="F:\Art_and_Design\HolidayAnimation2015\Jars+Kitchen+Logos\HolidayAnimation2015\Renders\0139.png" arWidth="960" arHeight="540" duration="0" songTitle="" songArtist="" songAlbum="" songCopyrightUrl="" songArtistUrl="" songAudioFileUrl="" stabilizationMode="0" mediaItemType="2" />
    <MediaItem id="134" filePath="F:\Art_and_Design\HolidayAnimation2015\Jars+Kitchen+Logos\HolidayAnimation2015\Renders\0140.png" arWidth="960" arHeight="540" duration="0" songTitle="" songArtist="" songAlbum="" songCopyrightUrl="" songArtistUrl="" songAudioFileUrl="" stabilizationMode="0" mediaItemType="2" />
    <MediaItem id="135" filePath="F:\Art_and_Design\HolidayAnimation2015\Jars+Kitchen+Logos\HolidayAnimation2015\Renders\0141.png" arWidth="960" arHeight="540" duration="0" songTitle="" songArtist="" songAlbum="" songCopyrightUrl="" songArtistUrl="" songAudioFileUrl="" stabilizationMode="0" mediaItemType="2" />
    <MediaItem id="136" filePath="F:\Art_and_Design\HolidayAnimation2015\Jars+Kitchen+Logos\HolidayAnimation2015\Renders\0142.png" arWidth="960" arHeight="540" duration="0" songTitle="" songArtist="" songAlbum="" songCopyrightUrl="" songArtistUrl="" songAudioFileUrl="" stabilizationMode="0" mediaItemType="2" />
    <MediaItem id="137" filePath="F:\Art_and_Design\HolidayAnimation2015\Jars+Kitchen+Logos\HolidayAnimation2015\Renders\0143.png" arWidth="960" arHeight="540" duration="0" songTitle="" songArtist="" songAlbum="" songCopyrightUrl="" songArtistUrl="" songAudioFileUrl="" stabilizationMode="0" mediaItemType="2" />
    <MediaItem id="138" filePath="F:\Art_and_Design\HolidayAnimation2015\Jars+Kitchen+Logos\HolidayAnimation2015\Renders\0144.png" arWidth="960" arHeight="540" duration="0" songTitle="" songArtist="" songAlbum="" songCopyrightUrl="" songArtistUrl="" songAudioFileUrl="" stabilizationMode="0" mediaItemType="2" />
    <MediaItem id="139" filePath="F:\Art_and_Design\HolidayAnimation2015\Jars+Kitchen+Logos\HolidayAnimation2015\Renders\0145.png" arWidth="960" arHeight="540" duration="0" songTitle="" songArtist="" songAlbum="" songCopyrightUrl="" songArtistUrl="" songAudioFileUrl="" stabilizationMode="0" mediaItemType="2" />
    <MediaItem id="140" filePath="F:\Art_and_Design\HolidayAnimation2015\Jars+Kitchen+Logos\HolidayAnimation2015\Renders\0146.png" arWidth="960" arHeight="540" duration="0" songTitle="" songArtist="" songAlbum="" songCopyrightUrl="" songArtistUrl="" songAudioFileUrl="" stabilizationMode="0" mediaItemType="2" />
    <MediaItem id="141" filePath="F:\Art_and_Design\HolidayAnimation2015\Jars+Kitchen+Logos\HolidayAnimation2015\Renders\0147.png" arWidth="960" arHeight="540" duration="0" songTitle="" songArtist="" songAlbum="" songCopyrightUrl="" songArtistUrl="" songAudioFileUrl="" stabilizationMode="0" mediaItemType="2" />
    <MediaItem id="142" filePath="F:\Art_and_Design\HolidayAnimation2015\Jars+Kitchen+Logos\HolidayAnimation2015\Renders\0148.png" arWidth="960" arHeight="540" duration="0" songTitle="" songArtist="" songAlbum="" songCopyrightUrl="" songArtistUrl="" songAudioFileUrl="" stabilizationMode="0" mediaItemType="2" />
    <MediaItem id="143" filePath="F:\Art_and_Design\HolidayAnimation2015\Jars+Kitchen+Logos\HolidayAnimation2015\Renders\0149.png" arWidth="960" arHeight="540" duration="0" songTitle="" songArtist="" songAlbum="" songCopyrightUrl="" songArtistUrl="" songAudioFileUrl="" stabilizationMode="0" mediaItemType="2" />
    <MediaItem id="144" filePath="F:\Art_and_Design\HolidayAnimation2015\Jars+Kitchen+Logos\HolidayAnimation2015\Renders\0150.png" arWidth="960" arHeight="540" duration="0" songTitle="" songArtist="" songAlbum="" songCopyrightUrl="" songArtistUrl="" songAudioFileUrl="" stabilizationMode="0" mediaItemType="2" />
    <MediaItem id="145" filePath="F:\Art_and_Design\HolidayAnimation2015\Jars+Kitchen+Logos\HolidayAnimation2015\Renders\0151.png" arWidth="960" arHeight="540" duration="0" songTitle="" songArtist="" songAlbum="" songCopyrightUrl="" songArtistUrl="" songAudioFileUrl="" stabilizationMode="0" mediaItemType="2" />
    <MediaItem id="146" filePath="F:\Art_and_Design\HolidayAnimation2015\Jars+Kitchen+Logos\HolidayAnimation2015\Renders\0152.png" arWidth="960" arHeight="540" duration="0" songTitle="" songArtist="" songAlbum="" songCopyrightUrl="" songArtistUrl="" songAudioFileUrl="" stabilizationMode="0" mediaItemType="2" />
    <MediaItem id="147" filePath="F:\Art_and_Design\HolidayAnimation2015\Jars+Kitchen+Logos\HolidayAnimation2015\Renders\0153.png" arWidth="960" arHeight="540" duration="0" songTitle="" songArtist="" songAlbum="" songCopyrightUrl="" songArtistUrl="" songAudioFileUrl="" stabilizationMode="0" mediaItemType="2" />
    <MediaItem id="148" filePath="F:\Art_and_Design\HolidayAnimation2015\Jars+Kitchen+Logos\HolidayAnimation2015\Renders\0154.png" arWidth="960" arHeight="540" duration="0" songTitle="" songArtist="" songAlbum="" songCopyrightUrl="" songArtistUrl="" songAudioFileUrl="" stabilizationMode="0" mediaItemType="2" />
    <MediaItem id="149" filePath="F:\Art_and_Design\HolidayAnimation2015\Jars+Kitchen+Logos\HolidayAnimation2015\Renders\0155.png" arWidth="960" arHeight="540" duration="0" songTitle="" songArtist="" songAlbum="" songCopyrightUrl="" songArtistUrl="" songAudioFileUrl="" stabilizationMode="0" mediaItemType="2" />
    <MediaItem id="150" filePath="F:\Art_and_Design\HolidayAnimation2015\Jars+Kitchen+Logos\HolidayAnimation2015\Renders\0156.png" arWidth="960" arHeight="540" duration="0" songTitle="" songArtist="" songAlbum="" songCopyrightUrl="" songArtistUrl="" songAudioFileUrl="" stabilizationMode="0" mediaItemType="2" />
    <MediaItem id="151" filePath="F:\Art_and_Design\HolidayAnimation2015\Jars+Kitchen+Logos\HolidayAnimation2015\Renders\0157.png" arWidth="960" arHeight="540" duration="0" songTitle="" songArtist="" songAlbum="" songCopyrightUrl="" songArtistUrl="" songAudioFileUrl="" stabilizationMode="0" mediaItemType="2" />
    <MediaItem id="152" filePath="F:\Art_and_Design\HolidayAnimation2015\Jars+Kitchen+Logos\HolidayAnimation2015\Renders\0158.png" arWidth="960" arHeight="540" duration="0" songTitle="" songArtist="" songAlbum="" songCopyrightUrl="" songArtistUrl="" songAudioFileUrl="" stabilizationMode="0" mediaItemType="2" />
    <MediaItem id="153" filePath="F:\Art_and_Design\HolidayAnimation2015\Jars+Kitchen+Logos\HolidayAnimation2015\Renders\0159.png" arWidth="960" arHeight="540" duration="0" songTitle="" songArtist="" songAlbum="" songCopyrightUrl="" songArtistUrl="" songAudioFileUrl="" stabilizationMode="0" mediaItemType="2" />
    <MediaItem id="154" filePath="F:\Art_and_Design\HolidayAnimation2015\Jars+Kitchen+Logos\HolidayAnimation2015\Renders\0160.png" arWidth="960" arHeight="540" duration="0" songTitle="" songArtist="" songAlbum="" songCopyrightUrl="" songArtistUrl="" songAudioFileUrl="" stabilizationMode="0" mediaItemType="2" />
    <MediaItem id="155" filePath="F:\Art_and_Design\HolidayAnimation2015\Jars+Kitchen+Logos\HolidayAnimation2015\Renders\0161.png" arWidth="960" arHeight="540" duration="0" songTitle="" songArtist="" songAlbum="" songCopyrightUrl="" songArtistUrl="" songAudioFileUrl="" stabilizationMode="0" mediaItemType="2" />
    <MediaItem id="156" filePath="F:\Art_and_Design\HolidayAnimation2015\Jars+Kitchen+Logos\HolidayAnimation2015\Renders\0162.png" arWidth="960" arHeight="540" duration="0" songTitle="" songArtist="" songAlbum="" songCopyrightUrl="" songArtistUrl="" songAudioFileUrl="" stabilizationMode="0" mediaItemType="2" />
    <MediaItem id="157" filePath="F:\Art_and_Design\HolidayAnimation2015\Jars+Kitchen+Logos\HolidayAnimation2015\Renders\0163.png" arWidth="960" arHeight="540" duration="0" songTitle="" songArtist="" songAlbum="" songCopyrightUrl="" songArtistUrl="" songAudioFileUrl="" stabilizationMode="0" mediaItemType="2" />
    <MediaItem id="158" filePath="F:\Art_and_Design\HolidayAnimation2015\Jars+Kitchen+Logos\HolidayAnimation2015\Renders\0164.png" arWidth="960" arHeight="540" duration="0" songTitle="" songArtist="" songAlbum="" songCopyrightUrl="" songArtistUrl="" songAudioFileUrl="" stabilizationMode="0" mediaItemType="2" />
    <MediaItem id="159" filePath="F:\Art_and_Design\HolidayAnimation2015\Jars+Kitchen+Logos\HolidayAnimation2015\Renders\0165.png" arWidth="960" arHeight="540" duration="0" songTitle="" songArtist="" songAlbum="" songCopyrightUrl="" songArtistUrl="" songAudioFileUrl="" stabilizationMode="0" mediaItemType="2" />
    <MediaItem id="160" filePath="F:\Art_and_Design\HolidayAnimation2015\Jars+Kitchen+Logos\HolidayAnimation2015\Renders\0166.png" arWidth="960" arHeight="540" duration="0" songTitle="" songArtist="" songAlbum="" songCopyrightUrl="" songArtistUrl="" songAudioFileUrl="" stabilizationMode="0" mediaItemType="2" />
    <MediaItem id="161" filePath="F:\Art_and_Design\HolidayAnimation2015\Jars+Kitchen+Logos\HolidayAnimation2015\Renders\0167.png" arWidth="960" arHeight="540" duration="0" songTitle="" songArtist="" songAlbum="" songCopyrightUrl="" songArtistUrl="" songAudioFileUrl="" stabilizationMode="0" mediaItemType="2" />
    <MediaItem id="162" filePath="F:\Art_and_Design\HolidayAnimation2015\Jars+Kitchen+Logos\HolidayAnimation2015\Renders\0168.png" arWidth="960" arHeight="540" duration="0" songTitle="" songArtist="" songAlbum="" songCopyrightUrl="" songArtistUrl="" songAudioFileUrl="" stabilizationMode="0" mediaItemType="2" />
    <MediaItem id="163" filePath="F:\Art_and_Design\HolidayAnimation2015\Jars+Kitchen+Logos\HolidayAnimation2015\Renders\0169.png" arWidth="960" arHeight="540" duration="0" songTitle="" songArtist="" songAlbum="" songCopyrightUrl="" songArtistUrl="" songAudioFileUrl="" stabilizationMode="0" mediaItemType="2" />
    <MediaItem id="164" filePath="F:\Art_and_Design\HolidayAnimation2015\Jars+Kitchen+Logos\HolidayAnimation2015\Renders\0170.png" arWidth="960" arHeight="540" duration="0" songTitle="" songArtist="" songAlbum="" songCopyrightUrl="" songArtistUrl="" songAudioFileUrl="" stabilizationMode="0" mediaItemType="2" />
    <MediaItem id="165" filePath="F:\Art_and_Design\HolidayAnimation2015\Jars+Kitchen+Logos\HolidayAnimation2015\Renders\0171.png" arWidth="960" arHeight="540" duration="0" songTitle="" songArtist="" songAlbum="" songCopyrightUrl="" songArtistUrl="" songAudioFileUrl="" stabilizationMode="0" mediaItemType="2" />
    <MediaItem id="166" filePath="F:\Art_and_Design\HolidayAnimation2015\Jars+Kitchen+Logos\HolidayAnimation2015\Renders\0172.png" arWidth="960" arHeight="540" duration="0" songTitle="" songArtist="" songAlbum="" songCopyrightUrl="" songArtistUrl="" songAudioFileUrl="" stabilizationMode="0" mediaItemType="2" />
    <MediaItem id="167" filePath="F:\Art_and_Design\HolidayAnimation2015\Jars+Kitchen+Logos\HolidayAnimation2015\Renders\0173.png" arWidth="960" arHeight="540" duration="0" songTitle="" songArtist="" songAlbum="" songCopyrightUrl="" songArtistUrl="" songAudioFileUrl="" stabilizationMode="0" mediaItemType="2" />
    <MediaItem id="168" filePath="F:\Art_and_Design\HolidayAnimation2015\Jars+Kitchen+Logos\HolidayAnimation2015\Renders\0174.png" arWidth="960" arHeight="540" duration="0" songTitle="" songArtist="" songAlbum="" songCopyrightUrl="" songArtistUrl="" songAudioFileUrl="" stabilizationMode="0" mediaItemType="2" />
    <MediaItem id="169" filePath="F:\Art_and_Design\HolidayAnimation2015\Jars+Kitchen+Logos\HolidayAnimation2015\Renders\0175.png" arWidth="960" arHeight="540" duration="0" songTitle="" songArtist="" songAlbum="" songCopyrightUrl="" songArtistUrl="" songAudioFileUrl="" stabilizationMode="0" mediaItemType="2" />
    <MediaItem id="170" filePath="F:\Art_and_Design\HolidayAnimation2015\Jars+Kitchen+Logos\HolidayAnimation2015\Renders\0176.png" arWidth="960" arHeight="540" duration="0" songTitle="" songArtist="" songAlbum="" songCopyrightUrl="" songArtistUrl="" songAudioFileUrl="" stabilizationMode="0" mediaItemType="2" />
    <MediaItem id="171" filePath="F:\Art_and_Design\HolidayAnimation2015\Jars+Kitchen+Logos\HolidayAnimation2015\Renders\0177.png" arWidth="960" arHeight="540" duration="0" songTitle="" songArtist="" songAlbum="" songCopyrightUrl="" songArtistUrl="" songAudioFileUrl="" stabilizationMode="0" mediaItemType="2" />
    <MediaItem id="172" filePath="F:\Art_and_Design\HolidayAnimation2015\Jars+Kitchen+Logos\HolidayAnimation2015\Renders\0178.png" arWidth="960" arHeight="540" duration="0" songTitle="" songArtist="" songAlbum="" songCopyrightUrl="" songArtistUrl="" songAudioFileUrl="" stabilizationMode="0" mediaItemType="2" />
    <MediaItem id="173" filePath="F:\Art_and_Design\HolidayAnimation2015\Jars+Kitchen+Logos\HolidayAnimation2015\Renders\0179.png" arWidth="960" arHeight="540" duration="0" songTitle="" songArtist="" songAlbum="" songCopyrightUrl="" songArtistUrl="" songAudioFileUrl="" stabilizationMode="0" mediaItemType="2" />
    <MediaItem id="174" filePath="F:\Art_and_Design\HolidayAnimation2015\Jars+Kitchen+Logos\HolidayAnimation2015\Renders\0180.png" arWidth="960" arHeight="540" duration="0" songTitle="" songArtist="" songAlbum="" songCopyrightUrl="" songArtistUrl="" songAudioFileUrl="" stabilizationMode="0" mediaItemType="2" />
    <MediaItem id="175" filePath="F:\Art_and_Design\HolidayAnimation2015\Jars+Kitchen+Logos\HolidayAnimation2015\Renders\0181.png" arWidth="960" arHeight="540" duration="0" songTitle="" songArtist="" songAlbum="" songCopyrightUrl="" songArtistUrl="" songAudioFileUrl="" stabilizationMode="0" mediaItemType="2" />
    <MediaItem id="176" filePath="F:\Art_and_Design\HolidayAnimation2015\Jars+Kitchen+Logos\HolidayAnimation2015\Renders\0182.png" arWidth="960" arHeight="540" duration="0" songTitle="" songArtist="" songAlbum="" songCopyrightUrl="" songArtistUrl="" songAudioFileUrl="" stabilizationMode="0" mediaItemType="2" />
    <MediaItem id="177" filePath="F:\Art_and_Design\HolidayAnimation2015\Jars+Kitchen+Logos\HolidayAnimation2015\Renders\0183.png" arWidth="960" arHeight="540" duration="0" songTitle="" songArtist="" songAlbum="" songCopyrightUrl="" songArtistUrl="" songAudioFileUrl="" stabilizationMode="0" mediaItemType="2" />
    <MediaItem id="178" filePath="F:\Art_and_Design\HolidayAnimation2015\Jars+Kitchen+Logos\HolidayAnimation2015\Renders\0184.png" arWidth="960" arHeight="540" duration="0" songTitle="" songArtist="" songAlbum="" songCopyrightUrl="" songArtistUrl="" songAudioFileUrl="" stabilizationMode="0" mediaItemType="2" />
    <MediaItem id="179" filePath="F:\Art_and_Design\HolidayAnimation2015\Jars+Kitchen+Logos\HolidayAnimation2015\Renders\0185.png" arWidth="960" arHeight="540" duration="0" songTitle="" songArtist="" songAlbum="" songCopyrightUrl="" songArtistUrl="" songAudioFileUrl="" stabilizationMode="0" mediaItemType="2" />
    <MediaItem id="180" filePath="F:\Art_and_Design\HolidayAnimation2015\Jars+Kitchen+Logos\HolidayAnimation2015\Renders\0186.png" arWidth="960" arHeight="540" duration="0" songTitle="" songArtist="" songAlbum="" songCopyrightUrl="" songArtistUrl="" songAudioFileUrl="" stabilizationMode="0" mediaItemType="2" />
    <MediaItem id="181" filePath="F:\Art_and_Design\HolidayAnimation2015\Jars+Kitchen+Logos\HolidayAnimation2015\Renders\0187.png" arWidth="960" arHeight="540" duration="0" songTitle="" songArtist="" songAlbum="" songCopyrightUrl="" songArtistUrl="" songAudioFileUrl="" stabilizationMode="0" mediaItemType="2" />
    <MediaItem id="182" filePath="F:\Art_and_Design\HolidayAnimation2015\Jars+Kitchen+Logos\HolidayAnimation2015\Renders\0188.png" arWidth="960" arHeight="540" duration="0" songTitle="" songArtist="" songAlbum="" songCopyrightUrl="" songArtistUrl="" songAudioFileUrl="" stabilizationMode="0" mediaItemType="2" />
    <MediaItem id="183" filePath="F:\Art_and_Design\HolidayAnimation2015\Jars+Kitchen+Logos\HolidayAnimation2015\Renders\0189.png" arWidth="960" arHeight="540" duration="0" songTitle="" songArtist="" songAlbum="" songCopyrightUrl="" songArtistUrl="" songAudioFileUrl="" stabilizationMode="0" mediaItemType="2" />
    <MediaItem id="184" filePath="F:\Art_and_Design\HolidayAnimation2015\Jars+Kitchen+Logos\HolidayAnimation2015\Renders\0190.png" arWidth="960" arHeight="540" duration="0" songTitle="" songArtist="" songAlbum="" songCopyrightUrl="" songArtistUrl="" songAudioFileUrl="" stabilizationMode="0" mediaItemType="2" />
    <MediaItem id="185" filePath="F:\Art_and_Design\HolidayAnimation2015\Jars+Kitchen+Logos\HolidayAnimation2015\Renders\0191.png" arWidth="960" arHeight="540" duration="0" songTitle="" songArtist="" songAlbum="" songCopyrightUrl="" songArtistUrl="" songAudioFileUrl="" stabilizationMode="0" mediaItemType="2" />
    <MediaItem id="186" filePath="F:\Art_and_Design\HolidayAnimation2015\Jars+Kitchen+Logos\HolidayAnimation2015\Renders\0192.png" arWidth="960" arHeight="540" duration="0" songTitle="" songArtist="" songAlbum="" songCopyrightUrl="" songArtistUrl="" songAudioFileUrl="" stabilizationMode="0" mediaItemType="2" />
    <MediaItem id="187" filePath="F:\Art_and_Design\HolidayAnimation2015\Jars+Kitchen+Logos\HolidayAnimation2015\Renders\0193.png" arWidth="960" arHeight="540" duration="0" songTitle="" songArtist="" songAlbum="" songCopyrightUrl="" songArtistUrl="" songAudioFileUrl="" stabilizationMode="0" mediaItemType="2" />
    <MediaItem id="188" filePath="F:\Art_and_Design\HolidayAnimation2015\Jars+Kitchen+Logos\HolidayAnimation2015\Renders\0194.png" arWidth="960" arHeight="540" duration="0" songTitle="" songArtist="" songAlbum="" songCopyrightUrl="" songArtistUrl="" songAudioFileUrl="" stabilizationMode="0" mediaItemType="2" />
    <MediaItem id="189" filePath="F:\Art_and_Design\HolidayAnimation2015\Jars+Kitchen+Logos\HolidayAnimation2015\Renders\0195.png" arWidth="960" arHeight="540" duration="0" songTitle="" songArtist="" songAlbum="" songCopyrightUrl="" songArtistUrl="" songAudioFileUrl="" stabilizationMode="0" mediaItemType="2" />
    <MediaItem id="190" filePath="F:\Art_and_Design\HolidayAnimation2015\Jars+Kitchen+Logos\HolidayAnimation2015\Renders\0196.png" arWidth="960" arHeight="540" duration="0" songTitle="" songArtist="" songAlbum="" songCopyrightUrl="" songArtistUrl="" songAudioFileUrl="" stabilizationMode="0" mediaItemType="2" />
    <MediaItem id="191" filePath="F:\Art_and_Design\HolidayAnimation2015\Jars+Kitchen+Logos\HolidayAnimation2015\Renders\0197.png" arWidth="960" arHeight="540" duration="0" songTitle="" songArtist="" songAlbum="" songCopyrightUrl="" songArtistUrl="" songAudioFileUrl="" stabilizationMode="0" mediaItemType="2" />
    <MediaItem id="192" filePath="F:\Art_and_Design\HolidayAnimation2015\Jars+Kitchen+Logos\HolidayAnimation2015\Renders\0198.png" arWidth="960" arHeight="540" duration="0" songTitle="" songArtist="" songAlbum="" songCopyrightUrl="" songArtistUrl="" songAudioFileUrl="" stabilizationMode="0" mediaItemType="2" />
    <MediaItem id="193" filePath="F:\Art_and_Design\HolidayAnimation2015\Jars+Kitchen+Logos\HolidayAnimation2015\Renders\0199.png" arWidth="960" arHeight="540" duration="0" songTitle="" songArtist="" songAlbum="" songCopyrightUrl="" songArtistUrl="" songAudioFileUrl="" stabilizationMode="0" mediaItemType="2" />
    <MediaItem id="194" filePath="F:\Art_and_Design\HolidayAnimation2015\Jars+Kitchen+Logos\HolidayAnimation2015\Renders\0200.png" arWidth="960" arHeight="540" duration="0" songTitle="" songArtist="" songAlbum="" songCopyrightUrl="" songArtistUrl="" songAudioFileUrl="" stabilizationMode="0" mediaItemType="2" />
    <MediaItem id="195" filePath="F:\Art_and_Design\HolidayAnimation2015\Jars+Kitchen+Logos\HolidayAnimation2015\Renders\0201.png" arWidth="960" arHeight="540" duration="0" songTitle="" songArtist="" songAlbum="" songCopyrightUrl="" songArtistUrl="" songAudioFileUrl="" stabilizationMode="0" mediaItemType="2" />
    <MediaItem id="196" filePath="F:\Art_and_Design\HolidayAnimation2015\Jars+Kitchen+Logos\HolidayAnimation2015\Renders\0202.png" arWidth="960" arHeight="540" duration="0" songTitle="" songArtist="" songAlbum="" songCopyrightUrl="" songArtistUrl="" songAudioFileUrl="" stabilizationMode="0" mediaItemType="2" />
    <MediaItem id="197" filePath="F:\Art_and_Design\HolidayAnimation2015\Jars+Kitchen+Logos\HolidayAnimation2015\Renders\0203.png" arWidth="960" arHeight="540" duration="0" songTitle="" songArtist="" songAlbum="" songCopyrightUrl="" songArtistUrl="" songAudioFileUrl="" stabilizationMode="0" mediaItemType="2" />
    <MediaItem id="198" filePath="F:\Art_and_Design\HolidayAnimation2015\Jars+Kitchen+Logos\HolidayAnimation2015\Renders\0204.png" arWidth="960" arHeight="540" duration="0" songTitle="" songArtist="" songAlbum="" songCopyrightUrl="" songArtistUrl="" songAudioFileUrl="" stabilizationMode="0" mediaItemType="2" />
    <MediaItem id="199" filePath="F:\Art_and_Design\HolidayAnimation2015\Jars+Kitchen+Logos\HolidayAnimation2015\Renders\0205.png" arWidth="960" arHeight="540" duration="0" songTitle="" songArtist="" songAlbum="" songCopyrightUrl="" songArtistUrl="" songAudioFileUrl="" stabilizationMode="0" mediaItemType="2" />
    <MediaItem id="200" filePath="F:\Art_and_Design\HolidayAnimation2015\Jars+Kitchen+Logos\HolidayAnimation2015\Renders\0206.png" arWidth="960" arHeight="540" duration="0" songTitle="" songArtist="" songAlbum="" songCopyrightUrl="" songArtistUrl="" songAudioFileUrl="" stabilizationMode="0" mediaItemType="2" />
    <MediaItem id="201" filePath="F:\Art_and_Design\HolidayAnimation2015\Jars+Kitchen+Logos\HolidayAnimation2015\Renders\0207.png" arWidth="960" arHeight="540" duration="0" songTitle="" songArtist="" songAlbum="" songCopyrightUrl="" songArtistUrl="" songAudioFileUrl="" stabilizationMode="0" mediaItemType="2" />
    <MediaItem id="202" filePath="F:\Art_and_Design\HolidayAnimation2015\Jars+Kitchen+Logos\HolidayAnimation2015\Renders\0208.png" arWidth="960" arHeight="540" duration="0" songTitle="" songArtist="" songAlbum="" songCopyrightUrl="" songArtistUrl="" songAudioFileUrl="" stabilizationMode="0" mediaItemType="2" />
    <MediaItem id="203" filePath="F:\Art_and_Design\HolidayAnimation2015\Jars+Kitchen+Logos\HolidayAnimation2015\Renders\0209.png" arWidth="960" arHeight="540" duration="0" songTitle="" songArtist="" songAlbum="" songCopyrightUrl="" songArtistUrl="" songAudioFileUrl="" stabilizationMode="0" mediaItemType="2" />
    <MediaItem id="204" filePath="F:\Art_and_Design\HolidayAnimation2015\Jars+Kitchen+Logos\HolidayAnimation2015\Renders\0210.png" arWidth="960" arHeight="540" duration="0" songTitle="" songArtist="" songAlbum="" songCopyrightUrl="" songArtistUrl="" songAudioFileUrl="" stabilizationMode="0" mediaItemType="2" />
    <MediaItem id="205" filePath="F:\Art_and_Design\HolidayAnimation2015\Jars+Kitchen+Logos\HolidayAnimation2015\Renders\0211.png" arWidth="960" arHeight="540" duration="0" songTitle="" songArtist="" songAlbum="" songCopyrightUrl="" songArtistUrl="" songAudioFileUrl="" stabilizationMode="0" mediaItemType="2" />
    <MediaItem id="206" filePath="F:\Art_and_Design\HolidayAnimation2015\Jars+Kitchen+Logos\HolidayAnimation2015\Renders\0212.png" arWidth="960" arHeight="540" duration="0" songTitle="" songArtist="" songAlbum="" songCopyrightUrl="" songArtistUrl="" songAudioFileUrl="" stabilizationMode="0" mediaItemType="2" />
    <MediaItem id="207" filePath="F:\Art_and_Design\HolidayAnimation2015\Jars+Kitchen+Logos\HolidayAnimation2015\Renders\0213.png" arWidth="960" arHeight="540" duration="0" songTitle="" songArtist="" songAlbum="" songCopyrightUrl="" songArtistUrl="" songAudioFileUrl="" stabilizationMode="0" mediaItemType="2" />
    <MediaItem id="208" filePath="F:\Art_and_Design\HolidayAnimation2015\Jars+Kitchen+Logos\HolidayAnimation2015\Renders\0214.png" arWidth="960" arHeight="540" duration="0" songTitle="" songArtist="" songAlbum="" songCopyrightUrl="" songArtistUrl="" songAudioFileUrl="" stabilizationMode="0" mediaItemType="2" />
    <MediaItem id="209" filePath="F:\Art_and_Design\HolidayAnimation2015\Jars+Kitchen+Logos\HolidayAnimation2015\Renders\0215.png" arWidth="960" arHeight="540" duration="0" songTitle="" songArtist="" songAlbum="" songCopyrightUrl="" songArtistUrl="" songAudioFileUrl="" stabilizationMode="0" mediaItemType="2" />
    <MediaItem id="210" filePath="F:\Art_and_Design\HolidayAnimation2015\Jars+Kitchen+Logos\HolidayAnimation2015\Renders\0216.png" arWidth="960" arHeight="540" duration="0" songTitle="" songArtist="" songAlbum="" songCopyrightUrl="" songArtistUrl="" songAudioFileUrl="" stabilizationMode="0" mediaItemType="2" />
    <MediaItem id="211" filePath="F:\Art_and_Design\HolidayAnimation2015\Jars+Kitchen+Logos\HolidayAnimation2015\Renders\0217.png" arWidth="960" arHeight="540" duration="0" songTitle="" songArtist="" songAlbum="" songCopyrightUrl="" songArtistUrl="" songAudioFileUrl="" stabilizationMode="0" mediaItemType="2" />
    <MediaItem id="212" filePath="F:\Art_and_Design\HolidayAnimation2015\Jars+Kitchen+Logos\HolidayAnimation2015\Renders\0218.png" arWidth="960" arHeight="540" duration="0" songTitle="" songArtist="" songAlbum="" songCopyrightUrl="" songArtistUrl="" songAudioFileUrl="" stabilizationMode="0" mediaItemType="2" />
    <MediaItem id="213" filePath="F:\Art_and_Design\HolidayAnimation2015\Jars+Kitchen+Logos\HolidayAnimation2015\Renders\0219.png" arWidth="960" arHeight="540" duration="0" songTitle="" songArtist="" songAlbum="" songCopyrightUrl="" songArtistUrl="" songAudioFileUrl="" stabilizationMode="0" mediaItemType="2" />
    <MediaItem id="214" filePath="F:\Art_and_Design\HolidayAnimation2015\Jars+Kitchen+Logos\HolidayAnimation2015\Renders\0220.png" arWidth="960" arHeight="540" duration="0" songTitle="" songArtist="" songAlbum="" songCopyrightUrl="" songArtistUrl="" songAudioFileUrl="" stabilizationMode="0" mediaItemType="2" />
    <MediaItem id="215" filePath="F:\Art_and_Design\HolidayAnimation2015\Jars+Kitchen+Logos\HolidayAnimation2015\Renders\0221.png" arWidth="960" arHeight="540" duration="0" songTitle="" songArtist="" songAlbum="" songCopyrightUrl="" songArtistUrl="" songAudioFileUrl="" stabilizationMode="0" mediaItemType="2" />
    <MediaItem id="216" filePath="F:\Art_and_Design\HolidayAnimation2015\Jars+Kitchen+Logos\HolidayAnimation2015\Renders\0222.png" arWidth="960" arHeight="540" duration="0" songTitle="" songArtist="" songAlbum="" songCopyrightUrl="" songArtistUrl="" songAudioFileUrl="" stabilizationMode="0" mediaItemType="2" />
    <MediaItem id="217" filePath="F:\Art_and_Design\HolidayAnimation2015\Jars+Kitchen+Logos\HolidayAnimation2015\Renders\0223.png" arWidth="960" arHeight="540" duration="0" songTitle="" songArtist="" songAlbum="" songCopyrightUrl="" songArtistUrl="" songAudioFileUrl="" stabilizationMode="0" mediaItemType="2" />
    <MediaItem id="218" filePath="F:\Art_and_Design\HolidayAnimation2015\Jars+Kitchen+Logos\HolidayAnimation2015\Renders\0224.png" arWidth="960" arHeight="540" duration="0" songTitle="" songArtist="" songAlbum="" songCopyrightUrl="" songArtistUrl="" songAudioFileUrl="" stabilizationMode="0" mediaItemType="2" />
    <MediaItem id="219" filePath="F:\Art_and_Design\HolidayAnimation2015\Jars+Kitchen+Logos\HolidayAnimation2015\Renders\0225.png" arWidth="960" arHeight="540" duration="0" songTitle="" songArtist="" songAlbum="" songCopyrightUrl="" songArtistUrl="" songAudioFileUrl="" stabilizationMode="0" mediaItemType="2" />
    <MediaItem id="220" filePath="F:\Art_and_Design\HolidayAnimation2015\Jars+Kitchen+Logos\HolidayAnimation2015\Renders\0226.png" arWidth="960" arHeight="540" duration="0" songTitle="" songArtist="" songAlbum="" songCopyrightUrl="" songArtistUrl="" songAudioFileUrl="" stabilizationMode="0" mediaItemType="2" />
    <MediaItem id="221" filePath="F:\Art_and_Design\HolidayAnimation2015\Jars+Kitchen+Logos\HolidayAnimation2015\Renders\0227.png" arWidth="960" arHeight="540" duration="0" songTitle="" songArtist="" songAlbum="" songCopyrightUrl="" songArtistUrl="" songAudioFileUrl="" stabilizationMode="0" mediaItemType="2" />
    <MediaItem id="222" filePath="F:\Art_and_Design\HolidayAnimation2015\Jars+Kitchen+Logos\HolidayAnimation2015\Renders\0228.png" arWidth="960" arHeight="540" duration="0" songTitle="" songArtist="" songAlbum="" songCopyrightUrl="" songArtistUrl="" songAudioFileUrl="" stabilizationMode="0" mediaItemType="2" />
    <MediaItem id="223" filePath="F:\Art_and_Design\HolidayAnimation2015\Jars+Kitchen+Logos\HolidayAnimation2015\Renders\0229.png" arWidth="960" arHeight="540" duration="0" songTitle="" songArtist="" songAlbum="" songCopyrightUrl="" songArtistUrl="" songAudioFileUrl="" stabilizationMode="0" mediaItemType="2" />
    <MediaItem id="224" filePath="F:\Art_and_Design\HolidayAnimation2015\Jars+Kitchen+Logos\HolidayAnimation2015\Renders\0230.png" arWidth="960" arHeight="540" duration="0" songTitle="" songArtist="" songAlbum="" songCopyrightUrl="" songArtistUrl="" songAudioFileUrl="" stabilizationMode="0" mediaItemType="2" />
    <MediaItem id="225" filePath="F:\Art_and_Design\HolidayAnimation2015\Jars+Kitchen+Logos\HolidayAnimation2015\Renders\0231.png" arWidth="960" arHeight="540" duration="0" songTitle="" songArtist="" songAlbum="" songCopyrightUrl="" songArtistUrl="" songAudioFileUrl="" stabilizationMode="0" mediaItemType="2" />
    <MediaItem id="226" filePath="F:\Art_and_Design\HolidayAnimation2015\Jars+Kitchen+Logos\HolidayAnimation2015\Renders\0232.png" arWidth="960" arHeight="540" duration="0" songTitle="" songArtist="" songAlbum="" songCopyrightUrl="" songArtistUrl="" songAudioFileUrl="" stabilizationMode="0" mediaItemType="2" />
    <MediaItem id="227" filePath="F:\Art_and_Design\HolidayAnimation2015\Jars+Kitchen+Logos\HolidayAnimation2015\Renders\0233.png" arWidth="960" arHeight="540" duration="0" songTitle="" songArtist="" songAlbum="" songCopyrightUrl="" songArtistUrl="" songAudioFileUrl="" stabilizationMode="0" mediaItemType="2" />
    <MediaItem id="228" filePath="F:\Art_and_Design\HolidayAnimation2015\Jars+Kitchen+Logos\HolidayAnimation2015\Renders\0234.png" arWidth="960" arHeight="540" duration="0" songTitle="" songArtist="" songAlbum="" songCopyrightUrl="" songArtistUrl="" songAudioFileUrl="" stabilizationMode="0" mediaItemType="2" />
    <MediaItem id="229" filePath="F:\Art_and_Design\HolidayAnimation2015\Jars+Kitchen+Logos\HolidayAnimation2015\Renders\0235.png" arWidth="960" arHeight="540" duration="0" songTitle="" songArtist="" songAlbum="" songCopyrightUrl="" songArtistUrl="" songAudioFileUrl="" stabilizationMode="0" mediaItemType="2" />
    <MediaItem id="230" filePath="F:\Art_and_Design\HolidayAnimation2015\Jars+Kitchen+Logos\HolidayAnimation2015\Renders\0236.png" arWidth="960" arHeight="540" duration="0" songTitle="" songArtist="" songAlbum="" songCopyrightUrl="" songArtistUrl="" songAudioFileUrl="" stabilizationMode="0" mediaItemType="2" />
    <MediaItem id="231" filePath="F:\Art_and_Design\HolidayAnimation2015\Jars+Kitchen+Logos\HolidayAnimation2015\Renders\0237.png" arWidth="960" arHeight="540" duration="0" songTitle="" songArtist="" songAlbum="" songCopyrightUrl="" songArtistUrl="" songAudioFileUrl="" stabilizationMode="0" mediaItemType="2" />
    <MediaItem id="232" filePath="F:\Art_and_Design\HolidayAnimation2015\Jars+Kitchen+Logos\HolidayAnimation2015\Renders\0238.png" arWidth="960" arHeight="540" duration="0" songTitle="" songArtist="" songAlbum="" songCopyrightUrl="" songArtistUrl="" songAudioFileUrl="" stabilizationMode="0" mediaItemType="2" />
    <MediaItem id="233" filePath="F:\Art_and_Design\HolidayAnimation2015\Jars+Kitchen+Logos\HolidayAnimation2015\Renders\0239.png" arWidth="960" arHeight="540" duration="0" songTitle="" songArtist="" songAlbum="" songCopyrightUrl="" songArtistUrl="" songAudioFileUrl="" stabilizationMode="0" mediaItemType="2" />
    <MediaItem id="234" filePath="F:\Art_and_Design\HolidayAnimation2015\Jars+Kitchen+Logos\HolidayAnimation2015\Renders\0240.png" arWidth="960" arHeight="540" duration="0" songTitle="" songArtist="" songAlbum="" songCopyrightUrl="" songArtistUrl="" songAudioFileUrl="" stabilizationMode="0" mediaItemType="2" />
    <MediaItem id="235" filePath="F:\Art_and_Design\HolidayAnimation2015\Jars+Kitchen+Logos\HolidayAnimation2015\Renders\0241.png" arWidth="960" arHeight="540" duration="0" songTitle="" songArtist="" songAlbum="" songCopyrightUrl="" songArtistUrl="" songAudioFileUrl="" stabilizationMode="0" mediaItemType="2" />
    <MediaItem id="236" filePath="F:\Art_and_Design\HolidayAnimation2015\Jars+Kitchen+Logos\HolidayAnimation2015\Renders\0242.png" arWidth="960" arHeight="540" duration="0" songTitle="" songArtist="" songAlbum="" songCopyrightUrl="" songArtistUrl="" songAudioFileUrl="" stabilizationMode="0" mediaItemType="2" />
    <MediaItem id="237" filePath="F:\Art_and_Design\HolidayAnimation2015\Jars+Kitchen+Logos\HolidayAnimation2015\Renders\0243.png" arWidth="960" arHeight="540" duration="0" songTitle="" songArtist="" songAlbum="" songCopyrightUrl="" songArtistUrl="" songAudioFileUrl="" stabilizationMode="0" mediaItemType="2" />
    <MediaItem id="238" filePath="F:\Art_and_Design\HolidayAnimation2015\Jars+Kitchen+Logos\HolidayAnimation2015\Renders\0244.png" arWidth="960" arHeight="540" duration="0" songTitle="" songArtist="" songAlbum="" songCopyrightUrl="" songArtistUrl="" songAudioFileUrl="" stabilizationMode="0" mediaItemType="2" />
    <MediaItem id="239" filePath="F:\Art_and_Design\HolidayAnimation2015\Jars+Kitchen+Logos\HolidayAnimation2015\Renders\0245.png" arWidth="960" arHeight="540" duration="0" songTitle="" songArtist="" songAlbum="" songCopyrightUrl="" songArtistUrl="" songAudioFileUrl="" stabilizationMode="0" mediaItemType="2" />
    <MediaItem id="240" filePath="F:\Art_and_Design\HolidayAnimation2015\Jars+Kitchen+Logos\HolidayAnimation2015\Renders\0246.png" arWidth="960" arHeight="540" duration="0" songTitle="" songArtist="" songAlbum="" songCopyrightUrl="" songArtistUrl="" songAudioFileUrl="" stabilizationMode="0" mediaItemType="2" />
    <MediaItem id="241" filePath="F:\Art_and_Design\HolidayAnimation2015\Jars+Kitchen+Logos\HolidayAnimation2015\Renders\0247.png" arWidth="960" arHeight="540" duration="0" songTitle="" songArtist="" songAlbum="" songCopyrightUrl="" songArtistUrl="" songAudioFileUrl="" stabilizationMode="0" mediaItemType="2" />
    <MediaItem id="242" filePath="F:\Art_and_Design\HolidayAnimation2015\Jars+Kitchen+Logos\HolidayAnimation2015\Renders\0248.png" arWidth="960" arHeight="540" duration="0" songTitle="" songArtist="" songAlbum="" songCopyrightUrl="" songArtistUrl="" songAudioFileUrl="" stabilizationMode="0" mediaItemType="2" />
    <MediaItem id="243" filePath="F:\Art_and_Design\HolidayAnimation2015\Jars+Kitchen+Logos\HolidayAnimation2015\Renders\0249.png" arWidth="960" arHeight="540" duration="0" songTitle="" songArtist="" songAlbum="" songCopyrightUrl="" songArtistUrl="" songAudioFileUrl="" stabilizationMode="0" mediaItemType="2" />
    <MediaItem id="244" filePath="F:\Art_and_Design\HolidayAnimation2015\Jars+Kitchen+Logos\HolidayAnimation2015\Renders\0250.png" arWidth="960" arHeight="540" duration="0" songTitle="" songArtist="" songAlbum="" songCopyrightUrl="" songArtistUrl="" songAudioFileUrl="" stabilizationMode="0" mediaItemType="2" />
    <MediaItem id="245" filePath="F:\Art_and_Design\HolidayAnimation2015\Jars+Kitchen+Logos\HolidayAnimation2015\Renders\0251.png" arWidth="960" arHeight="540" duration="0" songTitle="" songArtist="" songAlbum="" songCopyrightUrl="" songArtistUrl="" songAudioFileUrl="" stabilizationMode="0" mediaItemType="2" />
    <MediaItem id="246" filePath="F:\Art_and_Design\HolidayAnimation2015\Jars+Kitchen+Logos\HolidayAnimation2015\Renders\0252.png" arWidth="960" arHeight="540" duration="0" songTitle="" songArtist="" songAlbum="" songCopyrightUrl="" songArtistUrl="" songAudioFileUrl="" stabilizationMode="0" mediaItemType="2" />
    <MediaItem id="247" filePath="F:\Art_and_Design\HolidayAnimation2015\Jars+Kitchen+Logos\HolidayAnimation2015\Renders\0253.png" arWidth="960" arHeight="540" duration="0" songTitle="" songArtist="" songAlbum="" songCopyrightUrl="" songArtistUrl="" songAudioFileUrl="" stabilizationMode="0" mediaItemType="2" />
    <MediaItem id="248" filePath="F:\Art_and_Design\HolidayAnimation2015\Jars+Kitchen+Logos\HolidayAnimation2015\Renders\0254.png" arWidth="960" arHeight="540" duration="0" songTitle="" songArtist="" songAlbum="" songCopyrightUrl="" songArtistUrl="" songAudioFileUrl="" stabilizationMode="0" mediaItemType="2" />
    <MediaItem id="249" filePath="F:\Art_and_Design\HolidayAnimation2015\Jars+Kitchen+Logos\HolidayAnimation2015\Renders\0255.png" arWidth="960" arHeight="540" duration="0" songTitle="" songArtist="" songAlbum="" songCopyrightUrl="" songArtistUrl="" songAudioFileUrl="" stabilizationMode="0" mediaItemType="2" />
    <MediaItem id="250" filePath="F:\Art_and_Design\HolidayAnimation2015\Jars+Kitchen+Logos\HolidayAnimation2015\Renders\0256.png" arWidth="960" arHeight="540" duration="0" songTitle="" songArtist="" songAlbum="" songCopyrightUrl="" songArtistUrl="" songAudioFileUrl="" stabilizationMode="0" mediaItemType="2" />
    <MediaItem id="251" filePath="F:\Art_and_Design\HolidayAnimation2015\Jars+Kitchen+Logos\HolidayAnimation2015\Renders\0257.png" arWidth="960" arHeight="540" duration="0" songTitle="" songArtist="" songAlbum="" songCopyrightUrl="" songArtistUrl="" songAudioFileUrl="" stabilizationMode="0" mediaItemType="2" />
    <MediaItem id="252" filePath="F:\Art_and_Design\HolidayAnimation2015\Jars+Kitchen+Logos\HolidayAnimation2015\Renders\0258.png" arWidth="960" arHeight="540" duration="0" songTitle="" songArtist="" songAlbum="" songCopyrightUrl="" songArtistUrl="" songAudioFileUrl="" stabilizationMode="0" mediaItemType="2" />
    <MediaItem id="253" filePath="F:\Art_and_Design\HolidayAnimation2015\Jars+Kitchen+Logos\HolidayAnimation2015\Renders\0259.png" arWidth="960" arHeight="540" duration="0" songTitle="" songArtist="" songAlbum="" songCopyrightUrl="" songArtistUrl="" songAudioFileUrl="" stabilizationMode="0" mediaItemType="2" />
    <MediaItem id="254" filePath="F:\Art_and_Design\HolidayAnimation2015\Jars+Kitchen+Logos\HolidayAnimation2015\Renders\0260.png" arWidth="960" arHeight="540" duration="0" songTitle="" songArtist="" songAlbum="" songCopyrightUrl="" songArtistUrl="" songAudioFileUrl="" stabilizationMode="0" mediaItemType="2" />
    <MediaItem id="255" filePath="F:\Art_and_Design\HolidayAnimation2015\Jars+Kitchen+Logos\HolidayAnimation2015\Renders\0261.png" arWidth="960" arHeight="540" duration="0" songTitle="" songArtist="" songAlbum="" songCopyrightUrl="" songArtistUrl="" songAudioFileUrl="" stabilizationMode="0" mediaItemType="2" />
    <MediaItem id="256" filePath="F:\Art_and_Design\HolidayAnimation2015\Jars+Kitchen+Logos\HolidayAnimation2015\Renders\0262.png" arWidth="960" arHeight="540" duration="0" songTitle="" songArtist="" songAlbum="" songCopyrightUrl="" songArtistUrl="" songAudioFileUrl="" stabilizationMode="0" mediaItemType="2" />
    <MediaItem id="257" filePath="F:\Art_and_Design\HolidayAnimation2015\Jars+Kitchen+Logos\HolidayAnimation2015\Renders\0263.png" arWidth="960" arHeight="540" duration="0" songTitle="" songArtist="" songAlbum="" songCopyrightUrl="" songArtistUrl="" songAudioFileUrl="" stabilizationMode="0" mediaItemType="2" />
    <MediaItem id="258" filePath="F:\Art_and_Design\HolidayAnimation2015\Jars+Kitchen+Logos\HolidayAnimation2015\Renders\0264.png" arWidth="960" arHeight="540" duration="0" songTitle="" songArtist="" songAlbum="" songCopyrightUrl="" songArtistUrl="" songAudioFileUrl="" stabilizationMode="0" mediaItemType="2" />
    <MediaItem id="259" filePath="F:\Art_and_Design\HolidayAnimation2015\Jars+Kitchen+Logos\HolidayAnimation2015\Renders\0265.png" arWidth="960" arHeight="540" duration="0" songTitle="" songArtist="" songAlbum="" songCopyrightUrl="" songArtistUrl="" songAudioFileUrl="" stabilizationMode="0" mediaItemType="2" />
    <MediaItem id="260" filePath="F:\Art_and_Design\HolidayAnimation2015\Jars+Kitchen+Logos\HolidayAnimation2015\Renders\0266.png" arWidth="960" arHeight="540" duration="0" songTitle="" songArtist="" songAlbum="" songCopyrightUrl="" songArtistUrl="" songAudioFileUrl="" stabilizationMode="0" mediaItemType="2" />
    <MediaItem id="261" filePath="F:\Art_and_Design\HolidayAnimation2015\Jars+Kitchen+Logos\HolidayAnimation2015\Renders\0267.png" arWidth="960" arHeight="540" duration="0" songTitle="" songArtist="" songAlbum="" songCopyrightUrl="" songArtistUrl="" songAudioFileUrl="" stabilizationMode="0" mediaItemType="2" />
    <MediaItem id="262" filePath="F:\Art_and_Design\HolidayAnimation2015\Jars+Kitchen+Logos\HolidayAnimation2015\Renders\0268.png" arWidth="960" arHeight="540" duration="0" songTitle="" songArtist="" songAlbum="" songCopyrightUrl="" songArtistUrl="" songAudioFileUrl="" stabilizationMode="0" mediaItemType="2" />
    <MediaItem id="263" filePath="F:\Art_and_Design\HolidayAnimation2015\Jars+Kitchen+Logos\HolidayAnimation2015\Renders\0269.png" arWidth="960" arHeight="540" duration="0" songTitle="" songArtist="" songAlbum="" songCopyrightUrl="" songArtistUrl="" songAudioFileUrl="" stabilizationMode="0" mediaItemType="2" />
    <MediaItem id="264" filePath="F:\Art_and_Design\HolidayAnimation2015\Jars+Kitchen+Logos\HolidayAnimation2015\Renders\0270.png" arWidth="960" arHeight="540" duration="0" songTitle="" songArtist="" songAlbum="" songCopyrightUrl="" songArtistUrl="" songAudioFileUrl="" stabilizationMode="0" mediaItemType="2" />
    <MediaItem id="265" filePath="F:\Art_and_Design\HolidayAnimation2015\Jars+Kitchen+Logos\HolidayAnimation2015\Renders\0271.png" arWidth="960" arHeight="540" duration="0" songTitle="" songArtist="" songAlbum="" songCopyrightUrl="" songArtistUrl="" songAudioFileUrl="" stabilizationMode="0" mediaItemType="2" />
    <MediaItem id="266" filePath="F:\Art_and_Design\HolidayAnimation2015\Jars+Kitchen+Logos\HolidayAnimation2015\Renders\0272.png" arWidth="960" arHeight="540" duration="0" songTitle="" songArtist="" songAlbum="" songCopyrightUrl="" songArtistUrl="" songAudioFileUrl="" stabilizationMode="0" mediaItemType="2" />
    <MediaItem id="267" filePath="F:\Art_and_Design\HolidayAnimation2015\Jars+Kitchen+Logos\HolidayAnimation2015\Renders\0273.png" arWidth="960" arHeight="540" duration="0" songTitle="" songArtist="" songAlbum="" songCopyrightUrl="" songArtistUrl="" songAudioFileUrl="" stabilizationMode="0" mediaItemType="2" />
    <MediaItem id="268" filePath="F:\Art_and_Design\HolidayAnimation2015\Jars+Kitchen+Logos\HolidayAnimation2015\Renders\0274.png" arWidth="960" arHeight="540" duration="0" songTitle="" songArtist="" songAlbum="" songCopyrightUrl="" songArtistUrl="" songAudioFileUrl="" stabilizationMode="0" mediaItemType="2" />
    <MediaItem id="269" filePath="F:\Art_and_Design\HolidayAnimation2015\Jars+Kitchen+Logos\HolidayAnimation2015\Renders\0275.png" arWidth="960" arHeight="540" duration="0" songTitle="" songArtist="" songAlbum="" songCopyrightUrl="" songArtistUrl="" songAudioFileUrl="" stabilizationMode="0" mediaItemType="2" />
    <MediaItem id="270" filePath="F:\Art_and_Design\HolidayAnimation2015\Jars+Kitchen+Logos\HolidayAnimation2015\Renders\0276.png" arWidth="960" arHeight="540" duration="0" songTitle="" songArtist="" songAlbum="" songCopyrightUrl="" songArtistUrl="" songAudioFileUrl="" stabilizationMode="0" mediaItemType="2" />
    <MediaItem id="271" filePath="F:\Art_and_Design\HolidayAnimation2015\Jars+Kitchen+Logos\HolidayAnimation2015\Renders\0277.png" arWidth="960" arHeight="540" duration="0" songTitle="" songArtist="" songAlbum="" songCopyrightUrl="" songArtistUrl="" songAudioFileUrl="" stabilizationMode="0" mediaItemType="2" />
    <MediaItem id="272" filePath="F:\Art_and_Design\HolidayAnimation2015\Jars+Kitchen+Logos\HolidayAnimation2015\Renders\0278.png" arWidth="960" arHeight="540" duration="0" songTitle="" songArtist="" songAlbum="" songCopyrightUrl="" songArtistUrl="" songAudioFileUrl="" stabilizationMode="0" mediaItemType="2" />
    <MediaItem id="273" filePath="F:\Art_and_Design\HolidayAnimation2015\Jars+Kitchen+Logos\HolidayAnimation2015\Renders\0279.png" arWidth="960" arHeight="540" duration="0" songTitle="" songArtist="" songAlbum="" songCopyrightUrl="" songArtistUrl="" songAudioFileUrl="" stabilizationMode="0" mediaItemType="2" />
    <MediaItem id="274" filePath="F:\Art_and_Design\HolidayAnimation2015\Jars+Kitchen+Logos\HolidayAnimation2015\Renders\0280.png" arWidth="960" arHeight="540" duration="0" songTitle="" songArtist="" songAlbum="" songCopyrightUrl="" songArtistUrl="" songAudioFileUrl="" stabilizationMode="0" mediaItemType="2" />
    <MediaItem id="275" filePath="F:\Art_and_Design\HolidayAnimation2015\Jars+Kitchen+Logos\HolidayAnimation2015\Renders\0281.png" arWidth="960" arHeight="540" duration="0" songTitle="" songArtist="" songAlbum="" songCopyrightUrl="" songArtistUrl="" songAudioFileUrl="" stabilizationMode="0" mediaItemType="2" />
    <MediaItem id="276" filePath="F:\Art_and_Design\HolidayAnimation2015\Jars+Kitchen+Logos\HolidayAnimation2015\Renders\0282.png" arWidth="960" arHeight="540" duration="0" songTitle="" songArtist="" songAlbum="" songCopyrightUrl="" songArtistUrl="" songAudioFileUrl="" stabilizationMode="0" mediaItemType="2" />
    <MediaItem id="277" filePath="F:\Art_and_Design\HolidayAnimation2015\Jars+Kitchen+Logos\HolidayAnimation2015\Renders\0283.png" arWidth="960" arHeight="540" duration="0" songTitle="" songArtist="" songAlbum="" songCopyrightUrl="" songArtistUrl="" songAudioFileUrl="" stabilizationMode="0" mediaItemType="2" />
    <MediaItem id="278" filePath="F:\Art_and_Design\HolidayAnimation2015\Jars+Kitchen+Logos\HolidayAnimation2015\Renders\0284.png" arWidth="960" arHeight="540" duration="0" songTitle="" songArtist="" songAlbum="" songCopyrightUrl="" songArtistUrl="" songAudioFileUrl="" stabilizationMode="0" mediaItemType="2" />
    <MediaItem id="279" filePath="F:\Art_and_Design\HolidayAnimation2015\Jars+Kitchen+Logos\HolidayAnimation2015\Renders\0285.png" arWidth="960" arHeight="540" duration="0" songTitle="" songArtist="" songAlbum="" songCopyrightUrl="" songArtistUrl="" songAudioFileUrl="" stabilizationMode="0" mediaItemType="2" />
    <MediaItem id="280" filePath="F:\Art_and_Design\HolidayAnimation2015\Jars+Kitchen+Logos\HolidayAnimation2015\Renders\0286.png" arWidth="960" arHeight="540" duration="0" songTitle="" songArtist="" songAlbum="" songCopyrightUrl="" songArtistUrl="" songAudioFileUrl="" stabilizationMode="0" mediaItemType="2" />
    <MediaItem id="281" filePath="F:\Art_and_Design\HolidayAnimation2015\Jars+Kitchen+Logos\HolidayAnimation2015\Renders\0287.png" arWidth="960" arHeight="540" duration="0" songTitle="" songArtist="" songAlbum="" songCopyrightUrl="" songArtistUrl="" songAudioFileUrl="" stabilizationMode="0" mediaItemType="2" />
    <MediaItem id="282" filePath="F:\Art_and_Design\HolidayAnimation2015\Jars+Kitchen+Logos\HolidayAnimation2015\Renders\0288.png" arWidth="960" arHeight="540" duration="0" songTitle="" songArtist="" songAlbum="" songCopyrightUrl="" songArtistUrl="" songAudioFileUrl="" stabilizationMode="0" mediaItemType="2" />
    <MediaItem id="283" filePath="F:\Art_and_Design\HolidayAnimation2015\Jars+Kitchen+Logos\HolidayAnimation2015\Renders\0289.png" arWidth="960" arHeight="540" duration="0" songTitle="" songArtist="" songAlbum="" songCopyrightUrl="" songArtistUrl="" songAudioFileUrl="" stabilizationMode="0" mediaItemType="2" />
    <MediaItem id="284" filePath="F:\Art_and_Design\HolidayAnimation2015\Jars+Kitchen+Logos\HolidayAnimation2015\Renders\0290.png" arWidth="960" arHeight="540" duration="0" songTitle="" songArtist="" songAlbum="" songCopyrightUrl="" songArtistUrl="" songAudioFileUrl="" stabilizationMode="0" mediaItemType="2" />
    <MediaItem id="285" filePath="F:\Art_and_Design\HolidayAnimation2015\Jars+Kitchen+Logos\HolidayAnimation2015\Renders\0291.png" arWidth="960" arHeight="540" duration="0" songTitle="" songArtist="" songAlbum="" songCopyrightUrl="" songArtistUrl="" songAudioFileUrl="" stabilizationMode="0" mediaItemType="2" />
    <MediaItem id="286" filePath="F:\Art_and_Design\HolidayAnimation2015\Jars+Kitchen+Logos\HolidayAnimation2015\Renders\0292.png" arWidth="960" arHeight="540" duration="0" songTitle="" songArtist="" songAlbum="" songCopyrightUrl="" songArtistUrl="" songAudioFileUrl="" stabilizationMode="0" mediaItemType="2" />
    <MediaItem id="287" filePath="F:\Art_and_Design\HolidayAnimation2015\Jars+Kitchen+Logos\HolidayAnimation2015\Renders\0293.png" arWidth="960" arHeight="540" duration="0" songTitle="" songArtist="" songAlbum="" songCopyrightUrl="" songArtistUrl="" songAudioFileUrl="" stabilizationMode="0" mediaItemType="2" />
    <MediaItem id="288" filePath="F:\Art_and_Design\HolidayAnimation2015\Jars+Kitchen+Logos\HolidayAnimation2015\Renders\0294.png" arWidth="960" arHeight="540" duration="0" songTitle="" songArtist="" songAlbum="" songCopyrightUrl="" songArtistUrl="" songAudioFileUrl="" stabilizationMode="0" mediaItemType="2" />
    <MediaItem id="289" filePath="F:\Art_and_Design\HolidayAnimation2015\Jars+Kitchen+Logos\HolidayAnimation2015\Renders\0295.png" arWidth="960" arHeight="540" duration="0" songTitle="" songArtist="" songAlbum="" songCopyrightUrl="" songArtistUrl="" songAudioFileUrl="" stabilizationMode="0" mediaItemType="2" />
    <MediaItem id="290" filePath="F:\Art_and_Design\HolidayAnimation2015\Jars+Kitchen+Logos\HolidayAnimation2015\Renders\0296.png" arWidth="960" arHeight="540" duration="0" songTitle="" songArtist="" songAlbum="" songCopyrightUrl="" songArtistUrl="" songAudioFileUrl="" stabilizationMode="0" mediaItemType="2" />
    <MediaItem id="291" filePath="F:\Art_and_Design\HolidayAnimation2015\Jars+Kitchen+Logos\HolidayAnimation2015\Renders\0297.png" arWidth="960" arHeight="540" duration="0" songTitle="" songArtist="" songAlbum="" songCopyrightUrl="" songArtistUrl="" songAudioFileUrl="" stabilizationMode="0" mediaItemType="2" />
    <MediaItem id="292" filePath="F:\Art_and_Design\HolidayAnimation2015\Jars+Kitchen+Logos\HolidayAnimation2015\Renders\0298.png" arWidth="960" arHeight="540" duration="0" songTitle="" songArtist="" songAlbum="" songCopyrightUrl="" songArtistUrl="" songAudioFileUrl="" stabilizationMode="0" mediaItemType="2" />
    <MediaItem id="293" filePath="F:\Art_and_Design\HolidayAnimation2015\Jars+Kitchen+Logos\HolidayAnimation2015\Renders\0299.png" arWidth="960" arHeight="540" duration="0" songTitle="" songArtist="" songAlbum="" songCopyrightUrl="" songArtistUrl="" songAudioFileUrl="" stabilizationMode="0" mediaItemType="2" />
    <MediaItem id="294" filePath="F:\Art_and_Design\HolidayAnimation2015\Jars+Kitchen+Logos\HolidayAnimation2015\Renders\0300.png" arWidth="960" arHeight="540" duration="0" songTitle="" songArtist="" songAlbum="" songCopyrightUrl="" songArtistUrl="" songAudioFileUrl="" stabilizationMode="0" mediaItemType="2" />
    <MediaItem id="295" filePath="F:\Art_and_Design\HolidayAnimation2015\Jars+Kitchen+Logos\HolidayAnimation2015\Renders\0301.png" arWidth="960" arHeight="540" duration="0" songTitle="" songArtist="" songAlbum="" songCopyrightUrl="" songArtistUrl="" songAudioFileUrl="" stabilizationMode="0" mediaItemType="2" />
    <MediaItem id="296" filePath="F:\Art_and_Design\HolidayAnimation2015\Jars+Kitchen+Logos\HolidayAnimation2015\Renders\0302.png" arWidth="960" arHeight="540" duration="0" songTitle="" songArtist="" songAlbum="" songCopyrightUrl="" songArtistUrl="" songAudioFileUrl="" stabilizationMode="0" mediaItemType="2" />
    <MediaItem id="297" filePath="F:\Art_and_Design\HolidayAnimation2015\Jars+Kitchen+Logos\HolidayAnimation2015\Renders\0303.png" arWidth="960" arHeight="540" duration="0" songTitle="" songArtist="" songAlbum="" songCopyrightUrl="" songArtistUrl="" songAudioFileUrl="" stabilizationMode="0" mediaItemType="2" />
    <MediaItem id="298" filePath="F:\Art_and_Design\HolidayAnimation2015\Jars+Kitchen+Logos\HolidayAnimation2015\Renders\0304.png" arWidth="960" arHeight="540" duration="0" songTitle="" songArtist="" songAlbum="" songCopyrightUrl="" songArtistUrl="" songAudioFileUrl="" stabilizationMode="0" mediaItemType="2" />
    <MediaItem id="299" filePath="F:\Art_and_Design\HolidayAnimation2015\Jars+Kitchen+Logos\HolidayAnimation2015\Renders\0305.png" arWidth="960" arHeight="540" duration="0" songTitle="" songArtist="" songAlbum="" songCopyrightUrl="" songArtistUrl="" songAudioFileUrl="" stabilizationMode="0" mediaItemType="2" />
    <MediaItem id="300" filePath="F:\Art_and_Design\HolidayAnimation2015\Jars+Kitchen+Logos\HolidayAnimation2015\Renders\0306.png" arWidth="960" arHeight="540" duration="0" songTitle="" songArtist="" songAlbum="" songCopyrightUrl="" songArtistUrl="" songAudioFileUrl="" stabilizationMode="0" mediaItemType="2" />
    <MediaItem id="301" filePath="F:\Art_and_Design\HolidayAnimation2015\Jars+Kitchen+Logos\HolidayAnimation2015\Renders\0307.png" arWidth="960" arHeight="540" duration="0" songTitle="" songArtist="" songAlbum="" songCopyrightUrl="" songArtistUrl="" songAudioFileUrl="" stabilizationMode="0" mediaItemType="2" />
    <MediaItem id="302" filePath="F:\Art_and_Design\HolidayAnimation2015\Jars+Kitchen+Logos\HolidayAnimation2015\Renders\0308.png" arWidth="960" arHeight="540" duration="0" songTitle="" songArtist="" songAlbum="" songCopyrightUrl="" songArtistUrl="" songAudioFileUrl="" stabilizationMode="0" mediaItemType="2" />
    <MediaItem id="303" filePath="F:\Art_and_Design\HolidayAnimation2015\Jars+Kitchen+Logos\HolidayAnimation2015\Renders\0309.png" arWidth="960" arHeight="540" duration="0" songTitle="" songArtist="" songAlbum="" songCopyrightUrl="" songArtistUrl="" songAudioFileUrl="" stabilizationMode="0" mediaItemType="2" />
    <MediaItem id="304" filePath="F:\Art_and_Design\HolidayAnimation2015\Jars+Kitchen+Logos\HolidayAnimation2015\Renders\0310.png" arWidth="960" arHeight="540" duration="0" songTitle="" songArtist="" songAlbum="" songCopyrightUrl="" songArtistUrl="" songAudioFileUrl="" stabilizationMode="0" mediaItemType="2" />
    <MediaItem id="305" filePath="F:\Art_and_Design\HolidayAnimation2015\Jars+Kitchen+Logos\HolidayAnimation2015\Renders\0311.png" arWidth="960" arHeight="540" duration="0" songTitle="" songArtist="" songAlbum="" songCopyrightUrl="" songArtistUrl="" songAudioFileUrl="" stabilizationMode="0" mediaItemType="2" />
    <MediaItem id="306" filePath="F:\Art_and_Design\HolidayAnimation2015\Jars+Kitchen+Logos\HolidayAnimation2015\Renders\0312.png" arWidth="960" arHeight="540" duration="0" songTitle="" songArtist="" songAlbum="" songCopyrightUrl="" songArtistUrl="" songAudioFileUrl="" stabilizationMode="0" mediaItemType="2" />
    <MediaItem id="307" filePath="F:\Art_and_Design\HolidayAnimation2015\Jars+Kitchen+Logos\HolidayAnimation2015\Renders\0313.png" arWidth="960" arHeight="540" duration="0" songTitle="" songArtist="" songAlbum="" songCopyrightUrl="" songArtistUrl="" songAudioFileUrl="" stabilizationMode="0" mediaItemType="2" />
    <MediaItem id="308" filePath="F:\Art_and_Design\HolidayAnimation2015\Jars+Kitchen+Logos\HolidayAnimation2015\Renders\0314.png" arWidth="960" arHeight="540" duration="0" songTitle="" songArtist="" songAlbum="" songCopyrightUrl="" songArtistUrl="" songAudioFileUrl="" stabilizationMode="0" mediaItemType="2" />
    <MediaItem id="309" filePath="F:\Art_and_Design\HolidayAnimation2015\Jars+Kitchen+Logos\HolidayAnimation2015\Renders\0315.png" arWidth="960" arHeight="540" duration="0" songTitle="" songArtist="" songAlbum="" songCopyrightUrl="" songArtistUrl="" songAudioFileUrl="" stabilizationMode="0" mediaItemType="2" />
    <MediaItem id="310" filePath="F:\Art_and_Design\HolidayAnimation2015\Jars+Kitchen+Logos\HolidayAnimation2015\Renders\0316.png" arWidth="960" arHeight="540" duration="0" songTitle="" songArtist="" songAlbum="" songCopyrightUrl="" songArtistUrl="" songAudioFileUrl="" stabilizationMode="0" mediaItemType="2" />
    <MediaItem id="311" filePath="F:\Art_and_Design\HolidayAnimation2015\Jars+Kitchen+Logos\HolidayAnimation2015\Renders\0317.png" arWidth="960" arHeight="540" duration="0" songTitle="" songArtist="" songAlbum="" songCopyrightUrl="" songArtistUrl="" songAudioFileUrl="" stabilizationMode="0" mediaItemType="2" />
    <MediaItem id="312" filePath="F:\Art_and_Design\HolidayAnimation2015\Jars+Kitchen+Logos\HolidayAnimation2015\Renders\0318.png" arWidth="960" arHeight="540" duration="0" songTitle="" songArtist="" songAlbum="" songCopyrightUrl="" songArtistUrl="" songAudioFileUrl="" stabilizationMode="0" mediaItemType="2" />
    <MediaItem id="313" filePath="F:\Art_and_Design\HolidayAnimation2015\Jars+Kitchen+Logos\HolidayAnimation2015\Renders\0319.png" arWidth="960" arHeight="540" duration="0" songTitle="" songArtist="" songAlbum="" songCopyrightUrl="" songArtistUrl="" songAudioFileUrl="" stabilizationMode="0" mediaItemType="2" />
    <MediaItem id="314" filePath="F:\Art_and_Design\HolidayAnimation2015\Jars+Kitchen+Logos\HolidayAnimation2015\Renders\0320.png" arWidth="960" arHeight="540" duration="0" songTitle="" songArtist="" songAlbum="" songCopyrightUrl="" songArtistUrl="" songAudioFileUrl="" stabilizationMode="0" mediaItemType="2" />
    <MediaItem id="315" filePath="F:\Art_and_Design\HolidayAnimation2015\Jars+Kitchen+Logos\HolidayAnimation2015\Renders\0321.png" arWidth="960" arHeight="540" duration="0" songTitle="" songArtist="" songAlbum="" songCopyrightUrl="" songArtistUrl="" songAudioFileUrl="" stabilizationMode="0" mediaItemType="2" />
    <MediaItem id="316" filePath="F:\Art_and_Design\HolidayAnimation2015\Jars+Kitchen+Logos\HolidayAnimation2015\Renders\0322.png" arWidth="960" arHeight="540" duration="0" songTitle="" songArtist="" songAlbum="" songCopyrightUrl="" songArtistUrl="" songAudioFileUrl="" stabilizationMode="0" mediaItemType="2" />
    <MediaItem id="317" filePath="F:\Art_and_Design\HolidayAnimation2015\Jars+Kitchen+Logos\HolidayAnimation2015\Renders\0323.png" arWidth="960" arHeight="540" duration="0" songTitle="" songArtist="" songAlbum="" songCopyrightUrl="" songArtistUrl="" songAudioFileUrl="" stabilizationMode="0" mediaItemType="2" />
    <MediaItem id="318" filePath="F:\Art_and_Design\HolidayAnimation2015\Jars+Kitchen+Logos\HolidayAnimation2015\Renders\0324.png" arWidth="960" arHeight="540" duration="0" songTitle="" songArtist="" songAlbum="" songCopyrightUrl="" songArtistUrl="" songAudioFileUrl="" stabilizationMode="0" mediaItemType="2" />
    <MediaItem id="319" filePath="F:\Art_and_Design\HolidayAnimation2015\Jars+Kitchen+Logos\HolidayAnimation2015\Renders\0325.png" arWidth="960" arHeight="540" duration="0" songTitle="" songArtist="" songAlbum="" songCopyrightUrl="" songArtistUrl="" songAudioFileUrl="" stabilizationMode="0" mediaItemType="2" />
    <MediaItem id="320" filePath="F:\Art_and_Design\HolidayAnimation2015\Jars+Kitchen+Logos\HolidayAnimation2015\Renders\0326.png" arWidth="960" arHeight="540" duration="0" songTitle="" songArtist="" songAlbum="" songCopyrightUrl="" songArtistUrl="" songAudioFileUrl="" stabilizationMode="0" mediaItemType="2" />
    <MediaItem id="321" filePath="F:\Art_and_Design\HolidayAnimation2015\Jars+Kitchen+Logos\HolidayAnimation2015\Renders\0327.png" arWidth="960" arHeight="540" duration="0" songTitle="" songArtist="" songAlbum="" songCopyrightUrl="" songArtistUrl="" songAudioFileUrl="" stabilizationMode="0" mediaItemType="2" />
    <MediaItem id="322" filePath="F:\Art_and_Design\HolidayAnimation2015\Jars+Kitchen+Logos\HolidayAnimation2015\Renders\0328.png" arWidth="960" arHeight="540" duration="0" songTitle="" songArtist="" songAlbum="" songCopyrightUrl="" songArtistUrl="" songAudioFileUrl="" stabilizationMode="0" mediaItemType="2" />
    <MediaItem id="323" filePath="F:\Art_and_Design\HolidayAnimation2015\Jars+Kitchen+Logos\HolidayAnimation2015\Renders\0329.png" arWidth="960" arHeight="540" duration="0" songTitle="" songArtist="" songAlbum="" songCopyrightUrl="" songArtistUrl="" songAudioFileUrl="" stabilizationMode="0" mediaItemType="2" />
    <MediaItem id="324" filePath="F:\Art_and_Design\HolidayAnimation2015\Jars+Kitchen+Logos\HolidayAnimation2015\Renders\0330.png" arWidth="960" arHeight="540" duration="0" songTitle="" songArtist="" songAlbum="" songCopyrightUrl="" songArtistUrl="" songAudioFileUrl="" stabilizationMode="0" mediaItemType="2" />
    <MediaItem id="325" filePath="F:\Art_and_Design\HolidayAnimation2015\Jars+Kitchen+Logos\HolidayAnimation2015\Renders\0331.png" arWidth="960" arHeight="540" duration="0" songTitle="" songArtist="" songAlbum="" songCopyrightUrl="" songArtistUrl="" songAudioFileUrl="" stabilizationMode="0" mediaItemType="2" />
    <MediaItem id="326" filePath="F:\Art_and_Design\HolidayAnimation2015\Jars+Kitchen+Logos\HolidayAnimation2015\Renders\0332.png" arWidth="960" arHeight="540" duration="0" songTitle="" songArtist="" songAlbum="" songCopyrightUrl="" songArtistUrl="" songAudioFileUrl="" stabilizationMode="0" mediaItemType="2" />
    <MediaItem id="327" filePath="F:\Art_and_Design\HolidayAnimation2015\Jars+Kitchen+Logos\HolidayAnimation2015\Renders\0333.png" arWidth="960" arHeight="540" duration="0" songTitle="" songArtist="" songAlbum="" songCopyrightUrl="" songArtistUrl="" songAudioFileUrl="" stabilizationMode="0" mediaItemType="2" />
    <MediaItem id="328" filePath="F:\Art_and_Design\HolidayAnimation2015\Jars+Kitchen+Logos\HolidayAnimation2015\Renders\0334.png" arWidth="960" arHeight="540" duration="0" songTitle="" songArtist="" songAlbum="" songCopyrightUrl="" songArtistUrl="" songAudioFileUrl="" stabilizationMode="0" mediaItemType="2" />
    <MediaItem id="329" filePath="F:\Art_and_Design\HolidayAnimation2015\Jars+Kitchen+Logos\HolidayAnimation2015\Renders\0335.png" arWidth="960" arHeight="540" duration="0" songTitle="" songArtist="" songAlbum="" songCopyrightUrl="" songArtistUrl="" songAudioFileUrl="" stabilizationMode="0" mediaItemType="2" />
    <MediaItem id="330" filePath="F:\Art_and_Design\HolidayAnimation2015\Jars+Kitchen+Logos\HolidayAnimation2015\Renders\0336.png" arWidth="960" arHeight="540" duration="0" songTitle="" songArtist="" songAlbum="" songCopyrightUrl="" songArtistUrl="" songAudioFileUrl="" stabilizationMode="0" mediaItemType="2" />
    <MediaItem id="331" filePath="F:\Art_and_Design\HolidayAnimation2015\Jars+Kitchen+Logos\HolidayAnimation2015\Renders\0337.png" arWidth="960" arHeight="540" duration="0" songTitle="" songArtist="" songAlbum="" songCopyrightUrl="" songArtistUrl="" songAudioFileUrl="" stabilizationMode="0" mediaItemType="2" />
    <MediaItem id="332" filePath="F:\Art_and_Design\HolidayAnimation2015\Jars+Kitchen+Logos\HolidayAnimation2015\Renders\0338.png" arWidth="960" arHeight="540" duration="0" songTitle="" songArtist="" songAlbum="" songCopyrightUrl="" songArtistUrl="" songAudioFileUrl="" stabilizationMode="0" mediaItemType="2" />
    <MediaItem id="333" filePath="F:\Art_and_Design\HolidayAnimation2015\Jars+Kitchen+Logos\HolidayAnimation2015\Renders\0339.png" arWidth="960" arHeight="540" duration="0" songTitle="" songArtist="" songAlbum="" songCopyrightUrl="" songArtistUrl="" songAudioFileUrl="" stabilizationMode="0" mediaItemType="2" />
    <MediaItem id="334" filePath="F:\Art_and_Design\HolidayAnimation2015\Jars+Kitchen+Logos\HolidayAnimation2015\Renders\0340.png" arWidth="960" arHeight="540" duration="0" songTitle="" songArtist="" songAlbum="" songCopyrightUrl="" songArtistUrl="" songAudioFileUrl="" stabilizationMode="0" mediaItemType="2" />
    <MediaItem id="335" filePath="F:\Art_and_Design\HolidayAnimation2015\Jars+Kitchen+Logos\HolidayAnimation2015\Renders\0341.png" arWidth="960" arHeight="540" duration="0" songTitle="" songArtist="" songAlbum="" songCopyrightUrl="" songArtistUrl="" songAudioFileUrl="" stabilizationMode="0" mediaItemType="2" />
    <MediaItem id="336" filePath="F:\Art_and_Design\HolidayAnimation2015\Jars+Kitchen+Logos\HolidayAnimation2015\Renders\0342.png" arWidth="960" arHeight="540" duration="0" songTitle="" songArtist="" songAlbum="" songCopyrightUrl="" songArtistUrl="" songAudioFileUrl="" stabilizationMode="0" mediaItemType="2" />
    <MediaItem id="337" filePath="F:\Art_and_Design\HolidayAnimation2015\Jars+Kitchen+Logos\HolidayAnimation2015\Renders\0343.png" arWidth="960" arHeight="540" duration="0" songTitle="" songArtist="" songAlbum="" songCopyrightUrl="" songArtistUrl="" songAudioFileUrl="" stabilizationMode="0" mediaItemType="2" />
    <MediaItem id="338" filePath="F:\Art_and_Design\HolidayAnimation2015\Jars+Kitchen+Logos\HolidayAnimation2015\Renders\0344.png" arWidth="960" arHeight="540" duration="0" songTitle="" songArtist="" songAlbum="" songCopyrightUrl="" songArtistUrl="" songAudioFileUrl="" stabilizationMode="0" mediaItemType="2" />
    <MediaItem id="339" filePath="F:\Art_and_Design\HolidayAnimation2015\Jars+Kitchen+Logos\HolidayAnimation2015\Renders\0345.png" arWidth="960" arHeight="540" duration="0" songTitle="" songArtist="" songAlbum="" songCopyrightUrl="" songArtistUrl="" songAudioFileUrl="" stabilizationMode="0" mediaItemType="2" />
    <MediaItem id="340" filePath="F:\Art_and_Design\HolidayAnimation2015\Jars+Kitchen+Logos\HolidayAnimation2015\Renders\0346.png" arWidth="960" arHeight="540" duration="0" songTitle="" songArtist="" songAlbum="" songCopyrightUrl="" songArtistUrl="" songAudioFileUrl="" stabilizationMode="0" mediaItemType="2" />
    <MediaItem id="341" filePath="F:\Art_and_Design\HolidayAnimation2015\Jars+Kitchen+Logos\HolidayAnimation2015\Renders\0347.png" arWidth="960" arHeight="540" duration="0" songTitle="" songArtist="" songAlbum="" songCopyrightUrl="" songArtistUrl="" songAudioFileUrl="" stabilizationMode="0" mediaItemType="2" />
    <MediaItem id="342" filePath="F:\Art_and_Design\HolidayAnimation2015\Jars+Kitchen+Logos\HolidayAnimation2015\Renders\0348.png" arWidth="960" arHeight="540" duration="0" songTitle="" songArtist="" songAlbum="" songCopyrightUrl="" songArtistUrl="" songAudioFileUrl="" stabilizationMode="0" mediaItemType="2" />
    <MediaItem id="343" filePath="F:\Art_and_Design\HolidayAnimation2015\Jars+Kitchen+Logos\HolidayAnimation2015\Renders\0349.png" arWidth="960" arHeight="540" duration="0" songTitle="" songArtist="" songAlbum="" songCopyrightUrl="" songArtistUrl="" songAudioFileUrl="" stabilizationMode="0" mediaItemType="2" />
    <MediaItem id="344" filePath="F:\Art_and_Design\HolidayAnimation2015\Jars+Kitchen+Logos\HolidayAnimation2015\Renders\0350.png" arWidth="960" arHeight="540" duration="0" songTitle="" songArtist="" songAlbum="" songCopyrightUrl="" songArtistUrl="" songAudioFileUrl="" stabilizationMode="0" mediaItemType="2" />
    <MediaItem id="345" filePath="F:\Art_and_Design\HolidayAnimation2015\Jars+Kitchen+Logos\HolidayAnimation2015\Renders\0351.png" arWidth="960" arHeight="540" duration="0" songTitle="" songArtist="" songAlbum="" songCopyrightUrl="" songArtistUrl="" songAudioFileUrl="" stabilizationMode="0" mediaItemType="2" />
    <MediaItem id="346" filePath="F:\Art_and_Design\HolidayAnimation2015\Jars+Kitchen+Logos\HolidayAnimation2015\Renders\0352.png" arWidth="960" arHeight="540" duration="0" songTitle="" songArtist="" songAlbum="" songCopyrightUrl="" songArtistUrl="" songAudioFileUrl="" stabilizationMode="0" mediaItemType="2" />
    <MediaItem id="347" filePath="F:\Art_and_Design\HolidayAnimation2015\Jars+Kitchen+Logos\HolidayAnimation2015\Renders\0353.png" arWidth="960" arHeight="540" duration="0" songTitle="" songArtist="" songAlbum="" songCopyrightUrl="" songArtistUrl="" songAudioFileUrl="" stabilizationMode="0" mediaItemType="2" />
    <MediaItem id="348" filePath="F:\Art_and_Design\HolidayAnimation2015\Jars+Kitchen+Logos\HolidayAnimation2015\Renders\0354.png" arWidth="960" arHeight="540" duration="0" songTitle="" songArtist="" songAlbum="" songCopyrightUrl="" songArtistUrl="" songAudioFileUrl="" stabilizationMode="0" mediaItemType="2" />
    <MediaItem id="349" filePath="F:\Art_and_Design\HolidayAnimation2015\Jars+Kitchen+Logos\HolidayAnimation2015\Renders\0355.png" arWidth="960" arHeight="540" duration="0" songTitle="" songArtist="" songAlbum="" songCopyrightUrl="" songArtistUrl="" songAudioFileUrl="" stabilizationMode="0" mediaItemType="2" />
    <MediaItem id="350" filePath="F:\Art_and_Design\HolidayAnimation2015\Jars+Kitchen+Logos\HolidayAnimation2015\Renders\0356.png" arWidth="960" arHeight="540" duration="0" songTitle="" songArtist="" songAlbum="" songCopyrightUrl="" songArtistUrl="" songAudioFileUrl="" stabilizationMode="0" mediaItemType="2" />
    <MediaItem id="351" filePath="F:\Art_and_Design\HolidayAnimation2015\Jars+Kitchen+Logos\HolidayAnimation2015\Renders\0357.png" arWidth="960" arHeight="540" duration="0" songTitle="" songArtist="" songAlbum="" songCopyrightUrl="" songArtistUrl="" songAudioFileUrl="" stabilizationMode="0" mediaItemType="2" />
    <MediaItem id="352" filePath="F:\Art_and_Design\HolidayAnimation2015\Jars+Kitchen+Logos\HolidayAnimation2015\Renders\0358.png" arWidth="960" arHeight="540" duration="0" songTitle="" songArtist="" songAlbum="" songCopyrightUrl="" songArtistUrl="" songAudioFileUrl="" stabilizationMode="0" mediaItemType="2" />
    <MediaItem id="353" filePath="F:\Art_and_Design\HolidayAnimation2015\Jars+Kitchen+Logos\HolidayAnimation2015\Renders\0359.png" arWidth="960" arHeight="540" duration="0" songTitle="" songArtist="" songAlbum="" songCopyrightUrl="" songArtistUrl="" songAudioFileUrl="" stabilizationMode="0" mediaItemType="2" />
    <MediaItem id="354" filePath="F:\Art_and_Design\HolidayAnimation2015\Jars+Kitchen+Logos\HolidayAnimation2015\Renders\0360.png" arWidth="960" arHeight="540" duration="0" songTitle="" songArtist="" songAlbum="" songCopyrightUrl="" songArtistUrl="" songAudioFileUrl="" stabilizationMode="0" mediaItemType="2" />
    <MediaItem id="355" filePath="F:\Art_and_Design\HolidayAnimation2015\Jars+Kitchen+Logos\HolidayAnimation2015\Renders\0361.png" arWidth="960" arHeight="540" duration="0" songTitle="" songArtist="" songAlbum="" songCopyrightUrl="" songArtistUrl="" songAudioFileUrl="" stabilizationMode="0" mediaItemType="2" />
    <MediaItem id="356" filePath="F:\Art_and_Design\HolidayAnimation2015\Jars+Kitchen+Logos\HolidayAnimation2015\Renders\0362.png" arWidth="960" arHeight="540" duration="0" songTitle="" songArtist="" songAlbum="" songCopyrightUrl="" songArtistUrl="" songAudioFileUrl="" stabilizationMode="0" mediaItemType="2" />
    <MediaItem id="357" filePath="F:\Art_and_Design\HolidayAnimation2015\Jars+Kitchen+Logos\HolidayAnimation2015\Renders\0363.png" arWidth="960" arHeight="540" duration="0" songTitle="" songArtist="" songAlbum="" songCopyrightUrl="" songArtistUrl="" songAudioFileUrl="" stabilizationMode="0" mediaItemType="2" />
    <MediaItem id="358" filePath="F:\Art_and_Design\HolidayAnimation2015\Jars+Kitchen+Logos\HolidayAnimation2015\Renders\0364.png" arWidth="960" arHeight="540" duration="0" songTitle="" songArtist="" songAlbum="" songCopyrightUrl="" songArtistUrl="" songAudioFileUrl="" stabilizationMode="0" mediaItemType="2" />
    <MediaItem id="359" filePath="F:\Art_and_Design\HolidayAnimation2015\Jars+Kitchen+Logos\HolidayAnimation2015\Renders\0365.png" arWidth="960" arHeight="540" duration="0" songTitle="" songArtist="" songAlbum="" songCopyrightUrl="" songArtistUrl="" songAudioFileUrl="" stabilizationMode="0" mediaItemType="2" />
    <MediaItem id="360" filePath="F:\Art_and_Design\HolidayAnimation2015\Jars+Kitchen+Logos\HolidayAnimation2015\Renders\0366.png" arWidth="960" arHeight="540" duration="0" songTitle="" songArtist="" songAlbum="" songCopyrightUrl="" songArtistUrl="" songAudioFileUrl="" stabilizationMode="0" mediaItemType="2" />
    <MediaItem id="361" filePath="F:\Art_and_Design\HolidayAnimation2015\Jars+Kitchen+Logos\HolidayAnimation2015\Renders\0367.png" arWidth="960" arHeight="540" duration="0" songTitle="" songArtist="" songAlbum="" songCopyrightUrl="" songArtistUrl="" songAudioFileUrl="" stabilizationMode="0" mediaItemType="2" />
    <MediaItem id="362" filePath="F:\Art_and_Design\HolidayAnimation2015\Jars+Kitchen+Logos\HolidayAnimation2015\Renders\0368.png" arWidth="960" arHeight="540" duration="0" songTitle="" songArtist="" songAlbum="" songCopyrightUrl="" songArtistUrl="" songAudioFileUrl="" stabilizationMode="0" mediaItemType="2" />
    <MediaItem id="363" filePath="F:\Art_and_Design\HolidayAnimation2015\Jars+Kitchen+Logos\HolidayAnimation2015\Renders\0369.png" arWidth="960" arHeight="540" duration="0" songTitle="" songArtist="" songAlbum="" songCopyrightUrl="" songArtistUrl="" songAudioFileUrl="" stabilizationMode="0" mediaItemType="2" />
    <MediaItem id="364" filePath="F:\Art_and_Design\HolidayAnimation2015\Jars+Kitchen+Logos\HolidayAnimation2015\Renders\0370.png" arWidth="960" arHeight="540" duration="0" songTitle="" songArtist="" songAlbum="" songCopyrightUrl="" songArtistUrl="" songAudioFileUrl="" stabilizationMode="0" mediaItemType="2" />
    <MediaItem id="365" filePath="F:\Art_and_Design\HolidayAnimation2015\Jars+Kitchen+Logos\HolidayAnimation2015\Renders\0371.png" arWidth="960" arHeight="540" duration="0" songTitle="" songArtist="" songAlbum="" songCopyrightUrl="" songArtistUrl="" songAudioFileUrl="" stabilizationMode="0" mediaItemType="2" />
    <MediaItem id="366" filePath="F:\Art_and_Design\HolidayAnimation2015\Jars+Kitchen+Logos\HolidayAnimation2015\Renders\0372.png" arWidth="960" arHeight="540" duration="0" songTitle="" songArtist="" songAlbum="" songCopyrightUrl="" songArtistUrl="" songAudioFileUrl="" stabilizationMode="0" mediaItemType="2" />
    <MediaItem id="367" filePath="F:\Art_and_Design\HolidayAnimation2015\Jars+Kitchen+Logos\HolidayAnimation2015\Renders\0373.png" arWidth="960" arHeight="540" duration="0" songTitle="" songArtist="" songAlbum="" songCopyrightUrl="" songArtistUrl="" songAudioFileUrl="" stabilizationMode="0" mediaItemType="2" />
    <MediaItem id="368" filePath="F:\Art_and_Design\HolidayAnimation2015\Jars+Kitchen+Logos\HolidayAnimation2015\Renders\0374.png" arWidth="960" arHeight="540" duration="0" songTitle="" songArtist="" songAlbum="" songCopyrightUrl="" songArtistUrl="" songAudioFileUrl="" stabilizationMode="0" mediaItemType="2" />
    <MediaItem id="369" filePath="F:\Art_and_Design\HolidayAnimation2015\Jars+Kitchen+Logos\HolidayAnimation2015\Renders\0375.png" arWidth="960" arHeight="540" duration="0" songTitle="" songArtist="" songAlbum="" songCopyrightUrl="" songArtistUrl="" songAudioFileUrl="" stabilizationMode="0" mediaItemType="2" />
    <MediaItem id="370" filePath="F:\Art_and_Design\HolidayAnimation2015\Jars+Kitchen+Logos\HolidayAnimation2015\Renders\0376.png" arWidth="960" arHeight="540" duration="0" songTitle="" songArtist="" songAlbum="" songCopyrightUrl="" songArtistUrl="" songAudioFileUrl="" stabilizationMode="0" mediaItemType="2" />
    <MediaItem id="371" filePath="F:\Art_and_Design\HolidayAnimation2015\Jars+Kitchen+Logos\HolidayAnimation2015\Renders\0377.png" arWidth="960" arHeight="540" duration="0" songTitle="" songArtist="" songAlbum="" songCopyrightUrl="" songArtistUrl="" songAudioFileUrl="" stabilizationMode="0" mediaItemType="2" />
    <MediaItem id="372" filePath="F:\Art_and_Design\HolidayAnimation2015\Jars+Kitchen+Logos\HolidayAnimation2015\Renders\0378.png" arWidth="960" arHeight="540" duration="0" songTitle="" songArtist="" songAlbum="" songCopyrightUrl="" songArtistUrl="" songAudioFileUrl="" stabilizationMode="0" mediaItemType="2" />
    <MediaItem id="373" filePath="F:\Art_and_Design\HolidayAnimation2015\Jars+Kitchen+Logos\HolidayAnimation2015\Renders\0379.png" arWidth="960" arHeight="540" duration="0" songTitle="" songArtist="" songAlbum="" songCopyrightUrl="" songArtistUrl="" songAudioFileUrl="" stabilizationMode="0" mediaItemType="2" />
    <MediaItem id="374" filePath="F:\Art_and_Design\HolidayAnimation2015\Jars+Kitchen+Logos\HolidayAnimation2015\Renders\0380.png" arWidth="960" arHeight="540" duration="0" songTitle="" songArtist="" songAlbum="" songCopyrightUrl="" songArtistUrl="" songAudioFileUrl="" stabilizationMode="0" mediaItemType="2" />
    <MediaItem id="375" filePath="F:\Art_and_Design\HolidayAnimation2015\Jars+Kitchen+Logos\HolidayAnimation2015\Renders\0381.png" arWidth="960" arHeight="540" duration="0" songTitle="" songArtist="" songAlbum="" songCopyrightUrl="" songArtistUrl="" songAudioFileUrl="" stabilizationMode="0" mediaItemType="2" />
    <MediaItem id="376" filePath="F:\Art_and_Design\HolidayAnimation2015\Jars+Kitchen+Logos\HolidayAnimation2015\Renders\0382.png" arWidth="960" arHeight="540" duration="0" songTitle="" songArtist="" songAlbum="" songCopyrightUrl="" songArtistUrl="" songAudioFileUrl="" stabilizationMode="0" mediaItemType="2" />
    <MediaItem id="377" filePath="F:\Art_and_Design\HolidayAnimation2015\Jars+Kitchen+Logos\HolidayAnimation2015\Renders\0383.png" arWidth="960" arHeight="540" duration="0" songTitle="" songArtist="" songAlbum="" songCopyrightUrl="" songArtistUrl="" songAudioFileUrl="" stabilizationMode="0" mediaItemType="2" />
    <MediaItem id="378" filePath="F:\Art_and_Design\HolidayAnimation2015\Jars+Kitchen+Logos\HolidayAnimation2015\Renders\0384.png" arWidth="960" arHeight="540" duration="0" songTitle="" songArtist="" songAlbum="" songCopyrightUrl="" songArtistUrl="" songAudioFileUrl="" stabilizationMode="0" mediaItemType="2" />
    <MediaItem id="379" filePath="F:\Art_and_Design\HolidayAnimation2015\Jars+Kitchen+Logos\HolidayAnimation2015\Renders\0385.png" arWidth="960" arHeight="540" duration="0" songTitle="" songArtist="" songAlbum="" songCopyrightUrl="" songArtistUrl="" songAudioFileUrl="" stabilizationMode="0" mediaItemType="2" />
    <MediaItem id="380" filePath="F:\Art_and_Design\HolidayAnimation2015\Jars+Kitchen+Logos\HolidayAnimation2015\Renders\0386.png" arWidth="960" arHeight="540" duration="0" songTitle="" songArtist="" songAlbum="" songCopyrightUrl="" songArtistUrl="" songAudioFileUrl="" stabilizationMode="0" mediaItemType="2" />
    <MediaItem id="381" filePath="F:\Art_and_Design\HolidayAnimation2015\Jars+Kitchen+Logos\HolidayAnimation2015\Renders\0387.png" arWidth="960" arHeight="540" duration="0" songTitle="" songArtist="" songAlbum="" songCopyrightUrl="" songArtistUrl="" songAudioFileUrl="" stabilizationMode="0" mediaItemType="2" />
    <MediaItem id="382" filePath="F:\Art_and_Design\HolidayAnimation2015\Jars+Kitchen+Logos\HolidayAnimation2015\Renders\0388.png" arWidth="960" arHeight="540" duration="0" songTitle="" songArtist="" songAlbum="" songCopyrightUrl="" songArtistUrl="" songAudioFileUrl="" stabilizationMode="0" mediaItemType="2" />
    <MediaItem id="383" filePath="F:\Art_and_Design\HolidayAnimation2015\Jars+Kitchen+Logos\HolidayAnimation2015\Renders\0389.png" arWidth="960" arHeight="540" duration="0" songTitle="" songArtist="" songAlbum="" songCopyrightUrl="" songArtistUrl="" songAudioFileUrl="" stabilizationMode="0" mediaItemType="2" />
    <MediaItem id="384" filePath="F:\Art_and_Design\HolidayAnimation2015\Jars+Kitchen+Logos\HolidayAnimation2015\Renders\0390.png" arWidth="960" arHeight="540" duration="0" songTitle="" songArtist="" songAlbum="" songCopyrightUrl="" songArtistUrl="" songAudioFileUrl="" stabilizationMode="0" mediaItemType="2" />
    <MediaItem id="385" filePath="F:\Art_and_Design\HolidayAnimation2015\Jars+Kitchen+Logos\HolidayAnimation2015\Renders\0391.png" arWidth="960" arHeight="540" duration="0" songTitle="" songArtist="" songAlbum="" songCopyrightUrl="" songArtistUrl="" songAudioFileUrl="" stabilizationMode="0" mediaItemType="2" />
    <MediaItem id="386" filePath="F:\Art_and_Design\HolidayAnimation2015\Jars+Kitchen+Logos\HolidayAnimation2015\Renders\0392.png" arWidth="960" arHeight="540" duration="0" songTitle="" songArtist="" songAlbum="" songCopyrightUrl="" songArtistUrl="" songAudioFileUrl="" stabilizationMode="0" mediaItemType="2" />
    <MediaItem id="387" filePath="F:\Art_and_Design\HolidayAnimation2015\Jars+Kitchen+Logos\HolidayAnimation2015\Renders\0393.png" arWidth="960" arHeight="540" duration="0" songTitle="" songArtist="" songAlbum="" songCopyrightUrl="" songArtistUrl="" songAudioFileUrl="" stabilizationMode="0" mediaItemType="2" />
    <MediaItem id="388" filePath="F:\Art_and_Design\HolidayAnimation2015\Jars+Kitchen+Logos\HolidayAnimation2015\Renders\0394.png" arWidth="960" arHeight="540" duration="0" songTitle="" songArtist="" songAlbum="" songCopyrightUrl="" songArtistUrl="" songAudioFileUrl="" stabilizationMode="0" mediaItemType="2" />
    <MediaItem id="389" filePath="F:\Art_and_Design\HolidayAnimation2015\Jars+Kitchen+Logos\HolidayAnimation2015\Renders\0395.png" arWidth="960" arHeight="540" duration="0" songTitle="" songArtist="" songAlbum="" songCopyrightUrl="" songArtistUrl="" songAudioFileUrl="" stabilizationMode="0" mediaItemType="2" />
    <MediaItem id="390" filePath="F:\Art_and_Design\HolidayAnimation2015\Jars+Kitchen+Logos\HolidayAnimation2015\Renders\0396.png" arWidth="960" arHeight="540" duration="0" songTitle="" songArtist="" songAlbum="" songCopyrightUrl="" songArtistUrl="" songAudioFileUrl="" stabilizationMode="0" mediaItemType="2" />
    <MediaItem id="391" filePath="F:\Art_and_Design\HolidayAnimation2015\Jars+Kitchen+Logos\HolidayAnimation2015\Renders\0397.png" arWidth="960" arHeight="540" duration="0" songTitle="" songArtist="" songAlbum="" songCopyrightUrl="" songArtistUrl="" songAudioFileUrl="" stabilizationMode="0" mediaItemType="2" />
    <MediaItem id="392" filePath="F:\Art_and_Design\HolidayAnimation2015\Jars+Kitchen+Logos\HolidayAnimation2015\Renders\0398.png" arWidth="960" arHeight="540" duration="0" songTitle="" songArtist="" songAlbum="" songCopyrightUrl="" songArtistUrl="" songAudioFileUrl="" stabilizationMode="0" mediaItemType="2" />
    <MediaItem id="393" filePath="F:\Art_and_Design\HolidayAnimation2015\Jars+Kitchen+Logos\HolidayAnimation2015\Renders\0399.png" arWidth="960" arHeight="540" duration="0" songTitle="" songArtist="" songAlbum="" songCopyrightUrl="" songArtistUrl="" songAudioFileUrl="" stabilizationMode="0" mediaItemType="2" />
    <MediaItem id="394" filePath="F:\Art_and_Design\HolidayAnimation2015\Jars+Kitchen+Logos\HolidayAnimation2015\Renders\0400.png" arWidth="960" arHeight="540" duration="0" songTitle="" songArtist="" songAlbum="" songCopyrightUrl="" songArtistUrl="" songAudioFileUrl="" stabilizationMode="0" mediaItemType="2" />
    <MediaItem id="395" filePath="F:\Art_and_Design\HolidayAnimation2015\Jars+Kitchen+Logos\HolidayAnimation2015\Renders\0401.png" arWidth="960" arHeight="540" duration="0" songTitle="" songArtist="" songAlbum="" songCopyrightUrl="" songArtistUrl="" songAudioFileUrl="" stabilizationMode="0" mediaItemType="2" />
    <MediaItem id="396" filePath="F:\Art_and_Design\HolidayAnimation2015\Jars+Kitchen+Logos\HolidayAnimation2015\Renders\0402.png" arWidth="960" arHeight="540" duration="0" songTitle="" songArtist="" songAlbum="" songCopyrightUrl="" songArtistUrl="" songAudioFileUrl="" stabilizationMode="0" mediaItemType="2" />
    <MediaItem id="397" filePath="F:\Art_and_Design\HolidayAnimation2015\Jars+Kitchen+Logos\HolidayAnimation2015\Renders\0403.png" arWidth="960" arHeight="540" duration="0" songTitle="" songArtist="" songAlbum="" songCopyrightUrl="" songArtistUrl="" songAudioFileUrl="" stabilizationMode="0" mediaItemType="2" />
    <MediaItem id="398" filePath="F:\Art_and_Design\HolidayAnimation2015\Jars+Kitchen+Logos\HolidayAnimation2015\Renders\0404.png" arWidth="960" arHeight="540" duration="0" songTitle="" songArtist="" songAlbum="" songCopyrightUrl="" songArtistUrl="" songAudioFileUrl="" stabilizationMode="0" mediaItemType="2" />
    <MediaItem id="399" filePath="F:\Art_and_Design\HolidayAnimation2015\Jars+Kitchen+Logos\HolidayAnimation2015\Renders\0405.png" arWidth="960" arHeight="540" duration="0" songTitle="" songArtist="" songAlbum="" songCopyrightUrl="" songArtistUrl="" songAudioFileUrl="" stabilizationMode="0" mediaItemType="2" />
    <MediaItem id="400" filePath="F:\Art_and_Design\HolidayAnimation2015\Jars+Kitchen+Logos\HolidayAnimation2015\Renders\0406.png" arWidth="960" arHeight="540" duration="0" songTitle="" songArtist="" songAlbum="" songCopyrightUrl="" songArtistUrl="" songAudioFileUrl="" stabilizationMode="0" mediaItemType="2" />
    <MediaItem id="401" filePath="F:\Art_and_Design\HolidayAnimation2015\Jars+Kitchen+Logos\HolidayAnimation2015\Renders\0407.png" arWidth="960" arHeight="540" duration="0" songTitle="" songArtist="" songAlbum="" songCopyrightUrl="" songArtistUrl="" songAudioFileUrl="" stabilizationMode="0" mediaItemType="2" />
    <MediaItem id="402" filePath="F:\Art_and_Design\HolidayAnimation2015\Jars+Kitchen+Logos\HolidayAnimation2015\Renders\0408.png" arWidth="960" arHeight="540" duration="0" songTitle="" songArtist="" songAlbum="" songCopyrightUrl="" songArtistUrl="" songAudioFileUrl="" stabilizationMode="0" mediaItemType="2" />
    <MediaItem id="403" filePath="F:\Art_and_Design\HolidayAnimation2015\Jars+Kitchen+Logos\HolidayAnimation2015\Renders\0409.png" arWidth="960" arHeight="540" duration="0" songTitle="" songArtist="" songAlbum="" songCopyrightUrl="" songArtistUrl="" songAudioFileUrl="" stabilizationMode="0" mediaItemType="2" />
    <MediaItem id="404" filePath="F:\Art_and_Design\HolidayAnimation2015\Jars+Kitchen+Logos\HolidayAnimation2015\Renders\0410.png" arWidth="960" arHeight="540" duration="0" songTitle="" songArtist="" songAlbum="" songCopyrightUrl="" songArtistUrl="" songAudioFileUrl="" stabilizationMode="0" mediaItemType="2" />
    <MediaItem id="405" filePath="F:\Art_and_Design\HolidayAnimation2015\Jars+Kitchen+Logos\HolidayAnimation2015\Renders\0411.png" arWidth="960" arHeight="540" duration="0" songTitle="" songArtist="" songAlbum="" songCopyrightUrl="" songArtistUrl="" songAudioFileUrl="" stabilizationMode="0" mediaItemType="2" />
    <MediaItem id="406" filePath="F:\Art_and_Design\HolidayAnimation2015\Jars+Kitchen+Logos\HolidayAnimation2015\Renders\0412.png" arWidth="960" arHeight="540" duration="0" songTitle="" songArtist="" songAlbum="" songCopyrightUrl="" songArtistUrl="" songAudioFileUrl="" stabilizationMode="0" mediaItemType="2" />
    <MediaItem id="407" filePath="F:\Art_and_Design\HolidayAnimation2015\Jars+Kitchen+Logos\HolidayAnimation2015\Renders\0413.png" arWidth="960" arHeight="540" duration="0" songTitle="" songArtist="" songAlbum="" songCopyrightUrl="" songArtistUrl="" songAudioFileUrl="" stabilizationMode="0" mediaItemType="2" />
    <MediaItem id="408" filePath="F:\Art_and_Design\HolidayAnimation2015\Jars+Kitchen+Logos\HolidayAnimation2015\Renders\0414.png" arWidth="960" arHeight="540" duration="0" songTitle="" songArtist="" songAlbum="" songCopyrightUrl="" songArtistUrl="" songAudioFileUrl="" stabilizationMode="0" mediaItemType="2" />
    <MediaItem id="409" filePath="F:\Art_and_Design\HolidayAnimation2015\Jars+Kitchen+Logos\HolidayAnimation2015\Renders\0415.png" arWidth="960" arHeight="540" duration="0" songTitle="" songArtist="" songAlbum="" songCopyrightUrl="" songArtistUrl="" songAudioFileUrl="" stabilizationMode="0" mediaItemType="2" />
    <MediaItem id="410" filePath="F:\Art_and_Design\HolidayAnimation2015\Jars+Kitchen+Logos\HolidayAnimation2015\Renders\0416.png" arWidth="960" arHeight="540" duration="0" songTitle="" songArtist="" songAlbum="" songCopyrightUrl="" songArtistUrl="" songAudioFileUrl="" stabilizationMode="0" mediaItemType="2" />
    <MediaItem id="411" filePath="F:\Art_and_Design\HolidayAnimation2015\Jars+Kitchen+Logos\HolidayAnimation2015\Renders\0417.png" arWidth="960" arHeight="540" duration="0" songTitle="" songArtist="" songAlbum="" songCopyrightUrl="" songArtistUrl="" songAudioFileUrl="" stabilizationMode="0" mediaItemType="2" />
    <MediaItem id="412" filePath="F:\Art_and_Design\HolidayAnimation2015\Jars+Kitchen+Logos\HolidayAnimation2015\Renders\0418.png" arWidth="960" arHeight="540" duration="0" songTitle="" songArtist="" songAlbum="" songCopyrightUrl="" songArtistUrl="" songAudioFileUrl="" stabilizationMode="0" mediaItemType="2" />
    <MediaItem id="413" filePath="F:\Art_and_Design\HolidayAnimation2015\Jars+Kitchen+Logos\HolidayAnimation2015\Renders\0419.png" arWidth="960" arHeight="540" duration="0" songTitle="" songArtist="" songAlbum="" songCopyrightUrl="" songArtistUrl="" songAudioFileUrl="" stabilizationMode="0" mediaItemType="2" />
    <MediaItem id="414" filePath="F:\Art_and_Design\HolidayAnimation2015\Jars+Kitchen+Logos\HolidayAnimation2015\Renders\0420.png" arWidth="960" arHeight="540" duration="0" songTitle="" songArtist="" songAlbum="" songCopyrightUrl="" songArtistUrl="" songAudioFileUrl="" stabilizationMode="0" mediaItemType="2" />
    <MediaItem id="415" filePath="F:\Art_and_Design\HolidayAnimation2015\Jars+Kitchen+Logos\HolidayAnimation2015\Renders\0421.png" arWidth="960" arHeight="540" duration="0" songTitle="" songArtist="" songAlbum="" songCopyrightUrl="" songArtistUrl="" songAudioFileUrl="" stabilizationMode="0" mediaItemType="2" />
    <MediaItem id="416" filePath="F:\Art_and_Design\HolidayAnimation2015\Jars+Kitchen+Logos\HolidayAnimation2015\Renders\0422.png" arWidth="960" arHeight="540" duration="0" songTitle="" songArtist="" songAlbum="" songCopyrightUrl="" songArtistUrl="" songAudioFileUrl="" stabilizationMode="0" mediaItemType="2" />
    <MediaItem id="417" filePath="F:\Art_and_Design\HolidayAnimation2015\Jars+Kitchen+Logos\HolidayAnimation2015\Renders\0423.png" arWidth="960" arHeight="540" duration="0" songTitle="" songArtist="" songAlbum="" songCopyrightUrl="" songArtistUrl="" songAudioFileUrl="" stabilizationMode="0" mediaItemType="2" />
    <MediaItem id="418" filePath="F:\Art_and_Design\HolidayAnimation2015\Jars+Kitchen+Logos\HolidayAnimation2015\Renders\0424.png" arWidth="960" arHeight="540" duration="0" songTitle="" songArtist="" songAlbum="" songCopyrightUrl="" songArtistUrl="" songAudioFileUrl="" stabilizationMode="0" mediaItemType="2" />
    <MediaItem id="419" filePath="F:\Art_and_Design\HolidayAnimation2015\Jars+Kitchen+Logos\HolidayAnimation2015\Renders\0425.png" arWidth="960" arHeight="540" duration="0" songTitle="" songArtist="" songAlbum="" songCopyrightUrl="" songArtistUrl="" songAudioFileUrl="" stabilizationMode="0" mediaItemType="2" />
    <MediaItem id="420" filePath="F:\Art_and_Design\HolidayAnimation2015\Jars+Kitchen+Logos\HolidayAnimation2015\Renders\0426.png" arWidth="960" arHeight="540" duration="0" songTitle="" songArtist="" songAlbum="" songCopyrightUrl="" songArtistUrl="" songAudioFileUrl="" stabilizationMode="0" mediaItemType="2" />
    <MediaItem id="421" filePath="F:\Art_and_Design\HolidayAnimation2015\Jars+Kitchen+Logos\HolidayAnimation2015\Renders\0427.png" arWidth="960" arHeight="540" duration="0" songTitle="" songArtist="" songAlbum="" songCopyrightUrl="" songArtistUrl="" songAudioFileUrl="" stabilizationMode="0" mediaItemType="2" />
    <MediaItem id="422" filePath="F:\Art_and_Design\HolidayAnimation2015\Jars+Kitchen+Logos\HolidayAnimation2015\Renders\0428.png" arWidth="960" arHeight="540" duration="0" songTitle="" songArtist="" songAlbum="" songCopyrightUrl="" songArtistUrl="" songAudioFileUrl="" stabilizationMode="0" mediaItemType="2" />
    <MediaItem id="423" filePath="F:\Art_and_Design\HolidayAnimation2015\Jars+Kitchen+Logos\HolidayAnimation2015\Renders\0429.png" arWidth="960" arHeight="540" duration="0" songTitle="" songArtist="" songAlbum="" songCopyrightUrl="" songArtistUrl="" songAudioFileUrl="" stabilizationMode="0" mediaItemType="2" />
    <MediaItem id="424" filePath="F:\Art_and_Design\HolidayAnimation2015\Jars+Kitchen+Logos\HolidayAnimation2015\Renders\0430.png" arWidth="960" arHeight="540" duration="0" songTitle="" songArtist="" songAlbum="" songCopyrightUrl="" songArtistUrl="" songAudioFileUrl="" stabilizationMode="0" mediaItemType="2" />
    <MediaItem id="425" filePath="F:\Art_and_Design\HolidayAnimation2015\Jars+Kitchen+Logos\HolidayAnimation2015\Renders\0431.png" arWidth="960" arHeight="540" duration="0" songTitle="" songArtist="" songAlbum="" songCopyrightUrl="" songArtistUrl="" songAudioFileUrl="" stabilizationMode="0" mediaItemType="2" />
    <MediaItem id="426" filePath="F:\Art_and_Design\HolidayAnimation2015\Jars+Kitchen+Logos\HolidayAnimation2015\Renders\0432.png" arWidth="960" arHeight="540" duration="0" songTitle="" songArtist="" songAlbum="" songCopyrightUrl="" songArtistUrl="" songAudioFileUrl="" stabilizationMode="0" mediaItemType="2" />
    <MediaItem id="427" filePath="F:\Art_and_Design\HolidayAnimation2015\Jars+Kitchen+Logos\HolidayAnimation2015\Renders\0433.png" arWidth="960" arHeight="540" duration="0" songTitle="" songArtist="" songAlbum="" songCopyrightUrl="" songArtistUrl="" songAudioFileUrl="" stabilizationMode="0" mediaItemType="2" />
    <MediaItem id="428" filePath="F:\Art_and_Design\HolidayAnimation2015\Jars+Kitchen+Logos\HolidayAnimation2015\Renders\0434.png" arWidth="960" arHeight="540" duration="0" songTitle="" songArtist="" songAlbum="" songCopyrightUrl="" songArtistUrl="" songAudioFileUrl="" stabilizationMode="0" mediaItemType="2" />
    <MediaItem id="429" filePath="F:\Art_and_Design\HolidayAnimation2015\Jars+Kitchen+Logos\HolidayAnimation2015\Renders\0435.png" arWidth="960" arHeight="540" duration="0" songTitle="" songArtist="" songAlbum="" songCopyrightUrl="" songArtistUrl="" songAudioFileUrl="" stabilizationMode="0" mediaItemType="2" />
    <MediaItem id="430" filePath="F:\Art_and_Design\HolidayAnimation2015\Jars+Kitchen+Logos\HolidayAnimation2015\Renders\0436.png" arWidth="960" arHeight="540" duration="0" songTitle="" songArtist="" songAlbum="" songCopyrightUrl="" songArtistUrl="" songAudioFileUrl="" stabilizationMode="0" mediaItemType="2" />
    <MediaItem id="431" filePath="F:\Art_and_Design\HolidayAnimation2015\Jars+Kitchen+Logos\HolidayAnimation2015\Renders\0437.png" arWidth="960" arHeight="540" duration="0" songTitle="" songArtist="" songAlbum="" songCopyrightUrl="" songArtistUrl="" songAudioFileUrl="" stabilizationMode="0" mediaItemType="2" />
    <MediaItem id="432" filePath="F:\Art_and_Design\HolidayAnimation2015\Jars+Kitchen+Logos\HolidayAnimation2015\Renders\0438.png" arWidth="960" arHeight="540" duration="0" songTitle="" songArtist="" songAlbum="" songCopyrightUrl="" songArtistUrl="" songAudioFileUrl="" stabilizationMode="0" mediaItemType="2" />
    <MediaItem id="433" filePath="F:\Art_and_Design\HolidayAnimation2015\Jars+Kitchen+Logos\HolidayAnimation2015\Renders\0439.png" arWidth="960" arHeight="540" duration="0" songTitle="" songArtist="" songAlbum="" songCopyrightUrl="" songArtistUrl="" songAudioFileUrl="" stabilizationMode="0" mediaItemType="2" />
    <MediaItem id="434" filePath="F:\Art_and_Design\HolidayAnimation2015\Jars+Kitchen+Logos\HolidayAnimation2015\Renders\0440.png" arWidth="960" arHeight="540" duration="0" songTitle="" songArtist="" songAlbum="" songCopyrightUrl="" songArtistUrl="" songAudioFileUrl="" stabilizationMode="0" mediaItemType="2" />
    <MediaItem id="435" filePath="F:\Art_and_Design\HolidayAnimation2015\Jars+Kitchen+Logos\HolidayAnimation2015\Renders\0441.png" arWidth="960" arHeight="540" duration="0" songTitle="" songArtist="" songAlbum="" songCopyrightUrl="" songArtistUrl="" songAudioFileUrl="" stabilizationMode="0" mediaItemType="2" />
    <MediaItem id="436" filePath="F:\Art_and_Design\HolidayAnimation2015\Jars+Kitchen+Logos\HolidayAnimation2015\Renders\0442.png" arWidth="960" arHeight="540" duration="0" songTitle="" songArtist="" songAlbum="" songCopyrightUrl="" songArtistUrl="" songAudioFileUrl="" stabilizationMode="0" mediaItemType="2" />
    <MediaItem id="437" filePath="F:\Art_and_Design\HolidayAnimation2015\Jars+Kitchen+Logos\HolidayAnimation2015\Renders\0443.png" arWidth="960" arHeight="540" duration="0" songTitle="" songArtist="" songAlbum="" songCopyrightUrl="" songArtistUrl="" songAudioFileUrl="" stabilizationMode="0" mediaItemType="2" />
    <MediaItem id="438" filePath="F:\Art_and_Design\HolidayAnimation2015\Jars+Kitchen+Logos\HolidayAnimation2015\Renders\0444.png" arWidth="960" arHeight="540" duration="0" songTitle="" songArtist="" songAlbum="" songCopyrightUrl="" songArtistUrl="" songAudioFileUrl="" stabilizationMode="0" mediaItemType="2" />
    <MediaItem id="439" filePath="F:\Art_and_Design\HolidayAnimation2015\Jars+Kitchen+Logos\HolidayAnimation2015\Renders\0445.png" arWidth="960" arHeight="540" duration="0" songTitle="" songArtist="" songAlbum="" songCopyrightUrl="" songArtistUrl="" songAudioFileUrl="" stabilizationMode="0" mediaItemType="2" />
    <MediaItem id="440" filePath="F:\Art_and_Design\HolidayAnimation2015\Jars+Kitchen+Logos\HolidayAnimation2015\Renders\0446.png" arWidth="960" arHeight="540" duration="0" songTitle="" songArtist="" songAlbum="" songCopyrightUrl="" songArtistUrl="" songAudioFileUrl="" stabilizationMode="0" mediaItemType="2" />
    <MediaItem id="441" filePath="F:\Art_and_Design\HolidayAnimation2015\Jars+Kitchen+Logos\HolidayAnimation2015\Renders\0447.png" arWidth="960" arHeight="540" duration="0" songTitle="" songArtist="" songAlbum="" songCopyrightUrl="" songArtistUrl="" songAudioFileUrl="" stabilizationMode="0" mediaItemType="2" />
    <MediaItem id="442" filePath="F:\Art_and_Design\HolidayAnimation2015\Jars+Kitchen+Logos\HolidayAnimation2015\Renders\0448.png" arWidth="960" arHeight="540" duration="0" songTitle="" songArtist="" songAlbum="" songCopyrightUrl="" songArtistUrl="" songAudioFileUrl="" stabilizationMode="0" mediaItemType="2" />
    <MediaItem id="443" filePath="F:\Art_and_Design\HolidayAnimation2015\Jars+Kitchen+Logos\HolidayAnimation2015\Renders\0449.png" arWidth="960" arHeight="540" duration="0" songTitle="" songArtist="" songAlbum="" songCopyrightUrl="" songArtistUrl="" songAudioFileUrl="" stabilizationMode="0" mediaItemType="2" />
    <MediaItem id="444" filePath="F:\Art_and_Design\HolidayAnimation2015\Jars+Kitchen+Logos\HolidayAnimation2015\Renders\0450.png" arWidth="960" arHeight="540" duration="0" songTitle="" songArtist="" songAlbum="" songCopyrightUrl="" songArtistUrl="" songAudioFileUrl="" stabilizationMode="0" mediaItemType="2" />
    <MediaItem id="445" filePath="F:\Art_and_Design\HolidayAnimation2015\Jars+Kitchen+Logos\HolidayAnimation2015\Renders\0451.png" arWidth="960" arHeight="540" duration="0" songTitle="" songArtist="" songAlbum="" songCopyrightUrl="" songArtistUrl="" songAudioFileUrl="" stabilizationMode="0" mediaItemType="2" />
    <MediaItem id="446" filePath="F:\Art_and_Design\HolidayAnimation2015\Jars+Kitchen+Logos\HolidayAnimation2015\Renders\0452.png" arWidth="960" arHeight="540" duration="0" songTitle="" songArtist="" songAlbum="" songCopyrightUrl="" songArtistUrl="" songAudioFileUrl="" stabilizationMode="0" mediaItemType="2" />
    <MediaItem id="447" filePath="F:\Art_and_Design\HolidayAnimation2015\Jars+Kitchen+Logos\HolidayAnimation2015\Renders\0453.png" arWidth="960" arHeight="540" duration="0" songTitle="" songArtist="" songAlbum="" songCopyrightUrl="" songArtistUrl="" songAudioFileUrl="" stabilizationMode="0" mediaItemType="2" />
    <MediaItem id="448" filePath="F:\Art_and_Design\HolidayAnimation2015\Jars+Kitchen+Logos\HolidayAnimation2015\Renders\0454.png" arWidth="960" arHeight="540" duration="0" songTitle="" songArtist="" songAlbum="" songCopyrightUrl="" songArtistUrl="" songAudioFileUrl="" stabilizationMode="0" mediaItemType="2" />
    <MediaItem id="449" filePath="F:\Art_and_Design\HolidayAnimation2015\Jars+Kitchen+Logos\HolidayAnimation2015\Renders\0455.png" arWidth="960" arHeight="540" duration="0" songTitle="" songArtist="" songAlbum="" songCopyrightUrl="" songArtistUrl="" songAudioFileUrl="" stabilizationMode="0" mediaItemType="2" />
    <MediaItem id="450" filePath="F:\Art_and_Design\HolidayAnimation2015\Jars+Kitchen+Logos\HolidayAnimation2015\Renders\0456.png" arWidth="960" arHeight="540" duration="0" songTitle="" songArtist="" songAlbum="" songCopyrightUrl="" songArtistUrl="" songAudioFileUrl="" stabilizationMode="0" mediaItemType="2" />
    <MediaItem id="451" filePath="F:\Art_and_Design\HolidayAnimation2015\Jars+Kitchen+Logos\HolidayAnimation2015\Renders\0457.png" arWidth="960" arHeight="540" duration="0" songTitle="" songArtist="" songAlbum="" songCopyrightUrl="" songArtistUrl="" songAudioFileUrl="" stabilizationMode="0" mediaItemType="2" />
    <MediaItem id="452" filePath="F:\Art_and_Design\HolidayAnimation2015\Jars+Kitchen+Logos\HolidayAnimation2015\Renders\0458.png" arWidth="960" arHeight="540" duration="0" songTitle="" songArtist="" songAlbum="" songCopyrightUrl="" songArtistUrl="" songAudioFileUrl="" stabilizationMode="0" mediaItemType="2" />
    <MediaItem id="453" filePath="F:\Art_and_Design\HolidayAnimation2015\Jars+Kitchen+Logos\HolidayAnimation2015\Renders\0459.png" arWidth="960" arHeight="540" duration="0" songTitle="" songArtist="" songAlbum="" songCopyrightUrl="" songArtistUrl="" songAudioFileUrl="" stabilizationMode="0" mediaItemType="2" />
    <MediaItem id="454" filePath="F:\Art_and_Design\HolidayAnimation2015\Jars+Kitchen+Logos\HolidayAnimation2015\Renders\0460.png" arWidth="960" arHeight="540" duration="0" songTitle="" songArtist="" songAlbum="" songCopyrightUrl="" songArtistUrl="" songAudioFileUrl="" stabilizationMode="0" mediaItemType="2" />
    <MediaItem id="455" filePath="F:\Art_and_Design\HolidayAnimation2015\Jars+Kitchen+Logos\HolidayAnimation2015\Renders\0461.png" arWidth="960" arHeight="540" duration="0" songTitle="" songArtist="" songAlbum="" songCopyrightUrl="" songArtistUrl="" songAudioFileUrl="" stabilizationMode="0" mediaItemType="2" />
    <MediaItem id="456" filePath="F:\Art_and_Design\HolidayAnimation2015\Jars+Kitchen+Logos\HolidayAnimation2015\Renders\0462.png" arWidth="960" arHeight="540" duration="0" songTitle="" songArtist="" songAlbum="" songCopyrightUrl="" songArtistUrl="" songAudioFileUrl="" stabilizationMode="0" mediaItemType="2" />
    <MediaItem id="457" filePath="F:\Art_and_Design\HolidayAnimation2015\Jars+Kitchen+Logos\HolidayAnimation2015\Renders\0463.png" arWidth="960" arHeight="540" duration="0" songTitle="" songArtist="" songAlbum="" songCopyrightUrl="" songArtistUrl="" songAudioFileUrl="" stabilizationMode="0" mediaItemType="2" />
    <MediaItem id="458" filePath="F:\Art_and_Design\HolidayAnimation2015\Jars+Kitchen+Logos\HolidayAnimation2015\Renders\0464.png" arWidth="960" arHeight="540" duration="0" songTitle="" songArtist="" songAlbum="" songCopyrightUrl="" songArtistUrl="" songAudioFileUrl="" stabilizationMode="0" mediaItemType="2" />
    <MediaItem id="459" filePath="F:\Art_and_Design\HolidayAnimation2015\Jars+Kitchen+Logos\HolidayAnimation2015\Renders\0465.png" arWidth="960" arHeight="540" duration="0" songTitle="" songArtist="" songAlbum="" songCopyrightUrl="" songArtistUrl="" songAudioFileUrl="" stabilizationMode="0" mediaItemType="2" />
    <MediaItem id="460" filePath="F:\Art_and_Design\HolidayAnimation2015\Jars+Kitchen+Logos\HolidayAnimation2015\Renders\0466.png" arWidth="960" arHeight="540" duration="0" songTitle="" songArtist="" songAlbum="" songCopyrightUrl="" songArtistUrl="" songAudioFileUrl="" stabilizationMode="0" mediaItemType="2" />
    <MediaItem id="461" filePath="F:\Art_and_Design\HolidayAnimation2015\Jars+Kitchen+Logos\HolidayAnimation2015\Renders\0467.png" arWidth="960" arHeight="540" duration="0" songTitle="" songArtist="" songAlbum="" songCopyrightUrl="" songArtistUrl="" songAudioFileUrl="" stabilizationMode="0" mediaItemType="2" />
    <MediaItem id="462" filePath="F:\Art_and_Design\HolidayAnimation2015\Jars+Kitchen+Logos\HolidayAnimation2015\Renders\0468.png" arWidth="960" arHeight="540" duration="0" songTitle="" songArtist="" songAlbum="" songCopyrightUrl="" songArtistUrl="" songAudioFileUrl="" stabilizationMode="0" mediaItemType="2" />
    <MediaItem id="463" filePath="F:\Art_and_Design\HolidayAnimation2015\Jars+Kitchen+Logos\HolidayAnimation2015\Renders\0469.png" arWidth="960" arHeight="540" duration="0" songTitle="" songArtist="" songAlbum="" songCopyrightUrl="" songArtistUrl="" songAudioFileUrl="" stabilizationMode="0" mediaItemType="2" />
    <MediaItem id="464" filePath="F:\Art_and_Design\HolidayAnimation2015\Jars+Kitchen+Logos\HolidayAnimation2015\Renders\0470.png" arWidth="960" arHeight="540" duration="0" songTitle="" songArtist="" songAlbum="" songCopyrightUrl="" songArtistUrl="" songAudioFileUrl="" stabilizationMode="0" mediaItemType="2" />
    <MediaItem id="465" filePath="F:\Art_and_Design\HolidayAnimation2015\Jars+Kitchen+Logos\HolidayAnimation2015\Renders\0471.png" arWidth="960" arHeight="540" duration="0" songTitle="" songArtist="" songAlbum="" songCopyrightUrl="" songArtistUrl="" songAudioFileUrl="" stabilizationMode="0" mediaItemType="2" />
    <MediaItem id="466" filePath="F:\Art_and_Design\HolidayAnimation2015\Jars+Kitchen+Logos\HolidayAnimation2015\Renders\0472.png" arWidth="960" arHeight="540" duration="0" songTitle="" songArtist="" songAlbum="" songCopyrightUrl="" songArtistUrl="" songAudioFileUrl="" stabilizationMode="0" mediaItemType="2" />
    <MediaItem id="467" filePath="F:\Art_and_Design\HolidayAnimation2015\Jars+Kitchen+Logos\HolidayAnimation2015\Renders\0473.png" arWidth="960" arHeight="540" duration="0" songTitle="" songArtist="" songAlbum="" songCopyrightUrl="" songArtistUrl="" songAudioFileUrl="" stabilizationMode="0" mediaItemType="2" />
    <MediaItem id="468" filePath="F:\Art_and_Design\HolidayAnimation2015\Jars+Kitchen+Logos\HolidayAnimation2015\Renders\0474.png" arWidth="960" arHeight="540" duration="0" songTitle="" songArtist="" songAlbum="" songCopyrightUrl="" songArtistUrl="" songAudioFileUrl="" stabilizationMode="0" mediaItemType="2" />
    <MediaItem id="469" filePath="F:\Art_and_Design\HolidayAnimation2015\Jars+Kitchen+Logos\HolidayAnimation2015\Renders\0475.png" arWidth="960" arHeight="540" duration="0" songTitle="" songArtist="" songAlbum="" songCopyrightUrl="" songArtistUrl="" songAudioFileUrl="" stabilizationMode="0" mediaItemType="2" />
    <MediaItem id="470" filePath="F:\Art_and_Design\HolidayAnimation2015\Jars+Kitchen+Logos\HolidayAnimation2015\Renders\0476.png" arWidth="960" arHeight="540" duration="0" songTitle="" songArtist="" songAlbum="" songCopyrightUrl="" songArtistUrl="" songAudioFileUrl="" stabilizationMode="0" mediaItemType="2" />
    <MediaItem id="471" filePath="F:\Art_and_Design\HolidayAnimation2015\Jars+Kitchen+Logos\HolidayAnimation2015\Renders\0477.png" arWidth="960" arHeight="540" duration="0" songTitle="" songArtist="" songAlbum="" songCopyrightUrl="" songArtistUrl="" songAudioFileUrl="" stabilizationMode="0" mediaItemType="2" />
    <MediaItem id="472" filePath="F:\Art_and_Design\HolidayAnimation2015\Jars+Kitchen+Logos\HolidayAnimation2015\Renders\0478.png" arWidth="960" arHeight="540" duration="0" songTitle="" songArtist="" songAlbum="" songCopyrightUrl="" songArtistUrl="" songAudioFileUrl="" stabilizationMode="0" mediaItemType="2" />
    <MediaItem id="473" filePath="F:\Art_and_Design\HolidayAnimation2015\Jars+Kitchen+Logos\HolidayAnimation2015\Renders\0479.png" arWidth="960" arHeight="540" duration="0" songTitle="" songArtist="" songAlbum="" songCopyrightUrl="" songArtistUrl="" songAudioFileUrl="" stabilizationMode="0" mediaItemType="2" />
    <MediaItem id="474" filePath="F:\Art_and_Design\HolidayAnimation2015\Jars+Kitchen+Logos\HolidayAnimation2015\Renders\0480.png" arWidth="960" arHeight="540" duration="0" songTitle="" songArtist="" songAlbum="" songCopyrightUrl="" songArtistUrl="" songAudioFileUrl="" stabilizationMode="0" mediaItemType="2" />
    <MediaItem id="475" filePath="F:\Art_and_Design\HolidayAnimation2015\Jars+Kitchen+Logos\HolidayAnimation2015\Renders\0481.png" arWidth="960" arHeight="540" duration="0" songTitle="" songArtist="" songAlbum="" songCopyrightUrl="" songArtistUrl="" songAudioFileUrl="" stabilizationMode="0" mediaItemType="2" />
    <MediaItem id="476" filePath="F:\Art_and_Design\HolidayAnimation2015\Jars+Kitchen+Logos\HolidayAnimation2015\Renders\0482.png" arWidth="960" arHeight="540" duration="0" songTitle="" songArtist="" songAlbum="" songCopyrightUrl="" songArtistUrl="" songAudioFileUrl="" stabilizationMode="0" mediaItemType="2" />
    <MediaItem id="477" filePath="F:\Art_and_Design\HolidayAnimation2015\Jars+Kitchen+Logos\HolidayAnimation2015\Renders\0483.png" arWidth="960" arHeight="540" duration="0" songTitle="" songArtist="" songAlbum="" songCopyrightUrl="" songArtistUrl="" songAudioFileUrl="" stabilizationMode="0" mediaItemType="2" />
    <MediaItem id="478" filePath="F:\Art_and_Design\HolidayAnimation2015\Jars+Kitchen+Logos\HolidayAnimation2015\Renders\0484.png" arWidth="960" arHeight="540" duration="0" songTitle="" songArtist="" songAlbum="" songCopyrightUrl="" songArtistUrl="" songAudioFileUrl="" stabilizationMode="0" mediaItemType="2" />
    <MediaItem id="479" filePath="F:\Art_and_Design\HolidayAnimation2015\Jars+Kitchen+Logos\HolidayAnimation2015\Renders\0485.png" arWidth="960" arHeight="540" duration="0" songTitle="" songArtist="" songAlbum="" songCopyrightUrl="" songArtistUrl="" songAudioFileUrl="" stabilizationMode="0" mediaItemType="2" />
    <MediaItem id="480" filePath="F:\Art_and_Design\HolidayAnimation2015\Jars+Kitchen+Logos\HolidayAnimation2015\Renders\0486.png" arWidth="960" arHeight="540" duration="0" songTitle="" songArtist="" songAlbum="" songCopyrightUrl="" songArtistUrl="" songAudioFileUrl="" stabilizationMode="0" mediaItemType="2" />
    <MediaItem id="481" filePath="F:\Art_and_Design\HolidayAnimation2015\Jars+Kitchen+Logos\HolidayAnimation2015\Renders\0487.png" arWidth="960" arHeight="540" duration="0" songTitle="" songArtist="" songAlbum="" songCopyrightUrl="" songArtistUrl="" songAudioFileUrl="" stabilizationMode="0" mediaItemType="2" />
    <MediaItem id="482" filePath="F:\Art_and_Design\HolidayAnimation2015\Jars+Kitchen+Logos\HolidayAnimation2015\Renders\0488.png" arWidth="960" arHeight="540" duration="0" songTitle="" songArtist="" songAlbum="" songCopyrightUrl="" songArtistUrl="" songAudioFileUrl="" stabilizationMode="0" mediaItemType="2" />
    <MediaItem id="483" filePath="F:\Art_and_Design\HolidayAnimation2015\Jars+Kitchen+Logos\HolidayAnimation2015\Renders\0489.png" arWidth="960" arHeight="540" duration="0" songTitle="" songArtist="" songAlbum="" songCopyrightUrl="" songArtistUrl="" songAudioFileUrl="" stabilizationMode="0" mediaItemType="2" />
    <MediaItem id="484" filePath="F:\Art_and_Design\HolidayAnimation2015\Jars+Kitchen+Logos\HolidayAnimation2015\Renders\0490.png" arWidth="960" arHeight="540" duration="0" songTitle="" songArtist="" songAlbum="" songCopyrightUrl="" songArtistUrl="" songAudioFileUrl="" stabilizationMode="0" mediaItemType="2" />
    <MediaItem id="485" filePath="F:\Art_and_Design\HolidayAnimation2015\Jars+Kitchen+Logos\HolidayAnimation2015\Renders\0491.png" arWidth="960" arHeight="540" duration="0" songTitle="" songArtist="" songAlbum="" songCopyrightUrl="" songArtistUrl="" songAudioFileUrl="" stabilizationMode="0" mediaItemType="2" />
    <MediaItem id="486" filePath="F:\Art_and_Design\HolidayAnimation2015\Jars+Kitchen+Logos\HolidayAnimation2015\Renders\0492.png" arWidth="960" arHeight="540" duration="0" songTitle="" songArtist="" songAlbum="" songCopyrightUrl="" songArtistUrl="" songAudioFileUrl="" stabilizationMode="0" mediaItemType="2" />
    <MediaItem id="487" filePath="F:\Art_and_Design\HolidayAnimation2015\Jars+Kitchen+Logos\HolidayAnimation2015\Renders\0493.png" arWidth="960" arHeight="540" duration="0" songTitle="" songArtist="" songAlbum="" songCopyrightUrl="" songArtistUrl="" songAudioFileUrl="" stabilizationMode="0" mediaItemType="2" />
    <MediaItem id="488" filePath="F:\Art_and_Design\HolidayAnimation2015\Jars+Kitchen+Logos\HolidayAnimation2015\Renders\0494.png" arWidth="960" arHeight="540" duration="0" songTitle="" songArtist="" songAlbum="" songCopyrightUrl="" songArtistUrl="" songAudioFileUrl="" stabilizationMode="0" mediaItemType="2" />
    <MediaItem id="489" filePath="F:\Art_and_Design\HolidayAnimation2015\Jars+Kitchen+Logos\HolidayAnimation2015\Renders\0495.png" arWidth="960" arHeight="540" duration="0" songTitle="" songArtist="" songAlbum="" songCopyrightUrl="" songArtistUrl="" songAudioFileUrl="" stabilizationMode="0" mediaItemType="2" />
    <MediaItem id="490" filePath="F:\Art_and_Design\HolidayAnimation2015\Jars+Kitchen+Logos\HolidayAnimation2015\Renders\0496.png" arWidth="960" arHeight="540" duration="0" songTitle="" songArtist="" songAlbum="" songCopyrightUrl="" songArtistUrl="" songAudioFileUrl="" stabilizationMode="0" mediaItemType="2" />
    <MediaItem id="491" filePath="F:\Art_and_Design\HolidayAnimation2015\Jars+Kitchen+Logos\HolidayAnimation2015\Renders\0497.png" arWidth="960" arHeight="540" duration="0" songTitle="" songArtist="" songAlbum="" songCopyrightUrl="" songArtistUrl="" songAudioFileUrl="" stabilizationMode="0" mediaItemType="2" />
    <MediaItem id="492" filePath="F:\Art_and_Design\HolidayAnimation2015\Jars+Kitchen+Logos\HolidayAnimation2015\Renders\0498.png" arWidth="960" arHeight="540" duration="0" songTitle="" songArtist="" songAlbum="" songCopyrightUrl="" songArtistUrl="" songAudioFileUrl="" stabilizationMode="0" mediaItemType="2" />
    <MediaItem id="493" filePath="F:\Art_and_Design\HolidayAnimation2015\Jars+Kitchen+Logos\HolidayAnimation2015\Renders\0499.png" arWidth="960" arHeight="540" duration="0" songTitle="" songArtist="" songAlbum="" songCopyrightUrl="" songArtistUrl="" songAudioFileUrl="" stabilizationMode="0" mediaItemType="2" />
    <MediaItem id="494" filePath="F:\Art_and_Design\HolidayAnimation2015\Jars+Kitchen+Logos\HolidayAnimation2015\Renders\0500.png" arWidth="960" arHeight="540" duration="0" songTitle="" songArtist="" songAlbum="" songCopyrightUrl="" songArtistUrl="" songAudioFileUrl="" stabilizationMode="0" mediaItemType="2" />
    <MediaItem id="495" filePath="F:\Art_and_Design\HolidayAnimation2015\Jars+Kitchen+Logos\HolidayAnimation2015\Renders\0501.png" arWidth="960" arHeight="540" duration="0" songTitle="" songArtist="" songAlbum="" songCopyrightUrl="" songArtistUrl="" songAudioFileUrl="" stabilizationMode="0" mediaItemType="2" />
    <MediaItem id="496" filePath="F:\Art_and_Design\HolidayAnimation2015\Jars+Kitchen+Logos\HolidayAnimation2015\Renders\0502.png" arWidth="960" arHeight="540" duration="0" songTitle="" songArtist="" songAlbum="" songCopyrightUrl="" songArtistUrl="" songAudioFileUrl="" stabilizationMode="0" mediaItemType="2" />
    <MediaItem id="497" filePath="F:\Art_and_Design\HolidayAnimation2015\Jars+Kitchen+Logos\HolidayAnimation2015\Renders\0503.png" arWidth="960" arHeight="540" duration="0" songTitle="" songArtist="" songAlbum="" songCopyrightUrl="" songArtistUrl="" songAudioFileUrl="" stabilizationMode="0" mediaItemType="2" />
    <MediaItem id="498" filePath="F:\Art_and_Design\HolidayAnimation2015\Jars+Kitchen+Logos\HolidayAnimation2015\Renders\0504.png" arWidth="960" arHeight="540" duration="0" songTitle="" songArtist="" songAlbum="" songCopyrightUrl="" songArtistUrl="" songAudioFileUrl="" stabilizationMode="0" mediaItemType="2" />
    <MediaItem id="499" filePath="F:\Art_and_Design\HolidayAnimation2015\Jars+Kitchen+Logos\HolidayAnimation2015\Renders\0505.png" arWidth="960" arHeight="540" duration="0" songTitle="" songArtist="" songAlbum="" songCopyrightUrl="" songArtistUrl="" songAudioFileUrl="" stabilizationMode="0" mediaItemType="2" />
    <MediaItem id="500" filePath="F:\Art_and_Design\HolidayAnimation2015\Jars+Kitchen+Logos\HolidayAnimation2015\Renders\0506.png" arWidth="960" arHeight="540" duration="0" songTitle="" songArtist="" songAlbum="" songCopyrightUrl="" songArtistUrl="" songAudioFileUrl="" stabilizationMode="0" mediaItemType="2" />
    <MediaItem id="501" filePath="F:\Art_and_Design\HolidayAnimation2015\Jars+Kitchen+Logos\HolidayAnimation2015\Renders\0507.png" arWidth="960" arHeight="540" duration="0" songTitle="" songArtist="" songAlbum="" songCopyrightUrl="" songArtistUrl="" songAudioFileUrl="" stabilizationMode="0" mediaItemType="2" />
    <MediaItem id="502" filePath="F:\Art_and_Design\HolidayAnimation2015\Jars+Kitchen+Logos\HolidayAnimation2015\Renders\0508.png" arWidth="960" arHeight="540" duration="0" songTitle="" songArtist="" songAlbum="" songCopyrightUrl="" songArtistUrl="" songAudioFileUrl="" stabilizationMode="0" mediaItemType="2" />
    <MediaItem id="503" filePath="F:\Art_and_Design\HolidayAnimation2015\Jars+Kitchen+Logos\HolidayAnimation2015\Renders\0509.png" arWidth="960" arHeight="540" duration="0" songTitle="" songArtist="" songAlbum="" songCopyrightUrl="" songArtistUrl="" songAudioFileUrl="" stabilizationMode="0" mediaItemType="2" />
    <MediaItem id="504" filePath="F:\Art_and_Design\HolidayAnimation2015\Jars+Kitchen+Logos\HolidayAnimation2015\Renders\0510.png" arWidth="960" arHeight="540" duration="0" songTitle="" songArtist="" songAlbum="" songCopyrightUrl="" songArtistUrl="" songAudioFileUrl="" stabilizationMode="0" mediaItemType="2" />
    <MediaItem id="505" filePath="F:\Art_and_Design\HolidayAnimation2015\Jars+Kitchen+Logos\HolidayAnimation2015\Renders\0511.png" arWidth="960" arHeight="540" duration="0" songTitle="" songArtist="" songAlbum="" songCopyrightUrl="" songArtistUrl="" songAudioFileUrl="" stabilizationMode="0" mediaItemType="2" />
    <MediaItem id="506" filePath="F:\Art_and_Design\HolidayAnimation2015\Jars+Kitchen+Logos\HolidayAnimation2015\Renders\0512.png" arWidth="960" arHeight="540" duration="0" songTitle="" songArtist="" songAlbum="" songCopyrightUrl="" songArtistUrl="" songAudioFileUrl="" stabilizationMode="0" mediaItemType="2" />
    <MediaItem id="507" filePath="F:\Art_and_Design\HolidayAnimation2015\Jars+Kitchen+Logos\HolidayAnimation2015\Renders\0513.png" arWidth="960" arHeight="540" duration="0" songTitle="" songArtist="" songAlbum="" songCopyrightUrl="" songArtistUrl="" songAudioFileUrl="" stabilizationMode="0" mediaItemType="2" />
    <MediaItem id="508" filePath="F:\Art_and_Design\HolidayAnimation2015\Jars+Kitchen+Logos\HolidayAnimation2015\Renders\0514.png" arWidth="960" arHeight="540" duration="0" songTitle="" songArtist="" songAlbum="" songCopyrightUrl="" songArtistUrl="" songAudioFileUrl="" stabilizationMode="0" mediaItemType="2" />
    <MediaItem id="509" filePath="F:\Art_and_Design\HolidayAnimation2015\Jars+Kitchen+Logos\HolidayAnimation2015\Renders\0515.png" arWidth="960" arHeight="540" duration="0" songTitle="" songArtist="" songAlbum="" songCopyrightUrl="" songArtistUrl="" songAudioFileUrl="" stabilizationMode="0" mediaItemType="2" />
    <MediaItem id="510" filePath="F:\Art_and_Design\HolidayAnimation2015\Jars+Kitchen+Logos\HolidayAnimation2015\Renders\0516.png" arWidth="960" arHeight="540" duration="0" songTitle="" songArtist="" songAlbum="" songCopyrightUrl="" songArtistUrl="" songAudioFileUrl="" stabilizationMode="0" mediaItemType="2" />
    <MediaItem id="511" filePath="F:\Art_and_Design\HolidayAnimation2015\Jars+Kitchen+Logos\HolidayAnimation2015\Renders\0517.png" arWidth="960" arHeight="540" duration="0" songTitle="" songArtist="" songAlbum="" songCopyrightUrl="" songArtistUrl="" songAudioFileUrl="" stabilizationMode="0" mediaItemType="2" />
    <MediaItem id="512" filePath="F:\Art_and_Design\HolidayAnimation2015\Jars+Kitchen+Logos\HolidayAnimation2015\Renders\0518.png" arWidth="960" arHeight="540" duration="0" songTitle="" songArtist="" songAlbum="" songCopyrightUrl="" songArtistUrl="" songAudioFileUrl="" stabilizationMode="0" mediaItemType="2" />
    <MediaItem id="513" filePath="F:\Art_and_Design\HolidayAnimation2015\Jars+Kitchen+Logos\HolidayAnimation2015\Renders\0519.png" arWidth="960" arHeight="540" duration="0" songTitle="" songArtist="" songAlbum="" songCopyrightUrl="" songArtistUrl="" songAudioFileUrl="" stabilizationMode="0" mediaItemType="2" />
    <MediaItem id="514" filePath="F:\Art_and_Design\HolidayAnimation2015\Jars+Kitchen+Logos\HolidayAnimation2015\Renders\0520.png" arWidth="960" arHeight="540" duration="0" songTitle="" songArtist="" songAlbum="" songCopyrightUrl="" songArtistUrl="" songAudioFileUrl="" stabilizationMode="0" mediaItemType="2" />
    <MediaItem id="515" filePath="F:\Art_and_Design\HolidayAnimation2015\Jars+Kitchen+Logos\HolidayAnimation2015\Renders\0521.png" arWidth="960" arHeight="540" duration="0" songTitle="" songArtist="" songAlbum="" songCopyrightUrl="" songArtistUrl="" songAudioFileUrl="" stabilizationMode="0" mediaItemType="2" />
    <MediaItem id="516" filePath="F:\Art_and_Design\HolidayAnimation2015\Jars+Kitchen+Logos\HolidayAnimation2015\Renders\0522.png" arWidth="960" arHeight="540" duration="0" songTitle="" songArtist="" songAlbum="" songCopyrightUrl="" songArtistUrl="" songAudioFileUrl="" stabilizationMode="0" mediaItemType="2" />
    <MediaItem id="517" filePath="F:\Art_and_Design\HolidayAnimation2015\Jars+Kitchen+Logos\HolidayAnimation2015\Renders\0523.png" arWidth="960" arHeight="540" duration="0" songTitle="" songArtist="" songAlbum="" songCopyrightUrl="" songArtistUrl="" songAudioFileUrl="" stabilizationMode="0" mediaItemType="2" />
    <MediaItem id="518" filePath="F:\Art_and_Design\HolidayAnimation2015\Jars+Kitchen+Logos\HolidayAnimation2015\Renders\0524.png" arWidth="960" arHeight="540" duration="0" songTitle="" songArtist="" songAlbum="" songCopyrightUrl="" songArtistUrl="" songAudioFileUrl="" stabilizationMode="0" mediaItemType="2" />
    <MediaItem id="519" filePath="F:\Art_and_Design\HolidayAnimation2015\Jars+Kitchen+Logos\HolidayAnimation2015\Renders\0525.png" arWidth="960" arHeight="540" duration="0" songTitle="" songArtist="" songAlbum="" songCopyrightUrl="" songArtistUrl="" songAudioFileUrl="" stabilizationMode="0" mediaItemType="2" />
    <MediaItem id="520" filePath="F:\Art_and_Design\HolidayAnimation2015\Jars+Kitchen+Logos\HolidayAnimation2015\Renders\0526.png" arWidth="960" arHeight="540" duration="0" songTitle="" songArtist="" songAlbum="" songCopyrightUrl="" songArtistUrl="" songAudioFileUrl="" stabilizationMode="0" mediaItemType="2" />
    <MediaItem id="521" filePath="F:\Art_and_Design\HolidayAnimation2015\Jars+Kitchen+Logos\HolidayAnimation2015\Renders\0527.png" arWidth="960" arHeight="540" duration="0" songTitle="" songArtist="" songAlbum="" songCopyrightUrl="" songArtistUrl="" songAudioFileUrl="" stabilizationMode="0" mediaItemType="2" />
    <MediaItem id="522" filePath="F:\Art_and_Design\HolidayAnimation2015\Jars+Kitchen+Logos\HolidayAnimation2015\Renders\0528.png" arWidth="960" arHeight="540" duration="0" songTitle="" songArtist="" songAlbum="" songCopyrightUrl="" songArtistUrl="" songAudioFileUrl="" stabilizationMode="0" mediaItemType="2" />
    <MediaItem id="523" filePath="F:\Art_and_Design\HolidayAnimation2015\Jars+Kitchen+Logos\HolidayAnimation2015\Renders\0529.png" arWidth="960" arHeight="540" duration="0" songTitle="" songArtist="" songAlbum="" songCopyrightUrl="" songArtistUrl="" songAudioFileUrl="" stabilizationMode="0" mediaItemType="2" />
    <MediaItem id="524" filePath="F:\Art_and_Design\HolidayAnimation2015\Jars+Kitchen+Logos\HolidayAnimation2015\Renders\0530.png" arWidth="960" arHeight="540" duration="0" songTitle="" songArtist="" songAlbum="" songCopyrightUrl="" songArtistUrl="" songAudioFileUrl="" stabilizationMode="0" mediaItemType="2" />
    <MediaItem id="525" filePath="F:\Art_and_Design\HolidayAnimation2015\Jars+Kitchen+Logos\HolidayAnimation2015\Renders\0531.png" arWidth="960" arHeight="540" duration="0" songTitle="" songArtist="" songAlbum="" songCopyrightUrl="" songArtistUrl="" songAudioFileUrl="" stabilizationMode="0" mediaItemType="2" />
    <MediaItem id="526" filePath="F:\Art_and_Design\HolidayAnimation2015\Jars+Kitchen+Logos\HolidayAnimation2015\Renders\0532.png" arWidth="960" arHeight="540" duration="0" songTitle="" songArtist="" songAlbum="" songCopyrightUrl="" songArtistUrl="" songAudioFileUrl="" stabilizationMode="0" mediaItemType="2" />
    <MediaItem id="527" filePath="F:\Art_and_Design\HolidayAnimation2015\Jars+Kitchen+Logos\HolidayAnimation2015\Renders\0533.png" arWidth="960" arHeight="540" duration="0" songTitle="" songArtist="" songAlbum="" songCopyrightUrl="" songArtistUrl="" songAudioFileUrl="" stabilizationMode="0" mediaItemType="2" />
    <MediaItem id="528" filePath="F:\Art_and_Design\HolidayAnimation2015\Jars+Kitchen+Logos\HolidayAnimation2015\Renders\0534.png" arWidth="960" arHeight="540" duration="0" songTitle="" songArtist="" songAlbum="" songCopyrightUrl="" songArtistUrl="" songAudioFileUrl="" stabilizationMode="0" mediaItemType="2" />
    <MediaItem id="529" filePath="F:\Art_and_Design\HolidayAnimation2015\Jars+Kitchen+Logos\HolidayAnimation2015\Renders\0535.png" arWidth="960" arHeight="540" duration="0" songTitle="" songArtist="" songAlbum="" songCopyrightUrl="" songArtistUrl="" songAudioFileUrl="" stabilizationMode="0" mediaItemType="2" />
    <MediaItem id="530" filePath="F:\Art_and_Design\HolidayAnimation2015\Jars+Kitchen+Logos\HolidayAnimation2015\Renders\0536.png" arWidth="960" arHeight="540" duration="0" songTitle="" songArtist="" songAlbum="" songCopyrightUrl="" songArtistUrl="" songAudioFileUrl="" stabilizationMode="0" mediaItemType="2" />
    <MediaItem id="531" filePath="F:\Art_and_Design\HolidayAnimation2015\Jars+Kitchen+Logos\HolidayAnimation2015\Renders\0537.png" arWidth="960" arHeight="540" duration="0" songTitle="" songArtist="" songAlbum="" songCopyrightUrl="" songArtistUrl="" songAudioFileUrl="" stabilizationMode="0" mediaItemType="2" />
    <MediaItem id="532" filePath="F:\Art_and_Design\HolidayAnimation2015\Jars+Kitchen+Logos\HolidayAnimation2015\Renders\0538.png" arWidth="960" arHeight="540" duration="0" songTitle="" songArtist="" songAlbum="" songCopyrightUrl="" songArtistUrl="" songAudioFileUrl="" stabilizationMode="0" mediaItemType="2" />
    <MediaItem id="533" filePath="F:\Art_and_Design\HolidayAnimation2015\Jars+Kitchen+Logos\HolidayAnimation2015\Renders\0539.png" arWidth="960" arHeight="540" duration="0" songTitle="" songArtist="" songAlbum="" songCopyrightUrl="" songArtistUrl="" songAudioFileUrl="" stabilizationMode="0" mediaItemType="2" />
    <MediaItem id="534" filePath="F:\Art_and_Design\HolidayAnimation2015\Jars+Kitchen+Logos\HolidayAnimation2015\Renders\0540.png" arWidth="960" arHeight="540" duration="0" songTitle="" songArtist="" songAlbum="" songCopyrightUrl="" songArtistUrl="" songAudioFileUrl="" stabilizationMode="0" mediaItemType="2" />
    <MediaItem id="535" filePath="F:\Art_and_Design\HolidayAnimation2015\Jars+Kitchen+Logos\HolidayAnimation2015\Renders\0541.png" arWidth="960" arHeight="540" duration="0" songTitle="" songArtist="" songAlbum="" songCopyrightUrl="" songArtistUrl="" songAudioFileUrl="" stabilizationMode="0" mediaItemType="2" />
    <MediaItem id="536" filePath="F:\Art_and_Design\HolidayAnimation2015\Jars+Kitchen+Logos\HolidayAnimation2015\Renders\0542.png" arWidth="960" arHeight="540" duration="0" songTitle="" songArtist="" songAlbum="" songCopyrightUrl="" songArtistUrl="" songAudioFileUrl="" stabilizationMode="0" mediaItemType="2" />
    <MediaItem id="537" filePath="F:\Art_and_Design\HolidayAnimation2015\Jars+Kitchen+Logos\HolidayAnimation2015\Renders\0543.png" arWidth="960" arHeight="540" duration="0" songTitle="" songArtist="" songAlbum="" songCopyrightUrl="" songArtistUrl="" songAudioFileUrl="" stabilizationMode="0" mediaItemType="2" />
    <MediaItem id="538" filePath="F:\Art_and_Design\HolidayAnimation2015\Jars+Kitchen+Logos\HolidayAnimation2015\Renders\0544.png" arWidth="960" arHeight="540" duration="0" songTitle="" songArtist="" songAlbum="" songCopyrightUrl="" songArtistUrl="" songAudioFileUrl="" stabilizationMode="0" mediaItemType="2" />
    <MediaItem id="539" filePath="F:\Art_and_Design\HolidayAnimation2015\Jars+Kitchen+Logos\HolidayAnimation2015\Renders\0545.png" arWidth="960" arHeight="540" duration="0" songTitle="" songArtist="" songAlbum="" songCopyrightUrl="" songArtistUrl="" songAudioFileUrl="" stabilizationMode="0" mediaItemType="2" />
    <MediaItem id="540" filePath="F:\Art_and_Design\HolidayAnimation2015\Jars+Kitchen+Logos\HolidayAnimation2015\Renders\0546.png" arWidth="960" arHeight="540" duration="0" songTitle="" songArtist="" songAlbum="" songCopyrightUrl="" songArtistUrl="" songAudioFileUrl="" stabilizationMode="0" mediaItemType="2" />
    <MediaItem id="541" filePath="F:\Art_and_Design\HolidayAnimation2015\Jars+Kitchen+Logos\HolidayAnimation2015\Renders\0547.png" arWidth="960" arHeight="540" duration="0" songTitle="" songArtist="" songAlbum="" songCopyrightUrl="" songArtistUrl="" songAudioFileUrl="" stabilizationMode="0" mediaItemType="2" />
    <MediaItem id="542" filePath="F:\Art_and_Design\HolidayAnimation2015\Jars+Kitchen+Logos\HolidayAnimation2015\Renders\0548.png" arWidth="960" arHeight="540" duration="0" songTitle="" songArtist="" songAlbum="" songCopyrightUrl="" songArtistUrl="" songAudioFileUrl="" stabilizationMode="0" mediaItemType="2" />
    <MediaItem id="543" filePath="F:\Art_and_Design\HolidayAnimation2015\Jars+Kitchen+Logos\HolidayAnimation2015\Renders\0549.png" arWidth="960" arHeight="540" duration="0" songTitle="" songArtist="" songAlbum="" songCopyrightUrl="" songArtistUrl="" songAudioFileUrl="" stabilizationMode="0" mediaItemType="2" />
    <MediaItem id="544" filePath="F:\Art_and_Design\HolidayAnimation2015\Jars+Kitchen+Logos\HolidayAnimation2015\Renders\0550.png" arWidth="960" arHeight="540" duration="0" songTitle="" songArtist="" songAlbum="" songCopyrightUrl="" songArtistUrl="" songAudioFileUrl="" stabilizationMode="0" mediaItemType="2" />
    <MediaItem id="545" filePath="F:\Art_and_Design\HolidayAnimation2015\Jars+Kitchen+Logos\HolidayAnimation2015\Renders\0551.png" arWidth="960" arHeight="540" duration="0" songTitle="" songArtist="" songAlbum="" songCopyrightUrl="" songArtistUrl="" songAudioFileUrl="" stabilizationMode="0" mediaItemType="2" />
    <MediaItem id="546" filePath="F:\Art_and_Design\HolidayAnimation2015\Jars+Kitchen+Logos\HolidayAnimation2015\Renders\0552.png" arWidth="960" arHeight="540" duration="0" songTitle="" songArtist="" songAlbum="" songCopyrightUrl="" songArtistUrl="" songAudioFileUrl="" stabilizationMode="0" mediaItemType="2" />
    <MediaItem id="547" filePath="F:\Art_and_Design\HolidayAnimation2015\Jars+Kitchen+Logos\HolidayAnimation2015\Renders\0553.png" arWidth="960" arHeight="540" duration="0" songTitle="" songArtist="" songAlbum="" songCopyrightUrl="" songArtistUrl="" songAudioFileUrl="" stabilizationMode="0" mediaItemType="2" />
    <MediaItem id="548" filePath="F:\Art_and_Design\HolidayAnimation2015\Jars+Kitchen+Logos\HolidayAnimation2015\Renders\0554.png" arWidth="960" arHeight="540" duration="0" songTitle="" songArtist="" songAlbum="" songCopyrightUrl="" songArtistUrl="" songAudioFileUrl="" stabilizationMode="0" mediaItemType="2" />
    <MediaItem id="549" filePath="F:\Art_and_Design\HolidayAnimation2015\Jars+Kitchen+Logos\HolidayAnimation2015\Renders\0555.png" arWidth="960" arHeight="540" duration="0" songTitle="" songArtist="" songAlbum="" songCopyrightUrl="" songArtistUrl="" songAudioFileUrl="" stabilizationMode="0" mediaItemType="2" />
    <MediaItem id="550" filePath="F:\Art_and_Design\HolidayAnimation2015\Jars+Kitchen+Logos\HolidayAnimation2015\Renders\0556.png" arWidth="960" arHeight="540" duration="0" songTitle="" songArtist="" songAlbum="" songCopyrightUrl="" songArtistUrl="" songAudioFileUrl="" stabilizationMode="0" mediaItemType="2" />
    <MediaItem id="551" filePath="F:\Art_and_Design\HolidayAnimation2015\Jars+Kitchen+Logos\HolidayAnimation2015\Renders\0557.png" arWidth="960" arHeight="540" duration="0" songTitle="" songArtist="" songAlbum="" songCopyrightUrl="" songArtistUrl="" songAudioFileUrl="" stabilizationMode="0" mediaItemType="2" />
    <MediaItem id="552" filePath="F:\Art_and_Design\HolidayAnimation2015\Jars+Kitchen+Logos\HolidayAnimation2015\Renders\0558.png" arWidth="960" arHeight="540" duration="0" songTitle="" songArtist="" songAlbum="" songCopyrightUrl="" songArtistUrl="" songAudioFileUrl="" stabilizationMode="0" mediaItemType="2" />
    <MediaItem id="553" filePath="F:\Art_and_Design\HolidayAnimation2015\Jars+Kitchen+Logos\HolidayAnimation2015\Renders\0559.png" arWidth="960" arHeight="540" duration="0" songTitle="" songArtist="" songAlbum="" songCopyrightUrl="" songArtistUrl="" songAudioFileUrl="" stabilizationMode="0" mediaItemType="2" />
    <MediaItem id="554" filePath="F:\Art_and_Design\HolidayAnimation2015\Jars+Kitchen+Logos\HolidayAnimation2015\Renders\0560.png" arWidth="960" arHeight="540" duration="0" songTitle="" songArtist="" songAlbum="" songCopyrightUrl="" songArtistUrl="" songAudioFileUrl="" stabilizationMode="0" mediaItemType="2" />
    <MediaItem id="555" filePath="F:\Art_and_Design\HolidayAnimation2015\Jars+Kitchen+Logos\HolidayAnimation2015\Renders\0561.png" arWidth="960" arHeight="540" duration="0" songTitle="" songArtist="" songAlbum="" songCopyrightUrl="" songArtistUrl="" songAudioFileUrl="" stabilizationMode="0" mediaItemType="2" />
    <MediaItem id="556" filePath="F:\Art_and_Design\HolidayAnimation2015\Jars+Kitchen+Logos\HolidayAnimation2015\Renders\0562.png" arWidth="960" arHeight="540" duration="0" songTitle="" songArtist="" songAlbum="" songCopyrightUrl="" songArtistUrl="" songAudioFileUrl="" stabilizationMode="0" mediaItemType="2" />
    <MediaItem id="557" filePath="F:\Art_and_Design\HolidayAnimation2015\Jars+Kitchen+Logos\HolidayAnimation2015\Renders\0563.png" arWidth="960" arHeight="540" duration="0" songTitle="" songArtist="" songAlbum="" songCopyrightUrl="" songArtistUrl="" songAudioFileUrl="" stabilizationMode="0" mediaItemType="2" />
    <MediaItem id="558" filePath="F:\Art_and_Design\HolidayAnimation2015\Jars+Kitchen+Logos\HolidayAnimation2015\Renders\0564.png" arWidth="960" arHeight="540" duration="0" songTitle="" songArtist="" songAlbum="" songCopyrightUrl="" songArtistUrl="" songAudioFileUrl="" stabilizationMode="0" mediaItemType="2" />
    <MediaItem id="559" filePath="F:\Art_and_Design\HolidayAnimation2015\Jars+Kitchen+Logos\HolidayAnimation2015\Renders\0565.png" arWidth="960" arHeight="540" duration="0" songTitle="" songArtist="" songAlbum="" songCopyrightUrl="" songArtistUrl="" songAudioFileUrl="" stabilizationMode="0" mediaItemType="2" />
    <MediaItem id="560" filePath="F:\Art_and_Design\HolidayAnimation2015\Jars+Kitchen+Logos\HolidayAnimation2015\Renders\0566.png" arWidth="960" arHeight="540" duration="0" songTitle="" songArtist="" songAlbum="" songCopyrightUrl="" songArtistUrl="" songAudioFileUrl="" stabilizationMode="0" mediaItemType="2" />
    <MediaItem id="561" filePath="F:\Art_and_Design\HolidayAnimation2015\Jars+Kitchen+Logos\HolidayAnimation2015\Renders\0567.png" arWidth="960" arHeight="540" duration="0" songTitle="" songArtist="" songAlbum="" songCopyrightUrl="" songArtistUrl="" songAudioFileUrl="" stabilizationMode="0" mediaItemType="2" />
    <MediaItem id="562" filePath="F:\Art_and_Design\HolidayAnimation2015\Jars+Kitchen+Logos\HolidayAnimation2015\Renders\0568.png" arWidth="960" arHeight="540" duration="0" songTitle="" songArtist="" songAlbum="" songCopyrightUrl="" songArtistUrl="" songAudioFileUrl="" stabilizationMode="0" mediaItemType="2" />
    <MediaItem id="563" filePath="F:\Art_and_Design\HolidayAnimation2015\Jars+Kitchen+Logos\HolidayAnimation2015\Renders\0569.png" arWidth="960" arHeight="540" duration="0" songTitle="" songArtist="" songAlbum="" songCopyrightUrl="" songArtistUrl="" songAudioFileUrl="" stabilizationMode="0" mediaItemType="2" />
    <MediaItem id="564" filePath="F:\Art_and_Design\HolidayAnimation2015\Jars+Kitchen+Logos\HolidayAnimation2015\Renders\0570.png" arWidth="960" arHeight="540" duration="0" songTitle="" songArtist="" songAlbum="" songCopyrightUrl="" songArtistUrl="" songAudioFileUrl="" stabilizationMode="0" mediaItemType="2" />
    <MediaItem id="565" filePath="F:\Art_and_Design\HolidayAnimation2015\Jars+Kitchen+Logos\HolidayAnimation2015\Renders\0571.png" arWidth="960" arHeight="540" duration="0" songTitle="" songArtist="" songAlbum="" songCopyrightUrl="" songArtistUrl="" songAudioFileUrl="" stabilizationMode="0" mediaItemType="2" />
    <MediaItem id="566" filePath="F:\Art_and_Design\HolidayAnimation2015\Jars+Kitchen+Logos\HolidayAnimation2015\Renders\0572.png" arWidth="960" arHeight="540" duration="0" songTitle="" songArtist="" songAlbum="" songCopyrightUrl="" songArtistUrl="" songAudioFileUrl="" stabilizationMode="0" mediaItemType="2" />
    <MediaItem id="567" filePath="F:\Art_and_Design\HolidayAnimation2015\Jars+Kitchen+Logos\HolidayAnimation2015\Renders\0573.png" arWidth="960" arHeight="540" duration="0" songTitle="" songArtist="" songAlbum="" songCopyrightUrl="" songArtistUrl="" songAudioFileUrl="" stabilizationMode="0" mediaItemType="2" />
    <MediaItem id="568" filePath="F:\Art_and_Design\HolidayAnimation2015\Jars+Kitchen+Logos\HolidayAnimation2015\Renders\0574.png" arWidth="960" arHeight="540" duration="0" songTitle="" songArtist="" songAlbum="" songCopyrightUrl="" songArtistUrl="" songAudioFileUrl="" stabilizationMode="0" mediaItemType="2" />
    <MediaItem id="569" filePath="F:\Art_and_Design\HolidayAnimation2015\Jars+Kitchen+Logos\HolidayAnimation2015\Renders\0575.png" arWidth="960" arHeight="540" duration="0" songTitle="" songArtist="" songAlbum="" songCopyrightUrl="" songArtistUrl="" songAudioFileUrl="" stabilizationMode="0" mediaItemType="2" />
    <MediaItem id="570" filePath="F:\Art_and_Design\HolidayAnimation2015\Jars+Kitchen+Logos\HolidayAnimation2015\Renders\0576.png" arWidth="960" arHeight="540" duration="0" songTitle="" songArtist="" songAlbum="" songCopyrightUrl="" songArtistUrl="" songAudioFileUrl="" stabilizationMode="0" mediaItemType="2" />
    <MediaItem id="571" filePath="F:\Art_and_Design\HolidayAnimation2015\Jars+Kitchen+Logos\HolidayAnimation2015\Renders\0577.png" arWidth="960" arHeight="540" duration="0" songTitle="" songArtist="" songAlbum="" songCopyrightUrl="" songArtistUrl="" songAudioFileUrl="" stabilizationMode="0" mediaItemType="2" />
    <MediaItem id="572" filePath="F:\Art_and_Design\HolidayAnimation2015\Jars+Kitchen+Logos\HolidayAnimation2015\Renders\0578.png" arWidth="960" arHeight="540" duration="0" songTitle="" songArtist="" songAlbum="" songCopyrightUrl="" songArtistUrl="" songAudioFileUrl="" stabilizationMode="0" mediaItemType="2" />
    <MediaItem id="573" filePath="F:\Art_and_Design\HolidayAnimation2015\Jars+Kitchen+Logos\HolidayAnimation2015\Renders\0579.png" arWidth="960" arHeight="540" duration="0" songTitle="" songArtist="" songAlbum="" songCopyrightUrl="" songArtistUrl="" songAudioFileUrl="" stabilizationMode="0" mediaItemType="2" />
    <MediaItem id="574" filePath="F:\Art_and_Design\HolidayAnimation2015\Jars+Kitchen+Logos\HolidayAnimation2015\Renders\0580.png" arWidth="960" arHeight="540" duration="0" songTitle="" songArtist="" songAlbum="" songCopyrightUrl="" songArtistUrl="" songAudioFileUrl="" stabilizationMode="0" mediaItemType="2" />
    <MediaItem id="575" filePath="F:\Art_and_Design\HolidayAnimation2015\Jars+Kitchen+Logos\HolidayAnimation2015\Renders\0581.png" arWidth="960" arHeight="540" duration="0" songTitle="" songArtist="" songAlbum="" songCopyrightUrl="" songArtistUrl="" songAudioFileUrl="" stabilizationMode="0" mediaItemType="2" />
    <MediaItem id="576" filePath="F:\Art_and_Design\HolidayAnimation2015\Jars+Kitchen+Logos\HolidayAnimation2015\Renders\0582.png" arWidth="960" arHeight="540" duration="0" songTitle="" songArtist="" songAlbum="" songCopyrightUrl="" songArtistUrl="" songAudioFileUrl="" stabilizationMode="0" mediaItemType="2" />
    <MediaItem id="577" filePath="F:\Art_and_Design\HolidayAnimation2015\Jars+Kitchen+Logos\HolidayAnimation2015\Renders\0583.png" arWidth="960" arHeight="540" duration="0" songTitle="" songArtist="" songAlbum="" songCopyrightUrl="" songArtistUrl="" songAudioFileUrl="" stabilizationMode="0" mediaItemType="2" />
    <MediaItem id="578" filePath="F:\Art_and_Design\HolidayAnimation2015\Jars+Kitchen+Logos\HolidayAnimation2015\Renders\0584.png" arWidth="960" arHeight="540" duration="0" songTitle="" songArtist="" songAlbum="" songCopyrightUrl="" songArtistUrl="" songAudioFileUrl="" stabilizationMode="0" mediaItemType="2" />
    <MediaItem id="579" filePath="F:\Art_and_Design\HolidayAnimation2015\Jars+Kitchen+Logos\HolidayAnimation2015\Renders\0585.png" arWidth="960" arHeight="540" duration="0" songTitle="" songArtist="" songAlbum="" songCopyrightUrl="" songArtistUrl="" songAudioFileUrl="" stabilizationMode="0" mediaItemType="2" />
    <MediaItem id="580" filePath="F:\Art_and_Design\HolidayAnimation2015\Jars+Kitchen+Logos\HolidayAnimation2015\Renders\0586.png" arWidth="960" arHeight="540" duration="0" songTitle="" songArtist="" songAlbum="" songCopyrightUrl="" songArtistUrl="" songAudioFileUrl="" stabilizationMode="0" mediaItemType="2" />
    <MediaItem id="581" filePath="F:\Art_and_Design\HolidayAnimation2015\Jars+Kitchen+Logos\HolidayAnimation2015\Renders\0587.png" arWidth="960" arHeight="540" duration="0" songTitle="" songArtist="" songAlbum="" songCopyrightUrl="" songArtistUrl="" songAudioFileUrl="" stabilizationMode="0" mediaItemType="2" />
    <MediaItem id="582" filePath="F:\Art_and_Design\HolidayAnimation2015\Jars+Kitchen+Logos\HolidayAnimation2015\Renders\0588.png" arWidth="960" arHeight="540" duration="0" songTitle="" songArtist="" songAlbum="" songCopyrightUrl="" songArtistUrl="" songAudioFileUrl="" stabilizationMode="0" mediaItemType="2" />
    <MediaItem id="583" filePath="F:\Art_and_Design\HolidayAnimation2015\Jars+Kitchen+Logos\HolidayAnimation2015\Renders\0589.png" arWidth="960" arHeight="540" duration="0" songTitle="" songArtist="" songAlbum="" songCopyrightUrl="" songArtistUrl="" songAudioFileUrl="" stabilizationMode="0" mediaItemType="2" />
    <MediaItem id="584" filePath="F:\Art_and_Design\HolidayAnimation2015\Jars+Kitchen+Logos\HolidayAnimation2015\Renders\0590.png" arWidth="960" arHeight="540" duration="0" songTitle="" songArtist="" songAlbum="" songCopyrightUrl="" songArtistUrl="" songAudioFileUrl="" stabilizationMode="0" mediaItemType="2" />
    <MediaItem id="585" filePath="F:\Art_and_Design\HolidayAnimation2015\Jars+Kitchen+Logos\HolidayAnimation2015\Renders\0591.png" arWidth="960" arHeight="540" duration="0" songTitle="" songArtist="" songAlbum="" songCopyrightUrl="" songArtistUrl="" songAudioFileUrl="" stabilizationMode="0" mediaItemType="2" />
    <MediaItem id="586" filePath="F:\Art_and_Design\HolidayAnimation2015\Jars+Kitchen+Logos\HolidayAnimation2015\Renders\0592.png" arWidth="960" arHeight="540" duration="0" songTitle="" songArtist="" songAlbum="" songCopyrightUrl="" songArtistUrl="" songAudioFileUrl="" stabilizationMode="0" mediaItemType="2" />
    <MediaItem id="587" filePath="F:\Art_and_Design\HolidayAnimation2015\Jars+Kitchen+Logos\HolidayAnimation2015\Renders\0593.png" arWidth="960" arHeight="540" duration="0" songTitle="" songArtist="" songAlbum="" songCopyrightUrl="" songArtistUrl="" songAudioFileUrl="" stabilizationMode="0" mediaItemType="2" />
    <MediaItem id="588" filePath="F:\Art_and_Design\HolidayAnimation2015\Jars+Kitchen+Logos\HolidayAnimation2015\Renders\0594.png" arWidth="960" arHeight="540" duration="0" songTitle="" songArtist="" songAlbum="" songCopyrightUrl="" songArtistUrl="" songAudioFileUrl="" stabilizationMode="0" mediaItemType="2" />
    <MediaItem id="589" filePath="F:\Art_and_Design\HolidayAnimation2015\Jars+Kitchen+Logos\HolidayAnimation2015\Renders\0595.png" arWidth="960" arHeight="540" duration="0" songTitle="" songArtist="" songAlbum="" songCopyrightUrl="" songArtistUrl="" songAudioFileUrl="" stabilizationMode="0" mediaItemType="2" />
    <MediaItem id="590" filePath="F:\Art_and_Design\HolidayAnimation2015\Jars+Kitchen+Logos\HolidayAnimation2015\Renders\0596.png" arWidth="960" arHeight="540" duration="0" songTitle="" songArtist="" songAlbum="" songCopyrightUrl="" songArtistUrl="" songAudioFileUrl="" stabilizationMode="0" mediaItemType="2" />
    <MediaItem id="591" filePath="F:\Art_and_Design\HolidayAnimation2015\Jars+Kitchen+Logos\HolidayAnimation2015\Renders\0597.png" arWidth="960" arHeight="540" duration="0" songTitle="" songArtist="" songAlbum="" songCopyrightUrl="" songArtistUrl="" songAudioFileUrl="" stabilizationMode="0" mediaItemType="2" />
    <MediaItem id="592" filePath="F:\Art_and_Design\HolidayAnimation2015\Jars+Kitchen+Logos\HolidayAnimation2015\Renders\0598.png" arWidth="960" arHeight="540" duration="0" songTitle="" songArtist="" songAlbum="" songCopyrightUrl="" songArtistUrl="" songAudioFileUrl="" stabilizationMode="0" mediaItemType="2" />
    <MediaItem id="593" filePath="F:\Art_and_Design\HolidayAnimation2015\Jars+Kitchen+Logos\HolidayAnimation2015\Renders\0599.png" arWidth="960" arHeight="540" duration="0" songTitle="" songArtist="" songAlbum="" songCopyrightUrl="" songArtistUrl="" songAudioFileUrl="" stabilizationMode="0" mediaItemType="2" />
    <MediaItem id="594" filePath="F:\Art_and_Design\HolidayAnimation2015\Jars+Kitchen+Logos\HolidayAnimation2015\Renders\0600.png" arWidth="960" arHeight="540" duration="0" songTitle="" songArtist="" songAlbum="" songCopyrightUrl="" songArtistUrl="" songAudioFileUrl="" stabilizationMode="0" mediaItemType="2" />
    <MediaItem id="595" filePath="F:\Art_and_Design\HolidayAnimation2015\Jars+Kitchen+Logos\HolidayAnimation2015\Renders\0601.png" arWidth="960" arHeight="540" duration="0" songTitle="" songArtist="" songAlbum="" songCopyrightUrl="" songArtistUrl="" songAudioFileUrl="" stabilizationMode="0" mediaItemType="2" />
    <MediaItem id="596" filePath="F:\Art_and_Design\HolidayAnimation2015\Jars+Kitchen+Logos\HolidayAnimation2015\Renders\0602.png" arWidth="960" arHeight="540" duration="0" songTitle="" songArtist="" songAlbum="" songCopyrightUrl="" songArtistUrl="" songAudioFileUrl="" stabilizationMode="0" mediaItemType="2" />
    <MediaItem id="597" filePath="F:\Art_and_Design\HolidayAnimation2015\Jars+Kitchen+Logos\HolidayAnimation2015\Renders\0603.png" arWidth="960" arHeight="540" duration="0" songTitle="" songArtist="" songAlbum="" songCopyrightUrl="" songArtistUrl="" songAudioFileUrl="" stabilizationMode="0" mediaItemType="2" />
    <MediaItem id="598" filePath="F:\Art_and_Design\HolidayAnimation2015\Jars+Kitchen+Logos\HolidayAnimation2015\Renders\0604.png" arWidth="960" arHeight="540" duration="0" songTitle="" songArtist="" songAlbum="" songCopyrightUrl="" songArtistUrl="" songAudioFileUrl="" stabilizationMode="0" mediaItemType="2" />
    <MediaItem id="599" filePath="F:\Art_and_Design\HolidayAnimation2015\Jars+Kitchen+Logos\HolidayAnimation2015\Renders\0605.png" arWidth="960" arHeight="540" duration="0" songTitle="" songArtist="" songAlbum="" songCopyrightUrl="" songArtistUrl="" songAudioFileUrl="" stabilizationMode="0" mediaItemType="2" />
    <MediaItem id="600" filePath="F:\Art_and_Design\HolidayAnimation2015\Jars+Kitchen+Logos\HolidayAnimation2015\Renders\0606.png" arWidth="960" arHeight="540" duration="0" songTitle="" songArtist="" songAlbum="" songCopyrightUrl="" songArtistUrl="" songAudioFileUrl="" stabilizationMode="0" mediaItemType="2" />
    <MediaItem id="601" filePath="F:\Art_and_Design\HolidayAnimation2015\Jars+Kitchen+Logos\HolidayAnimation2015\Renders\0607.png" arWidth="960" arHeight="540" duration="0" songTitle="" songArtist="" songAlbum="" songCopyrightUrl="" songArtistUrl="" songAudioFileUrl="" stabilizationMode="0" mediaItemType="2" />
    <MediaItem id="602" filePath="F:\Art_and_Design\HolidayAnimation2015\Jars+Kitchen+Logos\HolidayAnimation2015\Renders\0608.png" arWidth="960" arHeight="540" duration="0" songTitle="" songArtist="" songAlbum="" songCopyrightUrl="" songArtistUrl="" songAudioFileUrl="" stabilizationMode="0" mediaItemType="2" />
    <MediaItem id="603" filePath="F:\Art_and_Design\HolidayAnimation2015\Jars+Kitchen+Logos\HolidayAnimation2015\Renders\0609.png" arWidth="960" arHeight="540" duration="0" songTitle="" songArtist="" songAlbum="" songCopyrightUrl="" songArtistUrl="" songAudioFileUrl="" stabilizationMode="0" mediaItemType="2" />
    <MediaItem id="604" filePath="F:\Art_and_Design\HolidayAnimation2015\Jars+Kitchen+Logos\HolidayAnimation2015\Renders\0610.png" arWidth="960" arHeight="540" duration="0" songTitle="" songArtist="" songAlbum="" songCopyrightUrl="" songArtistUrl="" songAudioFileUrl="" stabilizationMode="0" mediaItemType="2" />
    <MediaItem id="605" filePath="F:\Art_and_Design\HolidayAnimation2015\Jars+Kitchen+Logos\HolidayAnimation2015\Renders\0611.png" arWidth="960" arHeight="540" duration="0" songTitle="" songArtist="" songAlbum="" songCopyrightUrl="" songArtistUrl="" songAudioFileUrl="" stabilizationMode="0" mediaItemType="2" />
    <MediaItem id="606" filePath="F:\Art_and_Design\HolidayAnimation2015\Jars+Kitchen+Logos\HolidayAnimation2015\Renders\0612.png" arWidth="960" arHeight="540" duration="0" songTitle="" songArtist="" songAlbum="" songCopyrightUrl="" songArtistUrl="" songAudioFileUrl="" stabilizationMode="0" mediaItemType="2" />
    <MediaItem id="607" filePath="F:\Art_and_Design\HolidayAnimation2015\Jars+Kitchen+Logos\HolidayAnimation2015\Renders\0613.png" arWidth="960" arHeight="540" duration="0" songTitle="" songArtist="" songAlbum="" songCopyrightUrl="" songArtistUrl="" songAudioFileUrl="" stabilizationMode="0" mediaItemType="2" />
    <MediaItem id="608" filePath="F:\Art_and_Design\HolidayAnimation2015\Jars+Kitchen+Logos\HolidayAnimation2015\Renders\0614.png" arWidth="960" arHeight="540" duration="0" songTitle="" songArtist="" songAlbum="" songCopyrightUrl="" songArtistUrl="" songAudioFileUrl="" stabilizationMode="0" mediaItemType="2" />
    <MediaItem id="609" filePath="F:\Art_and_Design\HolidayAnimation2015\Jars+Kitchen+Logos\HolidayAnimation2015\Renders\0615.png" arWidth="960" arHeight="540" duration="0" songTitle="" songArtist="" songAlbum="" songCopyrightUrl="" songArtistUrl="" songAudioFileUrl="" stabilizationMode="0" mediaItemType="2" />
    <MediaItem id="610" filePath="F:\Art_and_Design\HolidayAnimation2015\Jars+Kitchen+Logos\HolidayAnimation2015\Renders\0616.png" arWidth="960" arHeight="540" duration="0" songTitle="" songArtist="" songAlbum="" songCopyrightUrl="" songArtistUrl="" songAudioFileUrl="" stabilizationMode="0" mediaItemType="2" />
    <MediaItem id="611" filePath="F:\Art_and_Design\HolidayAnimation2015\Jars+Kitchen+Logos\HolidayAnimation2015\Renders\0617.png" arWidth="960" arHeight="540" duration="0" songTitle="" songArtist="" songAlbum="" songCopyrightUrl="" songArtistUrl="" songAudioFileUrl="" stabilizationMode="0" mediaItemType="2" />
    <MediaItem id="612" filePath="F:\Art_and_Design\HolidayAnimation2015\Jars+Kitchen+Logos\HolidayAnimation2015\Renders\0618.png" arWidth="960" arHeight="540" duration="0" songTitle="" songArtist="" songAlbum="" songCopyrightUrl="" songArtistUrl="" songAudioFileUrl="" stabilizationMode="0" mediaItemType="2" />
    <MediaItem id="613" filePath="F:\Art_and_Design\HolidayAnimation2015\Jars+Kitchen+Logos\HolidayAnimation2015\Renders\0619.png" arWidth="960" arHeight="540" duration="0" songTitle="" songArtist="" songAlbum="" songCopyrightUrl="" songArtistUrl="" songAudioFileUrl="" stabilizationMode="0" mediaItemType="2" />
    <MediaItem id="614" filePath="F:\Art_and_Design\HolidayAnimation2015\Jars+Kitchen+Logos\HolidayAnimation2015\Renders\0620.png" arWidth="960" arHeight="540" duration="0" songTitle="" songArtist="" songAlbum="" songCopyrightUrl="" songArtistUrl="" songAudioFileUrl="" stabilizationMode="0" mediaItemType="2" />
    <MediaItem id="615" filePath="F:\Art_and_Design\HolidayAnimation2015\Jars+Kitchen+Logos\HolidayAnimation2015\Renders\0621.png" arWidth="960" arHeight="540" duration="0" songTitle="" songArtist="" songAlbum="" songCopyrightUrl="" songArtistUrl="" songAudioFileUrl="" stabilizationMode="0" mediaItemType="2" />
    <MediaItem id="616" filePath="F:\Art_and_Design\HolidayAnimation2015\Jars+Kitchen+Logos\HolidayAnimation2015\Renders\0622.png" arWidth="960" arHeight="540" duration="0" songTitle="" songArtist="" songAlbum="" songCopyrightUrl="" songArtistUrl="" songAudioFileUrl="" stabilizationMode="0" mediaItemType="2" />
    <MediaItem id="617" filePath="F:\Art_and_Design\HolidayAnimation2015\Jars+Kitchen+Logos\HolidayAnimation2015\Renders\0623.png" arWidth="960" arHeight="540" duration="0" songTitle="" songArtist="" songAlbum="" songCopyrightUrl="" songArtistUrl="" songAudioFileUrl="" stabilizationMode="0" mediaItemType="2" />
    <MediaItem id="618" filePath="F:\Art_and_Design\HolidayAnimation2015\Jars+Kitchen+Logos\HolidayAnimation2015\Renders\0624.png" arWidth="960" arHeight="540" duration="0" songTitle="" songArtist="" songAlbum="" songCopyrightUrl="" songArtistUrl="" songAudioFileUrl="" stabilizationMode="0" mediaItemType="2" />
    <MediaItem id="619" filePath="F:\Art_and_Design\HolidayAnimation2015\Jars+Kitchen+Logos\HolidayAnimation2015\Renders\0625.png" arWidth="960" arHeight="540" duration="0" songTitle="" songArtist="" songAlbum="" songCopyrightUrl="" songArtistUrl="" songAudioFileUrl="" stabilizationMode="0" mediaItemType="2" />
    <MediaItem id="620" filePath="F:\Art_and_Design\HolidayAnimation2015\Jars+Kitchen+Logos\HolidayAnimation2015\Renders\0626.png" arWidth="960" arHeight="540" duration="0" songTitle="" songArtist="" songAlbum="" songCopyrightUrl="" songArtistUrl="" songAudioFileUrl="" stabilizationMode="0" mediaItemType="2" />
    <MediaItem id="621" filePath="F:\Art_and_Design\HolidayAnimation2015\Jars+Kitchen+Logos\HolidayAnimation2015\Renders\0627.png" arWidth="960" arHeight="540" duration="0" songTitle="" songArtist="" songAlbum="" songCopyrightUrl="" songArtistUrl="" songAudioFileUrl="" stabilizationMode="0" mediaItemType="2" />
    <MediaItem id="622" filePath="F:\Art_and_Design\HolidayAnimation2015\Jars+Kitchen+Logos\HolidayAnimation2015\Renders\0628.png" arWidth="960" arHeight="540" duration="0" songTitle="" songArtist="" songAlbum="" songCopyrightUrl="" songArtistUrl="" songAudioFileUrl="" stabilizationMode="0" mediaItemType="2" />
    <MediaItem id="623" filePath="F:\Art_and_Design\HolidayAnimation2015\Jars+Kitchen+Logos\HolidayAnimation2015\Renders\0629.png" arWidth="960" arHeight="540" duration="0" songTitle="" songArtist="" songAlbum="" songCopyrightUrl="" songArtistUrl="" songAudioFileUrl="" stabilizationMode="0" mediaItemType="2" />
    <MediaItem id="624" filePath="F:\Art_and_Design\HolidayAnimation2015\Jars+Kitchen+Logos\HolidayAnimation2015\Renders\0630.png" arWidth="960" arHeight="540" duration="0" songTitle="" songArtist="" songAlbum="" songCopyrightUrl="" songArtistUrl="" songAudioFileUrl="" stabilizationMode="0" mediaItemType="2" />
    <MediaItem id="625" filePath="F:\Art_and_Design\HolidayAnimation2015\Jars+Kitchen+Logos\HolidayAnimation2015\Renders\0631.png" arWidth="960" arHeight="540" duration="0" songTitle="" songArtist="" songAlbum="" songCopyrightUrl="" songArtistUrl="" songAudioFileUrl="" stabilizationMode="0" mediaItemType="2" />
    <MediaItem id="626" filePath="F:\Art_and_Design\HolidayAnimation2015\Jars+Kitchen+Logos\HolidayAnimation2015\Renders\0632.png" arWidth="960" arHeight="540" duration="0" songTitle="" songArtist="" songAlbum="" songCopyrightUrl="" songArtistUrl="" songAudioFileUrl="" stabilizationMode="0" mediaItemType="2" />
    <MediaItem id="627" filePath="F:\Art_and_Design\HolidayAnimation2015\Jars+Kitchen+Logos\HolidayAnimation2015\Renders\0633.png" arWidth="960" arHeight="540" duration="0" songTitle="" songArtist="" songAlbum="" songCopyrightUrl="" songArtistUrl="" songAudioFileUrl="" stabilizationMode="0" mediaItemType="2" />
    <MediaItem id="628" filePath="F:\Art_and_Design\HolidayAnimation2015\Jars+Kitchen+Logos\HolidayAnimation2015\Renders\0634.png" arWidth="960" arHeight="540" duration="0" songTitle="" songArtist="" songAlbum="" songCopyrightUrl="" songArtistUrl="" songAudioFileUrl="" stabilizationMode="0" mediaItemType="2" />
    <MediaItem id="629" filePath="F:\Art_and_Design\HolidayAnimation2015\Jars+Kitchen+Logos\HolidayAnimation2015\Renders\0635.png" arWidth="960" arHeight="540" duration="0" songTitle="" songArtist="" songAlbum="" songCopyrightUrl="" songArtistUrl="" songAudioFileUrl="" stabilizationMode="0" mediaItemType="2" />
    <MediaItem id="630" filePath="F:\Art_and_Design\HolidayAnimation2015\Jars+Kitchen+Logos\HolidayAnimation2015\Renders\0636.png" arWidth="960" arHeight="540" duration="0" songTitle="" songArtist="" songAlbum="" songCopyrightUrl="" songArtistUrl="" songAudioFileUrl="" stabilizationMode="0" mediaItemType="2" />
    <MediaItem id="631" filePath="F:\Art_and_Design\HolidayAnimation2015\Jars+Kitchen+Logos\HolidayAnimation2015\Renders\0637.png" arWidth="960" arHeight="540" duration="0" songTitle="" songArtist="" songAlbum="" songCopyrightUrl="" songArtistUrl="" songAudioFileUrl="" stabilizationMode="0" mediaItemType="2" />
    <MediaItem id="632" filePath="F:\Art_and_Design\HolidayAnimation2015\Jars+Kitchen+Logos\HolidayAnimation2015\Renders\0638.png" arWidth="960" arHeight="540" duration="0" songTitle="" songArtist="" songAlbum="" songCopyrightUrl="" songArtistUrl="" songAudioFileUrl="" stabilizationMode="0" mediaItemType="2" />
    <MediaItem id="633" filePath="F:\Art_and_Design\HolidayAnimation2015\Jars+Kitchen+Logos\HolidayAnimation2015\Renders\0639.png" arWidth="960" arHeight="540" duration="0" songTitle="" songArtist="" songAlbum="" songCopyrightUrl="" songArtistUrl="" songAudioFileUrl="" stabilizationMode="0" mediaItemType="2" />
    <MediaItem id="634" filePath="F:\Art_and_Design\HolidayAnimation2015\Jars+Kitchen+Logos\HolidayAnimation2015\Renders\0640.png" arWidth="960" arHeight="540" duration="0" songTitle="" songArtist="" songAlbum="" songCopyrightUrl="" songArtistUrl="" songAudioFileUrl="" stabilizationMode="0" mediaItemType="2" />
    <MediaItem id="635" filePath="F:\Art_and_Design\HolidayAnimation2015\Jars+Kitchen+Logos\HolidayAnimation2015\Renders\0641.png" arWidth="960" arHeight="540" duration="0" songTitle="" songArtist="" songAlbum="" songCopyrightUrl="" songArtistUrl="" songAudioFileUrl="" stabilizationMode="0" mediaItemType="2" />
    <MediaItem id="636" filePath="F:\Art_and_Design\HolidayAnimation2015\Jars+Kitchen+Logos\HolidayAnimation2015\Renders\0642.png" arWidth="960" arHeight="540" duration="0" songTitle="" songArtist="" songAlbum="" songCopyrightUrl="" songArtistUrl="" songAudioFileUrl="" stabilizationMode="0" mediaItemType="2" />
    <MediaItem id="637" filePath="F:\Art_and_Design\HolidayAnimation2015\Jars+Kitchen+Logos\HolidayAnimation2015\Renders\0643.png" arWidth="960" arHeight="540" duration="0" songTitle="" songArtist="" songAlbum="" songCopyrightUrl="" songArtistUrl="" songAudioFileUrl="" stabilizationMode="0" mediaItemType="2" />
    <MediaItem id="638" filePath="F:\Art_and_Design\HolidayAnimation2015\Jars+Kitchen+Logos\HolidayAnimation2015\Renders\0644.png" arWidth="960" arHeight="540" duration="0" songTitle="" songArtist="" songAlbum="" songCopyrightUrl="" songArtistUrl="" songAudioFileUrl="" stabilizationMode="0" mediaItemType="2" />
    <MediaItem id="639" filePath="F:\Art_and_Design\HolidayAnimation2015\Jars+Kitchen+Logos\HolidayAnimation2015\Renders\0645.png" arWidth="960" arHeight="540" duration="0" songTitle="" songArtist="" songAlbum="" songCopyrightUrl="" songArtistUrl="" songAudioFileUrl="" stabilizationMode="0" mediaItemType="2" />
    <MediaItem id="640" filePath="F:\Art_and_Design\HolidayAnimation2015\Jars+Kitchen+Logos\HolidayAnimation2015\Renders\0646.png" arWidth="960" arHeight="540" duration="0" songTitle="" songArtist="" songAlbum="" songCopyrightUrl="" songArtistUrl="" songAudioFileUrl="" stabilizationMode="0" mediaItemType="2" />
    <MediaItem id="641" filePath="F:\Art_and_Design\HolidayAnimation2015\Jars+Kitchen+Logos\HolidayAnimation2015\Renders\0647.png" arWidth="960" arHeight="540" duration="0" songTitle="" songArtist="" songAlbum="" songCopyrightUrl="" songArtistUrl="" songAudioFileUrl="" stabilizationMode="0" mediaItemType="2" />
    <MediaItem id="642" filePath="F:\Art_and_Design\HolidayAnimation2015\Jars+Kitchen+Logos\HolidayAnimation2015\Renders\0648.png" arWidth="960" arHeight="540" duration="0" songTitle="" songArtist="" songAlbum="" songCopyrightUrl="" songArtistUrl="" songAudioFileUrl="" stabilizationMode="0" mediaItemType="2" />
    <MediaItem id="643" filePath="F:\Art_and_Design\HolidayAnimation2015\Jars+Kitchen+Logos\HolidayAnimation2015\Renders\0649.png" arWidth="960" arHeight="540" duration="0" songTitle="" songArtist="" songAlbum="" songCopyrightUrl="" songArtistUrl="" songAudioFileUrl="" stabilizationMode="0" mediaItemType="2" />
    <MediaItem id="644" filePath="F:\Art_and_Design\HolidayAnimation2015\Jars+Kitchen+Logos\HolidayAnimation2015\Renders\0650.png" arWidth="960" arHeight="540" duration="0" songTitle="" songArtist="" songAlbum="" songCopyrightUrl="" songArtistUrl="" songAudioFileUrl="" stabilizationMode="0" mediaItemType="2" />
    <MediaItem id="645" filePath="F:\Art_and_Design\HolidayAnimation2015\Jars+Kitchen+Logos\HolidayAnimation2015\Renders\0651.png" arWidth="960" arHeight="540" duration="0" songTitle="" songArtist="" songAlbum="" songCopyrightUrl="" songArtistUrl="" songAudioFileUrl="" stabilizationMode="0" mediaItemType="2" />
    <MediaItem id="646" filePath="F:\Art_and_Design\HolidayAnimation2015\Jars+Kitchen+Logos\HolidayAnimation2015\Renders\0652.png" arWidth="960" arHeight="540" duration="0" songTitle="" songArtist="" songAlbum="" songCopyrightUrl="" songArtistUrl="" songAudioFileUrl="" stabilizationMode="0" mediaItemType="2" />
    <MediaItem id="647" filePath="F:\Art_and_Design\HolidayAnimation2015\Jars+Kitchen+Logos\HolidayAnimation2015\Renders\0653.png" arWidth="960" arHeight="540" duration="0" songTitle="" songArtist="" songAlbum="" songCopyrightUrl="" songArtistUrl="" songAudioFileUrl="" stabilizationMode="0" mediaItemType="2" />
    <MediaItem id="648" filePath="F:\Art_and_Design\HolidayAnimation2015\Jars+Kitchen+Logos\HolidayAnimation2015\Renders\0654.png" arWidth="960" arHeight="540" duration="0" songTitle="" songArtist="" songAlbum="" songCopyrightUrl="" songArtistUrl="" songAudioFileUrl="" stabilizationMode="0" mediaItemType="2" />
    <MediaItem id="649" filePath="F:\Art_and_Design\HolidayAnimation2015\Jars+Kitchen+Logos\HolidayAnimation2015\Renders\0655.png" arWidth="960" arHeight="540" duration="0" songTitle="" songArtist="" songAlbum="" songCopyrightUrl="" songArtistUrl="" songAudioFileUrl="" stabilizationMode="0" mediaItemType="2" />
    <MediaItem id="650" filePath="F:\Art_and_Design\HolidayAnimation2015\Jars+Kitchen+Logos\HolidayAnimation2015\Renders\0656.png" arWidth="960" arHeight="540" duration="0" songTitle="" songArtist="" songAlbum="" songCopyrightUrl="" songArtistUrl="" songAudioFileUrl="" stabilizationMode="0" mediaItemType="2" />
    <MediaItem id="651" filePath="F:\Art_and_Design\HolidayAnimation2015\Jars+Kitchen+Logos\HolidayAnimation2015\Renders\0657.png" arWidth="960" arHeight="540" duration="0" songTitle="" songArtist="" songAlbum="" songCopyrightUrl="" songArtistUrl="" songAudioFileUrl="" stabilizationMode="0" mediaItemType="2" />
    <MediaItem id="652" filePath="F:\Art_and_Design\HolidayAnimation2015\Jars+Kitchen+Logos\HolidayAnimation2015\Renders\0658.png" arWidth="960" arHeight="540" duration="0" songTitle="" songArtist="" songAlbum="" songCopyrightUrl="" songArtistUrl="" songAudioFileUrl="" stabilizationMode="0" mediaItemType="2" />
    <MediaItem id="653" filePath="F:\Art_and_Design\HolidayAnimation2015\Jars+Kitchen+Logos\HolidayAnimation2015\Renders\0659.png" arWidth="960" arHeight="540" duration="0" songTitle="" songArtist="" songAlbum="" songCopyrightUrl="" songArtistUrl="" songAudioFileUrl="" stabilizationMode="0" mediaItemType="2" />
    <MediaItem id="654" filePath="F:\Art_and_Design\HolidayAnimation2015\Jars+Kitchen+Logos\HolidayAnimation2015\Renders\0660.png" arWidth="960" arHeight="540" duration="0" songTitle="" songArtist="" songAlbum="" songCopyrightUrl="" songArtistUrl="" songAudioFileUrl="" stabilizationMode="0" mediaItemType="2" />
    <MediaItem id="655" filePath="F:\Art_and_Design\HolidayAnimation2015\Jars+Kitchen+Logos\HolidayAnimation2015\Renders\0661.png" arWidth="960" arHeight="540" duration="0" songTitle="" songArtist="" songAlbum="" songCopyrightUrl="" songArtistUrl="" songAudioFileUrl="" stabilizationMode="0" mediaItemType="2" />
    <MediaItem id="656" filePath="F:\Art_and_Design\HolidayAnimation2015\Jars+Kitchen+Logos\HolidayAnimation2015\Renders\0662.png" arWidth="960" arHeight="540" duration="0" songTitle="" songArtist="" songAlbum="" songCopyrightUrl="" songArtistUrl="" songAudioFileUrl="" stabilizationMode="0" mediaItemType="2" />
    <MediaItem id="657" filePath="F:\Art_and_Design\HolidayAnimation2015\Jars+Kitchen+Logos\HolidayAnimation2015\Renders\0663.png" arWidth="960" arHeight="540" duration="0" songTitle="" songArtist="" songAlbum="" songCopyrightUrl="" songArtistUrl="" songAudioFileUrl="" stabilizationMode="0" mediaItemType="2" />
    <MediaItem id="658" filePath="F:\Art_and_Design\HolidayAnimation2015\Jars+Kitchen+Logos\HolidayAnimation2015\Renders\0664.png" arWidth="960" arHeight="540" duration="0" songTitle="" songArtist="" songAlbum="" songCopyrightUrl="" songArtistUrl="" songAudioFileUrl="" stabilizationMode="0" mediaItemType="2" />
    <MediaItem id="659" filePath="F:\Art_and_Design\HolidayAnimation2015\Jars+Kitchen+Logos\HolidayAnimation2015\Renders\0665.png" arWidth="960" arHeight="540" duration="0" songTitle="" songArtist="" songAlbum="" songCopyrightUrl="" songArtistUrl="" songAudioFileUrl="" stabilizationMode="0" mediaItemType="2" />
    <MediaItem id="660" filePath="F:\Art_and_Design\HolidayAnimation2015\Jars+Kitchen+Logos\HolidayAnimation2015\Renders\0666.png" arWidth="960" arHeight="540" duration="0" songTitle="" songArtist="" songAlbum="" songCopyrightUrl="" songArtistUrl="" songAudioFileUrl="" stabilizationMode="0" mediaItemType="2" />
    <MediaItem id="661" filePath="F:\Art_and_Design\HolidayAnimation2015\Jars+Kitchen+Logos\HolidayAnimation2015\Renders\0667.png" arWidth="960" arHeight="540" duration="0" songTitle="" songArtist="" songAlbum="" songCopyrightUrl="" songArtistUrl="" songAudioFileUrl="" stabilizationMode="0" mediaItemType="2" />
    <MediaItem id="662" filePath="F:\Art_and_Design\HolidayAnimation2015\Jars+Kitchen+Logos\HolidayAnimation2015\Renders\0668.png" arWidth="960" arHeight="540" duration="0" songTitle="" songArtist="" songAlbum="" songCopyrightUrl="" songArtistUrl="" songAudioFileUrl="" stabilizationMode="0" mediaItemType="2" />
    <MediaItem id="663" filePath="F:\Art_and_Design\HolidayAnimation2015\Jars+Kitchen+Logos\HolidayAnimation2015\Renders\0669.png" arWidth="960" arHeight="540" duration="0" songTitle="" songArtist="" songAlbum="" songCopyrightUrl="" songArtistUrl="" songAudioFileUrl="" stabilizationMode="0" mediaItemType="2" />
    <MediaItem id="664" filePath="F:\Art_and_Design\HolidayAnimation2015\Jars+Kitchen+Logos\HolidayAnimation2015\Renders\0670.png" arWidth="960" arHeight="540" duration="0" songTitle="" songArtist="" songAlbum="" songCopyrightUrl="" songArtistUrl="" songAudioFileUrl="" stabilizationMode="0" mediaItemType="2" />
    <MediaItem id="665" filePath="F:\Art_and_Design\HolidayAnimation2015\Jars+Kitchen+Logos\HolidayAnimation2015\Renders\0671.png" arWidth="960" arHeight="540" duration="0" songTitle="" songArtist="" songAlbum="" songCopyrightUrl="" songArtistUrl="" songAudioFileUrl="" stabilizationMode="0" mediaItemType="2" />
    <MediaItem id="666" filePath="F:\Art_and_Design\HolidayAnimation2015\Jars+Kitchen+Logos\HolidayAnimation2015\Renders\0672.png" arWidth="960" arHeight="540" duration="0" songTitle="" songArtist="" songAlbum="" songCopyrightUrl="" songArtistUrl="" songAudioFileUrl="" stabilizationMode="0" mediaItemType="2" />
    <MediaItem id="667" filePath="F:\Art_and_Design\HolidayAnimation2015\Jars+Kitchen+Logos\HolidayAnimation2015\Renders\0673.png" arWidth="960" arHeight="540" duration="0" songTitle="" songArtist="" songAlbum="" songCopyrightUrl="" songArtistUrl="" songAudioFileUrl="" stabilizationMode="0" mediaItemType="2" />
    <MediaItem id="668" filePath="F:\Art_and_Design\HolidayAnimation2015\Jars+Kitchen+Logos\HolidayAnimation2015\Renders\0674.png" arWidth="960" arHeight="540" duration="0" songTitle="" songArtist="" songAlbum="" songCopyrightUrl="" songArtistUrl="" songAudioFileUrl="" stabilizationMode="0" mediaItemType="2" />
    <MediaItem id="669" filePath="F:\Art_and_Design\HolidayAnimation2015\Jars+Kitchen+Logos\HolidayAnimation2015\Renders\0675.png" arWidth="960" arHeight="540" duration="0" songTitle="" songArtist="" songAlbum="" songCopyrightUrl="" songArtistUrl="" songAudioFileUrl="" stabilizationMode="0" mediaItemType="2" />
    <MediaItem id="670" filePath="F:\Art_and_Design\HolidayAnimation2015\Jars+Kitchen+Logos\HolidayAnimation2015\Renders\0676.png" arWidth="960" arHeight="540" duration="0" songTitle="" songArtist="" songAlbum="" songCopyrightUrl="" songArtistUrl="" songAudioFileUrl="" stabilizationMode="0" mediaItemType="2" />
    <MediaItem id="671" filePath="F:\Art_and_Design\HolidayAnimation2015\Jars+Kitchen+Logos\HolidayAnimation2015\Renders\0677.png" arWidth="960" arHeight="540" duration="0" songTitle="" songArtist="" songAlbum="" songCopyrightUrl="" songArtistUrl="" songAudioFileUrl="" stabilizationMode="0" mediaItemType="2" />
    <MediaItem id="672" filePath="F:\Art_and_Design\HolidayAnimation2015\Jars+Kitchen+Logos\HolidayAnimation2015\Renders\0678.png" arWidth="960" arHeight="540" duration="0" songTitle="" songArtist="" songAlbum="" songCopyrightUrl="" songArtistUrl="" songAudioFileUrl="" stabilizationMode="0" mediaItemType="2" />
    <MediaItem id="673" filePath="F:\Art_and_Design\HolidayAnimation2015\Jars+Kitchen+Logos\HolidayAnimation2015\Renders\0679.png" arWidth="960" arHeight="540" duration="0" songTitle="" songArtist="" songAlbum="" songCopyrightUrl="" songArtistUrl="" songAudioFileUrl="" stabilizationMode="0" mediaItemType="2" />
    <MediaItem id="674" filePath="F:\Art_and_Design\HolidayAnimation2015\Jars+Kitchen+Logos\HolidayAnimation2015\Renders\0680.png" arWidth="960" arHeight="540" duration="0" songTitle="" songArtist="" songAlbum="" songCopyrightUrl="" songArtistUrl="" songAudioFileUrl="" stabilizationMode="0" mediaItemType="2" />
    <MediaItem id="675" filePath="F:\Art_and_Design\HolidayAnimation2015\Jars+Kitchen+Logos\HolidayAnimation2015\Renders\0681.png" arWidth="960" arHeight="540" duration="0" songTitle="" songArtist="" songAlbum="" songCopyrightUrl="" songArtistUrl="" songAudioFileUrl="" stabilizationMode="0" mediaItemType="2" />
    <MediaItem id="676" filePath="F:\Art_and_Design\HolidayAnimation2015\Jars+Kitchen+Logos\HolidayAnimation2015\Renders\0682.png" arWidth="960" arHeight="540" duration="0" songTitle="" songArtist="" songAlbum="" songCopyrightUrl="" songArtistUrl="" songAudioFileUrl="" stabilizationMode="0" mediaItemType="2" />
    <MediaItem id="677" filePath="F:\Art_and_Design\HolidayAnimation2015\Jars+Kitchen+Logos\HolidayAnimation2015\Renders\0683.png" arWidth="960" arHeight="540" duration="0" songTitle="" songArtist="" songAlbum="" songCopyrightUrl="" songArtistUrl="" songAudioFileUrl="" stabilizationMode="0" mediaItemType="2" />
    <MediaItem id="678" filePath="F:\Art_and_Design\HolidayAnimation2015\Jars+Kitchen+Logos\HolidayAnimation2015\Renders\0684.png" arWidth="960" arHeight="540" duration="0" songTitle="" songArtist="" songAlbum="" songCopyrightUrl="" songArtistUrl="" songAudioFileUrl="" stabilizationMode="0" mediaItemType="2" />
    <MediaItem id="679" filePath="F:\Art_and_Design\HolidayAnimation2015\Jars+Kitchen+Logos\HolidayAnimation2015\Renders\0685.png" arWidth="960" arHeight="540" duration="0" songTitle="" songArtist="" songAlbum="" songCopyrightUrl="" songArtistUrl="" songAudioFileUrl="" stabilizationMode="0" mediaItemType="2" />
    <MediaItem id="680" filePath="F:\Art_and_Design\HolidayAnimation2015\Jars+Kitchen+Logos\HolidayAnimation2015\Renders\0686.png" arWidth="960" arHeight="540" duration="0" songTitle="" songArtist="" songAlbum="" songCopyrightUrl="" songArtistUrl="" songAudioFileUrl="" stabilizationMode="0" mediaItemType="2" />
    <MediaItem id="681" filePath="F:\Art_and_Design\HolidayAnimation2015\Jars+Kitchen+Logos\HolidayAnimation2015\Renders\0687.png" arWidth="960" arHeight="540" duration="0" songTitle="" songArtist="" songAlbum="" songCopyrightUrl="" songArtistUrl="" songAudioFileUrl="" stabilizationMode="0" mediaItemType="2" />
    <MediaItem id="682" filePath="F:\Art_and_Design\HolidayAnimation2015\Jars+Kitchen+Logos\HolidayAnimation2015\Renders\0688.png" arWidth="960" arHeight="540" duration="0" songTitle="" songArtist="" songAlbum="" songCopyrightUrl="" songArtistUrl="" songAudioFileUrl="" stabilizationMode="0" mediaItemType="2" />
    <MediaItem id="683" filePath="F:\Art_and_Design\HolidayAnimation2015\Jars+Kitchen+Logos\HolidayAnimation2015\Renders\0689.png" arWidth="960" arHeight="540" duration="0" songTitle="" songArtist="" songAlbum="" songCopyrightUrl="" songArtistUrl="" songAudioFileUrl="" stabilizationMode="0" mediaItemType="2" />
    <MediaItem id="684" filePath="F:\Art_and_Design\HolidayAnimation2015\Jars+Kitchen+Logos\HolidayAnimation2015\Renders\0690.png" arWidth="960" arHeight="540" duration="0" songTitle="" songArtist="" songAlbum="" songCopyrightUrl="" songArtistUrl="" songAudioFileUrl="" stabilizationMode="0" mediaItemType="2" />
    <MediaItem id="685" filePath="F:\Art_and_Design\HolidayAnimation2015\Jars+Kitchen+Logos\HolidayAnimation2015\Renders\0691.png" arWidth="960" arHeight="540" duration="0" songTitle="" songArtist="" songAlbum="" songCopyrightUrl="" songArtistUrl="" songAudioFileUrl="" stabilizationMode="0" mediaItemType="2" />
    <MediaItem id="686" filePath="F:\Art_and_Design\HolidayAnimation2015\Jars+Kitchen+Logos\HolidayAnimation2015\Renders\0692.png" arWidth="960" arHeight="540" duration="0" songTitle="" songArtist="" songAlbum="" songCopyrightUrl="" songArtistUrl="" songAudioFileUrl="" stabilizationMode="0" mediaItemType="2" />
    <MediaItem id="687" filePath="F:\Art_and_Design\HolidayAnimation2015\Jars+Kitchen+Logos\HolidayAnimation2015\Renders\0693.png" arWidth="960" arHeight="540" duration="0" songTitle="" songArtist="" songAlbum="" songCopyrightUrl="" songArtistUrl="" songAudioFileUrl="" stabilizationMode="0" mediaItemType="2" />
    <MediaItem id="688" filePath="F:\Art_and_Design\HolidayAnimation2015\Jars+Kitchen+Logos\HolidayAnimation2015\Renders\0694.png" arWidth="960" arHeight="540" duration="0" songTitle="" songArtist="" songAlbum="" songCopyrightUrl="" songArtistUrl="" songAudioFileUrl="" stabilizationMode="0" mediaItemType="2" />
    <MediaItem id="689" filePath="F:\Art_and_Design\HolidayAnimation2015\Jars+Kitchen+Logos\HolidayAnimation2015\Renders\0695.png" arWidth="960" arHeight="540" duration="0" songTitle="" songArtist="" songAlbum="" songCopyrightUrl="" songArtistUrl="" songAudioFileUrl="" stabilizationMode="0" mediaItemType="2" />
    <MediaItem id="690" filePath="F:\Art_and_Design\HolidayAnimation2015\Jars+Kitchen+Logos\HolidayAnimation2015\Renders\0696.png" arWidth="960" arHeight="540" duration="0" songTitle="" songArtist="" songAlbum="" songCopyrightUrl="" songArtistUrl="" songAudioFileUrl="" stabilizationMode="0" mediaItemType="2" />
    <MediaItem id="691" filePath="F:\Art_and_Design\HolidayAnimation2015\Jars+Kitchen+Logos\HolidayAnimation2015\Renders\0697.png" arWidth="960" arHeight="540" duration="0" songTitle="" songArtist="" songAlbum="" songCopyrightUrl="" songArtistUrl="" songAudioFileUrl="" stabilizationMode="0" mediaItemType="2" />
    <MediaItem id="692" filePath="F:\Art_and_Design\HolidayAnimation2015\Jars+Kitchen+Logos\HolidayAnimation2015\Renders\0698.png" arWidth="960" arHeight="540" duration="0" songTitle="" songArtist="" songAlbum="" songCopyrightUrl="" songArtistUrl="" songAudioFileUrl="" stabilizationMode="0" mediaItemType="2" />
    <MediaItem id="693" filePath="F:\Art_and_Design\HolidayAnimation2015\Jars+Kitchen+Logos\HolidayAnimation2015\Renders\0699.png" arWidth="960" arHeight="540" duration="0" songTitle="" songArtist="" songAlbum="" songCopyrightUrl="" songArtistUrl="" songAudioFileUrl="" stabilizationMode="0" mediaItemType="2" />
    <MediaItem id="694" filePath="F:\Art_and_Design\HolidayAnimation2015\Jars+Kitchen+Logos\HolidayAnimation2015\Renders\0700.png" arWidth="960" arHeight="540" duration="0" songTitle="" songArtist="" songAlbum="" songCopyrightUrl="" songArtistUrl="" songAudioFileUrl="" stabilizationMode="0" mediaItemType="2" />
    <MediaItem id="695" filePath="F:\Art_and_Design\HolidayAnimation2015\Jars+Kitchen+Logos\HolidayAnimation2015\Renders\0701.png" arWidth="960" arHeight="540" duration="0" songTitle="" songArtist="" songAlbum="" songCopyrightUrl="" songArtistUrl="" songAudioFileUrl="" stabilizationMode="0" mediaItemType="2" />
    <MediaItem id="696" filePath="F:\Art_and_Design\HolidayAnimation2015\Jars+Kitchen+Logos\HolidayAnimation2015\Renders\0702.png" arWidth="960" arHeight="540" duration="0" songTitle="" songArtist="" songAlbum="" songCopyrightUrl="" songArtistUrl="" songAudioFileUrl="" stabilizationMode="0" mediaItemType="2" />
    <MediaItem id="697" filePath="F:\Art_and_Design\HolidayAnimation2015\Jars+Kitchen+Logos\HolidayAnimation2015\Renders\0703.png" arWidth="960" arHeight="540" duration="0" songTitle="" songArtist="" songAlbum="" songCopyrightUrl="" songArtistUrl="" songAudioFileUrl="" stabilizationMode="0" mediaItemType="2" />
    <MediaItem id="698" filePath="F:\Art_and_Design\HolidayAnimation2015\Jars+Kitchen+Logos\HolidayAnimation2015\Renders\0704.png" arWidth="960" arHeight="540" duration="0" songTitle="" songArtist="" songAlbum="" songCopyrightUrl="" songArtistUrl="" songAudioFileUrl="" stabilizationMode="0" mediaItemType="2" />
    <MediaItem id="699" filePath="F:\Art_and_Design\HolidayAnimation2015\Jars+Kitchen+Logos\HolidayAnimation2015\Renders\0705.png" arWidth="960" arHeight="540" duration="0" songTitle="" songArtist="" songAlbum="" songCopyrightUrl="" songArtistUrl="" songAudioFileUrl="" stabilizationMode="0" mediaItemType="2" />
    <MediaItem id="700" filePath="F:\Art_and_Design\HolidayAnimation2015\Jars+Kitchen+Logos\HolidayAnimation2015\Renders\0706.png" arWidth="960" arHeight="540" duration="0" songTitle="" songArtist="" songAlbum="" songCopyrightUrl="" songArtistUrl="" songAudioFileUrl="" stabilizationMode="0" mediaItemType="2" />
    <MediaItem id="701" filePath="F:\Art_and_Design\HolidayAnimation2015\Jars+Kitchen+Logos\HolidayAnimation2015\Renders\0707.png" arWidth="960" arHeight="540" duration="0" songTitle="" songArtist="" songAlbum="" songCopyrightUrl="" songArtistUrl="" songAudioFileUrl="" stabilizationMode="0" mediaItemType="2" />
    <MediaItem id="702" filePath="F:\Art_and_Design\HolidayAnimation2015\Jars+Kitchen+Logos\HolidayAnimation2015\Renders\0708.png" arWidth="960" arHeight="540" duration="0" songTitle="" songArtist="" songAlbum="" songCopyrightUrl="" songArtistUrl="" songAudioFileUrl="" stabilizationMode="0" mediaItemType="2" />
    <MediaItem id="703" filePath="F:\Art_and_Design\HolidayAnimation2015\Jars+Kitchen+Logos\HolidayAnimation2015\Renders\0709.png" arWidth="960" arHeight="540" duration="0" songTitle="" songArtist="" songAlbum="" songCopyrightUrl="" songArtistUrl="" songAudioFileUrl="" stabilizationMode="0" mediaItemType="2" />
    <MediaItem id="704" filePath="F:\Art_and_Design\HolidayAnimation2015\Jars+Kitchen+Logos\HolidayAnimation2015\Renders\0710.png" arWidth="960" arHeight="540" duration="0" songTitle="" songArtist="" songAlbum="" songCopyrightUrl="" songArtistUrl="" songAudioFileUrl="" stabilizationMode="0" mediaItemType="2" />
    <MediaItem id="705" filePath="F:\Art_and_Design\HolidayAnimation2015\Jars+Kitchen+Logos\HolidayAnimation2015\Renders\0711.png" arWidth="960" arHeight="540" duration="0" songTitle="" songArtist="" songAlbum="" songCopyrightUrl="" songArtistUrl="" songAudioFileUrl="" stabilizationMode="0" mediaItemType="2" />
    <MediaItem id="706" filePath="F:\Art_and_Design\HolidayAnimation2015\Jars+Kitchen+Logos\HolidayAnimation2015\Renders\0712.png" arWidth="960" arHeight="540" duration="0" songTitle="" songArtist="" songAlbum="" songCopyrightUrl="" songArtistUrl="" songAudioFileUrl="" stabilizationMode="0" mediaItemType="2" />
    <MediaItem id="707" filePath="F:\Art_and_Design\HolidayAnimation2015\Jars+Kitchen+Logos\HolidayAnimation2015\Renders\0713.png" arWidth="960" arHeight="540" duration="0" songTitle="" songArtist="" songAlbum="" songCopyrightUrl="" songArtistUrl="" songAudioFileUrl="" stabilizationMode="0" mediaItemType="2" />
    <MediaItem id="708" filePath="F:\Art_and_Design\HolidayAnimation2015\Jars+Kitchen+Logos\HolidayAnimation2015\Renders\0714.png" arWidth="960" arHeight="540" duration="0" songTitle="" songArtist="" songAlbum="" songCopyrightUrl="" songArtistUrl="" songAudioFileUrl="" stabilizationMode="0" mediaItemType="2" />
    <MediaItem id="709" filePath="F:\Art_and_Design\HolidayAnimation2015\Jars+Kitchen+Logos\HolidayAnimation2015\Renders\0715.png" arWidth="960" arHeight="540" duration="0" songTitle="" songArtist="" songAlbum="" songCopyrightUrl="" songArtistUrl="" songAudioFileUrl="" stabilizationMode="0" mediaItemType="2" />
    <MediaItem id="710" filePath="F:\Art_and_Design\HolidayAnimation2015\Jars+Kitchen+Logos\HolidayAnimation2015\Renders\0716.png" arWidth="960" arHeight="540" duration="0" songTitle="" songArtist="" songAlbum="" songCopyrightUrl="" songArtistUrl="" songAudioFileUrl="" stabilizationMode="0" mediaItemType="2" />
    <MediaItem id="711" filePath="F:\Art_and_Design\HolidayAnimation2015\Jars+Kitchen+Logos\HolidayAnimation2015\Renders\0717.png" arWidth="960" arHeight="540" duration="0" songTitle="" songArtist="" songAlbum="" songCopyrightUrl="" songArtistUrl="" songAudioFileUrl="" stabilizationMode="0" mediaItemType="2" />
    <MediaItem id="712" filePath="F:\Art_and_Design\HolidayAnimation2015\Jars+Kitchen+Logos\HolidayAnimation2015\Renders\0718.png" arWidth="960" arHeight="540" duration="0" songTitle="" songArtist="" songAlbum="" songCopyrightUrl="" songArtistUrl="" songAudioFileUrl="" stabilizationMode="0" mediaItemType="2" />
    <MediaItem id="713" filePath="F:\Art_and_Design\HolidayAnimation2015\Jars+Kitchen+Logos\HolidayAnimation2015\Renders\0719.png" arWidth="960" arHeight="540" duration="0" songTitle="" songArtist="" songAlbum="" songCopyrightUrl="" songArtistUrl="" songAudioFileUrl="" stabilizationMode="0" mediaItemType="2" />
    <MediaItem id="714" filePath="F:\Art_and_Design\HolidayAnimation2015\Jars+Kitchen+Logos\HolidayAnimation2015\Renders\0720.png" arWidth="960" arHeight="540" duration="0" songTitle="" songArtist="" songAlbum="" songCopyrightUrl="" songArtistUrl="" songAudioFileUrl="" stabilizationMode="0" mediaItemType="2" />
    <MediaItem id="715" filePath="F:\Art_and_Design\HolidayAnimation2015\Jars+Kitchen+Logos\HolidayAnimation2015\Renders\0721.png" arWidth="960" arHeight="540" duration="0" songTitle="" songArtist="" songAlbum="" songCopyrightUrl="" songArtistUrl="" songAudioFileUrl="" stabilizationMode="0" mediaItemType="2" />
    <MediaItem id="716" filePath="F:\Art_and_Design\HolidayAnimation2015\Jars+Kitchen+Logos\HolidayAnimation2015\Renders\0722.png" arWidth="960" arHeight="540" duration="0" songTitle="" songArtist="" songAlbum="" songCopyrightUrl="" songArtistUrl="" songAudioFileUrl="" stabilizationMode="0" mediaItemType="2" />
    <MediaItem id="717" filePath="F:\Art_and_Design\HolidayAnimation2015\Jars+Kitchen+Logos\HolidayAnimation2015\Renders\0723.png" arWidth="960" arHeight="540" duration="0" songTitle="" songArtist="" songAlbum="" songCopyrightUrl="" songArtistUrl="" songAudioFileUrl="" stabilizationMode="0" mediaItemType="2" />
    <MediaItem id="718" filePath="F:\Art_and_Design\HolidayAnimation2015\Jars+Kitchen+Logos\HolidayAnimation2015\Renders\0724.png" arWidth="960" arHeight="540" duration="0" songTitle="" songArtist="" songAlbum="" songCopyrightUrl="" songArtistUrl="" songAudioFileUrl="" stabilizationMode="0" mediaItemType="2" />
    <MediaItem id="719" filePath="F:\Art_and_Design\HolidayAnimation2015\Jars+Kitchen+Logos\HolidayAnimation2015\Renders\0725.png" arWidth="960" arHeight="540" duration="0" songTitle="" songArtist="" songAlbum="" songCopyrightUrl="" songArtistUrl="" songAudioFileUrl="" stabilizationMode="0" mediaItemType="2" />
    <MediaItem id="720" filePath="F:\Art_and_Design\HolidayAnimation2015\Jars+Kitchen+Logos\HolidayAnimation2015\Renders\0726.png" arWidth="960" arHeight="540" duration="0" songTitle="" songArtist="" songAlbum="" songCopyrightUrl="" songArtistUrl="" songAudioFileUrl="" stabilizationMode="0" mediaItemType="2" />
    <MediaItem id="721" filePath="F:\Art_and_Design\HolidayAnimation2015\Jars+Kitchen+Logos\HolidayAnimation2015\Renders\0727.png" arWidth="960" arHeight="540" duration="0" songTitle="" songArtist="" songAlbum="" songCopyrightUrl="" songArtistUrl="" songAudioFileUrl="" stabilizationMode="0" mediaItemType="2" />
    <MediaItem id="722" filePath="F:\Art_and_Design\HolidayAnimation2015\Jars+Kitchen+Logos\HolidayAnimation2015\Renders\0728.png" arWidth="960" arHeight="540" duration="0" songTitle="" songArtist="" songAlbum="" songCopyrightUrl="" songArtistUrl="" songAudioFileUrl="" stabilizationMode="0" mediaItemType="2" />
    <MediaItem id="723" filePath="F:\Art_and_Design\HolidayAnimation2015\Jars+Kitchen+Logos\HolidayAnimation2015\Renders\0729.png" arWidth="960" arHeight="540" duration="0" songTitle="" songArtist="" songAlbum="" songCopyrightUrl="" songArtistUrl="" songAudioFileUrl="" stabilizationMode="0" mediaItemType="2" />
    <MediaItem id="724" filePath="F:\Art_and_Design\HolidayAnimation2015\Jars+Kitchen+Logos\HolidayAnimation2015\Renders\0730.png" arWidth="960" arHeight="540" duration="0" songTitle="" songArtist="" songAlbum="" songCopyrightUrl="" songArtistUrl="" songAudioFileUrl="" stabilizationMode="0" mediaItemType="2" />
    <MediaItem id="725" filePath="F:\Art_and_Design\HolidayAnimation2015\Jars+Kitchen+Logos\HolidayAnimation2015\Renders\0731.png" arWidth="960" arHeight="540" duration="0" songTitle="" songArtist="" songAlbum="" songCopyrightUrl="" songArtistUrl="" songAudioFileUrl="" stabilizationMode="0" mediaItemType="2" />
    <MediaItem id="726" filePath="F:\Art_and_Design\HolidayAnimation2015\Jars+Kitchen+Logos\HolidayAnimation2015\Renders\0732.png" arWidth="960" arHeight="540" duration="0" songTitle="" songArtist="" songAlbum="" songCopyrightUrl="" songArtistUrl="" songAudioFileUrl="" stabilizationMode="0" mediaItemType="2" />
    <MediaItem id="727" filePath="F:\Art_and_Design\HolidayAnimation2015\Jars+Kitchen+Logos\HolidayAnimation2015\Renders\0733.png" arWidth="960" arHeight="540" duration="0" songTitle="" songArtist="" songAlbum="" songCopyrightUrl="" songArtistUrl="" songAudioFileUrl="" stabilizationMode="0" mediaItemType="2" />
    <MediaItem id="728" filePath="F:\Art_and_Design\HolidayAnimation2015\Jars+Kitchen+Logos\HolidayAnimation2015\Renders\0734.png" arWidth="960" arHeight="540" duration="0" songTitle="" songArtist="" songAlbum="" songCopyrightUrl="" songArtistUrl="" songAudioFileUrl="" stabilizationMode="0" mediaItemType="2" />
    <MediaItem id="729" filePath="F:\Art_and_Design\HolidayAnimation2015\Jars+Kitchen+Logos\HolidayAnimation2015\Renders\0735.png" arWidth="960" arHeight="540" duration="0" songTitle="" songArtist="" songAlbum="" songCopyrightUrl="" songArtistUrl="" songAudioFileUrl="" stabilizationMode="0" mediaItemType="2" />
    <MediaItem id="730" filePath="F:\Art_and_Design\HolidayAnimation2015\Jars+Kitchen+Logos\HolidayAnimation2015\Renders\0736.png" arWidth="960" arHeight="540" duration="0" songTitle="" songArtist="" songAlbum="" songCopyrightUrl="" songArtistUrl="" songAudioFileUrl="" stabilizationMode="0" mediaItemType="2" />
    <MediaItem id="731" filePath="F:\Art_and_Design\HolidayAnimation2015\Jars+Kitchen+Logos\HolidayAnimation2015\Renders\0737.png" arWidth="960" arHeight="540" duration="0" songTitle="" songArtist="" songAlbum="" songCopyrightUrl="" songArtistUrl="" songAudioFileUrl="" stabilizationMode="0" mediaItemType="2" />
    <MediaItem id="732" filePath="F:\Art_and_Design\HolidayAnimation2015\Jars+Kitchen+Logos\HolidayAnimation2015\Renders\0738.png" arWidth="960" arHeight="540" duration="0" songTitle="" songArtist="" songAlbum="" songCopyrightUrl="" songArtistUrl="" songAudioFileUrl="" stabilizationMode="0" mediaItemType="2" />
    <MediaItem id="733" filePath="F:\Art_and_Design\HolidayAnimation2015\Jars+Kitchen+Logos\HolidayAnimation2015\Renders\0739.png" arWidth="960" arHeight="540" duration="0" songTitle="" songArtist="" songAlbum="" songCopyrightUrl="" songArtistUrl="" songAudioFileUrl="" stabilizationMode="0" mediaItemType="2" />
    <MediaItem id="734" filePath="F:\Art_and_Design\HolidayAnimation2015\Jars+Kitchen+Logos\HolidayAnimation2015\Renders\0740.png" arWidth="960" arHeight="540" duration="0" songTitle="" songArtist="" songAlbum="" songCopyrightUrl="" songArtistUrl="" songAudioFileUrl="" stabilizationMode="0" mediaItemType="2" />
    <MediaItem id="735" filePath="F:\Art_and_Design\HolidayAnimation2015\Jars+Kitchen+Logos\HolidayAnimation2015\Renders\0741.png" arWidth="960" arHeight="540" duration="0" songTitle="" songArtist="" songAlbum="" songCopyrightUrl="" songArtistUrl="" songAudioFileUrl="" stabilizationMode="0" mediaItemType="2" />
    <MediaItem id="736" filePath="F:\Art_and_Design\HolidayAnimation2015\Jars+Kitchen+Logos\HolidayAnimation2015\Renders\0742.png" arWidth="960" arHeight="540" duration="0" songTitle="" songArtist="" songAlbum="" songCopyrightUrl="" songArtistUrl="" songAudioFileUrl="" stabilizationMode="0" mediaItemType="2" />
    <MediaItem id="737" filePath="F:\Art_and_Design\HolidayAnimation2015\Jars+Kitchen+Logos\HolidayAnimation2015\Renders\0743.png" arWidth="960" arHeight="540" duration="0" songTitle="" songArtist="" songAlbum="" songCopyrightUrl="" songArtistUrl="" songAudioFileUrl="" stabilizationMode="0" mediaItemType="2" />
    <MediaItem id="738" filePath="F:\Art_and_Design\HolidayAnimation2015\Jars+Kitchen+Logos\HolidayAnimation2015\Renders\0744.png" arWidth="960" arHeight="540" duration="0" songTitle="" songArtist="" songAlbum="" songCopyrightUrl="" songArtistUrl="" songAudioFileUrl="" stabilizationMode="0" mediaItemType="2" />
    <MediaItem id="739" filePath="F:\Art_and_Design\HolidayAnimation2015\Jars+Kitchen+Logos\HolidayAnimation2015\Renders\0745.png" arWidth="960" arHeight="540" duration="0" songTitle="" songArtist="" songAlbum="" songCopyrightUrl="" songArtistUrl="" songAudioFileUrl="" stabilizationMode="0" mediaItemType="2" />
    <MediaItem id="740" filePath="F:\Art_and_Design\HolidayAnimation2015\Jars+Kitchen+Logos\HolidayAnimation2015\Renders\0746.png" arWidth="960" arHeight="540" duration="0" songTitle="" songArtist="" songAlbum="" songCopyrightUrl="" songArtistUrl="" songAudioFileUrl="" stabilizationMode="0" mediaItemType="2" />
    <MediaItem id="741" filePath="F:\Art_and_Design\HolidayAnimation2015\Jars+Kitchen+Logos\HolidayAnimation2015\Renders\0747.png" arWidth="960" arHeight="540" duration="0" songTitle="" songArtist="" songAlbum="" songCopyrightUrl="" songArtistUrl="" songAudioFileUrl="" stabilizationMode="0" mediaItemType="2" />
    <MediaItem id="742" filePath="F:\Art_and_Design\HolidayAnimation2015\Jars+Kitchen+Logos\HolidayAnimation2015\Renders\0748.png" arWidth="960" arHeight="540" duration="0" songTitle="" songArtist="" songAlbum="" songCopyrightUrl="" songArtistUrl="" songAudioFileUrl="" stabilizationMode="0" mediaItemType="2" />
    <MediaItem id="743" filePath="F:\Art_and_Design\HolidayAnimation2015\Jars+Kitchen+Logos\HolidayAnimation2015\Renders\0749.png" arWidth="960" arHeight="540" duration="0" songTitle="" songArtist="" songAlbum="" songCopyrightUrl="" songArtistUrl="" songAudioFileUrl="" stabilizationMode="0" mediaItemType="2" />
    <MediaItem id="744" filePath="F:\Art_and_Design\HolidayAnimation2015\Jars+Kitchen+Logos\HolidayAnimation2015\Renders\0750.png" arWidth="960" arHeight="540" duration="0" songTitle="" songArtist="" songAlbum="" songCopyrightUrl="" songArtistUrl="" songAudioFileUrl="" stabilizationMode="0" mediaItemType="2" />
    <MediaItem id="745" filePath="F:\Art_and_Design\HolidayAnimation2015\Jars+Kitchen+Logos\HolidayAnimation2015\Renders\0751.png" arWidth="960" arHeight="540" duration="0" songTitle="" songArtist="" songAlbum="" songCopyrightUrl="" songArtistUrl="" songAudioFileUrl="" stabilizationMode="0" mediaItemType="2" />
    <MediaItem id="746" filePath="F:\Art_and_Design\HolidayAnimation2015\Jars+Kitchen+Logos\HolidayAnimation2015\Renders\0752.png" arWidth="960" arHeight="540" duration="0" songTitle="" songArtist="" songAlbum="" songCopyrightUrl="" songArtistUrl="" songAudioFileUrl="" stabilizationMode="0" mediaItemType="2" />
    <MediaItem id="747" filePath="F:\Art_and_Design\HolidayAnimation2015\Jars+Kitchen+Logos\HolidayAnimation2015\Renders\0753.png" arWidth="960" arHeight="540" duration="0" songTitle="" songArtist="" songAlbum="" songCopyrightUrl="" songArtistUrl="" songAudioFileUrl="" stabilizationMode="0" mediaItemType="2" />
    <MediaItem id="748" filePath="F:\Art_and_Design\HolidayAnimation2015\Jars+Kitchen+Logos\HolidayAnimation2015\Renders\0754.png" arWidth="960" arHeight="540" duration="0" songTitle="" songArtist="" songAlbum="" songCopyrightUrl="" songArtistUrl="" songAudioFileUrl="" stabilizationMode="0" mediaItemType="2" />
    <MediaItem id="749" filePath="F:\Art_and_Design\HolidayAnimation2015\Jars+Kitchen+Logos\HolidayAnimation2015\Renders\0755.png" arWidth="960" arHeight="540" duration="0" songTitle="" songArtist="" songAlbum="" songCopyrightUrl="" songArtistUrl="" songAudioFileUrl="" stabilizationMode="0" mediaItemType="2" />
    <MediaItem id="750" filePath="F:\Art_and_Design\HolidayAnimation2015\Jars+Kitchen+Logos\HolidayAnimation2015\Renders\0756.png" arWidth="960" arHeight="540" duration="0" songTitle="" songArtist="" songAlbum="" songCopyrightUrl="" songArtistUrl="" songAudioFileUrl="" stabilizationMode="0" mediaItemType="2" />
    <MediaItem id="751" filePath="F:\Art_and_Design\HolidayAnimation2015\Jars+Kitchen+Logos\HolidayAnimation2015\Renders\0757.png" arWidth="960" arHeight="540" duration="0" songTitle="" songArtist="" songAlbum="" songCopyrightUrl="" songArtistUrl="" songAudioFileUrl="" stabilizationMode="0" mediaItemType="2" />
    <MediaItem id="752" filePath="F:\Art_and_Design\HolidayAnimation2015\Jars+Kitchen+Logos\HolidayAnimation2015\Renders\0758.png" arWidth="960" arHeight="540" duration="0" songTitle="" songArtist="" songAlbum="" songCopyrightUrl="" songArtistUrl="" songAudioFileUrl="" stabilizationMode="0" mediaItemType="2" />
    <MediaItem id="753" filePath="F:\Art_and_Design\HolidayAnimation2015\Jars+Kitchen+Logos\HolidayAnimation2015\Renders\0759.png" arWidth="960" arHeight="540" duration="0" songTitle="" songArtist="" songAlbum="" songCopyrightUrl="" songArtistUrl="" songAudioFileUrl="" stabilizationMode="0" mediaItemType="2" />
    <MediaItem id="754" filePath="F:\Art_and_Design\HolidayAnimation2015\Jars+Kitchen+Logos\HolidayAnimation2015\Renders\0760.png" arWidth="960" arHeight="540" duration="0" songTitle="" songArtist="" songAlbum="" songCopyrightUrl="" songArtistUrl="" songAudioFileUrl="" stabilizationMode="0" mediaItemType="2" />
    <MediaItem id="755" filePath="F:\Art_and_Design\HolidayAnimation2015\Jars+Kitchen+Logos\HolidayAnimation2015\Renders\0761.png" arWidth="960" arHeight="540" duration="0" songTitle="" songArtist="" songAlbum="" songCopyrightUrl="" songArtistUrl="" songAudioFileUrl="" stabilizationMode="0" mediaItemType="2" />
    <MediaItem id="756" filePath="F:\Art_and_Design\HolidayAnimation2015\Jars+Kitchen+Logos\HolidayAnimation2015\Renders\0762.png" arWidth="960" arHeight="540" duration="0" songTitle="" songArtist="" songAlbum="" songCopyrightUrl="" songArtistUrl="" songAudioFileUrl="" stabilizationMode="0" mediaItemType="2" />
    <MediaItem id="757" filePath="F:\Art_and_Design\HolidayAnimation2015\Jars+Kitchen+Logos\HolidayAnimation2015\Renders\0763.png" arWidth="960" arHeight="540" duration="0" songTitle="" songArtist="" songAlbum="" songCopyrightUrl="" songArtistUrl="" songAudioFileUrl="" stabilizationMode="0" mediaItemType="2" />
    <MediaItem id="758" filePath="F:\Art_and_Design\HolidayAnimation2015\Jars+Kitchen+Logos\HolidayAnimation2015\Renders\0764.png" arWidth="960" arHeight="540" duration="0" songTitle="" songArtist="" songAlbum="" songCopyrightUrl="" songArtistUrl="" songAudioFileUrl="" stabilizationMode="0" mediaItemType="2" />
    <MediaItem id="759" filePath="F:\Art_and_Design\HolidayAnimation2015\Jars+Kitchen+Logos\HolidayAnimation2015\Renders\0765.png" arWidth="960" arHeight="540" duration="0" songTitle="" songArtist="" songAlbum="" songCopyrightUrl="" songArtistUrl="" songAudioFileUrl="" stabilizationMode="0" mediaItemType="2" />
    <MediaItem id="760" filePath="F:\Art_and_Design\HolidayAnimation2015\Jars+Kitchen+Logos\HolidayAnimation2015\Renders\0766.png" arWidth="960" arHeight="540" duration="0" songTitle="" songArtist="" songAlbum="" songCopyrightUrl="" songArtistUrl="" songAudioFileUrl="" stabilizationMode="0" mediaItemType="2" />
    <MediaItem id="761" filePath="F:\Art_and_Design\HolidayAnimation2015\Jars+Kitchen+Logos\HolidayAnimation2015\Renders\0767.png" arWidth="960" arHeight="540" duration="0" songTitle="" songArtist="" songAlbum="" songCopyrightUrl="" songArtistUrl="" songAudioFileUrl="" stabilizationMode="0" mediaItemType="2" />
    <MediaItem id="762" filePath="F:\Art_and_Design\HolidayAnimation2015\Jars+Kitchen+Logos\HolidayAnimation2015\Renders\0768.png" arWidth="960" arHeight="540" duration="0" songTitle="" songArtist="" songAlbum="" songCopyrightUrl="" songArtistUrl="" songAudioFileUrl="" stabilizationMode="0" mediaItemType="2" />
    <MediaItem id="763" filePath="F:\Art_and_Design\HolidayAnimation2015\Jars+Kitchen+Logos\HolidayAnimation2015\Renders\0769.png" arWidth="960" arHeight="540" duration="0" songTitle="" songArtist="" songAlbum="" songCopyrightUrl="" songArtistUrl="" songAudioFileUrl="" stabilizationMode="0" mediaItemType="2" />
    <MediaItem id="764" filePath="F:\Art_and_Design\HolidayAnimation2015\Jars+Kitchen+Logos\HolidayAnimation2015\Renders\0770.png" arWidth="960" arHeight="540" duration="0" songTitle="" songArtist="" songAlbum="" songCopyrightUrl="" songArtistUrl="" songAudioFileUrl="" stabilizationMode="0" mediaItemType="2" />
    <MediaItem id="765" filePath="F:\Art_and_Design\HolidayAnimation2015\Jars+Kitchen+Logos\HolidayAnimation2015\Renders\0771.png" arWidth="960" arHeight="540" duration="0" songTitle="" songArtist="" songAlbum="" songCopyrightUrl="" songArtistUrl="" songAudioFileUrl="" stabilizationMode="0" mediaItemType="2" />
    <MediaItem id="766" filePath="F:\Art_and_Design\HolidayAnimation2015\Jars+Kitchen+Logos\HolidayAnimation2015\Renders\0772.png" arWidth="960" arHeight="540" duration="0" songTitle="" songArtist="" songAlbum="" songCopyrightUrl="" songArtistUrl="" songAudioFileUrl="" stabilizationMode="0" mediaItemType="2" />
    <MediaItem id="767" filePath="F:\Art_and_Design\HolidayAnimation2015\Jars+Kitchen+Logos\HolidayAnimation2015\Renders\0773.png" arWidth="960" arHeight="540" duration="0" songTitle="" songArtist="" songAlbum="" songCopyrightUrl="" songArtistUrl="" songAudioFileUrl="" stabilizationMode="0" mediaItemType="2" />
    <MediaItem id="768" filePath="F:\Art_and_Design\HolidayAnimation2015\Jars+Kitchen+Logos\HolidayAnimation2015\Renders\0774.png" arWidth="960" arHeight="540" duration="0" songTitle="" songArtist="" songAlbum="" songCopyrightUrl="" songArtistUrl="" songAudioFileUrl="" stabilizationMode="0" mediaItemType="2" />
    <MediaItem id="769" filePath="F:\Art_and_Design\HolidayAnimation2015\Jars+Kitchen+Logos\HolidayAnimation2015\Renders\0775.png" arWidth="960" arHeight="540" duration="0" songTitle="" songArtist="" songAlbum="" songCopyrightUrl="" songArtistUrl="" songAudioFileUrl="" stabilizationMode="0" mediaItemType="2" />
    <MediaItem id="770" filePath="F:\Art_and_Design\HolidayAnimation2015\Jars+Kitchen+Logos\HolidayAnimation2015\Renders\0776.png" arWidth="960" arHeight="540" duration="0" songTitle="" songArtist="" songAlbum="" songCopyrightUrl="" songArtistUrl="" songAudioFileUrl="" stabilizationMode="0" mediaItemType="2" />
    <MediaItem id="771" filePath="F:\Art_and_Design\HolidayAnimation2015\Jars+Kitchen+Logos\HolidayAnimation2015\Renders\0777.png" arWidth="960" arHeight="540" duration="0" songTitle="" songArtist="" songAlbum="" songCopyrightUrl="" songArtistUrl="" songAudioFileUrl="" stabilizationMode="0" mediaItemType="2" />
    <MediaItem id="772" filePath="F:\Art_and_Design\HolidayAnimation2015\Jars+Kitchen+Logos\HolidayAnimation2015\Renders\0778.png" arWidth="960" arHeight="540" duration="0" songTitle="" songArtist="" songAlbum="" songCopyrightUrl="" songArtistUrl="" songAudioFileUrl="" stabilizationMode="0" mediaItemType="2" />
    <MediaItem id="773" filePath="F:\Art_and_Design\HolidayAnimation2015\Jars+Kitchen+Logos\HolidayAnimation2015\Renders\0779.png" arWidth="960" arHeight="540" duration="0" songTitle="" songArtist="" songAlbum="" songCopyrightUrl="" songArtistUrl="" songAudioFileUrl="" stabilizationMode="0" mediaItemType="2" />
    <MediaItem id="774" filePath="F:\Art_and_Design\HolidayAnimation2015\Jars+Kitchen+Logos\HolidayAnimation2015\Renders\0780.png" arWidth="960" arHeight="540" duration="0" songTitle="" songArtist="" songAlbum="" songCopyrightUrl="" songArtistUrl="" songAudioFileUrl="" stabilizationMode="0" mediaItemType="2" />
    <MediaItem id="775" filePath="F:\Art_and_Design\HolidayAnimation2015\Jars+Kitchen+Logos\HolidayAnimation2015\Renders\0781.png" arWidth="960" arHeight="540" duration="0" songTitle="" songArtist="" songAlbum="" songCopyrightUrl="" songArtistUrl="" songAudioFileUrl="" stabilizationMode="0" mediaItemType="2" />
    <MediaItem id="776" filePath="F:\Art_and_Design\HolidayAnimation2015\Jars+Kitchen+Logos\HolidayAnimation2015\Renders\0782.png" arWidth="960" arHeight="540" duration="0" songTitle="" songArtist="" songAlbum="" songCopyrightUrl="" songArtistUrl="" songAudioFileUrl="" stabilizationMode="0" mediaItemType="2" />
    <MediaItem id="777" filePath="F:\Art_and_Design\HolidayAnimation2015\Jars+Kitchen+Logos\HolidayAnimation2015\Renders\0783.png" arWidth="960" arHeight="540" duration="0" songTitle="" songArtist="" songAlbum="" songCopyrightUrl="" songArtistUrl="" songAudioFileUrl="" stabilizationMode="0" mediaItemType="2" />
    <MediaItem id="778" filePath="F:\Art_and_Design\HolidayAnimation2015\Jars+Kitchen+Logos\HolidayAnimation2015\Renders\0784.png" arWidth="960" arHeight="540" duration="0" songTitle="" songArtist="" songAlbum="" songCopyrightUrl="" songArtistUrl="" songAudioFileUrl="" stabilizationMode="0" mediaItemType="2" />
    <MediaItem id="779" filePath="F:\Art_and_Design\HolidayAnimation2015\Jars+Kitchen+Logos\HolidayAnimation2015\Renders\0785.png" arWidth="960" arHeight="540" duration="0" songTitle="" songArtist="" songAlbum="" songCopyrightUrl="" songArtistUrl="" songAudioFileUrl="" stabilizationMode="0" mediaItemType="2" />
    <MediaItem id="780" filePath="F:\Art_and_Design\HolidayAnimation2015\Jars+Kitchen+Logos\HolidayAnimation2015\Renders\0786.png" arWidth="960" arHeight="540" duration="0" songTitle="" songArtist="" songAlbum="" songCopyrightUrl="" songArtistUrl="" songAudioFileUrl="" stabilizationMode="0" mediaItemType="2" />
    <MediaItem id="781" filePath="F:\Art_and_Design\HolidayAnimation2015\Jars+Kitchen+Logos\HolidayAnimation2015\Renders\0787.png" arWidth="960" arHeight="540" duration="0" songTitle="" songArtist="" songAlbum="" songCopyrightUrl="" songArtistUrl="" songAudioFileUrl="" stabilizationMode="0" mediaItemType="2" />
    <MediaItem id="782" filePath="F:\Art_and_Design\HolidayAnimation2015\Jars+Kitchen+Logos\HolidayAnimation2015\Renders\0788.png" arWidth="960" arHeight="540" duration="0" songTitle="" songArtist="" songAlbum="" songCopyrightUrl="" songArtistUrl="" songAudioFileUrl="" stabilizationMode="0" mediaItemType="2" />
    <MediaItem id="783" filePath="F:\Art_and_Design\HolidayAnimation2015\Jars+Kitchen+Logos\HolidayAnimation2015\Renders\0789.png" arWidth="960" arHeight="540" duration="0" songTitle="" songArtist="" songAlbum="" songCopyrightUrl="" songArtistUrl="" songAudioFileUrl="" stabilizationMode="0" mediaItemType="2" />
    <MediaItem id="784" filePath="F:\Art_and_Design\HolidayAnimation2015\Jars+Kitchen+Logos\HolidayAnimation2015\Renders\0790.png" arWidth="960" arHeight="540" duration="0" songTitle="" songArtist="" songAlbum="" songCopyrightUrl="" songArtistUrl="" songAudioFileUrl="" stabilizationMode="0" mediaItemType="2" />
    <MediaItem id="785" filePath="F:\Art_and_Design\HolidayAnimation2015\Jars+Kitchen+Logos\HolidayAnimation2015\Renders\0791.png" arWidth="960" arHeight="540" duration="0" songTitle="" songArtist="" songAlbum="" songCopyrightUrl="" songArtistUrl="" songAudioFileUrl="" stabilizationMode="0" mediaItemType="2" />
    <MediaItem id="786" filePath="F:\Art_and_Design\HolidayAnimation2015\Jars+Kitchen+Logos\HolidayAnimation2015\Renders\0792.png" arWidth="960" arHeight="540" duration="0" songTitle="" songArtist="" songAlbum="" songCopyrightUrl="" songArtistUrl="" songAudioFileUrl="" stabilizationMode="0" mediaItemType="2" />
    <MediaItem id="787" filePath="F:\Art_and_Design\HolidayAnimation2015\Jars+Kitchen+Logos\HolidayAnimation2015\Renders\0793.png" arWidth="960" arHeight="540" duration="0" songTitle="" songArtist="" songAlbum="" songCopyrightUrl="" songArtistUrl="" songAudioFileUrl="" stabilizationMode="0" mediaItemType="2" />
    <MediaItem id="788" filePath="F:\Art_and_Design\HolidayAnimation2015\Jars+Kitchen+Logos\HolidayAnimation2015\Renders\0794.png" arWidth="960" arHeight="540" duration="0" songTitle="" songArtist="" songAlbum="" songCopyrightUrl="" songArtistUrl="" songAudioFileUrl="" stabilizationMode="0" mediaItemType="2" />
    <MediaItem id="789" filePath="F:\Art_and_Design\HolidayAnimation2015\Jars+Kitchen+Logos\HolidayAnimation2015\Renders\0795.png" arWidth="960" arHeight="540" duration="0" songTitle="" songArtist="" songAlbum="" songCopyrightUrl="" songArtistUrl="" songAudioFileUrl="" stabilizationMode="0" mediaItemType="2" />
    <MediaItem id="790" filePath="F:\Art_and_Design\HolidayAnimation2015\Jars+Kitchen+Logos\HolidayAnimation2015\Renders\0796.png" arWidth="960" arHeight="540" duration="0" songTitle="" songArtist="" songAlbum="" songCopyrightUrl="" songArtistUrl="" songAudioFileUrl="" stabilizationMode="0" mediaItemType="2" />
    <MediaItem id="791" filePath="F:\Art_and_Design\HolidayAnimation2015\Jars+Kitchen+Logos\HolidayAnimation2015\Renders\0797.png" arWidth="960" arHeight="540" duration="0" songTitle="" songArtist="" songAlbum="" songCopyrightUrl="" songArtistUrl="" songAudioFileUrl="" stabilizationMode="0" mediaItemType="2" />
    <MediaItem id="792" filePath="F:\Art_and_Design\HolidayAnimation2015\Jars+Kitchen+Logos\HolidayAnimation2015\Renders\0798.png" arWidth="960" arHeight="540" duration="0" songTitle="" songArtist="" songAlbum="" songCopyrightUrl="" songArtistUrl="" songAudioFileUrl="" stabilizationMode="0" mediaItemType="2" />
    <MediaItem id="793" filePath="F:\Art_and_Design\HolidayAnimation2015\Jars+Kitchen+Logos\HolidayAnimation2015\Renders\0799.png" arWidth="960" arHeight="540" duration="0" songTitle="" songArtist="" songAlbum="" songCopyrightUrl="" songArtistUrl="" songAudioFileUrl="" stabilizationMode="0" mediaItemType="2" />
    <MediaItem id="794" filePath="F:\Art_and_Design\HolidayAnimation2015\Jars+Kitchen+Logos\HolidayAnimation2015\Renders\0800.png" arWidth="960" arHeight="540" duration="0" songTitle="" songArtist="" songAlbum="" songCopyrightUrl="" songArtistUrl="" songAudioFileUrl="" stabilizationMode="0" mediaItemType="2" />
    <MediaItem id="795" filePath="F:\Art_and_Design\HolidayAnimation2015\Jars+Kitchen+Logos\HolidayAnimation2015\Renders\0801.png" arWidth="960" arHeight="540" duration="0" songTitle="" songArtist="" songAlbum="" songCopyrightUrl="" songArtistUrl="" songAudioFileUrl="" stabilizationMode="0" mediaItemType="2" />
    <MediaItem id="796" filePath="F:\Art_and_Design\HolidayAnimation2015\Jars+Kitchen+Logos\HolidayAnimation2015\Renders\0802.png" arWidth="960" arHeight="540" duration="0" songTitle="" songArtist="" songAlbum="" songCopyrightUrl="" songArtistUrl="" songAudioFileUrl="" stabilizationMode="0" mediaItemType="2" />
    <MediaItem id="797" filePath="F:\Art_and_Design\HolidayAnimation2015\Jars+Kitchen+Logos\HolidayAnimation2015\Renders\0803.png" arWidth="960" arHeight="540" duration="0" songTitle="" songArtist="" songAlbum="" songCopyrightUrl="" songArtistUrl="" songAudioFileUrl="" stabilizationMode="0" mediaItemType="2" />
    <MediaItem id="798" filePath="F:\Art_and_Design\HolidayAnimation2015\Jars+Kitchen+Logos\HolidayAnimation2015\Renders\0804.png" arWidth="960" arHeight="540" duration="0" songTitle="" songArtist="" songAlbum="" songCopyrightUrl="" songArtistUrl="" songAudioFileUrl="" stabilizationMode="0" mediaItemType="2" />
    <MediaItem id="799" filePath="F:\Art_and_Design\HolidayAnimation2015\Jars+Kitchen+Logos\HolidayAnimation2015\Renders\0805.png" arWidth="960" arHeight="540" duration="0" songTitle="" songArtist="" songAlbum="" songCopyrightUrl="" songArtistUrl="" songAudioFileUrl="" stabilizationMode="0" mediaItemType="2" />
    <MediaItem id="800" filePath="F:\Art_and_Design\HolidayAnimation2015\Jars+Kitchen+Logos\HolidayAnimation2015\Renders\0806.png" arWidth="960" arHeight="540" duration="0" songTitle="" songArtist="" songAlbum="" songCopyrightUrl="" songArtistUrl="" songAudioFileUrl="" stabilizationMode="0" mediaItemType="2" />
    <MediaItem id="801" filePath="F:\Art_and_Design\HolidayAnimation2015\Jars+Kitchen+Logos\HolidayAnimation2015\Renders\0807.png" arWidth="960" arHeight="540" duration="0" songTitle="" songArtist="" songAlbum="" songCopyrightUrl="" songArtistUrl="" songAudioFileUrl="" stabilizationMode="0" mediaItemType="2" />
    <MediaItem id="802" filePath="F:\Art_and_Design\HolidayAnimation2015\Jars+Kitchen+Logos\HolidayAnimation2015\Renders\0808.png" arWidth="960" arHeight="540" duration="0" songTitle="" songArtist="" songAlbum="" songCopyrightUrl="" songArtistUrl="" songAudioFileUrl="" stabilizationMode="0" mediaItemType="2" />
    <MediaItem id="803" filePath="F:\Art_and_Design\HolidayAnimation2015\Jars+Kitchen+Logos\HolidayAnimation2015\Renders\0809.png" arWidth="960" arHeight="540" duration="0" songTitle="" songArtist="" songAlbum="" songCopyrightUrl="" songArtistUrl="" songAudioFileUrl="" stabilizationMode="0" mediaItemType="2" />
    <MediaItem id="804" filePath="F:\Art_and_Design\HolidayAnimation2015\Jars+Kitchen+Logos\HolidayAnimation2015\Renders\0810.png" arWidth="960" arHeight="540" duration="0" songTitle="" songArtist="" songAlbum="" songCopyrightUrl="" songArtistUrl="" songAudioFileUrl="" stabilizationMode="0" mediaItemType="2" />
    <MediaItem id="805" filePath="F:\Art_and_Design\HolidayAnimation2015\Jars+Kitchen+Logos\HolidayAnimation2015\Renders\0811.png" arWidth="960" arHeight="540" duration="0" songTitle="" songArtist="" songAlbum="" songCopyrightUrl="" songArtistUrl="" songAudioFileUrl="" stabilizationMode="0" mediaItemType="2" />
    <MediaItem id="806" filePath="F:\Art_and_Design\HolidayAnimation2015\Jars+Kitchen+Logos\HolidayAnimation2015\Renders\0812.png" arWidth="960" arHeight="540" duration="0" songTitle="" songArtist="" songAlbum="" songCopyrightUrl="" songArtistUrl="" songAudioFileUrl="" stabilizationMode="0" mediaItemType="2" />
    <MediaItem id="807" filePath="F:\Art_and_Design\HolidayAnimation2015\Jars+Kitchen+Logos\HolidayAnimation2015\Renders\0813.png" arWidth="960" arHeight="540" duration="0" songTitle="" songArtist="" songAlbum="" songCopyrightUrl="" songArtistUrl="" songAudioFileUrl="" stabilizationMode="0" mediaItemType="2" />
    <MediaItem id="808" filePath="F:\Art_and_Design\HolidayAnimation2015\Jars+Kitchen+Logos\HolidayAnimation2015\Renders\0814.png" arWidth="960" arHeight="540" duration="0" songTitle="" songArtist="" songAlbum="" songCopyrightUrl="" songArtistUrl="" songAudioFileUrl="" stabilizationMode="0" mediaItemType="2" />
    <MediaItem id="809" filePath="F:\Art_and_Design\HolidayAnimation2015\Jars+Kitchen+Logos\HolidayAnimation2015\Renders\0815.png" arWidth="960" arHeight="540" duration="0" songTitle="" songArtist="" songAlbum="" songCopyrightUrl="" songArtistUrl="" songAudioFileUrl="" stabilizationMode="0" mediaItemType="2" />
    <MediaItem id="810" filePath="F:\Art_and_Design\HolidayAnimation2015\Jars+Kitchen+Logos\HolidayAnimation2015\Renders\0816.png" arWidth="960" arHeight="540" duration="0" songTitle="" songArtist="" songAlbum="" songCopyrightUrl="" songArtistUrl="" songAudioFileUrl="" stabilizationMode="0" mediaItemType="2" />
    <MediaItem id="811" filePath="F:\Art_and_Design\HolidayAnimation2015\Jars+Kitchen+Logos\HolidayAnimation2015\Renders\0817.png" arWidth="960" arHeight="540" duration="0" songTitle="" songArtist="" songAlbum="" songCopyrightUrl="" songArtistUrl="" songAudioFileUrl="" stabilizationMode="0" mediaItemType="2" />
    <MediaItem id="812" filePath="F:\Art_and_Design\HolidayAnimation2015\Jars+Kitchen+Logos\HolidayAnimation2015\Renders\0818.png" arWidth="960" arHeight="540" duration="0" songTitle="" songArtist="" songAlbum="" songCopyrightUrl="" songArtistUrl="" songAudioFileUrl="" stabilizationMode="0" mediaItemType="2" />
    <MediaItem id="813" filePath="F:\Art_and_Design\HolidayAnimation2015\Jars+Kitchen+Logos\HolidayAnimation2015\Renders\0819.png" arWidth="960" arHeight="540" duration="0" songTitle="" songArtist="" songAlbum="" songCopyrightUrl="" songArtistUrl="" songAudioFileUrl="" stabilizationMode="0" mediaItemType="2" />
    <MediaItem id="814" filePath="F:\Art_and_Design\HolidayAnimation2015\Jars+Kitchen+Logos\HolidayAnimation2015\Renders\0820.png" arWidth="960" arHeight="540" duration="0" songTitle="" songArtist="" songAlbum="" songCopyrightUrl="" songArtistUrl="" songAudioFileUrl="" stabilizationMode="0" mediaItemType="2" />
    <MediaItem id="815" filePath="F:\Art_and_Design\HolidayAnimation2015\Jars+Kitchen+Logos\HolidayAnimation2015\Renders\0821.png" arWidth="960" arHeight="540" duration="0" songTitle="" songArtist="" songAlbum="" songCopyrightUrl="" songArtistUrl="" songAudioFileUrl="" stabilizationMode="0" mediaItemType="2" />
    <MediaItem id="816" filePath="F:\Art_and_Design\HolidayAnimation2015\Jars+Kitchen+Logos\HolidayAnimation2015\Renders\0822.png" arWidth="960" arHeight="540" duration="0" songTitle="" songArtist="" songAlbum="" songCopyrightUrl="" songArtistUrl="" songAudioFileUrl="" stabilizationMode="0" mediaItemType="2" />
    <MediaItem id="817" filePath="F:\Art_and_Design\HolidayAnimation2015\Jars+Kitchen+Logos\HolidayAnimation2015\Renders\0823.png" arWidth="960" arHeight="540" duration="0" songTitle="" songArtist="" songAlbum="" songCopyrightUrl="" songArtistUrl="" songAudioFileUrl="" stabilizationMode="0" mediaItemType="2" />
    <MediaItem id="818" filePath="F:\Art_and_Design\HolidayAnimation2015\Jars+Kitchen+Logos\HolidayAnimation2015\Renders\0824.png" arWidth="960" arHeight="540" duration="0" songTitle="" songArtist="" songAlbum="" songCopyrightUrl="" songArtistUrl="" songAudioFileUrl="" stabilizationMode="0" mediaItemType="2" />
    <MediaItem id="819" filePath="F:\Art_and_Design\HolidayAnimation2015\Jars+Kitchen+Logos\HolidayAnimation2015\Renders\0825.png" arWidth="960" arHeight="540" duration="0" songTitle="" songArtist="" songAlbum="" songCopyrightUrl="" songArtistUrl="" songAudioFileUrl="" stabilizationMode="0" mediaItemType="2" />
    <MediaItem id="820" filePath="F:\Art_and_Design\HolidayAnimation2015\Jars+Kitchen+Logos\HolidayAnimation2015\Renders\0826.png" arWidth="960" arHeight="540" duration="0" songTitle="" songArtist="" songAlbum="" songCopyrightUrl="" songArtistUrl="" songAudioFileUrl="" stabilizationMode="0" mediaItemType="2" />
    <MediaItem id="821" filePath="F:\Art_and_Design\HolidayAnimation2015\Jars+Kitchen+Logos\HolidayAnimation2015\Renders\0827.png" arWidth="960" arHeight="540" duration="0" songTitle="" songArtist="" songAlbum="" songCopyrightUrl="" songArtistUrl="" songAudioFileUrl="" stabilizationMode="0" mediaItemType="2" />
    <MediaItem id="822" filePath="F:\Art_and_Design\HolidayAnimation2015\Jars+Kitchen+Logos\HolidayAnimation2015\Renders\0828.png" arWidth="960" arHeight="540" duration="0" songTitle="" songArtist="" songAlbum="" songCopyrightUrl="" songArtistUrl="" songAudioFileUrl="" stabilizationMode="0" mediaItemType="2" />
    <MediaItem id="823" filePath="F:\Art_and_Design\HolidayAnimation2015\Jars+Kitchen+Logos\HolidayAnimation2015\Renders\0829.png" arWidth="960" arHeight="540" duration="0" songTitle="" songArtist="" songAlbum="" songCopyrightUrl="" songArtistUrl="" songAudioFileUrl="" stabilizationMode="0" mediaItemType="2" />
    <MediaItem id="824" filePath="F:\Art_and_Design\HolidayAnimation2015\Jars+Kitchen+Logos\HolidayAnimation2015\Renders\0830.png" arWidth="960" arHeight="540" duration="0" songTitle="" songArtist="" songAlbum="" songCopyrightUrl="" songArtistUrl="" songAudioFileUrl="" stabilizationMode="0" mediaItemType="2" />
    <MediaItem id="825" filePath="F:\Art_and_Design\HolidayAnimation2015\Jars+Kitchen+Logos\HolidayAnimation2015\Renders\0831.png" arWidth="960" arHeight="540" duration="0" songTitle="" songArtist="" songAlbum="" songCopyrightUrl="" songArtistUrl="" songAudioFileUrl="" stabilizationMode="0" mediaItemType="2" />
    <MediaItem id="826" filePath="F:\Art_and_Design\HolidayAnimation2015\Jars+Kitchen+Logos\HolidayAnimation2015\Renders\0832.png" arWidth="960" arHeight="540" duration="0" songTitle="" songArtist="" songAlbum="" songCopyrightUrl="" songArtistUrl="" songAudioFileUrl="" stabilizationMode="0" mediaItemType="2" />
    <MediaItem id="827" filePath="F:\Art_and_Design\HolidayAnimation2015\Jars+Kitchen+Logos\HolidayAnimation2015\Renders\0833.png" arWidth="960" arHeight="540" duration="0" songTitle="" songArtist="" songAlbum="" songCopyrightUrl="" songArtistUrl="" songAudioFileUrl="" stabilizationMode="0" mediaItemType="2" />
    <MediaItem id="828" filePath="F:\Art_and_Design\HolidayAnimation2015\Jars+Kitchen+Logos\HolidayAnimation2015\Renders\0834.png" arWidth="960" arHeight="540" duration="0" songTitle="" songArtist="" songAlbum="" songCopyrightUrl="" songArtistUrl="" songAudioFileUrl="" stabilizationMode="0" mediaItemType="2" />
    <MediaItem id="829" filePath="F:\Art_and_Design\HolidayAnimation2015\Jars+Kitchen+Logos\HolidayAnimation2015\Renders\0835.png" arWidth="960" arHeight="540" duration="0" songTitle="" songArtist="" songAlbum="" songCopyrightUrl="" songArtistUrl="" songAudioFileUrl="" stabilizationMode="0" mediaItemType="2" />
    <MediaItem id="830" filePath="F:\Art_and_Design\HolidayAnimation2015\Jars+Kitchen+Logos\HolidayAnimation2015\Renders\0836.png" arWidth="960" arHeight="540" duration="0" songTitle="" songArtist="" songAlbum="" songCopyrightUrl="" songArtistUrl="" songAudioFileUrl="" stabilizationMode="0" mediaItemType="2" />
    <MediaItem id="831" filePath="F:\Art_and_Design\HolidayAnimation2015\Jars+Kitchen+Logos\HolidayAnimation2015\Renders\0837.png" arWidth="960" arHeight="540" duration="0" songTitle="" songArtist="" songAlbum="" songCopyrightUrl="" songArtistUrl="" songAudioFileUrl="" stabilizationMode="0" mediaItemType="2" />
    <MediaItem id="832" filePath="F:\Art_and_Design\HolidayAnimation2015\Jars+Kitchen+Logos\HolidayAnimation2015\Renders\0838.png" arWidth="960" arHeight="540" duration="0" songTitle="" songArtist="" songAlbum="" songCopyrightUrl="" songArtistUrl="" songAudioFileUrl="" stabilizationMode="0" mediaItemType="2" />
    <MediaItem id="833" filePath="F:\Art_and_Design\HolidayAnimation2015\Jars+Kitchen+Logos\HolidayAnimation2015\Renders\0839.png" arWidth="960" arHeight="540" duration="0" songTitle="" songArtist="" songAlbum="" songCopyrightUrl="" songArtistUrl="" songAudioFileUrl="" stabilizationMode="0" mediaItemType="2" />
    <MediaItem id="834" filePath="F:\Art_and_Design\HolidayAnimation2015\Jars+Kitchen+Logos\HolidayAnimation2015\Renders\0840.png" arWidth="960" arHeight="540" duration="0" songTitle="" songArtist="" songAlbum="" songCopyrightUrl="" songArtistUrl="" songAudioFileUrl="" stabilizationMode="0" mediaItemType="2" />
    <MediaItem id="835" filePath="F:\Art_and_Design\HolidayAnimation2015\Jars+Kitchen+Logos\HolidayAnimation2015\Renders\0841.png" arWidth="960" arHeight="540" duration="0" songTitle="" songArtist="" songAlbum="" songCopyrightUrl="" songArtistUrl="" songAudioFileUrl="" stabilizationMode="0" mediaItemType="2" />
    <MediaItem id="836" filePath="F:\Art_and_Design\HolidayAnimation2015\Jars+Kitchen+Logos\HolidayAnimation2015\Renders\0842.png" arWidth="960" arHeight="540" duration="0" songTitle="" songArtist="" songAlbum="" songCopyrightUrl="" songArtistUrl="" songAudioFileUrl="" stabilizationMode="0" mediaItemType="2" />
    <MediaItem id="837" filePath="F:\Art_and_Design\HolidayAnimation2015\Jars+Kitchen+Logos\HolidayAnimation2015\Renders\0843.png" arWidth="960" arHeight="540" duration="0" songTitle="" songArtist="" songAlbum="" songCopyrightUrl="" songArtistUrl="" songAudioFileUrl="" stabilizationMode="0" mediaItemType="2" />
    <MediaItem id="838" filePath="F:\Art_and_Design\HolidayAnimation2015\Jars+Kitchen+Logos\HolidayAnimation2015\Renders\0844.png" arWidth="960" arHeight="540" duration="0" songTitle="" songArtist="" songAlbum="" songCopyrightUrl="" songArtistUrl="" songAudioFileUrl="" stabilizationMode="0" mediaItemType="2" />
    <MediaItem id="839" filePath="F:\Art_and_Design\HolidayAnimation2015\Jars+Kitchen+Logos\HolidayAnimation2015\Renders\0845.png" arWidth="960" arHeight="540" duration="0" songTitle="" songArtist="" songAlbum="" songCopyrightUrl="" songArtistUrl="" songAudioFileUrl="" stabilizationMode="0" mediaItemType="2" />
    <MediaItem id="840" filePath="F:\Art_and_Design\HolidayAnimation2015\Jars+Kitchen+Logos\HolidayAnimation2015\Renders\0846.png" arWidth="960" arHeight="540" duration="0" songTitle="" songArtist="" songAlbum="" songCopyrightUrl="" songArtistUrl="" songAudioFileUrl="" stabilizationMode="0" mediaItemType="2" />
    <MediaItem id="841" filePath="F:\Art_and_Design\HolidayAnimation2015\Jars+Kitchen+Logos\HolidayAnimation2015\Renders\0847.png" arWidth="960" arHeight="540" duration="0" songTitle="" songArtist="" songAlbum="" songCopyrightUrl="" songArtistUrl="" songAudioFileUrl="" stabilizationMode="0" mediaItemType="2" />
    <MediaItem id="842" filePath="F:\Art_and_Design\HolidayAnimation2015\Jars+Kitchen+Logos\HolidayAnimation2015\Renders\0848.png" arWidth="960" arHeight="540" duration="0" songTitle="" songArtist="" songAlbum="" songCopyrightUrl="" songArtistUrl="" songAudioFileUrl="" stabilizationMode="0" mediaItemType="2" />
    <MediaItem id="843" filePath="F:\Art_and_Design\HolidayAnimation2015\Jars+Kitchen+Logos\HolidayAnimation2015\Renders\0849.png" arWidth="960" arHeight="540" duration="0" songTitle="" songArtist="" songAlbum="" songCopyrightUrl="" songArtistUrl="" songAudioFileUrl="" stabilizationMode="0" mediaItemType="2" />
    <MediaItem id="844" filePath="F:\Art_and_Design\HolidayAnimation2015\Jars+Kitchen+Logos\HolidayAnimation2015\Renders\0850.png" arWidth="960" arHeight="540" duration="0" songTitle="" songArtist="" songAlbum="" songCopyrightUrl="" songArtistUrl="" songAudioFileUrl="" stabilizationMode="0" mediaItemType="2" />
    <MediaItem id="845" filePath="F:\Art_and_Design\HolidayAnimation2015\Jars+Kitchen+Logos\HolidayAnimation2015\Renders\0851.png" arWidth="960" arHeight="540" duration="0" songTitle="" songArtist="" songAlbum="" songCopyrightUrl="" songArtistUrl="" songAudioFileUrl="" stabilizationMode="0" mediaItemType="2" />
    <MediaItem id="846" filePath="F:\Art_and_Design\HolidayAnimation2015\Jars+Kitchen+Logos\HolidayAnimation2015\Renders\0852.png" arWidth="960" arHeight="540" duration="0" songTitle="" songArtist="" songAlbum="" songCopyrightUrl="" songArtistUrl="" songAudioFileUrl="" stabilizationMode="0" mediaItemType="2" />
    <MediaItem id="847" filePath="F:\Art_and_Design\HolidayAnimation2015\Jars+Kitchen+Logos\HolidayAnimation2015\Renders\0853.png" arWidth="960" arHeight="540" duration="0" songTitle="" songArtist="" songAlbum="" songCopyrightUrl="" songArtistUrl="" songAudioFileUrl="" stabilizationMode="0" mediaItemType="2" />
    <MediaItem id="848" filePath="F:\Art_and_Design\HolidayAnimation2015\Jars+Kitchen+Logos\HolidayAnimation2015\Renders\0854.png" arWidth="960" arHeight="540" duration="0" songTitle="" songArtist="" songAlbum="" songCopyrightUrl="" songArtistUrl="" songAudioFileUrl="" stabilizationMode="0" mediaItemType="2" />
    <MediaItem id="849" filePath="F:\Art_and_Design\HolidayAnimation2015\Jars+Kitchen+Logos\HolidayAnimation2015\Renders\0855.png" arWidth="960" arHeight="540" duration="0" songTitle="" songArtist="" songAlbum="" songCopyrightUrl="" songArtistUrl="" songAudioFileUrl="" stabilizationMode="0" mediaItemType="2" />
    <MediaItem id="850" filePath="F:\Art_and_Design\HolidayAnimation2015\Jars+Kitchen+Logos\HolidayAnimation2015\Renders\0856.png" arWidth="960" arHeight="540" duration="0" songTitle="" songArtist="" songAlbum="" songCopyrightUrl="" songArtistUrl="" songAudioFileUrl="" stabilizationMode="0" mediaItemType="2" />
    <MediaItem id="851" filePath="F:\Art_and_Design\HolidayAnimation2015\Jars+Kitchen+Logos\HolidayAnimation2015\Renders\0857.png" arWidth="960" arHeight="540" duration="0" songTitle="" songArtist="" songAlbum="" songCopyrightUrl="" songArtistUrl="" songAudioFileUrl="" stabilizationMode="0" mediaItemType="2" />
    <MediaItem id="852" filePath="F:\Art_and_Design\HolidayAnimation2015\Jars+Kitchen+Logos\HolidayAnimation2015\Renders\0858.png" arWidth="960" arHeight="540" duration="0" songTitle="" songArtist="" songAlbum="" songCopyrightUrl="" songArtistUrl="" songAudioFileUrl="" stabilizationMode="0" mediaItemType="2" />
    <MediaItem id="853" filePath="F:\Art_and_Design\HolidayAnimation2015\Jars+Kitchen+Logos\HolidayAnimation2015\Renders\0859.png" arWidth="960" arHeight="540" duration="0" songTitle="" songArtist="" songAlbum="" songCopyrightUrl="" songArtistUrl="" songAudioFileUrl="" stabilizationMode="0" mediaItemType="2" />
    <MediaItem id="854" filePath="F:\Art_and_Design\HolidayAnimation2015\Jars+Kitchen+Logos\HolidayAnimation2015\Renders\0860.png" arWidth="960" arHeight="540" duration="0" songTitle="" songArtist="" songAlbum="" songCopyrightUrl="" songArtistUrl="" songAudioFileUrl="" stabilizationMode="0" mediaItemType="2" />
    <MediaItem id="855" filePath="F:\Art_and_Design\HolidayAnimation2015\Jars+Kitchen+Logos\HolidayAnimation2015\Renders\0861.png" arWidth="960" arHeight="540" duration="0" songTitle="" songArtist="" songAlbum="" songCopyrightUrl="" songArtistUrl="" songAudioFileUrl="" stabilizationMode="0" mediaItemType="2" />
    <MediaItem id="856" filePath="F:\Art_and_Design\HolidayAnimation2015\Jars+Kitchen+Logos\HolidayAnimation2015\Renders\0862.png" arWidth="960" arHeight="540" duration="0" songTitle="" songArtist="" songAlbum="" songCopyrightUrl="" songArtistUrl="" songAudioFileUrl="" stabilizationMode="0" mediaItemType="2" />
    <MediaItem id="857" filePath="F:\Art_and_Design\HolidayAnimation2015\Jars+Kitchen+Logos\HolidayAnimation2015\Renders\0863.png" arWidth="960" arHeight="540" duration="0" songTitle="" songArtist="" songAlbum="" songCopyrightUrl="" songArtistUrl="" songAudioFileUrl="" stabilizationMode="0" mediaItemType="2" />
    <MediaItem id="858" filePath="F:\Art_and_Design\HolidayAnimation2015\Jars+Kitchen+Logos\HolidayAnimation2015\Renders\0864.png" arWidth="960" arHeight="540" duration="0" songTitle="" songArtist="" songAlbum="" songCopyrightUrl="" songArtistUrl="" songAudioFileUrl="" stabilizationMode="0" mediaItemType="2" />
    <MediaItem id="859" filePath="F:\Art_and_Design\HolidayAnimation2015\Jars+Kitchen+Logos\HolidayAnimation2015\Renders\0865.png" arWidth="960" arHeight="540" duration="0" songTitle="" songArtist="" songAlbum="" songCopyrightUrl="" songArtistUrl="" songAudioFileUrl="" stabilizationMode="0" mediaItemType="2" />
    <MediaItem id="860" filePath="F:\Art_and_Design\HolidayAnimation2015\Jars+Kitchen+Logos\HolidayAnimation2015\Renders\0866.png" arWidth="960" arHeight="540" duration="0" songTitle="" songArtist="" songAlbum="" songCopyrightUrl="" songArtistUrl="" songAudioFileUrl="" stabilizationMode="0" mediaItemType="2" />
    <MediaItem id="861" filePath="F:\Art_and_Design\HolidayAnimation2015\Jars+Kitchen+Logos\HolidayAnimation2015\Renders\0867.png" arWidth="960" arHeight="540" duration="0" songTitle="" songArtist="" songAlbum="" songCopyrightUrl="" songArtistUrl="" songAudioFileUrl="" stabilizationMode="0" mediaItemType="2" />
    <MediaItem id="862" filePath="F:\Art_and_Design\HolidayAnimation2015\Jars+Kitchen+Logos\HolidayAnimation2015\Renders\0868.png" arWidth="960" arHeight="540" duration="0" songTitle="" songArtist="" songAlbum="" songCopyrightUrl="" songArtistUrl="" songAudioFileUrl="" stabilizationMode="0" mediaItemType="2" />
    <MediaItem id="863" filePath="F:\Art_and_Design\HolidayAnimation2015\Jars+Kitchen+Logos\HolidayAnimation2015\Renders\0869.png" arWidth="960" arHeight="540" duration="0" songTitle="" songArtist="" songAlbum="" songCopyrightUrl="" songArtistUrl="" songAudioFileUrl="" stabilizationMode="0" mediaItemType="2" />
    <MediaItem id="864" filePath="F:\Art_and_Design\HolidayAnimation2015\Jars+Kitchen+Logos\HolidayAnimation2015\Renders\0870.png" arWidth="960" arHeight="540" duration="0" songTitle="" songArtist="" songAlbum="" songCopyrightUrl="" songArtistUrl="" songAudioFileUrl="" stabilizationMode="0" mediaItemType="2" />
    <MediaItem id="865" filePath="F:\Art_and_Design\HolidayAnimation2015\Jars+Kitchen+Logos\HolidayAnimation2015\Renders\0871.png" arWidth="960" arHeight="540" duration="0" songTitle="" songArtist="" songAlbum="" songCopyrightUrl="" songArtistUrl="" songAudioFileUrl="" stabilizationMode="0" mediaItemType="2" />
    <MediaItem id="866" filePath="F:\Art_and_Design\HolidayAnimation2015\Jars+Kitchen+Logos\HolidayAnimation2015\Renders\0872.png" arWidth="960" arHeight="540" duration="0" songTitle="" songArtist="" songAlbum="" songCopyrightUrl="" songArtistUrl="" songAudioFileUrl="" stabilizationMode="0" mediaItemType="2" />
    <MediaItem id="867" filePath="F:\Art_and_Design\HolidayAnimation2015\Jars+Kitchen+Logos\HolidayAnimation2015\Renders\0873.png" arWidth="960" arHeight="540" duration="0" songTitle="" songArtist="" songAlbum="" songCopyrightUrl="" songArtistUrl="" songAudioFileUrl="" stabilizationMode="0" mediaItemType="2" />
    <MediaItem id="868" filePath="F:\Art_and_Design\HolidayAnimation2015\Jars+Kitchen+Logos\HolidayAnimation2015\Renders\0874.png" arWidth="960" arHeight="540" duration="0" songTitle="" songArtist="" songAlbum="" songCopyrightUrl="" songArtistUrl="" songAudioFileUrl="" stabilizationMode="0" mediaItemType="2" />
    <MediaItem id="869" filePath="F:\Art_and_Design\HolidayAnimation2015\Jars+Kitchen+Logos\HolidayAnimation2015\Renders\0875.png" arWidth="960" arHeight="540" duration="0" songTitle="" songArtist="" songAlbum="" songCopyrightUrl="" songArtistUrl="" songAudioFileUrl="" stabilizationMode="0" mediaItemType="2" />
    <MediaItem id="870" filePath="F:\Art_and_Design\HolidayAnimation2015\Jars+Kitchen+Logos\HolidayAnimation2015\Renders\0876.png" arWidth="960" arHeight="540" duration="0" songTitle="" songArtist="" songAlbum="" songCopyrightUrl="" songArtistUrl="" songAudioFileUrl="" stabilizationMode="0" mediaItemType="2" />
    <MediaItem id="871" filePath="F:\Art_and_Design\HolidayAnimation2015\Jars+Kitchen+Logos\HolidayAnimation2015\Renders\0877.png" arWidth="960" arHeight="540" duration="0" songTitle="" songArtist="" songAlbum="" songCopyrightUrl="" songArtistUrl="" songAudioFileUrl="" stabilizationMode="0" mediaItemType="2" />
    <MediaItem id="872" filePath="F:\Art_and_Design\HolidayAnimation2015\Jars+Kitchen+Logos\HolidayAnimation2015\Renders\0878.png" arWidth="960" arHeight="540" duration="0" songTitle="" songArtist="" songAlbum="" songCopyrightUrl="" songArtistUrl="" songAudioFileUrl="" stabilizationMode="0" mediaItemType="2" />
    <MediaItem id="873" filePath="F:\Art_and_Design\HolidayAnimation2015\Jars+Kitchen+Logos\HolidayAnimation2015\Renders\0879.png" arWidth="960" arHeight="540" duration="0" songTitle="" songArtist="" songAlbum="" songCopyrightUrl="" songArtistUrl="" songAudioFileUrl="" stabilizationMode="0" mediaItemType="2" />
    <MediaItem id="874" filePath="F:\Art_and_Design\HolidayAnimation2015\Jars+Kitchen+Logos\HolidayAnimation2015\Renders\0880.png" arWidth="960" arHeight="540" duration="0" songTitle="" songArtist="" songAlbum="" songCopyrightUrl="" songArtistUrl="" songAudioFileUrl="" stabilizationMode="0" mediaItemType="2" />
    <MediaItem id="875" filePath="F:\Art_and_Design\HolidayAnimation2015\Jars+Kitchen+Logos\HolidayAnimation2015\Renders\0881.png" arWidth="960" arHeight="540" duration="0" songTitle="" songArtist="" songAlbum="" songCopyrightUrl="" songArtistUrl="" songAudioFileUrl="" stabilizationMode="0" mediaItemType="2" />
    <MediaItem id="876" filePath="F:\Art_and_Design\HolidayAnimation2015\Jars+Kitchen+Logos\HolidayAnimation2015\Renders\0882.png" arWidth="960" arHeight="540" duration="0" songTitle="" songArtist="" songAlbum="" songCopyrightUrl="" songArtistUrl="" songAudioFileUrl="" stabilizationMode="0" mediaItemType="2" />
    <MediaItem id="877" filePath="F:\Art_and_Design\HolidayAnimation2015\Jars+Kitchen+Logos\HolidayAnimation2015\Renders\0883.png" arWidth="960" arHeight="540" duration="0" songTitle="" songArtist="" songAlbum="" songCopyrightUrl="" songArtistUrl="" songAudioFileUrl="" stabilizationMode="0" mediaItemType="2" />
    <MediaItem id="878" filePath="F:\Art_and_Design\HolidayAnimation2015\Jars+Kitchen+Logos\HolidayAnimation2015\Renders\0884.png" arWidth="960" arHeight="540" duration="0" songTitle="" songArtist="" songAlbum="" songCopyrightUrl="" songArtistUrl="" songAudioFileUrl="" stabilizationMode="0" mediaItemType="2" />
    <MediaItem id="879" filePath="F:\Art_and_Design\HolidayAnimation2015\Jars+Kitchen+Logos\HolidayAnimation2015\Renders\0885.png" arWidth="960" arHeight="540" duration="0" songTitle="" songArtist="" songAlbum="" songCopyrightUrl="" songArtistUrl="" songAudioFileUrl="" stabilizationMode="0" mediaItemType="2" />
    <MediaItem id="880" filePath="F:\Art_and_Design\HolidayAnimation2015\Jars+Kitchen+Logos\HolidayAnimation2015\Renders\0886.png" arWidth="960" arHeight="540" duration="0" songTitle="" songArtist="" songAlbum="" songCopyrightUrl="" songArtistUrl="" songAudioFileUrl="" stabilizationMode="0" mediaItemType="2" />
    <MediaItem id="881" filePath="F:\Art_and_Design\HolidayAnimation2015\Jars+Kitchen+Logos\HolidayAnimation2015\Renders\0887.png" arWidth="960" arHeight="540" duration="0" songTitle="" songArtist="" songAlbum="" songCopyrightUrl="" songArtistUrl="" songAudioFileUrl="" stabilizationMode="0" mediaItemType="2" />
    <MediaItem id="882" filePath="F:\Art_and_Design\HolidayAnimation2015\Jars+Kitchen+Logos\HolidayAnimation2015\Renders\0888.png" arWidth="960" arHeight="540" duration="0" songTitle="" songArtist="" songAlbum="" songCopyrightUrl="" songArtistUrl="" songAudioFileUrl="" stabilizationMode="0" mediaItemType="2" />
    <MediaItem id="883" filePath="F:\Art_and_Design\HolidayAnimation2015\Jars+Kitchen+Logos\HolidayAnimation2015\Renders\0889.png" arWidth="960" arHeight="540" duration="0" songTitle="" songArtist="" songAlbum="" songCopyrightUrl="" songArtistUrl="" songAudioFileUrl="" stabilizationMode="0" mediaItemType="2" />
    <MediaItem id="884" filePath="F:\Art_and_Design\HolidayAnimation2015\Jars+Kitchen+Logos\HolidayAnimation2015\Renders\0890.png" arWidth="960" arHeight="540" duration="0" songTitle="" songArtist="" songAlbum="" songCopyrightUrl="" songArtistUrl="" songAudioFileUrl="" stabilizationMode="0" mediaItemType="2" />
    <MediaItem id="885" filePath="F:\Art_and_Design\HolidayAnimation2015\Jars+Kitchen+Logos\HolidayAnimation2015\Renders\0891.png" arWidth="960" arHeight="540" duration="0" songTitle="" songArtist="" songAlbum="" songCopyrightUrl="" songArtistUrl="" songAudioFileUrl="" stabilizationMode="0" mediaItemType="2" />
    <MediaItem id="886" filePath="F:\Art_and_Design\HolidayAnimation2015\Jars+Kitchen+Logos\HolidayAnimation2015\Renders\0892.png" arWidth="960" arHeight="540" duration="0" songTitle="" songArtist="" songAlbum="" songCopyrightUrl="" songArtistUrl="" songAudioFileUrl="" stabilizationMode="0" mediaItemType="2" />
    <MediaItem id="887" filePath="F:\Art_and_Design\HolidayAnimation2015\Jars+Kitchen+Logos\HolidayAnimation2015\Renders\0893.png" arWidth="960" arHeight="540" duration="0" songTitle="" songArtist="" songAlbum="" songCopyrightUrl="" songArtistUrl="" songAudioFileUrl="" stabilizationMode="0" mediaItemType="2" />
    <MediaItem id="888" filePath="F:\Art_and_Design\HolidayAnimation2015\Jars+Kitchen+Logos\HolidayAnimation2015\Renders\0894.png" arWidth="960" arHeight="540" duration="0" songTitle="" songArtist="" songAlbum="" songCopyrightUrl="" songArtistUrl="" songAudioFileUrl="" stabilizationMode="0" mediaItemType="2" />
    <MediaItem id="889" filePath="F:\Art_and_Design\HolidayAnimation2015\Jars+Kitchen+Logos\HolidayAnimation2015\Renders\0895.png" arWidth="960" arHeight="540" duration="0" songTitle="" songArtist="" songAlbum="" songCopyrightUrl="" songArtistUrl="" songAudioFileUrl="" stabilizationMode="0" mediaItemType="2" />
    <MediaItem id="890" filePath="F:\Art_and_Design\HolidayAnimation2015\Jars+Kitchen+Logos\HolidayAnimation2015\Renders\0896.png" arWidth="960" arHeight="540" duration="0" songTitle="" songArtist="" songAlbum="" songCopyrightUrl="" songArtistUrl="" songAudioFileUrl="" stabilizationMode="0" mediaItemType="2" />
    <MediaItem id="891" filePath="F:\Art_and_Design\HolidayAnimation2015\Jars+Kitchen+Logos\HolidayAnimation2015\Renders\0897.png" arWidth="960" arHeight="540" duration="0" songTitle="" songArtist="" songAlbum="" songCopyrightUrl="" songArtistUrl="" songAudioFileUrl="" stabilizationMode="0" mediaItemType="2" />
    <MediaItem id="892" filePath="F:\Art_and_Design\HolidayAnimation2015\Jars+Kitchen+Logos\HolidayAnimation2015\Renders\0898.png" arWidth="960" arHeight="540" duration="0" songTitle="" songArtist="" songAlbum="" songCopyrightUrl="" songArtistUrl="" songAudioFileUrl="" stabilizationMode="0" mediaItemType="2" />
    <MediaItem id="893" filePath="F:\Art_and_Design\HolidayAnimation2015\Jars+Kitchen+Logos\HolidayAnimation2015\Renders\0899.png" arWidth="960" arHeight="540" duration="0" songTitle="" songArtist="" songAlbum="" songCopyrightUrl="" songArtistUrl="" songAudioFileUrl="" stabilizationMode="0" mediaItemType="2" />
    <MediaItem id="894" filePath="F:\Art_and_Design\HolidayAnimation2015\Jars+Kitchen+Logos\HolidayAnimation2015\Renders\0900.png" arWidth="960" arHeight="540" duration="0" songTitle="" songArtist="" songAlbum="" songCopyrightUrl="" songArtistUrl="" songAudioFileUrl="" stabilizationMode="0" mediaItemType="2" />
    <MediaItem id="895" filePath="F:\Art_and_Design\HolidayAnimation2015\Jars+Kitchen+Logos\HolidayAnimation2015\Renders\0901.png" arWidth="960" arHeight="540" duration="0" songTitle="" songArtist="" songAlbum="" songCopyrightUrl="" songArtistUrl="" songAudioFileUrl="" stabilizationMode="0" mediaItemType="2" />
    <MediaItem id="896" filePath="F:\Art_and_Design\HolidayAnimation2015\Jars+Kitchen+Logos\HolidayAnimation2015\Renders\0902.png" arWidth="960" arHeight="540" duration="0" songTitle="" songArtist="" songAlbum="" songCopyrightUrl="" songArtistUrl="" songAudioFileUrl="" stabilizationMode="0" mediaItemType="2" />
    <MediaItem id="897" filePath="F:\Art_and_Design\HolidayAnimation2015\Jars+Kitchen+Logos\HolidayAnimation2015\Renders\0903.png" arWidth="960" arHeight="540" duration="0" songTitle="" songArtist="" songAlbum="" songCopyrightUrl="" songArtistUrl="" songAudioFileUrl="" stabilizationMode="0" mediaItemType="2" />
    <MediaItem id="898" filePath="F:\Art_and_Design\HolidayAnimation2015\Jars+Kitchen+Logos\HolidayAnimation2015\Renders\0904.png" arWidth="960" arHeight="540" duration="0" songTitle="" songArtist="" songAlbum="" songCopyrightUrl="" songArtistUrl="" songAudioFileUrl="" stabilizationMode="0" mediaItemType="2" />
    <MediaItem id="899" filePath="F:\Art_and_Design\HolidayAnimation2015\Jars+Kitchen+Logos\HolidayAnimation2015\Renders\0905.png" arWidth="960" arHeight="540" duration="0" songTitle="" songArtist="" songAlbum="" songCopyrightUrl="" songArtistUrl="" songAudioFileUrl="" stabilizationMode="0" mediaItemType="2" />
    <MediaItem id="900" filePath="F:\Art_and_Design\HolidayAnimation2015\Jars+Kitchen+Logos\HolidayAnimation2015\Renders\0906.png" arWidth="960" arHeight="540" duration="0" songTitle="" songArtist="" songAlbum="" songCopyrightUrl="" songArtistUrl="" songAudioFileUrl="" stabilizationMode="0" mediaItemType="2" />
    <MediaItem id="901" filePath="F:\Art_and_Design\HolidayAnimation2015\Jars+Kitchen+Logos\HolidayAnimation2015\Renders\0907.png" arWidth="960" arHeight="540" duration="0" songTitle="" songArtist="" songAlbum="" songCopyrightUrl="" songArtistUrl="" songAudioFileUrl="" stabilizationMode="0" mediaItemType="2" />
    <MediaItem id="902" filePath="F:\Art_and_Design\HolidayAnimation2015\Jars+Kitchen+Logos\HolidayAnimation2015\Renders\0908.png" arWidth="960" arHeight="540" duration="0" songTitle="" songArtist="" songAlbum="" songCopyrightUrl="" songArtistUrl="" songAudioFileUrl="" stabilizationMode="0" mediaItemType="2" />
    <MediaItem id="903" filePath="F:\Art_and_Design\HolidayAnimation2015\Jars+Kitchen+Logos\HolidayAnimation2015\Renders\0909.png" arWidth="960" arHeight="540" duration="0" songTitle="" songArtist="" songAlbum="" songCopyrightUrl="" songArtistUrl="" songAudioFileUrl="" stabilizationMode="0" mediaItemType="2" />
    <MediaItem id="904" filePath="F:\Art_and_Design\HolidayAnimation2015\Jars+Kitchen+Logos\HolidayAnimation2015\Renders\0910.png" arWidth="960" arHeight="540" duration="0" songTitle="" songArtist="" songAlbum="" songCopyrightUrl="" songArtistUrl="" songAudioFileUrl="" stabilizationMode="0" mediaItemType="2" />
    <MediaItem id="905" filePath="F:\Art_and_Design\HolidayAnimation2015\Jars+Kitchen+Logos\HolidayAnimation2015\Renders\0911.png" arWidth="960" arHeight="540" duration="0" songTitle="" songArtist="" songAlbum="" songCopyrightUrl="" songArtistUrl="" songAudioFileUrl="" stabilizationMode="0" mediaItemType="2" />
    <MediaItem id="906" filePath="F:\Art_and_Design\HolidayAnimation2015\Jars+Kitchen+Logos\HolidayAnimation2015\Renders\0912.png" arWidth="960" arHeight="540" duration="0" songTitle="" songArtist="" songAlbum="" songCopyrightUrl="" songArtistUrl="" songAudioFileUrl="" stabilizationMode="0" mediaItemType="2" />
    <MediaItem id="907" filePath="F:\Art_and_Design\HolidayAnimation2015\Jars+Kitchen+Logos\HolidayAnimation2015\Renders\0913.png" arWidth="960" arHeight="540" duration="0" songTitle="" songArtist="" songAlbum="" songCopyrightUrl="" songArtistUrl="" songAudioFileUrl="" stabilizationMode="0" mediaItemType="2" />
    <MediaItem id="908" filePath="F:\Art_and_Design\HolidayAnimation2015\Jars+Kitchen+Logos\HolidayAnimation2015\Renders\0914.png" arWidth="960" arHeight="540" duration="0" songTitle="" songArtist="" songAlbum="" songCopyrightUrl="" songArtistUrl="" songAudioFileUrl="" stabilizationMode="0" mediaItemType="2" />
    <MediaItem id="909" filePath="F:\Art_and_Design\HolidayAnimation2015\Jars+Kitchen+Logos\HolidayAnimation2015\Renders\0915.png" arWidth="960" arHeight="540" duration="0" songTitle="" songArtist="" songAlbum="" songCopyrightUrl="" songArtistUrl="" songAudioFileUrl="" stabilizationMode="0" mediaItemType="2" />
    <MediaItem id="910" filePath="F:\Art_and_Design\HolidayAnimation2015\Jars+Kitchen+Logos\HolidayAnimation2015\Renders\0916.png" arWidth="960" arHeight="540" duration="0" songTitle="" songArtist="" songAlbum="" songCopyrightUrl="" songArtistUrl="" songAudioFileUrl="" stabilizationMode="0" mediaItemType="2" />
    <MediaItem id="911" filePath="F:\Art_and_Design\HolidayAnimation2015\Jars+Kitchen+Logos\HolidayAnimation2015\Renders\0917.png" arWidth="960" arHeight="540" duration="0" songTitle="" songArtist="" songAlbum="" songCopyrightUrl="" songArtistUrl="" songAudioFileUrl="" stabilizationMode="0" mediaItemType="2" />
    <MediaItem id="912" filePath="F:\Art_and_Design\HolidayAnimation2015\Jars+Kitchen+Logos\HolidayAnimation2015\Renders\0918.png" arWidth="960" arHeight="540" duration="0" songTitle="" songArtist="" songAlbum="" songCopyrightUrl="" songArtistUrl="" songAudioFileUrl="" stabilizationMode="0" mediaItemType="2" />
    <MediaItem id="913" filePath="F:\Art_and_Design\HolidayAnimation2015\Jars+Kitchen+Logos\HolidayAnimation2015\Renders\0919.png" arWidth="960" arHeight="540" duration="0" songTitle="" songArtist="" songAlbum="" songCopyrightUrl="" songArtistUrl="" songAudioFileUrl="" stabilizationMode="0" mediaItemType="2" />
    <MediaItem id="914" filePath="F:\Art_and_Design\HolidayAnimation2015\Jars+Kitchen+Logos\HolidayAnimation2015\Renders\0920.png" arWidth="960" arHeight="540" duration="0" songTitle="" songArtist="" songAlbum="" songCopyrightUrl="" songArtistUrl="" songAudioFileUrl="" stabilizationMode="0" mediaItemType="2" />
    <MediaItem id="915" filePath="F:\Art_and_Design\HolidayAnimation2015\Jars+Kitchen+Logos\HolidayAnimation2015\Renders\0921.png" arWidth="960" arHeight="540" duration="0" songTitle="" songArtist="" songAlbum="" songCopyrightUrl="" songArtistUrl="" songAudioFileUrl="" stabilizationMode="0" mediaItemType="2" />
    <MediaItem id="916" filePath="F:\Art_and_Design\HolidayAnimation2015\Jars+Kitchen+Logos\HolidayAnimation2015\Renders\0922.png" arWidth="960" arHeight="540" duration="0" songTitle="" songArtist="" songAlbum="" songCopyrightUrl="" songArtistUrl="" songAudioFileUrl="" stabilizationMode="0" mediaItemType="2" />
    <MediaItem id="917" filePath="F:\Art_and_Design\HolidayAnimation2015\Jars+Kitchen+Logos\HolidayAnimation2015\Renders\0923.png" arWidth="960" arHeight="540" duration="0" songTitle="" songArtist="" songAlbum="" songCopyrightUrl="" songArtistUrl="" songAudioFileUrl="" stabilizationMode="0" mediaItemType="2" />
    <MediaItem id="918" filePath="F:\Art_and_Design\HolidayAnimation2015\Jars+Kitchen+Logos\HolidayAnimation2015\Renders\0924.png" arWidth="960" arHeight="540" duration="0" songTitle="" songArtist="" songAlbum="" songCopyrightUrl="" songArtistUrl="" songAudioFileUrl="" stabilizationMode="0" mediaItemType="2" />
    <MediaItem id="919" filePath="F:\Art_and_Design\HolidayAnimation2015\Jars+Kitchen+Logos\HolidayAnimation2015\Renders\0925.png" arWidth="960" arHeight="540" duration="0" songTitle="" songArtist="" songAlbum="" songCopyrightUrl="" songArtistUrl="" songAudioFileUrl="" stabilizationMode="0" mediaItemType="2" />
    <MediaItem id="920" filePath="F:\Art_and_Design\HolidayAnimation2015\Jars+Kitchen+Logos\HolidayAnimation2015\Renders\0926.png" arWidth="960" arHeight="540" duration="0" songTitle="" songArtist="" songAlbum="" songCopyrightUrl="" songArtistUrl="" songAudioFileUrl="" stabilizationMode="0" mediaItemType="2" />
    <MediaItem id="921" filePath="F:\Art_and_Design\HolidayAnimation2015\Jars+Kitchen+Logos\HolidayAnimation2015\Renders\0927.png" arWidth="960" arHeight="540" duration="0" songTitle="" songArtist="" songAlbum="" songCopyrightUrl="" songArtistUrl="" songAudioFileUrl="" stabilizationMode="0" mediaItemType="2" />
    <MediaItem id="922" filePath="F:\Art_and_Design\HolidayAnimation2015\Jars+Kitchen+Logos\HolidayAnimation2015\Renders\0928.png" arWidth="960" arHeight="540" duration="0" songTitle="" songArtist="" songAlbum="" songCopyrightUrl="" songArtistUrl="" songAudioFileUrl="" stabilizationMode="0" mediaItemType="2" />
    <MediaItem id="923" filePath="F:\Art_and_Design\HolidayAnimation2015\Jars+Kitchen+Logos\HolidayAnimation2015\Renders\0929.png" arWidth="960" arHeight="540" duration="0" songTitle="" songArtist="" songAlbum="" songCopyrightUrl="" songArtistUrl="" songAudioFileUrl="" stabilizationMode="0" mediaItemType="2" />
    <MediaItem id="924" filePath="F:\Art_and_Design\HolidayAnimation2015\Jars+Kitchen+Logos\HolidayAnimation2015\Renders\0930.png" arWidth="960" arHeight="540" duration="0" songTitle="" songArtist="" songAlbum="" songCopyrightUrl="" songArtistUrl="" songAudioFileUrl="" stabilizationMode="0" mediaItemType="2" />
    <MediaItem id="925" filePath="F:\Art_and_Design\HolidayAnimation2015\Jars+Kitchen+Logos\HolidayAnimation2015\Renders\0931.png" arWidth="960" arHeight="540" duration="0" songTitle="" songArtist="" songAlbum="" songCopyrightUrl="" songArtistUrl="" songAudioFileUrl="" stabilizationMode="0" mediaItemType="2" />
    <MediaItem id="926" filePath="F:\Art_and_Design\HolidayAnimation2015\Jars+Kitchen+Logos\HolidayAnimation2015\Renders\0932.png" arWidth="960" arHeight="540" duration="0" songTitle="" songArtist="" songAlbum="" songCopyrightUrl="" songArtistUrl="" songAudioFileUrl="" stabilizationMode="0" mediaItemType="2" />
    <MediaItem id="927" filePath="F:\Art_and_Design\HolidayAnimation2015\Jars+Kitchen+Logos\HolidayAnimation2015\Renders\0933.png" arWidth="960" arHeight="540" duration="0" songTitle="" songArtist="" songAlbum="" songCopyrightUrl="" songArtistUrl="" songAudioFileUrl="" stabilizationMode="0" mediaItemType="2" />
    <MediaItem id="928" filePath="F:\Art_and_Design\HolidayAnimation2015\Jars+Kitchen+Logos\HolidayAnimation2015\Renders\0934.png" arWidth="960" arHeight="540" duration="0" songTitle="" songArtist="" songAlbum="" songCopyrightUrl="" songArtistUrl="" songAudioFileUrl="" stabilizationMode="0" mediaItemType="2" />
    <MediaItem id="929" filePath="F:\Art_and_Design\HolidayAnimation2015\Jars+Kitchen+Logos\HolidayAnimation2015\Renders\0935.png" arWidth="960" arHeight="540" duration="0" songTitle="" songArtist="" songAlbum="" songCopyrightUrl="" songArtistUrl="" songAudioFileUrl="" stabilizationMode="0" mediaItemType="2" />
    <MediaItem id="930" filePath="F:\Art_and_Design\HolidayAnimation2015\Jars+Kitchen+Logos\HolidayAnimation2015\Renders\0936.png" arWidth="960" arHeight="540" duration="0" songTitle="" songArtist="" songAlbum="" songCopyrightUrl="" songArtistUrl="" songAudioFileUrl="" stabilizationMode="0" mediaItemType="2" />
    <MediaItem id="931" filePath="F:\Art_and_Design\HolidayAnimation2015\Jars+Kitchen+Logos\HolidayAnimation2015\Renders\0937.png" arWidth="960" arHeight="540" duration="0" songTitle="" songArtist="" songAlbum="" songCopyrightUrl="" songArtistUrl="" songAudioFileUrl="" stabilizationMode="0" mediaItemType="2" />
    <MediaItem id="932" filePath="F:\Art_and_Design\HolidayAnimation2015\Jars+Kitchen+Logos\HolidayAnimation2015\Renders\0938.png" arWidth="960" arHeight="540" duration="0" songTitle="" songArtist="" songAlbum="" songCopyrightUrl="" songArtistUrl="" songAudioFileUrl="" stabilizationMode="0" mediaItemType="2" />
    <MediaItem id="933" filePath="F:\Art_and_Design\HolidayAnimation2015\Jars+Kitchen+Logos\HolidayAnimation2015\Renders\0939.png" arWidth="960" arHeight="540" duration="0" songTitle="" songArtist="" songAlbum="" songCopyrightUrl="" songArtistUrl="" songAudioFileUrl="" stabilizationMode="0" mediaItemType="2" />
    <MediaItem id="934" filePath="F:\Art_and_Design\HolidayAnimation2015\Jars+Kitchen+Logos\HolidayAnimation2015\Renders\0940.png" arWidth="960" arHeight="540" duration="0" songTitle="" songArtist="" songAlbum="" songCopyrightUrl="" songArtistUrl="" songAudioFileUrl="" stabilizationMode="0" mediaItemType="2" />
    <MediaItem id="935" filePath="F:\Art_and_Design\HolidayAnimation2015\Jars+Kitchen+Logos\HolidayAnimation2015\Renders\0941.png" arWidth="960" arHeight="540" duration="0" songTitle="" songArtist="" songAlbum="" songCopyrightUrl="" songArtistUrl="" songAudioFileUrl="" stabilizationMode="0" mediaItemType="2" />
    <MediaItem id="936" filePath="F:\Art_and_Design\HolidayAnimation2015\Jars+Kitchen+Logos\HolidayAnimation2015\Renders\0942.png" arWidth="960" arHeight="540" duration="0" songTitle="" songArtist="" songAlbum="" songCopyrightUrl="" songArtistUrl="" songAudioFileUrl="" stabilizationMode="0" mediaItemType="2" />
    <MediaItem id="937" filePath="F:\Art_and_Design\HolidayAnimation2015\Jars+Kitchen+Logos\HolidayAnimation2015\Renders\0943.png" arWidth="960" arHeight="540" duration="0" songTitle="" songArtist="" songAlbum="" songCopyrightUrl="" songArtistUrl="" songAudioFileUrl="" stabilizationMode="0" mediaItemType="2" />
    <MediaItem id="938" filePath="F:\Art_and_Design\HolidayAnimation2015\Jars+Kitchen+Logos\HolidayAnimation2015\Renders\0944.png" arWidth="960" arHeight="540" duration="0" songTitle="" songArtist="" songAlbum="" songCopyrightUrl="" songArtistUrl="" songAudioFileUrl="" stabilizationMode="0" mediaItemType="2" />
    <MediaItem id="939" filePath="F:\Art_and_Design\HolidayAnimation2015\Jars+Kitchen+Logos\HolidayAnimation2015\Renders\0945.png" arWidth="960" arHeight="540" duration="0" songTitle="" songArtist="" songAlbum="" songCopyrightUrl="" songArtistUrl="" songAudioFileUrl="" stabilizationMode="0" mediaItemType="2" />
    <MediaItem id="940" filePath="F:\Art_and_Design\HolidayAnimation2015\Jars+Kitchen+Logos\HolidayAnimation2015\Renders\0946.png" arWidth="960" arHeight="540" duration="0" songTitle="" songArtist="" songAlbum="" songCopyrightUrl="" songArtistUrl="" songAudioFileUrl="" stabilizationMode="0" mediaItemType="2" />
    <MediaItem id="941" filePath="F:\Art_and_Design\HolidayAnimation2015\Jars+Kitchen+Logos\HolidayAnimation2015\Renders\0947.png" arWidth="960" arHeight="540" duration="0" songTitle="" songArtist="" songAlbum="" songCopyrightUrl="" songArtistUrl="" songAudioFileUrl="" stabilizationMode="0" mediaItemType="2" />
    <MediaItem id="942" filePath="F:\Art_and_Design\HolidayAnimation2015\Jars+Kitchen+Logos\HolidayAnimation2015\Renders\0948.png" arWidth="960" arHeight="540" duration="0" songTitle="" songArtist="" songAlbum="" songCopyrightUrl="" songArtistUrl="" songAudioFileUrl="" stabilizationMode="0" mediaItemType="2" />
    <MediaItem id="943" filePath="F:\Art_and_Design\HolidayAnimation2015\Jars+Kitchen+Logos\HolidayAnimation2015\Renders\0949.png" arWidth="960" arHeight="540" duration="0" songTitle="" songArtist="" songAlbum="" songCopyrightUrl="" songArtistUrl="" songAudioFileUrl="" stabilizationMode="0" mediaItemType="2" />
    <MediaItem id="944" filePath="F:\Art_and_Design\HolidayAnimation2015\Jars+Kitchen+Logos\HolidayAnimation2015\Renders\0950.png" arWidth="960" arHeight="540" duration="0" songTitle="" songArtist="" songAlbum="" songCopyrightUrl="" songArtistUrl="" songAudioFileUrl="" stabilizationMode="0" mediaItemType="2" />
    <MediaItem id="945" filePath="F:\Art_and_Design\HolidayAnimation2015\Jars+Kitchen+Logos\HolidayAnimation2015\Renders\0951.png" arWidth="960" arHeight="540" duration="0" songTitle="" songArtist="" songAlbum="" songCopyrightUrl="" songArtistUrl="" songAudioFileUrl="" stabilizationMode="0" mediaItemType="2" />
    <MediaItem id="946" filePath="F:\Art_and_Design\HolidayAnimation2015\Jars+Kitchen+Logos\HolidayAnimation2015\Renders\0952.png" arWidth="960" arHeight="540" duration="0" songTitle="" songArtist="" songAlbum="" songCopyrightUrl="" songArtistUrl="" songAudioFileUrl="" stabilizationMode="0" mediaItemType="2" />
    <MediaItem id="947" filePath="F:\Art_and_Design\HolidayAnimation2015\Jars+Kitchen+Logos\HolidayAnimation2015\Renders\0953.png" arWidth="960" arHeight="540" duration="0" songTitle="" songArtist="" songAlbum="" songCopyrightUrl="" songArtistUrl="" songAudioFileUrl="" stabilizationMode="0" mediaItemType="2" />
    <MediaItem id="948" filePath="F:\Art_and_Design\HolidayAnimation2015\Jars+Kitchen+Logos\HolidayAnimation2015\Renders\0954.png" arWidth="960" arHeight="540" duration="0" songTitle="" songArtist="" songAlbum="" songCopyrightUrl="" songArtistUrl="" songAudioFileUrl="" stabilizationMode="0" mediaItemType="2" />
    <MediaItem id="949" filePath="F:\Art_and_Design\HolidayAnimation2015\Jars+Kitchen+Logos\HolidayAnimation2015\Renders\0955.png" arWidth="960" arHeight="540" duration="0" songTitle="" songArtist="" songAlbum="" songCopyrightUrl="" songArtistUrl="" songAudioFileUrl="" stabilizationMode="0" mediaItemType="2" />
    <MediaItem id="950" filePath="F:\Art_and_Design\HolidayAnimation2015\Jars+Kitchen+Logos\HolidayAnimation2015\Renders\0956.png" arWidth="960" arHeight="540" duration="0" songTitle="" songArtist="" songAlbum="" songCopyrightUrl="" songArtistUrl="" songAudioFileUrl="" stabilizationMode="0" mediaItemType="2" />
    <MediaItem id="951" filePath="F:\Art_and_Design\HolidayAnimation2015\Jars+Kitchen+Logos\HolidayAnimation2015\Renders\0957.png" arWidth="960" arHeight="540" duration="0" songTitle="" songArtist="" songAlbum="" songCopyrightUrl="" songArtistUrl="" songAudioFileUrl="" stabilizationMode="0" mediaItemType="2" />
    <MediaItem id="952" filePath="F:\Art_and_Design\HolidayAnimation2015\Jars+Kitchen+Logos\HolidayAnimation2015\Renders\0958.png" arWidth="960" arHeight="540" duration="0" songTitle="" songArtist="" songAlbum="" songCopyrightUrl="" songArtistUrl="" songAudioFileUrl="" stabilizationMode="0" mediaItemType="2" />
    <MediaItem id="953" filePath="F:\Art_and_Design\HolidayAnimation2015\Jars+Kitchen+Logos\HolidayAnimation2015\Renders\0959.png" arWidth="960" arHeight="540" duration="0" songTitle="" songArtist="" songAlbum="" songCopyrightUrl="" songArtistUrl="" songAudioFileUrl="" stabilizationMode="0" mediaItemType="2" />
    <MediaItem id="954" filePath="F:\Art_and_Design\HolidayAnimation2015\Jars+Kitchen+Logos\HolidayAnimation2015\Renders\0960.png" arWidth="960" arHeight="540" duration="0" songTitle="" songArtist="" songAlbum="" songCopyrightUrl="" songArtistUrl="" songAudioFileUrl="" stabilizationMode="0" mediaItemType="2" />
    <MediaItem id="955" filePath="F:\Art_and_Design\HolidayAnimation2015\Jars+Kitchen+Logos\HolidayAnimation2015\Renders\0961.png" arWidth="960" arHeight="540" duration="0" songTitle="" songArtist="" songAlbum="" songCopyrightUrl="" songArtistUrl="" songAudioFileUrl="" stabilizationMode="0" mediaItemType="2" />
    <MediaItem id="956" filePath="F:\Art_and_Design\HolidayAnimation2015\Jars+Kitchen+Logos\HolidayAnimation2015\Renders\0962.png" arWidth="960" arHeight="540" duration="0" songTitle="" songArtist="" songAlbum="" songCopyrightUrl="" songArtistUrl="" songAudioFileUrl="" stabilizationMode="0" mediaItemType="2" />
    <MediaItem id="957" filePath="F:\Art_and_Design\HolidayAnimation2015\Jars+Kitchen+Logos\HolidayAnimation2015\Renders\0963.png" arWidth="960" arHeight="540" duration="0" songTitle="" songArtist="" songAlbum="" songCopyrightUrl="" songArtistUrl="" songAudioFileUrl="" stabilizationMode="0" mediaItemType="2" />
    <MediaItem id="958" filePath="F:\Art_and_Design\HolidayAnimation2015\Jars+Kitchen+Logos\HolidayAnimation2015\Renders\0964.png" arWidth="960" arHeight="540" duration="0" songTitle="" songArtist="" songAlbum="" songCopyrightUrl="" songArtistUrl="" songAudioFileUrl="" stabilizationMode="0" mediaItemType="2" />
    <MediaItem id="959" filePath="F:\Art_and_Design\HolidayAnimation2015\Jars+Kitchen+Logos\HolidayAnimation2015\Renders\0965.png" arWidth="960" arHeight="540" duration="0" songTitle="" songArtist="" songAlbum="" songCopyrightUrl="" songArtistUrl="" songAudioFileUrl="" stabilizationMode="0" mediaItemType="2" />
    <MediaItem id="960" filePath="F:\Art_and_Design\HolidayAnimation2015\Jars+Kitchen+Logos\HolidayAnimation2015\Renders\0966.png" arWidth="960" arHeight="540" duration="0" songTitle="" songArtist="" songAlbum="" songCopyrightUrl="" songArtistUrl="" songAudioFileUrl="" stabilizationMode="0" mediaItemType="2" />
    <MediaItem id="961" filePath="F:\Art_and_Design\HolidayAnimation2015\Jars+Kitchen+Logos\HolidayAnimation2015\Renders\0967.png" arWidth="960" arHeight="540" duration="0" songTitle="" songArtist="" songAlbum="" songCopyrightUrl="" songArtistUrl="" songAudioFileUrl="" stabilizationMode="0" mediaItemType="2" />
    <MediaItem id="962" filePath="F:\Art_and_Design\HolidayAnimation2015\Jars+Kitchen+Logos\HolidayAnimation2015\Renders\0968.png" arWidth="960" arHeight="540" duration="0" songTitle="" songArtist="" songAlbum="" songCopyrightUrl="" songArtistUrl="" songAudioFileUrl="" stabilizationMode="0" mediaItemType="2" />
    <MediaItem id="963" filePath="F:\Art_and_Design\HolidayAnimation2015\Jars+Kitchen+Logos\HolidayAnimation2015\Renders\0969.png" arWidth="960" arHeight="540" duration="0" songTitle="" songArtist="" songAlbum="" songCopyrightUrl="" songArtistUrl="" songAudioFileUrl="" stabilizationMode="0" mediaItemType="2" />
    <MediaItem id="964" filePath="F:\Art_and_Design\HolidayAnimation2015\Jars+Kitchen+Logos\HolidayAnimation2015\Renders\0970.png" arWidth="960" arHeight="540" duration="0" songTitle="" songArtist="" songAlbum="" songCopyrightUrl="" songArtistUrl="" songAudioFileUrl="" stabilizationMode="0" mediaItemType="2" />
    <MediaItem id="965" filePath="F:\Art_and_Design\HolidayAnimation2015\Jars+Kitchen+Logos\HolidayAnimation2015\Renders\0971.png" arWidth="960" arHeight="540" duration="0" songTitle="" songArtist="" songAlbum="" songCopyrightUrl="" songArtistUrl="" songAudioFileUrl="" stabilizationMode="0" mediaItemType="2" />
    <MediaItem id="966" filePath="F:\Art_and_Design\HolidayAnimation2015\Jars+Kitchen+Logos\HolidayAnimation2015\Renders\0972.png" arWidth="960" arHeight="540" duration="0" songTitle="" songArtist="" songAlbum="" songCopyrightUrl="" songArtistUrl="" songAudioFileUrl="" stabilizationMode="0" mediaItemType="2" />
    <MediaItem id="967" filePath="F:\Art_and_Design\HolidayAnimation2015\Jars+Kitchen+Logos\HolidayAnimation2015\Renders\0973.png" arWidth="960" arHeight="540" duration="0" songTitle="" songArtist="" songAlbum="" songCopyrightUrl="" songArtistUrl="" songAudioFileUrl="" stabilizationMode="0" mediaItemType="2" />
    <MediaItem id="968" filePath="F:\Art_and_Design\HolidayAnimation2015\Jars+Kitchen+Logos\HolidayAnimation2015\Renders\0974.png" arWidth="960" arHeight="540" duration="0" songTitle="" songArtist="" songAlbum="" songCopyrightUrl="" songArtistUrl="" songAudioFileUrl="" stabilizationMode="0" mediaItemType="2" />
    <MediaItem id="969" filePath="F:\Art_and_Design\HolidayAnimation2015\Jars+Kitchen+Logos\HolidayAnimation2015\Renders\0975.png" arWidth="960" arHeight="540" duration="0" songTitle="" songArtist="" songAlbum="" songCopyrightUrl="" songArtistUrl="" songAudioFileUrl="" stabilizationMode="0" mediaItemType="2" />
    <MediaItem id="970" filePath="F:\Art_and_Design\HolidayAnimation2015\Jars+Kitchen+Logos\HolidayAnimation2015\Renders\0976.png" arWidth="960" arHeight="540" duration="0" songTitle="" songArtist="" songAlbum="" songCopyrightUrl="" songArtistUrl="" songAudioFileUrl="" stabilizationMode="0" mediaItemType="2" />
    <MediaItem id="971" filePath="F:\Art_and_Design\HolidayAnimation2015\Jars+Kitchen+Logos\HolidayAnimation2015\Renders\0977.png" arWidth="960" arHeight="540" duration="0" songTitle="" songArtist="" songAlbum="" songCopyrightUrl="" songArtistUrl="" songAudioFileUrl="" stabilizationMode="0" mediaItemType="2" />
    <MediaItem id="972" filePath="F:\Art_and_Design\HolidayAnimation2015\Jars+Kitchen+Logos\HolidayAnimation2015\Renders\0978.png" arWidth="960" arHeight="540" duration="0" songTitle="" songArtist="" songAlbum="" songCopyrightUrl="" songArtistUrl="" songAudioFileUrl="" stabilizationMode="0" mediaItemType="2" />
    <MediaItem id="973" filePath="F:\Art_and_Design\HolidayAnimation2015\Jars+Kitchen+Logos\HolidayAnimation2015\Renders\0979.png" arWidth="960" arHeight="540" duration="0" songTitle="" songArtist="" songAlbum="" songCopyrightUrl="" songArtistUrl="" songAudioFileUrl="" stabilizationMode="0" mediaItemType="2" />
    <MediaItem id="974" filePath="F:\Art_and_Design\HolidayAnimation2015\Jars+Kitchen+Logos\HolidayAnimation2015\Renders\0980.png" arWidth="960" arHeight="540" duration="0" songTitle="" songArtist="" songAlbum="" songCopyrightUrl="" songArtistUrl="" songAudioFileUrl="" stabilizationMode="0" mediaItemType="2" />
    <MediaItem id="975" filePath="F:\Art_and_Design\HolidayAnimation2015\Jars+Kitchen+Logos\HolidayAnimation2015\Renders\0981.png" arWidth="960" arHeight="540" duration="0" songTitle="" songArtist="" songAlbum="" songCopyrightUrl="" songArtistUrl="" songAudioFileUrl="" stabilizationMode="0" mediaItemType="2" />
    <MediaItem id="976" filePath="F:\Art_and_Design\HolidayAnimation2015\Jars+Kitchen+Logos\HolidayAnimation2015\Renders\0982.png" arWidth="960" arHeight="540" duration="0" songTitle="" songArtist="" songAlbum="" songCopyrightUrl="" songArtistUrl="" songAudioFileUrl="" stabilizationMode="0" mediaItemType="2" />
    <MediaItem id="977" filePath="F:\Art_and_Design\HolidayAnimation2015\Jars+Kitchen+Logos\HolidayAnimation2015\Renders\0983.png" arWidth="960" arHeight="540" duration="0" songTitle="" songArtist="" songAlbum="" songCopyrightUrl="" songArtistUrl="" songAudioFileUrl="" stabilizationMode="0" mediaItemType="2" />
    <MediaItem id="978" filePath="F:\Art_and_Design\HolidayAnimation2015\Jars+Kitchen+Logos\HolidayAnimation2015\Renders\0984.png" arWidth="960" arHeight="540" duration="0" songTitle="" songArtist="" songAlbum="" songCopyrightUrl="" songArtistUrl="" songAudioFileUrl="" stabilizationMode="0" mediaItemType="2" />
    <MediaItem id="979" filePath="F:\Art_and_Design\HolidayAnimation2015\Jars+Kitchen+Logos\HolidayAnimation2015\Renders\0985.png" arWidth="960" arHeight="540" duration="0" songTitle="" songArtist="" songAlbum="" songCopyrightUrl="" songArtistUrl="" songAudioFileUrl="" stabilizationMode="0" mediaItemType="2" />
    <MediaItem id="980" filePath="F:\Art_and_Design\HolidayAnimation2015\Jars+Kitchen+Logos\HolidayAnimation2015\Renders\0986.png" arWidth="960" arHeight="540" duration="0" songTitle="" songArtist="" songAlbum="" songCopyrightUrl="" songArtistUrl="" songAudioFileUrl="" stabilizationMode="0" mediaItemType="2" />
    <MediaItem id="981" filePath="F:\Art_and_Design\HolidayAnimation2015\Jars+Kitchen+Logos\HolidayAnimation2015\Renders\0987.png" arWidth="960" arHeight="540" duration="0" songTitle="" songArtist="" songAlbum="" songCopyrightUrl="" songArtistUrl="" songAudioFileUrl="" stabilizationMode="0" mediaItemType="2" />
    <MediaItem id="982" filePath="F:\Art_and_Design\HolidayAnimation2015\Jars+Kitchen+Logos\HolidayAnimation2015\Renders\0988.png" arWidth="960" arHeight="540" duration="0" songTitle="" songArtist="" songAlbum="" songCopyrightUrl="" songArtistUrl="" songAudioFileUrl="" stabilizationMode="0" mediaItemType="2" />
    <MediaItem id="983" filePath="F:\Art_and_Design\HolidayAnimation2015\Jars+Kitchen+Logos\HolidayAnimation2015\Renders\0989.png" arWidth="960" arHeight="540" duration="0" songTitle="" songArtist="" songAlbum="" songCopyrightUrl="" songArtistUrl="" songAudioFileUrl="" stabilizationMode="0" mediaItemType="2" />
    <MediaItem id="984" filePath="F:\Art_and_Design\HolidayAnimation2015\Jars+Kitchen+Logos\HolidayAnimation2015\Renders\0990.png" arWidth="960" arHeight="540" duration="0" songTitle="" songArtist="" songAlbum="" songCopyrightUrl="" songArtistUrl="" songAudioFileUrl="" stabilizationMode="0" mediaItemType="2" />
    <MediaItem id="985" filePath="F:\Art_and_Design\HolidayAnimation2015\Jars+Kitchen+Logos\HolidayAnimation2015\Renders\0991.png" arWidth="960" arHeight="540" duration="0" songTitle="" songArtist="" songAlbum="" songCopyrightUrl="" songArtistUrl="" songAudioFileUrl="" stabilizationMode="0" mediaItemType="2" />
    <MediaItem id="986" filePath="F:\Art_and_Design\HolidayAnimation2015\Jars+Kitchen+Logos\HolidayAnimation2015\Renders\0992.png" arWidth="960" arHeight="540" duration="0" songTitle="" songArtist="" songAlbum="" songCopyrightUrl="" songArtistUrl="" songAudioFileUrl="" stabilizationMode="0" mediaItemType="2" />
    <MediaItem id="987" filePath="F:\Art_and_Design\HolidayAnimation2015\Jars+Kitchen+Logos\HolidayAnimation2015\Renders\0993.png" arWidth="960" arHeight="540" duration="0" songTitle="" songArtist="" songAlbum="" songCopyrightUrl="" songArtistUrl="" songAudioFileUrl="" stabilizationMode="0" mediaItemType="2" />
    <MediaItem id="988" filePath="F:\Art_and_Design\HolidayAnimation2015\Jars+Kitchen+Logos\HolidayAnimation2015\Renders\0994.png" arWidth="960" arHeight="540" duration="0" songTitle="" songArtist="" songAlbum="" songCopyrightUrl="" songArtistUrl="" songAudioFileUrl="" stabilizationMode="0" mediaItemType="2" />
    <MediaItem id="989" filePath="F:\Art_and_Design\HolidayAnimation2015\Jars+Kitchen+Logos\HolidayAnimation2015\Renders\0995.png" arWidth="960" arHeight="540" duration="0" songTitle="" songArtist="" songAlbum="" songCopyrightUrl="" songArtistUrl="" songAudioFileUrl="" stabilizationMode="0" mediaItemType="2" />
    <MediaItem id="990" filePath="F:\Art_and_Design\HolidayAnimation2015\Jars+Kitchen+Logos\HolidayAnimation2015\Renders\0996.png" arWidth="960" arHeight="540" duration="0" songTitle="" songArtist="" songAlbum="" songCopyrightUrl="" songArtistUrl="" songAudioFileUrl="" stabilizationMode="0" mediaItemType="2" />
    <MediaItem id="991" filePath="F:\Art_and_Design\HolidayAnimation2015\Jars+Kitchen+Logos\HolidayAnimation2015\Renders\0997.png" arWidth="960" arHeight="540" duration="0" songTitle="" songArtist="" songAlbum="" songCopyrightUrl="" songArtistUrl="" songAudioFileUrl="" stabilizationMode="0" mediaItemType="2" />
    <MediaItem id="992" filePath="F:\Art_and_Design\HolidayAnimation2015\Jars+Kitchen+Logos\HolidayAnimation2015\Renders\0998.png" arWidth="960" arHeight="540" duration="0" songTitle="" songArtist="" songAlbum="" songCopyrightUrl="" songArtistUrl="" songAudioFileUrl="" stabilizationMode="0" mediaItemType="2" />
    <MediaItem id="993" filePath="F:\Art_and_Design\HolidayAnimation2015\Jars+Kitchen+Logos\HolidayAnimation2015\Renders\0999.png" arWidth="960" arHeight="540" duration="0" songTitle="" songArtist="" songAlbum="" songCopyrightUrl="" songArtistUrl="" songAudioFileUrl="" stabilizationMode="0" mediaItemType="2" />
    <MediaItem id="994" filePath="F:\Art_and_Design\HolidayAnimation2015\Jars+Kitchen+Logos\HolidayAnimation2015\Renders\1000.png" arWidth="960" arHeight="540" duration="0" songTitle="" songArtist="" songAlbum="" songCopyrightUrl="" songArtistUrl="" songAudioFileUrl="" stabilizationMode="0" mediaItemType="2" />
    <MediaItem id="995" filePath="F:\Art_and_Design\HolidayAnimation2015\Jars+Kitchen+Logos\HolidayAnimation2015\Renders\1001.png" arWidth="960" arHeight="540" duration="0" songTitle="" songArtist="" songAlbum="" songCopyrightUrl="" songArtistUrl="" songAudioFileUrl="" stabilizationMode="0" mediaItemType="2" />
    <MediaItem id="996" filePath="F:\Art_and_Design\HolidayAnimation2015\Jars+Kitchen+Logos\HolidayAnimation2015\Renders\1002.png" arWidth="960" arHeight="540" duration="0" songTitle="" songArtist="" songAlbum="" songCopyrightUrl="" songArtistUrl="" songAudioFileUrl="" stabilizationMode="0" mediaItemType="2" />
    <MediaItem id="997" filePath="F:\Art_and_Design\HolidayAnimation2015\Jars+Kitchen+Logos\HolidayAnimation2015\Renders\1003.png" arWidth="960" arHeight="540" duration="0" songTitle="" songArtist="" songAlbum="" songCopyrightUrl="" songArtistUrl="" songAudioFileUrl="" stabilizationMode="0" mediaItemType="2" />
    <MediaItem id="998" filePath="F:\Art_and_Design\HolidayAnimation2015\Jars+Kitchen+Logos\HolidayAnimation2015\Renders\1004.png" arWidth="960" arHeight="540" duration="0" songTitle="" songArtist="" songAlbum="" songCopyrightUrl="" songArtistUrl="" songAudioFileUrl="" stabilizationMode="0" mediaItemType="2" />
    <MediaItem id="999" filePath="F:\Art_and_Design\HolidayAnimation2015\Jars+Kitchen+Logos\HolidayAnimation2015\Renders\1005.png" arWidth="960" arHeight="540" duration="0" songTitle="" songArtist="" songAlbum="" songCopyrightUrl="" songArtistUrl="" songAudioFileUrl="" stabilizationMode="0" mediaItemType="2" />
    <MediaItem id="1000" filePath="F:\Art_and_Design\HolidayAnimation2015\Jars+Kitchen+Logos\HolidayAnimation2015\Renders\1006.png" arWidth="960" arHeight="540" duration="0" songTitle="" songArtist="" songAlbum="" songCopyrightUrl="" songArtistUrl="" songAudioFileUrl="" stabilizationMode="0" mediaItemType="2" />
    <MediaItem id="1001" filePath="F:\Art_and_Design\HolidayAnimation2015\Jars+Kitchen+Logos\HolidayAnimation2015\Renders\1007.png" arWidth="960" arHeight="540" duration="0" songTitle="" songArtist="" songAlbum="" songCopyrightUrl="" songArtistUrl="" songAudioFileUrl="" stabilizationMode="0" mediaItemType="2" />
    <MediaItem id="1002" filePath="F:\Art_and_Design\HolidayAnimation2015\Jars+Kitchen+Logos\HolidayAnimation2015\Renders\1008.png" arWidth="960" arHeight="540" duration="0" songTitle="" songArtist="" songAlbum="" songCopyrightUrl="" songArtistUrl="" songAudioFileUrl="" stabilizationMode="0" mediaItemType="2" />
    <MediaItem id="1003" filePath="F:\Art_and_Design\HolidayAnimation2015\Jars+Kitchen+Logos\HolidayAnimation2015\Renders\1009.png" arWidth="960" arHeight="540" duration="0" songTitle="" songArtist="" songAlbum="" songCopyrightUrl="" songArtistUrl="" songAudioFileUrl="" stabilizationMode="0" mediaItemType="2" />
    <MediaItem id="1004" filePath="F:\Art_and_Design\HolidayAnimation2015\Jars+Kitchen+Logos\HolidayAnimation2015\Renders\1010.png" arWidth="960" arHeight="540" duration="0" songTitle="" songArtist="" songAlbum="" songCopyrightUrl="" songArtistUrl="" songAudioFileUrl="" stabilizationMode="0" mediaItemType="2" />
    <MediaItem id="1005" filePath="F:\Art_and_Design\HolidayAnimation2015\Jars+Kitchen+Logos\HolidayAnimation2015\Renders\1011.png" arWidth="960" arHeight="540" duration="0" songTitle="" songArtist="" songAlbum="" songCopyrightUrl="" songArtistUrl="" songAudioFileUrl="" stabilizationMode="0" mediaItemType="2" />
    <MediaItem id="1006" filePath="F:\Art_and_Design\HolidayAnimation2015\Jars+Kitchen+Logos\HolidayAnimation2015\Renders\1012.png" arWidth="960" arHeight="540" duration="0" songTitle="" songArtist="" songAlbum="" songCopyrightUrl="" songArtistUrl="" songAudioFileUrl="" stabilizationMode="0" mediaItemType="2" />
    <MediaItem id="1007" filePath="F:\Art_and_Design\HolidayAnimation2015\Jars+Kitchen+Logos\HolidayAnimation2015\Renders\1013.png" arWidth="960" arHeight="540" duration="0" songTitle="" songArtist="" songAlbum="" songCopyrightUrl="" songArtistUrl="" songAudioFileUrl="" stabilizationMode="0" mediaItemType="2" />
    <MediaItem id="1008" filePath="F:\Art_and_Design\HolidayAnimation2015\Jars+Kitchen+Logos\HolidayAnimation2015\Renders\1014.png" arWidth="960" arHeight="540" duration="0" songTitle="" songArtist="" songAlbum="" songCopyrightUrl="" songArtistUrl="" songAudioFileUrl="" stabilizationMode="0" mediaItemType="2" />
    <MediaItem id="1009" filePath="F:\Art_and_Design\HolidayAnimation2015\Jars+Kitchen+Logos\HolidayAnimation2015\Renders\1015.png" arWidth="960" arHeight="540" duration="0" songTitle="" songArtist="" songAlbum="" songCopyrightUrl="" songArtistUrl="" songAudioFileUrl="" stabilizationMode="0" mediaItemType="2" />
    <MediaItem id="1010" filePath="F:\Art_and_Design\HolidayAnimation2015\Jars+Kitchen+Logos\HolidayAnimation2015\Renders\1016.png" arWidth="960" arHeight="540" duration="0" songTitle="" songArtist="" songAlbum="" songCopyrightUrl="" songArtistUrl="" songAudioFileUrl="" stabilizationMode="0" mediaItemType="2" />
    <MediaItem id="1011" filePath="F:\Art_and_Design\HolidayAnimation2015\Jars+Kitchen+Logos\HolidayAnimation2015\Renders\1017.png" arWidth="960" arHeight="540" duration="0" songTitle="" songArtist="" songAlbum="" songCopyrightUrl="" songArtistUrl="" songAudioFileUrl="" stabilizationMode="0" mediaItemType="2" />
    <MediaItem id="1012" filePath="F:\Art_and_Design\HolidayAnimation2015\Jars+Kitchen+Logos\HolidayAnimation2015\Renders\1018.png" arWidth="960" arHeight="540" duration="0" songTitle="" songArtist="" songAlbum="" songCopyrightUrl="" songArtistUrl="" songAudioFileUrl="" stabilizationMode="0" mediaItemType="2" />
    <MediaItem id="1013" filePath="F:\Art_and_Design\HolidayAnimation2015\Jars+Kitchen+Logos\HolidayAnimation2015\Renders\1019.png" arWidth="960" arHeight="540" duration="0" songTitle="" songArtist="" songAlbum="" songCopyrightUrl="" songArtistUrl="" songAudioFileUrl="" stabilizationMode="0" mediaItemType="2" />
    <MediaItem id="1014" filePath="F:\Art_and_Design\HolidayAnimation2015\Jars+Kitchen+Logos\HolidayAnimation2015\Renders\1020.png" arWidth="960" arHeight="540" duration="0" songTitle="" songArtist="" songAlbum="" songCopyrightUrl="" songArtistUrl="" songAudioFileUrl="" stabilizationMode="0" mediaItemType="2" />
    <MediaItem id="1015" filePath="F:\Art_and_Design\HolidayAnimation2015\Jars+Kitchen+Logos\HolidayAnimation2015\Renders\1021.png" arWidth="960" arHeight="540" duration="0" songTitle="" songArtist="" songAlbum="" songCopyrightUrl="" songArtistUrl="" songAudioFileUrl="" stabilizationMode="0" mediaItemType="2" />
    <MediaItem id="1016" filePath="F:\Art_and_Design\HolidayAnimation2015\Jars+Kitchen+Logos\HolidayAnimation2015\Renders\1022.png" arWidth="960" arHeight="540" duration="0" songTitle="" songArtist="" songAlbum="" songCopyrightUrl="" songArtistUrl="" songAudioFileUrl="" stabilizationMode="0" mediaItemType="2" />
    <MediaItem id="1017" filePath="F:\Art_and_Design\HolidayAnimation2015\Jars+Kitchen+Logos\HolidayAnimation2015\Renders\1023.png" arWidth="960" arHeight="540" duration="0" songTitle="" songArtist="" songAlbum="" songCopyrightUrl="" songArtistUrl="" songAudioFileUrl="" stabilizationMode="0" mediaItemType="2" />
    <MediaItem id="1018" filePath="F:\Art_and_Design\HolidayAnimation2015\Jars+Kitchen+Logos\HolidayAnimation2015\Renders\1024.png" arWidth="960" arHeight="540" duration="0" songTitle="" songArtist="" songAlbum="" songCopyrightUrl="" songArtistUrl="" songAudioFileUrl="" stabilizationMode="0" mediaItemType="2" />
    <MediaItem id="1019" filePath="F:\Art_and_Design\HolidayAnimation2015\Jars+Kitchen+Logos\HolidayAnimation2015\Renders\1025.png" arWidth="960" arHeight="540" duration="0" songTitle="" songArtist="" songAlbum="" songCopyrightUrl="" songArtistUrl="" songAudioFileUrl="" stabilizationMode="0" mediaItemType="2" />
    <MediaItem id="1020" filePath="F:\Art_and_Design\HolidayAnimation2015\Jars+Kitchen+Logos\HolidayAnimation2015\Renders\1026.png" arWidth="960" arHeight="540" duration="0" songTitle="" songArtist="" songAlbum="" songCopyrightUrl="" songArtistUrl="" songAudioFileUrl="" stabilizationMode="0" mediaItemType="2" />
    <MediaItem id="1021" filePath="F:\Art_and_Design\HolidayAnimation2015\Jars+Kitchen+Logos\HolidayAnimation2015\Renders\1027.png" arWidth="960" arHeight="540" duration="0" songTitle="" songArtist="" songAlbum="" songCopyrightUrl="" songArtistUrl="" songAudioFileUrl="" stabilizationMode="0" mediaItemType="2" />
    <MediaItem id="1022" filePath="F:\Art_and_Design\HolidayAnimation2015\Jars+Kitchen+Logos\HolidayAnimation2015\Renders\1028.png" arWidth="960" arHeight="540" duration="0" songTitle="" songArtist="" songAlbum="" songCopyrightUrl="" songArtistUrl="" songAudioFileUrl="" stabilizationMode="0" mediaItemType="2" />
    <MediaItem id="1023" filePath="F:\Art_and_Design\HolidayAnimation2015\Jars+Kitchen+Logos\HolidayAnimation2015\Renders\1029.png" arWidth="960" arHeight="540" duration="0" songTitle="" songArtist="" songAlbum="" songCopyrightUrl="" songArtistUrl="" songAudioFileUrl="" stabilizationMode="0" mediaItemType="2" />
    <MediaItem id="1024" filePath="F:\Art_and_Design\HolidayAnimation2015\Jars+Kitchen+Logos\HolidayAnimation2015\Renders\1030.png" arWidth="960" arHeight="540" duration="0" songTitle="" songArtist="" songAlbum="" songCopyrightUrl="" songArtistUrl="" songAudioFileUrl="" stabilizationMode="0" mediaItemType="2" />
    <MediaItem id="1025" filePath="F:\Art_and_Design\HolidayAnimation2015\Jars+Kitchen+Logos\HolidayAnimation2015\Renders\1031.png" arWidth="960" arHeight="540" duration="0" songTitle="" songArtist="" songAlbum="" songCopyrightUrl="" songArtistUrl="" songAudioFileUrl="" stabilizationMode="0" mediaItemType="2" />
    <MediaItem id="1026" filePath="F:\Art_and_Design\HolidayAnimation2015\Jars+Kitchen+Logos\HolidayAnimation2015\Renders\1032.png" arWidth="960" arHeight="540" duration="0" songTitle="" songArtist="" songAlbum="" songCopyrightUrl="" songArtistUrl="" songAudioFileUrl="" stabilizationMode="0" mediaItemType="2" />
    <MediaItem id="1027" filePath="F:\Art_and_Design\HolidayAnimation2015\Jars+Kitchen+Logos\HolidayAnimation2015\Renders\1033.png" arWidth="960" arHeight="540" duration="0" songTitle="" songArtist="" songAlbum="" songCopyrightUrl="" songArtistUrl="" songAudioFileUrl="" stabilizationMode="0" mediaItemType="2" />
    <MediaItem id="1028" filePath="F:\Art_and_Design\HolidayAnimation2015\Jars+Kitchen+Logos\HolidayAnimation2015\Renders\1034.png" arWidth="960" arHeight="540" duration="0" songTitle="" songArtist="" songAlbum="" songCopyrightUrl="" songArtistUrl="" songAudioFileUrl="" stabilizationMode="0" mediaItemType="2" />
    <MediaItem id="1029" filePath="F:\Art_and_Design\HolidayAnimation2015\Jars+Kitchen+Logos\HolidayAnimation2015\Renders\1035.png" arWidth="960" arHeight="540" duration="0" songTitle="" songArtist="" songAlbum="" songCopyrightUrl="" songArtistUrl="" songAudioFileUrl="" stabilizationMode="0" mediaItemType="2" />
    <MediaItem id="1030" filePath="F:\Art_and_Design\HolidayAnimation2015\Jars+Kitchen+Logos\HolidayAnimation2015\Renders\1036.png" arWidth="960" arHeight="540" duration="0" songTitle="" songArtist="" songAlbum="" songCopyrightUrl="" songArtistUrl="" songAudioFileUrl="" stabilizationMode="0" mediaItemType="2" />
    <MediaItem id="1031" filePath="F:\Art_and_Design\HolidayAnimation2015\Jars+Kitchen+Logos\HolidayAnimation2015\Renders\1037.png" arWidth="960" arHeight="540" duration="0" songTitle="" songArtist="" songAlbum="" songCopyrightUrl="" songArtistUrl="" songAudioFileUrl="" stabilizationMode="0" mediaItemType="2" />
    <MediaItem id="1032" filePath="F:\Art_and_Design\HolidayAnimation2015\Jars+Kitchen+Logos\HolidayAnimation2015\Renders\1038.png" arWidth="960" arHeight="540" duration="0" songTitle="" songArtist="" songAlbum="" songCopyrightUrl="" songArtistUrl="" songAudioFileUrl="" stabilizationMode="0" mediaItemType="2" />
    <MediaItem id="1033" filePath="F:\Art_and_Design\HolidayAnimation2015\Jars+Kitchen+Logos\HolidayAnimation2015\Renders\1039.png" arWidth="960" arHeight="540" duration="0" songTitle="" songArtist="" songAlbum="" songCopyrightUrl="" songArtistUrl="" songAudioFileUrl="" stabilizationMode="0" mediaItemType="2" />
    <MediaItem id="1034" filePath="F:\Art_and_Design\HolidayAnimation2015\Jars+Kitchen+Logos\HolidayAnimation2015\Renders\1040.png" arWidth="960" arHeight="540" duration="0" songTitle="" songArtist="" songAlbum="" songCopyrightUrl="" songArtistUrl="" songAudioFileUrl="" stabilizationMode="0" mediaItemType="2" />
    <MediaItem id="1035" filePath="F:\Art_and_Design\HolidayAnimation2015\Jars+Kitchen+Logos\HolidayAnimation2015\Renders\1041.png" arWidth="960" arHeight="540" duration="0" songTitle="" songArtist="" songAlbum="" songCopyrightUrl="" songArtistUrl="" songAudioFileUrl="" stabilizationMode="0" mediaItemType="2" />
    <MediaItem id="1036" filePath="F:\Art_and_Design\HolidayAnimation2015\Jars+Kitchen+Logos\HolidayAnimation2015\Renders\1042.png" arWidth="960" arHeight="540" duration="0" songTitle="" songArtist="" songAlbum="" songCopyrightUrl="" songArtistUrl="" songAudioFileUrl="" stabilizationMode="0" mediaItemType="2" />
    <MediaItem id="1037" filePath="F:\Art_and_Design\HolidayAnimation2015\Jars+Kitchen+Logos\HolidayAnimation2015\Renders\1043.png" arWidth="960" arHeight="540" duration="0" songTitle="" songArtist="" songAlbum="" songCopyrightUrl="" songArtistUrl="" songAudioFileUrl="" stabilizationMode="0" mediaItemType="2" />
    <MediaItem id="1038" filePath="F:\Art_and_Design\HolidayAnimation2015\Jars+Kitchen+Logos\HolidayAnimation2015\Renders\1044.png" arWidth="960" arHeight="540" duration="0" songTitle="" songArtist="" songAlbum="" songCopyrightUrl="" songArtistUrl="" songAudioFileUrl="" stabilizationMode="0" mediaItemType="2" />
    <MediaItem id="1039" filePath="F:\Art_and_Design\HolidayAnimation2015\Jars+Kitchen+Logos\HolidayAnimation2015\Renders\1045.png" arWidth="960" arHeight="540" duration="0" songTitle="" songArtist="" songAlbum="" songCopyrightUrl="" songArtistUrl="" songAudioFileUrl="" stabilizationMode="0" mediaItemType="2" />
    <MediaItem id="1040" filePath="F:\Art_and_Design\HolidayAnimation2015\Jars+Kitchen+Logos\HolidayAnimation2015\Renders\1046.png" arWidth="960" arHeight="540" duration="0" songTitle="" songArtist="" songAlbum="" songCopyrightUrl="" songArtistUrl="" songAudioFileUrl="" stabilizationMode="0" mediaItemType="2" />
    <MediaItem id="1041" filePath="F:\Art_and_Design\HolidayAnimation2015\Jars+Kitchen+Logos\HolidayAnimation2015\Renders\1047.png" arWidth="960" arHeight="540" duration="0" songTitle="" songArtist="" songAlbum="" songCopyrightUrl="" songArtistUrl="" songAudioFileUrl="" stabilizationMode="0" mediaItemType="2" />
    <MediaItem id="1042" filePath="F:\Art_and_Design\HolidayAnimation2015\Jars+Kitchen+Logos\HolidayAnimation2015\Renders\1048.png" arWidth="960" arHeight="540" duration="0" songTitle="" songArtist="" songAlbum="" songCopyrightUrl="" songArtistUrl="" songAudioFileUrl="" stabilizationMode="0" mediaItemType="2" />
    <MediaItem id="1043" filePath="F:\Art_and_Design\HolidayAnimation2015\Jars+Kitchen+Logos\HolidayAnimation2015\Renders\1049.png" arWidth="960" arHeight="540" duration="0" songTitle="" songArtist="" songAlbum="" songCopyrightUrl="" songArtistUrl="" songAudioFileUrl="" stabilizationMode="0" mediaItemType="2" />
    <MediaItem id="1044" filePath="F:\Art_and_Design\HolidayAnimation2015\Jars+Kitchen+Logos\HolidayAnimation2015\Renders\1050.png" arWidth="960" arHeight="540" duration="0" songTitle="" songArtist="" songAlbum="" songCopyrightUrl="" songArtistUrl="" songAudioFileUrl="" stabilizationMode="0" mediaItemType="2" />
    <MediaItem id="1045" filePath="F:\Art_and_Design\HolidayAnimation2015\Jars+Kitchen+Logos\HolidayAnimation2015\Renders\1051.png" arWidth="960" arHeight="540" duration="0" songTitle="" songArtist="" songAlbum="" songCopyrightUrl="" songArtistUrl="" songAudioFileUrl="" stabilizationMode="0" mediaItemType="2" />
    <MediaItem id="1046" filePath="F:\Art_and_Design\HolidayAnimation2015\Jars+Kitchen+Logos\HolidayAnimation2015\Renders\1052.png" arWidth="960" arHeight="540" duration="0" songTitle="" songArtist="" songAlbum="" songCopyrightUrl="" songArtistUrl="" songAudioFileUrl="" stabilizationMode="0" mediaItemType="2" />
    <MediaItem id="1047" filePath="F:\Art_and_Design\HolidayAnimation2015\Jars+Kitchen+Logos\HolidayAnimation2015\Renders\1053.png" arWidth="960" arHeight="540" duration="0" songTitle="" songArtist="" songAlbum="" songCopyrightUrl="" songArtistUrl="" songAudioFileUrl="" stabilizationMode="0" mediaItemType="2" />
    <MediaItem id="1048" filePath="F:\Art_and_Design\HolidayAnimation2015\Jars+Kitchen+Logos\HolidayAnimation2015\Renders\1054.png" arWidth="960" arHeight="540" duration="0" songTitle="" songArtist="" songAlbum="" songCopyrightUrl="" songArtistUrl="" songAudioFileUrl="" stabilizationMode="0" mediaItemType="2" />
    <MediaItem id="1049" filePath="F:\Art_and_Design\HolidayAnimation2015\Jars+Kitchen+Logos\HolidayAnimation2015\Renders\1055.png" arWidth="960" arHeight="540" duration="0" songTitle="" songArtist="" songAlbum="" songCopyrightUrl="" songArtistUrl="" songAudioFileUrl="" stabilizationMode="0" mediaItemType="2" />
    <MediaItem id="1050" filePath="F:\Art_and_Design\HolidayAnimation2015\Jars+Kitchen+Logos\HolidayAnimation2015\Renders\1056.png" arWidth="960" arHeight="540" duration="0" songTitle="" songArtist="" songAlbum="" songCopyrightUrl="" songArtistUrl="" songAudioFileUrl="" stabilizationMode="0" mediaItemType="2" />
    <MediaItem id="1051" filePath="F:\Art_and_Design\HolidayAnimation2015\Jars+Kitchen+Logos\HolidayAnimation2015\Renders\1057.png" arWidth="960" arHeight="540" duration="0" songTitle="" songArtist="" songAlbum="" songCopyrightUrl="" songArtistUrl="" songAudioFileUrl="" stabilizationMode="0" mediaItemType="2" />
    <MediaItem id="1052" filePath="F:\Art_and_Design\HolidayAnimation2015\Jars+Kitchen+Logos\HolidayAnimation2015\Renders\1058.png" arWidth="960" arHeight="540" duration="0" songTitle="" songArtist="" songAlbum="" songCopyrightUrl="" songArtistUrl="" songAudioFileUrl="" stabilizationMode="0" mediaItemType="2" />
    <MediaItem id="1053" filePath="F:\Art_and_Design\HolidayAnimation2015\Jars+Kitchen+Logos\HolidayAnimation2015\Renders\1059.png" arWidth="960" arHeight="540" duration="0" songTitle="" songArtist="" songAlbum="" songCopyrightUrl="" songArtistUrl="" songAudioFileUrl="" stabilizationMode="0" mediaItemType="2" />
    <MediaItem id="1054" filePath="F:\Art_and_Design\HolidayAnimation2015\Jars+Kitchen+Logos\HolidayAnimation2015\Renders\1060.png" arWidth="960" arHeight="540" duration="0" songTitle="" songArtist="" songAlbum="" songCopyrightUrl="" songArtistUrl="" songAudioFileUrl="" stabilizationMode="0" mediaItemType="2" />
    <MediaItem id="1055" filePath="F:\Art_and_Design\HolidayAnimation2015\Jars+Kitchen+Logos\HolidayAnimation2015\Renders\1061.png" arWidth="960" arHeight="540" duration="0" songTitle="" songArtist="" songAlbum="" songCopyrightUrl="" songArtistUrl="" songAudioFileUrl="" stabilizationMode="0" mediaItemType="2" />
    <MediaItem id="1056" filePath="F:\Art_and_Design\HolidayAnimation2015\Jars+Kitchen+Logos\HolidayAnimation2015\Renders\1062.png" arWidth="960" arHeight="540" duration="0" songTitle="" songArtist="" songAlbum="" songCopyrightUrl="" songArtistUrl="" songAudioFileUrl="" stabilizationMode="0" mediaItemType="2" />
    <MediaItem id="1057" filePath="F:\Art_and_Design\HolidayAnimation2015\Jars+Kitchen+Logos\HolidayAnimation2015\Renders\1063.png" arWidth="960" arHeight="540" duration="0" songTitle="" songArtist="" songAlbum="" songCopyrightUrl="" songArtistUrl="" songAudioFileUrl="" stabilizationMode="0" mediaItemType="2" />
    <MediaItem id="1058" filePath="F:\Art_and_Design\HolidayAnimation2015\Jars+Kitchen+Logos\HolidayAnimation2015\Renders\1064.png" arWidth="960" arHeight="540" duration="0" songTitle="" songArtist="" songAlbum="" songCopyrightUrl="" songArtistUrl="" songAudioFileUrl="" stabilizationMode="0" mediaItemType="2" />
    <MediaItem id="1059" filePath="F:\Art_and_Design\HolidayAnimation2015\Jars+Kitchen+Logos\HolidayAnimation2015\Renders\1065.png" arWidth="960" arHeight="540" duration="0" songTitle="" songArtist="" songAlbum="" songCopyrightUrl="" songArtistUrl="" songAudioFileUrl="" stabilizationMode="0" mediaItemType="2" />
    <MediaItem id="1060" filePath="F:\Art_and_Design\HolidayAnimation2015\Jars+Kitchen+Logos\HolidayAnimation2015\Renders\1066.png" arWidth="960" arHeight="540" duration="0" songTitle="" songArtist="" songAlbum="" songCopyrightUrl="" songArtistUrl="" songAudioFileUrl="" stabilizationMode="0" mediaItemType="2" />
    <MediaItem id="1061" filePath="F:\Art_and_Design\HolidayAnimation2015\Jars+Kitchen+Logos\HolidayAnimation2015\Renders\1067.png" arWidth="960" arHeight="540" duration="0" songTitle="" songArtist="" songAlbum="" songCopyrightUrl="" songArtistUrl="" songAudioFileUrl="" stabilizationMode="0" mediaItemType="2" />
    <MediaItem id="1062" filePath="F:\Art_and_Design\HolidayAnimation2015\Jars+Kitchen+Logos\HolidayAnimation2015\Renders\1068.png" arWidth="960" arHeight="540" duration="0" songTitle="" songArtist="" songAlbum="" songCopyrightUrl="" songArtistUrl="" songAudioFileUrl="" stabilizationMode="0" mediaItemType="2" />
    <MediaItem id="1063" filePath="F:\Art_and_Design\HolidayAnimation2015\Jars+Kitchen+Logos\HolidayAnimation2015\Renders\1069.png" arWidth="960" arHeight="540" duration="0" songTitle="" songArtist="" songAlbum="" songCopyrightUrl="" songArtistUrl="" songAudioFileUrl="" stabilizationMode="0" mediaItemType="2" />
    <MediaItem id="1064" filePath="F:\Art_and_Design\HolidayAnimation2015\Jars+Kitchen+Logos\HolidayAnimation2015\Renders\1070.png" arWidth="960" arHeight="540" duration="0" songTitle="" songArtist="" songAlbum="" songCopyrightUrl="" songArtistUrl="" songAudioFileUrl="" stabilizationMode="0" mediaItemType="2" />
    <MediaItem id="1065" filePath="F:\Art_and_Design\HolidayAnimation2015\Jars+Kitchen+Logos\HolidayAnimation2015\Renders\1071.png" arWidth="960" arHeight="540" duration="0" songTitle="" songArtist="" songAlbum="" songCopyrightUrl="" songArtistUrl="" songAudioFileUrl="" stabilizationMode="0" mediaItemType="2" />
    <MediaItem id="1066" filePath="F:\Art_and_Design\HolidayAnimation2015\Jars+Kitchen+Logos\HolidayAnimation2015\Renders\1072.png" arWidth="960" arHeight="540" duration="0" songTitle="" songArtist="" songAlbum="" songCopyrightUrl="" songArtistUrl="" songAudioFileUrl="" stabilizationMode="0" mediaItemType="2" />
    <MediaItem id="1067" filePath="F:\Art_and_Design\HolidayAnimation2015\Jars+Kitchen+Logos\HolidayAnimation2015\Renders\1073.png" arWidth="960" arHeight="540" duration="0" songTitle="" songArtist="" songAlbum="" songCopyrightUrl="" songArtistUrl="" songAudioFileUrl="" stabilizationMode="0" mediaItemType="2" />
    <MediaItem id="1068" filePath="F:\Art_and_Design\HolidayAnimation2015\Jars+Kitchen+Logos\HolidayAnimation2015\Renders\1074.png" arWidth="960" arHeight="540" duration="0" songTitle="" songArtist="" songAlbum="" songCopyrightUrl="" songArtistUrl="" songAudioFileUrl="" stabilizationMode="0" mediaItemType="2" />
    <MediaItem id="1069" filePath="F:\Art_and_Design\HolidayAnimation2015\Jars+Kitchen+Logos\HolidayAnimation2015\Renders\1075.png" arWidth="960" arHeight="540" duration="0" songTitle="" songArtist="" songAlbum="" songCopyrightUrl="" songArtistUrl="" songAudioFileUrl="" stabilizationMode="0" mediaItemType="2" />
    <MediaItem id="1070" filePath="F:\Art_and_Design\HolidayAnimation2015\Jars+Kitchen+Logos\HolidayAnimation2015\Renders\1076.png" arWidth="960" arHeight="540" duration="0" songTitle="" songArtist="" songAlbum="" songCopyrightUrl="" songArtistUrl="" songAudioFileUrl="" stabilizationMode="0" mediaItemType="2" />
    <MediaItem id="1071" filePath="F:\Art_and_Design\HolidayAnimation2015\Jars+Kitchen+Logos\HolidayAnimation2015\Renders\1077.png" arWidth="960" arHeight="540" duration="0" songTitle="" songArtist="" songAlbum="" songCopyrightUrl="" songArtistUrl="" songAudioFileUrl="" stabilizationMode="0" mediaItemType="2" />
    <MediaItem id="1072" filePath="F:\Art_and_Design\HolidayAnimation2015\Jars+Kitchen+Logos\HolidayAnimation2015\Renders\1078.png" arWidth="960" arHeight="540" duration="0" songTitle="" songArtist="" songAlbum="" songCopyrightUrl="" songArtistUrl="" songAudioFileUrl="" stabilizationMode="0" mediaItemType="2" />
    <MediaItem id="1073" filePath="F:\Art_and_Design\HolidayAnimation2015\Jars+Kitchen+Logos\HolidayAnimation2015\Renders\1079.png" arWidth="960" arHeight="540" duration="0" songTitle="" songArtist="" songAlbum="" songCopyrightUrl="" songArtistUrl="" songAudioFileUrl="" stabilizationMode="0" mediaItemType="2" />
    <MediaItem id="1074" filePath="F:\Art_and_Design\HolidayAnimation2015\Jars+Kitchen+Logos\HolidayAnimation2015\Renders\1080.png" arWidth="960" arHeight="540" duration="0" songTitle="" songArtist="" songAlbum="" songCopyrightUrl="" songArtistUrl="" songAudioFileUrl="" stabilizationMode="0" mediaItemType="2" />
    <MediaItem id="1075" filePath="F:\Art_and_Design\HolidayAnimation2015\Jars+Kitchen+Logos\HolidayAnimation2015\Renders\1081.png" arWidth="960" arHeight="540" duration="0" songTitle="" songArtist="" songAlbum="" songCopyrightUrl="" songArtistUrl="" songAudioFileUrl="" stabilizationMode="0" mediaItemType="2" />
    <MediaItem id="1076" filePath="F:\Art_and_Design\HolidayAnimation2015\Jars+Kitchen+Logos\HolidayAnimation2015\Renders\1082.png" arWidth="960" arHeight="540" duration="0" songTitle="" songArtist="" songAlbum="" songCopyrightUrl="" songArtistUrl="" songAudioFileUrl="" stabilizationMode="0" mediaItemType="2" />
    <MediaItem id="1077" filePath="F:\Art_and_Design\HolidayAnimation2015\Jars+Kitchen+Logos\HolidayAnimation2015\Renders\1083.png" arWidth="960" arHeight="540" duration="0" songTitle="" songArtist="" songAlbum="" songCopyrightUrl="" songArtistUrl="" songAudioFileUrl="" stabilizationMode="0" mediaItemType="2" />
    <MediaItem id="1078" filePath="F:\Art_and_Design\HolidayAnimation2015\Jars+Kitchen+Logos\HolidayAnimation2015\Renders\1084.png" arWidth="960" arHeight="540" duration="0" songTitle="" songArtist="" songAlbum="" songCopyrightUrl="" songArtistUrl="" songAudioFileUrl="" stabilizationMode="0" mediaItemType="2" />
    <MediaItem id="1079" filePath="F:\Art_and_Design\HolidayAnimation2015\Jars+Kitchen+Logos\HolidayAnimation2015\Renders\1085.png" arWidth="960" arHeight="540" duration="0" songTitle="" songArtist="" songAlbum="" songCopyrightUrl="" songArtistUrl="" songAudioFileUrl="" stabilizationMode="0" mediaItemType="2" />
    <MediaItem id="1080" filePath="F:\Art_and_Design\HolidayAnimation2015\Jars+Kitchen+Logos\HolidayAnimation2015\Renders\1086.png" arWidth="960" arHeight="540" duration="0" songTitle="" songArtist="" songAlbum="" songCopyrightUrl="" songArtistUrl="" songAudioFileUrl="" stabilizationMode="0" mediaItemType="2" />
    <MediaItem id="1081" filePath="F:\Art_and_Design\HolidayAnimation2015\Jars+Kitchen+Logos\HolidayAnimation2015\Renders\1087.png" arWidth="960" arHeight="540" duration="0" songTitle="" songArtist="" songAlbum="" songCopyrightUrl="" songArtistUrl="" songAudioFileUrl="" stabilizationMode="0" mediaItemType="2" />
    <MediaItem id="1082" filePath="F:\Art_and_Design\HolidayAnimation2015\Jars+Kitchen+Logos\HolidayAnimation2015\Renders\1088.png" arWidth="960" arHeight="540" duration="0" songTitle="" songArtist="" songAlbum="" songCopyrightUrl="" songArtistUrl="" songAudioFileUrl="" stabilizationMode="0" mediaItemType="2" />
    <MediaItem id="1083" filePath="F:\Art_and_Design\HolidayAnimation2015\Jars+Kitchen+Logos\HolidayAnimation2015\Renders\1089.png" arWidth="960" arHeight="540" duration="0" songTitle="" songArtist="" songAlbum="" songCopyrightUrl="" songArtistUrl="" songAudioFileUrl="" stabilizationMode="0" mediaItemType="2" />
    <MediaItem id="1084" filePath="F:\Art_and_Design\HolidayAnimation2015\Jars+Kitchen+Logos\HolidayAnimation2015\Renders\1090.png" arWidth="960" arHeight="540" duration="0" songTitle="" songArtist="" songAlbum="" songCopyrightUrl="" songArtistUrl="" songAudioFileUrl="" stabilizationMode="0" mediaItemType="2" />
    <MediaItem id="1085" filePath="F:\Art_and_Design\HolidayAnimation2015\Jars+Kitchen+Logos\HolidayAnimation2015\Renders\1091.png" arWidth="960" arHeight="540" duration="0" songTitle="" songArtist="" songAlbum="" songCopyrightUrl="" songArtistUrl="" songAudioFileUrl="" stabilizationMode="0" mediaItemType="2" />
    <MediaItem id="1086" filePath="F:\Art_and_Design\HolidayAnimation2015\Jars+Kitchen+Logos\HolidayAnimation2015\Renders\1092.png" arWidth="960" arHeight="540" duration="0" songTitle="" songArtist="" songAlbum="" songCopyrightUrl="" songArtistUrl="" songAudioFileUrl="" stabilizationMode="0" mediaItemType="2" />
    <MediaItem id="1087" filePath="F:\Art_and_Design\HolidayAnimation2015\Jars+Kitchen+Logos\HolidayAnimation2015\Renders\1093.png" arWidth="960" arHeight="540" duration="0" songTitle="" songArtist="" songAlbum="" songCopyrightUrl="" songArtistUrl="" songAudioFileUrl="" stabilizationMode="0" mediaItemType="2" />
    <MediaItem id="1088" filePath="F:\Art_and_Design\HolidayAnimation2015\Jars+Kitchen+Logos\HolidayAnimation2015\Renders\1094.png" arWidth="960" arHeight="540" duration="0" songTitle="" songArtist="" songAlbum="" songCopyrightUrl="" songArtistUrl="" songAudioFileUrl="" stabilizationMode="0" mediaItemType="2" />
    <MediaItem id="1089" filePath="F:\Art_and_Design\HolidayAnimation2015\Jars+Kitchen+Logos\HolidayAnimation2015\Renders\1095.png" arWidth="960" arHeight="540" duration="0" songTitle="" songArtist="" songAlbum="" songCopyrightUrl="" songArtistUrl="" songAudioFileUrl="" stabilizationMode="0" mediaItemType="2" />
    <MediaItem id="1090" filePath="F:\Art_and_Design\HolidayAnimation2015\Jars+Kitchen+Logos\HolidayAnimation2015\Renders\1096.png" arWidth="960" arHeight="540" duration="0" songTitle="" songArtist="" songAlbum="" songCopyrightUrl="" songArtistUrl="" songAudioFileUrl="" stabilizationMode="0" mediaItemType="2" />
    <MediaItem id="1091" filePath="F:\Art_and_Design\HolidayAnimation2015\Jars+Kitchen+Logos\HolidayAnimation2015\Renders\1097.png" arWidth="960" arHeight="540" duration="0" songTitle="" songArtist="" songAlbum="" songCopyrightUrl="" songArtistUrl="" songAudioFileUrl="" stabilizationMode="0" mediaItemType="2" />
    <MediaItem id="1092" filePath="F:\Art_and_Design\HolidayAnimation2015\Jars+Kitchen+Logos\HolidayAnimation2015\Renders\1098.png" arWidth="960" arHeight="540" duration="0" songTitle="" songArtist="" songAlbum="" songCopyrightUrl="" songArtistUrl="" songAudioFileUrl="" stabilizationMode="0" mediaItemType="2" />
    <MediaItem id="1093" filePath="F:\Art_and_Design\HolidayAnimation2015\Jars+Kitchen+Logos\HolidayAnimation2015\Renders\1099.png" arWidth="960" arHeight="540" duration="0" songTitle="" songArtist="" songAlbum="" songCopyrightUrl="" songArtistUrl="" songAudioFileUrl="" stabilizationMode="0" mediaItemType="2" />
    <MediaItem id="1094" filePath="F:\Art_and_Design\HolidayAnimation2015\Jars+Kitchen+Logos\HolidayAnimation2015\Renders\1100.png" arWidth="960" arHeight="540" duration="0" songTitle="" songArtist="" songAlbum="" songCopyrightUrl="" songArtistUrl="" songAudioFileUrl="" stabilizationMode="0" mediaItemType="2" />
    <MediaItem id="1095" filePath="F:\Art_and_Design\HolidayAnimation2015\Jars+Kitchen+Logos\HolidayAnimation2015\Renders\1101.png" arWidth="960" arHeight="540" duration="0" songTitle="" songArtist="" songAlbum="" songCopyrightUrl="" songArtistUrl="" songAudioFileUrl="" stabilizationMode="0" mediaItemType="2" />
    <MediaItem id="1096" filePath="F:\Art_and_Design\HolidayAnimation2015\Jars+Kitchen+Logos\HolidayAnimation2015\Renders\1102.png" arWidth="960" arHeight="540" duration="0" songTitle="" songArtist="" songAlbum="" songCopyrightUrl="" songArtistUrl="" songAudioFileUrl="" stabilizationMode="0" mediaItemType="2" />
    <MediaItem id="1097" filePath="F:\Art_and_Design\HolidayAnimation2015\Jars+Kitchen+Logos\HolidayAnimation2015\Renders\1103.png" arWidth="960" arHeight="540" duration="0" songTitle="" songArtist="" songAlbum="" songCopyrightUrl="" songArtistUrl="" songAudioFileUrl="" stabilizationMode="0" mediaItemType="2" />
    <MediaItem id="1098" filePath="F:\Art_and_Design\HolidayAnimation2015\Jars+Kitchen+Logos\HolidayAnimation2015\Renders\1104.png" arWidth="960" arHeight="540" duration="0" songTitle="" songArtist="" songAlbum="" songCopyrightUrl="" songArtistUrl="" songAudioFileUrl="" stabilizationMode="0" mediaItemType="2" />
    <MediaItem id="1099" filePath="F:\Art_and_Design\HolidayAnimation2015\Jars+Kitchen+Logos\HolidayAnimation2015\Renders\1105.png" arWidth="960" arHeight="540" duration="0" songTitle="" songArtist="" songAlbum="" songCopyrightUrl="" songArtistUrl="" songAudioFileUrl="" stabilizationMode="0" mediaItemType="2" />
    <MediaItem id="1100" filePath="F:\Art_and_Design\HolidayAnimation2015\Jars+Kitchen+Logos\HolidayAnimation2015\Renders\1106.png" arWidth="960" arHeight="540" duration="0" songTitle="" songArtist="" songAlbum="" songCopyrightUrl="" songArtistUrl="" songAudioFileUrl="" stabilizationMode="0" mediaItemType="2" />
    <MediaItem id="1101" filePath="F:\Art_and_Design\HolidayAnimation2015\Jars+Kitchen+Logos\HolidayAnimation2015\Renders\1107.png" arWidth="960" arHeight="540" duration="0" songTitle="" songArtist="" songAlbum="" songCopyrightUrl="" songArtistUrl="" songAudioFileUrl="" stabilizationMode="0" mediaItemType="2" />
    <MediaItem id="1102" filePath="F:\Art_and_Design\HolidayAnimation2015\Jars+Kitchen+Logos\HolidayAnimation2015\Renders\1108.png" arWidth="960" arHeight="540" duration="0" songTitle="" songArtist="" songAlbum="" songCopyrightUrl="" songArtistUrl="" songAudioFileUrl="" stabilizationMode="0" mediaItemType="2" />
    <MediaItem id="1103" filePath="F:\Art_and_Design\HolidayAnimation2015\Jars+Kitchen+Logos\HolidayAnimation2015\Renders\1109.png" arWidth="960" arHeight="540" duration="0" songTitle="" songArtist="" songAlbum="" songCopyrightUrl="" songArtistUrl="" songAudioFileUrl="" stabilizationMode="0" mediaItemType="2" />
    <MediaItem id="1104" filePath="F:\Art_and_Design\HolidayAnimation2015\Jars+Kitchen+Logos\HolidayAnimation2015\Renders\1110.png" arWidth="960" arHeight="540" duration="0" songTitle="" songArtist="" songAlbum="" songCopyrightUrl="" songArtistUrl="" songAudioFileUrl="" stabilizationMode="0" mediaItemType="2" />
    <MediaItem id="1105" filePath="F:\Art_and_Design\HolidayAnimation2015\Jars+Kitchen+Logos\HolidayAnimation2015\Renders\1111.png" arWidth="960" arHeight="540" duration="0" songTitle="" songArtist="" songAlbum="" songCopyrightUrl="" songArtistUrl="" songAudioFileUrl="" stabilizationMode="0" mediaItemType="2" />
    <MediaItem id="1106" filePath="F:\Art_and_Design\HolidayAnimation2015\Jars+Kitchen+Logos\HolidayAnimation2015\Renders\1112.png" arWidth="960" arHeight="540" duration="0" songTitle="" songArtist="" songAlbum="" songCopyrightUrl="" songArtistUrl="" songAudioFileUrl="" stabilizationMode="0" mediaItemType="2" />
    <MediaItem id="1107" filePath="F:\Art_and_Design\HolidayAnimation2015\Jars+Kitchen+Logos\HolidayAnimation2015\Renders\1113.png" arWidth="960" arHeight="540" duration="0" songTitle="" songArtist="" songAlbum="" songCopyrightUrl="" songArtistUrl="" songAudioFileUrl="" stabilizationMode="0" mediaItemType="2" />
    <MediaItem id="1108" filePath="F:\Art_and_Design\HolidayAnimation2015\Jars+Kitchen+Logos\HolidayAnimation2015\Renders\1114.png" arWidth="960" arHeight="540" duration="0" songTitle="" songArtist="" songAlbum="" songCopyrightUrl="" songArtistUrl="" songAudioFileUrl="" stabilizationMode="0" mediaItemType="2" />
    <MediaItem id="1109" filePath="F:\Art_and_Design\HolidayAnimation2015\Jars+Kitchen+Logos\HolidayAnimation2015\Renders\1115.png" arWidth="960" arHeight="540" duration="0" songTitle="" songArtist="" songAlbum="" songCopyrightUrl="" songArtistUrl="" songAudioFileUrl="" stabilizationMode="0" mediaItemType="2" />
    <MediaItem id="1110" filePath="F:\Art_and_Design\HolidayAnimation2015\Jars+Kitchen+Logos\HolidayAnimation2015\Renders\1116.png" arWidth="960" arHeight="540" duration="0" songTitle="" songArtist="" songAlbum="" songCopyrightUrl="" songArtistUrl="" songAudioFileUrl="" stabilizationMode="0" mediaItemType="2" />
    <MediaItem id="1111" filePath="F:\Art_and_Design\HolidayAnimation2015\Jars+Kitchen+Logos\HolidayAnimation2015\Renders\1117.png" arWidth="960" arHeight="540" duration="0" songTitle="" songArtist="" songAlbum="" songCopyrightUrl="" songArtistUrl="" songAudioFileUrl="" stabilizationMode="0" mediaItemType="2" />
    <MediaItem id="1112" filePath="F:\Art_and_Design\HolidayAnimation2015\Jars+Kitchen+Logos\HolidayAnimation2015\Renders\1118.png" arWidth="960" arHeight="540" duration="0" songTitle="" songArtist="" songAlbum="" songCopyrightUrl="" songArtistUrl="" songAudioFileUrl="" stabilizationMode="0" mediaItemType="2" />
    <MediaItem id="1113" filePath="F:\Art_and_Design\HolidayAnimation2015\Jars+Kitchen+Logos\HolidayAnimation2015\Renders\1119.png" arWidth="960" arHeight="540" duration="0" songTitle="" songArtist="" songAlbum="" songCopyrightUrl="" songArtistUrl="" songAudioFileUrl="" stabilizationMode="0" mediaItemType="2" />
    <MediaItem id="1114" filePath="F:\Art_and_Design\HolidayAnimation2015\Jars+Kitchen+Logos\HolidayAnimation2015\Renders\1120.png" arWidth="960" arHeight="540" duration="0" songTitle="" songArtist="" songAlbum="" songCopyrightUrl="" songArtistUrl="" songAudioFileUrl="" stabilizationMode="0" mediaItemType="2" />
    <MediaItem id="1115" filePath="F:\Art_and_Design\HolidayAnimation2015\Jars+Kitchen+Logos\HolidayAnimation2015\Renders\1121.png" arWidth="960" arHeight="540" duration="0" songTitle="" songArtist="" songAlbum="" songCopyrightUrl="" songArtistUrl="" songAudioFileUrl="" stabilizationMode="0" mediaItemType="2" />
    <MediaItem id="1116" filePath="F:\Art_and_Design\HolidayAnimation2015\Jars+Kitchen+Logos\HolidayAnimation2015\Renders\1122.png" arWidth="960" arHeight="540" duration="0" songTitle="" songArtist="" songAlbum="" songCopyrightUrl="" songArtistUrl="" songAudioFileUrl="" stabilizationMode="0" mediaItemType="2" />
    <MediaItem id="1117" filePath="F:\Art_and_Design\HolidayAnimation2015\Jars+Kitchen+Logos\HolidayAnimation2015\Renders\1123.png" arWidth="960" arHeight="540" duration="0" songTitle="" songArtist="" songAlbum="" songCopyrightUrl="" songArtistUrl="" songAudioFileUrl="" stabilizationMode="0" mediaItemType="2" />
    <MediaItem id="1118" filePath="F:\Art_and_Design\HolidayAnimation2015\Jars+Kitchen+Logos\HolidayAnimation2015\Renders\1124.png" arWidth="960" arHeight="540" duration="0" songTitle="" songArtist="" songAlbum="" songCopyrightUrl="" songArtistUrl="" songAudioFileUrl="" stabilizationMode="0" mediaItemType="2" />
    <MediaItem id="1119" filePath="F:\Art_and_Design\HolidayAnimation2015\Jars+Kitchen+Logos\HolidayAnimation2015\Renders\1125.png" arWidth="960" arHeight="540" duration="0" songTitle="" songArtist="" songAlbum="" songCopyrightUrl="" songArtistUrl="" songAudioFileUrl="" stabilizationMode="0" mediaItemType="2" />
    <MediaItem id="1120" filePath="F:\Art_and_Design\HolidayAnimation2015\Jars+Kitchen+Logos\HolidayAnimation2015\Renders\1126.png" arWidth="960" arHeight="540" duration="0" songTitle="" songArtist="" songAlbum="" songCopyrightUrl="" songArtistUrl="" songAudioFileUrl="" stabilizationMode="0" mediaItemType="2" />
    <MediaItem id="1121" filePath="F:\Art_and_Design\HolidayAnimation2015\Jars+Kitchen+Logos\HolidayAnimation2015\Renders\1127.png" arWidth="960" arHeight="540" duration="0" songTitle="" songArtist="" songAlbum="" songCopyrightUrl="" songArtistUrl="" songAudioFileUrl="" stabilizationMode="0" mediaItemType="2" />
    <MediaItem id="1122" filePath="F:\Art_and_Design\HolidayAnimation2015\Jars+Kitchen+Logos\HolidayAnimation2015\Renders\1128.png" arWidth="960" arHeight="540" duration="0" songTitle="" songArtist="" songAlbum="" songCopyrightUrl="" songArtistUrl="" songAudioFileUrl="" stabilizationMode="0" mediaItemType="2" />
    <MediaItem id="1123" filePath="F:\Art_and_Design\HolidayAnimation2015\Jars+Kitchen+Logos\HolidayAnimation2015\Renders\1129.png" arWidth="960" arHeight="540" duration="0" songTitle="" songArtist="" songAlbum="" songCopyrightUrl="" songArtistUrl="" songAudioFileUrl="" stabilizationMode="0" mediaItemType="2" />
    <MediaItem id="1124" filePath="F:\Art_and_Design\HolidayAnimation2015\Jars+Kitchen+Logos\HolidayAnimation2015\Renders\1130.png" arWidth="960" arHeight="540" duration="0" songTitle="" songArtist="" songAlbum="" songCopyrightUrl="" songArtistUrl="" songAudioFileUrl="" stabilizationMode="0" mediaItemType="2" />
    <MediaItem id="1125" filePath="F:\Art_and_Design\HolidayAnimation2015\Jars+Kitchen+Logos\HolidayAnimation2015\Renders\1131.png" arWidth="960" arHeight="540" duration="0" songTitle="" songArtist="" songAlbum="" songCopyrightUrl="" songArtistUrl="" songAudioFileUrl="" stabilizationMode="0" mediaItemType="2" />
    <MediaItem id="1126" filePath="F:\Art_and_Design\HolidayAnimation2015\Jars+Kitchen+Logos\HolidayAnimation2015\Renders\1132.png" arWidth="960" arHeight="540" duration="0" songTitle="" songArtist="" songAlbum="" songCopyrightUrl="" songArtistUrl="" songAudioFileUrl="" stabilizationMode="0" mediaItemType="2" />
    <MediaItem id="1127" filePath="F:\Art_and_Design\HolidayAnimation2015\Jars+Kitchen+Logos\HolidayAnimation2015\Renders\1133.png" arWidth="960" arHeight="540" duration="0" songTitle="" songArtist="" songAlbum="" songCopyrightUrl="" songArtistUrl="" songAudioFileUrl="" stabilizationMode="0" mediaItemType="2" />
    <MediaItem id="1128" filePath="F:\Art_and_Design\HolidayAnimation2015\Jars+Kitchen+Logos\HolidayAnimation2015\Renders\1134.png" arWidth="960" arHeight="540" duration="0" songTitle="" songArtist="" songAlbum="" songCopyrightUrl="" songArtistUrl="" songAudioFileUrl="" stabilizationMode="0" mediaItemType="2" />
    <MediaItem id="1129" filePath="F:\Art_and_Design\HolidayAnimation2015\Jars+Kitchen+Logos\HolidayAnimation2015\Renders\1135.png" arWidth="960" arHeight="540" duration="0" songTitle="" songArtist="" songAlbum="" songCopyrightUrl="" songArtistUrl="" songAudioFileUrl="" stabilizationMode="0" mediaItemType="2" />
    <MediaItem id="1130" filePath="F:\Art_and_Design\HolidayAnimation2015\Jars+Kitchen+Logos\HolidayAnimation2015\Renders\1136.png" arWidth="960" arHeight="540" duration="0" songTitle="" songArtist="" songAlbum="" songCopyrightUrl="" songArtistUrl="" songAudioFileUrl="" stabilizationMode="0" mediaItemType="2" />
    <MediaItem id="1131" filePath="F:\Art_and_Design\HolidayAnimation2015\Jars+Kitchen+Logos\HolidayAnimation2015\Renders\1137.png" arWidth="960" arHeight="540" duration="0" songTitle="" songArtist="" songAlbum="" songCopyrightUrl="" songArtistUrl="" songAudioFileUrl="" stabilizationMode="0" mediaItemType="2" />
    <MediaItem id="1132" filePath="F:\Art_and_Design\HolidayAnimation2015\Jars+Kitchen+Logos\HolidayAnimation2015\Renders\1138.png" arWidth="960" arHeight="540" duration="0" songTitle="" songArtist="" songAlbum="" songCopyrightUrl="" songArtistUrl="" songAudioFileUrl="" stabilizationMode="0" mediaItemType="2" />
    <MediaItem id="1133" filePath="F:\Art_and_Design\HolidayAnimation2015\Jars+Kitchen+Logos\HolidayAnimation2015\Renders\1139.png" arWidth="960" arHeight="540" duration="0" songTitle="" songArtist="" songAlbum="" songCopyrightUrl="" songArtistUrl="" songAudioFileUrl="" stabilizationMode="0" mediaItemType="2" />
    <MediaItem id="1134" filePath="F:\Art_and_Design\HolidayAnimation2015\Jars+Kitchen+Logos\HolidayAnimation2015\Renders\1140.png" arWidth="960" arHeight="540" duration="0" songTitle="" songArtist="" songAlbum="" songCopyrightUrl="" songArtistUrl="" songAudioFileUrl="" stabilizationMode="0" mediaItemType="2" />
    <MediaItem id="1135" filePath="F:\Art_and_Design\HolidayAnimation2015\Jars+Kitchen+Logos\HolidayAnimation2015\Renders\1141.png" arWidth="960" arHeight="540" duration="0" songTitle="" songArtist="" songAlbum="" songCopyrightUrl="" songArtistUrl="" songAudioFileUrl="" stabilizationMode="0" mediaItemType="2" />
    <MediaItem id="1136" filePath="F:\Art_and_Design\HolidayAnimation2015\Jars+Kitchen+Logos\HolidayAnimation2015\Renders\1142.png" arWidth="960" arHeight="540" duration="0" songTitle="" songArtist="" songAlbum="" songCopyrightUrl="" songArtistUrl="" songAudioFileUrl="" stabilizationMode="0" mediaItemType="2" />
    <MediaItem id="1137" filePath="F:\Art_and_Design\HolidayAnimation2015\Jars+Kitchen+Logos\HolidayAnimation2015\Renders\1143.png" arWidth="960" arHeight="540" duration="0" songTitle="" songArtist="" songAlbum="" songCopyrightUrl="" songArtistUrl="" songAudioFileUrl="" stabilizationMode="0" mediaItemType="2" />
    <MediaItem id="1138" filePath="F:\Art_and_Design\HolidayAnimation2015\Jars+Kitchen+Logos\HolidayAnimation2015\Renders\1144.png" arWidth="960" arHeight="540" duration="0" songTitle="" songArtist="" songAlbum="" songCopyrightUrl="" songArtistUrl="" songAudioFileUrl="" stabilizationMode="0" mediaItemType="2" />
    <MediaItem id="1139" filePath="F:\Art_and_Design\HolidayAnimation2015\Jars+Kitchen+Logos\HolidayAnimation2015\Renders\1145.png" arWidth="960" arHeight="540" duration="0" songTitle="" songArtist="" songAlbum="" songCopyrightUrl="" songArtistUrl="" songAudioFileUrl="" stabilizationMode="0" mediaItemType="2" />
    <MediaItem id="1140" filePath="F:\Art_and_Design\HolidayAnimation2015\Jars+Kitchen+Logos\HolidayAnimation2015\Renders\1146.png" arWidth="960" arHeight="540" duration="0" songTitle="" songArtist="" songAlbum="" songCopyrightUrl="" songArtistUrl="" songAudioFileUrl="" stabilizationMode="0" mediaItemType="2" />
    <MediaItem id="1141" filePath="F:\Art_and_Design\HolidayAnimation2015\Jars+Kitchen+Logos\HolidayAnimation2015\Renders\1147.png" arWidth="960" arHeight="540" duration="0" songTitle="" songArtist="" songAlbum="" songCopyrightUrl="" songArtistUrl="" songAudioFileUrl="" stabilizationMode="0" mediaItemType="2" />
    <MediaItem id="1142" filePath="F:\Art_and_Design\HolidayAnimation2015\Jars+Kitchen+Logos\HolidayAnimation2015\Renders\1148.png" arWidth="960" arHeight="540" duration="0" songTitle="" songArtist="" songAlbum="" songCopyrightUrl="" songArtistUrl="" songAudioFileUrl="" stabilizationMode="0" mediaItemType="2" />
    <MediaItem id="1143" filePath="F:\Art_and_Design\HolidayAnimation2015\Jars+Kitchen+Logos\HolidayAnimation2015\Renders\1149.png" arWidth="960" arHeight="540" duration="0" songTitle="" songArtist="" songAlbum="" songCopyrightUrl="" songArtistUrl="" songAudioFileUrl="" stabilizationMode="0" mediaItemType="2" />
    <MediaItem id="1144" filePath="F:\Art_and_Design\HolidayAnimation2015\Jars+Kitchen+Logos\HolidayAnimation2015\Renders\1150.png" arWidth="960" arHeight="540" duration="0" songTitle="" songArtist="" songAlbum="" songCopyrightUrl="" songArtistUrl="" songAudioFileUrl="" stabilizationMode="0" mediaItemType="2" />
    <MediaItem id="1145" filePath="F:\Art_and_Design\HolidayAnimation2015\Jars+Kitchen+Logos\HolidayAnimation2015\Renders\1151.png" arWidth="960" arHeight="540" duration="0" songTitle="" songArtist="" songAlbum="" songCopyrightUrl="" songArtistUrl="" songAudioFileUrl="" stabilizationMode="0" mediaItemType="2" />
    <MediaItem id="1146" filePath="F:\Art_and_Design\HolidayAnimation2015\Jars+Kitchen+Logos\HolidayAnimation2015\Renders\1152.png" arWidth="960" arHeight="540" duration="0" songTitle="" songArtist="" songAlbum="" songCopyrightUrl="" songArtistUrl="" songAudioFileUrl="" stabilizationMode="0" mediaItemType="2" />
    <MediaItem id="1147" filePath="F:\Art_and_Design\HolidayAnimation2015\Jars+Kitchen+Logos\HolidayAnimation2015\Renders\1153.png" arWidth="960" arHeight="540" duration="0" songTitle="" songArtist="" songAlbum="" songCopyrightUrl="" songArtistUrl="" songAudioFileUrl="" stabilizationMode="0" mediaItemType="2" />
    <MediaItem id="1148" filePath="F:\Art_and_Design\HolidayAnimation2015\Jars+Kitchen+Logos\HolidayAnimation2015\Renders\1154.png" arWidth="960" arHeight="540" duration="0" songTitle="" songArtist="" songAlbum="" songCopyrightUrl="" songArtistUrl="" songAudioFileUrl="" stabilizationMode="0" mediaItemType="2" />
    <MediaItem id="1149" filePath="F:\Art_and_Design\HolidayAnimation2015\Jars+Kitchen+Logos\HolidayAnimation2015\Renders\1155.png" arWidth="960" arHeight="540" duration="0" songTitle="" songArtist="" songAlbum="" songCopyrightUrl="" songArtistUrl="" songAudioFileUrl="" stabilizationMode="0" mediaItemType="2" />
    <MediaItem id="1150" filePath="F:\Art_and_Design\HolidayAnimation2015\Jars+Kitchen+Logos\HolidayAnimation2015\Renders\1156.png" arWidth="960" arHeight="540" duration="0" songTitle="" songArtist="" songAlbum="" songCopyrightUrl="" songArtistUrl="" songAudioFileUrl="" stabilizationMode="0" mediaItemType="2" />
    <MediaItem id="1151" filePath="F:\Art_and_Design\HolidayAnimation2015\Jars+Kitchen+Logos\HolidayAnimation2015\Renders\1157.png" arWidth="960" arHeight="540" duration="0" songTitle="" songArtist="" songAlbum="" songCopyrightUrl="" songArtistUrl="" songAudioFileUrl="" stabilizationMode="0" mediaItemType="2" />
    <MediaItem id="1152" filePath="F:\Art_and_Design\HolidayAnimation2015\Jars+Kitchen+Logos\HolidayAnimation2015\Renders\1158.png" arWidth="960" arHeight="540" duration="0" songTitle="" songArtist="" songAlbum="" songCopyrightUrl="" songArtistUrl="" songAudioFileUrl="" stabilizationMode="0" mediaItemType="2" />
    <MediaItem id="1153" filePath="F:\Art_and_Design\HolidayAnimation2015\Jars+Kitchen+Logos\HolidayAnimation2015\Renders\1159.png" arWidth="960" arHeight="540" duration="0" songTitle="" songArtist="" songAlbum="" songCopyrightUrl="" songArtistUrl="" songAudioFileUrl="" stabilizationMode="0" mediaItemType="2" />
    <MediaItem id="1154" filePath="F:\Art_and_Design\HolidayAnimation2015\Jars+Kitchen+Logos\HolidayAnimation2015\Renders\1160.png" arWidth="960" arHeight="540" duration="0" songTitle="" songArtist="" songAlbum="" songCopyrightUrl="" songArtistUrl="" songAudioFileUrl="" stabilizationMode="0" mediaItemType="2" />
    <MediaItem id="1155" filePath="F:\Art_and_Design\HolidayAnimation2015\Jars+Kitchen+Logos\HolidayAnimation2015\Renders\1161.png" arWidth="960" arHeight="540" duration="0" songTitle="" songArtist="" songAlbum="" songCopyrightUrl="" songArtistUrl="" songAudioFileUrl="" stabilizationMode="0" mediaItemType="2" />
    <MediaItem id="1156" filePath="F:\Art_and_Design\HolidayAnimation2015\Jars+Kitchen+Logos\HolidayAnimation2015\Renders\1162.png" arWidth="960" arHeight="540" duration="0" songTitle="" songArtist="" songAlbum="" songCopyrightUrl="" songArtistUrl="" songAudioFileUrl="" stabilizationMode="0" mediaItemType="2" />
    <MediaItem id="1157" filePath="F:\Art_and_Design\HolidayAnimation2015\Jars+Kitchen+Logos\HolidayAnimation2015\Renders\1163.png" arWidth="960" arHeight="540" duration="0" songTitle="" songArtist="" songAlbum="" songCopyrightUrl="" songArtistUrl="" songAudioFileUrl="" stabilizationMode="0" mediaItemType="2" />
    <MediaItem id="1158" filePath="F:\Art_and_Design\HolidayAnimation2015\Jars+Kitchen+Logos\HolidayAnimation2015\Renders\1164.png" arWidth="960" arHeight="540" duration="0" songTitle="" songArtist="" songAlbum="" songCopyrightUrl="" songArtistUrl="" songAudioFileUrl="" stabilizationMode="0" mediaItemType="2" />
    <MediaItem id="1159" filePath="F:\Art_and_Design\HolidayAnimation2015\Jars+Kitchen+Logos\HolidayAnimation2015\Renders\1165.png" arWidth="960" arHeight="540" duration="0" songTitle="" songArtist="" songAlbum="" songCopyrightUrl="" songArtistUrl="" songAudioFileUrl="" stabilizationMode="0" mediaItemType="2" />
    <MediaItem id="1160" filePath="F:\Art_and_Design\HolidayAnimation2015\Jars+Kitchen+Logos\HolidayAnimation2015\Renders\1166.png" arWidth="960" arHeight="540" duration="0" songTitle="" songArtist="" songAlbum="" songCopyrightUrl="" songArtistUrl="" songAudioFileUrl="" stabilizationMode="0" mediaItemType="2" />
    <MediaItem id="1161" filePath="F:\Art_and_Design\HolidayAnimation2015\Jars+Kitchen+Logos\HolidayAnimation2015\Renders\1167.png" arWidth="960" arHeight="540" duration="0" songTitle="" songArtist="" songAlbum="" songCopyrightUrl="" songArtistUrl="" songAudioFileUrl="" stabilizationMode="0" mediaItemType="2" />
    <MediaItem id="1162" filePath="F:\Art_and_Design\HolidayAnimation2015\Jars+Kitchen+Logos\HolidayAnimation2015\Renders\1168.png" arWidth="960" arHeight="540" duration="0" songTitle="" songArtist="" songAlbum="" songCopyrightUrl="" songArtistUrl="" songAudioFileUrl="" stabilizationMode="0" mediaItemType="2" />
    <MediaItem id="1163" filePath="F:\Art_and_Design\HolidayAnimation2015\Jars+Kitchen+Logos\HolidayAnimation2015\Renders\1169.png" arWidth="960" arHeight="540" duration="0" songTitle="" songArtist="" songAlbum="" songCopyrightUrl="" songArtistUrl="" songAudioFileUrl="" stabilizationMode="0" mediaItemType="2" />
    <MediaItem id="1164" filePath="F:\Art_and_Design\HolidayAnimation2015\Jars+Kitchen+Logos\HolidayAnimation2015\Renders\1170.png" arWidth="960" arHeight="540" duration="0" songTitle="" songArtist="" songAlbum="" songCopyrightUrl="" songArtistUrl="" songAudioFileUrl="" stabilizationMode="0" mediaItemType="2" />
    <MediaItem id="1165" filePath="F:\Art_and_Design\HolidayAnimation2015\Jars+Kitchen+Logos\HolidayAnimation2015\Renders\1171.png" arWidth="960" arHeight="540" duration="0" songTitle="" songArtist="" songAlbum="" songCopyrightUrl="" songArtistUrl="" songAudioFileUrl="" stabilizationMode="0" mediaItemType="2" />
    <MediaItem id="1166" filePath="F:\Art_and_Design\HolidayAnimation2015\Jars+Kitchen+Logos\HolidayAnimation2015\Renders\1172.png" arWidth="960" arHeight="540" duration="0" songTitle="" songArtist="" songAlbum="" songCopyrightUrl="" songArtistUrl="" songAudioFileUrl="" stabilizationMode="0" mediaItemType="2" />
    <MediaItem id="1167" filePath="F:\Art_and_Design\HolidayAnimation2015\Jars+Kitchen+Logos\HolidayAnimation2015\Renders\1173.png" arWidth="960" arHeight="540" duration="0" songTitle="" songArtist="" songAlbum="" songCopyrightUrl="" songArtistUrl="" songAudioFileUrl="" stabilizationMode="0" mediaItemType="2" />
    <MediaItem id="1168" filePath="F:\Art_and_Design\HolidayAnimation2015\Jars+Kitchen+Logos\HolidayAnimation2015\Renders\1174.png" arWidth="960" arHeight="540" duration="0" songTitle="" songArtist="" songAlbum="" songCopyrightUrl="" songArtistUrl="" songAudioFileUrl="" stabilizationMode="0" mediaItemType="2" />
    <MediaItem id="1169" filePath="F:\Art_and_Design\HolidayAnimation2015\Jars+Kitchen+Logos\HolidayAnimation2015\Renders\1175.png" arWidth="960" arHeight="540" duration="0" songTitle="" songArtist="" songAlbum="" songCopyrightUrl="" songArtistUrl="" songAudioFileUrl="" stabilizationMode="0" mediaItemType="2" />
    <MediaItem id="1170" filePath="F:\Art_and_Design\HolidayAnimation2015\Jars+Kitchen+Logos\HolidayAnimation2015\Renders\1176.png" arWidth="960" arHeight="540" duration="0" songTitle="" songArtist="" songAlbum="" songCopyrightUrl="" songArtistUrl="" songAudioFileUrl="" stabilizationMode="0" mediaItemType="2" />
    <MediaItem id="1171" filePath="F:\Art_and_Design\HolidayAnimation2015\Jars+Kitchen+Logos\HolidayAnimation2015\Renders\1177.png" arWidth="960" arHeight="540" duration="0" songTitle="" songArtist="" songAlbum="" songCopyrightUrl="" songArtistUrl="" songAudioFileUrl="" stabilizationMode="0" mediaItemType="2" />
    <MediaItem id="1172" filePath="F:\Art_and_Design\HolidayAnimation2015\Jars+Kitchen+Logos\HolidayAnimation2015\Renders\1178.png" arWidth="960" arHeight="540" duration="0" songTitle="" songArtist="" songAlbum="" songCopyrightUrl="" songArtistUrl="" songAudioFileUrl="" stabilizationMode="0" mediaItemType="2" />
    <MediaItem id="1173" filePath="F:\Art_and_Design\HolidayAnimation2015\Jars+Kitchen+Logos\HolidayAnimation2015\Renders\1179.png" arWidth="960" arHeight="540" duration="0" songTitle="" songArtist="" songAlbum="" songCopyrightUrl="" songArtistUrl="" songAudioFileUrl="" stabilizationMode="0" mediaItemType="2" />
    <MediaItem id="1174" filePath="F:\Art_and_Design\HolidayAnimation2015\Jars+Kitchen+Logos\HolidayAnimation2015\Renders\1180.png" arWidth="960" arHeight="540" duration="0" songTitle="" songArtist="" songAlbum="" songCopyrightUrl="" songArtistUrl="" songAudioFileUrl="" stabilizationMode="0" mediaItemType="2" />
    <MediaItem id="1175" filePath="F:\Art_and_Design\HolidayAnimation2015\Jars+Kitchen+Logos\HolidayAnimation2015\Renders\1181.png" arWidth="960" arHeight="540" duration="0" songTitle="" songArtist="" songAlbum="" songCopyrightUrl="" songArtistUrl="" songAudioFileUrl="" stabilizationMode="0" mediaItemType="2" />
    <MediaItem id="1176" filePath="F:\Art_and_Design\HolidayAnimation2015\Jars+Kitchen+Logos\HolidayAnimation2015\Renders\1182.png" arWidth="960" arHeight="540" duration="0" songTitle="" songArtist="" songAlbum="" songCopyrightUrl="" songArtistUrl="" songAudioFileUrl="" stabilizationMode="0" mediaItemType="2" />
    <MediaItem id="1177" filePath="F:\Art_and_Design\HolidayAnimation2015\Jars+Kitchen+Logos\HolidayAnimation2015\Renders\1183.png" arWidth="960" arHeight="540" duration="0" songTitle="" songArtist="" songAlbum="" songCopyrightUrl="" songArtistUrl="" songAudioFileUrl="" stabilizationMode="0" mediaItemType="2" />
    <MediaItem id="1178" filePath="F:\Art_and_Design\HolidayAnimation2015\Jars+Kitchen+Logos\HolidayAnimation2015\Renders\1184.png" arWidth="960" arHeight="540" duration="0" songTitle="" songArtist="" songAlbum="" songCopyrightUrl="" songArtistUrl="" songAudioFileUrl="" stabilizationMode="0" mediaItemType="2" />
    <MediaItem id="1179" filePath="F:\Art_and_Design\HolidayAnimation2015\Jars+Kitchen+Logos\HolidayAnimation2015\Renders\1185.png" arWidth="960" arHeight="540" duration="0" songTitle="" songArtist="" songAlbum="" songCopyrightUrl="" songArtistUrl="" songAudioFileUrl="" stabilizationMode="0" mediaItemType="2" />
    <MediaItem id="1180" filePath="F:\Art_and_Design\HolidayAnimation2015\Jars+Kitchen+Logos\HolidayAnimation2015\Renders\1186.png" arWidth="960" arHeight="540" duration="0" songTitle="" songArtist="" songAlbum="" songCopyrightUrl="" songArtistUrl="" songAudioFileUrl="" stabilizationMode="0" mediaItemType="2" />
    <MediaItem id="1181" filePath="F:\Art_and_Design\HolidayAnimation2015\Jars+Kitchen+Logos\HolidayAnimation2015\Renders\1187.png" arWidth="960" arHeight="540" duration="0" songTitle="" songArtist="" songAlbum="" songCopyrightUrl="" songArtistUrl="" songAudioFileUrl="" stabilizationMode="0" mediaItemType="2" />
    <MediaItem id="1182" filePath="F:\Art_and_Design\HolidayAnimation2015\Jars+Kitchen+Logos\HolidayAnimation2015\Renders\1188.png" arWidth="960" arHeight="540" duration="0" songTitle="" songArtist="" songAlbum="" songCopyrightUrl="" songArtistUrl="" songAudioFileUrl="" stabilizationMode="0" mediaItemType="2" />
    <MediaItem id="1183" filePath="F:\Art_and_Design\HolidayAnimation2015\Jars+Kitchen+Logos\HolidayAnimation2015\Renders\1189.png" arWidth="960" arHeight="540" duration="0" songTitle="" songArtist="" songAlbum="" songCopyrightUrl="" songArtistUrl="" songAudioFileUrl="" stabilizationMode="0" mediaItemType="2" />
    <MediaItem id="1184" filePath="F:\Art_and_Design\HolidayAnimation2015\Jars+Kitchen+Logos\HolidayAnimation2015\Renders\1190.png" arWidth="960" arHeight="540" duration="0" songTitle="" songArtist="" songAlbum="" songCopyrightUrl="" songArtistUrl="" songAudioFileUrl="" stabilizationMode="0" mediaItemType="2" />
    <MediaItem id="1185" filePath="F:\Art_and_Design\HolidayAnimation2015\Jars+Kitchen+Logos\HolidayAnimation2015\Renders\1191.png" arWidth="960" arHeight="540" duration="0" songTitle="" songArtist="" songAlbum="" songCopyrightUrl="" songArtistUrl="" songAudioFileUrl="" stabilizationMode="0" mediaItemType="2" />
    <MediaItem id="1186" filePath="F:\Art_and_Design\HolidayAnimation2015\Jars+Kitchen+Logos\HolidayAnimation2015\Renders\1192.png" arWidth="960" arHeight="540" duration="0" songTitle="" songArtist="" songAlbum="" songCopyrightUrl="" songArtistUrl="" songAudioFileUrl="" stabilizationMode="0" mediaItemType="2" />
    <MediaItem id="1187" filePath="F:\Art_and_Design\HolidayAnimation2015\Jars+Kitchen+Logos\HolidayAnimation2015\Renders\1193.png" arWidth="960" arHeight="540" duration="0" songTitle="" songArtist="" songAlbum="" songCopyrightUrl="" songArtistUrl="" songAudioFileUrl="" stabilizationMode="0" mediaItemType="2" />
    <MediaItem id="1188" filePath="F:\Art_and_Design\HolidayAnimation2015\Jars+Kitchen+Logos\HolidayAnimation2015\Renders\1194.png" arWidth="960" arHeight="540" duration="0" songTitle="" songArtist="" songAlbum="" songCopyrightUrl="" songArtistUrl="" songAudioFileUrl="" stabilizationMode="0" mediaItemType="2" />
    <MediaItem id="1189" filePath="F:\Art_and_Design\HolidayAnimation2015\Jars+Kitchen+Logos\HolidayAnimation2015\Renders\1195.png" arWidth="960" arHeight="540" duration="0" songTitle="" songArtist="" songAlbum="" songCopyrightUrl="" songArtistUrl="" songAudioFileUrl="" stabilizationMode="0" mediaItemType="2" />
    <MediaItem id="1190" filePath="F:\Art_and_Design\HolidayAnimation2015\Jars+Kitchen+Logos\HolidayAnimation2015\Renders\1196.png" arWidth="960" arHeight="540" duration="0" songTitle="" songArtist="" songAlbum="" songCopyrightUrl="" songArtistUrl="" songAudioFileUrl="" stabilizationMode="0" mediaItemType="2" />
    <MediaItem id="1191" filePath="F:\Art_and_Design\HolidayAnimation2015\Jars+Kitchen+Logos\HolidayAnimation2015\Renders\1197.png" arWidth="960" arHeight="540" duration="0" songTitle="" songArtist="" songAlbum="" songCopyrightUrl="" songArtistUrl="" songAudioFileUrl="" stabilizationMode="0" mediaItemType="2" />
    <MediaItem id="1192" filePath="F:\Art_and_Design\HolidayAnimation2015\Jars+Kitchen+Logos\HolidayAnimation2015\Renders\1198.png" arWidth="960" arHeight="540" duration="0" songTitle="" songArtist="" songAlbum="" songCopyrightUrl="" songArtistUrl="" songAudioFileUrl="" stabilizationMode="0" mediaItemType="2" />
    <MediaItem id="1193" filePath="F:\Art_and_Design\HolidayAnimation2015\Jars+Kitchen+Logos\HolidayAnimation2015\Renders\1199.png" arWidth="960" arHeight="540" duration="0" songTitle="" songArtist="" songAlbum="" songCopyrightUrl="" songArtistUrl="" songAudioFileUrl="" stabilizationMode="0" mediaItemType="2" />
    <MediaItem id="1194" filePath="F:\Art_and_Design\HolidayAnimation2015\Jars+Kitchen+Logos\HolidayAnimation2015\Renders\1200.png" arWidth="960" arHeight="540" duration="0" songTitle="" songArtist="" songAlbum="" songCopyrightUrl="" songArtistUrl="" songAudioFileUrl="" stabilizationMode="0" mediaItemType="2" />
    <MediaItem id="1195" filePath="F:\Art_and_Design\HolidayAnimation2015\Jars+Kitchen+Logos\HolidayAnimation2015\Renders\1201.png" arWidth="960" arHeight="540" duration="0" songTitle="" songArtist="" songAlbum="" songCopyrightUrl="" songArtistUrl="" songAudioFileUrl="" stabilizationMode="0" mediaItemType="2" />
    <MediaItem id="1196" filePath="F:\Art_and_Design\HolidayAnimation2015\Jars+Kitchen+Logos\HolidayAnimation2015\Renders\1202.png" arWidth="960" arHeight="540" duration="0" songTitle="" songArtist="" songAlbum="" songCopyrightUrl="" songArtistUrl="" songAudioFileUrl="" stabilizationMode="0" mediaItemType="2" />
    <MediaItem id="1197" filePath="F:\Art_and_Design\HolidayAnimation2015\Jars+Kitchen+Logos\HolidayAnimation2015\Renders\1203.png" arWidth="960" arHeight="540" duration="0" songTitle="" songArtist="" songAlbum="" songCopyrightUrl="" songArtistUrl="" songAudioFileUrl="" stabilizationMode="0" mediaItemType="2" />
    <MediaItem id="1198" filePath="F:\Art_and_Design\HolidayAnimation2015\Jars+Kitchen+Logos\HolidayAnimation2015\Renders\1204.png" arWidth="960" arHeight="540" duration="0" songTitle="" songArtist="" songAlbum="" songCopyrightUrl="" songArtistUrl="" songAudioFileUrl="" stabilizationMode="0" mediaItemType="2" />
    <MediaItem id="1199" filePath="F:\Art_and_Design\HolidayAnimation2015\Jars+Kitchen+Logos\HolidayAnimation2015\Renders\1205.png" arWidth="960" arHeight="540" duration="0" songTitle="" songArtist="" songAlbum="" songCopyrightUrl="" songArtistUrl="" songAudioFileUrl="" stabilizationMode="0" mediaItemType="2" />
    <MediaItem id="1200" filePath="F:\Art_and_Design\HolidayAnimation2015\Jars+Kitchen+Logos\HolidayAnimation2015\Renders\1206.png" arWidth="960" arHeight="540" duration="0" songTitle="" songArtist="" songAlbum="" songCopyrightUrl="" songArtistUrl="" songAudioFileUrl="" stabilizationMode="0" mediaItemType="2" />
    <MediaItem id="1201" filePath="F:\Art_and_Design\HolidayAnimation2015\Jars+Kitchen+Logos\HolidayAnimation2015\Renders\1207.png" arWidth="960" arHeight="540" duration="0" songTitle="" songArtist="" songAlbum="" songCopyrightUrl="" songArtistUrl="" songAudioFileUrl="" stabilizationMode="0" mediaItemType="2" />
    <MediaItem id="1202" filePath="F:\Art_and_Design\HolidayAnimation2015\Jars+Kitchen+Logos\HolidayAnimation2015\Renders\1208.png" arWidth="960" arHeight="540" duration="0" songTitle="" songArtist="" songAlbum="" songCopyrightUrl="" songArtistUrl="" songAudioFileUrl="" stabilizationMode="0" mediaItemType="2" />
    <MediaItem id="1203" filePath="F:\Art_and_Design\HolidayAnimation2015\Jars+Kitchen+Logos\HolidayAnimation2015\Renders\1209.png" arWidth="960" arHeight="540" duration="0" songTitle="" songArtist="" songAlbum="" songCopyrightUrl="" songArtistUrl="" songAudioFileUrl="" stabilizationMode="0" mediaItemType="2" />
    <MediaItem id="1204" filePath="F:\Art_and_Design\HolidayAnimation2015\Jars+Kitchen+Logos\HolidayAnimation2015\Renders\1210.png" arWidth="960" arHeight="540" duration="0" songTitle="" songArtist="" songAlbum="" songCopyrightUrl="" songArtistUrl="" songAudioFileUrl="" stabilizationMode="0" mediaItemType="2" />
    <MediaItem id="1205" filePath="F:\Art_and_Design\HolidayAnimation2015\Jars+Kitchen+Logos\HolidayAnimation2015\Renders\1211.png" arWidth="960" arHeight="540" duration="0" songTitle="" songArtist="" songAlbum="" songCopyrightUrl="" songArtistUrl="" songAudioFileUrl="" stabilizationMode="0" mediaItemType="2" />
    <MediaItem id="1206" filePath="F:\Art_and_Design\HolidayAnimation2015\Jars+Kitchen+Logos\HolidayAnimation2015\Renders\1212.png" arWidth="960" arHeight="540" duration="0" songTitle="" songArtist="" songAlbum="" songCopyrightUrl="" songArtistUrl="" songAudioFileUrl="" stabilizationMode="0" mediaItemType="2" />
    <MediaItem id="1207" filePath="F:\Art_and_Design\HolidayAnimation2015\Jars+Kitchen+Logos\HolidayAnimation2015\Renders\1213.png" arWidth="960" arHeight="540" duration="0" songTitle="" songArtist="" songAlbum="" songCopyrightUrl="" songArtistUrl="" songAudioFileUrl="" stabilizationMode="0" mediaItemType="2" />
    <MediaItem id="1208" filePath="F:\Art_and_Design\HolidayAnimation2015\Jars+Kitchen+Logos\HolidayAnimation2015\Renders\1214.png" arWidth="960" arHeight="540" duration="0" songTitle="" songArtist="" songAlbum="" songCopyrightUrl="" songArtistUrl="" songAudioFileUrl="" stabilizationMode="0" mediaItemType="2" />
    <MediaItem id="1209" filePath="F:\Art_and_Design\HolidayAnimation2015\Jars+Kitchen+Logos\HolidayAnimation2015\Renders\1215.png" arWidth="960" arHeight="540" duration="0" songTitle="" songArtist="" songAlbum="" songCopyrightUrl="" songArtistUrl="" songAudioFileUrl="" stabilizationMode="0" mediaItemType="2" />
    <MediaItem id="1210" filePath="F:\Art_and_Design\HolidayAnimation2015\Jars+Kitchen+Logos\HolidayAnimation2015\Renders\1216.png" arWidth="960" arHeight="540" duration="0" songTitle="" songArtist="" songAlbum="" songCopyrightUrl="" songArtistUrl="" songAudioFileUrl="" stabilizationMode="0" mediaItemType="2" />
    <MediaItem id="1211" filePath="F:\Art_and_Design\HolidayAnimation2015\Jars+Kitchen+Logos\HolidayAnimation2015\Renders\1217.png" arWidth="960" arHeight="540" duration="0" songTitle="" songArtist="" songAlbum="" songCopyrightUrl="" songArtistUrl="" songAudioFileUrl="" stabilizationMode="0" mediaItemType="2" />
    <MediaItem id="1212" filePath="F:\Art_and_Design\HolidayAnimation2015\Jars+Kitchen+Logos\HolidayAnimation2015\Renders\1218.png" arWidth="960" arHeight="540" duration="0" songTitle="" songArtist="" songAlbum="" songCopyrightUrl="" songArtistUrl="" songAudioFileUrl="" stabilizationMode="0" mediaItemType="2" />
    <MediaItem id="1213" filePath="F:\Art_and_Design\HolidayAnimation2015\Jars+Kitchen+Logos\HolidayAnimation2015\Renders\1219.png" arWidth="960" arHeight="540" duration="0" songTitle="" songArtist="" songAlbum="" songCopyrightUrl="" songArtistUrl="" songAudioFileUrl="" stabilizationMode="0" mediaItemType="2" />
    <MediaItem id="1214" filePath="F:\Art_and_Design\HolidayAnimation2015\Jars+Kitchen+Logos\HolidayAnimation2015\Renders\1220.png" arWidth="960" arHeight="540" duration="0" songTitle="" songArtist="" songAlbum="" songCopyrightUrl="" songArtistUrl="" songAudioFileUrl="" stabilizationMode="0" mediaItemType="2" />
    <MediaItem id="1215" filePath="F:\Art_and_Design\HolidayAnimation2015\Jars+Kitchen+Logos\HolidayAnimation2015\Renders\1221.png" arWidth="960" arHeight="540" duration="0" songTitle="" songArtist="" songAlbum="" songCopyrightUrl="" songArtistUrl="" songAudioFileUrl="" stabilizationMode="0" mediaItemType="2" />
    <MediaItem id="1216" filePath="F:\Art_and_Design\HolidayAnimation2015\Jars+Kitchen+Logos\HolidayAnimation2015\Renders\1222.png" arWidth="960" arHeight="540" duration="0" songTitle="" songArtist="" songAlbum="" songCopyrightUrl="" songArtistUrl="" songAudioFileUrl="" stabilizationMode="0" mediaItemType="2" />
    <MediaItem id="1217" filePath="F:\Art_and_Design\HolidayAnimation2015\Jars+Kitchen+Logos\HolidayAnimation2015\Renders\1223.png" arWidth="960" arHeight="540" duration="0" songTitle="" songArtist="" songAlbum="" songCopyrightUrl="" songArtistUrl="" songAudioFileUrl="" stabilizationMode="0" mediaItemType="2" />
    <MediaItem id="1218" filePath="F:\Art_and_Design\HolidayAnimation2015\Jars+Kitchen+Logos\HolidayAnimation2015\Renders\1224.png" arWidth="960" arHeight="540" duration="0" songTitle="" songArtist="" songAlbum="" songCopyrightUrl="" songArtistUrl="" songAudioFileUrl="" stabilizationMode="0" mediaItemType="2" />
    <MediaItem id="1219" filePath="F:\Art_and_Design\HolidayAnimation2015\Jars+Kitchen+Logos\HolidayAnimation2015\Renders\1225.png" arWidth="960" arHeight="540" duration="0" songTitle="" songArtist="" songAlbum="" songCopyrightUrl="" songArtistUrl="" songAudioFileUrl="" stabilizationMode="0" mediaItemType="2" />
    <MediaItem id="1220" filePath="F:\Art_and_Design\HolidayAnimation2015\Jars+Kitchen+Logos\HolidayAnimation2015\Renders\1226.png" arWidth="960" arHeight="540" duration="0" songTitle="" songArtist="" songAlbum="" songCopyrightUrl="" songArtistUrl="" songAudioFileUrl="" stabilizationMode="0" mediaItemType="2" />
    <MediaItem id="1221" filePath="F:\Art_and_Design\HolidayAnimation2015\Jars+Kitchen+Logos\HolidayAnimation2015\Renders\1227.png" arWidth="960" arHeight="540" duration="0" songTitle="" songArtist="" songAlbum="" songCopyrightUrl="" songArtistUrl="" songAudioFileUrl="" stabilizationMode="0" mediaItemType="2" />
    <MediaItem id="1222" filePath="F:\Art_and_Design\HolidayAnimation2015\Jars+Kitchen+Logos\HolidayAnimation2015\Renders\1228.png" arWidth="960" arHeight="540" duration="0" songTitle="" songArtist="" songAlbum="" songCopyrightUrl="" songArtistUrl="" songAudioFileUrl="" stabilizationMode="0" mediaItemType="2" />
    <MediaItem id="1223" filePath="F:\Art_and_Design\HolidayAnimation2015\Jars+Kitchen+Logos\HolidayAnimation2015\Renders\1229.png" arWidth="960" arHeight="540" duration="0" songTitle="" songArtist="" songAlbum="" songCopyrightUrl="" songArtistUrl="" songAudioFileUrl="" stabilizationMode="0" mediaItemType="2" />
    <MediaItem id="1224" filePath="F:\Art_and_Design\HolidayAnimation2015\Jars+Kitchen+Logos\HolidayAnimation2015\Renders\1230.png" arWidth="960" arHeight="540" duration="0" songTitle="" songArtist="" songAlbum="" songCopyrightUrl="" songArtistUrl="" songAudioFileUrl="" stabilizationMode="0" mediaItemType="2" />
    <MediaItem id="1225" filePath="F:\Art_and_Design\HolidayAnimation2015\Jars+Kitchen+Logos\HolidayAnimation2015\Renders\1231.png" arWidth="960" arHeight="540" duration="0" songTitle="" songArtist="" songAlbum="" songCopyrightUrl="" songArtistUrl="" songAudioFileUrl="" stabilizationMode="0" mediaItemType="2" />
    <MediaItem id="1226" filePath="F:\Art_and_Design\HolidayAnimation2015\Jars+Kitchen+Logos\HolidayAnimation2015\Renders\1232.png" arWidth="960" arHeight="540" duration="0" songTitle="" songArtist="" songAlbum="" songCopyrightUrl="" songArtistUrl="" songAudioFileUrl="" stabilizationMode="0" mediaItemType="2" />
    <MediaItem id="1227" filePath="F:\Art_and_Design\HolidayAnimation2015\Jars+Kitchen+Logos\HolidayAnimation2015\Renders\1233.png" arWidth="960" arHeight="540" duration="0" songTitle="" songArtist="" songAlbum="" songCopyrightUrl="" songArtistUrl="" songAudioFileUrl="" stabilizationMode="0" mediaItemType="2" />
    <MediaItem id="1228" filePath="F:\Art_and_Design\HolidayAnimation2015\Jars+Kitchen+Logos\HolidayAnimation2015\Renders\1234.png" arWidth="960" arHeight="540" duration="0" songTitle="" songArtist="" songAlbum="" songCopyrightUrl="" songArtistUrl="" songAudioFileUrl="" stabilizationMode="0" mediaItemType="2" />
    <MediaItem id="1229" filePath="F:\Art_and_Design\HolidayAnimation2015\Jars+Kitchen+Logos\HolidayAnimation2015\Renders\1235.png" arWidth="960" arHeight="540" duration="0" songTitle="" songArtist="" songAlbum="" songCopyrightUrl="" songArtistUrl="" songAudioFileUrl="" stabilizationMode="0" mediaItemType="2" />
    <MediaItem id="1230" filePath="F:\Art_and_Design\HolidayAnimation2015\Jars+Kitchen+Logos\HolidayAnimation2015\Renders\1236.png" arWidth="960" arHeight="540" duration="0" songTitle="" songArtist="" songAlbum="" songCopyrightUrl="" songArtistUrl="" songAudioFileUrl="" stabilizationMode="0" mediaItemType="2" />
    <MediaItem id="1231" filePath="F:\Art_and_Design\HolidayAnimation2015\Jars+Kitchen+Logos\HolidayAnimation2015\Renders\1237.png" arWidth="960" arHeight="540" duration="0" songTitle="" songArtist="" songAlbum="" songCopyrightUrl="" songArtistUrl="" songAudioFileUrl="" stabilizationMode="0" mediaItemType="2" />
    <MediaItem id="1232" filePath="F:\Art_and_Design\HolidayAnimation2015\Jars+Kitchen+Logos\HolidayAnimation2015\Renders\1238.png" arWidth="960" arHeight="540" duration="0" songTitle="" songArtist="" songAlbum="" songCopyrightUrl="" songArtistUrl="" songAudioFileUrl="" stabilizationMode="0" mediaItemType="2" />
    <MediaItem id="1233" filePath="F:\Art_and_Design\HolidayAnimation2015\Jars+Kitchen+Logos\HolidayAnimation2015\Renders\1239.png" arWidth="960" arHeight="540" duration="0" songTitle="" songArtist="" songAlbum="" songCopyrightUrl="" songArtistUrl="" songAudioFileUrl="" stabilizationMode="0" mediaItemType="2" />
    <MediaItem id="1234" filePath="F:\Art_and_Design\HolidayAnimation2015\Jars+Kitchen+Logos\HolidayAnimation2015\Renders\1240.png" arWidth="960" arHeight="540" duration="0" songTitle="" songArtist="" songAlbum="" songCopyrightUrl="" songArtistUrl="" songAudioFileUrl="" stabilizationMode="0" mediaItemType="2" />
    <MediaItem id="1235" filePath="F:\Art_and_Design\HolidayAnimation2015\Jars+Kitchen+Logos\HolidayAnimation2015\Renders\1241.png" arWidth="960" arHeight="540" duration="0" songTitle="" songArtist="" songAlbum="" songCopyrightUrl="" songArtistUrl="" songAudioFileUrl="" stabilizationMode="0" mediaItemType="2" />
    <MediaItem id="1236" filePath="F:\Art_and_Design\HolidayAnimation2015\Jars+Kitchen+Logos\HolidayAnimation2015\Renders\1242.png" arWidth="960" arHeight="540" duration="0" songTitle="" songArtist="" songAlbum="" songCopyrightUrl="" songArtistUrl="" songAudioFileUrl="" stabilizationMode="0" mediaItemType="2" />
    <MediaItem id="1237" filePath="F:\Art_and_Design\HolidayAnimation2015\Jars+Kitchen+Logos\HolidayAnimation2015\Renders\1243.png" arWidth="960" arHeight="540" duration="0" songTitle="" songArtist="" songAlbum="" songCopyrightUrl="" songArtistUrl="" songAudioFileUrl="" stabilizationMode="0" mediaItemType="2" />
    <MediaItem id="1238" filePath="F:\Art_and_Design\HolidayAnimation2015\Jars+Kitchen+Logos\HolidayAnimation2015\Renders\1244.png" arWidth="960" arHeight="540" duration="0" songTitle="" songArtist="" songAlbum="" songCopyrightUrl="" songArtistUrl="" songAudioFileUrl="" stabilizationMode="0" mediaItemType="2" />
    <MediaItem id="1239" filePath="F:\Art_and_Design\HolidayAnimation2015\Jars+Kitchen+Logos\HolidayAnimation2015\Renders\1245.png" arWidth="960" arHeight="540" duration="0" songTitle="" songArtist="" songAlbum="" songCopyrightUrl="" songArtistUrl="" songAudioFileUrl="" stabilizationMode="0" mediaItemType="2" />
    <MediaItem id="1240" filePath="F:\Art_and_Design\HolidayAnimation2015\Jars+Kitchen+Logos\HolidayAnimation2015\Renders\1246.png" arWidth="960" arHeight="540" duration="0" songTitle="" songArtist="" songAlbum="" songCopyrightUrl="" songArtistUrl="" songAudioFileUrl="" stabilizationMode="0" mediaItemType="2" />
    <MediaItem id="1241" filePath="F:\Art_and_Design\HolidayAnimation2015\Jars+Kitchen+Logos\HolidayAnimation2015\Renders\1247.png" arWidth="960" arHeight="540" duration="0" songTitle="" songArtist="" songAlbum="" songCopyrightUrl="" songArtistUrl="" songAudioFileUrl="" stabilizationMode="0" mediaItemType="2" />
    <MediaItem id="1242" filePath="F:\Art_and_Design\HolidayAnimation2015\Jars+Kitchen+Logos\HolidayAnimation2015\Renders\1248.png" arWidth="960" arHeight="540" duration="0" songTitle="" songArtist="" songAlbum="" songCopyrightUrl="" songArtistUrl="" songAudioFileUrl="" stabilizationMode="0" mediaItemType="2" />
    <MediaItem id="1243" filePath="F:\Art_and_Design\HolidayAnimation2015\Jars+Kitchen+Logos\HolidayAnimation2015\Renders\1249.png" arWidth="960" arHeight="540" duration="0" songTitle="" songArtist="" songAlbum="" songCopyrightUrl="" songArtistUrl="" songAudioFileUrl="" stabilizationMode="0" mediaItemType="2" />
    <MediaItem id="1244" filePath="F:\Art_and_Design\HolidayAnimation2015\Jars+Kitchen+Logos\HolidayAnimation2015\Renders\1250.png" arWidth="960" arHeight="540" duration="0" songTitle="" songArtist="" songAlbum="" songCopyrightUrl="" songArtistUrl="" songAudioFileUrl="" stabilizationMode="0" mediaItemType="2" />
    <MediaItem id="1245" filePath="F:\Art_and_Design\HolidayAnimation2015\Jars+Kitchen+Logos\HolidayAnimation2015\Renders\1251.png" arWidth="960" arHeight="540" duration="0" songTitle="" songArtist="" songAlbum="" songCopyrightUrl="" songArtistUrl="" songAudioFileUrl="" stabilizationMode="0" mediaItemType="2" />
    <MediaItem id="1246" filePath="F:\Art_and_Design\HolidayAnimation2015\Jars+Kitchen+Logos\HolidayAnimation2015\Renders\1252.png" arWidth="960" arHeight="540" duration="0" songTitle="" songArtist="" songAlbum="" songCopyrightUrl="" songArtistUrl="" songAudioFileUrl="" stabilizationMode="0" mediaItemType="2" />
    <MediaItem id="1247" filePath="F:\Art_and_Design\HolidayAnimation2015\Jars+Kitchen+Logos\HolidayAnimation2015\Renders\1253.png" arWidth="960" arHeight="540" duration="0" songTitle="" songArtist="" songAlbum="" songCopyrightUrl="" songArtistUrl="" songAudioFileUrl="" stabilizationMode="0" mediaItemType="2" />
    <MediaItem id="1248" filePath="F:\Art_and_Design\HolidayAnimation2015\Jars+Kitchen+Logos\HolidayAnimation2015\Renders\1254.png" arWidth="960" arHeight="540" duration="0" songTitle="" songArtist="" songAlbum="" songCopyrightUrl="" songArtistUrl="" songAudioFileUrl="" stabilizationMode="0" mediaItemType="2" />
    <MediaItem id="1249" filePath="F:\Art_and_Design\HolidayAnimation2015\Jars+Kitchen+Logos\HolidayAnimation2015\Renders\1255.png" arWidth="960" arHeight="540" duration="0" songTitle="" songArtist="" songAlbum="" songCopyrightUrl="" songArtistUrl="" songAudioFileUrl="" stabilizationMode="0" mediaItemType="2" />
    <MediaItem id="1250" filePath="F:\Art_and_Design\HolidayAnimation2015\Jars+Kitchen+Logos\HolidayAnimation2015\Renders\1256.png" arWidth="960" arHeight="540" duration="0" songTitle="" songArtist="" songAlbum="" songCopyrightUrl="" songArtistUrl="" songAudioFileUrl="" stabilizationMode="0" mediaItemType="2" />
    <MediaItem id="1251" filePath="F:\Art_and_Design\HolidayAnimation2015\Jars+Kitchen+Logos\HolidayAnimation2015\Renders\1257.png" arWidth="960" arHeight="540" duration="0" songTitle="" songArtist="" songAlbum="" songCopyrightUrl="" songArtistUrl="" songAudioFileUrl="" stabilizationMode="0" mediaItemType="2" />
    <MediaItem id="1252" filePath="F:\Art_and_Design\HolidayAnimation2015\Jars+Kitchen+Logos\HolidayAnimation2015\Renders\1258.png" arWidth="960" arHeight="540" duration="0" songTitle="" songArtist="" songAlbum="" songCopyrightUrl="" songArtistUrl="" songAudioFileUrl="" stabilizationMode="0" mediaItemType="2" />
    <MediaItem id="1253" filePath="F:\Art_and_Design\HolidayAnimation2015\Jars+Kitchen+Logos\HolidayAnimation2015\Renders\1259.png" arWidth="960" arHeight="540" duration="0" songTitle="" songArtist="" songAlbum="" songCopyrightUrl="" songArtistUrl="" songAudioFileUrl="" stabilizationMode="0" mediaItemType="2" />
    <MediaItem id="1254" filePath="F:\Art_and_Design\HolidayAnimation2015\Jars+Kitchen+Logos\HolidayAnimation2015\Renders\1260.png" arWidth="960" arHeight="540" duration="0" songTitle="" songArtist="" songAlbum="" songCopyrightUrl="" songArtistUrl="" songAudioFileUrl="" stabilizationMode="0" mediaItemType="2" />
    <MediaItem id="1255" filePath="F:\Art_and_Design\HolidayAnimation2015\Jars+Kitchen+Logos\HolidayAnimation2015\Renders\1261.png" arWidth="960" arHeight="540" duration="0" songTitle="" songArtist="" songAlbum="" songCopyrightUrl="" songArtistUrl="" songAudioFileUrl="" stabilizationMode="0" mediaItemType="2" />
    <MediaItem id="1256" filePath="F:\Art_and_Design\HolidayAnimation2015\Jars+Kitchen+Logos\HolidayAnimation2015\Renders\1262.png" arWidth="960" arHeight="540" duration="0" songTitle="" songArtist="" songAlbum="" songCopyrightUrl="" songArtistUrl="" songAudioFileUrl="" stabilizationMode="0" mediaItemType="2" />
    <MediaItem id="1257" filePath="F:\Art_and_Design\HolidayAnimation2015\Jars+Kitchen+Logos\HolidayAnimation2015\Renders\1263.png" arWidth="960" arHeight="540" duration="0" songTitle="" songArtist="" songAlbum="" songCopyrightUrl="" songArtistUrl="" songAudioFileUrl="" stabilizationMode="0" mediaItemType="2" />
    <MediaItem id="1258" filePath="F:\Art_and_Design\HolidayAnimation2015\Jars+Kitchen+Logos\HolidayAnimation2015\Renders\1264.png" arWidth="960" arHeight="540" duration="0" songTitle="" songArtist="" songAlbum="" songCopyrightUrl="" songArtistUrl="" songAudioFileUrl="" stabilizationMode="0" mediaItemType="2" />
    <MediaItem id="1259" filePath="F:\Art_and_Design\HolidayAnimation2015\Jars+Kitchen+Logos\HolidayAnimation2015\Renders\1265.png" arWidth="960" arHeight="540" duration="0" songTitle="" songArtist="" songAlbum="" songCopyrightUrl="" songArtistUrl="" songAudioFileUrl="" stabilizationMode="0" mediaItemType="2" />
    <MediaItem id="1260" filePath="F:\Art_and_Design\HolidayAnimation2015\Jars+Kitchen+Logos\HolidayAnimation2015\Renders\1266.png" arWidth="960" arHeight="540" duration="0" songTitle="" songArtist="" songAlbum="" songCopyrightUrl="" songArtistUrl="" songAudioFileUrl="" stabilizationMode="0" mediaItemType="2" />
    <MediaItem id="1261" filePath="F:\Art_and_Design\HolidayAnimation2015\Jars+Kitchen+Logos\HolidayAnimation2015\Renders\1267.png" arWidth="960" arHeight="540" duration="0" songTitle="" songArtist="" songAlbum="" songCopyrightUrl="" songArtistUrl="" songAudioFileUrl="" stabilizationMode="0" mediaItemType="2" />
    <MediaItem id="1262" filePath="F:\Art_and_Design\HolidayAnimation2015\Jars+Kitchen+Logos\HolidayAnimation2015\Renders\1268.png" arWidth="960" arHeight="540" duration="0" songTitle="" songArtist="" songAlbum="" songCopyrightUrl="" songArtistUrl="" songAudioFileUrl="" stabilizationMode="0" mediaItemType="2" />
    <MediaItem id="1263" filePath="F:\Art_and_Design\HolidayAnimation2015\Jars+Kitchen+Logos\HolidayAnimation2015\Renders\1269.png" arWidth="960" arHeight="540" duration="0" songTitle="" songArtist="" songAlbum="" songCopyrightUrl="" songArtistUrl="" songAudioFileUrl="" stabilizationMode="0" mediaItemType="2" />
    <MediaItem id="1264" filePath="F:\Art_and_Design\HolidayAnimation2015\Jars+Kitchen+Logos\HolidayAnimation2015\Renders\1270.png" arWidth="960" arHeight="540" duration="0" songTitle="" songArtist="" songAlbum="" songCopyrightUrl="" songArtistUrl="" songAudioFileUrl="" stabilizationMode="0" mediaItemType="2" />
    <MediaItem id="1265" filePath="F:\Art_and_Design\HolidayAnimation2015\Jars+Kitchen+Logos\HolidayAnimation2015\Renders\1271.png" arWidth="960" arHeight="540" duration="0" songTitle="" songArtist="" songAlbum="" songCopyrightUrl="" songArtistUrl="" songAudioFileUrl="" stabilizationMode="0" mediaItemType="2" />
    <MediaItem id="1266" filePath="F:\Art_and_Design\HolidayAnimation2015\Jars+Kitchen+Logos\HolidayAnimation2015\Renders\1272.png" arWidth="960" arHeight="540" duration="0" songTitle="" songArtist="" songAlbum="" songCopyrightUrl="" songArtistUrl="" songAudioFileUrl="" stabilizationMode="0" mediaItemType="2" />
    <MediaItem id="1267" filePath="F:\Art_and_Design\HolidayAnimation2015\Jars+Kitchen+Logos\HolidayAnimation2015\Renders\1273.png" arWidth="960" arHeight="540" duration="0" songTitle="" songArtist="" songAlbum="" songCopyrightUrl="" songArtistUrl="" songAudioFileUrl="" stabilizationMode="0" mediaItemType="2" />
    <MediaItem id="1268" filePath="F:\Art_and_Design\HolidayAnimation2015\Jars+Kitchen+Logos\HolidayAnimation2015\Renders\1274.png" arWidth="960" arHeight="540" duration="0" songTitle="" songArtist="" songAlbum="" songCopyrightUrl="" songArtistUrl="" songAudioFileUrl="" stabilizationMode="0" mediaItemType="2" />
    <MediaItem id="1269" filePath="F:\Art_and_Design\HolidayAnimation2015\Jars+Kitchen+Logos\HolidayAnimation2015\Renders\1275.png" arWidth="960" arHeight="540" duration="0" songTitle="" songArtist="" songAlbum="" songCopyrightUrl="" songArtistUrl="" songAudioFileUrl="" stabilizationMode="0" mediaItemType="2" />
    <MediaItem id="1270" filePath="F:\Art_and_Design\HolidayAnimation2015\Jars+Kitchen+Logos\HolidayAnimation2015\Renders\1276.png" arWidth="960" arHeight="540" duration="0" songTitle="" songArtist="" songAlbum="" songCopyrightUrl="" songArtistUrl="" songAudioFileUrl="" stabilizationMode="0" mediaItemType="2" />
    <MediaItem id="1271" filePath="F:\Art_and_Design\HolidayAnimation2015\Jars+Kitchen+Logos\HolidayAnimation2015\Renders\1277.png" arWidth="960" arHeight="540" duration="0" songTitle="" songArtist="" songAlbum="" songCopyrightUrl="" songArtistUrl="" songAudioFileUrl="" stabilizationMode="0" mediaItemType="2" />
    <MediaItem id="1272" filePath="F:\Art_and_Design\HolidayAnimation2015\Jars+Kitchen+Logos\HolidayAnimation2015\Renders\1278.png" arWidth="960" arHeight="540" duration="0" songTitle="" songArtist="" songAlbum="" songCopyrightUrl="" songArtistUrl="" songAudioFileUrl="" stabilizationMode="0" mediaItemType="2" />
    <MediaItem id="1273" filePath="F:\Art_and_Design\HolidayAnimation2015\Jars+Kitchen+Logos\HolidayAnimation2015\Renders\1279.png" arWidth="960" arHeight="540" duration="0" songTitle="" songArtist="" songAlbum="" songCopyrightUrl="" songArtistUrl="" songAudioFileUrl="" stabilizationMode="0" mediaItemType="2" />
    <MediaItem id="1274" filePath="F:\Art_and_Design\HolidayAnimation2015\Jars+Kitchen+Logos\HolidayAnimation2015\Renders\1280.png" arWidth="960" arHeight="540" duration="0" songTitle="" songArtist="" songAlbum="" songCopyrightUrl="" songArtistUrl="" songAudioFileUrl="" stabilizationMode="0" mediaItemType="2" />
    <MediaItem id="1275" filePath="F:\Art_and_Design\HolidayAnimation2015\Jars+Kitchen+Logos\HolidayAnimation2015\Renders\1281.png" arWidth="960" arHeight="540" duration="0" songTitle="" songArtist="" songAlbum="" songCopyrightUrl="" songArtistUrl="" songAudioFileUrl="" stabilizationMode="0" mediaItemType="2" />
    <MediaItem id="1276" filePath="F:\Art_and_Design\HolidayAnimation2015\Jars+Kitchen+Logos\HolidayAnimation2015\Renders\1282.png" arWidth="960" arHeight="540" duration="0" songTitle="" songArtist="" songAlbum="" songCopyrightUrl="" songArtistUrl="" songAudioFileUrl="" stabilizationMode="0" mediaItemType="2" />
    <MediaItem id="1277" filePath="F:\Art_and_Design\HolidayAnimation2015\Jars+Kitchen+Logos\HolidayAnimation2015\Renders\1283.png" arWidth="960" arHeight="540" duration="0" songTitle="" songArtist="" songAlbum="" songCopyrightUrl="" songArtistUrl="" songAudioFileUrl="" stabilizationMode="0" mediaItemType="2" />
    <MediaItem id="1278" filePath="F:\Art_and_Design\HolidayAnimation2015\Jars+Kitchen+Logos\HolidayAnimation2015\Renders\1284.png" arWidth="960" arHeight="540" duration="0" songTitle="" songArtist="" songAlbum="" songCopyrightUrl="" songArtistUrl="" songAudioFileUrl="" stabilizationMode="0" mediaItemType="2" />
    <MediaItem id="1279" filePath="F:\Art_and_Design\HolidayAnimation2015\Jars+Kitchen+Logos\HolidayAnimation2015\Renders\1285.png" arWidth="960" arHeight="540" duration="0" songTitle="" songArtist="" songAlbum="" songCopyrightUrl="" songArtistUrl="" songAudioFileUrl="" stabilizationMode="0" mediaItemType="2" />
    <MediaItem id="1280" filePath="F:\Art_and_Design\HolidayAnimation2015\Jars+Kitchen+Logos\HolidayAnimation2015\Renders\1286.png" arWidth="960" arHeight="540" duration="0" songTitle="" songArtist="" songAlbum="" songCopyrightUrl="" songArtistUrl="" songAudioFileUrl="" stabilizationMode="0" mediaItemType="2" />
    <MediaItem id="1281" filePath="F:\Art_and_Design\HolidayAnimation2015\Jars+Kitchen+Logos\HolidayAnimation2015\Renders\1287.png" arWidth="960" arHeight="540" duration="0" songTitle="" songArtist="" songAlbum="" songCopyrightUrl="" songArtistUrl="" songAudioFileUrl="" stabilizationMode="0" mediaItemType="2" />
    <MediaItem id="1282" filePath="F:\Art_and_Design\HolidayAnimation2015\Jars+Kitchen+Logos\HolidayAnimation2015\Renders\1288.png" arWidth="960" arHeight="540" duration="0" songTitle="" songArtist="" songAlbum="" songCopyrightUrl="" songArtistUrl="" songAudioFileUrl="" stabilizationMode="0" mediaItemType="2" />
    <MediaItem id="1283" filePath="F:\Art_and_Design\HolidayAnimation2015\Jars+Kitchen+Logos\HolidayAnimation2015\Renders\1289.png" arWidth="960" arHeight="540" duration="0" songTitle="" songArtist="" songAlbum="" songCopyrightUrl="" songArtistUrl="" songAudioFileUrl="" stabilizationMode="0" mediaItemType="2" />
    <MediaItem id="1284" filePath="F:\Art_and_Design\HolidayAnimation2015\Jars+Kitchen+Logos\HolidayAnimation2015\Renders\1290.png" arWidth="960" arHeight="540" duration="0" songTitle="" songArtist="" songAlbum="" songCopyrightUrl="" songArtistUrl="" songAudioFileUrl="" stabilizationMode="0" mediaItemType="2" />
    <MediaItem id="1285" filePath="F:\Art_and_Design\HolidayAnimation2015\Jars+Kitchen+Logos\HolidayAnimation2015\Renders\1291.png" arWidth="960" arHeight="540" duration="0" songTitle="" songArtist="" songAlbum="" songCopyrightUrl="" songArtistUrl="" songAudioFileUrl="" stabilizationMode="0" mediaItemType="2" />
    <MediaItem id="1286" filePath="F:\Art_and_Design\HolidayAnimation2015\Jars+Kitchen+Logos\HolidayAnimation2015\Renders\1292.png" arWidth="960" arHeight="540" duration="0" songTitle="" songArtist="" songAlbum="" songCopyrightUrl="" songArtistUrl="" songAudioFileUrl="" stabilizationMode="0" mediaItemType="2" />
    <MediaItem id="1287" filePath="F:\Art_and_Design\HolidayAnimation2015\Jars+Kitchen+Logos\HolidayAnimation2015\Renders\1293.png" arWidth="960" arHeight="540" duration="0" songTitle="" songArtist="" songAlbum="" songCopyrightUrl="" songArtistUrl="" songAudioFileUrl="" stabilizationMode="0" mediaItemType="2" />
    <MediaItem id="1288" filePath="F:\Art_and_Design\HolidayAnimation2015\Jars+Kitchen+Logos\HolidayAnimation2015\Renders\1294.png" arWidth="960" arHeight="540" duration="0" songTitle="" songArtist="" songAlbum="" songCopyrightUrl="" songArtistUrl="" songAudioFileUrl="" stabilizationMode="0" mediaItemType="2" />
    <MediaItem id="1289" filePath="F:\Art_and_Design\HolidayAnimation2015\Jars+Kitchen+Logos\HolidayAnimation2015\Renders\1295.png" arWidth="960" arHeight="540" duration="0" songTitle="" songArtist="" songAlbum="" songCopyrightUrl="" songArtistUrl="" songAudioFileUrl="" stabilizationMode="0" mediaItemType="2" />
    <MediaItem id="1290" filePath="F:\Art_and_Design\HolidayAnimation2015\Jars+Kitchen+Logos\HolidayAnimation2015\Renders\1296.png" arWidth="960" arHeight="540" duration="0" songTitle="" songArtist="" songAlbum="" songCopyrightUrl="" songArtistUrl="" songAudioFileUrl="" stabilizationMode="0" mediaItemType="2" />
    <MediaItem id="1291" filePath="F:\Art_and_Design\HolidayAnimation2015\Jars+Kitchen+Logos\HolidayAnimation2015\Renders\1297.png" arWidth="960" arHeight="540" duration="0" songTitle="" songArtist="" songAlbum="" songCopyrightUrl="" songArtistUrl="" songAudioFileUrl="" stabilizationMode="0" mediaItemType="2" />
    <MediaItem id="1292" filePath="F:\Art_and_Design\HolidayAnimation2015\Jars+Kitchen+Logos\HolidayAnimation2015\Renders\1298.png" arWidth="960" arHeight="540" duration="0" songTitle="" songArtist="" songAlbum="" songCopyrightUrl="" songArtistUrl="" songAudioFileUrl="" stabilizationMode="0" mediaItemType="2" />
    <MediaItem id="1293" filePath="F:\Art_and_Design\HolidayAnimation2015\Jars+Kitchen+Logos\HolidayAnimation2015\Renders\1299.png" arWidth="960" arHeight="540" duration="0" songTitle="" songArtist="" songAlbum="" songCopyrightUrl="" songArtistUrl="" songAudioFileUrl="" stabilizationMode="0" mediaItemType="2" />
    <MediaItem id="1294" filePath="F:\Art_and_Design\HolidayAnimation2015\Jars+Kitchen+Logos\HolidayAnimation2015\Renders\1300.png" arWidth="960" arHeight="540" duration="0" songTitle="" songArtist="" songAlbum="" songCopyrightUrl="" songArtistUrl="" songAudioFileUrl="" stabilizationMode="0" mediaItemType="2" />
    <MediaItem id="1295" filePath="F:\Art_and_Design\HolidayAnimation2015\Jars+Kitchen+Logos\HolidayAnimation2015\Renders\1301.png" arWidth="960" arHeight="540" duration="0" songTitle="" songArtist="" songAlbum="" songCopyrightUrl="" songArtistUrl="" songAudioFileUrl="" stabilizationMode="0" mediaItemType="2" />
    <MediaItem id="1296" filePath="F:\Art_and_Design\HolidayAnimation2015\Jars+Kitchen+Logos\HolidayAnimation2015\Renders\1302.png" arWidth="960" arHeight="540" duration="0" songTitle="" songArtist="" songAlbum="" songCopyrightUrl="" songArtistUrl="" songAudioFileUrl="" stabilizationMode="0" mediaItemType="2" />
    <MediaItem id="1297" filePath="F:\Art_and_Design\HolidayAnimation2015\Jars+Kitchen+Logos\HolidayAnimation2015\Renders\1303.png" arWidth="960" arHeight="540" duration="0" songTitle="" songArtist="" songAlbum="" songCopyrightUrl="" songArtistUrl="" songAudioFileUrl="" stabilizationMode="0" mediaItemType="2" />
    <MediaItem id="1298" filePath="F:\Art_and_Design\HolidayAnimation2015\Jars+Kitchen+Logos\HolidayAnimation2015\Renders\1304.png" arWidth="960" arHeight="540" duration="0" songTitle="" songArtist="" songAlbum="" songCopyrightUrl="" songArtistUrl="" songAudioFileUrl="" stabilizationMode="0" mediaItemType="2" />
    <MediaItem id="1299" filePath="F:\Art_and_Design\HolidayAnimation2015\Jars+Kitchen+Logos\HolidayAnimation2015\Renders\1305.png" arWidth="960" arHeight="540" duration="0" songTitle="" songArtist="" songAlbum="" songCopyrightUrl="" songArtistUrl="" songAudioFileUrl="" stabilizationMode="0" mediaItemType="2" />
    <MediaItem id="1300" filePath="F:\Art_and_Design\HolidayAnimation2015\Jars+Kitchen+Logos\HolidayAnimation2015\Renders\1306.png" arWidth="960" arHeight="540" duration="0" songTitle="" songArtist="" songAlbum="" songCopyrightUrl="" songArtistUrl="" songAudioFileUrl="" stabilizationMode="0" mediaItemType="2" />
    <MediaItem id="1301" filePath="F:\Art_and_Design\HolidayAnimation2015\Jars+Kitchen+Logos\HolidayAnimation2015\Renders\1307.png" arWidth="960" arHeight="540" duration="0" songTitle="" songArtist="" songAlbum="" songCopyrightUrl="" songArtistUrl="" songAudioFileUrl="" stabilizationMode="0" mediaItemType="2" />
    <MediaItem id="1302" filePath="F:\Art_and_Design\HolidayAnimation2015\Jars+Kitchen+Logos\HolidayAnimation2015\Renders\1308.png" arWidth="960" arHeight="540" duration="0" songTitle="" songArtist="" songAlbum="" songCopyrightUrl="" songArtistUrl="" songAudioFileUrl="" stabilizationMode="0" mediaItemType="2" />
    <MediaItem id="1303" filePath="F:\Art_and_Design\HolidayAnimation2015\Jars+Kitchen+Logos\HolidayAnimation2015\Renders\1309.png" arWidth="960" arHeight="540" duration="0" songTitle="" songArtist="" songAlbum="" songCopyrightUrl="" songArtistUrl="" songAudioFileUrl="" stabilizationMode="0" mediaItemType="2" />
    <MediaItem id="1304" filePath="F:\Art_and_Design\HolidayAnimation2015\Jars+Kitchen+Logos\HolidayAnimation2015\Renders\1310.png" arWidth="960" arHeight="540" duration="0" songTitle="" songArtist="" songAlbum="" songCopyrightUrl="" songArtistUrl="" songAudioFileUrl="" stabilizationMode="0" mediaItemType="2" />
    <MediaItem id="1305" filePath="F:\Art_and_Design\HolidayAnimation2015\Jars+Kitchen+Logos\HolidayAnimation2015\Renders\1311.png" arWidth="960" arHeight="540" duration="0" songTitle="" songArtist="" songAlbum="" songCopyrightUrl="" songArtistUrl="" songAudioFileUrl="" stabilizationMode="0" mediaItemType="2" />
    <MediaItem id="1306" filePath="F:\Art_and_Design\HolidayAnimation2015\Jars+Kitchen+Logos\HolidayAnimation2015\Renders\1312.png" arWidth="960" arHeight="540" duration="0" songTitle="" songArtist="" songAlbum="" songCopyrightUrl="" songArtistUrl="" songAudioFileUrl="" stabilizationMode="0" mediaItemType="2" />
    <MediaItem id="1307" filePath="F:\Art_and_Design\HolidayAnimation2015\Jars+Kitchen+Logos\HolidayAnimation2015\Renders\1313.png" arWidth="960" arHeight="540" duration="0" songTitle="" songArtist="" songAlbum="" songCopyrightUrl="" songArtistUrl="" songAudioFileUrl="" stabilizationMode="0" mediaItemType="2" />
    <MediaItem id="1308" filePath="F:\Art_and_Design\HolidayAnimation2015\Jars+Kitchen+Logos\HolidayAnimation2015\Renders\1314.png" arWidth="960" arHeight="540" duration="0" songTitle="" songArtist="" songAlbum="" songCopyrightUrl="" songArtistUrl="" songAudioFileUrl="" stabilizationMode="0" mediaItemType="2" />
    <MediaItem id="1309" filePath="F:\Art_and_Design\HolidayAnimation2015\Jars+Kitchen+Logos\HolidayAnimation2015\Renders\1315.png" arWidth="960" arHeight="540" duration="0" songTitle="" songArtist="" songAlbum="" songCopyrightUrl="" songArtistUrl="" songAudioFileUrl="" stabilizationMode="0" mediaItemType="2" />
    <MediaItem id="1310" filePath="F:\Art_and_Design\HolidayAnimation2015\Jars+Kitchen+Logos\HolidayAnimation2015\Renders\1316.png" arWidth="960" arHeight="540" duration="0" songTitle="" songArtist="" songAlbum="" songCopyrightUrl="" songArtistUrl="" songAudioFileUrl="" stabilizationMode="0" mediaItemType="2" />
    <MediaItem id="1311" filePath="F:\Art_and_Design\HolidayAnimation2015\Jars+Kitchen+Logos\HolidayAnimation2015\Renders\1317.png" arWidth="960" arHeight="540" duration="0" songTitle="" songArtist="" songAlbum="" songCopyrightUrl="" songArtistUrl="" songAudioFileUrl="" stabilizationMode="0" mediaItemType="2" />
    <MediaItem id="1312" filePath="F:\Art_and_Design\HolidayAnimation2015\Jars+Kitchen+Logos\HolidayAnimation2015\Renders\1318.png" arWidth="960" arHeight="540" duration="0" songTitle="" songArtist="" songAlbum="" songCopyrightUrl="" songArtistUrl="" songAudioFileUrl="" stabilizationMode="0" mediaItemType="2" />
    <MediaItem id="1313" filePath="F:\Art_and_Design\HolidayAnimation2015\Jars+Kitchen+Logos\HolidayAnimation2015\Renders\1319.png" arWidth="960" arHeight="540" duration="0" songTitle="" songArtist="" songAlbum="" songCopyrightUrl="" songArtistUrl="" songAudioFileUrl="" stabilizationMode="0" mediaItemType="2" />
    <MediaItem id="1314" filePath="F:\Art_and_Design\HolidayAnimation2015\Jars+Kitchen+Logos\HolidayAnimation2015\Renders\1320.png" arWidth="960" arHeight="540" duration="0" songTitle="" songArtist="" songAlbum="" songCopyrightUrl="" songArtistUrl="" songAudioFileUrl="" stabilizationMode="0" mediaItemType="2" />
    <MediaItem id="1315" filePath="F:\Art_and_Design\HolidayAnimation2015\Jars+Kitchen+Logos\HolidayAnimation2015\Renders\1321.png" arWidth="960" arHeight="540" duration="0" songTitle="" songArtist="" songAlbum="" songCopyrightUrl="" songArtistUrl="" songAudioFileUrl="" stabilizationMode="0" mediaItemType="2" />
    <MediaItem id="1316" filePath="F:\Art_and_Design\HolidayAnimation2015\Jars+Kitchen+Logos\HolidayAnimation2015\Renders\1322.png" arWidth="960" arHeight="540" duration="0" songTitle="" songArtist="" songAlbum="" songCopyrightUrl="" songArtistUrl="" songAudioFileUrl="" stabilizationMode="0" mediaItemType="2" />
    <MediaItem id="1317" filePath="F:\Art_and_Design\HolidayAnimation2015\Jars+Kitchen+Logos\HolidayAnimation2015\Renders\1323.png" arWidth="960" arHeight="540" duration="0" songTitle="" songArtist="" songAlbum="" songCopyrightUrl="" songArtistUrl="" songAudioFileUrl="" stabilizationMode="0" mediaItemType="2" />
    <MediaItem id="1318" filePath="F:\Art_and_Design\HolidayAnimation2015\Jars+Kitchen+Logos\HolidayAnimation2015\Renders\1324.png" arWidth="960" arHeight="540" duration="0" songTitle="" songArtist="" songAlbum="" songCopyrightUrl="" songArtistUrl="" songAudioFileUrl="" stabilizationMode="0" mediaItemType="2" />
    <MediaItem id="1319" filePath="F:\Art_and_Design\HolidayAnimation2015\Jars+Kitchen+Logos\HolidayAnimation2015\Renders\1325.png" arWidth="960" arHeight="540" duration="0" songTitle="" songArtist="" songAlbum="" songCopyrightUrl="" songArtistUrl="" songAudioFileUrl="" stabilizationMode="0" mediaItemType="2" />
    <MediaItem id="1320" filePath="F:\Art_and_Design\HolidayAnimation2015\Jars+Kitchen+Logos\HolidayAnimation2015\Renders\1326.png" arWidth="960" arHeight="540" duration="0" songTitle="" songArtist="" songAlbum="" songCopyrightUrl="" songArtistUrl="" songAudioFileUrl="" stabilizationMode="0" mediaItemType="2" />
    <MediaItem id="1321" filePath="F:\Art_and_Design\HolidayAnimation2015\Jars+Kitchen+Logos\HolidayAnimation2015\Renders\1327.png" arWidth="960" arHeight="540" duration="0" songTitle="" songArtist="" songAlbum="" songCopyrightUrl="" songArtistUrl="" songAudioFileUrl="" stabilizationMode="0" mediaItemType="2" />
    <MediaItem id="1322" filePath="F:\Art_and_Design\HolidayAnimation2015\Jars+Kitchen+Logos\HolidayAnimation2015\Renders\1328.png" arWidth="960" arHeight="540" duration="0" songTitle="" songArtist="" songAlbum="" songCopyrightUrl="" songArtistUrl="" songAudioFileUrl="" stabilizationMode="0" mediaItemType="2" />
    <MediaItem id="1323" filePath="F:\Art_and_Design\HolidayAnimation2015\Jars+Kitchen+Logos\HolidayAnimation2015\Renders\1329.png" arWidth="960" arHeight="540" duration="0" songTitle="" songArtist="" songAlbum="" songCopyrightUrl="" songArtistUrl="" songAudioFileUrl="" stabilizationMode="0" mediaItemType="2" />
    <MediaItem id="1324" filePath="F:\Art_and_Design\HolidayAnimation2015\Jars+Kitchen+Logos\HolidayAnimation2015\Renders\1330.png" arWidth="960" arHeight="540" duration="0" songTitle="" songArtist="" songAlbum="" songCopyrightUrl="" songArtistUrl="" songAudioFileUrl="" stabilizationMode="0" mediaItemType="2" />
    <MediaItem id="1325" filePath="F:\Art_and_Design\HolidayAnimation2015\Jars+Kitchen+Logos\HolidayAnimation2015\Renders\1331.png" arWidth="960" arHeight="540" duration="0" songTitle="" songArtist="" songAlbum="" songCopyrightUrl="" songArtistUrl="" songAudioFileUrl="" stabilizationMode="0" mediaItemType="2" />
    <MediaItem id="1326" filePath="F:\Art_and_Design\HolidayAnimation2015\Jars+Kitchen+Logos\HolidayAnimation2015\Renders\1332.png" arWidth="960" arHeight="540" duration="0" songTitle="" songArtist="" songAlbum="" songCopyrightUrl="" songArtistUrl="" songAudioFileUrl="" stabilizationMode="0" mediaItemType="2" />
    <MediaItem id="1327" filePath="F:\Art_and_Design\HolidayAnimation2015\Jars+Kitchen+Logos\HolidayAnimation2015\Renders\1333.png" arWidth="960" arHeight="540" duration="0" songTitle="" songArtist="" songAlbum="" songCopyrightUrl="" songArtistUrl="" songAudioFileUrl="" stabilizationMode="0" mediaItemType="2" />
    <MediaItem id="1328" filePath="F:\Art_and_Design\HolidayAnimation2015\Jars+Kitchen+Logos\HolidayAnimation2015\Renders\1334.png" arWidth="960" arHeight="540" duration="0" songTitle="" songArtist="" songAlbum="" songCopyrightUrl="" songArtistUrl="" songAudioFileUrl="" stabilizationMode="0" mediaItemType="2" />
    <MediaItem id="1329" filePath="F:\Art_and_Design\HolidayAnimation2015\Jars+Kitchen+Logos\HolidayAnimation2015\Renders\1335.png" arWidth="960" arHeight="540" duration="0" songTitle="" songArtist="" songAlbum="" songCopyrightUrl="" songArtistUrl="" songAudioFileUrl="" stabilizationMode="0" mediaItemType="2" />
    <MediaItem id="1330" filePath="F:\Art_and_Design\HolidayAnimation2015\Jars+Kitchen+Logos\HolidayAnimation2015\Renders\1336.png" arWidth="960" arHeight="540" duration="0" songTitle="" songArtist="" songAlbum="" songCopyrightUrl="" songArtistUrl="" songAudioFileUrl="" stabilizationMode="0" mediaItemType="2" />
    <MediaItem id="1331" filePath="F:\Art_and_Design\HolidayAnimation2015\Jars+Kitchen+Logos\HolidayAnimation2015\Renders\1337.png" arWidth="960" arHeight="540" duration="0" songTitle="" songArtist="" songAlbum="" songCopyrightUrl="" songArtistUrl="" songAudioFileUrl="" stabilizationMode="0" mediaItemType="2" />
    <MediaItem id="1332" filePath="F:\Art_and_Design\HolidayAnimation2015\Jars+Kitchen+Logos\HolidayAnimation2015\Renders\1338.png" arWidth="960" arHeight="540" duration="0" songTitle="" songArtist="" songAlbum="" songCopyrightUrl="" songArtistUrl="" songAudioFileUrl="" stabilizationMode="0" mediaItemType="2" />
    <MediaItem id="1333" filePath="F:\Art_and_Design\HolidayAnimation2015\Jars+Kitchen+Logos\HolidayAnimation2015\Renders\1339.png" arWidth="960" arHeight="540" duration="0" songTitle="" songArtist="" songAlbum="" songCopyrightUrl="" songArtistUrl="" songAudioFileUrl="" stabilizationMode="0" mediaItemType="2" />
    <MediaItem id="1334" filePath="F:\Art_and_Design\HolidayAnimation2015\Jars+Kitchen+Logos\HolidayAnimation2015\Renders\1340.png" arWidth="960" arHeight="540" duration="0" songTitle="" songArtist="" songAlbum="" songCopyrightUrl="" songArtistUrl="" songAudioFileUrl="" stabilizationMode="0" mediaItemType="2" />
    <MediaItem id="1335" filePath="F:\Art_and_Design\HolidayAnimation2015\Jars+Kitchen+Logos\HolidayAnimation2015\Renders\1341.png" arWidth="960" arHeight="540" duration="0" songTitle="" songArtist="" songAlbum="" songCopyrightUrl="" songArtistUrl="" songAudioFileUrl="" stabilizationMode="0" mediaItemType="2" />
    <MediaItem id="1345" filePath="F:\Art_and_Design\HolidayAnimation2015\Jars+Kitchen+Logos\HolidayAnimation2015\Renders\1342.png" arWidth="960" arHeight="540" duration="0" songTitle="" songArtist="" songAlbum="" songCopyrightUrl="" songArtistUrl="" songAudioFileUrl="" stabilizationMode="0" mediaItemType="2" />
    <MediaItem id="1347" filePath="F:\Art_and_Design\HolidayAnimation2015\Jars+Kitchen+Logos\HolidayAnimation2015\Renders\1344.png" arWidth="960" arHeight="540" duration="0" songTitle="" songArtist="" songAlbum="" songCopyrightUrl="" songArtistUrl="" songAudioFileUrl="" stabilizationMode="0" mediaItemType="2" />
    <MediaItem id="1348" filePath="F:\Art_and_Design\HolidayAnimation2015\Jars+Kitchen+Logos\HolidayAnimation2015\Renders\1345.png" arWidth="960" arHeight="540" duration="0" songTitle="" songArtist="" songAlbum="" songCopyrightUrl="" songArtistUrl="" songAudioFileUrl="" stabilizationMode="0" mediaItemType="2" />
    <MediaItem id="1349" filePath="F:\Art_and_Design\HolidayAnimation2015\Jars+Kitchen+Logos\HolidayAnimation2015\Renders\1346.png" arWidth="960" arHeight="540" duration="0" songTitle="" songArtist="" songAlbum="" songCopyrightUrl="" songArtistUrl="" songAudioFileUrl="" stabilizationMode="0" mediaItemType="2" />
    <MediaItem id="1350" filePath="F:\Art_and_Design\HolidayAnimation2015\Jars+Kitchen+Logos\HolidayAnimation2015\Renders\1347.png" arWidth="960" arHeight="540" duration="0" songTitle="" songArtist="" songAlbum="" songCopyrightUrl="" songArtistUrl="" songAudioFileUrl="" stabilizationMode="0" mediaItemType="2" />
    <MediaItem id="1351" filePath="F:\Art_and_Design\HolidayAnimation2015\Jars+Kitchen+Logos\HolidayAnimation2015\Renders\1348.png" arWidth="960" arHeight="540" duration="0" songTitle="" songArtist="" songAlbum="" songCopyrightUrl="" songArtistUrl="" songAudioFileUrl="" stabilizationMode="0" mediaItemType="2" />
    <MediaItem id="1352" filePath="F:\Art_and_Design\HolidayAnimation2015\Jars+Kitchen+Logos\HolidayAnimation2015\Renders\1349.png" arWidth="960" arHeight="540" duration="0" songTitle="" songArtist="" songAlbum="" songCopyrightUrl="" songArtistUrl="" songAudioFileUrl="" stabilizationMode="0" mediaItemType="2" />
    <MediaItem id="1353" filePath="F:\Art_and_Design\HolidayAnimation2015\Jars+Kitchen+Logos\HolidayAnimation2015\Renders\1350.png" arWidth="960" arHeight="540" duration="0" songTitle="" songArtist="" songAlbum="" songCopyrightUrl="" songArtistUrl="" songAudioFileUrl="" stabilizationMode="0" mediaItemType="2" />
    <MediaItem id="1354" filePath="F:\Art_and_Design\HolidayAnimation2015\Jars+Kitchen+Logos\HolidayAnimation2015\Renders\1351.png" arWidth="960" arHeight="540" duration="0" songTitle="" songArtist="" songAlbum="" songCopyrightUrl="" songArtistUrl="" songAudioFileUrl="" stabilizationMode="0" mediaItemType="2" />
    <MediaItem id="1355" filePath="F:\Art_and_Design\HolidayAnimation2015\Jars+Kitchen+Logos\HolidayAnimation2015\Renders\1352.png" arWidth="960" arHeight="540" duration="0" songTitle="" songArtist="" songAlbum="" songCopyrightUrl="" songArtistUrl="" songAudioFileUrl="" stabilizationMode="0" mediaItemType="2" />
    <MediaItem id="1356" filePath="F:\Art_and_Design\HolidayAnimation2015\Jars+Kitchen+Logos\HolidayAnimation2015\Renders\1353.png" arWidth="960" arHeight="540" duration="0" songTitle="" songArtist="" songAlbum="" songCopyrightUrl="" songArtistUrl="" songAudioFileUrl="" stabilizationMode="0" mediaItemType="2" />
    <MediaItem id="1357" filePath="F:\Art_and_Design\HolidayAnimation2015\Jars+Kitchen+Logos\HolidayAnimation2015\Renders\1354.png" arWidth="960" arHeight="540" duration="0" songTitle="" songArtist="" songAlbum="" songCopyrightUrl="" songArtistUrl="" songAudioFileUrl="" stabilizationMode="0" mediaItemType="2" />
    <MediaItem id="1358" filePath="F:\Art_and_Design\HolidayAnimation2015\Jars+Kitchen+Logos\HolidayAnimation2015\Renders\1355.png" arWidth="960" arHeight="540" duration="0" songTitle="" songArtist="" songAlbum="" songCopyrightUrl="" songArtistUrl="" songAudioFileUrl="" stabilizationMode="0" mediaItemType="2" />
    <MediaItem id="1359" filePath="F:\Art_and_Design\HolidayAnimation2015\Jars+Kitchen+Logos\HolidayAnimation2015\Renders\1356.png" arWidth="960" arHeight="540" duration="0" songTitle="" songArtist="" songAlbum="" songCopyrightUrl="" songArtistUrl="" songAudioFileUrl="" stabilizationMode="0" mediaItemType="2" />
    <MediaItem id="1360" filePath="F:\Art_and_Design\HolidayAnimation2015\Jars+Kitchen+Logos\HolidayAnimation2015\Renders\1357.png" arWidth="960" arHeight="540" duration="0" songTitle="" songArtist="" songAlbum="" songCopyrightUrl="" songArtistUrl="" songAudioFileUrl="" stabilizationMode="0" mediaItemType="2" />
    <MediaItem id="1361" filePath="F:\Art_and_Design\HolidayAnimation2015\Jars+Kitchen+Logos\HolidayAnimation2015\Renders\1358.png" arWidth="960" arHeight="540" duration="0" songTitle="" songArtist="" songAlbum="" songCopyrightUrl="" songArtistUrl="" songAudioFileUrl="" stabilizationMode="0" mediaItemType="2" />
    <MediaItem id="1362" filePath="F:\Art_and_Design\HolidayAnimation2015\Jars+Kitchen+Logos\HolidayAnimation2015\Renders\1359.png" arWidth="960" arHeight="540" duration="0" songTitle="" songArtist="" songAlbum="" songCopyrightUrl="" songArtistUrl="" songAudioFileUrl="" stabilizationMode="0" mediaItemType="2" />
    <MediaItem id="1363" filePath="F:\Art_and_Design\HolidayAnimation2015\Jars+Kitchen+Logos\HolidayAnimation2015\Renders\1360.png" arWidth="960" arHeight="540" duration="0" songTitle="" songArtist="" songAlbum="" songCopyrightUrl="" songArtistUrl="" songAudioFileUrl="" stabilizationMode="0" mediaItemType="2" />
    <MediaItem id="1364" filePath="F:\Art_and_Design\HolidayAnimation2015\Jars+Kitchen+Logos\HolidayAnimation2015\Renders\1361.png" arWidth="960" arHeight="540" duration="0" songTitle="" songArtist="" songAlbum="" songCopyrightUrl="" songArtistUrl="" songAudioFileUrl="" stabilizationMode="0" mediaItemType="2" />
    <MediaItem id="1365" filePath="F:\Art_and_Design\HolidayAnimation2015\Jars+Kitchen+Logos\HolidayAnimation2015\Renders\1362.png" arWidth="960" arHeight="540" duration="0" songTitle="" songArtist="" songAlbum="" songCopyrightUrl="" songArtistUrl="" songAudioFileUrl="" stabilizationMode="0" mediaItemType="2" />
    <MediaItem id="1366" filePath="F:\Art_and_Design\HolidayAnimation2015\Jars+Kitchen+Logos\HolidayAnimation2015\Renders\1363.png" arWidth="960" arHeight="540" duration="0" songTitle="" songArtist="" songAlbum="" songCopyrightUrl="" songArtistUrl="" songAudioFileUrl="" stabilizationMode="0" mediaItemType="2" />
    <MediaItem id="1367" filePath="F:\Art_and_Design\HolidayAnimation2015\Jars+Kitchen+Logos\HolidayAnimation2015\Renders\1364.png" arWidth="960" arHeight="540" duration="0" songTitle="" songArtist="" songAlbum="" songCopyrightUrl="" songArtistUrl="" songAudioFileUrl="" stabilizationMode="0" mediaItemType="2" />
    <MediaItem id="1368" filePath="F:\Art_and_Design\HolidayAnimation2015\Jars+Kitchen+Logos\HolidayAnimation2015\Renders\1365.png" arWidth="960" arHeight="540" duration="0" songTitle="" songArtist="" songAlbum="" songCopyrightUrl="" songArtistUrl="" songAudioFileUrl="" stabilizationMode="0" mediaItemType="2" />
    <MediaItem id="1369" filePath="F:\Art_and_Design\HolidayAnimation2015\Jars+Kitchen+Logos\HolidayAnimation2015\Renders\1366.png" arWidth="960" arHeight="540" duration="0" songTitle="" songArtist="" songAlbum="" songCopyrightUrl="" songArtistUrl="" songAudioFileUrl="" stabilizationMode="0" mediaItemType="2" />
    <MediaItem id="1370" filePath="F:\Art_and_Design\HolidayAnimation2015\Jars+Kitchen+Logos\HolidayAnimation2015\Renders\1367.png" arWidth="960" arHeight="540" duration="0" songTitle="" songArtist="" songAlbum="" songCopyrightUrl="" songArtistUrl="" songAudioFileUrl="" stabilizationMode="0" mediaItemType="2" />
    <MediaItem id="1371" filePath="F:\Art_and_Design\HolidayAnimation2015\Jars+Kitchen+Logos\HolidayAnimation2015\Renders\1368.png" arWidth="960" arHeight="540" duration="0" songTitle="" songArtist="" songAlbum="" songCopyrightUrl="" songArtistUrl="" songAudioFileUrl="" stabilizationMode="0" mediaItemType="2" />
    <MediaItem id="1372" filePath="F:\Art_and_Design\HolidayAnimation2015\Jars+Kitchen+Logos\HolidayAnimation2015\Renders\1369.png" arWidth="960" arHeight="540" duration="0" songTitle="" songArtist="" songAlbum="" songCopyrightUrl="" songArtistUrl="" songAudioFileUrl="" stabilizationMode="0" mediaItemType="2" />
    <MediaItem id="1373" filePath="F:\Art_and_Design\HolidayAnimation2015\Jars+Kitchen+Logos\HolidayAnimation2015\Renders\1370.png" arWidth="960" arHeight="540" duration="0" songTitle="" songArtist="" songAlbum="" songCopyrightUrl="" songArtistUrl="" songAudioFileUrl="" stabilizationMode="0" mediaItemType="2" />
    <MediaItem id="1374" filePath="F:\Art_and_Design\HolidayAnimation2015\Jars+Kitchen+Logos\HolidayAnimation2015\Renders\1371.png" arWidth="960" arHeight="540" duration="0" songTitle="" songArtist="" songAlbum="" songCopyrightUrl="" songArtistUrl="" songAudioFileUrl="" stabilizationMode="0" mediaItemType="2" />
    <MediaItem id="1375" filePath="F:\Art_and_Design\HolidayAnimation2015\Jars+Kitchen+Logos\HolidayAnimation2015\Renders\1372.png" arWidth="960" arHeight="540" duration="0" songTitle="" songArtist="" songAlbum="" songCopyrightUrl="" songArtistUrl="" songAudioFileUrl="" stabilizationMode="0" mediaItemType="2" />
    <MediaItem id="1376" filePath="F:\Art_and_Design\HolidayAnimation2015\Jars+Kitchen+Logos\HolidayAnimation2015\Renders\1373.png" arWidth="960" arHeight="540" duration="0" songTitle="" songArtist="" songAlbum="" songCopyrightUrl="" songArtistUrl="" songAudioFileUrl="" stabilizationMode="0" mediaItemType="2" />
    <MediaItem id="1377" filePath="F:\Art_and_Design\HolidayAnimation2015\Jars+Kitchen+Logos\HolidayAnimation2015\Renders\1374.png" arWidth="960" arHeight="540" duration="0" songTitle="" songArtist="" songAlbum="" songCopyrightUrl="" songArtistUrl="" songAudioFileUrl="" stabilizationMode="0" mediaItemType="2" />
    <MediaItem id="1378" filePath="F:\Art_and_Design\HolidayAnimation2015\Jars+Kitchen+Logos\HolidayAnimation2015\Renders\1375.png" arWidth="960" arHeight="540" duration="0" songTitle="" songArtist="" songAlbum="" songCopyrightUrl="" songArtistUrl="" songAudioFileUrl="" stabilizationMode="0" mediaItemType="2" />
    <MediaItem id="1379" filePath="F:\Art_and_Design\HolidayAnimation2015\Jars+Kitchen+Logos\HolidayAnimation2015\Renders\1376.png" arWidth="960" arHeight="540" duration="0" songTitle="" songArtist="" songAlbum="" songCopyrightUrl="" songArtistUrl="" songAudioFileUrl="" stabilizationMode="0" mediaItemType="2" />
    <MediaItem id="1380" filePath="F:\Art_and_Design\HolidayAnimation2015\Jars+Kitchen+Logos\HolidayAnimation2015\Renders\1377.png" arWidth="960" arHeight="540" duration="0" songTitle="" songArtist="" songAlbum="" songCopyrightUrl="" songArtistUrl="" songAudioFileUrl="" stabilizationMode="0" mediaItemType="2" />
    <MediaItem id="1381" filePath="F:\Art_and_Design\HolidayAnimation2015\Jars+Kitchen+Logos\HolidayAnimation2015\Renders\1378.png" arWidth="960" arHeight="540" duration="0" songTitle="" songArtist="" songAlbum="" songCopyrightUrl="" songArtistUrl="" songAudioFileUrl="" stabilizationMode="0" mediaItemType="2" />
    <MediaItem id="1382" filePath="F:\Art_and_Design\HolidayAnimation2015\Jars+Kitchen+Logos\HolidayAnimation2015\Renders\1379.png" arWidth="960" arHeight="540" duration="0" songTitle="" songArtist="" songAlbum="" songCopyrightUrl="" songArtistUrl="" songAudioFileUrl="" stabilizationMode="0" mediaItemType="2" />
    <MediaItem id="1383" filePath="F:\Art_and_Design\HolidayAnimation2015\Jars+Kitchen+Logos\HolidayAnimation2015\Renders\1380.png" arWidth="960" arHeight="540" duration="0" songTitle="" songArtist="" songAlbum="" songCopyrightUrl="" songArtistUrl="" songAudioFileUrl="" stabilizationMode="0" mediaItemType="2" />
    <MediaItem id="1384" filePath="F:\Art_and_Design\HolidayAnimation2015\Jars+Kitchen+Logos\HolidayAnimation2015\Renders\1381.png" arWidth="960" arHeight="540" duration="0" songTitle="" songArtist="" songAlbum="" songCopyrightUrl="" songArtistUrl="" songAudioFileUrl="" stabilizationMode="0" mediaItemType="2" />
    <MediaItem id="1385" filePath="F:\Art_and_Design\HolidayAnimation2015\Jars+Kitchen+Logos\HolidayAnimation2015\Renders\1382.png" arWidth="960" arHeight="540" duration="0" songTitle="" songArtist="" songAlbum="" songCopyrightUrl="" songArtistUrl="" songAudioFileUrl="" stabilizationMode="0" mediaItemType="2" />
    <MediaItem id="1386" filePath="F:\Art_and_Design\HolidayAnimation2015\Jars+Kitchen+Logos\HolidayAnimation2015\Renders\1383.png" arWidth="960" arHeight="540" duration="0" songTitle="" songArtist="" songAlbum="" songCopyrightUrl="" songArtistUrl="" songAudioFileUrl="" stabilizationMode="0" mediaItemType="2" />
    <MediaItem id="1387" filePath="F:\Art_and_Design\HolidayAnimation2015\Jars+Kitchen+Logos\HolidayAnimation2015\Renders\1384.png" arWidth="960" arHeight="540" duration="0" songTitle="" songArtist="" songAlbum="" songCopyrightUrl="" songArtistUrl="" songAudioFileUrl="" stabilizationMode="0" mediaItemType="2" />
    <MediaItem id="1388" filePath="F:\Art_and_Design\HolidayAnimation2015\Jars+Kitchen+Logos\HolidayAnimation2015\Renders\1385.png" arWidth="960" arHeight="540" duration="0" songTitle="" songArtist="" songAlbum="" songCopyrightUrl="" songArtistUrl="" songAudioFileUrl="" stabilizationMode="0" mediaItemType="2" />
    <MediaItem id="1389" filePath="F:\Art_and_Design\HolidayAnimation2015\Jars+Kitchen+Logos\HolidayAnimation2015\Renders\1386.png" arWidth="960" arHeight="540" duration="0" songTitle="" songArtist="" songAlbum="" songCopyrightUrl="" songArtistUrl="" songAudioFileUrl="" stabilizationMode="0" mediaItemType="2" />
    <MediaItem id="1390" filePath="F:\Art_and_Design\HolidayAnimation2015\Jars+Kitchen+Logos\HolidayAnimation2015\Renders\1387.png" arWidth="960" arHeight="540" duration="0" songTitle="" songArtist="" songAlbum="" songCopyrightUrl="" songArtistUrl="" songAudioFileUrl="" stabilizationMode="0" mediaItemType="2" />
    <MediaItem id="1391" filePath="F:\Art_and_Design\HolidayAnimation2015\Jars+Kitchen+Logos\HolidayAnimation2015\Renders\1388.png" arWidth="960" arHeight="540" duration="0" songTitle="" songArtist="" songAlbum="" songCopyrightUrl="" songArtistUrl="" songAudioFileUrl="" stabilizationMode="0" mediaItemType="2" />
    <MediaItem id="1392" filePath="F:\Art_and_Design\HolidayAnimation2015\Jars+Kitchen+Logos\HolidayAnimation2015\Renders\1389.png" arWidth="960" arHeight="540" duration="0" songTitle="" songArtist="" songAlbum="" songCopyrightUrl="" songArtistUrl="" songAudioFileUrl="" stabilizationMode="0" mediaItemType="2" />
    <MediaItem id="1393" filePath="F:\Art_and_Design\HolidayAnimation2015\Jars+Kitchen+Logos\HolidayAnimation2015\Renders\1390.png" arWidth="960" arHeight="540" duration="0" songTitle="" songArtist="" songAlbum="" songCopyrightUrl="" songArtistUrl="" songAudioFileUrl="" stabilizationMode="0" mediaItemType="2" />
    <MediaItem id="1394" filePath="F:\Art_and_Design\HolidayAnimation2015\Jars+Kitchen+Logos\HolidayAnimation2015\Renders\1391.png" arWidth="960" arHeight="540" duration="0" songTitle="" songArtist="" songAlbum="" songCopyrightUrl="" songArtistUrl="" songAudioFileUrl="" stabilizationMode="0" mediaItemType="2" />
    <MediaItem id="1395" filePath="F:\Art_and_Design\HolidayAnimation2015\Jars+Kitchen+Logos\HolidayAnimation2015\Renders\1392.png" arWidth="960" arHeight="540" duration="0" songTitle="" songArtist="" songAlbum="" songCopyrightUrl="" songArtistUrl="" songAudioFileUrl="" stabilizationMode="0" mediaItemType="2" />
    <MediaItem id="1396" filePath="F:\Art_and_Design\HolidayAnimation2015\Jars+Kitchen+Logos\HolidayAnimation2015\Renders\1393.png" arWidth="960" arHeight="540" duration="0" songTitle="" songArtist="" songAlbum="" songCopyrightUrl="" songArtistUrl="" songAudioFileUrl="" stabilizationMode="0" mediaItemType="2" />
    <MediaItem id="1397" filePath="F:\Art_and_Design\HolidayAnimation2015\Jars+Kitchen+Logos\HolidayAnimation2015\Renders\1394.png" arWidth="960" arHeight="540" duration="0" songTitle="" songArtist="" songAlbum="" songCopyrightUrl="" songArtistUrl="" songAudioFileUrl="" stabilizationMode="0" mediaItemType="2" />
    <MediaItem id="1398" filePath="F:\Art_and_Design\HolidayAnimation2015\Jars+Kitchen+Logos\HolidayAnimation2015\Renders\1395.png" arWidth="960" arHeight="540" duration="0" songTitle="" songArtist="" songAlbum="" songCopyrightUrl="" songArtistUrl="" songAudioFileUrl="" stabilizationMode="0" mediaItemType="2" />
    <MediaItem id="1399" filePath="F:\Art_and_Design\HolidayAnimation2015\Jars+Kitchen+Logos\HolidayAnimation2015\Renders\1396.png" arWidth="960" arHeight="540" duration="0" songTitle="" songArtist="" songAlbum="" songCopyrightUrl="" songArtistUrl="" songAudioFileUrl="" stabilizationMode="0" mediaItemType="2" />
    <MediaItem id="1400" filePath="F:\Art_and_Design\HolidayAnimation2015\Jars+Kitchen+Logos\HolidayAnimation2015\Renders\1397.png" arWidth="960" arHeight="540" duration="0" songTitle="" songArtist="" songAlbum="" songCopyrightUrl="" songArtistUrl="" songAudioFileUrl="" stabilizationMode="0" mediaItemType="2" />
    <MediaItem id="1401" filePath="F:\Art_and_Design\HolidayAnimation2015\Jars+Kitchen+Logos\HolidayAnimation2015\Renders\1398.png" arWidth="960" arHeight="540" duration="0" songTitle="" songArtist="" songAlbum="" songCopyrightUrl="" songArtistUrl="" songAudioFileUrl="" stabilizationMode="0" mediaItemType="2" />
    <MediaItem id="1402" filePath="F:\Art_and_Design\HolidayAnimation2015\Jars+Kitchen+Logos\HolidayAnimation2015\Renders\1399.png" arWidth="960" arHeight="540" duration="0" songTitle="" songArtist="" songAlbum="" songCopyrightUrl="" songArtistUrl="" songAudioFileUrl="" stabilizationMode="0" mediaItemType="2" />
    <MediaItem id="1403" filePath="F:\Art_and_Design\HolidayAnimation2015\Jars+Kitchen+Logos\HolidayAnimation2015\Renders\1400.png" arWidth="960" arHeight="540" duration="0" songTitle="" songArtist="" songAlbum="" songCopyrightUrl="" songArtistUrl="" songAudioFileUrl="" stabilizationMode="0" mediaItemType="2" />
    <MediaItem id="1404" filePath="F:\Art_and_Design\HolidayAnimation2015\Jars+Kitchen+Logos\HolidayAnimation2015\Renders\1401.png" arWidth="960" arHeight="540" duration="0" songTitle="" songArtist="" songAlbum="" songCopyrightUrl="" songArtistUrl="" songAudioFileUrl="" stabilizationMode="0" mediaItemType="2" />
    <MediaItem id="1405" filePath="F:\Art_and_Design\HolidayAnimation2015\Jars+Kitchen+Logos\HolidayAnimation2015\Renders\1402.png" arWidth="960" arHeight="540" duration="0" songTitle="" songArtist="" songAlbum="" songCopyrightUrl="" songArtistUrl="" songAudioFileUrl="" stabilizationMode="0" mediaItemType="2" />
    <MediaItem id="1406" filePath="F:\Art_and_Design\HolidayAnimation2015\Jars+Kitchen+Logos\HolidayAnimation2015\Renders\1403.png" arWidth="960" arHeight="540" duration="0" songTitle="" songArtist="" songAlbum="" songCopyrightUrl="" songArtistUrl="" songAudioFileUrl="" stabilizationMode="0" mediaItemType="2" />
    <MediaItem id="1407" filePath="F:\Art_and_Design\HolidayAnimation2015\Jars+Kitchen+Logos\HolidayAnimation2015\Renders\1404.png" arWidth="960" arHeight="540" duration="0" songTitle="" songArtist="" songAlbum="" songCopyrightUrl="" songArtistUrl="" songAudioFileUrl="" stabilizationMode="0" mediaItemType="2" />
    <MediaItem id="1408" filePath="F:\Art_and_Design\HolidayAnimation2015\Jars+Kitchen+Logos\HolidayAnimation2015\Renders\1405.png" arWidth="960" arHeight="540" duration="0" songTitle="" songArtist="" songAlbum="" songCopyrightUrl="" songArtistUrl="" songAudioFileUrl="" stabilizationMode="0" mediaItemType="2" />
    <MediaItem id="1409" filePath="F:\Art_and_Design\HolidayAnimation2015\Jars+Kitchen+Logos\HolidayAnimation2015\Renders\1406.png" arWidth="960" arHeight="540" duration="0" songTitle="" songArtist="" songAlbum="" songCopyrightUrl="" songArtistUrl="" songAudioFileUrl="" stabilizationMode="0" mediaItemType="2" />
    <MediaItem id="1410" filePath="F:\Art_and_Design\HolidayAnimation2015\Jars+Kitchen+Logos\HolidayAnimation2015\Renders\1407.png" arWidth="960" arHeight="540" duration="0" songTitle="" songArtist="" songAlbum="" songCopyrightUrl="" songArtistUrl="" songAudioFileUrl="" stabilizationMode="0" mediaItemType="2" />
    <MediaItem id="1411" filePath="F:\Art_and_Design\HolidayAnimation2015\Jars+Kitchen+Logos\HolidayAnimation2015\Renders\1408.png" arWidth="960" arHeight="540" duration="0" songTitle="" songArtist="" songAlbum="" songCopyrightUrl="" songArtistUrl="" songAudioFileUrl="" stabilizationMode="0" mediaItemType="2" />
    <MediaItem id="1412" filePath="F:\Art_and_Design\HolidayAnimation2015\Jars+Kitchen+Logos\HolidayAnimation2015\Renders\1409.png" arWidth="960" arHeight="540" duration="0" songTitle="" songArtist="" songAlbum="" songCopyrightUrl="" songArtistUrl="" songAudioFileUrl="" stabilizationMode="0" mediaItemType="2" />
    <MediaItem id="1413" filePath="F:\Art_and_Design\HolidayAnimation2015\Jars+Kitchen+Logos\HolidayAnimation2015\Renders\1410.png" arWidth="960" arHeight="540" duration="0" songTitle="" songArtist="" songAlbum="" songCopyrightUrl="" songArtistUrl="" songAudioFileUrl="" stabilizationMode="0" mediaItemType="2" />
    <MediaItem id="1414" filePath="F:\Art_and_Design\HolidayAnimation2015\Jars+Kitchen+Logos\HolidayAnimation2015\Renders\1411.png" arWidth="960" arHeight="540" duration="0" songTitle="" songArtist="" songAlbum="" songCopyrightUrl="" songArtistUrl="" songAudioFileUrl="" stabilizationMode="0" mediaItemType="2" />
    <MediaItem id="1415" filePath="F:\Art_and_Design\HolidayAnimation2015\Jars+Kitchen+Logos\HolidayAnimation2015\Renders\1412.png" arWidth="960" arHeight="540" duration="0" songTitle="" songArtist="" songAlbum="" songCopyrightUrl="" songArtistUrl="" songAudioFileUrl="" stabilizationMode="0" mediaItemType="2" />
    <MediaItem id="1416" filePath="F:\Art_and_Design\HolidayAnimation2015\Jars+Kitchen+Logos\HolidayAnimation2015\Renders\1413.png" arWidth="960" arHeight="540" duration="0" songTitle="" songArtist="" songAlbum="" songCopyrightUrl="" songArtistUrl="" songAudioFileUrl="" stabilizationMode="0" mediaItemType="2" />
    <MediaItem id="1417" filePath="F:\Art_and_Design\HolidayAnimation2015\Jars+Kitchen+Logos\HolidayAnimation2015\Renders\1414.png" arWidth="960" arHeight="540" duration="0" songTitle="" songArtist="" songAlbum="" songCopyrightUrl="" songArtistUrl="" songAudioFileUrl="" stabilizationMode="0" mediaItemType="2" />
    <MediaItem id="1418" filePath="F:\Art_and_Design\HolidayAnimation2015\Jars+Kitchen+Logos\HolidayAnimation2015\Renders\1415.png" arWidth="960" arHeight="540" duration="0" songTitle="" songArtist="" songAlbum="" songCopyrightUrl="" songArtistUrl="" songAudioFileUrl="" stabilizationMode="0" mediaItemType="2" />
    <MediaItem id="1419" filePath="F:\Art_and_Design\HolidayAnimation2015\Jars+Kitchen+Logos\HolidayAnimation2015\Renders\1416.png" arWidth="960" arHeight="540" duration="0" songTitle="" songArtist="" songAlbum="" songCopyrightUrl="" songArtistUrl="" songAudioFileUrl="" stabilizationMode="0" mediaItemType="2" />
    <MediaItem id="1420" filePath="F:\Art_and_Design\HolidayAnimation2015\Jars+Kitchen+Logos\HolidayAnimation2015\Renders\1417.png" arWidth="960" arHeight="540" duration="0" songTitle="" songArtist="" songAlbum="" songCopyrightUrl="" songArtistUrl="" songAudioFileUrl="" stabilizationMode="0" mediaItemType="2" />
    <MediaItem id="1421" filePath="F:\Art_and_Design\HolidayAnimation2015\Jars+Kitchen+Logos\HolidayAnimation2015\Renders\1418.png" arWidth="960" arHeight="540" duration="0" songTitle="" songArtist="" songAlbum="" songCopyrightUrl="" songArtistUrl="" songAudioFileUrl="" stabilizationMode="0" mediaItemType="2" />
    <MediaItem id="1422" filePath="F:\Art_and_Design\HolidayAnimation2015\Jars+Kitchen+Logos\HolidayAnimation2015\Renders\1419.png" arWidth="960" arHeight="540" duration="0" songTitle="" songArtist="" songAlbum="" songCopyrightUrl="" songArtistUrl="" songAudioFileUrl="" stabilizationMode="0" mediaItemType="2" />
    <MediaItem id="1423" filePath="F:\Art_and_Design\HolidayAnimation2015\Jars+Kitchen+Logos\HolidayAnimation2015\Renders\1420.png" arWidth="960" arHeight="540" duration="0" songTitle="" songArtist="" songAlbum="" songCopyrightUrl="" songArtistUrl="" songAudioFileUrl="" stabilizationMode="0" mediaItemType="2" />
    <MediaItem id="1424" filePath="F:\Art_and_Design\HolidayAnimation2015\Jars+Kitchen+Logos\HolidayAnimation2015\Renders\1421.png" arWidth="960" arHeight="540" duration="0" songTitle="" songArtist="" songAlbum="" songCopyrightUrl="" songArtistUrl="" songAudioFileUrl="" stabilizationMode="0" mediaItemType="2" />
    <MediaItem id="1425" filePath="F:\Art_and_Design\HolidayAnimation2015\Jars+Kitchen+Logos\HolidayAnimation2015\Renders\1422.png" arWidth="960" arHeight="540" duration="0" songTitle="" songArtist="" songAlbum="" songCopyrightUrl="" songArtistUrl="" songAudioFileUrl="" stabilizationMode="0" mediaItemType="2" />
    <MediaItem id="1426" filePath="F:\Art_and_Design\HolidayAnimation2015\Jars+Kitchen+Logos\HolidayAnimation2015\Renders\1423.png" arWidth="960" arHeight="540" duration="0" songTitle="" songArtist="" songAlbum="" songCopyrightUrl="" songArtistUrl="" songAudioFileUrl="" stabilizationMode="0" mediaItemType="2" />
    <MediaItem id="1427" filePath="F:\Art_and_Design\HolidayAnimation2015\Jars+Kitchen+Logos\HolidayAnimation2015\Renders\1424.png" arWidth="960" arHeight="540" duration="0" songTitle="" songArtist="" songAlbum="" songCopyrightUrl="" songArtistUrl="" songAudioFileUrl="" stabilizationMode="0" mediaItemType="2" />
    <MediaItem id="1428" filePath="F:\Art_and_Design\HolidayAnimation2015\Jars+Kitchen+Logos\HolidayAnimation2015\Renders\1425.png" arWidth="960" arHeight="540" duration="0" songTitle="" songArtist="" songAlbum="" songCopyrightUrl="" songArtistUrl="" songAudioFileUrl="" stabilizationMode="0" mediaItemType="2" />
    <MediaItem id="1429" filePath="F:\Art_and_Design\HolidayAnimation2015\Jars+Kitchen+Logos\HolidayAnimation2015\Renders\1426.png" arWidth="960" arHeight="540" duration="0" songTitle="" songArtist="" songAlbum="" songCopyrightUrl="" songArtistUrl="" songAudioFileUrl="" stabilizationMode="0" mediaItemType="2" />
    <MediaItem id="1430" filePath="F:\Art_and_Design\HolidayAnimation2015\Jars+Kitchen+Logos\HolidayAnimation2015\Renders\1427.png" arWidth="960" arHeight="540" duration="0" songTitle="" songArtist="" songAlbum="" songCopyrightUrl="" songArtistUrl="" songAudioFileUrl="" stabilizationMode="0" mediaItemType="2" />
    <MediaItem id="1431" filePath="F:\Art_and_Design\HolidayAnimation2015\Jars+Kitchen+Logos\HolidayAnimation2015\Renders\1428.png" arWidth="960" arHeight="540" duration="0" songTitle="" songArtist="" songAlbum="" songCopyrightUrl="" songArtistUrl="" songAudioFileUrl="" stabilizationMode="0" mediaItemType="2" />
    <MediaItem id="1432" filePath="F:\Art_and_Design\HolidayAnimation2015\Jars+Kitchen+Logos\HolidayAnimation2015\Renders\1429.png" arWidth="960" arHeight="540" duration="0" songTitle="" songArtist="" songAlbum="" songCopyrightUrl="" songArtistUrl="" songAudioFileUrl="" stabilizationMode="0" mediaItemType="2" />
    <MediaItem id="1433" filePath="F:\Art_and_Design\HolidayAnimation2015\Jars+Kitchen+Logos\HolidayAnimation2015\Renders\1430.png" arWidth="960" arHeight="540" duration="0" songTitle="" songArtist="" songAlbum="" songCopyrightUrl="" songArtistUrl="" songAudioFileUrl="" stabilizationMode="0" mediaItemType="2" />
    <MediaItem id="1434" filePath="F:\Art_and_Design\HolidayAnimation2015\Jars+Kitchen+Logos\HolidayAnimation2015\Renders\1431.png" arWidth="960" arHeight="540" duration="0" songTitle="" songArtist="" songAlbum="" songCopyrightUrl="" songArtistUrl="" songAudioFileUrl="" stabilizationMode="0" mediaItemType="2" />
    <MediaItem id="1435" filePath="F:\Art_and_Design\HolidayAnimation2015\Jars+Kitchen+Logos\HolidayAnimation2015\Renders\1432.png" arWidth="960" arHeight="540" duration="0" songTitle="" songArtist="" songAlbum="" songCopyrightUrl="" songArtistUrl="" songAudioFileUrl="" stabilizationMode="0" mediaItemType="2" />
    <MediaItem id="1436" filePath="F:\Art_and_Design\HolidayAnimation2015\Jars+Kitchen+Logos\HolidayAnimation2015\Renders\1433.png" arWidth="960" arHeight="540" duration="0" songTitle="" songArtist="" songAlbum="" songCopyrightUrl="" songArtistUrl="" songAudioFileUrl="" stabilizationMode="0" mediaItemType="2" />
    <MediaItem id="1437" filePath="F:\Art_and_Design\HolidayAnimation2015\Jars+Kitchen+Logos\HolidayAnimation2015\Renders\1434.png" arWidth="960" arHeight="540" duration="0" songTitle="" songArtist="" songAlbum="" songCopyrightUrl="" songArtistUrl="" songAudioFileUrl="" stabilizationMode="0" mediaItemType="2" />
    <MediaItem id="1438" filePath="F:\Art_and_Design\HolidayAnimation2015\Jars+Kitchen+Logos\HolidayAnimation2015\Renders\1435.png" arWidth="960" arHeight="540" duration="0" songTitle="" songArtist="" songAlbum="" songCopyrightUrl="" songArtistUrl="" songAudioFileUrl="" stabilizationMode="0" mediaItemType="2" />
    <MediaItem id="1439" filePath="F:\Art_and_Design\HolidayAnimation2015\Jars+Kitchen+Logos\HolidayAnimation2015\Renders\1436.png" arWidth="960" arHeight="540" duration="0" songTitle="" songArtist="" songAlbum="" songCopyrightUrl="" songArtistUrl="" songAudioFileUrl="" stabilizationMode="0" mediaItemType="2" />
    <MediaItem id="1440" filePath="F:\Art_and_Design\HolidayAnimation2015\Jars+Kitchen+Logos\HolidayAnimation2015\Renders\1437.png" arWidth="960" arHeight="540" duration="0" songTitle="" songArtist="" songAlbum="" songCopyrightUrl="" songArtistUrl="" songAudioFileUrl="" stabilizationMode="0" mediaItemType="2" />
    <MediaItem id="1441" filePath="F:\Art_and_Design\HolidayAnimation2015\Jars+Kitchen+Logos\HolidayAnimation2015\Renders\1438.png" arWidth="960" arHeight="540" duration="0" songTitle="" songArtist="" songAlbum="" songCopyrightUrl="" songArtistUrl="" songAudioFileUrl="" stabilizationMode="0" mediaItemType="2" />
    <MediaItem id="1442" filePath="F:\Art_and_Design\HolidayAnimation2015\Jars+Kitchen+Logos\HolidayAnimation2015\Renders\1439.png" arWidth="960" arHeight="540" duration="0" songTitle="" songArtist="" songAlbum="" songCopyrightUrl="" songArtistUrl="" songAudioFileUrl="" stabilizationMode="0" mediaItemType="2" />
    <MediaItem id="1443" filePath="F:\Art_and_Design\HolidayAnimation2015\Jars+Kitchen+Logos\HolidayAnimation2015\Renders\1440.png" arWidth="960" arHeight="540" duration="0" songTitle="" songArtist="" songAlbum="" songCopyrightUrl="" songArtistUrl="" songAudioFileUrl="" stabilizationMode="0" mediaItemType="2" />
    <MediaItem id="1444" filePath="F:\Art_and_Design\HolidayAnimation2015\Jars+Kitchen+Logos\HolidayAnimation2015\Renders\1441.png" arWidth="960" arHeight="540" duration="0" songTitle="" songArtist="" songAlbum="" songCopyrightUrl="" songArtistUrl="" songAudioFileUrl="" stabilizationMode="0" mediaItemType="2" />
  </MediaItems>
  <Extents>
    <ImageClip extentID="5" gapBefore="0" mediaItemID="1" duration="0.050000000000000003">
      <Effects />
      <Transitions />
      <BoundProperties>
        <BoundPropertyInt Name="rotateStepNinety" Value="0" />
      </BoundProperties>
    </ImageClip>
    <ImageClip extentID="6" gapBefore="0" mediaItemID="2" duration="0.050000000000000003">
      <Effects />
      <Transitions />
      <BoundProperties>
        <BoundPropertyInt Name="rotateStepNinety" Value="0" />
      </BoundProperties>
    </ImageClip>
    <ImageClip extentID="7" gapBefore="0" mediaItemID="3" duration="0.050000000000000003">
      <Effects />
      <Transitions />
      <BoundProperties>
        <BoundPropertyInt Name="rotateStepNinety" Value="0" />
      </BoundProperties>
    </ImageClip>
    <ImageClip extentID="8" gapBefore="0" mediaItemID="4" duration="0.050000000000000003">
      <Effects />
      <Transitions />
      <BoundProperties>
        <BoundPropertyInt Name="rotateStepNinety" Value="0" />
      </BoundProperties>
    </ImageClip>
    <ImageClip extentID="9" gapBefore="0" mediaItemID="5" duration="0.050000000000000003">
      <Effects />
      <Transitions />
      <BoundProperties>
        <BoundPropertyInt Name="rotateStepNinety" Value="0" />
      </BoundProperties>
    </ImageClip>
    <ImageClip extentID="10" gapBefore="0" mediaItemID="6" duration="0.050000000000000003">
      <Effects />
      <Transitions />
      <BoundProperties>
        <BoundPropertyInt Name="rotateStepNinety" Value="0" />
      </BoundProperties>
    </ImageClip>
    <ImageClip extentID="11" gapBefore="0" mediaItemID="7" duration="0.050000000000000003">
      <Effects />
      <Transitions />
      <BoundProperties>
        <BoundPropertyInt Name="rotateStepNinety" Value="0" />
      </BoundProperties>
    </ImageClip>
    <ImageClip extentID="12" gapBefore="0" mediaItemID="8" duration="0.050000000000000003">
      <Effects />
      <Transitions />
      <BoundProperties>
        <BoundPropertyInt Name="rotateStepNinety" Value="0" />
      </BoundProperties>
    </ImageClip>
    <ImageClip extentID="13" gapBefore="0" mediaItemID="9" duration="0.050000000000000003">
      <Effects />
      <Transitions />
      <BoundProperties>
        <BoundPropertyInt Name="rotateStepNinety" Value="0" />
      </BoundProperties>
    </ImageClip>
    <ImageClip extentID="14" gapBefore="0" mediaItemID="10" duration="0.050000000000000003">
      <Effects />
      <Transitions />
      <BoundProperties>
        <BoundPropertyInt Name="rotateStepNinety" Value="0" />
      </BoundProperties>
    </ImageClip>
    <ImageClip extentID="15" gapBefore="0" mediaItemID="11" duration="0.050000000000000003">
      <Effects />
      <Transitions />
      <BoundProperties>
        <BoundPropertyInt Name="rotateStepNinety" Value="0" />
      </BoundProperties>
    </ImageClip>
    <ImageClip extentID="16" gapBefore="0" mediaItemID="12" duration="0.050000000000000003">
      <Effects />
      <Transitions />
      <BoundProperties>
        <BoundPropertyInt Name="rotateStepNinety" Value="0" />
      </BoundProperties>
    </ImageClip>
    <ImageClip extentID="17" gapBefore="0" mediaItemID="13" duration="0.050000000000000003">
      <Effects />
      <Transitions />
      <BoundProperties>
        <BoundPropertyInt Name="rotateStepNinety" Value="0" />
      </BoundProperties>
    </ImageClip>
    <ImageClip extentID="18" gapBefore="0" mediaItemID="14" duration="0.050000000000000003">
      <Effects />
      <Transitions />
      <BoundProperties>
        <BoundPropertyInt Name="rotateStepNinety" Value="0" />
      </BoundProperties>
    </ImageClip>
    <ImageClip extentID="19" gapBefore="0" mediaItemID="15" duration="0.050000000000000003">
      <Effects />
      <Transitions />
      <BoundProperties>
        <BoundPropertyInt Name="rotateStepNinety" Value="0" />
      </BoundProperties>
    </ImageClip>
    <ImageClip extentID="20" gapBefore="0" mediaItemID="16" duration="0.050000000000000003">
      <Effects />
      <Transitions />
      <BoundProperties>
        <BoundPropertyInt Name="rotateStepNinety" Value="0" />
      </BoundProperties>
    </ImageClip>
    <ImageClip extentID="21" gapBefore="0" mediaItemID="17" duration="0.050000000000000003">
      <Effects />
      <Transitions />
      <BoundProperties>
        <BoundPropertyInt Name="rotateStepNinety" Value="0" />
      </BoundProperties>
    </ImageClip>
    <ImageClip extentID="22" gapBefore="0" mediaItemID="18" duration="0.050000000000000003">
      <Effects />
      <Transitions />
      <BoundProperties>
        <BoundPropertyInt Name="rotateStepNinety" Value="0" />
      </BoundProperties>
    </ImageClip>
    <ImageClip extentID="23" gapBefore="0" mediaItemID="19" duration="0.050000000000000003">
      <Effects />
      <Transitions />
      <BoundProperties>
        <BoundPropertyInt Name="rotateStepNinety" Value="0" />
      </BoundProperties>
    </ImageClip>
    <ImageClip extentID="24" gapBefore="0" mediaItemID="20" duration="0.050000000000000003">
      <Effects />
      <Transitions />
      <BoundProperties>
        <BoundPropertyInt Name="rotateStepNinety" Value="0" />
      </BoundProperties>
    </ImageClip>
    <ImageClip extentID="25" gapBefore="0" mediaItemID="21" duration="0.050000000000000003">
      <Effects />
      <Transitions />
      <BoundProperties>
        <BoundPropertyInt Name="rotateStepNinety" Value="0" />
      </BoundProperties>
    </ImageClip>
    <ImageClip extentID="26" gapBefore="0" mediaItemID="22" duration="0.050000000000000003">
      <Effects />
      <Transitions />
      <BoundProperties>
        <BoundPropertyInt Name="rotateStepNinety" Value="0" />
      </BoundProperties>
    </ImageClip>
    <ImageClip extentID="27" gapBefore="0" mediaItemID="23" duration="0.050000000000000003">
      <Effects />
      <Transitions />
      <BoundProperties>
        <BoundPropertyInt Name="rotateStepNinety" Value="0" />
      </BoundProperties>
    </ImageClip>
    <ImageClip extentID="28" gapBefore="0" mediaItemID="24" duration="0.050000000000000003">
      <Effects />
      <Transitions />
      <BoundProperties>
        <BoundPropertyInt Name="rotateStepNinety" Value="0" />
      </BoundProperties>
    </ImageClip>
    <ImageClip extentID="29" gapBefore="0" mediaItemID="25" duration="0.050000000000000003">
      <Effects />
      <Transitions />
      <BoundProperties>
        <BoundPropertyInt Name="rotateStepNinety" Value="0" />
      </BoundProperties>
    </ImageClip>
    <ImageClip extentID="30" gapBefore="0" mediaItemID="26" duration="0.050000000000000003">
      <Effects />
      <Transitions />
      <BoundProperties>
        <BoundPropertyInt Name="rotateStepNinety" Value="0" />
      </BoundProperties>
    </ImageClip>
    <ImageClip extentID="31" gapBefore="0" mediaItemID="27" duration="0.050000000000000003">
      <Effects />
      <Transitions />
      <BoundProperties>
        <BoundPropertyInt Name="rotateStepNinety" Value="0" />
      </BoundProperties>
    </ImageClip>
    <ImageClip extentID="32" gapBefore="0" mediaItemID="28" duration="0.050000000000000003">
      <Effects />
      <Transitions />
      <BoundProperties>
        <BoundPropertyInt Name="rotateStepNinety" Value="0" />
      </BoundProperties>
    </ImageClip>
    <ImageClip extentID="33" gapBefore="0" mediaItemID="29" duration="0.050000000000000003">
      <Effects />
      <Transitions />
      <BoundProperties>
        <BoundPropertyInt Name="rotateStepNinety" Value="0" />
      </BoundProperties>
    </ImageClip>
    <ImageClip extentID="34" gapBefore="0" mediaItemID="30" duration="0.050000000000000003">
      <Effects />
      <Transitions />
      <BoundProperties>
        <BoundPropertyInt Name="rotateStepNinety" Value="0" />
      </BoundProperties>
    </ImageClip>
    <ImageClip extentID="35" gapBefore="0" mediaItemID="31" duration="0.050000000000000003">
      <Effects />
      <Transitions />
      <BoundProperties>
        <BoundPropertyInt Name="rotateStepNinety" Value="0" />
      </BoundProperties>
    </ImageClip>
    <ImageClip extentID="36" gapBefore="0" mediaItemID="32" duration="0.050000000000000003">
      <Effects />
      <Transitions />
      <BoundProperties>
        <BoundPropertyInt Name="rotateStepNinety" Value="0" />
      </BoundProperties>
    </ImageClip>
    <ImageClip extentID="37" gapBefore="0" mediaItemID="33" duration="0.050000000000000003">
      <Effects />
      <Transitions />
      <BoundProperties>
        <BoundPropertyInt Name="rotateStepNinety" Value="0" />
      </BoundProperties>
    </ImageClip>
    <ImageClip extentID="38" gapBefore="0" mediaItemID="34" duration="0.050000000000000003">
      <Effects />
      <Transitions />
      <BoundProperties>
        <BoundPropertyInt Name="rotateStepNinety" Value="0" />
      </BoundProperties>
    </ImageClip>
    <ImageClip extentID="39" gapBefore="0" mediaItemID="35" duration="0.050000000000000003">
      <Effects />
      <Transitions />
      <BoundProperties>
        <BoundPropertyInt Name="rotateStepNinety" Value="0" />
      </BoundProperties>
    </ImageClip>
    <ImageClip extentID="40" gapBefore="0" mediaItemID="36" duration="0.050000000000000003">
      <Effects />
      <Transitions />
      <BoundProperties>
        <BoundPropertyInt Name="rotateStepNinety" Value="0" />
      </BoundProperties>
    </ImageClip>
    <ImageClip extentID="41" gapBefore="0" mediaItemID="37" duration="0.050000000000000003">
      <Effects />
      <Transitions />
      <BoundProperties>
        <BoundPropertyInt Name="rotateStepNinety" Value="0" />
      </BoundProperties>
    </ImageClip>
    <ImageClip extentID="42" gapBefore="0" mediaItemID="38" duration="0.050000000000000003">
      <Effects />
      <Transitions />
      <BoundProperties>
        <BoundPropertyInt Name="rotateStepNinety" Value="0" />
      </BoundProperties>
    </ImageClip>
    <ImageClip extentID="43" gapBefore="0" mediaItemID="39" duration="0.050000000000000003">
      <Effects />
      <Transitions />
      <BoundProperties>
        <BoundPropertyInt Name="rotateStepNinety" Value="0" />
      </BoundProperties>
    </ImageClip>
    <ImageClip extentID="44" gapBefore="0" mediaItemID="40" duration="0.050000000000000003">
      <Effects />
      <Transitions />
      <BoundProperties>
        <BoundPropertyInt Name="rotateStepNinety" Value="0" />
      </BoundProperties>
    </ImageClip>
    <ImageClip extentID="45" gapBefore="0" mediaItemID="41" duration="0.050000000000000003">
      <Effects />
      <Transitions />
      <BoundProperties>
        <BoundPropertyInt Name="rotateStepNinety" Value="0" />
      </BoundProperties>
    </ImageClip>
    <ImageClip extentID="46" gapBefore="0" mediaItemID="42" duration="0.050000000000000003">
      <Effects />
      <Transitions />
      <BoundProperties>
        <BoundPropertyInt Name="rotateStepNinety" Value="0" />
      </BoundProperties>
    </ImageClip>
    <ImageClip extentID="47" gapBefore="0" mediaItemID="43" duration="0.050000000000000003">
      <Effects />
      <Transitions />
      <BoundProperties>
        <BoundPropertyInt Name="rotateStepNinety" Value="0" />
      </BoundProperties>
    </ImageClip>
    <ImageClip extentID="48" gapBefore="0" mediaItemID="44" duration="0.050000000000000003">
      <Effects />
      <Transitions />
      <BoundProperties>
        <BoundPropertyInt Name="rotateStepNinety" Value="0" />
      </BoundProperties>
    </ImageClip>
    <ImageClip extentID="49" gapBefore="0" mediaItemID="45" duration="0.050000000000000003">
      <Effects />
      <Transitions />
      <BoundProperties>
        <BoundPropertyInt Name="rotateStepNinety" Value="0" />
      </BoundProperties>
    </ImageClip>
    <ImageClip extentID="50" gapBefore="0" mediaItemID="46" duration="0.050000000000000003">
      <Effects />
      <Transitions />
      <BoundProperties>
        <BoundPropertyInt Name="rotateStepNinety" Value="0" />
      </BoundProperties>
    </ImageClip>
    <ImageClip extentID="51" gapBefore="0" mediaItemID="47" duration="0.050000000000000003">
      <Effects />
      <Transitions />
      <BoundProperties>
        <BoundPropertyInt Name="rotateStepNinety" Value="0" />
      </BoundProperties>
    </ImageClip>
    <ImageClip extentID="52" gapBefore="0" mediaItemID="48" duration="0.050000000000000003">
      <Effects />
      <Transitions />
      <BoundProperties>
        <BoundPropertyInt Name="rotateStepNinety" Value="0" />
      </BoundProperties>
    </ImageClip>
    <ImageClip extentID="53" gapBefore="0" mediaItemID="49" duration="0.050000000000000003">
      <Effects />
      <Transitions />
      <BoundProperties>
        <BoundPropertyInt Name="rotateStepNinety" Value="0" />
      </BoundProperties>
    </ImageClip>
    <ImageClip extentID="54" gapBefore="0" mediaItemID="50" duration="0.050000000000000003">
      <Effects />
      <Transitions />
      <BoundProperties>
        <BoundPropertyInt Name="rotateStepNinety" Value="0" />
      </BoundProperties>
    </ImageClip>
    <ImageClip extentID="55" gapBefore="0" mediaItemID="51" duration="0.050000000000000003">
      <Effects />
      <Transitions />
      <BoundProperties>
        <BoundPropertyInt Name="rotateStepNinety" Value="0" />
      </BoundProperties>
    </ImageClip>
    <ImageClip extentID="56" gapBefore="0" mediaItemID="52" duration="0.050000000000000003">
      <Effects />
      <Transitions />
      <BoundProperties>
        <BoundPropertyInt Name="rotateStepNinety" Value="0" />
      </BoundProperties>
    </ImageClip>
    <ImageClip extentID="57" gapBefore="0" mediaItemID="53" duration="0.050000000000000003">
      <Effects />
      <Transitions />
      <BoundProperties>
        <BoundPropertyInt Name="rotateStepNinety" Value="0" />
      </BoundProperties>
    </ImageClip>
    <ImageClip extentID="58" gapBefore="0" mediaItemID="54" duration="0.050000000000000003">
      <Effects />
      <Transitions />
      <BoundProperties>
        <BoundPropertyInt Name="rotateStepNinety" Value="0" />
      </BoundProperties>
    </ImageClip>
    <ImageClip extentID="59" gapBefore="0" mediaItemID="55" duration="0.050000000000000003">
      <Effects />
      <Transitions />
      <BoundProperties>
        <BoundPropertyInt Name="rotateStepNinety" Value="0" />
      </BoundProperties>
    </ImageClip>
    <ImageClip extentID="60" gapBefore="0" mediaItemID="56" duration="0.050000000000000003">
      <Effects />
      <Transitions />
      <BoundProperties>
        <BoundPropertyInt Name="rotateStepNinety" Value="0" />
      </BoundProperties>
    </ImageClip>
    <ImageClip extentID="61" gapBefore="0" mediaItemID="57" duration="0.050000000000000003">
      <Effects />
      <Transitions />
      <BoundProperties>
        <BoundPropertyInt Name="rotateStepNinety" Value="0" />
      </BoundProperties>
    </ImageClip>
    <ImageClip extentID="62" gapBefore="0" mediaItemID="58" duration="0.050000000000000003">
      <Effects />
      <Transitions />
      <BoundProperties>
        <BoundPropertyInt Name="rotateStepNinety" Value="0" />
      </BoundProperties>
    </ImageClip>
    <ImageClip extentID="63" gapBefore="0" mediaItemID="59" duration="0.050000000000000003">
      <Effects />
      <Transitions />
      <BoundProperties>
        <BoundPropertyInt Name="rotateStepNinety" Value="0" />
      </BoundProperties>
    </ImageClip>
    <ImageClip extentID="64" gapBefore="0" mediaItemID="60" duration="0.050000000000000003">
      <Effects />
      <Transitions />
      <BoundProperties>
        <BoundPropertyInt Name="rotateStepNinety" Value="0" />
      </BoundProperties>
    </ImageClip>
    <ImageClip extentID="65" gapBefore="0" mediaItemID="61" duration="0.050000000000000003">
      <Effects />
      <Transitions />
      <BoundProperties>
        <BoundPropertyInt Name="rotateStepNinety" Value="0" />
      </BoundProperties>
    </ImageClip>
    <ImageClip extentID="66" gapBefore="0" mediaItemID="62" duration="0.050000000000000003">
      <Effects />
      <Transitions />
      <BoundProperties>
        <BoundPropertyInt Name="rotateStepNinety" Value="0" />
      </BoundProperties>
    </ImageClip>
    <ImageClip extentID="67" gapBefore="0" mediaItemID="63" duration="0.050000000000000003">
      <Effects />
      <Transitions />
      <BoundProperties>
        <BoundPropertyInt Name="rotateStepNinety" Value="0" />
      </BoundProperties>
    </ImageClip>
    <ImageClip extentID="68" gapBefore="0" mediaItemID="64" duration="0.050000000000000003">
      <Effects />
      <Transitions />
      <BoundProperties>
        <BoundPropertyInt Name="rotateStepNinety" Value="0" />
      </BoundProperties>
    </ImageClip>
    <ImageClip extentID="69" gapBefore="0" mediaItemID="65" duration="0.050000000000000003">
      <Effects />
      <Transitions />
      <BoundProperties>
        <BoundPropertyInt Name="rotateStepNinety" Value="0" />
      </BoundProperties>
    </ImageClip>
    <ImageClip extentID="70" gapBefore="0" mediaItemID="66" duration="0.050000000000000003">
      <Effects />
      <Transitions />
      <BoundProperties>
        <BoundPropertyInt Name="rotateStepNinety" Value="0" />
      </BoundProperties>
    </ImageClip>
    <ImageClip extentID="71" gapBefore="0" mediaItemID="67" duration="0.050000000000000003">
      <Effects />
      <Transitions />
      <BoundProperties>
        <BoundPropertyInt Name="rotateStepNinety" Value="0" />
      </BoundProperties>
    </ImageClip>
    <ImageClip extentID="72" gapBefore="0" mediaItemID="68" duration="0.050000000000000003">
      <Effects />
      <Transitions />
      <BoundProperties>
        <BoundPropertyInt Name="rotateStepNinety" Value="0" />
      </BoundProperties>
    </ImageClip>
    <ImageClip extentID="73" gapBefore="0" mediaItemID="69" duration="0.050000000000000003">
      <Effects />
      <Transitions />
      <BoundProperties>
        <BoundPropertyInt Name="rotateStepNinety" Value="0" />
      </BoundProperties>
    </ImageClip>
    <ImageClip extentID="74" gapBefore="0" mediaItemID="70" duration="0.050000000000000003">
      <Effects />
      <Transitions />
      <BoundProperties>
        <BoundPropertyInt Name="rotateStepNinety" Value="0" />
      </BoundProperties>
    </ImageClip>
    <ImageClip extentID="75" gapBefore="0" mediaItemID="71" duration="0.050000000000000003">
      <Effects />
      <Transitions />
      <BoundProperties>
        <BoundPropertyInt Name="rotateStepNinety" Value="0" />
      </BoundProperties>
    </ImageClip>
    <ImageClip extentID="76" gapBefore="0" mediaItemID="72" duration="0.050000000000000003">
      <Effects />
      <Transitions />
      <BoundProperties>
        <BoundPropertyInt Name="rotateStepNinety" Value="0" />
      </BoundProperties>
    </ImageClip>
    <ImageClip extentID="77" gapBefore="0" mediaItemID="73" duration="0.050000000000000003">
      <Effects />
      <Transitions />
      <BoundProperties>
        <BoundPropertyInt Name="rotateStepNinety" Value="0" />
      </BoundProperties>
    </ImageClip>
    <ImageClip extentID="78" gapBefore="0" mediaItemID="74" duration="0.050000000000000003">
      <Effects />
      <Transitions />
      <BoundProperties>
        <BoundPropertyInt Name="rotateStepNinety" Value="0" />
      </BoundProperties>
    </ImageClip>
    <ImageClip extentID="79" gapBefore="0" mediaItemID="75" duration="0.050000000000000003">
      <Effects />
      <Transitions />
      <BoundProperties>
        <BoundPropertyInt Name="rotateStepNinety" Value="0" />
      </BoundProperties>
    </ImageClip>
    <ImageClip extentID="80" gapBefore="0" mediaItemID="76" duration="0.050000000000000003">
      <Effects />
      <Transitions />
      <BoundProperties>
        <BoundPropertyInt Name="rotateStepNinety" Value="0" />
      </BoundProperties>
    </ImageClip>
    <ImageClip extentID="81" gapBefore="0" mediaItemID="77" duration="0.050000000000000003">
      <Effects />
      <Transitions />
      <BoundProperties>
        <BoundPropertyInt Name="rotateStepNinety" Value="0" />
      </BoundProperties>
    </ImageClip>
    <ImageClip extentID="82" gapBefore="0" mediaItemID="78" duration="0.050000000000000003">
      <Effects />
      <Transitions />
      <BoundProperties>
        <BoundPropertyInt Name="rotateStepNinety" Value="0" />
      </BoundProperties>
    </ImageClip>
    <ImageClip extentID="83" gapBefore="0" mediaItemID="79" duration="0.050000000000000003">
      <Effects />
      <Transitions />
      <BoundProperties>
        <BoundPropertyInt Name="rotateStepNinety" Value="0" />
      </BoundProperties>
    </ImageClip>
    <ImageClip extentID="84" gapBefore="0" mediaItemID="80" duration="0.050000000000000003">
      <Effects />
      <Transitions />
      <BoundProperties>
        <BoundPropertyInt Name="rotateStepNinety" Value="0" />
      </BoundProperties>
    </ImageClip>
    <ImageClip extentID="85" gapBefore="0" mediaItemID="81" duration="0.050000000000000003">
      <Effects />
      <Transitions />
      <BoundProperties>
        <BoundPropertyInt Name="rotateStepNinety" Value="0" />
      </BoundProperties>
    </ImageClip>
    <ImageClip extentID="86" gapBefore="0" mediaItemID="82" duration="0.050000000000000003">
      <Effects />
      <Transitions />
      <BoundProperties>
        <BoundPropertyInt Name="rotateStepNinety" Value="0" />
      </BoundProperties>
    </ImageClip>
    <ImageClip extentID="87" gapBefore="0" mediaItemID="83" duration="0.050000000000000003">
      <Effects />
      <Transitions />
      <BoundProperties>
        <BoundPropertyInt Name="rotateStepNinety" Value="0" />
      </BoundProperties>
    </ImageClip>
    <ImageClip extentID="88" gapBefore="0" mediaItemID="84" duration="0.050000000000000003">
      <Effects />
      <Transitions />
      <BoundProperties>
        <BoundPropertyInt Name="rotateStepNinety" Value="0" />
      </BoundProperties>
    </ImageClip>
    <ImageClip extentID="89" gapBefore="0" mediaItemID="85" duration="0.050000000000000003">
      <Effects />
      <Transitions />
      <BoundProperties>
        <BoundPropertyInt Name="rotateStepNinety" Value="0" />
      </BoundProperties>
    </ImageClip>
    <ImageClip extentID="90" gapBefore="0" mediaItemID="86" duration="0.050000000000000003">
      <Effects />
      <Transitions />
      <BoundProperties>
        <BoundPropertyInt Name="rotateStepNinety" Value="0" />
      </BoundProperties>
    </ImageClip>
    <ImageClip extentID="91" gapBefore="0" mediaItemID="87" duration="0.050000000000000003">
      <Effects />
      <Transitions />
      <BoundProperties>
        <BoundPropertyInt Name="rotateStepNinety" Value="0" />
      </BoundProperties>
    </ImageClip>
    <ImageClip extentID="92" gapBefore="0" mediaItemID="88" duration="0.050000000000000003">
      <Effects />
      <Transitions />
      <BoundProperties>
        <BoundPropertyInt Name="rotateStepNinety" Value="0" />
      </BoundProperties>
    </ImageClip>
    <ImageClip extentID="93" gapBefore="0" mediaItemID="89" duration="0.050000000000000003">
      <Effects />
      <Transitions />
      <BoundProperties>
        <BoundPropertyInt Name="rotateStepNinety" Value="0" />
      </BoundProperties>
    </ImageClip>
    <ImageClip extentID="94" gapBefore="0" mediaItemID="90" duration="0.050000000000000003">
      <Effects />
      <Transitions />
      <BoundProperties>
        <BoundPropertyInt Name="rotateStepNinety" Value="0" />
      </BoundProperties>
    </ImageClip>
    <ImageClip extentID="95" gapBefore="0" mediaItemID="91" duration="0.050000000000000003">
      <Effects />
      <Transitions />
      <BoundProperties>
        <BoundPropertyInt Name="rotateStepNinety" Value="0" />
      </BoundProperties>
    </ImageClip>
    <ImageClip extentID="96" gapBefore="0" mediaItemID="92" duration="0.050000000000000003">
      <Effects />
      <Transitions />
      <BoundProperties>
        <BoundPropertyInt Name="rotateStepNinety" Value="0" />
      </BoundProperties>
    </ImageClip>
    <ImageClip extentID="97" gapBefore="0" mediaItemID="93" duration="0.050000000000000003">
      <Effects />
      <Transitions />
      <BoundProperties>
        <BoundPropertyInt Name="rotateStepNinety" Value="0" />
      </BoundProperties>
    </ImageClip>
    <ImageClip extentID="98" gapBefore="0" mediaItemID="94" duration="0.050000000000000003">
      <Effects />
      <Transitions />
      <BoundProperties>
        <BoundPropertyInt Name="rotateStepNinety" Value="0" />
      </BoundProperties>
    </ImageClip>
    <ImageClip extentID="99" gapBefore="0" mediaItemID="95" duration="0.050000000000000003">
      <Effects />
      <Transitions />
      <BoundProperties>
        <BoundPropertyInt Name="rotateStepNinety" Value="0" />
      </BoundProperties>
    </ImageClip>
    <ImageClip extentID="100" gapBefore="0" mediaItemID="96" duration="0.050000000000000003">
      <Effects />
      <Transitions />
      <BoundProperties>
        <BoundPropertyInt Name="rotateStepNinety" Value="0" />
      </BoundProperties>
    </ImageClip>
    <ImageClip extentID="101" gapBefore="0" mediaItemID="97" duration="0.050000000000000003">
      <Effects />
      <Transitions />
      <BoundProperties>
        <BoundPropertyInt Name="rotateStepNinety" Value="0" />
      </BoundProperties>
    </ImageClip>
    <ImageClip extentID="102" gapBefore="0" mediaItemID="98" duration="0.050000000000000003">
      <Effects />
      <Transitions />
      <BoundProperties>
        <BoundPropertyInt Name="rotateStepNinety" Value="0" />
      </BoundProperties>
    </ImageClip>
    <ImageClip extentID="103" gapBefore="0" mediaItemID="99" duration="0.050000000000000003">
      <Effects />
      <Transitions />
      <BoundProperties>
        <BoundPropertyInt Name="rotateStepNinety" Value="0" />
      </BoundProperties>
    </ImageClip>
    <ImageClip extentID="104" gapBefore="0" mediaItemID="100" duration="0.050000000000000003">
      <Effects />
      <Transitions />
      <BoundProperties>
        <BoundPropertyInt Name="rotateStepNinety" Value="0" />
      </BoundProperties>
    </ImageClip>
    <ImageClip extentID="105" gapBefore="0" mediaItemID="101" duration="0.050000000000000003">
      <Effects />
      <Transitions />
      <BoundProperties>
        <BoundPropertyInt Name="rotateStepNinety" Value="0" />
      </BoundProperties>
    </ImageClip>
    <ImageClip extentID="106" gapBefore="0" mediaItemID="102" duration="0.050000000000000003">
      <Effects />
      <Transitions />
      <BoundProperties>
        <BoundPropertyInt Name="rotateStepNinety" Value="0" />
      </BoundProperties>
    </ImageClip>
    <ImageClip extentID="107" gapBefore="0" mediaItemID="103" duration="0.050000000000000003">
      <Effects />
      <Transitions />
      <BoundProperties>
        <BoundPropertyInt Name="rotateStepNinety" Value="0" />
      </BoundProperties>
    </ImageClip>
    <ImageClip extentID="108" gapBefore="0" mediaItemID="104" duration="0.050000000000000003">
      <Effects />
      <Transitions />
      <BoundProperties>
        <BoundPropertyInt Name="rotateStepNinety" Value="0" />
      </BoundProperties>
    </ImageClip>
    <ImageClip extentID="109" gapBefore="0" mediaItemID="105" duration="0.050000000000000003">
      <Effects />
      <Transitions />
      <BoundProperties>
        <BoundPropertyInt Name="rotateStepNinety" Value="0" />
      </BoundProperties>
    </ImageClip>
    <ImageClip extentID="110" gapBefore="0" mediaItemID="106" duration="0.050000000000000003">
      <Effects />
      <Transitions />
      <BoundProperties>
        <BoundPropertyInt Name="rotateStepNinety" Value="0" />
      </BoundProperties>
    </ImageClip>
    <ImageClip extentID="111" gapBefore="0" mediaItemID="107" duration="0.050000000000000003">
      <Effects />
      <Transitions />
      <BoundProperties>
        <BoundPropertyInt Name="rotateStepNinety" Value="0" />
      </BoundProperties>
    </ImageClip>
    <ImageClip extentID="112" gapBefore="0" mediaItemID="108" duration="0.050000000000000003">
      <Effects />
      <Transitions />
      <BoundProperties>
        <BoundPropertyInt Name="rotateStepNinety" Value="0" />
      </BoundProperties>
    </ImageClip>
    <ImageClip extentID="113" gapBefore="0" mediaItemID="109" duration="0.050000000000000003">
      <Effects />
      <Transitions />
      <BoundProperties>
        <BoundPropertyInt Name="rotateStepNinety" Value="0" />
      </BoundProperties>
    </ImageClip>
    <ImageClip extentID="114" gapBefore="0" mediaItemID="110" duration="0.050000000000000003">
      <Effects />
      <Transitions />
      <BoundProperties>
        <BoundPropertyInt Name="rotateStepNinety" Value="0" />
      </BoundProperties>
    </ImageClip>
    <ImageClip extentID="115" gapBefore="0" mediaItemID="111" duration="0.050000000000000003">
      <Effects />
      <Transitions />
      <BoundProperties>
        <BoundPropertyInt Name="rotateStepNinety" Value="0" />
      </BoundProperties>
    </ImageClip>
    <ImageClip extentID="116" gapBefore="0" mediaItemID="112" duration="0.050000000000000003">
      <Effects />
      <Transitions />
      <BoundProperties>
        <BoundPropertyInt Name="rotateStepNinety" Value="0" />
      </BoundProperties>
    </ImageClip>
    <ImageClip extentID="117" gapBefore="0" mediaItemID="113" duration="0.050000000000000003">
      <Effects />
      <Transitions />
      <BoundProperties>
        <BoundPropertyInt Name="rotateStepNinety" Value="0" />
      </BoundProperties>
    </ImageClip>
    <ImageClip extentID="118" gapBefore="0" mediaItemID="114" duration="0.050000000000000003">
      <Effects />
      <Transitions />
      <BoundProperties>
        <BoundPropertyInt Name="rotateStepNinety" Value="0" />
      </BoundProperties>
    </ImageClip>
    <ImageClip extentID="119" gapBefore="0" mediaItemID="115" duration="0.050000000000000003">
      <Effects />
      <Transitions />
      <BoundProperties>
        <BoundPropertyInt Name="rotateStepNinety" Value="0" />
      </BoundProperties>
    </ImageClip>
    <ImageClip extentID="120" gapBefore="0" mediaItemID="116" duration="0.050000000000000003">
      <Effects />
      <Transitions />
      <BoundProperties>
        <BoundPropertyInt Name="rotateStepNinety" Value="0" />
      </BoundProperties>
    </ImageClip>
    <ImageClip extentID="121" gapBefore="0" mediaItemID="117" duration="0.050000000000000003">
      <Effects />
      <Transitions />
      <BoundProperties>
        <BoundPropertyInt Name="rotateStepNinety" Value="0" />
      </BoundProperties>
    </ImageClip>
    <ImageClip extentID="122" gapBefore="0" mediaItemID="118" duration="0.050000000000000003">
      <Effects />
      <Transitions />
      <BoundProperties>
        <BoundPropertyInt Name="rotateStepNinety" Value="0" />
      </BoundProperties>
    </ImageClip>
    <ImageClip extentID="123" gapBefore="0" mediaItemID="119" duration="0.050000000000000003">
      <Effects />
      <Transitions />
      <BoundProperties>
        <BoundPropertyInt Name="rotateStepNinety" Value="0" />
      </BoundProperties>
    </ImageClip>
    <ImageClip extentID="124" gapBefore="0" mediaItemID="120" duration="0.050000000000000003">
      <Effects />
      <Transitions />
      <BoundProperties>
        <BoundPropertyInt Name="rotateStepNinety" Value="0" />
      </BoundProperties>
    </ImageClip>
    <ImageClip extentID="125" gapBefore="0" mediaItemID="121" duration="0.050000000000000003">
      <Effects />
      <Transitions />
      <BoundProperties>
        <BoundPropertyInt Name="rotateStepNinety" Value="0" />
      </BoundProperties>
    </ImageClip>
    <ImageClip extentID="126" gapBefore="0" mediaItemID="122" duration="0.050000000000000003">
      <Effects />
      <Transitions />
      <BoundProperties>
        <BoundPropertyInt Name="rotateStepNinety" Value="0" />
      </BoundProperties>
    </ImageClip>
    <ImageClip extentID="127" gapBefore="0" mediaItemID="123" duration="0.050000000000000003">
      <Effects />
      <Transitions />
      <BoundProperties>
        <BoundPropertyInt Name="rotateStepNinety" Value="0" />
      </BoundProperties>
    </ImageClip>
    <ImageClip extentID="128" gapBefore="0" mediaItemID="124" duration="0.050000000000000003">
      <Effects />
      <Transitions />
      <BoundProperties>
        <BoundPropertyInt Name="rotateStepNinety" Value="0" />
      </BoundProperties>
    </ImageClip>
    <ImageClip extentID="129" gapBefore="0" mediaItemID="125" duration="0.050000000000000003">
      <Effects />
      <Transitions />
      <BoundProperties>
        <BoundPropertyInt Name="rotateStepNinety" Value="0" />
      </BoundProperties>
    </ImageClip>
    <ImageClip extentID="130" gapBefore="0" mediaItemID="126" duration="0.050000000000000003">
      <Effects />
      <Transitions />
      <BoundProperties>
        <BoundPropertyInt Name="rotateStepNinety" Value="0" />
      </BoundProperties>
    </ImageClip>
    <ImageClip extentID="131" gapBefore="0" mediaItemID="127" duration="0.050000000000000003">
      <Effects />
      <Transitions />
      <BoundProperties>
        <BoundPropertyInt Name="rotateStepNinety" Value="0" />
      </BoundProperties>
    </ImageClip>
    <ImageClip extentID="132" gapBefore="0" mediaItemID="128" duration="0.050000000000000003">
      <Effects />
      <Transitions />
      <BoundProperties>
        <BoundPropertyInt Name="rotateStepNinety" Value="0" />
      </BoundProperties>
    </ImageClip>
    <ImageClip extentID="133" gapBefore="0" mediaItemID="129" duration="0.050000000000000003">
      <Effects />
      <Transitions />
      <BoundProperties>
        <BoundPropertyInt Name="rotateStepNinety" Value="0" />
      </BoundProperties>
    </ImageClip>
    <ImageClip extentID="134" gapBefore="0" mediaItemID="130" duration="0.050000000000000003">
      <Effects />
      <Transitions />
      <BoundProperties>
        <BoundPropertyInt Name="rotateStepNinety" Value="0" />
      </BoundProperties>
    </ImageClip>
    <ImageClip extentID="135" gapBefore="0" mediaItemID="131" duration="0.050000000000000003">
      <Effects />
      <Transitions />
      <BoundProperties>
        <BoundPropertyInt Name="rotateStepNinety" Value="0" />
      </BoundProperties>
    </ImageClip>
    <ImageClip extentID="136" gapBefore="0" mediaItemID="132" duration="0.050000000000000003">
      <Effects />
      <Transitions />
      <BoundProperties>
        <BoundPropertyInt Name="rotateStepNinety" Value="0" />
      </BoundProperties>
    </ImageClip>
    <ImageClip extentID="137" gapBefore="0" mediaItemID="133" duration="0.050000000000000003">
      <Effects />
      <Transitions />
      <BoundProperties>
        <BoundPropertyInt Name="rotateStepNinety" Value="0" />
      </BoundProperties>
    </ImageClip>
    <ImageClip extentID="138" gapBefore="0" mediaItemID="134" duration="0.050000000000000003">
      <Effects />
      <Transitions />
      <BoundProperties>
        <BoundPropertyInt Name="rotateStepNinety" Value="0" />
      </BoundProperties>
    </ImageClip>
    <ImageClip extentID="139" gapBefore="0" mediaItemID="135" duration="0.050000000000000003">
      <Effects />
      <Transitions />
      <BoundProperties>
        <BoundPropertyInt Name="rotateStepNinety" Value="0" />
      </BoundProperties>
    </ImageClip>
    <ImageClip extentID="140" gapBefore="0" mediaItemID="136" duration="0.050000000000000003">
      <Effects />
      <Transitions />
      <BoundProperties>
        <BoundPropertyInt Name="rotateStepNinety" Value="0" />
      </BoundProperties>
    </ImageClip>
    <ImageClip extentID="141" gapBefore="0" mediaItemID="137" duration="0.050000000000000003">
      <Effects />
      <Transitions />
      <BoundProperties>
        <BoundPropertyInt Name="rotateStepNinety" Value="0" />
      </BoundProperties>
    </ImageClip>
    <ImageClip extentID="142" gapBefore="0" mediaItemID="138" duration="0.050000000000000003">
      <Effects />
      <Transitions />
      <BoundProperties>
        <BoundPropertyInt Name="rotateStepNinety" Value="0" />
      </BoundProperties>
    </ImageClip>
    <ImageClip extentID="143" gapBefore="0" mediaItemID="139" duration="0.050000000000000003">
      <Effects />
      <Transitions />
      <BoundProperties>
        <BoundPropertyInt Name="rotateStepNinety" Value="0" />
      </BoundProperties>
    </ImageClip>
    <ImageClip extentID="144" gapBefore="0" mediaItemID="140" duration="0.050000000000000003">
      <Effects />
      <Transitions />
      <BoundProperties>
        <BoundPropertyInt Name="rotateStepNinety" Value="0" />
      </BoundProperties>
    </ImageClip>
    <ImageClip extentID="145" gapBefore="0" mediaItemID="141" duration="0.050000000000000003">
      <Effects />
      <Transitions />
      <BoundProperties>
        <BoundPropertyInt Name="rotateStepNinety" Value="0" />
      </BoundProperties>
    </ImageClip>
    <ImageClip extentID="146" gapBefore="0" mediaItemID="142" duration="0.050000000000000003">
      <Effects />
      <Transitions />
      <BoundProperties>
        <BoundPropertyInt Name="rotateStepNinety" Value="0" />
      </BoundProperties>
    </ImageClip>
    <ImageClip extentID="147" gapBefore="0" mediaItemID="143" duration="0.050000000000000003">
      <Effects />
      <Transitions />
      <BoundProperties>
        <BoundPropertyInt Name="rotateStepNinety" Value="0" />
      </BoundProperties>
    </ImageClip>
    <ImageClip extentID="148" gapBefore="0" mediaItemID="144" duration="0.050000000000000003">
      <Effects />
      <Transitions />
      <BoundProperties>
        <BoundPropertyInt Name="rotateStepNinety" Value="0" />
      </BoundProperties>
    </ImageClip>
    <ImageClip extentID="149" gapBefore="0" mediaItemID="145" duration="0.050000000000000003">
      <Effects />
      <Transitions />
      <BoundProperties>
        <BoundPropertyInt Name="rotateStepNinety" Value="0" />
      </BoundProperties>
    </ImageClip>
    <ImageClip extentID="150" gapBefore="0" mediaItemID="146" duration="0.050000000000000003">
      <Effects />
      <Transitions />
      <BoundProperties>
        <BoundPropertyInt Name="rotateStepNinety" Value="0" />
      </BoundProperties>
    </ImageClip>
    <ImageClip extentID="151" gapBefore="0" mediaItemID="147" duration="0.050000000000000003">
      <Effects />
      <Transitions />
      <BoundProperties>
        <BoundPropertyInt Name="rotateStepNinety" Value="0" />
      </BoundProperties>
    </ImageClip>
    <ImageClip extentID="152" gapBefore="0" mediaItemID="148" duration="0.050000000000000003">
      <Effects />
      <Transitions />
      <BoundProperties>
        <BoundPropertyInt Name="rotateStepNinety" Value="0" />
      </BoundProperties>
    </ImageClip>
    <ImageClip extentID="153" gapBefore="0" mediaItemID="149" duration="0.050000000000000003">
      <Effects />
      <Transitions />
      <BoundProperties>
        <BoundPropertyInt Name="rotateStepNinety" Value="0" />
      </BoundProperties>
    </ImageClip>
    <ImageClip extentID="154" gapBefore="0" mediaItemID="150" duration="0.050000000000000003">
      <Effects />
      <Transitions />
      <BoundProperties>
        <BoundPropertyInt Name="rotateStepNinety" Value="0" />
      </BoundProperties>
    </ImageClip>
    <ImageClip extentID="155" gapBefore="0" mediaItemID="151" duration="0.050000000000000003">
      <Effects />
      <Transitions />
      <BoundProperties>
        <BoundPropertyInt Name="rotateStepNinety" Value="0" />
      </BoundProperties>
    </ImageClip>
    <ImageClip extentID="156" gapBefore="0" mediaItemID="152" duration="0.050000000000000003">
      <Effects />
      <Transitions />
      <BoundProperties>
        <BoundPropertyInt Name="rotateStepNinety" Value="0" />
      </BoundProperties>
    </ImageClip>
    <ImageClip extentID="157" gapBefore="0" mediaItemID="153" duration="0.050000000000000003">
      <Effects />
      <Transitions />
      <BoundProperties>
        <BoundPropertyInt Name="rotateStepNinety" Value="0" />
      </BoundProperties>
    </ImageClip>
    <ImageClip extentID="158" gapBefore="0" mediaItemID="154" duration="0.050000000000000003">
      <Effects />
      <Transitions />
      <BoundProperties>
        <BoundPropertyInt Name="rotateStepNinety" Value="0" />
      </BoundProperties>
    </ImageClip>
    <ImageClip extentID="159" gapBefore="0" mediaItemID="155" duration="0.050000000000000003">
      <Effects />
      <Transitions />
      <BoundProperties>
        <BoundPropertyInt Name="rotateStepNinety" Value="0" />
      </BoundProperties>
    </ImageClip>
    <ImageClip extentID="160" gapBefore="0" mediaItemID="156" duration="0.050000000000000003">
      <Effects />
      <Transitions />
      <BoundProperties>
        <BoundPropertyInt Name="rotateStepNinety" Value="0" />
      </BoundProperties>
    </ImageClip>
    <ImageClip extentID="161" gapBefore="0" mediaItemID="157" duration="0.050000000000000003">
      <Effects />
      <Transitions />
      <BoundProperties>
        <BoundPropertyInt Name="rotateStepNinety" Value="0" />
      </BoundProperties>
    </ImageClip>
    <ImageClip extentID="162" gapBefore="0" mediaItemID="158" duration="0.050000000000000003">
      <Effects />
      <Transitions />
      <BoundProperties>
        <BoundPropertyInt Name="rotateStepNinety" Value="0" />
      </BoundProperties>
    </ImageClip>
    <ImageClip extentID="163" gapBefore="0" mediaItemID="159" duration="0.050000000000000003">
      <Effects />
      <Transitions />
      <BoundProperties>
        <BoundPropertyInt Name="rotateStepNinety" Value="0" />
      </BoundProperties>
    </ImageClip>
    <ImageClip extentID="164" gapBefore="0" mediaItemID="160" duration="0.050000000000000003">
      <Effects />
      <Transitions />
      <BoundProperties>
        <BoundPropertyInt Name="rotateStepNinety" Value="0" />
      </BoundProperties>
    </ImageClip>
    <ImageClip extentID="165" gapBefore="0" mediaItemID="161" duration="0.050000000000000003">
      <Effects />
      <Transitions />
      <BoundProperties>
        <BoundPropertyInt Name="rotateStepNinety" Value="0" />
      </BoundProperties>
    </ImageClip>
    <ImageClip extentID="166" gapBefore="0" mediaItemID="162" duration="0.050000000000000003">
      <Effects />
      <Transitions />
      <BoundProperties>
        <BoundPropertyInt Name="rotateStepNinety" Value="0" />
      </BoundProperties>
    </ImageClip>
    <ImageClip extentID="167" gapBefore="0" mediaItemID="163" duration="0.050000000000000003">
      <Effects />
      <Transitions />
      <BoundProperties>
        <BoundPropertyInt Name="rotateStepNinety" Value="0" />
      </BoundProperties>
    </ImageClip>
    <ImageClip extentID="168" gapBefore="0" mediaItemID="164" duration="0.050000000000000003">
      <Effects />
      <Transitions />
      <BoundProperties>
        <BoundPropertyInt Name="rotateStepNinety" Value="0" />
      </BoundProperties>
    </ImageClip>
    <ImageClip extentID="169" gapBefore="0" mediaItemID="165" duration="0.050000000000000003">
      <Effects />
      <Transitions />
      <BoundProperties>
        <BoundPropertyInt Name="rotateStepNinety" Value="0" />
      </BoundProperties>
    </ImageClip>
    <ImageClip extentID="170" gapBefore="0" mediaItemID="166" duration="0.050000000000000003">
      <Effects />
      <Transitions />
      <BoundProperties>
        <BoundPropertyInt Name="rotateStepNinety" Value="0" />
      </BoundProperties>
    </ImageClip>
    <ImageClip extentID="171" gapBefore="0" mediaItemID="167" duration="0.050000000000000003">
      <Effects />
      <Transitions />
      <BoundProperties>
        <BoundPropertyInt Name="rotateStepNinety" Value="0" />
      </BoundProperties>
    </ImageClip>
    <ImageClip extentID="172" gapBefore="0" mediaItemID="168" duration="0.050000000000000003">
      <Effects />
      <Transitions />
      <BoundProperties>
        <BoundPropertyInt Name="rotateStepNinety" Value="0" />
      </BoundProperties>
    </ImageClip>
    <ImageClip extentID="173" gapBefore="0" mediaItemID="169" duration="0.050000000000000003">
      <Effects />
      <Transitions />
      <BoundProperties>
        <BoundPropertyInt Name="rotateStepNinety" Value="0" />
      </BoundProperties>
    </ImageClip>
    <ImageClip extentID="174" gapBefore="0" mediaItemID="170" duration="0.050000000000000003">
      <Effects />
      <Transitions />
      <BoundProperties>
        <BoundPropertyInt Name="rotateStepNinety" Value="0" />
      </BoundProperties>
    </ImageClip>
    <ImageClip extentID="175" gapBefore="0" mediaItemID="171" duration="0.050000000000000003">
      <Effects />
      <Transitions />
      <BoundProperties>
        <BoundPropertyInt Name="rotateStepNinety" Value="0" />
      </BoundProperties>
    </ImageClip>
    <ImageClip extentID="176" gapBefore="0" mediaItemID="172" duration="0.050000000000000003">
      <Effects />
      <Transitions />
      <BoundProperties>
        <BoundPropertyInt Name="rotateStepNinety" Value="0" />
      </BoundProperties>
    </ImageClip>
    <ImageClip extentID="177" gapBefore="0" mediaItemID="173" duration="0.050000000000000003">
      <Effects />
      <Transitions />
      <BoundProperties>
        <BoundPropertyInt Name="rotateStepNinety" Value="0" />
      </BoundProperties>
    </ImageClip>
    <ImageClip extentID="178" gapBefore="0" mediaItemID="174" duration="0.050000000000000003">
      <Effects />
      <Transitions />
      <BoundProperties>
        <BoundPropertyInt Name="rotateStepNinety" Value="0" />
      </BoundProperties>
    </ImageClip>
    <ImageClip extentID="179" gapBefore="0" mediaItemID="175" duration="0.050000000000000003">
      <Effects />
      <Transitions />
      <BoundProperties>
        <BoundPropertyInt Name="rotateStepNinety" Value="0" />
      </BoundProperties>
    </ImageClip>
    <ImageClip extentID="180" gapBefore="0" mediaItemID="176" duration="0.050000000000000003">
      <Effects />
      <Transitions />
      <BoundProperties>
        <BoundPropertyInt Name="rotateStepNinety" Value="0" />
      </BoundProperties>
    </ImageClip>
    <ImageClip extentID="181" gapBefore="0" mediaItemID="177" duration="0.050000000000000003">
      <Effects />
      <Transitions />
      <BoundProperties>
        <BoundPropertyInt Name="rotateStepNinety" Value="0" />
      </BoundProperties>
    </ImageClip>
    <ImageClip extentID="182" gapBefore="0" mediaItemID="178" duration="0.050000000000000003">
      <Effects />
      <Transitions />
      <BoundProperties>
        <BoundPropertyInt Name="rotateStepNinety" Value="0" />
      </BoundProperties>
    </ImageClip>
    <ImageClip extentID="183" gapBefore="0" mediaItemID="179" duration="0.050000000000000003">
      <Effects />
      <Transitions />
      <BoundProperties>
        <BoundPropertyInt Name="rotateStepNinety" Value="0" />
      </BoundProperties>
    </ImageClip>
    <ImageClip extentID="184" gapBefore="0" mediaItemID="180" duration="0.050000000000000003">
      <Effects />
      <Transitions />
      <BoundProperties>
        <BoundPropertyInt Name="rotateStepNinety" Value="0" />
      </BoundProperties>
    </ImageClip>
    <ImageClip extentID="185" gapBefore="0" mediaItemID="181" duration="0.050000000000000003">
      <Effects />
      <Transitions />
      <BoundProperties>
        <BoundPropertyInt Name="rotateStepNinety" Value="0" />
      </BoundProperties>
    </ImageClip>
    <ImageClip extentID="186" gapBefore="0" mediaItemID="182" duration="0.050000000000000003">
      <Effects />
      <Transitions />
      <BoundProperties>
        <BoundPropertyInt Name="rotateStepNinety" Value="0" />
      </BoundProperties>
    </ImageClip>
    <ImageClip extentID="187" gapBefore="0" mediaItemID="183" duration="0.050000000000000003">
      <Effects />
      <Transitions />
      <BoundProperties>
        <BoundPropertyInt Name="rotateStepNinety" Value="0" />
      </BoundProperties>
    </ImageClip>
    <ImageClip extentID="188" gapBefore="0" mediaItemID="184" duration="0.050000000000000003">
      <Effects />
      <Transitions />
      <BoundProperties>
        <BoundPropertyInt Name="rotateStepNinety" Value="0" />
      </BoundProperties>
    </ImageClip>
    <ImageClip extentID="189" gapBefore="0" mediaItemID="185" duration="0.050000000000000003">
      <Effects />
      <Transitions />
      <BoundProperties>
        <BoundPropertyInt Name="rotateStepNinety" Value="0" />
      </BoundProperties>
    </ImageClip>
    <ImageClip extentID="190" gapBefore="0" mediaItemID="186" duration="0.050000000000000003">
      <Effects />
      <Transitions />
      <BoundProperties>
        <BoundPropertyInt Name="rotateStepNinety" Value="0" />
      </BoundProperties>
    </ImageClip>
    <ImageClip extentID="191" gapBefore="0" mediaItemID="187" duration="0.050000000000000003">
      <Effects />
      <Transitions />
      <BoundProperties>
        <BoundPropertyInt Name="rotateStepNinety" Value="0" />
      </BoundProperties>
    </ImageClip>
    <ImageClip extentID="192" gapBefore="0" mediaItemID="188" duration="0.050000000000000003">
      <Effects />
      <Transitions />
      <BoundProperties>
        <BoundPropertyInt Name="rotateStepNinety" Value="0" />
      </BoundProperties>
    </ImageClip>
    <ImageClip extentID="193" gapBefore="0" mediaItemID="189" duration="0.050000000000000003">
      <Effects />
      <Transitions />
      <BoundProperties>
        <BoundPropertyInt Name="rotateStepNinety" Value="0" />
      </BoundProperties>
    </ImageClip>
    <ImageClip extentID="194" gapBefore="0" mediaItemID="190" duration="0.050000000000000003">
      <Effects />
      <Transitions />
      <BoundProperties>
        <BoundPropertyInt Name="rotateStepNinety" Value="0" />
      </BoundProperties>
    </ImageClip>
    <ImageClip extentID="195" gapBefore="0" mediaItemID="191" duration="0.050000000000000003">
      <Effects />
      <Transitions />
      <BoundProperties>
        <BoundPropertyInt Name="rotateStepNinety" Value="0" />
      </BoundProperties>
    </ImageClip>
    <ImageClip extentID="196" gapBefore="0" mediaItemID="192" duration="0.050000000000000003">
      <Effects />
      <Transitions />
      <BoundProperties>
        <BoundPropertyInt Name="rotateStepNinety" Value="0" />
      </BoundProperties>
    </ImageClip>
    <ImageClip extentID="197" gapBefore="0" mediaItemID="193" duration="0.050000000000000003">
      <Effects />
      <Transitions />
      <BoundProperties>
        <BoundPropertyInt Name="rotateStepNinety" Value="0" />
      </BoundProperties>
    </ImageClip>
    <ImageClip extentID="198" gapBefore="0" mediaItemID="194" duration="0.050000000000000003">
      <Effects />
      <Transitions />
      <BoundProperties>
        <BoundPropertyInt Name="rotateStepNinety" Value="0" />
      </BoundProperties>
    </ImageClip>
    <ImageClip extentID="199" gapBefore="0" mediaItemID="195" duration="0.050000000000000003">
      <Effects />
      <Transitions />
      <BoundProperties>
        <BoundPropertyInt Name="rotateStepNinety" Value="0" />
      </BoundProperties>
    </ImageClip>
    <ImageClip extentID="200" gapBefore="0" mediaItemID="196" duration="0.050000000000000003">
      <Effects />
      <Transitions />
      <BoundProperties>
        <BoundPropertyInt Name="rotateStepNinety" Value="0" />
      </BoundProperties>
    </ImageClip>
    <ImageClip extentID="201" gapBefore="0" mediaItemID="197" duration="0.050000000000000003">
      <Effects />
      <Transitions />
      <BoundProperties>
        <BoundPropertyInt Name="rotateStepNinety" Value="0" />
      </BoundProperties>
    </ImageClip>
    <ImageClip extentID="202" gapBefore="0" mediaItemID="198" duration="0.050000000000000003">
      <Effects />
      <Transitions />
      <BoundProperties>
        <BoundPropertyInt Name="rotateStepNinety" Value="0" />
      </BoundProperties>
    </ImageClip>
    <ImageClip extentID="203" gapBefore="0" mediaItemID="199" duration="0.050000000000000003">
      <Effects />
      <Transitions />
      <BoundProperties>
        <BoundPropertyInt Name="rotateStepNinety" Value="0" />
      </BoundProperties>
    </ImageClip>
    <ImageClip extentID="204" gapBefore="0" mediaItemID="200" duration="0.050000000000000003">
      <Effects />
      <Transitions />
      <BoundProperties>
        <BoundPropertyInt Name="rotateStepNinety" Value="0" />
      </BoundProperties>
    </ImageClip>
    <ImageClip extentID="205" gapBefore="0" mediaItemID="201" duration="0.050000000000000003">
      <Effects />
      <Transitions />
      <BoundProperties>
        <BoundPropertyInt Name="rotateStepNinety" Value="0" />
      </BoundProperties>
    </ImageClip>
    <ImageClip extentID="206" gapBefore="0" mediaItemID="202" duration="0.050000000000000003">
      <Effects />
      <Transitions />
      <BoundProperties>
        <BoundPropertyInt Name="rotateStepNinety" Value="0" />
      </BoundProperties>
    </ImageClip>
    <ImageClip extentID="207" gapBefore="0" mediaItemID="203" duration="0.050000000000000003">
      <Effects />
      <Transitions />
      <BoundProperties>
        <BoundPropertyInt Name="rotateStepNinety" Value="0" />
      </BoundProperties>
    </ImageClip>
    <ImageClip extentID="208" gapBefore="0" mediaItemID="204" duration="0.050000000000000003">
      <Effects />
      <Transitions />
      <BoundProperties>
        <BoundPropertyInt Name="rotateStepNinety" Value="0" />
      </BoundProperties>
    </ImageClip>
    <ImageClip extentID="209" gapBefore="0" mediaItemID="205" duration="0.050000000000000003">
      <Effects />
      <Transitions />
      <BoundProperties>
        <BoundPropertyInt Name="rotateStepNinety" Value="0" />
      </BoundProperties>
    </ImageClip>
    <ImageClip extentID="210" gapBefore="0" mediaItemID="206" duration="0.050000000000000003">
      <Effects />
      <Transitions />
      <BoundProperties>
        <BoundPropertyInt Name="rotateStepNinety" Value="0" />
      </BoundProperties>
    </ImageClip>
    <ImageClip extentID="211" gapBefore="0" mediaItemID="207" duration="0.050000000000000003">
      <Effects />
      <Transitions />
      <BoundProperties>
        <BoundPropertyInt Name="rotateStepNinety" Value="0" />
      </BoundProperties>
    </ImageClip>
    <ImageClip extentID="212" gapBefore="0" mediaItemID="208" duration="0.050000000000000003">
      <Effects />
      <Transitions />
      <BoundProperties>
        <BoundPropertyInt Name="rotateStepNinety" Value="0" />
      </BoundProperties>
    </ImageClip>
    <ImageClip extentID="213" gapBefore="0" mediaItemID="209" duration="0.050000000000000003">
      <Effects />
      <Transitions />
      <BoundProperties>
        <BoundPropertyInt Name="rotateStepNinety" Value="0" />
      </BoundProperties>
    </ImageClip>
    <ImageClip extentID="214" gapBefore="0" mediaItemID="210" duration="0.050000000000000003">
      <Effects />
      <Transitions />
      <BoundProperties>
        <BoundPropertyInt Name="rotateStepNinety" Value="0" />
      </BoundProperties>
    </ImageClip>
    <ImageClip extentID="215" gapBefore="0" mediaItemID="211" duration="0.050000000000000003">
      <Effects />
      <Transitions />
      <BoundProperties>
        <BoundPropertyInt Name="rotateStepNinety" Value="0" />
      </BoundProperties>
    </ImageClip>
    <ImageClip extentID="216" gapBefore="0" mediaItemID="212" duration="0.050000000000000003">
      <Effects />
      <Transitions />
      <BoundProperties>
        <BoundPropertyInt Name="rotateStepNinety" Value="0" />
      </BoundProperties>
    </ImageClip>
    <ImageClip extentID="217" gapBefore="0" mediaItemID="213" duration="0.050000000000000003">
      <Effects />
      <Transitions />
      <BoundProperties>
        <BoundPropertyInt Name="rotateStepNinety" Value="0" />
      </BoundProperties>
    </ImageClip>
    <ImageClip extentID="218" gapBefore="0" mediaItemID="214" duration="0.050000000000000003">
      <Effects />
      <Transitions />
      <BoundProperties>
        <BoundPropertyInt Name="rotateStepNinety" Value="0" />
      </BoundProperties>
    </ImageClip>
    <ImageClip extentID="219" gapBefore="0" mediaItemID="215" duration="0.050000000000000003">
      <Effects />
      <Transitions />
      <BoundProperties>
        <BoundPropertyInt Name="rotateStepNinety" Value="0" />
      </BoundProperties>
    </ImageClip>
    <ImageClip extentID="220" gapBefore="0" mediaItemID="216" duration="0.050000000000000003">
      <Effects />
      <Transitions />
      <BoundProperties>
        <BoundPropertyInt Name="rotateStepNinety" Value="0" />
      </BoundProperties>
    </ImageClip>
    <ImageClip extentID="221" gapBefore="0" mediaItemID="217" duration="0.050000000000000003">
      <Effects />
      <Transitions />
      <BoundProperties>
        <BoundPropertyInt Name="rotateStepNinety" Value="0" />
      </BoundProperties>
    </ImageClip>
    <ImageClip extentID="222" gapBefore="0" mediaItemID="218" duration="0.050000000000000003">
      <Effects />
      <Transitions />
      <BoundProperties>
        <BoundPropertyInt Name="rotateStepNinety" Value="0" />
      </BoundProperties>
    </ImageClip>
    <ImageClip extentID="223" gapBefore="0" mediaItemID="219" duration="0.050000000000000003">
      <Effects />
      <Transitions />
      <BoundProperties>
        <BoundPropertyInt Name="rotateStepNinety" Value="0" />
      </BoundProperties>
    </ImageClip>
    <ImageClip extentID="224" gapBefore="0" mediaItemID="220" duration="0.050000000000000003">
      <Effects />
      <Transitions />
      <BoundProperties>
        <BoundPropertyInt Name="rotateStepNinety" Value="0" />
      </BoundProperties>
    </ImageClip>
    <ImageClip extentID="225" gapBefore="0" mediaItemID="221" duration="0.050000000000000003">
      <Effects />
      <Transitions />
      <BoundProperties>
        <BoundPropertyInt Name="rotateStepNinety" Value="0" />
      </BoundProperties>
    </ImageClip>
    <ImageClip extentID="226" gapBefore="0" mediaItemID="222" duration="0.050000000000000003">
      <Effects />
      <Transitions />
      <BoundProperties>
        <BoundPropertyInt Name="rotateStepNinety" Value="0" />
      </BoundProperties>
    </ImageClip>
    <ImageClip extentID="227" gapBefore="0" mediaItemID="223" duration="0.050000000000000003">
      <Effects />
      <Transitions />
      <BoundProperties>
        <BoundPropertyInt Name="rotateStepNinety" Value="0" />
      </BoundProperties>
    </ImageClip>
    <ImageClip extentID="228" gapBefore="0" mediaItemID="224" duration="0.050000000000000003">
      <Effects />
      <Transitions />
      <BoundProperties>
        <BoundPropertyInt Name="rotateStepNinety" Value="0" />
      </BoundProperties>
    </ImageClip>
    <ImageClip extentID="229" gapBefore="0" mediaItemID="225" duration="0.050000000000000003">
      <Effects />
      <Transitions />
      <BoundProperties>
        <BoundPropertyInt Name="rotateStepNinety" Value="0" />
      </BoundProperties>
    </ImageClip>
    <ImageClip extentID="230" gapBefore="0" mediaItemID="226" duration="0.050000000000000003">
      <Effects />
      <Transitions />
      <BoundProperties>
        <BoundPropertyInt Name="rotateStepNinety" Value="0" />
      </BoundProperties>
    </ImageClip>
    <ImageClip extentID="231" gapBefore="0" mediaItemID="227" duration="0.050000000000000003">
      <Effects />
      <Transitions />
      <BoundProperties>
        <BoundPropertyInt Name="rotateStepNinety" Value="0" />
      </BoundProperties>
    </ImageClip>
    <ImageClip extentID="232" gapBefore="0" mediaItemID="228" duration="0.050000000000000003">
      <Effects />
      <Transitions />
      <BoundProperties>
        <BoundPropertyInt Name="rotateStepNinety" Value="0" />
      </BoundProperties>
    </ImageClip>
    <ImageClip extentID="233" gapBefore="0" mediaItemID="229" duration="0.050000000000000003">
      <Effects />
      <Transitions />
      <BoundProperties>
        <BoundPropertyInt Name="rotateStepNinety" Value="0" />
      </BoundProperties>
    </ImageClip>
    <ImageClip extentID="234" gapBefore="0" mediaItemID="230" duration="0.050000000000000003">
      <Effects />
      <Transitions />
      <BoundProperties>
        <BoundPropertyInt Name="rotateStepNinety" Value="0" />
      </BoundProperties>
    </ImageClip>
    <ImageClip extentID="235" gapBefore="0" mediaItemID="231" duration="0.050000000000000003">
      <Effects />
      <Transitions />
      <BoundProperties>
        <BoundPropertyInt Name="rotateStepNinety" Value="0" />
      </BoundProperties>
    </ImageClip>
    <ImageClip extentID="236" gapBefore="0" mediaItemID="232" duration="0.050000000000000003">
      <Effects />
      <Transitions />
      <BoundProperties>
        <BoundPropertyInt Name="rotateStepNinety" Value="0" />
      </BoundProperties>
    </ImageClip>
    <ImageClip extentID="237" gapBefore="0" mediaItemID="233" duration="0.050000000000000003">
      <Effects />
      <Transitions />
      <BoundProperties>
        <BoundPropertyInt Name="rotateStepNinety" Value="0" />
      </BoundProperties>
    </ImageClip>
    <ImageClip extentID="238" gapBefore="0" mediaItemID="234" duration="0.050000000000000003">
      <Effects />
      <Transitions />
      <BoundProperties>
        <BoundPropertyInt Name="rotateStepNinety" Value="0" />
      </BoundProperties>
    </ImageClip>
    <ImageClip extentID="239" gapBefore="0" mediaItemID="235" duration="0.050000000000000003">
      <Effects />
      <Transitions />
      <BoundProperties>
        <BoundPropertyInt Name="rotateStepNinety" Value="0" />
      </BoundProperties>
    </ImageClip>
    <ImageClip extentID="240" gapBefore="0" mediaItemID="236" duration="0.050000000000000003">
      <Effects />
      <Transitions />
      <BoundProperties>
        <BoundPropertyInt Name="rotateStepNinety" Value="0" />
      </BoundProperties>
    </ImageClip>
    <ImageClip extentID="241" gapBefore="0" mediaItemID="237" duration="0.050000000000000003">
      <Effects />
      <Transitions />
      <BoundProperties>
        <BoundPropertyInt Name="rotateStepNinety" Value="0" />
      </BoundProperties>
    </ImageClip>
    <ImageClip extentID="242" gapBefore="0" mediaItemID="238" duration="0.050000000000000003">
      <Effects />
      <Transitions />
      <BoundProperties>
        <BoundPropertyInt Name="rotateStepNinety" Value="0" />
      </BoundProperties>
    </ImageClip>
    <ImageClip extentID="243" gapBefore="0" mediaItemID="239" duration="0.050000000000000003">
      <Effects />
      <Transitions />
      <BoundProperties>
        <BoundPropertyInt Name="rotateStepNinety" Value="0" />
      </BoundProperties>
    </ImageClip>
    <ImageClip extentID="244" gapBefore="0" mediaItemID="240" duration="0.050000000000000003">
      <Effects />
      <Transitions />
      <BoundProperties>
        <BoundPropertyInt Name="rotateStepNinety" Value="0" />
      </BoundProperties>
    </ImageClip>
    <ImageClip extentID="245" gapBefore="0" mediaItemID="241" duration="0.050000000000000003">
      <Effects />
      <Transitions />
      <BoundProperties>
        <BoundPropertyInt Name="rotateStepNinety" Value="0" />
      </BoundProperties>
    </ImageClip>
    <ImageClip extentID="246" gapBefore="0" mediaItemID="242" duration="0.050000000000000003">
      <Effects />
      <Transitions />
      <BoundProperties>
        <BoundPropertyInt Name="rotateStepNinety" Value="0" />
      </BoundProperties>
    </ImageClip>
    <ImageClip extentID="247" gapBefore="0" mediaItemID="243" duration="0.050000000000000003">
      <Effects />
      <Transitions />
      <BoundProperties>
        <BoundPropertyInt Name="rotateStepNinety" Value="0" />
      </BoundProperties>
    </ImageClip>
    <ImageClip extentID="248" gapBefore="0" mediaItemID="244" duration="0.050000000000000003">
      <Effects />
      <Transitions />
      <BoundProperties>
        <BoundPropertyInt Name="rotateStepNinety" Value="0" />
      </BoundProperties>
    </ImageClip>
    <ImageClip extentID="249" gapBefore="0" mediaItemID="245" duration="0.050000000000000003">
      <Effects />
      <Transitions />
      <BoundProperties>
        <BoundPropertyInt Name="rotateStepNinety" Value="0" />
      </BoundProperties>
    </ImageClip>
    <ImageClip extentID="250" gapBefore="0" mediaItemID="246" duration="0.050000000000000003">
      <Effects />
      <Transitions />
      <BoundProperties>
        <BoundPropertyInt Name="rotateStepNinety" Value="0" />
      </BoundProperties>
    </ImageClip>
    <ImageClip extentID="251" gapBefore="0" mediaItemID="247" duration="0.050000000000000003">
      <Effects />
      <Transitions />
      <BoundProperties>
        <BoundPropertyInt Name="rotateStepNinety" Value="0" />
      </BoundProperties>
    </ImageClip>
    <ImageClip extentID="252" gapBefore="0" mediaItemID="248" duration="0.050000000000000003">
      <Effects />
      <Transitions />
      <BoundProperties>
        <BoundPropertyInt Name="rotateStepNinety" Value="0" />
      </BoundProperties>
    </ImageClip>
    <ImageClip extentID="253" gapBefore="0" mediaItemID="249" duration="0.050000000000000003">
      <Effects />
      <Transitions />
      <BoundProperties>
        <BoundPropertyInt Name="rotateStepNinety" Value="0" />
      </BoundProperties>
    </ImageClip>
    <ImageClip extentID="254" gapBefore="0" mediaItemID="250" duration="0.050000000000000003">
      <Effects />
      <Transitions />
      <BoundProperties>
        <BoundPropertyInt Name="rotateStepNinety" Value="0" />
      </BoundProperties>
    </ImageClip>
    <ImageClip extentID="255" gapBefore="0" mediaItemID="251" duration="0.050000000000000003">
      <Effects />
      <Transitions />
      <BoundProperties>
        <BoundPropertyInt Name="rotateStepNinety" Value="0" />
      </BoundProperties>
    </ImageClip>
    <ImageClip extentID="256" gapBefore="0" mediaItemID="252" duration="0.050000000000000003">
      <Effects />
      <Transitions />
      <BoundProperties>
        <BoundPropertyInt Name="rotateStepNinety" Value="0" />
      </BoundProperties>
    </ImageClip>
    <ImageClip extentID="257" gapBefore="0" mediaItemID="253" duration="0.050000000000000003">
      <Effects />
      <Transitions />
      <BoundProperties>
        <BoundPropertyInt Name="rotateStepNinety" Value="0" />
      </BoundProperties>
    </ImageClip>
    <ImageClip extentID="258" gapBefore="0" mediaItemID="254" duration="0.050000000000000003">
      <Effects />
      <Transitions />
      <BoundProperties>
        <BoundPropertyInt Name="rotateStepNinety" Value="0" />
      </BoundProperties>
    </ImageClip>
    <ImageClip extentID="259" gapBefore="0" mediaItemID="255" duration="0.050000000000000003">
      <Effects />
      <Transitions />
      <BoundProperties>
        <BoundPropertyInt Name="rotateStepNinety" Value="0" />
      </BoundProperties>
    </ImageClip>
    <ImageClip extentID="260" gapBefore="0" mediaItemID="256" duration="0.050000000000000003">
      <Effects />
      <Transitions />
      <BoundProperties>
        <BoundPropertyInt Name="rotateStepNinety" Value="0" />
      </BoundProperties>
    </ImageClip>
    <ImageClip extentID="261" gapBefore="0" mediaItemID="257" duration="0.050000000000000003">
      <Effects />
      <Transitions />
      <BoundProperties>
        <BoundPropertyInt Name="rotateStepNinety" Value="0" />
      </BoundProperties>
    </ImageClip>
    <ImageClip extentID="262" gapBefore="0" mediaItemID="258" duration="0.050000000000000003">
      <Effects />
      <Transitions />
      <BoundProperties>
        <BoundPropertyInt Name="rotateStepNinety" Value="0" />
      </BoundProperties>
    </ImageClip>
    <ImageClip extentID="263" gapBefore="0" mediaItemID="259" duration="0.050000000000000003">
      <Effects />
      <Transitions />
      <BoundProperties>
        <BoundPropertyInt Name="rotateStepNinety" Value="0" />
      </BoundProperties>
    </ImageClip>
    <ImageClip extentID="264" gapBefore="0" mediaItemID="260" duration="0.050000000000000003">
      <Effects />
      <Transitions />
      <BoundProperties>
        <BoundPropertyInt Name="rotateStepNinety" Value="0" />
      </BoundProperties>
    </ImageClip>
    <ImageClip extentID="265" gapBefore="0" mediaItemID="261" duration="0.050000000000000003">
      <Effects />
      <Transitions />
      <BoundProperties>
        <BoundPropertyInt Name="rotateStepNinety" Value="0" />
      </BoundProperties>
    </ImageClip>
    <ImageClip extentID="266" gapBefore="0" mediaItemID="262" duration="0.050000000000000003">
      <Effects />
      <Transitions />
      <BoundProperties>
        <BoundPropertyInt Name="rotateStepNinety" Value="0" />
      </BoundProperties>
    </ImageClip>
    <ImageClip extentID="267" gapBefore="0" mediaItemID="263" duration="0.050000000000000003">
      <Effects />
      <Transitions />
      <BoundProperties>
        <BoundPropertyInt Name="rotateStepNinety" Value="0" />
      </BoundProperties>
    </ImageClip>
    <ImageClip extentID="268" gapBefore="0" mediaItemID="264" duration="0.050000000000000003">
      <Effects />
      <Transitions />
      <BoundProperties>
        <BoundPropertyInt Name="rotateStepNinety" Value="0" />
      </BoundProperties>
    </ImageClip>
    <ImageClip extentID="269" gapBefore="0" mediaItemID="265" duration="0.050000000000000003">
      <Effects />
      <Transitions />
      <BoundProperties>
        <BoundPropertyInt Name="rotateStepNinety" Value="0" />
      </BoundProperties>
    </ImageClip>
    <ImageClip extentID="270" gapBefore="0" mediaItemID="266" duration="0.050000000000000003">
      <Effects />
      <Transitions />
      <BoundProperties>
        <BoundPropertyInt Name="rotateStepNinety" Value="0" />
      </BoundProperties>
    </ImageClip>
    <ImageClip extentID="271" gapBefore="0" mediaItemID="267" duration="0.050000000000000003">
      <Effects />
      <Transitions />
      <BoundProperties>
        <BoundPropertyInt Name="rotateStepNinety" Value="0" />
      </BoundProperties>
    </ImageClip>
    <ImageClip extentID="272" gapBefore="0" mediaItemID="268" duration="0.050000000000000003">
      <Effects />
      <Transitions />
      <BoundProperties>
        <BoundPropertyInt Name="rotateStepNinety" Value="0" />
      </BoundProperties>
    </ImageClip>
    <ImageClip extentID="273" gapBefore="0" mediaItemID="269" duration="0.050000000000000003">
      <Effects />
      <Transitions />
      <BoundProperties>
        <BoundPropertyInt Name="rotateStepNinety" Value="0" />
      </BoundProperties>
    </ImageClip>
    <ImageClip extentID="274" gapBefore="0" mediaItemID="270" duration="0.050000000000000003">
      <Effects />
      <Transitions />
      <BoundProperties>
        <BoundPropertyInt Name="rotateStepNinety" Value="0" />
      </BoundProperties>
    </ImageClip>
    <ImageClip extentID="275" gapBefore="0" mediaItemID="271" duration="0.050000000000000003">
      <Effects />
      <Transitions />
      <BoundProperties>
        <BoundPropertyInt Name="rotateStepNinety" Value="0" />
      </BoundProperties>
    </ImageClip>
    <ImageClip extentID="276" gapBefore="0" mediaItemID="272" duration="0.050000000000000003">
      <Effects />
      <Transitions />
      <BoundProperties>
        <BoundPropertyInt Name="rotateStepNinety" Value="0" />
      </BoundProperties>
    </ImageClip>
    <ImageClip extentID="277" gapBefore="0" mediaItemID="273" duration="0.050000000000000003">
      <Effects />
      <Transitions />
      <BoundProperties>
        <BoundPropertyInt Name="rotateStepNinety" Value="0" />
      </BoundProperties>
    </ImageClip>
    <ImageClip extentID="278" gapBefore="0" mediaItemID="274" duration="0.050000000000000003">
      <Effects />
      <Transitions />
      <BoundProperties>
        <BoundPropertyInt Name="rotateStepNinety" Value="0" />
      </BoundProperties>
    </ImageClip>
    <ImageClip extentID="279" gapBefore="0" mediaItemID="275" duration="0.050000000000000003">
      <Effects />
      <Transitions />
      <BoundProperties>
        <BoundPropertyInt Name="rotateStepNinety" Value="0" />
      </BoundProperties>
    </ImageClip>
    <ImageClip extentID="280" gapBefore="0" mediaItemID="276" duration="0.050000000000000003">
      <Effects />
      <Transitions />
      <BoundProperties>
        <BoundPropertyInt Name="rotateStepNinety" Value="0" />
      </BoundProperties>
    </ImageClip>
    <ImageClip extentID="281" gapBefore="0" mediaItemID="277" duration="0.050000000000000003">
      <Effects />
      <Transitions />
      <BoundProperties>
        <BoundPropertyInt Name="rotateStepNinety" Value="0" />
      </BoundProperties>
    </ImageClip>
    <ImageClip extentID="282" gapBefore="0" mediaItemID="278" duration="0.050000000000000003">
      <Effects />
      <Transitions />
      <BoundProperties>
        <BoundPropertyInt Name="rotateStepNinety" Value="0" />
      </BoundProperties>
    </ImageClip>
    <ImageClip extentID="283" gapBefore="0" mediaItemID="279" duration="0.050000000000000003">
      <Effects />
      <Transitions />
      <BoundProperties>
        <BoundPropertyInt Name="rotateStepNinety" Value="0" />
      </BoundProperties>
    </ImageClip>
    <ImageClip extentID="284" gapBefore="0" mediaItemID="280" duration="0.050000000000000003">
      <Effects />
      <Transitions />
      <BoundProperties>
        <BoundPropertyInt Name="rotateStepNinety" Value="0" />
      </BoundProperties>
    </ImageClip>
    <ImageClip extentID="285" gapBefore="0" mediaItemID="281" duration="0.050000000000000003">
      <Effects />
      <Transitions />
      <BoundProperties>
        <BoundPropertyInt Name="rotateStepNinety" Value="0" />
      </BoundProperties>
    </ImageClip>
    <ImageClip extentID="286" gapBefore="0" mediaItemID="282" duration="0.050000000000000003">
      <Effects />
      <Transitions />
      <BoundProperties>
        <BoundPropertyInt Name="rotateStepNinety" Value="0" />
      </BoundProperties>
    </ImageClip>
    <ImageClip extentID="287" gapBefore="0" mediaItemID="283" duration="0.050000000000000003">
      <Effects />
      <Transitions />
      <BoundProperties>
        <BoundPropertyInt Name="rotateStepNinety" Value="0" />
      </BoundProperties>
    </ImageClip>
    <ImageClip extentID="288" gapBefore="0" mediaItemID="284" duration="0.050000000000000003">
      <Effects />
      <Transitions />
      <BoundProperties>
        <BoundPropertyInt Name="rotateStepNinety" Value="0" />
      </BoundProperties>
    </ImageClip>
    <ImageClip extentID="289" gapBefore="0" mediaItemID="285" duration="0.050000000000000003">
      <Effects />
      <Transitions />
      <BoundProperties>
        <BoundPropertyInt Name="rotateStepNinety" Value="0" />
      </BoundProperties>
    </ImageClip>
    <ImageClip extentID="290" gapBefore="0" mediaItemID="286" duration="0.050000000000000003">
      <Effects />
      <Transitions />
      <BoundProperties>
        <BoundPropertyInt Name="rotateStepNinety" Value="0" />
      </BoundProperties>
    </ImageClip>
    <ImageClip extentID="291" gapBefore="0" mediaItemID="287" duration="0.050000000000000003">
      <Effects />
      <Transitions />
      <BoundProperties>
        <BoundPropertyInt Name="rotateStepNinety" Value="0" />
      </BoundProperties>
    </ImageClip>
    <ImageClip extentID="292" gapBefore="0" mediaItemID="288" duration="0.050000000000000003">
      <Effects />
      <Transitions />
      <BoundProperties>
        <BoundPropertyInt Name="rotateStepNinety" Value="0" />
      </BoundProperties>
    </ImageClip>
    <ImageClip extentID="293" gapBefore="0" mediaItemID="289" duration="0.050000000000000003">
      <Effects />
      <Transitions />
      <BoundProperties>
        <BoundPropertyInt Name="rotateStepNinety" Value="0" />
      </BoundProperties>
    </ImageClip>
    <ImageClip extentID="294" gapBefore="0" mediaItemID="290" duration="0.050000000000000003">
      <Effects />
      <Transitions />
      <BoundProperties>
        <BoundPropertyInt Name="rotateStepNinety" Value="0" />
      </BoundProperties>
    </ImageClip>
    <ImageClip extentID="295" gapBefore="0" mediaItemID="291" duration="0.050000000000000003">
      <Effects />
      <Transitions />
      <BoundProperties>
        <BoundPropertyInt Name="rotateStepNinety" Value="0" />
      </BoundProperties>
    </ImageClip>
    <ImageClip extentID="296" gapBefore="0" mediaItemID="292" duration="0.050000000000000003">
      <Effects />
      <Transitions />
      <BoundProperties>
        <BoundPropertyInt Name="rotateStepNinety" Value="0" />
      </BoundProperties>
    </ImageClip>
    <ImageClip extentID="297" gapBefore="0" mediaItemID="293" duration="0.050000000000000003">
      <Effects />
      <Transitions />
      <BoundProperties>
        <BoundPropertyInt Name="rotateStepNinety" Value="0" />
      </BoundProperties>
    </ImageClip>
    <ImageClip extentID="298" gapBefore="0" mediaItemID="294" duration="0.050000000000000003">
      <Effects />
      <Transitions />
      <BoundProperties>
        <BoundPropertyInt Name="rotateStepNinety" Value="0" />
      </BoundProperties>
    </ImageClip>
    <ImageClip extentID="299" gapBefore="0" mediaItemID="295" duration="0.050000000000000003">
      <Effects />
      <Transitions />
      <BoundProperties>
        <BoundPropertyInt Name="rotateStepNinety" Value="0" />
      </BoundProperties>
    </ImageClip>
    <ImageClip extentID="300" gapBefore="0" mediaItemID="296" duration="0.050000000000000003">
      <Effects />
      <Transitions />
      <BoundProperties>
        <BoundPropertyInt Name="rotateStepNinety" Value="0" />
      </BoundProperties>
    </ImageClip>
    <ImageClip extentID="301" gapBefore="0" mediaItemID="297" duration="0.050000000000000003">
      <Effects />
      <Transitions />
      <BoundProperties>
        <BoundPropertyInt Name="rotateStepNinety" Value="0" />
      </BoundProperties>
    </ImageClip>
    <ImageClip extentID="302" gapBefore="0" mediaItemID="298" duration="0.050000000000000003">
      <Effects />
      <Transitions />
      <BoundProperties>
        <BoundPropertyInt Name="rotateStepNinety" Value="0" />
      </BoundProperties>
    </ImageClip>
    <ImageClip extentID="303" gapBefore="0" mediaItemID="299" duration="0.050000000000000003">
      <Effects />
      <Transitions />
      <BoundProperties>
        <BoundPropertyInt Name="rotateStepNinety" Value="0" />
      </BoundProperties>
    </ImageClip>
    <ImageClip extentID="304" gapBefore="0" mediaItemID="300" duration="0.050000000000000003">
      <Effects />
      <Transitions />
      <BoundProperties>
        <BoundPropertyInt Name="rotateStepNinety" Value="0" />
      </BoundProperties>
    </ImageClip>
    <ImageClip extentID="305" gapBefore="0" mediaItemID="301" duration="0.050000000000000003">
      <Effects />
      <Transitions />
      <BoundProperties>
        <BoundPropertyInt Name="rotateStepNinety" Value="0" />
      </BoundProperties>
    </ImageClip>
    <ImageClip extentID="306" gapBefore="0" mediaItemID="302" duration="0.050000000000000003">
      <Effects />
      <Transitions />
      <BoundProperties>
        <BoundPropertyInt Name="rotateStepNinety" Value="0" />
      </BoundProperties>
    </ImageClip>
    <ImageClip extentID="307" gapBefore="0" mediaItemID="303" duration="0.050000000000000003">
      <Effects />
      <Transitions />
      <BoundProperties>
        <BoundPropertyInt Name="rotateStepNinety" Value="0" />
      </BoundProperties>
    </ImageClip>
    <ImageClip extentID="308" gapBefore="0" mediaItemID="304" duration="0.050000000000000003">
      <Effects />
      <Transitions />
      <BoundProperties>
        <BoundPropertyInt Name="rotateStepNinety" Value="0" />
      </BoundProperties>
    </ImageClip>
    <ImageClip extentID="309" gapBefore="0" mediaItemID="305" duration="0.050000000000000003">
      <Effects />
      <Transitions />
      <BoundProperties>
        <BoundPropertyInt Name="rotateStepNinety" Value="0" />
      </BoundProperties>
    </ImageClip>
    <ImageClip extentID="310" gapBefore="0" mediaItemID="306" duration="0.050000000000000003">
      <Effects />
      <Transitions />
      <BoundProperties>
        <BoundPropertyInt Name="rotateStepNinety" Value="0" />
      </BoundProperties>
    </ImageClip>
    <ImageClip extentID="311" gapBefore="0" mediaItemID="307" duration="0.050000000000000003">
      <Effects />
      <Transitions />
      <BoundProperties>
        <BoundPropertyInt Name="rotateStepNinety" Value="0" />
      </BoundProperties>
    </ImageClip>
    <ImageClip extentID="312" gapBefore="0" mediaItemID="308" duration="0.050000000000000003">
      <Effects />
      <Transitions />
      <BoundProperties>
        <BoundPropertyInt Name="rotateStepNinety" Value="0" />
      </BoundProperties>
    </ImageClip>
    <ImageClip extentID="313" gapBefore="0" mediaItemID="309" duration="0.050000000000000003">
      <Effects />
      <Transitions />
      <BoundProperties>
        <BoundPropertyInt Name="rotateStepNinety" Value="0" />
      </BoundProperties>
    </ImageClip>
    <ImageClip extentID="314" gapBefore="0" mediaItemID="310" duration="0.050000000000000003">
      <Effects />
      <Transitions />
      <BoundProperties>
        <BoundPropertyInt Name="rotateStepNinety" Value="0" />
      </BoundProperties>
    </ImageClip>
    <ImageClip extentID="315" gapBefore="0" mediaItemID="311" duration="0.050000000000000003">
      <Effects />
      <Transitions />
      <BoundProperties>
        <BoundPropertyInt Name="rotateStepNinety" Value="0" />
      </BoundProperties>
    </ImageClip>
    <ImageClip extentID="316" gapBefore="0" mediaItemID="312" duration="0.050000000000000003">
      <Effects />
      <Transitions />
      <BoundProperties>
        <BoundPropertyInt Name="rotateStepNinety" Value="0" />
      </BoundProperties>
    </ImageClip>
    <ImageClip extentID="317" gapBefore="0" mediaItemID="313" duration="0.050000000000000003">
      <Effects />
      <Transitions />
      <BoundProperties>
        <BoundPropertyInt Name="rotateStepNinety" Value="0" />
      </BoundProperties>
    </ImageClip>
    <ImageClip extentID="318" gapBefore="0" mediaItemID="314" duration="0.050000000000000003">
      <Effects />
      <Transitions />
      <BoundProperties>
        <BoundPropertyInt Name="rotateStepNinety" Value="0" />
      </BoundProperties>
    </ImageClip>
    <ImageClip extentID="319" gapBefore="0" mediaItemID="315" duration="0.050000000000000003">
      <Effects />
      <Transitions />
      <BoundProperties>
        <BoundPropertyInt Name="rotateStepNinety" Value="0" />
      </BoundProperties>
    </ImageClip>
    <ImageClip extentID="320" gapBefore="0" mediaItemID="316" duration="0.050000000000000003">
      <Effects />
      <Transitions />
      <BoundProperties>
        <BoundPropertyInt Name="rotateStepNinety" Value="0" />
      </BoundProperties>
    </ImageClip>
    <ImageClip extentID="321" gapBefore="0" mediaItemID="317" duration="0.050000000000000003">
      <Effects />
      <Transitions />
      <BoundProperties>
        <BoundPropertyInt Name="rotateStepNinety" Value="0" />
      </BoundProperties>
    </ImageClip>
    <ImageClip extentID="322" gapBefore="0" mediaItemID="318" duration="0.050000000000000003">
      <Effects />
      <Transitions />
      <BoundProperties>
        <BoundPropertyInt Name="rotateStepNinety" Value="0" />
      </BoundProperties>
    </ImageClip>
    <ImageClip extentID="323" gapBefore="0" mediaItemID="319" duration="0.050000000000000003">
      <Effects />
      <Transitions />
      <BoundProperties>
        <BoundPropertyInt Name="rotateStepNinety" Value="0" />
      </BoundProperties>
    </ImageClip>
    <ImageClip extentID="324" gapBefore="0" mediaItemID="320" duration="0.050000000000000003">
      <Effects />
      <Transitions />
      <BoundProperties>
        <BoundPropertyInt Name="rotateStepNinety" Value="0" />
      </BoundProperties>
    </ImageClip>
    <ImageClip extentID="325" gapBefore="0" mediaItemID="321" duration="0.050000000000000003">
      <Effects />
      <Transitions />
      <BoundProperties>
        <BoundPropertyInt Name="rotateStepNinety" Value="0" />
      </BoundProperties>
    </ImageClip>
    <ImageClip extentID="326" gapBefore="0" mediaItemID="322" duration="0.050000000000000003">
      <Effects />
      <Transitions />
      <BoundProperties>
        <BoundPropertyInt Name="rotateStepNinety" Value="0" />
      </BoundProperties>
    </ImageClip>
    <ImageClip extentID="327" gapBefore="0" mediaItemID="323" duration="0.050000000000000003">
      <Effects />
      <Transitions />
      <BoundProperties>
        <BoundPropertyInt Name="rotateStepNinety" Value="0" />
      </BoundProperties>
    </ImageClip>
    <ImageClip extentID="328" gapBefore="0" mediaItemID="324" duration="0.050000000000000003">
      <Effects />
      <Transitions />
      <BoundProperties>
        <BoundPropertyInt Name="rotateStepNinety" Value="0" />
      </BoundProperties>
    </ImageClip>
    <ImageClip extentID="329" gapBefore="0" mediaItemID="325" duration="0.050000000000000003">
      <Effects />
      <Transitions />
      <BoundProperties>
        <BoundPropertyInt Name="rotateStepNinety" Value="0" />
      </BoundProperties>
    </ImageClip>
    <ImageClip extentID="330" gapBefore="0" mediaItemID="326" duration="0.050000000000000003">
      <Effects />
      <Transitions />
      <BoundProperties>
        <BoundPropertyInt Name="rotateStepNinety" Value="0" />
      </BoundProperties>
    </ImageClip>
    <ImageClip extentID="331" gapBefore="0" mediaItemID="327" duration="0.050000000000000003">
      <Effects />
      <Transitions />
      <BoundProperties>
        <BoundPropertyInt Name="rotateStepNinety" Value="0" />
      </BoundProperties>
    </ImageClip>
    <ImageClip extentID="332" gapBefore="0" mediaItemID="328" duration="0.050000000000000003">
      <Effects />
      <Transitions />
      <BoundProperties>
        <BoundPropertyInt Name="rotateStepNinety" Value="0" />
      </BoundProperties>
    </ImageClip>
    <ImageClip extentID="333" gapBefore="0" mediaItemID="329" duration="0.050000000000000003">
      <Effects />
      <Transitions />
      <BoundProperties>
        <BoundPropertyInt Name="rotateStepNinety" Value="0" />
      </BoundProperties>
    </ImageClip>
    <ImageClip extentID="334" gapBefore="0" mediaItemID="330" duration="0.050000000000000003">
      <Effects />
      <Transitions />
      <BoundProperties>
        <BoundPropertyInt Name="rotateStepNinety" Value="0" />
      </BoundProperties>
    </ImageClip>
    <ImageClip extentID="335" gapBefore="0" mediaItemID="331" duration="0.050000000000000003">
      <Effects />
      <Transitions />
      <BoundProperties>
        <BoundPropertyInt Name="rotateStepNinety" Value="0" />
      </BoundProperties>
    </ImageClip>
    <ImageClip extentID="336" gapBefore="0" mediaItemID="332" duration="0.050000000000000003">
      <Effects />
      <Transitions />
      <BoundProperties>
        <BoundPropertyInt Name="rotateStepNinety" Value="0" />
      </BoundProperties>
    </ImageClip>
    <ImageClip extentID="337" gapBefore="0" mediaItemID="333" duration="0.050000000000000003">
      <Effects />
      <Transitions />
      <BoundProperties>
        <BoundPropertyInt Name="rotateStepNinety" Value="0" />
      </BoundProperties>
    </ImageClip>
    <ImageClip extentID="338" gapBefore="0" mediaItemID="334" duration="0.050000000000000003">
      <Effects />
      <Transitions />
      <BoundProperties>
        <BoundPropertyInt Name="rotateStepNinety" Value="0" />
      </BoundProperties>
    </ImageClip>
    <ImageClip extentID="339" gapBefore="0" mediaItemID="335" duration="0.050000000000000003">
      <Effects />
      <Transitions />
      <BoundProperties>
        <BoundPropertyInt Name="rotateStepNinety" Value="0" />
      </BoundProperties>
    </ImageClip>
    <ImageClip extentID="340" gapBefore="0" mediaItemID="336" duration="0.050000000000000003">
      <Effects />
      <Transitions />
      <BoundProperties>
        <BoundPropertyInt Name="rotateStepNinety" Value="0" />
      </BoundProperties>
    </ImageClip>
    <ImageClip extentID="341" gapBefore="0" mediaItemID="337" duration="0.050000000000000003">
      <Effects />
      <Transitions />
      <BoundProperties>
        <BoundPropertyInt Name="rotateStepNinety" Value="0" />
      </BoundProperties>
    </ImageClip>
    <ImageClip extentID="342" gapBefore="0" mediaItemID="338" duration="0.050000000000000003">
      <Effects />
      <Transitions />
      <BoundProperties>
        <BoundPropertyInt Name="rotateStepNinety" Value="0" />
      </BoundProperties>
    </ImageClip>
    <ImageClip extentID="343" gapBefore="0" mediaItemID="339" duration="0.050000000000000003">
      <Effects />
      <Transitions />
      <BoundProperties>
        <BoundPropertyInt Name="rotateStepNinety" Value="0" />
      </BoundProperties>
    </ImageClip>
    <ImageClip extentID="344" gapBefore="0" mediaItemID="340" duration="0.050000000000000003">
      <Effects />
      <Transitions />
      <BoundProperties>
        <BoundPropertyInt Name="rotateStepNinety" Value="0" />
      </BoundProperties>
    </ImageClip>
    <ImageClip extentID="345" gapBefore="0" mediaItemID="341" duration="0.050000000000000003">
      <Effects />
      <Transitions />
      <BoundProperties>
        <BoundPropertyInt Name="rotateStepNinety" Value="0" />
      </BoundProperties>
    </ImageClip>
    <ImageClip extentID="346" gapBefore="0" mediaItemID="342" duration="0.050000000000000003">
      <Effects />
      <Transitions />
      <BoundProperties>
        <BoundPropertyInt Name="rotateStepNinety" Value="0" />
      </BoundProperties>
    </ImageClip>
    <ImageClip extentID="347" gapBefore="0" mediaItemID="343" duration="0.050000000000000003">
      <Effects />
      <Transitions />
      <BoundProperties>
        <BoundPropertyInt Name="rotateStepNinety" Value="0" />
      </BoundProperties>
    </ImageClip>
    <ImageClip extentID="348" gapBefore="0" mediaItemID="344" duration="0.050000000000000003">
      <Effects />
      <Transitions />
      <BoundProperties>
        <BoundPropertyInt Name="rotateStepNinety" Value="0" />
      </BoundProperties>
    </ImageClip>
    <ImageClip extentID="349" gapBefore="0" mediaItemID="345" duration="0.050000000000000003">
      <Effects />
      <Transitions />
      <BoundProperties>
        <BoundPropertyInt Name="rotateStepNinety" Value="0" />
      </BoundProperties>
    </ImageClip>
    <ImageClip extentID="350" gapBefore="0" mediaItemID="346" duration="0.050000000000000003">
      <Effects />
      <Transitions />
      <BoundProperties>
        <BoundPropertyInt Name="rotateStepNinety" Value="0" />
      </BoundProperties>
    </ImageClip>
    <ImageClip extentID="351" gapBefore="0" mediaItemID="347" duration="0.050000000000000003">
      <Effects />
      <Transitions />
      <BoundProperties>
        <BoundPropertyInt Name="rotateStepNinety" Value="0" />
      </BoundProperties>
    </ImageClip>
    <ImageClip extentID="352" gapBefore="0" mediaItemID="348" duration="0.050000000000000003">
      <Effects />
      <Transitions />
      <BoundProperties>
        <BoundPropertyInt Name="rotateStepNinety" Value="0" />
      </BoundProperties>
    </ImageClip>
    <ImageClip extentID="353" gapBefore="0" mediaItemID="349" duration="0.050000000000000003">
      <Effects />
      <Transitions />
      <BoundProperties>
        <BoundPropertyInt Name="rotateStepNinety" Value="0" />
      </BoundProperties>
    </ImageClip>
    <ImageClip extentID="354" gapBefore="0" mediaItemID="350" duration="0.050000000000000003">
      <Effects />
      <Transitions />
      <BoundProperties>
        <BoundPropertyInt Name="rotateStepNinety" Value="0" />
      </BoundProperties>
    </ImageClip>
    <ImageClip extentID="355" gapBefore="0" mediaItemID="351" duration="0.050000000000000003">
      <Effects />
      <Transitions />
      <BoundProperties>
        <BoundPropertyInt Name="rotateStepNinety" Value="0" />
      </BoundProperties>
    </ImageClip>
    <ImageClip extentID="356" gapBefore="0" mediaItemID="352" duration="0.050000000000000003">
      <Effects />
      <Transitions />
      <BoundProperties>
        <BoundPropertyInt Name="rotateStepNinety" Value="0" />
      </BoundProperties>
    </ImageClip>
    <ImageClip extentID="357" gapBefore="0" mediaItemID="353" duration="0.050000000000000003">
      <Effects />
      <Transitions />
      <BoundProperties>
        <BoundPropertyInt Name="rotateStepNinety" Value="0" />
      </BoundProperties>
    </ImageClip>
    <ImageClip extentID="358" gapBefore="0" mediaItemID="354" duration="0.050000000000000003">
      <Effects />
      <Transitions />
      <BoundProperties>
        <BoundPropertyInt Name="rotateStepNinety" Value="0" />
      </BoundProperties>
    </ImageClip>
    <ImageClip extentID="359" gapBefore="0" mediaItemID="355" duration="0.050000000000000003">
      <Effects />
      <Transitions />
      <BoundProperties>
        <BoundPropertyInt Name="rotateStepNinety" Value="0" />
      </BoundProperties>
    </ImageClip>
    <ImageClip extentID="360" gapBefore="0" mediaItemID="356" duration="0.050000000000000003">
      <Effects />
      <Transitions />
      <BoundProperties>
        <BoundPropertyInt Name="rotateStepNinety" Value="0" />
      </BoundProperties>
    </ImageClip>
    <ImageClip extentID="361" gapBefore="0" mediaItemID="357" duration="0.050000000000000003">
      <Effects />
      <Transitions />
      <BoundProperties>
        <BoundPropertyInt Name="rotateStepNinety" Value="0" />
      </BoundProperties>
    </ImageClip>
    <ImageClip extentID="362" gapBefore="0" mediaItemID="358" duration="0.050000000000000003">
      <Effects />
      <Transitions />
      <BoundProperties>
        <BoundPropertyInt Name="rotateStepNinety" Value="0" />
      </BoundProperties>
    </ImageClip>
    <ImageClip extentID="363" gapBefore="0" mediaItemID="359" duration="0.050000000000000003">
      <Effects />
      <Transitions />
      <BoundProperties>
        <BoundPropertyInt Name="rotateStepNinety" Value="0" />
      </BoundProperties>
    </ImageClip>
    <ImageClip extentID="364" gapBefore="0" mediaItemID="360" duration="0.050000000000000003">
      <Effects />
      <Transitions />
      <BoundProperties>
        <BoundPropertyInt Name="rotateStepNinety" Value="0" />
      </BoundProperties>
    </ImageClip>
    <ImageClip extentID="365" gapBefore="0" mediaItemID="361" duration="0.050000000000000003">
      <Effects />
      <Transitions />
      <BoundProperties>
        <BoundPropertyInt Name="rotateStepNinety" Value="0" />
      </BoundProperties>
    </ImageClip>
    <ImageClip extentID="366" gapBefore="0" mediaItemID="362" duration="0.050000000000000003">
      <Effects />
      <Transitions />
      <BoundProperties>
        <BoundPropertyInt Name="rotateStepNinety" Value="0" />
      </BoundProperties>
    </ImageClip>
    <ImageClip extentID="367" gapBefore="0" mediaItemID="363" duration="0.050000000000000003">
      <Effects />
      <Transitions />
      <BoundProperties>
        <BoundPropertyInt Name="rotateStepNinety" Value="0" />
      </BoundProperties>
    </ImageClip>
    <ImageClip extentID="368" gapBefore="0" mediaItemID="364" duration="0.050000000000000003">
      <Effects />
      <Transitions />
      <BoundProperties>
        <BoundPropertyInt Name="rotateStepNinety" Value="0" />
      </BoundProperties>
    </ImageClip>
    <ImageClip extentID="369" gapBefore="0" mediaItemID="365" duration="0.050000000000000003">
      <Effects />
      <Transitions />
      <BoundProperties>
        <BoundPropertyInt Name="rotateStepNinety" Value="0" />
      </BoundProperties>
    </ImageClip>
    <ImageClip extentID="370" gapBefore="0" mediaItemID="366" duration="0.050000000000000003">
      <Effects />
      <Transitions />
      <BoundProperties>
        <BoundPropertyInt Name="rotateStepNinety" Value="0" />
      </BoundProperties>
    </ImageClip>
    <ImageClip extentID="371" gapBefore="0" mediaItemID="367" duration="0.050000000000000003">
      <Effects />
      <Transitions />
      <BoundProperties>
        <BoundPropertyInt Name="rotateStepNinety" Value="0" />
      </BoundProperties>
    </ImageClip>
    <ImageClip extentID="372" gapBefore="0" mediaItemID="368" duration="0.050000000000000003">
      <Effects />
      <Transitions />
      <BoundProperties>
        <BoundPropertyInt Name="rotateStepNinety" Value="0" />
      </BoundProperties>
    </ImageClip>
    <ImageClip extentID="373" gapBefore="0" mediaItemID="369" duration="0.050000000000000003">
      <Effects />
      <Transitions />
      <BoundProperties>
        <BoundPropertyInt Name="rotateStepNinety" Value="0" />
      </BoundProperties>
    </ImageClip>
    <ImageClip extentID="374" gapBefore="0" mediaItemID="370" duration="0.050000000000000003">
      <Effects />
      <Transitions />
      <BoundProperties>
        <BoundPropertyInt Name="rotateStepNinety" Value="0" />
      </BoundProperties>
    </ImageClip>
    <ImageClip extentID="375" gapBefore="0" mediaItemID="371" duration="0.050000000000000003">
      <Effects />
      <Transitions />
      <BoundProperties>
        <BoundPropertyInt Name="rotateStepNinety" Value="0" />
      </BoundProperties>
    </ImageClip>
    <ImageClip extentID="376" gapBefore="0" mediaItemID="372" duration="0.050000000000000003">
      <Effects />
      <Transitions />
      <BoundProperties>
        <BoundPropertyInt Name="rotateStepNinety" Value="0" />
      </BoundProperties>
    </ImageClip>
    <ImageClip extentID="377" gapBefore="0" mediaItemID="373" duration="0.050000000000000003">
      <Effects />
      <Transitions />
      <BoundProperties>
        <BoundPropertyInt Name="rotateStepNinety" Value="0" />
      </BoundProperties>
    </ImageClip>
    <ImageClip extentID="378" gapBefore="0" mediaItemID="374" duration="0.050000000000000003">
      <Effects />
      <Transitions />
      <BoundProperties>
        <BoundPropertyInt Name="rotateStepNinety" Value="0" />
      </BoundProperties>
    </ImageClip>
    <ImageClip extentID="379" gapBefore="0" mediaItemID="375" duration="0.050000000000000003">
      <Effects />
      <Transitions />
      <BoundProperties>
        <BoundPropertyInt Name="rotateStepNinety" Value="0" />
      </BoundProperties>
    </ImageClip>
    <ImageClip extentID="380" gapBefore="0" mediaItemID="376" duration="0.050000000000000003">
      <Effects />
      <Transitions />
      <BoundProperties>
        <BoundPropertyInt Name="rotateStepNinety" Value="0" />
      </BoundProperties>
    </ImageClip>
    <ImageClip extentID="381" gapBefore="0" mediaItemID="377" duration="0.050000000000000003">
      <Effects />
      <Transitions />
      <BoundProperties>
        <BoundPropertyInt Name="rotateStepNinety" Value="0" />
      </BoundProperties>
    </ImageClip>
    <ImageClip extentID="382" gapBefore="0" mediaItemID="378" duration="0.050000000000000003">
      <Effects />
      <Transitions />
      <BoundProperties>
        <BoundPropertyInt Name="rotateStepNinety" Value="0" />
      </BoundProperties>
    </ImageClip>
    <ImageClip extentID="383" gapBefore="0" mediaItemID="379" duration="0.050000000000000003">
      <Effects />
      <Transitions />
      <BoundProperties>
        <BoundPropertyInt Name="rotateStepNinety" Value="0" />
      </BoundProperties>
    </ImageClip>
    <ImageClip extentID="384" gapBefore="0" mediaItemID="380" duration="0.050000000000000003">
      <Effects />
      <Transitions />
      <BoundProperties>
        <BoundPropertyInt Name="rotateStepNinety" Value="0" />
      </BoundProperties>
    </ImageClip>
    <ImageClip extentID="385" gapBefore="0" mediaItemID="381" duration="0.050000000000000003">
      <Effects />
      <Transitions />
      <BoundProperties>
        <BoundPropertyInt Name="rotateStepNinety" Value="0" />
      </BoundProperties>
    </ImageClip>
    <ImageClip extentID="386" gapBefore="0" mediaItemID="382" duration="0.050000000000000003">
      <Effects />
      <Transitions />
      <BoundProperties>
        <BoundPropertyInt Name="rotateStepNinety" Value="0" />
      </BoundProperties>
    </ImageClip>
    <ImageClip extentID="387" gapBefore="0" mediaItemID="383" duration="0.050000000000000003">
      <Effects />
      <Transitions />
      <BoundProperties>
        <BoundPropertyInt Name="rotateStepNinety" Value="0" />
      </BoundProperties>
    </ImageClip>
    <ImageClip extentID="388" gapBefore="0" mediaItemID="384" duration="0.050000000000000003">
      <Effects />
      <Transitions />
      <BoundProperties>
        <BoundPropertyInt Name="rotateStepNinety" Value="0" />
      </BoundProperties>
    </ImageClip>
    <ImageClip extentID="389" gapBefore="0" mediaItemID="385" duration="0.050000000000000003">
      <Effects />
      <Transitions />
      <BoundProperties>
        <BoundPropertyInt Name="rotateStepNinety" Value="0" />
      </BoundProperties>
    </ImageClip>
    <ImageClip extentID="390" gapBefore="0" mediaItemID="386" duration="0.050000000000000003">
      <Effects />
      <Transitions />
      <BoundProperties>
        <BoundPropertyInt Name="rotateStepNinety" Value="0" />
      </BoundProperties>
    </ImageClip>
    <ImageClip extentID="391" gapBefore="0" mediaItemID="387" duration="0.050000000000000003">
      <Effects />
      <Transitions />
      <BoundProperties>
        <BoundPropertyInt Name="rotateStepNinety" Value="0" />
      </BoundProperties>
    </ImageClip>
    <ImageClip extentID="392" gapBefore="0" mediaItemID="388" duration="0.050000000000000003">
      <Effects />
      <Transitions />
      <BoundProperties>
        <BoundPropertyInt Name="rotateStepNinety" Value="0" />
      </BoundProperties>
    </ImageClip>
    <ImageClip extentID="393" gapBefore="0" mediaItemID="389" duration="0.050000000000000003">
      <Effects />
      <Transitions />
      <BoundProperties>
        <BoundPropertyInt Name="rotateStepNinety" Value="0" />
      </BoundProperties>
    </ImageClip>
    <ImageClip extentID="394" gapBefore="0" mediaItemID="390" duration="0.050000000000000003">
      <Effects />
      <Transitions />
      <BoundProperties>
        <BoundPropertyInt Name="rotateStepNinety" Value="0" />
      </BoundProperties>
    </ImageClip>
    <ImageClip extentID="395" gapBefore="0" mediaItemID="391" duration="0.050000000000000003">
      <Effects />
      <Transitions />
      <BoundProperties>
        <BoundPropertyInt Name="rotateStepNinety" Value="0" />
      </BoundProperties>
    </ImageClip>
    <ImageClip extentID="396" gapBefore="0" mediaItemID="392" duration="0.050000000000000003">
      <Effects />
      <Transitions />
      <BoundProperties>
        <BoundPropertyInt Name="rotateStepNinety" Value="0" />
      </BoundProperties>
    </ImageClip>
    <ImageClip extentID="397" gapBefore="0" mediaItemID="393" duration="0.050000000000000003">
      <Effects />
      <Transitions />
      <BoundProperties>
        <BoundPropertyInt Name="rotateStepNinety" Value="0" />
      </BoundProperties>
    </ImageClip>
    <ImageClip extentID="398" gapBefore="0" mediaItemID="394" duration="0.050000000000000003">
      <Effects />
      <Transitions />
      <BoundProperties>
        <BoundPropertyInt Name="rotateStepNinety" Value="0" />
      </BoundProperties>
    </ImageClip>
    <ImageClip extentID="399" gapBefore="0" mediaItemID="395" duration="0.050000000000000003">
      <Effects />
      <Transitions />
      <BoundProperties>
        <BoundPropertyInt Name="rotateStepNinety" Value="0" />
      </BoundProperties>
    </ImageClip>
    <ImageClip extentID="400" gapBefore="0" mediaItemID="396" duration="0.050000000000000003">
      <Effects />
      <Transitions />
      <BoundProperties>
        <BoundPropertyInt Name="rotateStepNinety" Value="0" />
      </BoundProperties>
    </ImageClip>
    <ImageClip extentID="401" gapBefore="0" mediaItemID="397" duration="0.050000000000000003">
      <Effects />
      <Transitions />
      <BoundProperties>
        <BoundPropertyInt Name="rotateStepNinety" Value="0" />
      </BoundProperties>
    </ImageClip>
    <ImageClip extentID="402" gapBefore="0" mediaItemID="398" duration="0.050000000000000003">
      <Effects />
      <Transitions />
      <BoundProperties>
        <BoundPropertyInt Name="rotateStepNinety" Value="0" />
      </BoundProperties>
    </ImageClip>
    <ImageClip extentID="403" gapBefore="0" mediaItemID="399" duration="0.050000000000000003">
      <Effects />
      <Transitions />
      <BoundProperties>
        <BoundPropertyInt Name="rotateStepNinety" Value="0" />
      </BoundProperties>
    </ImageClip>
    <ImageClip extentID="404" gapBefore="0" mediaItemID="400" duration="0.050000000000000003">
      <Effects />
      <Transitions />
      <BoundProperties>
        <BoundPropertyInt Name="rotateStepNinety" Value="0" />
      </BoundProperties>
    </ImageClip>
    <ImageClip extentID="405" gapBefore="0" mediaItemID="401" duration="0.050000000000000003">
      <Effects />
      <Transitions />
      <BoundProperties>
        <BoundPropertyInt Name="rotateStepNinety" Value="0" />
      </BoundProperties>
    </ImageClip>
    <ImageClip extentID="406" gapBefore="0" mediaItemID="402" duration="0.050000000000000003">
      <Effects />
      <Transitions />
      <BoundProperties>
        <BoundPropertyInt Name="rotateStepNinety" Value="0" />
      </BoundProperties>
    </ImageClip>
    <ImageClip extentID="407" gapBefore="0" mediaItemID="403" duration="0.050000000000000003">
      <Effects />
      <Transitions />
      <BoundProperties>
        <BoundPropertyInt Name="rotateStepNinety" Value="0" />
      </BoundProperties>
    </ImageClip>
    <ImageClip extentID="408" gapBefore="0" mediaItemID="404" duration="0.050000000000000003">
      <Effects />
      <Transitions />
      <BoundProperties>
        <BoundPropertyInt Name="rotateStepNinety" Value="0" />
      </BoundProperties>
    </ImageClip>
    <ImageClip extentID="409" gapBefore="0" mediaItemID="405" duration="0.050000000000000003">
      <Effects />
      <Transitions />
      <BoundProperties>
        <BoundPropertyInt Name="rotateStepNinety" Value="0" />
      </BoundProperties>
    </ImageClip>
    <ImageClip extentID="410" gapBefore="0" mediaItemID="406" duration="0.050000000000000003">
      <Effects />
      <Transitions />
      <BoundProperties>
        <BoundPropertyInt Name="rotateStepNinety" Value="0" />
      </BoundProperties>
    </ImageClip>
    <ImageClip extentID="411" gapBefore="0" mediaItemID="407" duration="0.050000000000000003">
      <Effects />
      <Transitions />
      <BoundProperties>
        <BoundPropertyInt Name="rotateStepNinety" Value="0" />
      </BoundProperties>
    </ImageClip>
    <ImageClip extentID="412" gapBefore="0" mediaItemID="408" duration="0.050000000000000003">
      <Effects />
      <Transitions />
      <BoundProperties>
        <BoundPropertyInt Name="rotateStepNinety" Value="0" />
      </BoundProperties>
    </ImageClip>
    <ImageClip extentID="413" gapBefore="0" mediaItemID="409" duration="0.050000000000000003">
      <Effects />
      <Transitions />
      <BoundProperties>
        <BoundPropertyInt Name="rotateStepNinety" Value="0" />
      </BoundProperties>
    </ImageClip>
    <ImageClip extentID="414" gapBefore="0" mediaItemID="410" duration="0.050000000000000003">
      <Effects />
      <Transitions />
      <BoundProperties>
        <BoundPropertyInt Name="rotateStepNinety" Value="0" />
      </BoundProperties>
    </ImageClip>
    <ImageClip extentID="415" gapBefore="0" mediaItemID="411" duration="0.050000000000000003">
      <Effects />
      <Transitions />
      <BoundProperties>
        <BoundPropertyInt Name="rotateStepNinety" Value="0" />
      </BoundProperties>
    </ImageClip>
    <ImageClip extentID="416" gapBefore="0" mediaItemID="412" duration="0.050000000000000003">
      <Effects />
      <Transitions />
      <BoundProperties>
        <BoundPropertyInt Name="rotateStepNinety" Value="0" />
      </BoundProperties>
    </ImageClip>
    <ImageClip extentID="417" gapBefore="0" mediaItemID="413" duration="0.050000000000000003">
      <Effects />
      <Transitions />
      <BoundProperties>
        <BoundPropertyInt Name="rotateStepNinety" Value="0" />
      </BoundProperties>
    </ImageClip>
    <ImageClip extentID="418" gapBefore="0" mediaItemID="414" duration="0.050000000000000003">
      <Effects />
      <Transitions />
      <BoundProperties>
        <BoundPropertyInt Name="rotateStepNinety" Value="0" />
      </BoundProperties>
    </ImageClip>
    <ImageClip extentID="419" gapBefore="0" mediaItemID="415" duration="0.050000000000000003">
      <Effects />
      <Transitions />
      <BoundProperties>
        <BoundPropertyInt Name="rotateStepNinety" Value="0" />
      </BoundProperties>
    </ImageClip>
    <ImageClip extentID="420" gapBefore="0" mediaItemID="416" duration="0.050000000000000003">
      <Effects />
      <Transitions />
      <BoundProperties>
        <BoundPropertyInt Name="rotateStepNinety" Value="0" />
      </BoundProperties>
    </ImageClip>
    <ImageClip extentID="421" gapBefore="0" mediaItemID="417" duration="0.050000000000000003">
      <Effects />
      <Transitions />
      <BoundProperties>
        <BoundPropertyInt Name="rotateStepNinety" Value="0" />
      </BoundProperties>
    </ImageClip>
    <ImageClip extentID="422" gapBefore="0" mediaItemID="418" duration="0.050000000000000003">
      <Effects />
      <Transitions />
      <BoundProperties>
        <BoundPropertyInt Name="rotateStepNinety" Value="0" />
      </BoundProperties>
    </ImageClip>
    <ImageClip extentID="423" gapBefore="0" mediaItemID="419" duration="0.050000000000000003">
      <Effects />
      <Transitions />
      <BoundProperties>
        <BoundPropertyInt Name="rotateStepNinety" Value="0" />
      </BoundProperties>
    </ImageClip>
    <ImageClip extentID="424" gapBefore="0" mediaItemID="420" duration="0.050000000000000003">
      <Effects />
      <Transitions />
      <BoundProperties>
        <BoundPropertyInt Name="rotateStepNinety" Value="0" />
      </BoundProperties>
    </ImageClip>
    <ImageClip extentID="425" gapBefore="0" mediaItemID="421" duration="0.050000000000000003">
      <Effects />
      <Transitions />
      <BoundProperties>
        <BoundPropertyInt Name="rotateStepNinety" Value="0" />
      </BoundProperties>
    </ImageClip>
    <ImageClip extentID="426" gapBefore="0" mediaItemID="422" duration="0.050000000000000003">
      <Effects />
      <Transitions />
      <BoundProperties>
        <BoundPropertyInt Name="rotateStepNinety" Value="0" />
      </BoundProperties>
    </ImageClip>
    <ImageClip extentID="427" gapBefore="0" mediaItemID="423" duration="0.050000000000000003">
      <Effects />
      <Transitions />
      <BoundProperties>
        <BoundPropertyInt Name="rotateStepNinety" Value="0" />
      </BoundProperties>
    </ImageClip>
    <ImageClip extentID="428" gapBefore="0" mediaItemID="424" duration="0.050000000000000003">
      <Effects />
      <Transitions />
      <BoundProperties>
        <BoundPropertyInt Name="rotateStepNinety" Value="0" />
      </BoundProperties>
    </ImageClip>
    <ImageClip extentID="429" gapBefore="0" mediaItemID="425" duration="0.050000000000000003">
      <Effects />
      <Transitions />
      <BoundProperties>
        <BoundPropertyInt Name="rotateStepNinety" Value="0" />
      </BoundProperties>
    </ImageClip>
    <ImageClip extentID="430" gapBefore="0" mediaItemID="426" duration="0.050000000000000003">
      <Effects />
      <Transitions />
      <BoundProperties>
        <BoundPropertyInt Name="rotateStepNinety" Value="0" />
      </BoundProperties>
    </ImageClip>
    <ImageClip extentID="431" gapBefore="0" mediaItemID="427" duration="0.050000000000000003">
      <Effects />
      <Transitions />
      <BoundProperties>
        <BoundPropertyInt Name="rotateStepNinety" Value="0" />
      </BoundProperties>
    </ImageClip>
    <ImageClip extentID="432" gapBefore="0" mediaItemID="428" duration="0.050000000000000003">
      <Effects />
      <Transitions />
      <BoundProperties>
        <BoundPropertyInt Name="rotateStepNinety" Value="0" />
      </BoundProperties>
    </ImageClip>
    <ImageClip extentID="433" gapBefore="0" mediaItemID="429" duration="0.050000000000000003">
      <Effects />
      <Transitions />
      <BoundProperties>
        <BoundPropertyInt Name="rotateStepNinety" Value="0" />
      </BoundProperties>
    </ImageClip>
    <ImageClip extentID="434" gapBefore="0" mediaItemID="430" duration="0.050000000000000003">
      <Effects />
      <Transitions />
      <BoundProperties>
        <BoundPropertyInt Name="rotateStepNinety" Value="0" />
      </BoundProperties>
    </ImageClip>
    <ImageClip extentID="435" gapBefore="0" mediaItemID="431" duration="0.050000000000000003">
      <Effects />
      <Transitions />
      <BoundProperties>
        <BoundPropertyInt Name="rotateStepNinety" Value="0" />
      </BoundProperties>
    </ImageClip>
    <ImageClip extentID="436" gapBefore="0" mediaItemID="432" duration="0.050000000000000003">
      <Effects />
      <Transitions />
      <BoundProperties>
        <BoundPropertyInt Name="rotateStepNinety" Value="0" />
      </BoundProperties>
    </ImageClip>
    <ImageClip extentID="437" gapBefore="0" mediaItemID="433" duration="0.050000000000000003">
      <Effects />
      <Transitions />
      <BoundProperties>
        <BoundPropertyInt Name="rotateStepNinety" Value="0" />
      </BoundProperties>
    </ImageClip>
    <ImageClip extentID="438" gapBefore="0" mediaItemID="434" duration="0.050000000000000003">
      <Effects />
      <Transitions />
      <BoundProperties>
        <BoundPropertyInt Name="rotateStepNinety" Value="0" />
      </BoundProperties>
    </ImageClip>
    <ImageClip extentID="439" gapBefore="0" mediaItemID="435" duration="0.050000000000000003">
      <Effects />
      <Transitions />
      <BoundProperties>
        <BoundPropertyInt Name="rotateStepNinety" Value="0" />
      </BoundProperties>
    </ImageClip>
    <ImageClip extentID="440" gapBefore="0" mediaItemID="436" duration="0.050000000000000003">
      <Effects />
      <Transitions />
      <BoundProperties>
        <BoundPropertyInt Name="rotateStepNinety" Value="0" />
      </BoundProperties>
    </ImageClip>
    <ImageClip extentID="441" gapBefore="0" mediaItemID="437" duration="0.050000000000000003">
      <Effects />
      <Transitions />
      <BoundProperties>
        <BoundPropertyInt Name="rotateStepNinety" Value="0" />
      </BoundProperties>
    </ImageClip>
    <ImageClip extentID="442" gapBefore="0" mediaItemID="438" duration="0.050000000000000003">
      <Effects />
      <Transitions />
      <BoundProperties>
        <BoundPropertyInt Name="rotateStepNinety" Value="0" />
      </BoundProperties>
    </ImageClip>
    <ImageClip extentID="443" gapBefore="0" mediaItemID="439" duration="0.050000000000000003">
      <Effects />
      <Transitions />
      <BoundProperties>
        <BoundPropertyInt Name="rotateStepNinety" Value="0" />
      </BoundProperties>
    </ImageClip>
    <ImageClip extentID="444" gapBefore="0" mediaItemID="440" duration="0.050000000000000003">
      <Effects />
      <Transitions />
      <BoundProperties>
        <BoundPropertyInt Name="rotateStepNinety" Value="0" />
      </BoundProperties>
    </ImageClip>
    <ImageClip extentID="445" gapBefore="0" mediaItemID="441" duration="0.050000000000000003">
      <Effects />
      <Transitions />
      <BoundProperties>
        <BoundPropertyInt Name="rotateStepNinety" Value="0" />
      </BoundProperties>
    </ImageClip>
    <ImageClip extentID="446" gapBefore="0" mediaItemID="442" duration="0.050000000000000003">
      <Effects />
      <Transitions />
      <BoundProperties>
        <BoundPropertyInt Name="rotateStepNinety" Value="0" />
      </BoundProperties>
    </ImageClip>
    <ImageClip extentID="447" gapBefore="0" mediaItemID="443" duration="0.050000000000000003">
      <Effects />
      <Transitions />
      <BoundProperties>
        <BoundPropertyInt Name="rotateStepNinety" Value="0" />
      </BoundProperties>
    </ImageClip>
    <ImageClip extentID="448" gapBefore="0" mediaItemID="444" duration="0.050000000000000003">
      <Effects />
      <Transitions />
      <BoundProperties>
        <BoundPropertyInt Name="rotateStepNinety" Value="0" />
      </BoundProperties>
    </ImageClip>
    <ImageClip extentID="449" gapBefore="0" mediaItemID="445" duration="0.050000000000000003">
      <Effects />
      <Transitions />
      <BoundProperties>
        <BoundPropertyInt Name="rotateStepNinety" Value="0" />
      </BoundProperties>
    </ImageClip>
    <ImageClip extentID="450" gapBefore="0" mediaItemID="446" duration="0.050000000000000003">
      <Effects />
      <Transitions />
      <BoundProperties>
        <BoundPropertyInt Name="rotateStepNinety" Value="0" />
      </BoundProperties>
    </ImageClip>
    <ImageClip extentID="451" gapBefore="0" mediaItemID="447" duration="0.050000000000000003">
      <Effects />
      <Transitions />
      <BoundProperties>
        <BoundPropertyInt Name="rotateStepNinety" Value="0" />
      </BoundProperties>
    </ImageClip>
    <ImageClip extentID="452" gapBefore="0" mediaItemID="448" duration="0.050000000000000003">
      <Effects />
      <Transitions />
      <BoundProperties>
        <BoundPropertyInt Name="rotateStepNinety" Value="0" />
      </BoundProperties>
    </ImageClip>
    <ImageClip extentID="453" gapBefore="0" mediaItemID="449" duration="0.050000000000000003">
      <Effects />
      <Transitions />
      <BoundProperties>
        <BoundPropertyInt Name="rotateStepNinety" Value="0" />
      </BoundProperties>
    </ImageClip>
    <ImageClip extentID="454" gapBefore="0" mediaItemID="450" duration="0.050000000000000003">
      <Effects />
      <Transitions />
      <BoundProperties>
        <BoundPropertyInt Name="rotateStepNinety" Value="0" />
      </BoundProperties>
    </ImageClip>
    <ImageClip extentID="455" gapBefore="0" mediaItemID="451" duration="0.050000000000000003">
      <Effects />
      <Transitions />
      <BoundProperties>
        <BoundPropertyInt Name="rotateStepNinety" Value="0" />
      </BoundProperties>
    </ImageClip>
    <ImageClip extentID="456" gapBefore="0" mediaItemID="452" duration="0.050000000000000003">
      <Effects />
      <Transitions />
      <BoundProperties>
        <BoundPropertyInt Name="rotateStepNinety" Value="0" />
      </BoundProperties>
    </ImageClip>
    <ImageClip extentID="457" gapBefore="0" mediaItemID="453" duration="0.050000000000000003">
      <Effects />
      <Transitions />
      <BoundProperties>
        <BoundPropertyInt Name="rotateStepNinety" Value="0" />
      </BoundProperties>
    </ImageClip>
    <ImageClip extentID="458" gapBefore="0" mediaItemID="454" duration="0.050000000000000003">
      <Effects />
      <Transitions />
      <BoundProperties>
        <BoundPropertyInt Name="rotateStepNinety" Value="0" />
      </BoundProperties>
    </ImageClip>
    <ImageClip extentID="459" gapBefore="0" mediaItemID="455" duration="0.050000000000000003">
      <Effects />
      <Transitions />
      <BoundProperties>
        <BoundPropertyInt Name="rotateStepNinety" Value="0" />
      </BoundProperties>
    </ImageClip>
    <ImageClip extentID="460" gapBefore="0" mediaItemID="456" duration="0.050000000000000003">
      <Effects />
      <Transitions />
      <BoundProperties>
        <BoundPropertyInt Name="rotateStepNinety" Value="0" />
      </BoundProperties>
    </ImageClip>
    <ImageClip extentID="461" gapBefore="0" mediaItemID="457" duration="0.050000000000000003">
      <Effects />
      <Transitions />
      <BoundProperties>
        <BoundPropertyInt Name="rotateStepNinety" Value="0" />
      </BoundProperties>
    </ImageClip>
    <ImageClip extentID="462" gapBefore="0" mediaItemID="458" duration="0.050000000000000003">
      <Effects />
      <Transitions />
      <BoundProperties>
        <BoundPropertyInt Name="rotateStepNinety" Value="0" />
      </BoundProperties>
    </ImageClip>
    <ImageClip extentID="463" gapBefore="0" mediaItemID="459" duration="0.050000000000000003">
      <Effects />
      <Transitions />
      <BoundProperties>
        <BoundPropertyInt Name="rotateStepNinety" Value="0" />
      </BoundProperties>
    </ImageClip>
    <ImageClip extentID="464" gapBefore="0" mediaItemID="460" duration="0.050000000000000003">
      <Effects />
      <Transitions />
      <BoundProperties>
        <BoundPropertyInt Name="rotateStepNinety" Value="0" />
      </BoundProperties>
    </ImageClip>
    <ImageClip extentID="465" gapBefore="0" mediaItemID="461" duration="0.050000000000000003">
      <Effects />
      <Transitions />
      <BoundProperties>
        <BoundPropertyInt Name="rotateStepNinety" Value="0" />
      </BoundProperties>
    </ImageClip>
    <ImageClip extentID="466" gapBefore="0" mediaItemID="462" duration="0.050000000000000003">
      <Effects />
      <Transitions />
      <BoundProperties>
        <BoundPropertyInt Name="rotateStepNinety" Value="0" />
      </BoundProperties>
    </ImageClip>
    <ImageClip extentID="467" gapBefore="0" mediaItemID="463" duration="0.050000000000000003">
      <Effects />
      <Transitions />
      <BoundProperties>
        <BoundPropertyInt Name="rotateStepNinety" Value="0" />
      </BoundProperties>
    </ImageClip>
    <ImageClip extentID="468" gapBefore="0" mediaItemID="464" duration="0.050000000000000003">
      <Effects />
      <Transitions />
      <BoundProperties>
        <BoundPropertyInt Name="rotateStepNinety" Value="0" />
      </BoundProperties>
    </ImageClip>
    <ImageClip extentID="469" gapBefore="0" mediaItemID="465" duration="0.050000000000000003">
      <Effects />
      <Transitions />
      <BoundProperties>
        <BoundPropertyInt Name="rotateStepNinety" Value="0" />
      </BoundProperties>
    </ImageClip>
    <ImageClip extentID="470" gapBefore="0" mediaItemID="466" duration="0.050000000000000003">
      <Effects />
      <Transitions />
      <BoundProperties>
        <BoundPropertyInt Name="rotateStepNinety" Value="0" />
      </BoundProperties>
    </ImageClip>
    <ImageClip extentID="471" gapBefore="0" mediaItemID="467" duration="0.050000000000000003">
      <Effects />
      <Transitions />
      <BoundProperties>
        <BoundPropertyInt Name="rotateStepNinety" Value="0" />
      </BoundProperties>
    </ImageClip>
    <ImageClip extentID="472" gapBefore="0" mediaItemID="468" duration="0.050000000000000003">
      <Effects />
      <Transitions />
      <BoundProperties>
        <BoundPropertyInt Name="rotateStepNinety" Value="0" />
      </BoundProperties>
    </ImageClip>
    <ImageClip extentID="473" gapBefore="0" mediaItemID="469" duration="0.050000000000000003">
      <Effects />
      <Transitions />
      <BoundProperties>
        <BoundPropertyInt Name="rotateStepNinety" Value="0" />
      </BoundProperties>
    </ImageClip>
    <ImageClip extentID="474" gapBefore="0" mediaItemID="470" duration="0.050000000000000003">
      <Effects />
      <Transitions />
      <BoundProperties>
        <BoundPropertyInt Name="rotateStepNinety" Value="0" />
      </BoundProperties>
    </ImageClip>
    <ImageClip extentID="475" gapBefore="0" mediaItemID="471" duration="0.050000000000000003">
      <Effects />
      <Transitions />
      <BoundProperties>
        <BoundPropertyInt Name="rotateStepNinety" Value="0" />
      </BoundProperties>
    </ImageClip>
    <ImageClip extentID="476" gapBefore="0" mediaItemID="472" duration="0.050000000000000003">
      <Effects />
      <Transitions />
      <BoundProperties>
        <BoundPropertyInt Name="rotateStepNinety" Value="0" />
      </BoundProperties>
    </ImageClip>
    <ImageClip extentID="477" gapBefore="0" mediaItemID="473" duration="0.050000000000000003">
      <Effects />
      <Transitions />
      <BoundProperties>
        <BoundPropertyInt Name="rotateStepNinety" Value="0" />
      </BoundProperties>
    </ImageClip>
    <ImageClip extentID="478" gapBefore="0" mediaItemID="474" duration="0.050000000000000003">
      <Effects />
      <Transitions />
      <BoundProperties>
        <BoundPropertyInt Name="rotateStepNinety" Value="0" />
      </BoundProperties>
    </ImageClip>
    <ImageClip extentID="479" gapBefore="0" mediaItemID="475" duration="0.050000000000000003">
      <Effects />
      <Transitions />
      <BoundProperties>
        <BoundPropertyInt Name="rotateStepNinety" Value="0" />
      </BoundProperties>
    </ImageClip>
    <ImageClip extentID="480" gapBefore="0" mediaItemID="476" duration="0.050000000000000003">
      <Effects />
      <Transitions />
      <BoundProperties>
        <BoundPropertyInt Name="rotateStepNinety" Value="0" />
      </BoundProperties>
    </ImageClip>
    <ImageClip extentID="481" gapBefore="0" mediaItemID="477" duration="0.050000000000000003">
      <Effects />
      <Transitions />
      <BoundProperties>
        <BoundPropertyInt Name="rotateStepNinety" Value="0" />
      </BoundProperties>
    </ImageClip>
    <ImageClip extentID="482" gapBefore="0" mediaItemID="478" duration="0.050000000000000003">
      <Effects />
      <Transitions />
      <BoundProperties>
        <BoundPropertyInt Name="rotateStepNinety" Value="0" />
      </BoundProperties>
    </ImageClip>
    <ImageClip extentID="483" gapBefore="0" mediaItemID="479" duration="0.050000000000000003">
      <Effects />
      <Transitions />
      <BoundProperties>
        <BoundPropertyInt Name="rotateStepNinety" Value="0" />
      </BoundProperties>
    </ImageClip>
    <ImageClip extentID="484" gapBefore="0" mediaItemID="480" duration="0.050000000000000003">
      <Effects />
      <Transitions />
      <BoundProperties>
        <BoundPropertyInt Name="rotateStepNinety" Value="0" />
      </BoundProperties>
    </ImageClip>
    <ImageClip extentID="485" gapBefore="0" mediaItemID="481" duration="0.050000000000000003">
      <Effects />
      <Transitions />
      <BoundProperties>
        <BoundPropertyInt Name="rotateStepNinety" Value="0" />
      </BoundProperties>
    </ImageClip>
    <ImageClip extentID="486" gapBefore="0" mediaItemID="482" duration="0.050000000000000003">
      <Effects />
      <Transitions />
      <BoundProperties>
        <BoundPropertyInt Name="rotateStepNinety" Value="0" />
      </BoundProperties>
    </ImageClip>
    <ImageClip extentID="487" gapBefore="0" mediaItemID="483" duration="0.050000000000000003">
      <Effects />
      <Transitions />
      <BoundProperties>
        <BoundPropertyInt Name="rotateStepNinety" Value="0" />
      </BoundProperties>
    </ImageClip>
    <ImageClip extentID="488" gapBefore="0" mediaItemID="484" duration="0.050000000000000003">
      <Effects />
      <Transitions />
      <BoundProperties>
        <BoundPropertyInt Name="rotateStepNinety" Value="0" />
      </BoundProperties>
    </ImageClip>
    <ImageClip extentID="489" gapBefore="0" mediaItemID="485" duration="0.050000000000000003">
      <Effects />
      <Transitions />
      <BoundProperties>
        <BoundPropertyInt Name="rotateStepNinety" Value="0" />
      </BoundProperties>
    </ImageClip>
    <ImageClip extentID="490" gapBefore="0" mediaItemID="486" duration="0.050000000000000003">
      <Effects />
      <Transitions />
      <BoundProperties>
        <BoundPropertyInt Name="rotateStepNinety" Value="0" />
      </BoundProperties>
    </ImageClip>
    <ImageClip extentID="491" gapBefore="0" mediaItemID="487" duration="0.050000000000000003">
      <Effects />
      <Transitions />
      <BoundProperties>
        <BoundPropertyInt Name="rotateStepNinety" Value="0" />
      </BoundProperties>
    </ImageClip>
    <ImageClip extentID="492" gapBefore="0" mediaItemID="488" duration="0.050000000000000003">
      <Effects />
      <Transitions />
      <BoundProperties>
        <BoundPropertyInt Name="rotateStepNinety" Value="0" />
      </BoundProperties>
    </ImageClip>
    <ImageClip extentID="493" gapBefore="0" mediaItemID="489" duration="0.050000000000000003">
      <Effects />
      <Transitions />
      <BoundProperties>
        <BoundPropertyInt Name="rotateStepNinety" Value="0" />
      </BoundProperties>
    </ImageClip>
    <ImageClip extentID="494" gapBefore="0" mediaItemID="490" duration="0.050000000000000003">
      <Effects />
      <Transitions />
      <BoundProperties>
        <BoundPropertyInt Name="rotateStepNinety" Value="0" />
      </BoundProperties>
    </ImageClip>
    <ImageClip extentID="495" gapBefore="0" mediaItemID="491" duration="0.050000000000000003">
      <Effects />
      <Transitions />
      <BoundProperties>
        <BoundPropertyInt Name="rotateStepNinety" Value="0" />
      </BoundProperties>
    </ImageClip>
    <ImageClip extentID="496" gapBefore="0" mediaItemID="492" duration="0.050000000000000003">
      <Effects />
      <Transitions />
      <BoundProperties>
        <BoundPropertyInt Name="rotateStepNinety" Value="0" />
      </BoundProperties>
    </ImageClip>
    <ImageClip extentID="497" gapBefore="0" mediaItemID="493" duration="0.050000000000000003">
      <Effects />
      <Transitions />
      <BoundProperties>
        <BoundPropertyInt Name="rotateStepNinety" Value="0" />
      </BoundProperties>
    </ImageClip>
    <ImageClip extentID="498" gapBefore="0" mediaItemID="494" duration="0.050000000000000003">
      <Effects />
      <Transitions />
      <BoundProperties>
        <BoundPropertyInt Name="rotateStepNinety" Value="0" />
      </BoundProperties>
    </ImageClip>
    <ImageClip extentID="499" gapBefore="0" mediaItemID="495" duration="0.050000000000000003">
      <Effects />
      <Transitions />
      <BoundProperties>
        <BoundPropertyInt Name="rotateStepNinety" Value="0" />
      </BoundProperties>
    </ImageClip>
    <ImageClip extentID="500" gapBefore="0" mediaItemID="496" duration="0.050000000000000003">
      <Effects />
      <Transitions />
      <BoundProperties>
        <BoundPropertyInt Name="rotateStepNinety" Value="0" />
      </BoundProperties>
    </ImageClip>
    <ImageClip extentID="501" gapBefore="0" mediaItemID="497" duration="0.050000000000000003">
      <Effects />
      <Transitions />
      <BoundProperties>
        <BoundPropertyInt Name="rotateStepNinety" Value="0" />
      </BoundProperties>
    </ImageClip>
    <ImageClip extentID="502" gapBefore="0" mediaItemID="498" duration="0.050000000000000003">
      <Effects />
      <Transitions />
      <BoundProperties>
        <BoundPropertyInt Name="rotateStepNinety" Value="0" />
      </BoundProperties>
    </ImageClip>
    <ImageClip extentID="503" gapBefore="0" mediaItemID="499" duration="0.050000000000000003">
      <Effects />
      <Transitions />
      <BoundProperties>
        <BoundPropertyInt Name="rotateStepNinety" Value="0" />
      </BoundProperties>
    </ImageClip>
    <ImageClip extentID="504" gapBefore="0" mediaItemID="500" duration="0.050000000000000003">
      <Effects />
      <Transitions />
      <BoundProperties>
        <BoundPropertyInt Name="rotateStepNinety" Value="0" />
      </BoundProperties>
    </ImageClip>
    <ImageClip extentID="505" gapBefore="0" mediaItemID="501" duration="0.050000000000000003">
      <Effects />
      <Transitions />
      <BoundProperties>
        <BoundPropertyInt Name="rotateStepNinety" Value="0" />
      </BoundProperties>
    </ImageClip>
    <ImageClip extentID="506" gapBefore="0" mediaItemID="502" duration="0.050000000000000003">
      <Effects />
      <Transitions />
      <BoundProperties>
        <BoundPropertyInt Name="rotateStepNinety" Value="0" />
      </BoundProperties>
    </ImageClip>
    <ImageClip extentID="507" gapBefore="0" mediaItemID="503" duration="0.050000000000000003">
      <Effects />
      <Transitions />
      <BoundProperties>
        <BoundPropertyInt Name="rotateStepNinety" Value="0" />
      </BoundProperties>
    </ImageClip>
    <ImageClip extentID="508" gapBefore="0" mediaItemID="504" duration="0.050000000000000003">
      <Effects />
      <Transitions />
      <BoundProperties>
        <BoundPropertyInt Name="rotateStepNinety" Value="0" />
      </BoundProperties>
    </ImageClip>
    <ImageClip extentID="509" gapBefore="0" mediaItemID="505" duration="0.050000000000000003">
      <Effects />
      <Transitions />
      <BoundProperties>
        <BoundPropertyInt Name="rotateStepNinety" Value="0" />
      </BoundProperties>
    </ImageClip>
    <ImageClip extentID="510" gapBefore="0" mediaItemID="506" duration="0.050000000000000003">
      <Effects />
      <Transitions />
      <BoundProperties>
        <BoundPropertyInt Name="rotateStepNinety" Value="0" />
      </BoundProperties>
    </ImageClip>
    <ImageClip extentID="511" gapBefore="0" mediaItemID="507" duration="0.050000000000000003">
      <Effects />
      <Transitions />
      <BoundProperties>
        <BoundPropertyInt Name="rotateStepNinety" Value="0" />
      </BoundProperties>
    </ImageClip>
    <ImageClip extentID="512" gapBefore="0" mediaItemID="508" duration="0.050000000000000003">
      <Effects />
      <Transitions />
      <BoundProperties>
        <BoundPropertyInt Name="rotateStepNinety" Value="0" />
      </BoundProperties>
    </ImageClip>
    <ImageClip extentID="513" gapBefore="0" mediaItemID="509" duration="0.050000000000000003">
      <Effects />
      <Transitions />
      <BoundProperties>
        <BoundPropertyInt Name="rotateStepNinety" Value="0" />
      </BoundProperties>
    </ImageClip>
    <ImageClip extentID="514" gapBefore="0" mediaItemID="510" duration="0.050000000000000003">
      <Effects />
      <Transitions />
      <BoundProperties>
        <BoundPropertyInt Name="rotateStepNinety" Value="0" />
      </BoundProperties>
    </ImageClip>
    <ImageClip extentID="515" gapBefore="0" mediaItemID="511" duration="0.050000000000000003">
      <Effects />
      <Transitions />
      <BoundProperties>
        <BoundPropertyInt Name="rotateStepNinety" Value="0" />
      </BoundProperties>
    </ImageClip>
    <ImageClip extentID="516" gapBefore="0" mediaItemID="512" duration="0.050000000000000003">
      <Effects />
      <Transitions />
      <BoundProperties>
        <BoundPropertyInt Name="rotateStepNinety" Value="0" />
      </BoundProperties>
    </ImageClip>
    <ImageClip extentID="517" gapBefore="0" mediaItemID="513" duration="0.050000000000000003">
      <Effects />
      <Transitions />
      <BoundProperties>
        <BoundPropertyInt Name="rotateStepNinety" Value="0" />
      </BoundProperties>
    </ImageClip>
    <ImageClip extentID="518" gapBefore="0" mediaItemID="514" duration="0.050000000000000003">
      <Effects />
      <Transitions />
      <BoundProperties>
        <BoundPropertyInt Name="rotateStepNinety" Value="0" />
      </BoundProperties>
    </ImageClip>
    <ImageClip extentID="519" gapBefore="0" mediaItemID="515" duration="0.050000000000000003">
      <Effects />
      <Transitions />
      <BoundProperties>
        <BoundPropertyInt Name="rotateStepNinety" Value="0" />
      </BoundProperties>
    </ImageClip>
    <ImageClip extentID="520" gapBefore="0" mediaItemID="516" duration="0.050000000000000003">
      <Effects />
      <Transitions />
      <BoundProperties>
        <BoundPropertyInt Name="rotateStepNinety" Value="0" />
      </BoundProperties>
    </ImageClip>
    <ImageClip extentID="521" gapBefore="0" mediaItemID="517" duration="0.050000000000000003">
      <Effects />
      <Transitions />
      <BoundProperties>
        <BoundPropertyInt Name="rotateStepNinety" Value="0" />
      </BoundProperties>
    </ImageClip>
    <ImageClip extentID="522" gapBefore="0" mediaItemID="518" duration="0.050000000000000003">
      <Effects />
      <Transitions />
      <BoundProperties>
        <BoundPropertyInt Name="rotateStepNinety" Value="0" />
      </BoundProperties>
    </ImageClip>
    <ImageClip extentID="523" gapBefore="0" mediaItemID="519" duration="0.050000000000000003">
      <Effects />
      <Transitions />
      <BoundProperties>
        <BoundPropertyInt Name="rotateStepNinety" Value="0" />
      </BoundProperties>
    </ImageClip>
    <ImageClip extentID="524" gapBefore="0" mediaItemID="520" duration="0.050000000000000003">
      <Effects />
      <Transitions />
      <BoundProperties>
        <BoundPropertyInt Name="rotateStepNinety" Value="0" />
      </BoundProperties>
    </ImageClip>
    <ImageClip extentID="525" gapBefore="0" mediaItemID="521" duration="0.050000000000000003">
      <Effects />
      <Transitions />
      <BoundProperties>
        <BoundPropertyInt Name="rotateStepNinety" Value="0" />
      </BoundProperties>
    </ImageClip>
    <ImageClip extentID="526" gapBefore="0" mediaItemID="522" duration="0.050000000000000003">
      <Effects />
      <Transitions />
      <BoundProperties>
        <BoundPropertyInt Name="rotateStepNinety" Value="0" />
      </BoundProperties>
    </ImageClip>
    <ImageClip extentID="527" gapBefore="0" mediaItemID="523" duration="0.050000000000000003">
      <Effects />
      <Transitions />
      <BoundProperties>
        <BoundPropertyInt Name="rotateStepNinety" Value="0" />
      </BoundProperties>
    </ImageClip>
    <ImageClip extentID="528" gapBefore="0" mediaItemID="524" duration="0.050000000000000003">
      <Effects />
      <Transitions />
      <BoundProperties>
        <BoundPropertyInt Name="rotateStepNinety" Value="0" />
      </BoundProperties>
    </ImageClip>
    <ImageClip extentID="529" gapBefore="0" mediaItemID="525" duration="0.050000000000000003">
      <Effects />
      <Transitions />
      <BoundProperties>
        <BoundPropertyInt Name="rotateStepNinety" Value="0" />
      </BoundProperties>
    </ImageClip>
    <ImageClip extentID="530" gapBefore="0" mediaItemID="526" duration="0.050000000000000003">
      <Effects />
      <Transitions />
      <BoundProperties>
        <BoundPropertyInt Name="rotateStepNinety" Value="0" />
      </BoundProperties>
    </ImageClip>
    <ImageClip extentID="531" gapBefore="0" mediaItemID="527" duration="0.050000000000000003">
      <Effects />
      <Transitions />
      <BoundProperties>
        <BoundPropertyInt Name="rotateStepNinety" Value="0" />
      </BoundProperties>
    </ImageClip>
    <ImageClip extentID="532" gapBefore="0" mediaItemID="528" duration="0.050000000000000003">
      <Effects />
      <Transitions />
      <BoundProperties>
        <BoundPropertyInt Name="rotateStepNinety" Value="0" />
      </BoundProperties>
    </ImageClip>
    <ImageClip extentID="533" gapBefore="0" mediaItemID="529" duration="0.050000000000000003">
      <Effects />
      <Transitions />
      <BoundProperties>
        <BoundPropertyInt Name="rotateStepNinety" Value="0" />
      </BoundProperties>
    </ImageClip>
    <ImageClip extentID="534" gapBefore="0" mediaItemID="530" duration="0.050000000000000003">
      <Effects />
      <Transitions />
      <BoundProperties>
        <BoundPropertyInt Name="rotateStepNinety" Value="0" />
      </BoundProperties>
    </ImageClip>
    <ImageClip extentID="535" gapBefore="0" mediaItemID="531" duration="0.050000000000000003">
      <Effects />
      <Transitions />
      <BoundProperties>
        <BoundPropertyInt Name="rotateStepNinety" Value="0" />
      </BoundProperties>
    </ImageClip>
    <ImageClip extentID="536" gapBefore="0" mediaItemID="532" duration="0.050000000000000003">
      <Effects />
      <Transitions />
      <BoundProperties>
        <BoundPropertyInt Name="rotateStepNinety" Value="0" />
      </BoundProperties>
    </ImageClip>
    <ImageClip extentID="537" gapBefore="0" mediaItemID="533" duration="0.050000000000000003">
      <Effects />
      <Transitions />
      <BoundProperties>
        <BoundPropertyInt Name="rotateStepNinety" Value="0" />
      </BoundProperties>
    </ImageClip>
    <ImageClip extentID="538" gapBefore="0" mediaItemID="534" duration="0.050000000000000003">
      <Effects />
      <Transitions />
      <BoundProperties>
        <BoundPropertyInt Name="rotateStepNinety" Value="0" />
      </BoundProperties>
    </ImageClip>
    <ImageClip extentID="539" gapBefore="0" mediaItemID="535" duration="0.050000000000000003">
      <Effects />
      <Transitions />
      <BoundProperties>
        <BoundPropertyInt Name="rotateStepNinety" Value="0" />
      </BoundProperties>
    </ImageClip>
    <ImageClip extentID="540" gapBefore="0" mediaItemID="536" duration="0.050000000000000003">
      <Effects />
      <Transitions />
      <BoundProperties>
        <BoundPropertyInt Name="rotateStepNinety" Value="0" />
      </BoundProperties>
    </ImageClip>
    <ImageClip extentID="541" gapBefore="0" mediaItemID="537" duration="0.050000000000000003">
      <Effects />
      <Transitions />
      <BoundProperties>
        <BoundPropertyInt Name="rotateStepNinety" Value="0" />
      </BoundProperties>
    </ImageClip>
    <ImageClip extentID="542" gapBefore="0" mediaItemID="538" duration="0.050000000000000003">
      <Effects />
      <Transitions />
      <BoundProperties>
        <BoundPropertyInt Name="rotateStepNinety" Value="0" />
      </BoundProperties>
    </ImageClip>
    <ImageClip extentID="543" gapBefore="0" mediaItemID="539" duration="0.050000000000000003">
      <Effects />
      <Transitions />
      <BoundProperties>
        <BoundPropertyInt Name="rotateStepNinety" Value="0" />
      </BoundProperties>
    </ImageClip>
    <ImageClip extentID="544" gapBefore="0" mediaItemID="540" duration="0.050000000000000003">
      <Effects />
      <Transitions />
      <BoundProperties>
        <BoundPropertyInt Name="rotateStepNinety" Value="0" />
      </BoundProperties>
    </ImageClip>
    <ImageClip extentID="545" gapBefore="0" mediaItemID="541" duration="0.050000000000000003">
      <Effects />
      <Transitions />
      <BoundProperties>
        <BoundPropertyInt Name="rotateStepNinety" Value="0" />
      </BoundProperties>
    </ImageClip>
    <ImageClip extentID="546" gapBefore="0" mediaItemID="542" duration="0.050000000000000003">
      <Effects />
      <Transitions />
      <BoundProperties>
        <BoundPropertyInt Name="rotateStepNinety" Value="0" />
      </BoundProperties>
    </ImageClip>
    <ImageClip extentID="547" gapBefore="0" mediaItemID="543" duration="0.050000000000000003">
      <Effects />
      <Transitions />
      <BoundProperties>
        <BoundPropertyInt Name="rotateStepNinety" Value="0" />
      </BoundProperties>
    </ImageClip>
    <ImageClip extentID="548" gapBefore="0" mediaItemID="544" duration="0.050000000000000003">
      <Effects />
      <Transitions />
      <BoundProperties>
        <BoundPropertyInt Name="rotateStepNinety" Value="0" />
      </BoundProperties>
    </ImageClip>
    <ImageClip extentID="549" gapBefore="0" mediaItemID="545" duration="0.050000000000000003">
      <Effects />
      <Transitions />
      <BoundProperties>
        <BoundPropertyInt Name="rotateStepNinety" Value="0" />
      </BoundProperties>
    </ImageClip>
    <ImageClip extentID="550" gapBefore="0" mediaItemID="546" duration="0.050000000000000003">
      <Effects />
      <Transitions />
      <BoundProperties>
        <BoundPropertyInt Name="rotateStepNinety" Value="0" />
      </BoundProperties>
    </ImageClip>
    <ImageClip extentID="551" gapBefore="0" mediaItemID="547" duration="0.050000000000000003">
      <Effects />
      <Transitions />
      <BoundProperties>
        <BoundPropertyInt Name="rotateStepNinety" Value="0" />
      </BoundProperties>
    </ImageClip>
    <ImageClip extentID="552" gapBefore="0" mediaItemID="548" duration="0.050000000000000003">
      <Effects />
      <Transitions />
      <BoundProperties>
        <BoundPropertyInt Name="rotateStepNinety" Value="0" />
      </BoundProperties>
    </ImageClip>
    <ImageClip extentID="553" gapBefore="0" mediaItemID="549" duration="0.050000000000000003">
      <Effects />
      <Transitions />
      <BoundProperties>
        <BoundPropertyInt Name="rotateStepNinety" Value="0" />
      </BoundProperties>
    </ImageClip>
    <ImageClip extentID="554" gapBefore="0" mediaItemID="550" duration="0.050000000000000003">
      <Effects />
      <Transitions />
      <BoundProperties>
        <BoundPropertyInt Name="rotateStepNinety" Value="0" />
      </BoundProperties>
    </ImageClip>
    <ImageClip extentID="555" gapBefore="0" mediaItemID="551" duration="0.050000000000000003">
      <Effects />
      <Transitions />
      <BoundProperties>
        <BoundPropertyInt Name="rotateStepNinety" Value="0" />
      </BoundProperties>
    </ImageClip>
    <ImageClip extentID="556" gapBefore="0" mediaItemID="552" duration="0.050000000000000003">
      <Effects />
      <Transitions />
      <BoundProperties>
        <BoundPropertyInt Name="rotateStepNinety" Value="0" />
      </BoundProperties>
    </ImageClip>
    <ImageClip extentID="557" gapBefore="0" mediaItemID="553" duration="0.050000000000000003">
      <Effects />
      <Transitions />
      <BoundProperties>
        <BoundPropertyInt Name="rotateStepNinety" Value="0" />
      </BoundProperties>
    </ImageClip>
    <ImageClip extentID="558" gapBefore="0" mediaItemID="554" duration="0.050000000000000003">
      <Effects />
      <Transitions />
      <BoundProperties>
        <BoundPropertyInt Name="rotateStepNinety" Value="0" />
      </BoundProperties>
    </ImageClip>
    <ImageClip extentID="559" gapBefore="0" mediaItemID="555" duration="0.050000000000000003">
      <Effects />
      <Transitions />
      <BoundProperties>
        <BoundPropertyInt Name="rotateStepNinety" Value="0" />
      </BoundProperties>
    </ImageClip>
    <ImageClip extentID="560" gapBefore="0" mediaItemID="556" duration="0.050000000000000003">
      <Effects />
      <Transitions />
      <BoundProperties>
        <BoundPropertyInt Name="rotateStepNinety" Value="0" />
      </BoundProperties>
    </ImageClip>
    <ImageClip extentID="561" gapBefore="0" mediaItemID="557" duration="0.050000000000000003">
      <Effects />
      <Transitions />
      <BoundProperties>
        <BoundPropertyInt Name="rotateStepNinety" Value="0" />
      </BoundProperties>
    </ImageClip>
    <ImageClip extentID="562" gapBefore="0" mediaItemID="558" duration="0.050000000000000003">
      <Effects />
      <Transitions />
      <BoundProperties>
        <BoundPropertyInt Name="rotateStepNinety" Value="0" />
      </BoundProperties>
    </ImageClip>
    <ImageClip extentID="563" gapBefore="0" mediaItemID="559" duration="0.050000000000000003">
      <Effects />
      <Transitions />
      <BoundProperties>
        <BoundPropertyInt Name="rotateStepNinety" Value="0" />
      </BoundProperties>
    </ImageClip>
    <ImageClip extentID="564" gapBefore="0" mediaItemID="560" duration="0.050000000000000003">
      <Effects />
      <Transitions />
      <BoundProperties>
        <BoundPropertyInt Name="rotateStepNinety" Value="0" />
      </BoundProperties>
    </ImageClip>
    <ImageClip extentID="565" gapBefore="0" mediaItemID="561" duration="0.050000000000000003">
      <Effects />
      <Transitions />
      <BoundProperties>
        <BoundPropertyInt Name="rotateStepNinety" Value="0" />
      </BoundProperties>
    </ImageClip>
    <ImageClip extentID="566" gapBefore="0" mediaItemID="562" duration="0.050000000000000003">
      <Effects />
      <Transitions />
      <BoundProperties>
        <BoundPropertyInt Name="rotateStepNinety" Value="0" />
      </BoundProperties>
    </ImageClip>
    <ImageClip extentID="567" gapBefore="0" mediaItemID="563" duration="0.050000000000000003">
      <Effects />
      <Transitions />
      <BoundProperties>
        <BoundPropertyInt Name="rotateStepNinety" Value="0" />
      </BoundProperties>
    </ImageClip>
    <ImageClip extentID="568" gapBefore="0" mediaItemID="564" duration="0.050000000000000003">
      <Effects />
      <Transitions />
      <BoundProperties>
        <BoundPropertyInt Name="rotateStepNinety" Value="0" />
      </BoundProperties>
    </ImageClip>
    <ImageClip extentID="569" gapBefore="0" mediaItemID="565" duration="0.050000000000000003">
      <Effects />
      <Transitions />
      <BoundProperties>
        <BoundPropertyInt Name="rotateStepNinety" Value="0" />
      </BoundProperties>
    </ImageClip>
    <ImageClip extentID="570" gapBefore="0" mediaItemID="566" duration="0.050000000000000003">
      <Effects />
      <Transitions />
      <BoundProperties>
        <BoundPropertyInt Name="rotateStepNinety" Value="0" />
      </BoundProperties>
    </ImageClip>
    <ImageClip extentID="571" gapBefore="0" mediaItemID="567" duration="0.050000000000000003">
      <Effects />
      <Transitions />
      <BoundProperties>
        <BoundPropertyInt Name="rotateStepNinety" Value="0" />
      </BoundProperties>
    </ImageClip>
    <ImageClip extentID="572" gapBefore="0" mediaItemID="568" duration="0.050000000000000003">
      <Effects />
      <Transitions />
      <BoundProperties>
        <BoundPropertyInt Name="rotateStepNinety" Value="0" />
      </BoundProperties>
    </ImageClip>
    <ImageClip extentID="573" gapBefore="0" mediaItemID="569" duration="0.050000000000000003">
      <Effects />
      <Transitions />
      <BoundProperties>
        <BoundPropertyInt Name="rotateStepNinety" Value="0" />
      </BoundProperties>
    </ImageClip>
    <ImageClip extentID="574" gapBefore="0" mediaItemID="570" duration="0.050000000000000003">
      <Effects />
      <Transitions />
      <BoundProperties>
        <BoundPropertyInt Name="rotateStepNinety" Value="0" />
      </BoundProperties>
    </ImageClip>
    <ImageClip extentID="575" gapBefore="0" mediaItemID="571" duration="0.050000000000000003">
      <Effects />
      <Transitions />
      <BoundProperties>
        <BoundPropertyInt Name="rotateStepNinety" Value="0" />
      </BoundProperties>
    </ImageClip>
    <ImageClip extentID="576" gapBefore="0" mediaItemID="572" duration="0.050000000000000003">
      <Effects />
      <Transitions />
      <BoundProperties>
        <BoundPropertyInt Name="rotateStepNinety" Value="0" />
      </BoundProperties>
    </ImageClip>
    <ImageClip extentID="577" gapBefore="0" mediaItemID="573" duration="0.050000000000000003">
      <Effects />
      <Transitions />
      <BoundProperties>
        <BoundPropertyInt Name="rotateStepNinety" Value="0" />
      </BoundProperties>
    </ImageClip>
    <ImageClip extentID="578" gapBefore="0" mediaItemID="574" duration="0.050000000000000003">
      <Effects />
      <Transitions />
      <BoundProperties>
        <BoundPropertyInt Name="rotateStepNinety" Value="0" />
      </BoundProperties>
    </ImageClip>
    <ImageClip extentID="579" gapBefore="0" mediaItemID="575" duration="0.050000000000000003">
      <Effects />
      <Transitions />
      <BoundProperties>
        <BoundPropertyInt Name="rotateStepNinety" Value="0" />
      </BoundProperties>
    </ImageClip>
    <ImageClip extentID="580" gapBefore="0" mediaItemID="576" duration="0.050000000000000003">
      <Effects />
      <Transitions />
      <BoundProperties>
        <BoundPropertyInt Name="rotateStepNinety" Value="0" />
      </BoundProperties>
    </ImageClip>
    <ImageClip extentID="581" gapBefore="0" mediaItemID="577" duration="0.050000000000000003">
      <Effects />
      <Transitions />
      <BoundProperties>
        <BoundPropertyInt Name="rotateStepNinety" Value="0" />
      </BoundProperties>
    </ImageClip>
    <ImageClip extentID="582" gapBefore="0" mediaItemID="578" duration="0.050000000000000003">
      <Effects />
      <Transitions />
      <BoundProperties>
        <BoundPropertyInt Name="rotateStepNinety" Value="0" />
      </BoundProperties>
    </ImageClip>
    <ImageClip extentID="583" gapBefore="0" mediaItemID="579" duration="0.050000000000000003">
      <Effects />
      <Transitions />
      <BoundProperties>
        <BoundPropertyInt Name="rotateStepNinety" Value="0" />
      </BoundProperties>
    </ImageClip>
    <ImageClip extentID="584" gapBefore="0" mediaItemID="580" duration="0.050000000000000003">
      <Effects />
      <Transitions />
      <BoundProperties>
        <BoundPropertyInt Name="rotateStepNinety" Value="0" />
      </BoundProperties>
    </ImageClip>
    <ImageClip extentID="585" gapBefore="0" mediaItemID="581" duration="0.050000000000000003">
      <Effects />
      <Transitions />
      <BoundProperties>
        <BoundPropertyInt Name="rotateStepNinety" Value="0" />
      </BoundProperties>
    </ImageClip>
    <ImageClip extentID="586" gapBefore="0" mediaItemID="582" duration="0.050000000000000003">
      <Effects />
      <Transitions />
      <BoundProperties>
        <BoundPropertyInt Name="rotateStepNinety" Value="0" />
      </BoundProperties>
    </ImageClip>
    <ImageClip extentID="587" gapBefore="0" mediaItemID="583" duration="0.050000000000000003">
      <Effects />
      <Transitions />
      <BoundProperties>
        <BoundPropertyInt Name="rotateStepNinety" Value="0" />
      </BoundProperties>
    </ImageClip>
    <ImageClip extentID="588" gapBefore="0" mediaItemID="584" duration="0.050000000000000003">
      <Effects />
      <Transitions />
      <BoundProperties>
        <BoundPropertyInt Name="rotateStepNinety" Value="0" />
      </BoundProperties>
    </ImageClip>
    <ImageClip extentID="589" gapBefore="0" mediaItemID="585" duration="0.050000000000000003">
      <Effects />
      <Transitions />
      <BoundProperties>
        <BoundPropertyInt Name="rotateStepNinety" Value="0" />
      </BoundProperties>
    </ImageClip>
    <ImageClip extentID="590" gapBefore="0" mediaItemID="586" duration="0.050000000000000003">
      <Effects />
      <Transitions />
      <BoundProperties>
        <BoundPropertyInt Name="rotateStepNinety" Value="0" />
      </BoundProperties>
    </ImageClip>
    <ImageClip extentID="591" gapBefore="0" mediaItemID="587" duration="0.050000000000000003">
      <Effects />
      <Transitions />
      <BoundProperties>
        <BoundPropertyInt Name="rotateStepNinety" Value="0" />
      </BoundProperties>
    </ImageClip>
    <ImageClip extentID="592" gapBefore="0" mediaItemID="588" duration="0.050000000000000003">
      <Effects />
      <Transitions />
      <BoundProperties>
        <BoundPropertyInt Name="rotateStepNinety" Value="0" />
      </BoundProperties>
    </ImageClip>
    <ImageClip extentID="593" gapBefore="0" mediaItemID="589" duration="0.050000000000000003">
      <Effects />
      <Transitions />
      <BoundProperties>
        <BoundPropertyInt Name="rotateStepNinety" Value="0" />
      </BoundProperties>
    </ImageClip>
    <ImageClip extentID="594" gapBefore="0" mediaItemID="590" duration="0.050000000000000003">
      <Effects />
      <Transitions />
      <BoundProperties>
        <BoundPropertyInt Name="rotateStepNinety" Value="0" />
      </BoundProperties>
    </ImageClip>
    <ImageClip extentID="595" gapBefore="0" mediaItemID="591" duration="0.050000000000000003">
      <Effects />
      <Transitions />
      <BoundProperties>
        <BoundPropertyInt Name="rotateStepNinety" Value="0" />
      </BoundProperties>
    </ImageClip>
    <ImageClip extentID="596" gapBefore="0" mediaItemID="592" duration="0.050000000000000003">
      <Effects />
      <Transitions />
      <BoundProperties>
        <BoundPropertyInt Name="rotateStepNinety" Value="0" />
      </BoundProperties>
    </ImageClip>
    <ImageClip extentID="597" gapBefore="0" mediaItemID="593" duration="0.050000000000000003">
      <Effects />
      <Transitions />
      <BoundProperties>
        <BoundPropertyInt Name="rotateStepNinety" Value="0" />
      </BoundProperties>
    </ImageClip>
    <ImageClip extentID="598" gapBefore="0" mediaItemID="594" duration="0.050000000000000003">
      <Effects />
      <Transitions />
      <BoundProperties>
        <BoundPropertyInt Name="rotateStepNinety" Value="0" />
      </BoundProperties>
    </ImageClip>
    <ImageClip extentID="599" gapBefore="0" mediaItemID="595" duration="0.050000000000000003">
      <Effects />
      <Transitions />
      <BoundProperties>
        <BoundPropertyInt Name="rotateStepNinety" Value="0" />
      </BoundProperties>
    </ImageClip>
    <ImageClip extentID="600" gapBefore="0" mediaItemID="596" duration="0.050000000000000003">
      <Effects />
      <Transitions />
      <BoundProperties>
        <BoundPropertyInt Name="rotateStepNinety" Value="0" />
      </BoundProperties>
    </ImageClip>
    <ImageClip extentID="601" gapBefore="0" mediaItemID="597" duration="0.050000000000000003">
      <Effects />
      <Transitions />
      <BoundProperties>
        <BoundPropertyInt Name="rotateStepNinety" Value="0" />
      </BoundProperties>
    </ImageClip>
    <ImageClip extentID="602" gapBefore="0" mediaItemID="598" duration="0.050000000000000003">
      <Effects />
      <Transitions />
      <BoundProperties>
        <BoundPropertyInt Name="rotateStepNinety" Value="0" />
      </BoundProperties>
    </ImageClip>
    <ImageClip extentID="603" gapBefore="0" mediaItemID="599" duration="0.050000000000000003">
      <Effects />
      <Transitions />
      <BoundProperties>
        <BoundPropertyInt Name="rotateStepNinety" Value="0" />
      </BoundProperties>
    </ImageClip>
    <ImageClip extentID="604" gapBefore="0" mediaItemID="600" duration="0.050000000000000003">
      <Effects />
      <Transitions />
      <BoundProperties>
        <BoundPropertyInt Name="rotateStepNinety" Value="0" />
      </BoundProperties>
    </ImageClip>
    <ImageClip extentID="605" gapBefore="0" mediaItemID="601" duration="0.050000000000000003">
      <Effects />
      <Transitions />
      <BoundProperties>
        <BoundPropertyInt Name="rotateStepNinety" Value="0" />
      </BoundProperties>
    </ImageClip>
    <ImageClip extentID="606" gapBefore="0" mediaItemID="602" duration="0.050000000000000003">
      <Effects />
      <Transitions />
      <BoundProperties>
        <BoundPropertyInt Name="rotateStepNinety" Value="0" />
      </BoundProperties>
    </ImageClip>
    <ImageClip extentID="607" gapBefore="0" mediaItemID="603" duration="0.050000000000000003">
      <Effects />
      <Transitions />
      <BoundProperties>
        <BoundPropertyInt Name="rotateStepNinety" Value="0" />
      </BoundProperties>
    </ImageClip>
    <ImageClip extentID="608" gapBefore="0" mediaItemID="604" duration="0.050000000000000003">
      <Effects />
      <Transitions />
      <BoundProperties>
        <BoundPropertyInt Name="rotateStepNinety" Value="0" />
      </BoundProperties>
    </ImageClip>
    <ImageClip extentID="609" gapBefore="0" mediaItemID="605" duration="0.050000000000000003">
      <Effects />
      <Transitions />
      <BoundProperties>
        <BoundPropertyInt Name="rotateStepNinety" Value="0" />
      </BoundProperties>
    </ImageClip>
    <ImageClip extentID="610" gapBefore="0" mediaItemID="606" duration="0.050000000000000003">
      <Effects />
      <Transitions />
      <BoundProperties>
        <BoundPropertyInt Name="rotateStepNinety" Value="0" />
      </BoundProperties>
    </ImageClip>
    <ImageClip extentID="611" gapBefore="0" mediaItemID="607" duration="0.050000000000000003">
      <Effects />
      <Transitions />
      <BoundProperties>
        <BoundPropertyInt Name="rotateStepNinety" Value="0" />
      </BoundProperties>
    </ImageClip>
    <ImageClip extentID="612" gapBefore="0" mediaItemID="608" duration="0.050000000000000003">
      <Effects />
      <Transitions />
      <BoundProperties>
        <BoundPropertyInt Name="rotateStepNinety" Value="0" />
      </BoundProperties>
    </ImageClip>
    <ImageClip extentID="613" gapBefore="0" mediaItemID="609" duration="0.050000000000000003">
      <Effects />
      <Transitions />
      <BoundProperties>
        <BoundPropertyInt Name="rotateStepNinety" Value="0" />
      </BoundProperties>
    </ImageClip>
    <ImageClip extentID="614" gapBefore="0" mediaItemID="610" duration="0.050000000000000003">
      <Effects />
      <Transitions />
      <BoundProperties>
        <BoundPropertyInt Name="rotateStepNinety" Value="0" />
      </BoundProperties>
    </ImageClip>
    <ImageClip extentID="615" gapBefore="0" mediaItemID="611" duration="0.050000000000000003">
      <Effects />
      <Transitions />
      <BoundProperties>
        <BoundPropertyInt Name="rotateStepNinety" Value="0" />
      </BoundProperties>
    </ImageClip>
    <ImageClip extentID="616" gapBefore="0" mediaItemID="612" duration="0.050000000000000003">
      <Effects />
      <Transitions />
      <BoundProperties>
        <BoundPropertyInt Name="rotateStepNinety" Value="0" />
      </BoundProperties>
    </ImageClip>
    <ImageClip extentID="617" gapBefore="0" mediaItemID="613" duration="0.050000000000000003">
      <Effects />
      <Transitions />
      <BoundProperties>
        <BoundPropertyInt Name="rotateStepNinety" Value="0" />
      </BoundProperties>
    </ImageClip>
    <ImageClip extentID="618" gapBefore="0" mediaItemID="614" duration="0.050000000000000003">
      <Effects />
      <Transitions />
      <BoundProperties>
        <BoundPropertyInt Name="rotateStepNinety" Value="0" />
      </BoundProperties>
    </ImageClip>
    <ImageClip extentID="619" gapBefore="0" mediaItemID="615" duration="0.050000000000000003">
      <Effects />
      <Transitions />
      <BoundProperties>
        <BoundPropertyInt Name="rotateStepNinety" Value="0" />
      </BoundProperties>
    </ImageClip>
    <ImageClip extentID="620" gapBefore="0" mediaItemID="616" duration="0.050000000000000003">
      <Effects />
      <Transitions />
      <BoundProperties>
        <BoundPropertyInt Name="rotateStepNinety" Value="0" />
      </BoundProperties>
    </ImageClip>
    <ImageClip extentID="621" gapBefore="0" mediaItemID="617" duration="0.050000000000000003">
      <Effects />
      <Transitions />
      <BoundProperties>
        <BoundPropertyInt Name="rotateStepNinety" Value="0" />
      </BoundProperties>
    </ImageClip>
    <ImageClip extentID="622" gapBefore="0" mediaItemID="618" duration="0.050000000000000003">
      <Effects />
      <Transitions />
      <BoundProperties>
        <BoundPropertyInt Name="rotateStepNinety" Value="0" />
      </BoundProperties>
    </ImageClip>
    <ImageClip extentID="623" gapBefore="0" mediaItemID="619" duration="0.050000000000000003">
      <Effects />
      <Transitions />
      <BoundProperties>
        <BoundPropertyInt Name="rotateStepNinety" Value="0" />
      </BoundProperties>
    </ImageClip>
    <ImageClip extentID="624" gapBefore="0" mediaItemID="620" duration="0.050000000000000003">
      <Effects />
      <Transitions />
      <BoundProperties>
        <BoundPropertyInt Name="rotateStepNinety" Value="0" />
      </BoundProperties>
    </ImageClip>
    <ImageClip extentID="625" gapBefore="0" mediaItemID="621" duration="0.050000000000000003">
      <Effects />
      <Transitions />
      <BoundProperties>
        <BoundPropertyInt Name="rotateStepNinety" Value="0" />
      </BoundProperties>
    </ImageClip>
    <ImageClip extentID="626" gapBefore="0" mediaItemID="622" duration="0.050000000000000003">
      <Effects />
      <Transitions />
      <BoundProperties>
        <BoundPropertyInt Name="rotateStepNinety" Value="0" />
      </BoundProperties>
    </ImageClip>
    <ImageClip extentID="627" gapBefore="0" mediaItemID="623" duration="0.050000000000000003">
      <Effects />
      <Transitions />
      <BoundProperties>
        <BoundPropertyInt Name="rotateStepNinety" Value="0" />
      </BoundProperties>
    </ImageClip>
    <ImageClip extentID="628" gapBefore="0" mediaItemID="624" duration="0.050000000000000003">
      <Effects />
      <Transitions />
      <BoundProperties>
        <BoundPropertyInt Name="rotateStepNinety" Value="0" />
      </BoundProperties>
    </ImageClip>
    <ImageClip extentID="629" gapBefore="0" mediaItemID="625" duration="0.050000000000000003">
      <Effects />
      <Transitions />
      <BoundProperties>
        <BoundPropertyInt Name="rotateStepNinety" Value="0" />
      </BoundProperties>
    </ImageClip>
    <ImageClip extentID="630" gapBefore="0" mediaItemID="626" duration="0.050000000000000003">
      <Effects />
      <Transitions />
      <BoundProperties>
        <BoundPropertyInt Name="rotateStepNinety" Value="0" />
      </BoundProperties>
    </ImageClip>
    <ImageClip extentID="631" gapBefore="0" mediaItemID="627" duration="0.050000000000000003">
      <Effects />
      <Transitions />
      <BoundProperties>
        <BoundPropertyInt Name="rotateStepNinety" Value="0" />
      </BoundProperties>
    </ImageClip>
    <ImageClip extentID="632" gapBefore="0" mediaItemID="628" duration="0.050000000000000003">
      <Effects />
      <Transitions />
      <BoundProperties>
        <BoundPropertyInt Name="rotateStepNinety" Value="0" />
      </BoundProperties>
    </ImageClip>
    <ImageClip extentID="633" gapBefore="0" mediaItemID="629" duration="0.050000000000000003">
      <Effects />
      <Transitions />
      <BoundProperties>
        <BoundPropertyInt Name="rotateStepNinety" Value="0" />
      </BoundProperties>
    </ImageClip>
    <ImageClip extentID="634" gapBefore="0" mediaItemID="630" duration="0.050000000000000003">
      <Effects />
      <Transitions />
      <BoundProperties>
        <BoundPropertyInt Name="rotateStepNinety" Value="0" />
      </BoundProperties>
    </ImageClip>
    <ImageClip extentID="635" gapBefore="0" mediaItemID="631" duration="0.050000000000000003">
      <Effects />
      <Transitions />
      <BoundProperties>
        <BoundPropertyInt Name="rotateStepNinety" Value="0" />
      </BoundProperties>
    </ImageClip>
    <ImageClip extentID="636" gapBefore="0" mediaItemID="632" duration="0.050000000000000003">
      <Effects />
      <Transitions />
      <BoundProperties>
        <BoundPropertyInt Name="rotateStepNinety" Value="0" />
      </BoundProperties>
    </ImageClip>
    <ImageClip extentID="637" gapBefore="0" mediaItemID="633" duration="0.050000000000000003">
      <Effects />
      <Transitions />
      <BoundProperties>
        <BoundPropertyInt Name="rotateStepNinety" Value="0" />
      </BoundProperties>
    </ImageClip>
    <ImageClip extentID="638" gapBefore="0" mediaItemID="634" duration="0.050000000000000003">
      <Effects />
      <Transitions />
      <BoundProperties>
        <BoundPropertyInt Name="rotateStepNinety" Value="0" />
      </BoundProperties>
    </ImageClip>
    <ImageClip extentID="639" gapBefore="0" mediaItemID="635" duration="0.050000000000000003">
      <Effects />
      <Transitions />
      <BoundProperties>
        <BoundPropertyInt Name="rotateStepNinety" Value="0" />
      </BoundProperties>
    </ImageClip>
    <ImageClip extentID="640" gapBefore="0" mediaItemID="636" duration="0.050000000000000003">
      <Effects />
      <Transitions />
      <BoundProperties>
        <BoundPropertyInt Name="rotateStepNinety" Value="0" />
      </BoundProperties>
    </ImageClip>
    <ImageClip extentID="641" gapBefore="0" mediaItemID="637" duration="0.050000000000000003">
      <Effects />
      <Transitions />
      <BoundProperties>
        <BoundPropertyInt Name="rotateStepNinety" Value="0" />
      </BoundProperties>
    </ImageClip>
    <ImageClip extentID="642" gapBefore="0" mediaItemID="638" duration="0.050000000000000003">
      <Effects />
      <Transitions />
      <BoundProperties>
        <BoundPropertyInt Name="rotateStepNinety" Value="0" />
      </BoundProperties>
    </ImageClip>
    <ImageClip extentID="643" gapBefore="0" mediaItemID="639" duration="0.050000000000000003">
      <Effects />
      <Transitions />
      <BoundProperties>
        <BoundPropertyInt Name="rotateStepNinety" Value="0" />
      </BoundProperties>
    </ImageClip>
    <ImageClip extentID="644" gapBefore="0" mediaItemID="640" duration="0.050000000000000003">
      <Effects />
      <Transitions />
      <BoundProperties>
        <BoundPropertyInt Name="rotateStepNinety" Value="0" />
      </BoundProperties>
    </ImageClip>
    <ImageClip extentID="645" gapBefore="0" mediaItemID="641" duration="0.050000000000000003">
      <Effects />
      <Transitions />
      <BoundProperties>
        <BoundPropertyInt Name="rotateStepNinety" Value="0" />
      </BoundProperties>
    </ImageClip>
    <ImageClip extentID="646" gapBefore="0" mediaItemID="642" duration="0.050000000000000003">
      <Effects />
      <Transitions />
      <BoundProperties>
        <BoundPropertyInt Name="rotateStepNinety" Value="0" />
      </BoundProperties>
    </ImageClip>
    <ImageClip extentID="647" gapBefore="0" mediaItemID="643" duration="0.050000000000000003">
      <Effects />
      <Transitions />
      <BoundProperties>
        <BoundPropertyInt Name="rotateStepNinety" Value="0" />
      </BoundProperties>
    </ImageClip>
    <ImageClip extentID="648" gapBefore="0" mediaItemID="644" duration="0.050000000000000003">
      <Effects />
      <Transitions />
      <BoundProperties>
        <BoundPropertyInt Name="rotateStepNinety" Value="0" />
      </BoundProperties>
    </ImageClip>
    <ImageClip extentID="649" gapBefore="0" mediaItemID="645" duration="0.050000000000000003">
      <Effects />
      <Transitions />
      <BoundProperties>
        <BoundPropertyInt Name="rotateStepNinety" Value="0" />
      </BoundProperties>
    </ImageClip>
    <ImageClip extentID="650" gapBefore="0" mediaItemID="646" duration="0.050000000000000003">
      <Effects />
      <Transitions />
      <BoundProperties>
        <BoundPropertyInt Name="rotateStepNinety" Value="0" />
      </BoundProperties>
    </ImageClip>
    <ImageClip extentID="651" gapBefore="0" mediaItemID="647" duration="0.050000000000000003">
      <Effects />
      <Transitions />
      <BoundProperties>
        <BoundPropertyInt Name="rotateStepNinety" Value="0" />
      </BoundProperties>
    </ImageClip>
    <ImageClip extentID="652" gapBefore="0" mediaItemID="648" duration="0.050000000000000003">
      <Effects />
      <Transitions />
      <BoundProperties>
        <BoundPropertyInt Name="rotateStepNinety" Value="0" />
      </BoundProperties>
    </ImageClip>
    <ImageClip extentID="653" gapBefore="0" mediaItemID="649" duration="0.050000000000000003">
      <Effects />
      <Transitions />
      <BoundProperties>
        <BoundPropertyInt Name="rotateStepNinety" Value="0" />
      </BoundProperties>
    </ImageClip>
    <ImageClip extentID="654" gapBefore="0" mediaItemID="650" duration="0.050000000000000003">
      <Effects />
      <Transitions />
      <BoundProperties>
        <BoundPropertyInt Name="rotateStepNinety" Value="0" />
      </BoundProperties>
    </ImageClip>
    <ImageClip extentID="655" gapBefore="0" mediaItemID="651" duration="0.050000000000000003">
      <Effects />
      <Transitions />
      <BoundProperties>
        <BoundPropertyInt Name="rotateStepNinety" Value="0" />
      </BoundProperties>
    </ImageClip>
    <ImageClip extentID="656" gapBefore="0" mediaItemID="652" duration="0.050000000000000003">
      <Effects />
      <Transitions />
      <BoundProperties>
        <BoundPropertyInt Name="rotateStepNinety" Value="0" />
      </BoundProperties>
    </ImageClip>
    <ImageClip extentID="657" gapBefore="0" mediaItemID="653" duration="0.050000000000000003">
      <Effects />
      <Transitions />
      <BoundProperties>
        <BoundPropertyInt Name="rotateStepNinety" Value="0" />
      </BoundProperties>
    </ImageClip>
    <ImageClip extentID="658" gapBefore="0" mediaItemID="654" duration="0.050000000000000003">
      <Effects />
      <Transitions />
      <BoundProperties>
        <BoundPropertyInt Name="rotateStepNinety" Value="0" />
      </BoundProperties>
    </ImageClip>
    <ImageClip extentID="659" gapBefore="0" mediaItemID="655" duration="0.050000000000000003">
      <Effects />
      <Transitions />
      <BoundProperties>
        <BoundPropertyInt Name="rotateStepNinety" Value="0" />
      </BoundProperties>
    </ImageClip>
    <ImageClip extentID="660" gapBefore="0" mediaItemID="656" duration="0.050000000000000003">
      <Effects />
      <Transitions />
      <BoundProperties>
        <BoundPropertyInt Name="rotateStepNinety" Value="0" />
      </BoundProperties>
    </ImageClip>
    <ImageClip extentID="661" gapBefore="0" mediaItemID="657" duration="0.050000000000000003">
      <Effects />
      <Transitions />
      <BoundProperties>
        <BoundPropertyInt Name="rotateStepNinety" Value="0" />
      </BoundProperties>
    </ImageClip>
    <ImageClip extentID="662" gapBefore="0" mediaItemID="658" duration="0.050000000000000003">
      <Effects />
      <Transitions />
      <BoundProperties>
        <BoundPropertyInt Name="rotateStepNinety" Value="0" />
      </BoundProperties>
    </ImageClip>
    <ImageClip extentID="663" gapBefore="0" mediaItemID="659" duration="0.050000000000000003">
      <Effects />
      <Transitions />
      <BoundProperties>
        <BoundPropertyInt Name="rotateStepNinety" Value="0" />
      </BoundProperties>
    </ImageClip>
    <ImageClip extentID="664" gapBefore="0" mediaItemID="660" duration="0.050000000000000003">
      <Effects />
      <Transitions />
      <BoundProperties>
        <BoundPropertyInt Name="rotateStepNinety" Value="0" />
      </BoundProperties>
    </ImageClip>
    <ImageClip extentID="665" gapBefore="0" mediaItemID="661" duration="0.050000000000000003">
      <Effects />
      <Transitions />
      <BoundProperties>
        <BoundPropertyInt Name="rotateStepNinety" Value="0" />
      </BoundProperties>
    </ImageClip>
    <ImageClip extentID="666" gapBefore="0" mediaItemID="662" duration="0.050000000000000003">
      <Effects />
      <Transitions />
      <BoundProperties>
        <BoundPropertyInt Name="rotateStepNinety" Value="0" />
      </BoundProperties>
    </ImageClip>
    <ImageClip extentID="667" gapBefore="0" mediaItemID="663" duration="0.050000000000000003">
      <Effects />
      <Transitions />
      <BoundProperties>
        <BoundPropertyInt Name="rotateStepNinety" Value="0" />
      </BoundProperties>
    </ImageClip>
    <ImageClip extentID="668" gapBefore="0" mediaItemID="664" duration="0.050000000000000003">
      <Effects />
      <Transitions />
      <BoundProperties>
        <BoundPropertyInt Name="rotateStepNinety" Value="0" />
      </BoundProperties>
    </ImageClip>
    <ImageClip extentID="669" gapBefore="0" mediaItemID="665" duration="0.050000000000000003">
      <Effects />
      <Transitions />
      <BoundProperties>
        <BoundPropertyInt Name="rotateStepNinety" Value="0" />
      </BoundProperties>
    </ImageClip>
    <ImageClip extentID="670" gapBefore="0" mediaItemID="666" duration="0.050000000000000003">
      <Effects />
      <Transitions />
      <BoundProperties>
        <BoundPropertyInt Name="rotateStepNinety" Value="0" />
      </BoundProperties>
    </ImageClip>
    <ImageClip extentID="671" gapBefore="0" mediaItemID="667" duration="0.050000000000000003">
      <Effects />
      <Transitions />
      <BoundProperties>
        <BoundPropertyInt Name="rotateStepNinety" Value="0" />
      </BoundProperties>
    </ImageClip>
    <ImageClip extentID="672" gapBefore="0" mediaItemID="668" duration="0.050000000000000003">
      <Effects />
      <Transitions />
      <BoundProperties>
        <BoundPropertyInt Name="rotateStepNinety" Value="0" />
      </BoundProperties>
    </ImageClip>
    <ImageClip extentID="673" gapBefore="0" mediaItemID="669" duration="0.050000000000000003">
      <Effects />
      <Transitions />
      <BoundProperties>
        <BoundPropertyInt Name="rotateStepNinety" Value="0" />
      </BoundProperties>
    </ImageClip>
    <ImageClip extentID="674" gapBefore="0" mediaItemID="670" duration="0.050000000000000003">
      <Effects />
      <Transitions />
      <BoundProperties>
        <BoundPropertyInt Name="rotateStepNinety" Value="0" />
      </BoundProperties>
    </ImageClip>
    <ImageClip extentID="675" gapBefore="0" mediaItemID="671" duration="0.050000000000000003">
      <Effects />
      <Transitions />
      <BoundProperties>
        <BoundPropertyInt Name="rotateStepNinety" Value="0" />
      </BoundProperties>
    </ImageClip>
    <ImageClip extentID="676" gapBefore="0" mediaItemID="672" duration="0.050000000000000003">
      <Effects />
      <Transitions />
      <BoundProperties>
        <BoundPropertyInt Name="rotateStepNinety" Value="0" />
      </BoundProperties>
    </ImageClip>
    <ImageClip extentID="677" gapBefore="0" mediaItemID="673" duration="0.050000000000000003">
      <Effects />
      <Transitions />
      <BoundProperties>
        <BoundPropertyInt Name="rotateStepNinety" Value="0" />
      </BoundProperties>
    </ImageClip>
    <ImageClip extentID="678" gapBefore="0" mediaItemID="674" duration="0.050000000000000003">
      <Effects />
      <Transitions />
      <BoundProperties>
        <BoundPropertyInt Name="rotateStepNinety" Value="0" />
      </BoundProperties>
    </ImageClip>
    <ImageClip extentID="679" gapBefore="0" mediaItemID="675" duration="0.050000000000000003">
      <Effects />
      <Transitions />
      <BoundProperties>
        <BoundPropertyInt Name="rotateStepNinety" Value="0" />
      </BoundProperties>
    </ImageClip>
    <ImageClip extentID="680" gapBefore="0" mediaItemID="676" duration="0.050000000000000003">
      <Effects />
      <Transitions />
      <BoundProperties>
        <BoundPropertyInt Name="rotateStepNinety" Value="0" />
      </BoundProperties>
    </ImageClip>
    <ImageClip extentID="681" gapBefore="0" mediaItemID="677" duration="0.050000000000000003">
      <Effects />
      <Transitions />
      <BoundProperties>
        <BoundPropertyInt Name="rotateStepNinety" Value="0" />
      </BoundProperties>
    </ImageClip>
    <ImageClip extentID="682" gapBefore="0" mediaItemID="678" duration="0.050000000000000003">
      <Effects />
      <Transitions />
      <BoundProperties>
        <BoundPropertyInt Name="rotateStepNinety" Value="0" />
      </BoundProperties>
    </ImageClip>
    <ImageClip extentID="683" gapBefore="0" mediaItemID="679" duration="0.050000000000000003">
      <Effects />
      <Transitions />
      <BoundProperties>
        <BoundPropertyInt Name="rotateStepNinety" Value="0" />
      </BoundProperties>
    </ImageClip>
    <ImageClip extentID="684" gapBefore="0" mediaItemID="680" duration="0.050000000000000003">
      <Effects />
      <Transitions />
      <BoundProperties>
        <BoundPropertyInt Name="rotateStepNinety" Value="0" />
      </BoundProperties>
    </ImageClip>
    <ImageClip extentID="685" gapBefore="0" mediaItemID="681" duration="0.050000000000000003">
      <Effects />
      <Transitions />
      <BoundProperties>
        <BoundPropertyInt Name="rotateStepNinety" Value="0" />
      </BoundProperties>
    </ImageClip>
    <ImageClip extentID="686" gapBefore="0" mediaItemID="682" duration="0.050000000000000003">
      <Effects />
      <Transitions />
      <BoundProperties>
        <BoundPropertyInt Name="rotateStepNinety" Value="0" />
      </BoundProperties>
    </ImageClip>
    <ImageClip extentID="687" gapBefore="0" mediaItemID="683" duration="0.050000000000000003">
      <Effects />
      <Transitions />
      <BoundProperties>
        <BoundPropertyInt Name="rotateStepNinety" Value="0" />
      </BoundProperties>
    </ImageClip>
    <ImageClip extentID="688" gapBefore="0" mediaItemID="684" duration="0.050000000000000003">
      <Effects />
      <Transitions />
      <BoundProperties>
        <BoundPropertyInt Name="rotateStepNinety" Value="0" />
      </BoundProperties>
    </ImageClip>
    <ImageClip extentID="689" gapBefore="0" mediaItemID="685" duration="0.050000000000000003">
      <Effects />
      <Transitions />
      <BoundProperties>
        <BoundPropertyInt Name="rotateStepNinety" Value="0" />
      </BoundProperties>
    </ImageClip>
    <ImageClip extentID="690" gapBefore="0" mediaItemID="686" duration="0.050000000000000003">
      <Effects />
      <Transitions />
      <BoundProperties>
        <BoundPropertyInt Name="rotateStepNinety" Value="0" />
      </BoundProperties>
    </ImageClip>
    <ImageClip extentID="691" gapBefore="0" mediaItemID="687" duration="0.050000000000000003">
      <Effects />
      <Transitions />
      <BoundProperties>
        <BoundPropertyInt Name="rotateStepNinety" Value="0" />
      </BoundProperties>
    </ImageClip>
    <ImageClip extentID="692" gapBefore="0" mediaItemID="688" duration="0.050000000000000003">
      <Effects />
      <Transitions />
      <BoundProperties>
        <BoundPropertyInt Name="rotateStepNinety" Value="0" />
      </BoundProperties>
    </ImageClip>
    <ImageClip extentID="693" gapBefore="0" mediaItemID="689" duration="0.050000000000000003">
      <Effects />
      <Transitions />
      <BoundProperties>
        <BoundPropertyInt Name="rotateStepNinety" Value="0" />
      </BoundProperties>
    </ImageClip>
    <ImageClip extentID="694" gapBefore="0" mediaItemID="690" duration="0.050000000000000003">
      <Effects />
      <Transitions />
      <BoundProperties>
        <BoundPropertyInt Name="rotateStepNinety" Value="0" />
      </BoundProperties>
    </ImageClip>
    <ImageClip extentID="695" gapBefore="0" mediaItemID="691" duration="0.050000000000000003">
      <Effects />
      <Transitions />
      <BoundProperties>
        <BoundPropertyInt Name="rotateStepNinety" Value="0" />
      </BoundProperties>
    </ImageClip>
    <ImageClip extentID="696" gapBefore="0" mediaItemID="692" duration="0.050000000000000003">
      <Effects />
      <Transitions />
      <BoundProperties>
        <BoundPropertyInt Name="rotateStepNinety" Value="0" />
      </BoundProperties>
    </ImageClip>
    <ImageClip extentID="697" gapBefore="0" mediaItemID="693" duration="0.050000000000000003">
      <Effects />
      <Transitions />
      <BoundProperties>
        <BoundPropertyInt Name="rotateStepNinety" Value="0" />
      </BoundProperties>
    </ImageClip>
    <ImageClip extentID="698" gapBefore="0" mediaItemID="694" duration="0.050000000000000003">
      <Effects />
      <Transitions />
      <BoundProperties>
        <BoundPropertyInt Name="rotateStepNinety" Value="0" />
      </BoundProperties>
    </ImageClip>
    <ImageClip extentID="699" gapBefore="0" mediaItemID="695" duration="0.050000000000000003">
      <Effects />
      <Transitions />
      <BoundProperties>
        <BoundPropertyInt Name="rotateStepNinety" Value="0" />
      </BoundProperties>
    </ImageClip>
    <ImageClip extentID="700" gapBefore="0" mediaItemID="696" duration="0.050000000000000003">
      <Effects />
      <Transitions />
      <BoundProperties>
        <BoundPropertyInt Name="rotateStepNinety" Value="0" />
      </BoundProperties>
    </ImageClip>
    <ImageClip extentID="701" gapBefore="0" mediaItemID="697" duration="0.050000000000000003">
      <Effects />
      <Transitions />
      <BoundProperties>
        <BoundPropertyInt Name="rotateStepNinety" Value="0" />
      </BoundProperties>
    </ImageClip>
    <ImageClip extentID="702" gapBefore="0" mediaItemID="698" duration="0.050000000000000003">
      <Effects />
      <Transitions />
      <BoundProperties>
        <BoundPropertyInt Name="rotateStepNinety" Value="0" />
      </BoundProperties>
    </ImageClip>
    <ImageClip extentID="703" gapBefore="0" mediaItemID="699" duration="0.050000000000000003">
      <Effects />
      <Transitions />
      <BoundProperties>
        <BoundPropertyInt Name="rotateStepNinety" Value="0" />
      </BoundProperties>
    </ImageClip>
    <ImageClip extentID="704" gapBefore="0" mediaItemID="700" duration="0.050000000000000003">
      <Effects />
      <Transitions />
      <BoundProperties>
        <BoundPropertyInt Name="rotateStepNinety" Value="0" />
      </BoundProperties>
    </ImageClip>
    <ImageClip extentID="705" gapBefore="0" mediaItemID="701" duration="0.050000000000000003">
      <Effects />
      <Transitions />
      <BoundProperties>
        <BoundPropertyInt Name="rotateStepNinety" Value="0" />
      </BoundProperties>
    </ImageClip>
    <ImageClip extentID="706" gapBefore="0" mediaItemID="702" duration="0.050000000000000003">
      <Effects />
      <Transitions />
      <BoundProperties>
        <BoundPropertyInt Name="rotateStepNinety" Value="0" />
      </BoundProperties>
    </ImageClip>
    <ImageClip extentID="707" gapBefore="0" mediaItemID="703" duration="0.050000000000000003">
      <Effects />
      <Transitions />
      <BoundProperties>
        <BoundPropertyInt Name="rotateStepNinety" Value="0" />
      </BoundProperties>
    </ImageClip>
    <ImageClip extentID="708" gapBefore="0" mediaItemID="704" duration="0.050000000000000003">
      <Effects />
      <Transitions />
      <BoundProperties>
        <BoundPropertyInt Name="rotateStepNinety" Value="0" />
      </BoundProperties>
    </ImageClip>
    <ImageClip extentID="709" gapBefore="0" mediaItemID="705" duration="0.050000000000000003">
      <Effects />
      <Transitions />
      <BoundProperties>
        <BoundPropertyInt Name="rotateStepNinety" Value="0" />
      </BoundProperties>
    </ImageClip>
    <ImageClip extentID="710" gapBefore="0" mediaItemID="706" duration="0.050000000000000003">
      <Effects />
      <Transitions />
      <BoundProperties>
        <BoundPropertyInt Name="rotateStepNinety" Value="0" />
      </BoundProperties>
    </ImageClip>
    <ImageClip extentID="711" gapBefore="0" mediaItemID="707" duration="0.050000000000000003">
      <Effects />
      <Transitions />
      <BoundProperties>
        <BoundPropertyInt Name="rotateStepNinety" Value="0" />
      </BoundProperties>
    </ImageClip>
    <ImageClip extentID="712" gapBefore="0" mediaItemID="708" duration="0.050000000000000003">
      <Effects />
      <Transitions />
      <BoundProperties>
        <BoundPropertyInt Name="rotateStepNinety" Value="0" />
      </BoundProperties>
    </ImageClip>
    <ImageClip extentID="713" gapBefore="0" mediaItemID="709" duration="0.050000000000000003">
      <Effects />
      <Transitions />
      <BoundProperties>
        <BoundPropertyInt Name="rotateStepNinety" Value="0" />
      </BoundProperties>
    </ImageClip>
    <ImageClip extentID="714" gapBefore="0" mediaItemID="710" duration="0.050000000000000003">
      <Effects />
      <Transitions />
      <BoundProperties>
        <BoundPropertyInt Name="rotateStepNinety" Value="0" />
      </BoundProperties>
    </ImageClip>
    <ImageClip extentID="715" gapBefore="0" mediaItemID="711" duration="0.050000000000000003">
      <Effects />
      <Transitions />
      <BoundProperties>
        <BoundPropertyInt Name="rotateStepNinety" Value="0" />
      </BoundProperties>
    </ImageClip>
    <ImageClip extentID="716" gapBefore="0" mediaItemID="712" duration="0.050000000000000003">
      <Effects />
      <Transitions />
      <BoundProperties>
        <BoundPropertyInt Name="rotateStepNinety" Value="0" />
      </BoundProperties>
    </ImageClip>
    <ImageClip extentID="717" gapBefore="0" mediaItemID="713" duration="0.050000000000000003">
      <Effects />
      <Transitions />
      <BoundProperties>
        <BoundPropertyInt Name="rotateStepNinety" Value="0" />
      </BoundProperties>
    </ImageClip>
    <ImageClip extentID="718" gapBefore="0" mediaItemID="714" duration="0.050000000000000003">
      <Effects />
      <Transitions />
      <BoundProperties>
        <BoundPropertyInt Name="rotateStepNinety" Value="0" />
      </BoundProperties>
    </ImageClip>
    <ImageClip extentID="719" gapBefore="0" mediaItemID="715" duration="0.050000000000000003">
      <Effects />
      <Transitions />
      <BoundProperties>
        <BoundPropertyInt Name="rotateStepNinety" Value="0" />
      </BoundProperties>
    </ImageClip>
    <ImageClip extentID="720" gapBefore="0" mediaItemID="716" duration="0.050000000000000003">
      <Effects />
      <Transitions />
      <BoundProperties>
        <BoundPropertyInt Name="rotateStepNinety" Value="0" />
      </BoundProperties>
    </ImageClip>
    <ImageClip extentID="721" gapBefore="0" mediaItemID="717" duration="0.050000000000000003">
      <Effects />
      <Transitions />
      <BoundProperties>
        <BoundPropertyInt Name="rotateStepNinety" Value="0" />
      </BoundProperties>
    </ImageClip>
    <ImageClip extentID="722" gapBefore="0" mediaItemID="718" duration="0.050000000000000003">
      <Effects />
      <Transitions />
      <BoundProperties>
        <BoundPropertyInt Name="rotateStepNinety" Value="0" />
      </BoundProperties>
    </ImageClip>
    <ImageClip extentID="723" gapBefore="0" mediaItemID="719" duration="0.050000000000000003">
      <Effects />
      <Transitions />
      <BoundProperties>
        <BoundPropertyInt Name="rotateStepNinety" Value="0" />
      </BoundProperties>
    </ImageClip>
    <ImageClip extentID="724" gapBefore="0" mediaItemID="720" duration="0.050000000000000003">
      <Effects />
      <Transitions />
      <BoundProperties>
        <BoundPropertyInt Name="rotateStepNinety" Value="0" />
      </BoundProperties>
    </ImageClip>
    <ImageClip extentID="725" gapBefore="0" mediaItemID="721" duration="0.050000000000000003">
      <Effects />
      <Transitions />
      <BoundProperties>
        <BoundPropertyInt Name="rotateStepNinety" Value="0" />
      </BoundProperties>
    </ImageClip>
    <ImageClip extentID="726" gapBefore="0" mediaItemID="722" duration="0.050000000000000003">
      <Effects />
      <Transitions />
      <BoundProperties>
        <BoundPropertyInt Name="rotateStepNinety" Value="0" />
      </BoundProperties>
    </ImageClip>
    <ImageClip extentID="727" gapBefore="0" mediaItemID="723" duration="0.050000000000000003">
      <Effects />
      <Transitions />
      <BoundProperties>
        <BoundPropertyInt Name="rotateStepNinety" Value="0" />
      </BoundProperties>
    </ImageClip>
    <ImageClip extentID="728" gapBefore="0" mediaItemID="724" duration="0.050000000000000003">
      <Effects />
      <Transitions />
      <BoundProperties>
        <BoundPropertyInt Name="rotateStepNinety" Value="0" />
      </BoundProperties>
    </ImageClip>
    <ImageClip extentID="729" gapBefore="0" mediaItemID="725" duration="0.050000000000000003">
      <Effects />
      <Transitions />
      <BoundProperties>
        <BoundPropertyInt Name="rotateStepNinety" Value="0" />
      </BoundProperties>
    </ImageClip>
    <ImageClip extentID="730" gapBefore="0" mediaItemID="726" duration="0.050000000000000003">
      <Effects />
      <Transitions />
      <BoundProperties>
        <BoundPropertyInt Name="rotateStepNinety" Value="0" />
      </BoundProperties>
    </ImageClip>
    <ImageClip extentID="731" gapBefore="0" mediaItemID="727" duration="0.050000000000000003">
      <Effects />
      <Transitions />
      <BoundProperties>
        <BoundPropertyInt Name="rotateStepNinety" Value="0" />
      </BoundProperties>
    </ImageClip>
    <ImageClip extentID="732" gapBefore="0" mediaItemID="728" duration="0.050000000000000003">
      <Effects />
      <Transitions />
      <BoundProperties>
        <BoundPropertyInt Name="rotateStepNinety" Value="0" />
      </BoundProperties>
    </ImageClip>
    <ImageClip extentID="733" gapBefore="0" mediaItemID="729" duration="0.050000000000000003">
      <Effects />
      <Transitions />
      <BoundProperties>
        <BoundPropertyInt Name="rotateStepNinety" Value="0" />
      </BoundProperties>
    </ImageClip>
    <ImageClip extentID="734" gapBefore="0" mediaItemID="730" duration="0.050000000000000003">
      <Effects />
      <Transitions />
      <BoundProperties>
        <BoundPropertyInt Name="rotateStepNinety" Value="0" />
      </BoundProperties>
    </ImageClip>
    <ImageClip extentID="735" gapBefore="0" mediaItemID="731" duration="0.050000000000000003">
      <Effects />
      <Transitions />
      <BoundProperties>
        <BoundPropertyInt Name="rotateStepNinety" Value="0" />
      </BoundProperties>
    </ImageClip>
    <ImageClip extentID="736" gapBefore="0" mediaItemID="732" duration="0.050000000000000003">
      <Effects />
      <Transitions />
      <BoundProperties>
        <BoundPropertyInt Name="rotateStepNinety" Value="0" />
      </BoundProperties>
    </ImageClip>
    <ImageClip extentID="737" gapBefore="0" mediaItemID="733" duration="0.050000000000000003">
      <Effects />
      <Transitions />
      <BoundProperties>
        <BoundPropertyInt Name="rotateStepNinety" Value="0" />
      </BoundProperties>
    </ImageClip>
    <ImageClip extentID="738" gapBefore="0" mediaItemID="734" duration="0.050000000000000003">
      <Effects />
      <Transitions />
      <BoundProperties>
        <BoundPropertyInt Name="rotateStepNinety" Value="0" />
      </BoundProperties>
    </ImageClip>
    <ImageClip extentID="739" gapBefore="0" mediaItemID="735" duration="0.050000000000000003">
      <Effects />
      <Transitions />
      <BoundProperties>
        <BoundPropertyInt Name="rotateStepNinety" Value="0" />
      </BoundProperties>
    </ImageClip>
    <ImageClip extentID="740" gapBefore="0" mediaItemID="736" duration="0.050000000000000003">
      <Effects />
      <Transitions />
      <BoundProperties>
        <BoundPropertyInt Name="rotateStepNinety" Value="0" />
      </BoundProperties>
    </ImageClip>
    <ImageClip extentID="741" gapBefore="0" mediaItemID="737" duration="0.050000000000000003">
      <Effects />
      <Transitions />
      <BoundProperties>
        <BoundPropertyInt Name="rotateStepNinety" Value="0" />
      </BoundProperties>
    </ImageClip>
    <ImageClip extentID="742" gapBefore="0" mediaItemID="738" duration="0.050000000000000003">
      <Effects />
      <Transitions />
      <BoundProperties>
        <BoundPropertyInt Name="rotateStepNinety" Value="0" />
      </BoundProperties>
    </ImageClip>
    <ImageClip extentID="743" gapBefore="0" mediaItemID="739" duration="0.050000000000000003">
      <Effects />
      <Transitions />
      <BoundProperties>
        <BoundPropertyInt Name="rotateStepNinety" Value="0" />
      </BoundProperties>
    </ImageClip>
    <ImageClip extentID="744" gapBefore="0" mediaItemID="740" duration="0.050000000000000003">
      <Effects />
      <Transitions />
      <BoundProperties>
        <BoundPropertyInt Name="rotateStepNinety" Value="0" />
      </BoundProperties>
    </ImageClip>
    <ImageClip extentID="745" gapBefore="0" mediaItemID="741" duration="0.050000000000000003">
      <Effects />
      <Transitions />
      <BoundProperties>
        <BoundPropertyInt Name="rotateStepNinety" Value="0" />
      </BoundProperties>
    </ImageClip>
    <ImageClip extentID="746" gapBefore="0" mediaItemID="742" duration="0.050000000000000003">
      <Effects />
      <Transitions />
      <BoundProperties>
        <BoundPropertyInt Name="rotateStepNinety" Value="0" />
      </BoundProperties>
    </ImageClip>
    <ImageClip extentID="747" gapBefore="0" mediaItemID="743" duration="0.050000000000000003">
      <Effects />
      <Transitions />
      <BoundProperties>
        <BoundPropertyInt Name="rotateStepNinety" Value="0" />
      </BoundProperties>
    </ImageClip>
    <ImageClip extentID="748" gapBefore="0" mediaItemID="744" duration="0.050000000000000003">
      <Effects />
      <Transitions />
      <BoundProperties>
        <BoundPropertyInt Name="rotateStepNinety" Value="0" />
      </BoundProperties>
    </ImageClip>
    <ImageClip extentID="749" gapBefore="0" mediaItemID="745" duration="0.050000000000000003">
      <Effects />
      <Transitions />
      <BoundProperties>
        <BoundPropertyInt Name="rotateStepNinety" Value="0" />
      </BoundProperties>
    </ImageClip>
    <ImageClip extentID="750" gapBefore="0" mediaItemID="746" duration="0.050000000000000003">
      <Effects />
      <Transitions />
      <BoundProperties>
        <BoundPropertyInt Name="rotateStepNinety" Value="0" />
      </BoundProperties>
    </ImageClip>
    <ImageClip extentID="751" gapBefore="0" mediaItemID="747" duration="0.050000000000000003">
      <Effects />
      <Transitions />
      <BoundProperties>
        <BoundPropertyInt Name="rotateStepNinety" Value="0" />
      </BoundProperties>
    </ImageClip>
    <ImageClip extentID="752" gapBefore="0" mediaItemID="748" duration="0.050000000000000003">
      <Effects />
      <Transitions />
      <BoundProperties>
        <BoundPropertyInt Name="rotateStepNinety" Value="0" />
      </BoundProperties>
    </ImageClip>
    <ImageClip extentID="753" gapBefore="0" mediaItemID="749" duration="0.050000000000000003">
      <Effects />
      <Transitions />
      <BoundProperties>
        <BoundPropertyInt Name="rotateStepNinety" Value="0" />
      </BoundProperties>
    </ImageClip>
    <ImageClip extentID="754" gapBefore="0" mediaItemID="750" duration="0.050000000000000003">
      <Effects />
      <Transitions />
      <BoundProperties>
        <BoundPropertyInt Name="rotateStepNinety" Value="0" />
      </BoundProperties>
    </ImageClip>
    <ImageClip extentID="755" gapBefore="0" mediaItemID="751" duration="0.050000000000000003">
      <Effects />
      <Transitions />
      <BoundProperties>
        <BoundPropertyInt Name="rotateStepNinety" Value="0" />
      </BoundProperties>
    </ImageClip>
    <ImageClip extentID="756" gapBefore="0" mediaItemID="752" duration="0.050000000000000003">
      <Effects />
      <Transitions />
      <BoundProperties>
        <BoundPropertyInt Name="rotateStepNinety" Value="0" />
      </BoundProperties>
    </ImageClip>
    <ImageClip extentID="757" gapBefore="0" mediaItemID="753" duration="0.050000000000000003">
      <Effects />
      <Transitions />
      <BoundProperties>
        <BoundPropertyInt Name="rotateStepNinety" Value="0" />
      </BoundProperties>
    </ImageClip>
    <ImageClip extentID="758" gapBefore="0" mediaItemID="754" duration="0.050000000000000003">
      <Effects />
      <Transitions />
      <BoundProperties>
        <BoundPropertyInt Name="rotateStepNinety" Value="0" />
      </BoundProperties>
    </ImageClip>
    <ImageClip extentID="759" gapBefore="0" mediaItemID="755" duration="0.050000000000000003">
      <Effects />
      <Transitions />
      <BoundProperties>
        <BoundPropertyInt Name="rotateStepNinety" Value="0" />
      </BoundProperties>
    </ImageClip>
    <ImageClip extentID="760" gapBefore="0" mediaItemID="756" duration="0.050000000000000003">
      <Effects />
      <Transitions />
      <BoundProperties>
        <BoundPropertyInt Name="rotateStepNinety" Value="0" />
      </BoundProperties>
    </ImageClip>
    <ImageClip extentID="761" gapBefore="0" mediaItemID="757" duration="0.050000000000000003">
      <Effects />
      <Transitions />
      <BoundProperties>
        <BoundPropertyInt Name="rotateStepNinety" Value="0" />
      </BoundProperties>
    </ImageClip>
    <ImageClip extentID="762" gapBefore="0" mediaItemID="758" duration="0.050000000000000003">
      <Effects />
      <Transitions />
      <BoundProperties>
        <BoundPropertyInt Name="rotateStepNinety" Value="0" />
      </BoundProperties>
    </ImageClip>
    <ImageClip extentID="763" gapBefore="0" mediaItemID="759" duration="0.050000000000000003">
      <Effects />
      <Transitions />
      <BoundProperties>
        <BoundPropertyInt Name="rotateStepNinety" Value="0" />
      </BoundProperties>
    </ImageClip>
    <ImageClip extentID="764" gapBefore="0" mediaItemID="760" duration="0.050000000000000003">
      <Effects />
      <Transitions />
      <BoundProperties>
        <BoundPropertyInt Name="rotateStepNinety" Value="0" />
      </BoundProperties>
    </ImageClip>
    <ImageClip extentID="765" gapBefore="0" mediaItemID="761" duration="0.050000000000000003">
      <Effects />
      <Transitions />
      <BoundProperties>
        <BoundPropertyInt Name="rotateStepNinety" Value="0" />
      </BoundProperties>
    </ImageClip>
    <ImageClip extentID="766" gapBefore="0" mediaItemID="762" duration="0.050000000000000003">
      <Effects />
      <Transitions />
      <BoundProperties>
        <BoundPropertyInt Name="rotateStepNinety" Value="0" />
      </BoundProperties>
    </ImageClip>
    <ImageClip extentID="767" gapBefore="0" mediaItemID="763" duration="0.050000000000000003">
      <Effects />
      <Transitions />
      <BoundProperties>
        <BoundPropertyInt Name="rotateStepNinety" Value="0" />
      </BoundProperties>
    </ImageClip>
    <ImageClip extentID="768" gapBefore="0" mediaItemID="764" duration="0.050000000000000003">
      <Effects />
      <Transitions />
      <BoundProperties>
        <BoundPropertyInt Name="rotateStepNinety" Value="0" />
      </BoundProperties>
    </ImageClip>
    <ImageClip extentID="769" gapBefore="0" mediaItemID="765" duration="0.050000000000000003">
      <Effects />
      <Transitions />
      <BoundProperties>
        <BoundPropertyInt Name="rotateStepNinety" Value="0" />
      </BoundProperties>
    </ImageClip>
    <ImageClip extentID="770" gapBefore="0" mediaItemID="766" duration="0.050000000000000003">
      <Effects />
      <Transitions />
      <BoundProperties>
        <BoundPropertyInt Name="rotateStepNinety" Value="0" />
      </BoundProperties>
    </ImageClip>
    <ImageClip extentID="771" gapBefore="0" mediaItemID="767" duration="0.050000000000000003">
      <Effects />
      <Transitions />
      <BoundProperties>
        <BoundPropertyInt Name="rotateStepNinety" Value="0" />
      </BoundProperties>
    </ImageClip>
    <ImageClip extentID="772" gapBefore="0" mediaItemID="768" duration="0.050000000000000003">
      <Effects />
      <Transitions />
      <BoundProperties>
        <BoundPropertyInt Name="rotateStepNinety" Value="0" />
      </BoundProperties>
    </ImageClip>
    <ImageClip extentID="773" gapBefore="0" mediaItemID="769" duration="0.050000000000000003">
      <Effects />
      <Transitions />
      <BoundProperties>
        <BoundPropertyInt Name="rotateStepNinety" Value="0" />
      </BoundProperties>
    </ImageClip>
    <ImageClip extentID="774" gapBefore="0" mediaItemID="770" duration="0.050000000000000003">
      <Effects />
      <Transitions />
      <BoundProperties>
        <BoundPropertyInt Name="rotateStepNinety" Value="0" />
      </BoundProperties>
    </ImageClip>
    <ImageClip extentID="775" gapBefore="0" mediaItemID="771" duration="0.050000000000000003">
      <Effects />
      <Transitions />
      <BoundProperties>
        <BoundPropertyInt Name="rotateStepNinety" Value="0" />
      </BoundProperties>
    </ImageClip>
    <ImageClip extentID="776" gapBefore="0" mediaItemID="772" duration="0.050000000000000003">
      <Effects />
      <Transitions />
      <BoundProperties>
        <BoundPropertyInt Name="rotateStepNinety" Value="0" />
      </BoundProperties>
    </ImageClip>
    <ImageClip extentID="777" gapBefore="0" mediaItemID="773" duration="0.050000000000000003">
      <Effects />
      <Transitions />
      <BoundProperties>
        <BoundPropertyInt Name="rotateStepNinety" Value="0" />
      </BoundProperties>
    </ImageClip>
    <ImageClip extentID="778" gapBefore="0" mediaItemID="774" duration="0.050000000000000003">
      <Effects />
      <Transitions />
      <BoundProperties>
        <BoundPropertyInt Name="rotateStepNinety" Value="0" />
      </BoundProperties>
    </ImageClip>
    <ImageClip extentID="779" gapBefore="0" mediaItemID="775" duration="0.050000000000000003">
      <Effects />
      <Transitions />
      <BoundProperties>
        <BoundPropertyInt Name="rotateStepNinety" Value="0" />
      </BoundProperties>
    </ImageClip>
    <ImageClip extentID="780" gapBefore="0" mediaItemID="776" duration="0.050000000000000003">
      <Effects />
      <Transitions />
      <BoundProperties>
        <BoundPropertyInt Name="rotateStepNinety" Value="0" />
      </BoundProperties>
    </ImageClip>
    <ImageClip extentID="781" gapBefore="0" mediaItemID="777" duration="0.050000000000000003">
      <Effects />
      <Transitions />
      <BoundProperties>
        <BoundPropertyInt Name="rotateStepNinety" Value="0" />
      </BoundProperties>
    </ImageClip>
    <ImageClip extentID="782" gapBefore="0" mediaItemID="778" duration="0.050000000000000003">
      <Effects />
      <Transitions />
      <BoundProperties>
        <BoundPropertyInt Name="rotateStepNinety" Value="0" />
      </BoundProperties>
    </ImageClip>
    <ImageClip extentID="783" gapBefore="0" mediaItemID="779" duration="0.050000000000000003">
      <Effects />
      <Transitions />
      <BoundProperties>
        <BoundPropertyInt Name="rotateStepNinety" Value="0" />
      </BoundProperties>
    </ImageClip>
    <ImageClip extentID="784" gapBefore="0" mediaItemID="780" duration="0.050000000000000003">
      <Effects />
      <Transitions />
      <BoundProperties>
        <BoundPropertyInt Name="rotateStepNinety" Value="0" />
      </BoundProperties>
    </ImageClip>
    <ImageClip extentID="785" gapBefore="0" mediaItemID="781" duration="0.050000000000000003">
      <Effects />
      <Transitions />
      <BoundProperties>
        <BoundPropertyInt Name="rotateStepNinety" Value="0" />
      </BoundProperties>
    </ImageClip>
    <ImageClip extentID="786" gapBefore="0" mediaItemID="782" duration="0.050000000000000003">
      <Effects />
      <Transitions />
      <BoundProperties>
        <BoundPropertyInt Name="rotateStepNinety" Value="0" />
      </BoundProperties>
    </ImageClip>
    <ImageClip extentID="787" gapBefore="0" mediaItemID="783" duration="0.050000000000000003">
      <Effects />
      <Transitions />
      <BoundProperties>
        <BoundPropertyInt Name="rotateStepNinety" Value="0" />
      </BoundProperties>
    </ImageClip>
    <ImageClip extentID="788" gapBefore="0" mediaItemID="784" duration="0.050000000000000003">
      <Effects />
      <Transitions />
      <BoundProperties>
        <BoundPropertyInt Name="rotateStepNinety" Value="0" />
      </BoundProperties>
    </ImageClip>
    <ImageClip extentID="789" gapBefore="0" mediaItemID="785" duration="0.050000000000000003">
      <Effects />
      <Transitions />
      <BoundProperties>
        <BoundPropertyInt Name="rotateStepNinety" Value="0" />
      </BoundProperties>
    </ImageClip>
    <ImageClip extentID="790" gapBefore="0" mediaItemID="786" duration="0.050000000000000003">
      <Effects />
      <Transitions />
      <BoundProperties>
        <BoundPropertyInt Name="rotateStepNinety" Value="0" />
      </BoundProperties>
    </ImageClip>
    <ImageClip extentID="791" gapBefore="0" mediaItemID="787" duration="0.050000000000000003">
      <Effects />
      <Transitions />
      <BoundProperties>
        <BoundPropertyInt Name="rotateStepNinety" Value="0" />
      </BoundProperties>
    </ImageClip>
    <ImageClip extentID="792" gapBefore="0" mediaItemID="788" duration="0.050000000000000003">
      <Effects />
      <Transitions />
      <BoundProperties>
        <BoundPropertyInt Name="rotateStepNinety" Value="0" />
      </BoundProperties>
    </ImageClip>
    <ImageClip extentID="793" gapBefore="0" mediaItemID="789" duration="0.050000000000000003">
      <Effects />
      <Transitions />
      <BoundProperties>
        <BoundPropertyInt Name="rotateStepNinety" Value="0" />
      </BoundProperties>
    </ImageClip>
    <ImageClip extentID="794" gapBefore="0" mediaItemID="790" duration="0.050000000000000003">
      <Effects />
      <Transitions />
      <BoundProperties>
        <BoundPropertyInt Name="rotateStepNinety" Value="0" />
      </BoundProperties>
    </ImageClip>
    <ImageClip extentID="795" gapBefore="0" mediaItemID="791" duration="0.050000000000000003">
      <Effects />
      <Transitions />
      <BoundProperties>
        <BoundPropertyInt Name="rotateStepNinety" Value="0" />
      </BoundProperties>
    </ImageClip>
    <ImageClip extentID="796" gapBefore="0" mediaItemID="792" duration="0.050000000000000003">
      <Effects />
      <Transitions />
      <BoundProperties>
        <BoundPropertyInt Name="rotateStepNinety" Value="0" />
      </BoundProperties>
    </ImageClip>
    <ImageClip extentID="797" gapBefore="0" mediaItemID="793" duration="0.050000000000000003">
      <Effects />
      <Transitions />
      <BoundProperties>
        <BoundPropertyInt Name="rotateStepNinety" Value="0" />
      </BoundProperties>
    </ImageClip>
    <ImageClip extentID="798" gapBefore="0" mediaItemID="794" duration="0.050000000000000003">
      <Effects />
      <Transitions />
      <BoundProperties>
        <BoundPropertyInt Name="rotateStepNinety" Value="0" />
      </BoundProperties>
    </ImageClip>
    <ImageClip extentID="799" gapBefore="0" mediaItemID="795" duration="0.050000000000000003">
      <Effects />
      <Transitions />
      <BoundProperties>
        <BoundPropertyInt Name="rotateStepNinety" Value="0" />
      </BoundProperties>
    </ImageClip>
    <ImageClip extentID="800" gapBefore="0" mediaItemID="796" duration="0.050000000000000003">
      <Effects />
      <Transitions />
      <BoundProperties>
        <BoundPropertyInt Name="rotateStepNinety" Value="0" />
      </BoundProperties>
    </ImageClip>
    <ImageClip extentID="801" gapBefore="0" mediaItemID="797" duration="0.050000000000000003">
      <Effects />
      <Transitions />
      <BoundProperties>
        <BoundPropertyInt Name="rotateStepNinety" Value="0" />
      </BoundProperties>
    </ImageClip>
    <ImageClip extentID="802" gapBefore="0" mediaItemID="798" duration="0.050000000000000003">
      <Effects />
      <Transitions />
      <BoundProperties>
        <BoundPropertyInt Name="rotateStepNinety" Value="0" />
      </BoundProperties>
    </ImageClip>
    <ImageClip extentID="803" gapBefore="0" mediaItemID="799" duration="0.050000000000000003">
      <Effects />
      <Transitions />
      <BoundProperties>
        <BoundPropertyInt Name="rotateStepNinety" Value="0" />
      </BoundProperties>
    </ImageClip>
    <ImageClip extentID="804" gapBefore="0" mediaItemID="800" duration="0.050000000000000003">
      <Effects />
      <Transitions />
      <BoundProperties>
        <BoundPropertyInt Name="rotateStepNinety" Value="0" />
      </BoundProperties>
    </ImageClip>
    <ImageClip extentID="805" gapBefore="0" mediaItemID="801" duration="0.050000000000000003">
      <Effects />
      <Transitions />
      <BoundProperties>
        <BoundPropertyInt Name="rotateStepNinety" Value="0" />
      </BoundProperties>
    </ImageClip>
    <ImageClip extentID="806" gapBefore="0" mediaItemID="802" duration="0.050000000000000003">
      <Effects />
      <Transitions />
      <BoundProperties>
        <BoundPropertyInt Name="rotateStepNinety" Value="0" />
      </BoundProperties>
    </ImageClip>
    <ImageClip extentID="807" gapBefore="0" mediaItemID="803" duration="0.050000000000000003">
      <Effects />
      <Transitions />
      <BoundProperties>
        <BoundPropertyInt Name="rotateStepNinety" Value="0" />
      </BoundProperties>
    </ImageClip>
    <ImageClip extentID="808" gapBefore="0" mediaItemID="804" duration="0.050000000000000003">
      <Effects />
      <Transitions />
      <BoundProperties>
        <BoundPropertyInt Name="rotateStepNinety" Value="0" />
      </BoundProperties>
    </ImageClip>
    <ImageClip extentID="809" gapBefore="0" mediaItemID="805" duration="0.050000000000000003">
      <Effects />
      <Transitions />
      <BoundProperties>
        <BoundPropertyInt Name="rotateStepNinety" Value="0" />
      </BoundProperties>
    </ImageClip>
    <ImageClip extentID="810" gapBefore="0" mediaItemID="806" duration="0.050000000000000003">
      <Effects />
      <Transitions />
      <BoundProperties>
        <BoundPropertyInt Name="rotateStepNinety" Value="0" />
      </BoundProperties>
    </ImageClip>
    <ImageClip extentID="811" gapBefore="0" mediaItemID="807" duration="0.050000000000000003">
      <Effects />
      <Transitions />
      <BoundProperties>
        <BoundPropertyInt Name="rotateStepNinety" Value="0" />
      </BoundProperties>
    </ImageClip>
    <ImageClip extentID="812" gapBefore="0" mediaItemID="808" duration="0.050000000000000003">
      <Effects />
      <Transitions />
      <BoundProperties>
        <BoundPropertyInt Name="rotateStepNinety" Value="0" />
      </BoundProperties>
    </ImageClip>
    <ImageClip extentID="813" gapBefore="0" mediaItemID="809" duration="0.050000000000000003">
      <Effects />
      <Transitions />
      <BoundProperties>
        <BoundPropertyInt Name="rotateStepNinety" Value="0" />
      </BoundProperties>
    </ImageClip>
    <ImageClip extentID="814" gapBefore="0" mediaItemID="810" duration="0.050000000000000003">
      <Effects />
      <Transitions />
      <BoundProperties>
        <BoundPropertyInt Name="rotateStepNinety" Value="0" />
      </BoundProperties>
    </ImageClip>
    <ImageClip extentID="815" gapBefore="0" mediaItemID="811" duration="0.050000000000000003">
      <Effects />
      <Transitions />
      <BoundProperties>
        <BoundPropertyInt Name="rotateStepNinety" Value="0" />
      </BoundProperties>
    </ImageClip>
    <ImageClip extentID="816" gapBefore="0" mediaItemID="812" duration="0.050000000000000003">
      <Effects />
      <Transitions />
      <BoundProperties>
        <BoundPropertyInt Name="rotateStepNinety" Value="0" />
      </BoundProperties>
    </ImageClip>
    <ImageClip extentID="817" gapBefore="0" mediaItemID="813" duration="0.050000000000000003">
      <Effects />
      <Transitions />
      <BoundProperties>
        <BoundPropertyInt Name="rotateStepNinety" Value="0" />
      </BoundProperties>
    </ImageClip>
    <ImageClip extentID="818" gapBefore="0" mediaItemID="814" duration="0.050000000000000003">
      <Effects />
      <Transitions />
      <BoundProperties>
        <BoundPropertyInt Name="rotateStepNinety" Value="0" />
      </BoundProperties>
    </ImageClip>
    <ImageClip extentID="819" gapBefore="0" mediaItemID="815" duration="0.050000000000000003">
      <Effects />
      <Transitions />
      <BoundProperties>
        <BoundPropertyInt Name="rotateStepNinety" Value="0" />
      </BoundProperties>
    </ImageClip>
    <ImageClip extentID="820" gapBefore="0" mediaItemID="816" duration="0.050000000000000003">
      <Effects />
      <Transitions />
      <BoundProperties>
        <BoundPropertyInt Name="rotateStepNinety" Value="0" />
      </BoundProperties>
    </ImageClip>
    <ImageClip extentID="821" gapBefore="0" mediaItemID="817" duration="0.050000000000000003">
      <Effects />
      <Transitions />
      <BoundProperties>
        <BoundPropertyInt Name="rotateStepNinety" Value="0" />
      </BoundProperties>
    </ImageClip>
    <ImageClip extentID="822" gapBefore="0" mediaItemID="818" duration="0.050000000000000003">
      <Effects />
      <Transitions />
      <BoundProperties>
        <BoundPropertyInt Name="rotateStepNinety" Value="0" />
      </BoundProperties>
    </ImageClip>
    <ImageClip extentID="823" gapBefore="0" mediaItemID="819" duration="0.050000000000000003">
      <Effects />
      <Transitions />
      <BoundProperties>
        <BoundPropertyInt Name="rotateStepNinety" Value="0" />
      </BoundProperties>
    </ImageClip>
    <ImageClip extentID="824" gapBefore="0" mediaItemID="820" duration="0.050000000000000003">
      <Effects />
      <Transitions />
      <BoundProperties>
        <BoundPropertyInt Name="rotateStepNinety" Value="0" />
      </BoundProperties>
    </ImageClip>
    <ImageClip extentID="825" gapBefore="0" mediaItemID="821" duration="0.050000000000000003">
      <Effects />
      <Transitions />
      <BoundProperties>
        <BoundPropertyInt Name="rotateStepNinety" Value="0" />
      </BoundProperties>
    </ImageClip>
    <ImageClip extentID="826" gapBefore="0" mediaItemID="822" duration="0.050000000000000003">
      <Effects />
      <Transitions />
      <BoundProperties>
        <BoundPropertyInt Name="rotateStepNinety" Value="0" />
      </BoundProperties>
    </ImageClip>
    <ImageClip extentID="827" gapBefore="0" mediaItemID="823" duration="0.050000000000000003">
      <Effects />
      <Transitions />
      <BoundProperties>
        <BoundPropertyInt Name="rotateStepNinety" Value="0" />
      </BoundProperties>
    </ImageClip>
    <ImageClip extentID="828" gapBefore="0" mediaItemID="824" duration="0.050000000000000003">
      <Effects />
      <Transitions />
      <BoundProperties>
        <BoundPropertyInt Name="rotateStepNinety" Value="0" />
      </BoundProperties>
    </ImageClip>
    <ImageClip extentID="829" gapBefore="0" mediaItemID="825" duration="0.050000000000000003">
      <Effects />
      <Transitions />
      <BoundProperties>
        <BoundPropertyInt Name="rotateStepNinety" Value="0" />
      </BoundProperties>
    </ImageClip>
    <ImageClip extentID="830" gapBefore="0" mediaItemID="826" duration="0.050000000000000003">
      <Effects />
      <Transitions />
      <BoundProperties>
        <BoundPropertyInt Name="rotateStepNinety" Value="0" />
      </BoundProperties>
    </ImageClip>
    <ImageClip extentID="831" gapBefore="0" mediaItemID="827" duration="0.050000000000000003">
      <Effects />
      <Transitions />
      <BoundProperties>
        <BoundPropertyInt Name="rotateStepNinety" Value="0" />
      </BoundProperties>
    </ImageClip>
    <ImageClip extentID="832" gapBefore="0" mediaItemID="828" duration="0.050000000000000003">
      <Effects />
      <Transitions />
      <BoundProperties>
        <BoundPropertyInt Name="rotateStepNinety" Value="0" />
      </BoundProperties>
    </ImageClip>
    <ImageClip extentID="833" gapBefore="0" mediaItemID="829" duration="0.050000000000000003">
      <Effects />
      <Transitions />
      <BoundProperties>
        <BoundPropertyInt Name="rotateStepNinety" Value="0" />
      </BoundProperties>
    </ImageClip>
    <ImageClip extentID="834" gapBefore="0" mediaItemID="830" duration="0.050000000000000003">
      <Effects />
      <Transitions />
      <BoundProperties>
        <BoundPropertyInt Name="rotateStepNinety" Value="0" />
      </BoundProperties>
    </ImageClip>
    <ImageClip extentID="835" gapBefore="0" mediaItemID="831" duration="0.050000000000000003">
      <Effects />
      <Transitions />
      <BoundProperties>
        <BoundPropertyInt Name="rotateStepNinety" Value="0" />
      </BoundProperties>
    </ImageClip>
    <ImageClip extentID="836" gapBefore="0" mediaItemID="832" duration="0.050000000000000003">
      <Effects />
      <Transitions />
      <BoundProperties>
        <BoundPropertyInt Name="rotateStepNinety" Value="0" />
      </BoundProperties>
    </ImageClip>
    <ImageClip extentID="837" gapBefore="0" mediaItemID="833" duration="0.050000000000000003">
      <Effects />
      <Transitions />
      <BoundProperties>
        <BoundPropertyInt Name="rotateStepNinety" Value="0" />
      </BoundProperties>
    </ImageClip>
    <ImageClip extentID="838" gapBefore="0" mediaItemID="834" duration="0.050000000000000003">
      <Effects />
      <Transitions />
      <BoundProperties>
        <BoundPropertyInt Name="rotateStepNinety" Value="0" />
      </BoundProperties>
    </ImageClip>
    <ImageClip extentID="839" gapBefore="0" mediaItemID="835" duration="0.050000000000000003">
      <Effects />
      <Transitions />
      <BoundProperties>
        <BoundPropertyInt Name="rotateStepNinety" Value="0" />
      </BoundProperties>
    </ImageClip>
    <ImageClip extentID="840" gapBefore="0" mediaItemID="836" duration="0.050000000000000003">
      <Effects />
      <Transitions />
      <BoundProperties>
        <BoundPropertyInt Name="rotateStepNinety" Value="0" />
      </BoundProperties>
    </ImageClip>
    <ImageClip extentID="841" gapBefore="0" mediaItemID="837" duration="0.050000000000000003">
      <Effects />
      <Transitions />
      <BoundProperties>
        <BoundPropertyInt Name="rotateStepNinety" Value="0" />
      </BoundProperties>
    </ImageClip>
    <ImageClip extentID="842" gapBefore="0" mediaItemID="838" duration="0.050000000000000003">
      <Effects />
      <Transitions />
      <BoundProperties>
        <BoundPropertyInt Name="rotateStepNinety" Value="0" />
      </BoundProperties>
    </ImageClip>
    <ImageClip extentID="843" gapBefore="0" mediaItemID="839" duration="0.050000000000000003">
      <Effects />
      <Transitions />
      <BoundProperties>
        <BoundPropertyInt Name="rotateStepNinety" Value="0" />
      </BoundProperties>
    </ImageClip>
    <ImageClip extentID="844" gapBefore="0" mediaItemID="840" duration="0.050000000000000003">
      <Effects />
      <Transitions />
      <BoundProperties>
        <BoundPropertyInt Name="rotateStepNinety" Value="0" />
      </BoundProperties>
    </ImageClip>
    <ImageClip extentID="845" gapBefore="0" mediaItemID="841" duration="0.050000000000000003">
      <Effects />
      <Transitions />
      <BoundProperties>
        <BoundPropertyInt Name="rotateStepNinety" Value="0" />
      </BoundProperties>
    </ImageClip>
    <ImageClip extentID="846" gapBefore="0" mediaItemID="842" duration="0.050000000000000003">
      <Effects />
      <Transitions />
      <BoundProperties>
        <BoundPropertyInt Name="rotateStepNinety" Value="0" />
      </BoundProperties>
    </ImageClip>
    <ImageClip extentID="847" gapBefore="0" mediaItemID="843" duration="0.050000000000000003">
      <Effects />
      <Transitions />
      <BoundProperties>
        <BoundPropertyInt Name="rotateStepNinety" Value="0" />
      </BoundProperties>
    </ImageClip>
    <ImageClip extentID="848" gapBefore="0" mediaItemID="844" duration="0.050000000000000003">
      <Effects />
      <Transitions />
      <BoundProperties>
        <BoundPropertyInt Name="rotateStepNinety" Value="0" />
      </BoundProperties>
    </ImageClip>
    <ImageClip extentID="849" gapBefore="0" mediaItemID="845" duration="0.050000000000000003">
      <Effects />
      <Transitions />
      <BoundProperties>
        <BoundPropertyInt Name="rotateStepNinety" Value="0" />
      </BoundProperties>
    </ImageClip>
    <ImageClip extentID="850" gapBefore="0" mediaItemID="846" duration="0.050000000000000003">
      <Effects />
      <Transitions />
      <BoundProperties>
        <BoundPropertyInt Name="rotateStepNinety" Value="0" />
      </BoundProperties>
    </ImageClip>
    <ImageClip extentID="851" gapBefore="0" mediaItemID="847" duration="0.050000000000000003">
      <Effects />
      <Transitions />
      <BoundProperties>
        <BoundPropertyInt Name="rotateStepNinety" Value="0" />
      </BoundProperties>
    </ImageClip>
    <ImageClip extentID="852" gapBefore="0" mediaItemID="848" duration="0.050000000000000003">
      <Effects />
      <Transitions />
      <BoundProperties>
        <BoundPropertyInt Name="rotateStepNinety" Value="0" />
      </BoundProperties>
    </ImageClip>
    <ImageClip extentID="853" gapBefore="0" mediaItemID="849" duration="0.050000000000000003">
      <Effects />
      <Transitions />
      <BoundProperties>
        <BoundPropertyInt Name="rotateStepNinety" Value="0" />
      </BoundProperties>
    </ImageClip>
    <ImageClip extentID="854" gapBefore="0" mediaItemID="850" duration="0.050000000000000003">
      <Effects />
      <Transitions />
      <BoundProperties>
        <BoundPropertyInt Name="rotateStepNinety" Value="0" />
      </BoundProperties>
    </ImageClip>
    <ImageClip extentID="855" gapBefore="0" mediaItemID="851" duration="0.050000000000000003">
      <Effects />
      <Transitions />
      <BoundProperties>
        <BoundPropertyInt Name="rotateStepNinety" Value="0" />
      </BoundProperties>
    </ImageClip>
    <ImageClip extentID="856" gapBefore="0" mediaItemID="852" duration="0.050000000000000003">
      <Effects />
      <Transitions />
      <BoundProperties>
        <BoundPropertyInt Name="rotateStepNinety" Value="0" />
      </BoundProperties>
    </ImageClip>
    <ImageClip extentID="857" gapBefore="0" mediaItemID="853" duration="0.050000000000000003">
      <Effects />
      <Transitions />
      <BoundProperties>
        <BoundPropertyInt Name="rotateStepNinety" Value="0" />
      </BoundProperties>
    </ImageClip>
    <ImageClip extentID="858" gapBefore="0" mediaItemID="854" duration="0.050000000000000003">
      <Effects />
      <Transitions />
      <BoundProperties>
        <BoundPropertyInt Name="rotateStepNinety" Value="0" />
      </BoundProperties>
    </ImageClip>
    <ImageClip extentID="859" gapBefore="0" mediaItemID="855" duration="0.050000000000000003">
      <Effects />
      <Transitions />
      <BoundProperties>
        <BoundPropertyInt Name="rotateStepNinety" Value="0" />
      </BoundProperties>
    </ImageClip>
    <ImageClip extentID="860" gapBefore="0" mediaItemID="856" duration="0.050000000000000003">
      <Effects />
      <Transitions />
      <BoundProperties>
        <BoundPropertyInt Name="rotateStepNinety" Value="0" />
      </BoundProperties>
    </ImageClip>
    <ImageClip extentID="861" gapBefore="0" mediaItemID="857" duration="0.050000000000000003">
      <Effects />
      <Transitions />
      <BoundProperties>
        <BoundPropertyInt Name="rotateStepNinety" Value="0" />
      </BoundProperties>
    </ImageClip>
    <ImageClip extentID="862" gapBefore="0" mediaItemID="858" duration="0.050000000000000003">
      <Effects />
      <Transitions />
      <BoundProperties>
        <BoundPropertyInt Name="rotateStepNinety" Value="0" />
      </BoundProperties>
    </ImageClip>
    <ImageClip extentID="863" gapBefore="0" mediaItemID="859" duration="0.050000000000000003">
      <Effects />
      <Transitions />
      <BoundProperties>
        <BoundPropertyInt Name="rotateStepNinety" Value="0" />
      </BoundProperties>
    </ImageClip>
    <ImageClip extentID="864" gapBefore="0" mediaItemID="860" duration="0.050000000000000003">
      <Effects />
      <Transitions />
      <BoundProperties>
        <BoundPropertyInt Name="rotateStepNinety" Value="0" />
      </BoundProperties>
    </ImageClip>
    <ImageClip extentID="865" gapBefore="0" mediaItemID="861" duration="0.050000000000000003">
      <Effects />
      <Transitions />
      <BoundProperties>
        <BoundPropertyInt Name="rotateStepNinety" Value="0" />
      </BoundProperties>
    </ImageClip>
    <ImageClip extentID="866" gapBefore="0" mediaItemID="862" duration="0.050000000000000003">
      <Effects />
      <Transitions />
      <BoundProperties>
        <BoundPropertyInt Name="rotateStepNinety" Value="0" />
      </BoundProperties>
    </ImageClip>
    <ImageClip extentID="867" gapBefore="0" mediaItemID="863" duration="0.050000000000000003">
      <Effects />
      <Transitions />
      <BoundProperties>
        <BoundPropertyInt Name="rotateStepNinety" Value="0" />
      </BoundProperties>
    </ImageClip>
    <ImageClip extentID="868" gapBefore="0" mediaItemID="864" duration="0.050000000000000003">
      <Effects />
      <Transitions />
      <BoundProperties>
        <BoundPropertyInt Name="rotateStepNinety" Value="0" />
      </BoundProperties>
    </ImageClip>
    <ImageClip extentID="869" gapBefore="0" mediaItemID="865" duration="0.050000000000000003">
      <Effects />
      <Transitions />
      <BoundProperties>
        <BoundPropertyInt Name="rotateStepNinety" Value="0" />
      </BoundProperties>
    </ImageClip>
    <ImageClip extentID="870" gapBefore="0" mediaItemID="866" duration="0.050000000000000003">
      <Effects />
      <Transitions />
      <BoundProperties>
        <BoundPropertyInt Name="rotateStepNinety" Value="0" />
      </BoundProperties>
    </ImageClip>
    <ImageClip extentID="871" gapBefore="0" mediaItemID="867" duration="0.050000000000000003">
      <Effects />
      <Transitions />
      <BoundProperties>
        <BoundPropertyInt Name="rotateStepNinety" Value="0" />
      </BoundProperties>
    </ImageClip>
    <ImageClip extentID="872" gapBefore="0" mediaItemID="868" duration="0.050000000000000003">
      <Effects />
      <Transitions />
      <BoundProperties>
        <BoundPropertyInt Name="rotateStepNinety" Value="0" />
      </BoundProperties>
    </ImageClip>
    <ImageClip extentID="873" gapBefore="0" mediaItemID="869" duration="0.050000000000000003">
      <Effects />
      <Transitions />
      <BoundProperties>
        <BoundPropertyInt Name="rotateStepNinety" Value="0" />
      </BoundProperties>
    </ImageClip>
    <ImageClip extentID="874" gapBefore="0" mediaItemID="870" duration="0.050000000000000003">
      <Effects />
      <Transitions />
      <BoundProperties>
        <BoundPropertyInt Name="rotateStepNinety" Value="0" />
      </BoundProperties>
    </ImageClip>
    <ImageClip extentID="875" gapBefore="0" mediaItemID="871" duration="0.050000000000000003">
      <Effects />
      <Transitions />
      <BoundProperties>
        <BoundPropertyInt Name="rotateStepNinety" Value="0" />
      </BoundProperties>
    </ImageClip>
    <ImageClip extentID="876" gapBefore="0" mediaItemID="872" duration="0.050000000000000003">
      <Effects />
      <Transitions />
      <BoundProperties>
        <BoundPropertyInt Name="rotateStepNinety" Value="0" />
      </BoundProperties>
    </ImageClip>
    <ImageClip extentID="877" gapBefore="0" mediaItemID="873" duration="0.050000000000000003">
      <Effects />
      <Transitions />
      <BoundProperties>
        <BoundPropertyInt Name="rotateStepNinety" Value="0" />
      </BoundProperties>
    </ImageClip>
    <ImageClip extentID="878" gapBefore="0" mediaItemID="874" duration="0.050000000000000003">
      <Effects />
      <Transitions />
      <BoundProperties>
        <BoundPropertyInt Name="rotateStepNinety" Value="0" />
      </BoundProperties>
    </ImageClip>
    <ImageClip extentID="879" gapBefore="0" mediaItemID="875" duration="0.050000000000000003">
      <Effects />
      <Transitions />
      <BoundProperties>
        <BoundPropertyInt Name="rotateStepNinety" Value="0" />
      </BoundProperties>
    </ImageClip>
    <ImageClip extentID="880" gapBefore="0" mediaItemID="876" duration="0.050000000000000003">
      <Effects />
      <Transitions />
      <BoundProperties>
        <BoundPropertyInt Name="rotateStepNinety" Value="0" />
      </BoundProperties>
    </ImageClip>
    <ImageClip extentID="881" gapBefore="0" mediaItemID="877" duration="0.050000000000000003">
      <Effects />
      <Transitions />
      <BoundProperties>
        <BoundPropertyInt Name="rotateStepNinety" Value="0" />
      </BoundProperties>
    </ImageClip>
    <ImageClip extentID="882" gapBefore="0" mediaItemID="878" duration="0.050000000000000003">
      <Effects />
      <Transitions />
      <BoundProperties>
        <BoundPropertyInt Name="rotateStepNinety" Value="0" />
      </BoundProperties>
    </ImageClip>
    <ImageClip extentID="883" gapBefore="0" mediaItemID="879" duration="0.050000000000000003">
      <Effects />
      <Transitions />
      <BoundProperties>
        <BoundPropertyInt Name="rotateStepNinety" Value="0" />
      </BoundProperties>
    </ImageClip>
    <ImageClip extentID="884" gapBefore="0" mediaItemID="880" duration="0.050000000000000003">
      <Effects />
      <Transitions />
      <BoundProperties>
        <BoundPropertyInt Name="rotateStepNinety" Value="0" />
      </BoundProperties>
    </ImageClip>
    <ImageClip extentID="885" gapBefore="0" mediaItemID="881" duration="0.050000000000000003">
      <Effects />
      <Transitions />
      <BoundProperties>
        <BoundPropertyInt Name="rotateStepNinety" Value="0" />
      </BoundProperties>
    </ImageClip>
    <ImageClip extentID="886" gapBefore="0" mediaItemID="882" duration="0.050000000000000003">
      <Effects />
      <Transitions />
      <BoundProperties>
        <BoundPropertyInt Name="rotateStepNinety" Value="0" />
      </BoundProperties>
    </ImageClip>
    <ImageClip extentID="887" gapBefore="0" mediaItemID="883" duration="0.050000000000000003">
      <Effects />
      <Transitions />
      <BoundProperties>
        <BoundPropertyInt Name="rotateStepNinety" Value="0" />
      </BoundProperties>
    </ImageClip>
    <ImageClip extentID="888" gapBefore="0" mediaItemID="884" duration="0.050000000000000003">
      <Effects />
      <Transitions />
      <BoundProperties>
        <BoundPropertyInt Name="rotateStepNinety" Value="0" />
      </BoundProperties>
    </ImageClip>
    <ImageClip extentID="889" gapBefore="0" mediaItemID="885" duration="0.050000000000000003">
      <Effects />
      <Transitions />
      <BoundProperties>
        <BoundPropertyInt Name="rotateStepNinety" Value="0" />
      </BoundProperties>
    </ImageClip>
    <ImageClip extentID="890" gapBefore="0" mediaItemID="886" duration="0.050000000000000003">
      <Effects />
      <Transitions />
      <BoundProperties>
        <BoundPropertyInt Name="rotateStepNinety" Value="0" />
      </BoundProperties>
    </ImageClip>
    <ImageClip extentID="891" gapBefore="0" mediaItemID="887" duration="0.050000000000000003">
      <Effects />
      <Transitions />
      <BoundProperties>
        <BoundPropertyInt Name="rotateStepNinety" Value="0" />
      </BoundProperties>
    </ImageClip>
    <ImageClip extentID="892" gapBefore="0" mediaItemID="888" duration="0.050000000000000003">
      <Effects />
      <Transitions />
      <BoundProperties>
        <BoundPropertyInt Name="rotateStepNinety" Value="0" />
      </BoundProperties>
    </ImageClip>
    <ImageClip extentID="893" gapBefore="0" mediaItemID="889" duration="0.050000000000000003">
      <Effects />
      <Transitions />
      <BoundProperties>
        <BoundPropertyInt Name="rotateStepNinety" Value="0" />
      </BoundProperties>
    </ImageClip>
    <ImageClip extentID="894" gapBefore="0" mediaItemID="890" duration="0.050000000000000003">
      <Effects />
      <Transitions />
      <BoundProperties>
        <BoundPropertyInt Name="rotateStepNinety" Value="0" />
      </BoundProperties>
    </ImageClip>
    <ImageClip extentID="895" gapBefore="0" mediaItemID="891" duration="0.050000000000000003">
      <Effects />
      <Transitions />
      <BoundProperties>
        <BoundPropertyInt Name="rotateStepNinety" Value="0" />
      </BoundProperties>
    </ImageClip>
    <ImageClip extentID="896" gapBefore="0" mediaItemID="892" duration="0.050000000000000003">
      <Effects />
      <Transitions />
      <BoundProperties>
        <BoundPropertyInt Name="rotateStepNinety" Value="0" />
      </BoundProperties>
    </ImageClip>
    <ImageClip extentID="897" gapBefore="0" mediaItemID="893" duration="0.050000000000000003">
      <Effects />
      <Transitions />
      <BoundProperties>
        <BoundPropertyInt Name="rotateStepNinety" Value="0" />
      </BoundProperties>
    </ImageClip>
    <ImageClip extentID="898" gapBefore="0" mediaItemID="894" duration="0.050000000000000003">
      <Effects />
      <Transitions />
      <BoundProperties>
        <BoundPropertyInt Name="rotateStepNinety" Value="0" />
      </BoundProperties>
    </ImageClip>
    <ImageClip extentID="899" gapBefore="0" mediaItemID="895" duration="0.050000000000000003">
      <Effects />
      <Transitions />
      <BoundProperties>
        <BoundPropertyInt Name="rotateStepNinety" Value="0" />
      </BoundProperties>
    </ImageClip>
    <ImageClip extentID="900" gapBefore="0" mediaItemID="896" duration="0.050000000000000003">
      <Effects />
      <Transitions />
      <BoundProperties>
        <BoundPropertyInt Name="rotateStepNinety" Value="0" />
      </BoundProperties>
    </ImageClip>
    <ImageClip extentID="901" gapBefore="0" mediaItemID="897" duration="0.050000000000000003">
      <Effects />
      <Transitions />
      <BoundProperties>
        <BoundPropertyInt Name="rotateStepNinety" Value="0" />
      </BoundProperties>
    </ImageClip>
    <ImageClip extentID="902" gapBefore="0" mediaItemID="898" duration="0.050000000000000003">
      <Effects />
      <Transitions />
      <BoundProperties>
        <BoundPropertyInt Name="rotateStepNinety" Value="0" />
      </BoundProperties>
    </ImageClip>
    <ImageClip extentID="903" gapBefore="0" mediaItemID="899" duration="0.050000000000000003">
      <Effects />
      <Transitions />
      <BoundProperties>
        <BoundPropertyInt Name="rotateStepNinety" Value="0" />
      </BoundProperties>
    </ImageClip>
    <ImageClip extentID="904" gapBefore="0" mediaItemID="900" duration="0.050000000000000003">
      <Effects />
      <Transitions />
      <BoundProperties>
        <BoundPropertyInt Name="rotateStepNinety" Value="0" />
      </BoundProperties>
    </ImageClip>
    <ImageClip extentID="905" gapBefore="0" mediaItemID="901" duration="0.050000000000000003">
      <Effects />
      <Transitions />
      <BoundProperties>
        <BoundPropertyInt Name="rotateStepNinety" Value="0" />
      </BoundProperties>
    </ImageClip>
    <ImageClip extentID="906" gapBefore="0" mediaItemID="902" duration="0.050000000000000003">
      <Effects />
      <Transitions />
      <BoundProperties>
        <BoundPropertyInt Name="rotateStepNinety" Value="0" />
      </BoundProperties>
    </ImageClip>
    <ImageClip extentID="907" gapBefore="0" mediaItemID="903" duration="0.050000000000000003">
      <Effects />
      <Transitions />
      <BoundProperties>
        <BoundPropertyInt Name="rotateStepNinety" Value="0" />
      </BoundProperties>
    </ImageClip>
    <ImageClip extentID="908" gapBefore="0" mediaItemID="904" duration="0.050000000000000003">
      <Effects />
      <Transitions />
      <BoundProperties>
        <BoundPropertyInt Name="rotateStepNinety" Value="0" />
      </BoundProperties>
    </ImageClip>
    <ImageClip extentID="909" gapBefore="0" mediaItemID="905" duration="0.050000000000000003">
      <Effects />
      <Transitions />
      <BoundProperties>
        <BoundPropertyInt Name="rotateStepNinety" Value="0" />
      </BoundProperties>
    </ImageClip>
    <ImageClip extentID="910" gapBefore="0" mediaItemID="906" duration="0.050000000000000003">
      <Effects />
      <Transitions />
      <BoundProperties>
        <BoundPropertyInt Name="rotateStepNinety" Value="0" />
      </BoundProperties>
    </ImageClip>
    <ImageClip extentID="911" gapBefore="0" mediaItemID="907" duration="0.050000000000000003">
      <Effects />
      <Transitions />
      <BoundProperties>
        <BoundPropertyInt Name="rotateStepNinety" Value="0" />
      </BoundProperties>
    </ImageClip>
    <ImageClip extentID="912" gapBefore="0" mediaItemID="908" duration="0.050000000000000003">
      <Effects />
      <Transitions />
      <BoundProperties>
        <BoundPropertyInt Name="rotateStepNinety" Value="0" />
      </BoundProperties>
    </ImageClip>
    <ImageClip extentID="913" gapBefore="0" mediaItemID="909" duration="0.050000000000000003">
      <Effects />
      <Transitions />
      <BoundProperties>
        <BoundPropertyInt Name="rotateStepNinety" Value="0" />
      </BoundProperties>
    </ImageClip>
    <ImageClip extentID="914" gapBefore="0" mediaItemID="910" duration="0.050000000000000003">
      <Effects />
      <Transitions />
      <BoundProperties>
        <BoundPropertyInt Name="rotateStepNinety" Value="0" />
      </BoundProperties>
    </ImageClip>
    <ImageClip extentID="915" gapBefore="0" mediaItemID="911" duration="0.050000000000000003">
      <Effects />
      <Transitions />
      <BoundProperties>
        <BoundPropertyInt Name="rotateStepNinety" Value="0" />
      </BoundProperties>
    </ImageClip>
    <ImageClip extentID="916" gapBefore="0" mediaItemID="912" duration="0.050000000000000003">
      <Effects />
      <Transitions />
      <BoundProperties>
        <BoundPropertyInt Name="rotateStepNinety" Value="0" />
      </BoundProperties>
    </ImageClip>
    <ImageClip extentID="917" gapBefore="0" mediaItemID="913" duration="0.050000000000000003">
      <Effects />
      <Transitions />
      <BoundProperties>
        <BoundPropertyInt Name="rotateStepNinety" Value="0" />
      </BoundProperties>
    </ImageClip>
    <ImageClip extentID="918" gapBefore="0" mediaItemID="914" duration="0.050000000000000003">
      <Effects />
      <Transitions />
      <BoundProperties>
        <BoundPropertyInt Name="rotateStepNinety" Value="0" />
      </BoundProperties>
    </ImageClip>
    <ImageClip extentID="919" gapBefore="0" mediaItemID="915" duration="0.050000000000000003">
      <Effects />
      <Transitions />
      <BoundProperties>
        <BoundPropertyInt Name="rotateStepNinety" Value="0" />
      </BoundProperties>
    </ImageClip>
    <ImageClip extentID="920" gapBefore="0" mediaItemID="916" duration="0.050000000000000003">
      <Effects />
      <Transitions />
      <BoundProperties>
        <BoundPropertyInt Name="rotateStepNinety" Value="0" />
      </BoundProperties>
    </ImageClip>
    <ImageClip extentID="921" gapBefore="0" mediaItemID="917" duration="0.050000000000000003">
      <Effects />
      <Transitions />
      <BoundProperties>
        <BoundPropertyInt Name="rotateStepNinety" Value="0" />
      </BoundProperties>
    </ImageClip>
    <ImageClip extentID="922" gapBefore="0" mediaItemID="918" duration="0.050000000000000003">
      <Effects />
      <Transitions />
      <BoundProperties>
        <BoundPropertyInt Name="rotateStepNinety" Value="0" />
      </BoundProperties>
    </ImageClip>
    <ImageClip extentID="923" gapBefore="0" mediaItemID="919" duration="0.050000000000000003">
      <Effects />
      <Transitions />
      <BoundProperties>
        <BoundPropertyInt Name="rotateStepNinety" Value="0" />
      </BoundProperties>
    </ImageClip>
    <ImageClip extentID="924" gapBefore="0" mediaItemID="920" duration="0.050000000000000003">
      <Effects />
      <Transitions />
      <BoundProperties>
        <BoundPropertyInt Name="rotateStepNinety" Value="0" />
      </BoundProperties>
    </ImageClip>
    <ImageClip extentID="925" gapBefore="0" mediaItemID="921" duration="0.050000000000000003">
      <Effects />
      <Transitions />
      <BoundProperties>
        <BoundPropertyInt Name="rotateStepNinety" Value="0" />
      </BoundProperties>
    </ImageClip>
    <ImageClip extentID="926" gapBefore="0" mediaItemID="922" duration="0.050000000000000003">
      <Effects />
      <Transitions />
      <BoundProperties>
        <BoundPropertyInt Name="rotateStepNinety" Value="0" />
      </BoundProperties>
    </ImageClip>
    <ImageClip extentID="927" gapBefore="0" mediaItemID="923" duration="0.050000000000000003">
      <Effects />
      <Transitions />
      <BoundProperties>
        <BoundPropertyInt Name="rotateStepNinety" Value="0" />
      </BoundProperties>
    </ImageClip>
    <ImageClip extentID="928" gapBefore="0" mediaItemID="924" duration="0.050000000000000003">
      <Effects />
      <Transitions />
      <BoundProperties>
        <BoundPropertyInt Name="rotateStepNinety" Value="0" />
      </BoundProperties>
    </ImageClip>
    <ImageClip extentID="929" gapBefore="0" mediaItemID="925" duration="0.050000000000000003">
      <Effects />
      <Transitions />
      <BoundProperties>
        <BoundPropertyInt Name="rotateStepNinety" Value="0" />
      </BoundProperties>
    </ImageClip>
    <ImageClip extentID="930" gapBefore="0" mediaItemID="926" duration="0.050000000000000003">
      <Effects />
      <Transitions />
      <BoundProperties>
        <BoundPropertyInt Name="rotateStepNinety" Value="0" />
      </BoundProperties>
    </ImageClip>
    <ImageClip extentID="931" gapBefore="0" mediaItemID="927" duration="0.050000000000000003">
      <Effects />
      <Transitions />
      <BoundProperties>
        <BoundPropertyInt Name="rotateStepNinety" Value="0" />
      </BoundProperties>
    </ImageClip>
    <ImageClip extentID="932" gapBefore="0" mediaItemID="928" duration="0.050000000000000003">
      <Effects />
      <Transitions />
      <BoundProperties>
        <BoundPropertyInt Name="rotateStepNinety" Value="0" />
      </BoundProperties>
    </ImageClip>
    <ImageClip extentID="933" gapBefore="0" mediaItemID="929" duration="0.050000000000000003">
      <Effects />
      <Transitions />
      <BoundProperties>
        <BoundPropertyInt Name="rotateStepNinety" Value="0" />
      </BoundProperties>
    </ImageClip>
    <ImageClip extentID="934" gapBefore="0" mediaItemID="930" duration="0.050000000000000003">
      <Effects />
      <Transitions />
      <BoundProperties>
        <BoundPropertyInt Name="rotateStepNinety" Value="0" />
      </BoundProperties>
    </ImageClip>
    <ImageClip extentID="935" gapBefore="0" mediaItemID="931" duration="0.050000000000000003">
      <Effects />
      <Transitions />
      <BoundProperties>
        <BoundPropertyInt Name="rotateStepNinety" Value="0" />
      </BoundProperties>
    </ImageClip>
    <ImageClip extentID="936" gapBefore="0" mediaItemID="932" duration="0.050000000000000003">
      <Effects />
      <Transitions />
      <BoundProperties>
        <BoundPropertyInt Name="rotateStepNinety" Value="0" />
      </BoundProperties>
    </ImageClip>
    <ImageClip extentID="937" gapBefore="0" mediaItemID="933" duration="0.050000000000000003">
      <Effects />
      <Transitions />
      <BoundProperties>
        <BoundPropertyInt Name="rotateStepNinety" Value="0" />
      </BoundProperties>
    </ImageClip>
    <ImageClip extentID="938" gapBefore="0" mediaItemID="934" duration="0.050000000000000003">
      <Effects />
      <Transitions />
      <BoundProperties>
        <BoundPropertyInt Name="rotateStepNinety" Value="0" />
      </BoundProperties>
    </ImageClip>
    <ImageClip extentID="939" gapBefore="0" mediaItemID="935" duration="0.050000000000000003">
      <Effects />
      <Transitions />
      <BoundProperties>
        <BoundPropertyInt Name="rotateStepNinety" Value="0" />
      </BoundProperties>
    </ImageClip>
    <ImageClip extentID="940" gapBefore="0" mediaItemID="936" duration="0.050000000000000003">
      <Effects />
      <Transitions />
      <BoundProperties>
        <BoundPropertyInt Name="rotateStepNinety" Value="0" />
      </BoundProperties>
    </ImageClip>
    <ImageClip extentID="941" gapBefore="0" mediaItemID="937" duration="0.050000000000000003">
      <Effects />
      <Transitions />
      <BoundProperties>
        <BoundPropertyInt Name="rotateStepNinety" Value="0" />
      </BoundProperties>
    </ImageClip>
    <ImageClip extentID="942" gapBefore="0" mediaItemID="938" duration="0.050000000000000003">
      <Effects />
      <Transitions />
      <BoundProperties>
        <BoundPropertyInt Name="rotateStepNinety" Value="0" />
      </BoundProperties>
    </ImageClip>
    <ImageClip extentID="943" gapBefore="0" mediaItemID="939" duration="0.050000000000000003">
      <Effects />
      <Transitions />
      <BoundProperties>
        <BoundPropertyInt Name="rotateStepNinety" Value="0" />
      </BoundProperties>
    </ImageClip>
    <ImageClip extentID="944" gapBefore="0" mediaItemID="940" duration="0.050000000000000003">
      <Effects />
      <Transitions />
      <BoundProperties>
        <BoundPropertyInt Name="rotateStepNinety" Value="0" />
      </BoundProperties>
    </ImageClip>
    <ImageClip extentID="945" gapBefore="0" mediaItemID="941" duration="0.050000000000000003">
      <Effects />
      <Transitions />
      <BoundProperties>
        <BoundPropertyInt Name="rotateStepNinety" Value="0" />
      </BoundProperties>
    </ImageClip>
    <ImageClip extentID="946" gapBefore="0" mediaItemID="942" duration="0.050000000000000003">
      <Effects />
      <Transitions />
      <BoundProperties>
        <BoundPropertyInt Name="rotateStepNinety" Value="0" />
      </BoundProperties>
    </ImageClip>
    <ImageClip extentID="947" gapBefore="0" mediaItemID="943" duration="0.050000000000000003">
      <Effects />
      <Transitions />
      <BoundProperties>
        <BoundPropertyInt Name="rotateStepNinety" Value="0" />
      </BoundProperties>
    </ImageClip>
    <ImageClip extentID="948" gapBefore="0" mediaItemID="944" duration="0.050000000000000003">
      <Effects />
      <Transitions />
      <BoundProperties>
        <BoundPropertyInt Name="rotateStepNinety" Value="0" />
      </BoundProperties>
    </ImageClip>
    <ImageClip extentID="949" gapBefore="0" mediaItemID="945" duration="0.050000000000000003">
      <Effects />
      <Transitions />
      <BoundProperties>
        <BoundPropertyInt Name="rotateStepNinety" Value="0" />
      </BoundProperties>
    </ImageClip>
    <ImageClip extentID="950" gapBefore="0" mediaItemID="946" duration="0.050000000000000003">
      <Effects />
      <Transitions />
      <BoundProperties>
        <BoundPropertyInt Name="rotateStepNinety" Value="0" />
      </BoundProperties>
    </ImageClip>
    <ImageClip extentID="951" gapBefore="0" mediaItemID="947" duration="0.050000000000000003">
      <Effects />
      <Transitions />
      <BoundProperties>
        <BoundPropertyInt Name="rotateStepNinety" Value="0" />
      </BoundProperties>
    </ImageClip>
    <ImageClip extentID="952" gapBefore="0" mediaItemID="948" duration="0.050000000000000003">
      <Effects />
      <Transitions />
      <BoundProperties>
        <BoundPropertyInt Name="rotateStepNinety" Value="0" />
      </BoundProperties>
    </ImageClip>
    <ImageClip extentID="953" gapBefore="0" mediaItemID="949" duration="0.050000000000000003">
      <Effects />
      <Transitions />
      <BoundProperties>
        <BoundPropertyInt Name="rotateStepNinety" Value="0" />
      </BoundProperties>
    </ImageClip>
    <ImageClip extentID="954" gapBefore="0" mediaItemID="950" duration="0.050000000000000003">
      <Effects />
      <Transitions />
      <BoundProperties>
        <BoundPropertyInt Name="rotateStepNinety" Value="0" />
      </BoundProperties>
    </ImageClip>
    <ImageClip extentID="955" gapBefore="0" mediaItemID="951" duration="0.050000000000000003">
      <Effects />
      <Transitions />
      <BoundProperties>
        <BoundPropertyInt Name="rotateStepNinety" Value="0" />
      </BoundProperties>
    </ImageClip>
    <ImageClip extentID="956" gapBefore="0" mediaItemID="952" duration="0.050000000000000003">
      <Effects />
      <Transitions />
      <BoundProperties>
        <BoundPropertyInt Name="rotateStepNinety" Value="0" />
      </BoundProperties>
    </ImageClip>
    <ImageClip extentID="957" gapBefore="0" mediaItemID="953" duration="0.050000000000000003">
      <Effects />
      <Transitions />
      <BoundProperties>
        <BoundPropertyInt Name="rotateStepNinety" Value="0" />
      </BoundProperties>
    </ImageClip>
    <ImageClip extentID="958" gapBefore="0" mediaItemID="954" duration="0.050000000000000003">
      <Effects />
      <Transitions />
      <BoundProperties>
        <BoundPropertyInt Name="rotateStepNinety" Value="0" />
      </BoundProperties>
    </ImageClip>
    <ImageClip extentID="959" gapBefore="0" mediaItemID="955" duration="0.050000000000000003">
      <Effects />
      <Transitions />
      <BoundProperties>
        <BoundPropertyInt Name="rotateStepNinety" Value="0" />
      </BoundProperties>
    </ImageClip>
    <ImageClip extentID="960" gapBefore="0" mediaItemID="956" duration="0.050000000000000003">
      <Effects />
      <Transitions />
      <BoundProperties>
        <BoundPropertyInt Name="rotateStepNinety" Value="0" />
      </BoundProperties>
    </ImageClip>
    <ImageClip extentID="961" gapBefore="0" mediaItemID="957" duration="0.050000000000000003">
      <Effects />
      <Transitions />
      <BoundProperties>
        <BoundPropertyInt Name="rotateStepNinety" Value="0" />
      </BoundProperties>
    </ImageClip>
    <ImageClip extentID="962" gapBefore="0" mediaItemID="958" duration="0.050000000000000003">
      <Effects />
      <Transitions />
      <BoundProperties>
        <BoundPropertyInt Name="rotateStepNinety" Value="0" />
      </BoundProperties>
    </ImageClip>
    <ImageClip extentID="963" gapBefore="0" mediaItemID="959" duration="0.050000000000000003">
      <Effects />
      <Transitions />
      <BoundProperties>
        <BoundPropertyInt Name="rotateStepNinety" Value="0" />
      </BoundProperties>
    </ImageClip>
    <ImageClip extentID="964" gapBefore="0" mediaItemID="960" duration="0.050000000000000003">
      <Effects />
      <Transitions />
      <BoundProperties>
        <BoundPropertyInt Name="rotateStepNinety" Value="0" />
      </BoundProperties>
    </ImageClip>
    <ImageClip extentID="965" gapBefore="0" mediaItemID="961" duration="0.050000000000000003">
      <Effects />
      <Transitions />
      <BoundProperties>
        <BoundPropertyInt Name="rotateStepNinety" Value="0" />
      </BoundProperties>
    </ImageClip>
    <ImageClip extentID="966" gapBefore="0" mediaItemID="962" duration="0.050000000000000003">
      <Effects />
      <Transitions />
      <BoundProperties>
        <BoundPropertyInt Name="rotateStepNinety" Value="0" />
      </BoundProperties>
    </ImageClip>
    <ImageClip extentID="967" gapBefore="0" mediaItemID="963" duration="0.050000000000000003">
      <Effects />
      <Transitions />
      <BoundProperties>
        <BoundPropertyInt Name="rotateStepNinety" Value="0" />
      </BoundProperties>
    </ImageClip>
    <ImageClip extentID="968" gapBefore="0" mediaItemID="964" duration="0.050000000000000003">
      <Effects />
      <Transitions />
      <BoundProperties>
        <BoundPropertyInt Name="rotateStepNinety" Value="0" />
      </BoundProperties>
    </ImageClip>
    <ImageClip extentID="969" gapBefore="0" mediaItemID="965" duration="0.050000000000000003">
      <Effects />
      <Transitions />
      <BoundProperties>
        <BoundPropertyInt Name="rotateStepNinety" Value="0" />
      </BoundProperties>
    </ImageClip>
    <ImageClip extentID="970" gapBefore="0" mediaItemID="966" duration="0.050000000000000003">
      <Effects />
      <Transitions />
      <BoundProperties>
        <BoundPropertyInt Name="rotateStepNinety" Value="0" />
      </BoundProperties>
    </ImageClip>
    <ImageClip extentID="971" gapBefore="0" mediaItemID="967" duration="0.050000000000000003">
      <Effects />
      <Transitions />
      <BoundProperties>
        <BoundPropertyInt Name="rotateStepNinety" Value="0" />
      </BoundProperties>
    </ImageClip>
    <ImageClip extentID="972" gapBefore="0" mediaItemID="968" duration="0.050000000000000003">
      <Effects />
      <Transitions />
      <BoundProperties>
        <BoundPropertyInt Name="rotateStepNinety" Value="0" />
      </BoundProperties>
    </ImageClip>
    <ImageClip extentID="973" gapBefore="0" mediaItemID="969" duration="0.050000000000000003">
      <Effects />
      <Transitions />
      <BoundProperties>
        <BoundPropertyInt Name="rotateStepNinety" Value="0" />
      </BoundProperties>
    </ImageClip>
    <ImageClip extentID="974" gapBefore="0" mediaItemID="970" duration="0.050000000000000003">
      <Effects />
      <Transitions />
      <BoundProperties>
        <BoundPropertyInt Name="rotateStepNinety" Value="0" />
      </BoundProperties>
    </ImageClip>
    <ImageClip extentID="975" gapBefore="0" mediaItemID="971" duration="0.050000000000000003">
      <Effects />
      <Transitions />
      <BoundProperties>
        <BoundPropertyInt Name="rotateStepNinety" Value="0" />
      </BoundProperties>
    </ImageClip>
    <ImageClip extentID="976" gapBefore="0" mediaItemID="972" duration="0.050000000000000003">
      <Effects />
      <Transitions />
      <BoundProperties>
        <BoundPropertyInt Name="rotateStepNinety" Value="0" />
      </BoundProperties>
    </ImageClip>
    <ImageClip extentID="977" gapBefore="0" mediaItemID="973" duration="0.050000000000000003">
      <Effects />
      <Transitions />
      <BoundProperties>
        <BoundPropertyInt Name="rotateStepNinety" Value="0" />
      </BoundProperties>
    </ImageClip>
    <ImageClip extentID="978" gapBefore="0" mediaItemID="974" duration="0.050000000000000003">
      <Effects />
      <Transitions />
      <BoundProperties>
        <BoundPropertyInt Name="rotateStepNinety" Value="0" />
      </BoundProperties>
    </ImageClip>
    <ImageClip extentID="979" gapBefore="0" mediaItemID="975" duration="0.050000000000000003">
      <Effects />
      <Transitions />
      <BoundProperties>
        <BoundPropertyInt Name="rotateStepNinety" Value="0" />
      </BoundProperties>
    </ImageClip>
    <ImageClip extentID="980" gapBefore="0" mediaItemID="976" duration="0.050000000000000003">
      <Effects />
      <Transitions />
      <BoundProperties>
        <BoundPropertyInt Name="rotateStepNinety" Value="0" />
      </BoundProperties>
    </ImageClip>
    <ImageClip extentID="981" gapBefore="0" mediaItemID="977" duration="0.050000000000000003">
      <Effects />
      <Transitions />
      <BoundProperties>
        <BoundPropertyInt Name="rotateStepNinety" Value="0" />
      </BoundProperties>
    </ImageClip>
    <ImageClip extentID="982" gapBefore="0" mediaItemID="978" duration="0.050000000000000003">
      <Effects />
      <Transitions />
      <BoundProperties>
        <BoundPropertyInt Name="rotateStepNinety" Value="0" />
      </BoundProperties>
    </ImageClip>
    <ImageClip extentID="983" gapBefore="0" mediaItemID="979" duration="0.050000000000000003">
      <Effects />
      <Transitions />
      <BoundProperties>
        <BoundPropertyInt Name="rotateStepNinety" Value="0" />
      </BoundProperties>
    </ImageClip>
    <ImageClip extentID="984" gapBefore="0" mediaItemID="980" duration="0.050000000000000003">
      <Effects />
      <Transitions />
      <BoundProperties>
        <BoundPropertyInt Name="rotateStepNinety" Value="0" />
      </BoundProperties>
    </ImageClip>
    <ImageClip extentID="985" gapBefore="0" mediaItemID="981" duration="0.050000000000000003">
      <Effects />
      <Transitions />
      <BoundProperties>
        <BoundPropertyInt Name="rotateStepNinety" Value="0" />
      </BoundProperties>
    </ImageClip>
    <ImageClip extentID="986" gapBefore="0" mediaItemID="982" duration="0.050000000000000003">
      <Effects />
      <Transitions />
      <BoundProperties>
        <BoundPropertyInt Name="rotateStepNinety" Value="0" />
      </BoundProperties>
    </ImageClip>
    <ImageClip extentID="987" gapBefore="0" mediaItemID="983" duration="0.050000000000000003">
      <Effects />
      <Transitions />
      <BoundProperties>
        <BoundPropertyInt Name="rotateStepNinety" Value="0" />
      </BoundProperties>
    </ImageClip>
    <ImageClip extentID="988" gapBefore="0" mediaItemID="984" duration="0.050000000000000003">
      <Effects />
      <Transitions />
      <BoundProperties>
        <BoundPropertyInt Name="rotateStepNinety" Value="0" />
      </BoundProperties>
    </ImageClip>
    <ImageClip extentID="989" gapBefore="0" mediaItemID="985" duration="0.050000000000000003">
      <Effects />
      <Transitions />
      <BoundProperties>
        <BoundPropertyInt Name="rotateStepNinety" Value="0" />
      </BoundProperties>
    </ImageClip>
    <ImageClip extentID="990" gapBefore="0" mediaItemID="986" duration="0.050000000000000003">
      <Effects />
      <Transitions />
      <BoundProperties>
        <BoundPropertyInt Name="rotateStepNinety" Value="0" />
      </BoundProperties>
    </ImageClip>
    <ImageClip extentID="991" gapBefore="0" mediaItemID="987" duration="0.050000000000000003">
      <Effects />
      <Transitions />
      <BoundProperties>
        <BoundPropertyInt Name="rotateStepNinety" Value="0" />
      </BoundProperties>
    </ImageClip>
    <ImageClip extentID="992" gapBefore="0" mediaItemID="988" duration="0.050000000000000003">
      <Effects />
      <Transitions />
      <BoundProperties>
        <BoundPropertyInt Name="rotateStepNinety" Value="0" />
      </BoundProperties>
    </ImageClip>
    <ImageClip extentID="993" gapBefore="0" mediaItemID="989" duration="0.050000000000000003">
      <Effects />
      <Transitions />
      <BoundProperties>
        <BoundPropertyInt Name="rotateStepNinety" Value="0" />
      </BoundProperties>
    </ImageClip>
    <ImageClip extentID="994" gapBefore="0" mediaItemID="990" duration="0.050000000000000003">
      <Effects />
      <Transitions />
      <BoundProperties>
        <BoundPropertyInt Name="rotateStepNinety" Value="0" />
      </BoundProperties>
    </ImageClip>
    <ImageClip extentID="995" gapBefore="0" mediaItemID="991" duration="0.050000000000000003">
      <Effects />
      <Transitions />
      <BoundProperties>
        <BoundPropertyInt Name="rotateStepNinety" Value="0" />
      </BoundProperties>
    </ImageClip>
    <ImageClip extentID="996" gapBefore="0" mediaItemID="992" duration="0.050000000000000003">
      <Effects />
      <Transitions />
      <BoundProperties>
        <BoundPropertyInt Name="rotateStepNinety" Value="0" />
      </BoundProperties>
    </ImageClip>
    <ImageClip extentID="997" gapBefore="0" mediaItemID="993" duration="0.050000000000000003">
      <Effects />
      <Transitions />
      <BoundProperties>
        <BoundPropertyInt Name="rotateStepNinety" Value="0" />
      </BoundProperties>
    </ImageClip>
    <ImageClip extentID="998" gapBefore="0" mediaItemID="994" duration="0.050000000000000003">
      <Effects />
      <Transitions />
      <BoundProperties>
        <BoundPropertyInt Name="rotateStepNinety" Value="0" />
      </BoundProperties>
    </ImageClip>
    <ImageClip extentID="999" gapBefore="0" mediaItemID="995" duration="0.050000000000000003">
      <Effects />
      <Transitions />
      <BoundProperties>
        <BoundPropertyInt Name="rotateStepNinety" Value="0" />
      </BoundProperties>
    </ImageClip>
    <ImageClip extentID="1000" gapBefore="0" mediaItemID="996" duration="0.050000000000000003">
      <Effects />
      <Transitions />
      <BoundProperties>
        <BoundPropertyInt Name="rotateStepNinety" Value="0" />
      </BoundProperties>
    </ImageClip>
    <ImageClip extentID="1001" gapBefore="0" mediaItemID="997" duration="0.050000000000000003">
      <Effects />
      <Transitions />
      <BoundProperties>
        <BoundPropertyInt Name="rotateStepNinety" Value="0" />
      </BoundProperties>
    </ImageClip>
    <ImageClip extentID="1002" gapBefore="0" mediaItemID="998" duration="0.050000000000000003">
      <Effects />
      <Transitions />
      <BoundProperties>
        <BoundPropertyInt Name="rotateStepNinety" Value="0" />
      </BoundProperties>
    </ImageClip>
    <ImageClip extentID="1003" gapBefore="0" mediaItemID="999" duration="0.050000000000000003">
      <Effects />
      <Transitions />
      <BoundProperties>
        <BoundPropertyInt Name="rotateStepNinety" Value="0" />
      </BoundProperties>
    </ImageClip>
    <ImageClip extentID="1004" gapBefore="0" mediaItemID="1000" duration="0.050000000000000003">
      <Effects />
      <Transitions />
      <BoundProperties>
        <BoundPropertyInt Name="rotateStepNinety" Value="0" />
      </BoundProperties>
    </ImageClip>
    <ImageClip extentID="1005" gapBefore="0" mediaItemID="1001" duration="0.050000000000000003">
      <Effects />
      <Transitions />
      <BoundProperties>
        <BoundPropertyInt Name="rotateStepNinety" Value="0" />
      </BoundProperties>
    </ImageClip>
    <ImageClip extentID="1006" gapBefore="0" mediaItemID="1002" duration="0.050000000000000003">
      <Effects />
      <Transitions />
      <BoundProperties>
        <BoundPropertyInt Name="rotateStepNinety" Value="0" />
      </BoundProperties>
    </ImageClip>
    <ImageClip extentID="1007" gapBefore="0" mediaItemID="1003" duration="0.050000000000000003">
      <Effects />
      <Transitions />
      <BoundProperties>
        <BoundPropertyInt Name="rotateStepNinety" Value="0" />
      </BoundProperties>
    </ImageClip>
    <ImageClip extentID="1008" gapBefore="0" mediaItemID="1004" duration="0.050000000000000003">
      <Effects />
      <Transitions />
      <BoundProperties>
        <BoundPropertyInt Name="rotateStepNinety" Value="0" />
      </BoundProperties>
    </ImageClip>
    <ImageClip extentID="1009" gapBefore="0" mediaItemID="1005" duration="0.050000000000000003">
      <Effects />
      <Transitions />
      <BoundProperties>
        <BoundPropertyInt Name="rotateStepNinety" Value="0" />
      </BoundProperties>
    </ImageClip>
    <ImageClip extentID="1010" gapBefore="0" mediaItemID="1006" duration="0.050000000000000003">
      <Effects />
      <Transitions />
      <BoundProperties>
        <BoundPropertyInt Name="rotateStepNinety" Value="0" />
      </BoundProperties>
    </ImageClip>
    <ImageClip extentID="1011" gapBefore="0" mediaItemID="1007" duration="0.050000000000000003">
      <Effects />
      <Transitions />
      <BoundProperties>
        <BoundPropertyInt Name="rotateStepNinety" Value="0" />
      </BoundProperties>
    </ImageClip>
    <ImageClip extentID="1012" gapBefore="0" mediaItemID="1008" duration="0.050000000000000003">
      <Effects />
      <Transitions />
      <BoundProperties>
        <BoundPropertyInt Name="rotateStepNinety" Value="0" />
      </BoundProperties>
    </ImageClip>
    <ImageClip extentID="1013" gapBefore="0" mediaItemID="1009" duration="0.050000000000000003">
      <Effects />
      <Transitions />
      <BoundProperties>
        <BoundPropertyInt Name="rotateStepNinety" Value="0" />
      </BoundProperties>
    </ImageClip>
    <ImageClip extentID="1014" gapBefore="0" mediaItemID="1010" duration="0.050000000000000003">
      <Effects />
      <Transitions />
      <BoundProperties>
        <BoundPropertyInt Name="rotateStepNinety" Value="0" />
      </BoundProperties>
    </ImageClip>
    <ImageClip extentID="1015" gapBefore="0" mediaItemID="1011" duration="0.050000000000000003">
      <Effects />
      <Transitions />
      <BoundProperties>
        <BoundPropertyInt Name="rotateStepNinety" Value="0" />
      </BoundProperties>
    </ImageClip>
    <ImageClip extentID="1016" gapBefore="0" mediaItemID="1012" duration="0.050000000000000003">
      <Effects />
      <Transitions />
      <BoundProperties>
        <BoundPropertyInt Name="rotateStepNinety" Value="0" />
      </BoundProperties>
    </ImageClip>
    <ImageClip extentID="1017" gapBefore="0" mediaItemID="1013" duration="0.050000000000000003">
      <Effects />
      <Transitions />
      <BoundProperties>
        <BoundPropertyInt Name="rotateStepNinety" Value="0" />
      </BoundProperties>
    </ImageClip>
    <ImageClip extentID="1018" gapBefore="0" mediaItemID="1014" duration="0.050000000000000003">
      <Effects />
      <Transitions />
      <BoundProperties>
        <BoundPropertyInt Name="rotateStepNinety" Value="0" />
      </BoundProperties>
    </ImageClip>
    <ImageClip extentID="1019" gapBefore="0" mediaItemID="1015" duration="0.050000000000000003">
      <Effects />
      <Transitions />
      <BoundProperties>
        <BoundPropertyInt Name="rotateStepNinety" Value="0" />
      </BoundProperties>
    </ImageClip>
    <ImageClip extentID="1020" gapBefore="0" mediaItemID="1016" duration="0.050000000000000003">
      <Effects />
      <Transitions />
      <BoundProperties>
        <BoundPropertyInt Name="rotateStepNinety" Value="0" />
      </BoundProperties>
    </ImageClip>
    <ImageClip extentID="1021" gapBefore="0" mediaItemID="1017" duration="0.050000000000000003">
      <Effects />
      <Transitions />
      <BoundProperties>
        <BoundPropertyInt Name="rotateStepNinety" Value="0" />
      </BoundProperties>
    </ImageClip>
    <ImageClip extentID="1022" gapBefore="0" mediaItemID="1018" duration="0.050000000000000003">
      <Effects />
      <Transitions />
      <BoundProperties>
        <BoundPropertyInt Name="rotateStepNinety" Value="0" />
      </BoundProperties>
    </ImageClip>
    <ImageClip extentID="1023" gapBefore="0" mediaItemID="1019" duration="0.050000000000000003">
      <Effects />
      <Transitions />
      <BoundProperties>
        <BoundPropertyInt Name="rotateStepNinety" Value="0" />
      </BoundProperties>
    </ImageClip>
    <ImageClip extentID="1024" gapBefore="0" mediaItemID="1020" duration="0.050000000000000003">
      <Effects />
      <Transitions />
      <BoundProperties>
        <BoundPropertyInt Name="rotateStepNinety" Value="0" />
      </BoundProperties>
    </ImageClip>
    <ImageClip extentID="1025" gapBefore="0" mediaItemID="1021" duration="0.050000000000000003">
      <Effects />
      <Transitions />
      <BoundProperties>
        <BoundPropertyInt Name="rotateStepNinety" Value="0" />
      </BoundProperties>
    </ImageClip>
    <ImageClip extentID="1026" gapBefore="0" mediaItemID="1022" duration="0.050000000000000003">
      <Effects />
      <Transitions />
      <BoundProperties>
        <BoundPropertyInt Name="rotateStepNinety" Value="0" />
      </BoundProperties>
    </ImageClip>
    <ImageClip extentID="1027" gapBefore="0" mediaItemID="1023" duration="0.050000000000000003">
      <Effects />
      <Transitions />
      <BoundProperties>
        <BoundPropertyInt Name="rotateStepNinety" Value="0" />
      </BoundProperties>
    </ImageClip>
    <ImageClip extentID="1028" gapBefore="0" mediaItemID="1024" duration="0.050000000000000003">
      <Effects />
      <Transitions />
      <BoundProperties>
        <BoundPropertyInt Name="rotateStepNinety" Value="0" />
      </BoundProperties>
    </ImageClip>
    <ImageClip extentID="1029" gapBefore="0" mediaItemID="1025" duration="0.050000000000000003">
      <Effects />
      <Transitions />
      <BoundProperties>
        <BoundPropertyInt Name="rotateStepNinety" Value="0" />
      </BoundProperties>
    </ImageClip>
    <ImageClip extentID="1030" gapBefore="0" mediaItemID="1026" duration="0.050000000000000003">
      <Effects />
      <Transitions />
      <BoundProperties>
        <BoundPropertyInt Name="rotateStepNinety" Value="0" />
      </BoundProperties>
    </ImageClip>
    <ImageClip extentID="1031" gapBefore="0" mediaItemID="1027" duration="0.050000000000000003">
      <Effects />
      <Transitions />
      <BoundProperties>
        <BoundPropertyInt Name="rotateStepNinety" Value="0" />
      </BoundProperties>
    </ImageClip>
    <ImageClip extentID="1032" gapBefore="0" mediaItemID="1028" duration="0.050000000000000003">
      <Effects />
      <Transitions />
      <BoundProperties>
        <BoundPropertyInt Name="rotateStepNinety" Value="0" />
      </BoundProperties>
    </ImageClip>
    <ImageClip extentID="1033" gapBefore="0" mediaItemID="1029" duration="0.050000000000000003">
      <Effects />
      <Transitions />
      <BoundProperties>
        <BoundPropertyInt Name="rotateStepNinety" Value="0" />
      </BoundProperties>
    </ImageClip>
    <ImageClip extentID="1034" gapBefore="0" mediaItemID="1030" duration="0.050000000000000003">
      <Effects />
      <Transitions />
      <BoundProperties>
        <BoundPropertyInt Name="rotateStepNinety" Value="0" />
      </BoundProperties>
    </ImageClip>
    <ImageClip extentID="1035" gapBefore="0" mediaItemID="1031" duration="0.050000000000000003">
      <Effects />
      <Transitions />
      <BoundProperties>
        <BoundPropertyInt Name="rotateStepNinety" Value="0" />
      </BoundProperties>
    </ImageClip>
    <ImageClip extentID="1036" gapBefore="0" mediaItemID="1032" duration="0.050000000000000003">
      <Effects />
      <Transitions />
      <BoundProperties>
        <BoundPropertyInt Name="rotateStepNinety" Value="0" />
      </BoundProperties>
    </ImageClip>
    <ImageClip extentID="1037" gapBefore="0" mediaItemID="1033" duration="0.050000000000000003">
      <Effects />
      <Transitions />
      <BoundProperties>
        <BoundPropertyInt Name="rotateStepNinety" Value="0" />
      </BoundProperties>
    </ImageClip>
    <ImageClip extentID="1038" gapBefore="0" mediaItemID="1034" duration="0.050000000000000003">
      <Effects />
      <Transitions />
      <BoundProperties>
        <BoundPropertyInt Name="rotateStepNinety" Value="0" />
      </BoundProperties>
    </ImageClip>
    <ImageClip extentID="1039" gapBefore="0" mediaItemID="1035" duration="0.050000000000000003">
      <Effects />
      <Transitions />
      <BoundProperties>
        <BoundPropertyInt Name="rotateStepNinety" Value="0" />
      </BoundProperties>
    </ImageClip>
    <ImageClip extentID="1040" gapBefore="0" mediaItemID="1036" duration="0.050000000000000003">
      <Effects />
      <Transitions />
      <BoundProperties>
        <BoundPropertyInt Name="rotateStepNinety" Value="0" />
      </BoundProperties>
    </ImageClip>
    <ImageClip extentID="1041" gapBefore="0" mediaItemID="1037" duration="0.050000000000000003">
      <Effects />
      <Transitions />
      <BoundProperties>
        <BoundPropertyInt Name="rotateStepNinety" Value="0" />
      </BoundProperties>
    </ImageClip>
    <ImageClip extentID="1042" gapBefore="0" mediaItemID="1038" duration="0.050000000000000003">
      <Effects />
      <Transitions />
      <BoundProperties>
        <BoundPropertyInt Name="rotateStepNinety" Value="0" />
      </BoundProperties>
    </ImageClip>
    <ImageClip extentID="1043" gapBefore="0" mediaItemID="1039" duration="0.050000000000000003">
      <Effects />
      <Transitions />
      <BoundProperties>
        <BoundPropertyInt Name="rotateStepNinety" Value="0" />
      </BoundProperties>
    </ImageClip>
    <ImageClip extentID="1044" gapBefore="0" mediaItemID="1040" duration="0.050000000000000003">
      <Effects />
      <Transitions />
      <BoundProperties>
        <BoundPropertyInt Name="rotateStepNinety" Value="0" />
      </BoundProperties>
    </ImageClip>
    <ImageClip extentID="1045" gapBefore="0" mediaItemID="1041" duration="0.050000000000000003">
      <Effects />
      <Transitions />
      <BoundProperties>
        <BoundPropertyInt Name="rotateStepNinety" Value="0" />
      </BoundProperties>
    </ImageClip>
    <ImageClip extentID="1046" gapBefore="0" mediaItemID="1042" duration="0.050000000000000003">
      <Effects />
      <Transitions />
      <BoundProperties>
        <BoundPropertyInt Name="rotateStepNinety" Value="0" />
      </BoundProperties>
    </ImageClip>
    <ImageClip extentID="1047" gapBefore="0" mediaItemID="1043" duration="0.050000000000000003">
      <Effects />
      <Transitions />
      <BoundProperties>
        <BoundPropertyInt Name="rotateStepNinety" Value="0" />
      </BoundProperties>
    </ImageClip>
    <ImageClip extentID="1048" gapBefore="0" mediaItemID="1044" duration="0.050000000000000003">
      <Effects />
      <Transitions />
      <BoundProperties>
        <BoundPropertyInt Name="rotateStepNinety" Value="0" />
      </BoundProperties>
    </ImageClip>
    <ImageClip extentID="1049" gapBefore="0" mediaItemID="1045" duration="0.050000000000000003">
      <Effects />
      <Transitions />
      <BoundProperties>
        <BoundPropertyInt Name="rotateStepNinety" Value="0" />
      </BoundProperties>
    </ImageClip>
    <ImageClip extentID="1050" gapBefore="0" mediaItemID="1046" duration="0.050000000000000003">
      <Effects />
      <Transitions />
      <BoundProperties>
        <BoundPropertyInt Name="rotateStepNinety" Value="0" />
      </BoundProperties>
    </ImageClip>
    <ImageClip extentID="1051" gapBefore="0" mediaItemID="1047" duration="0.050000000000000003">
      <Effects />
      <Transitions />
      <BoundProperties>
        <BoundPropertyInt Name="rotateStepNinety" Value="0" />
      </BoundProperties>
    </ImageClip>
    <ImageClip extentID="1052" gapBefore="0" mediaItemID="1048" duration="0.050000000000000003">
      <Effects />
      <Transitions />
      <BoundProperties>
        <BoundPropertyInt Name="rotateStepNinety" Value="0" />
      </BoundProperties>
    </ImageClip>
    <ImageClip extentID="1053" gapBefore="0" mediaItemID="1049" duration="0.050000000000000003">
      <Effects />
      <Transitions />
      <BoundProperties>
        <BoundPropertyInt Name="rotateStepNinety" Value="0" />
      </BoundProperties>
    </ImageClip>
    <ImageClip extentID="1054" gapBefore="0" mediaItemID="1050" duration="0.050000000000000003">
      <Effects />
      <Transitions />
      <BoundProperties>
        <BoundPropertyInt Name="rotateStepNinety" Value="0" />
      </BoundProperties>
    </ImageClip>
    <ImageClip extentID="1055" gapBefore="0" mediaItemID="1051" duration="0.050000000000000003">
      <Effects />
      <Transitions />
      <BoundProperties>
        <BoundPropertyInt Name="rotateStepNinety" Value="0" />
      </BoundProperties>
    </ImageClip>
    <ImageClip extentID="1056" gapBefore="0" mediaItemID="1052" duration="0.050000000000000003">
      <Effects />
      <Transitions />
      <BoundProperties>
        <BoundPropertyInt Name="rotateStepNinety" Value="0" />
      </BoundProperties>
    </ImageClip>
    <ImageClip extentID="1057" gapBefore="0" mediaItemID="1053" duration="0.050000000000000003">
      <Effects />
      <Transitions />
      <BoundProperties>
        <BoundPropertyInt Name="rotateStepNinety" Value="0" />
      </BoundProperties>
    </ImageClip>
    <ImageClip extentID="1058" gapBefore="0" mediaItemID="1054" duration="0.050000000000000003">
      <Effects />
      <Transitions />
      <BoundProperties>
        <BoundPropertyInt Name="rotateStepNinety" Value="0" />
      </BoundProperties>
    </ImageClip>
    <ImageClip extentID="1059" gapBefore="0" mediaItemID="1055" duration="0.050000000000000003">
      <Effects />
      <Transitions />
      <BoundProperties>
        <BoundPropertyInt Name="rotateStepNinety" Value="0" />
      </BoundProperties>
    </ImageClip>
    <ImageClip extentID="1060" gapBefore="0" mediaItemID="1056" duration="0.050000000000000003">
      <Effects />
      <Transitions />
      <BoundProperties>
        <BoundPropertyInt Name="rotateStepNinety" Value="0" />
      </BoundProperties>
    </ImageClip>
    <ImageClip extentID="1061" gapBefore="0" mediaItemID="1057" duration="0.050000000000000003">
      <Effects />
      <Transitions />
      <BoundProperties>
        <BoundPropertyInt Name="rotateStepNinety" Value="0" />
      </BoundProperties>
    </ImageClip>
    <ImageClip extentID="1062" gapBefore="0" mediaItemID="1058" duration="0.050000000000000003">
      <Effects />
      <Transitions />
      <BoundProperties>
        <BoundPropertyInt Name="rotateStepNinety" Value="0" />
      </BoundProperties>
    </ImageClip>
    <ImageClip extentID="1063" gapBefore="0" mediaItemID="1059" duration="0.050000000000000003">
      <Effects />
      <Transitions />
      <BoundProperties>
        <BoundPropertyInt Name="rotateStepNinety" Value="0" />
      </BoundProperties>
    </ImageClip>
    <ImageClip extentID="1064" gapBefore="0" mediaItemID="1060" duration="0.050000000000000003">
      <Effects />
      <Transitions />
      <BoundProperties>
        <BoundPropertyInt Name="rotateStepNinety" Value="0" />
      </BoundProperties>
    </ImageClip>
    <ImageClip extentID="1065" gapBefore="0" mediaItemID="1061" duration="0.050000000000000003">
      <Effects />
      <Transitions />
      <BoundProperties>
        <BoundPropertyInt Name="rotateStepNinety" Value="0" />
      </BoundProperties>
    </ImageClip>
    <ImageClip extentID="1066" gapBefore="0" mediaItemID="1062" duration="0.050000000000000003">
      <Effects />
      <Transitions />
      <BoundProperties>
        <BoundPropertyInt Name="rotateStepNinety" Value="0" />
      </BoundProperties>
    </ImageClip>
    <ImageClip extentID="1067" gapBefore="0" mediaItemID="1063" duration="0.050000000000000003">
      <Effects />
      <Transitions />
      <BoundProperties>
        <BoundPropertyInt Name="rotateStepNinety" Value="0" />
      </BoundProperties>
    </ImageClip>
    <ImageClip extentID="1068" gapBefore="0" mediaItemID="1064" duration="0.050000000000000003">
      <Effects />
      <Transitions />
      <BoundProperties>
        <BoundPropertyInt Name="rotateStepNinety" Value="0" />
      </BoundProperties>
    </ImageClip>
    <ImageClip extentID="1069" gapBefore="0" mediaItemID="1065" duration="0.050000000000000003">
      <Effects />
      <Transitions />
      <BoundProperties>
        <BoundPropertyInt Name="rotateStepNinety" Value="0" />
      </BoundProperties>
    </ImageClip>
    <ImageClip extentID="1070" gapBefore="0" mediaItemID="1066" duration="0.050000000000000003">
      <Effects />
      <Transitions />
      <BoundProperties>
        <BoundPropertyInt Name="rotateStepNinety" Value="0" />
      </BoundProperties>
    </ImageClip>
    <ImageClip extentID="1071" gapBefore="0" mediaItemID="1067" duration="0.050000000000000003">
      <Effects />
      <Transitions />
      <BoundProperties>
        <BoundPropertyInt Name="rotateStepNinety" Value="0" />
      </BoundProperties>
    </ImageClip>
    <ImageClip extentID="1072" gapBefore="0" mediaItemID="1068" duration="0.050000000000000003">
      <Effects />
      <Transitions />
      <BoundProperties>
        <BoundPropertyInt Name="rotateStepNinety" Value="0" />
      </BoundProperties>
    </ImageClip>
    <ImageClip extentID="1073" gapBefore="0" mediaItemID="1069" duration="0.050000000000000003">
      <Effects />
      <Transitions />
      <BoundProperties>
        <BoundPropertyInt Name="rotateStepNinety" Value="0" />
      </BoundProperties>
    </ImageClip>
    <ImageClip extentID="1074" gapBefore="0" mediaItemID="1070" duration="0.050000000000000003">
      <Effects />
      <Transitions />
      <BoundProperties>
        <BoundPropertyInt Name="rotateStepNinety" Value="0" />
      </BoundProperties>
    </ImageClip>
    <ImageClip extentID="1075" gapBefore="0" mediaItemID="1071" duration="0.050000000000000003">
      <Effects />
      <Transitions />
      <BoundProperties>
        <BoundPropertyInt Name="rotateStepNinety" Value="0" />
      </BoundProperties>
    </ImageClip>
    <ImageClip extentID="1076" gapBefore="0" mediaItemID="1072" duration="0.050000000000000003">
      <Effects />
      <Transitions />
      <BoundProperties>
        <BoundPropertyInt Name="rotateStepNinety" Value="0" />
      </BoundProperties>
    </ImageClip>
    <ImageClip extentID="1077" gapBefore="0" mediaItemID="1073" duration="0.050000000000000003">
      <Effects />
      <Transitions />
      <BoundProperties>
        <BoundPropertyInt Name="rotateStepNinety" Value="0" />
      </BoundProperties>
    </ImageClip>
    <ImageClip extentID="1078" gapBefore="0" mediaItemID="1074" duration="0.050000000000000003">
      <Effects />
      <Transitions />
      <BoundProperties>
        <BoundPropertyInt Name="rotateStepNinety" Value="0" />
      </BoundProperties>
    </ImageClip>
    <ImageClip extentID="1079" gapBefore="0" mediaItemID="1075" duration="0.050000000000000003">
      <Effects />
      <Transitions />
      <BoundProperties>
        <BoundPropertyInt Name="rotateStepNinety" Value="0" />
      </BoundProperties>
    </ImageClip>
    <ImageClip extentID="1080" gapBefore="0" mediaItemID="1076" duration="0.050000000000000003">
      <Effects />
      <Transitions />
      <BoundProperties>
        <BoundPropertyInt Name="rotateStepNinety" Value="0" />
      </BoundProperties>
    </ImageClip>
    <ImageClip extentID="1081" gapBefore="0" mediaItemID="1077" duration="0.050000000000000003">
      <Effects />
      <Transitions />
      <BoundProperties>
        <BoundPropertyInt Name="rotateStepNinety" Value="0" />
      </BoundProperties>
    </ImageClip>
    <ImageClip extentID="1082" gapBefore="0" mediaItemID="1078" duration="0.050000000000000003">
      <Effects />
      <Transitions />
      <BoundProperties>
        <BoundPropertyInt Name="rotateStepNinety" Value="0" />
      </BoundProperties>
    </ImageClip>
    <ImageClip extentID="1083" gapBefore="0" mediaItemID="1079" duration="0.050000000000000003">
      <Effects />
      <Transitions />
      <BoundProperties>
        <BoundPropertyInt Name="rotateStepNinety" Value="0" />
      </BoundProperties>
    </ImageClip>
    <ImageClip extentID="1084" gapBefore="0" mediaItemID="1080" duration="0.050000000000000003">
      <Effects />
      <Transitions />
      <BoundProperties>
        <BoundPropertyInt Name="rotateStepNinety" Value="0" />
      </BoundProperties>
    </ImageClip>
    <ImageClip extentID="1085" gapBefore="0" mediaItemID="1081" duration="0.050000000000000003">
      <Effects />
      <Transitions />
      <BoundProperties>
        <BoundPropertyInt Name="rotateStepNinety" Value="0" />
      </BoundProperties>
    </ImageClip>
    <ImageClip extentID="1086" gapBefore="0" mediaItemID="1082" duration="0.050000000000000003">
      <Effects />
      <Transitions />
      <BoundProperties>
        <BoundPropertyInt Name="rotateStepNinety" Value="0" />
      </BoundProperties>
    </ImageClip>
    <ImageClip extentID="1087" gapBefore="0" mediaItemID="1083" duration="0.050000000000000003">
      <Effects />
      <Transitions />
      <BoundProperties>
        <BoundPropertyInt Name="rotateStepNinety" Value="0" />
      </BoundProperties>
    </ImageClip>
    <ImageClip extentID="1088" gapBefore="0" mediaItemID="1084" duration="0.050000000000000003">
      <Effects />
      <Transitions />
      <BoundProperties>
        <BoundPropertyInt Name="rotateStepNinety" Value="0" />
      </BoundProperties>
    </ImageClip>
    <ImageClip extentID="1089" gapBefore="0" mediaItemID="1085" duration="0.050000000000000003">
      <Effects />
      <Transitions />
      <BoundProperties>
        <BoundPropertyInt Name="rotateStepNinety" Value="0" />
      </BoundProperties>
    </ImageClip>
    <ImageClip extentID="1090" gapBefore="0" mediaItemID="1086" duration="0.050000000000000003">
      <Effects />
      <Transitions />
      <BoundProperties>
        <BoundPropertyInt Name="rotateStepNinety" Value="0" />
      </BoundProperties>
    </ImageClip>
    <ImageClip extentID="1091" gapBefore="0" mediaItemID="1087" duration="0.050000000000000003">
      <Effects />
      <Transitions />
      <BoundProperties>
        <BoundPropertyInt Name="rotateStepNinety" Value="0" />
      </BoundProperties>
    </ImageClip>
    <ImageClip extentID="1092" gapBefore="0" mediaItemID="1088" duration="0.050000000000000003">
      <Effects />
      <Transitions />
      <BoundProperties>
        <BoundPropertyInt Name="rotateStepNinety" Value="0" />
      </BoundProperties>
    </ImageClip>
    <ImageClip extentID="1093" gapBefore="0" mediaItemID="1089" duration="0.050000000000000003">
      <Effects />
      <Transitions />
      <BoundProperties>
        <BoundPropertyInt Name="rotateStepNinety" Value="0" />
      </BoundProperties>
    </ImageClip>
    <ImageClip extentID="1094" gapBefore="0" mediaItemID="1090" duration="0.050000000000000003">
      <Effects />
      <Transitions />
      <BoundProperties>
        <BoundPropertyInt Name="rotateStepNinety" Value="0" />
      </BoundProperties>
    </ImageClip>
    <ImageClip extentID="1095" gapBefore="0" mediaItemID="1091" duration="0.050000000000000003">
      <Effects />
      <Transitions />
      <BoundProperties>
        <BoundPropertyInt Name="rotateStepNinety" Value="0" />
      </BoundProperties>
    </ImageClip>
    <ImageClip extentID="1096" gapBefore="0" mediaItemID="1092" duration="0.050000000000000003">
      <Effects />
      <Transitions />
      <BoundProperties>
        <BoundPropertyInt Name="rotateStepNinety" Value="0" />
      </BoundProperties>
    </ImageClip>
    <ImageClip extentID="1097" gapBefore="0" mediaItemID="1093" duration="0.050000000000000003">
      <Effects />
      <Transitions />
      <BoundProperties>
        <BoundPropertyInt Name="rotateStepNinety" Value="0" />
      </BoundProperties>
    </ImageClip>
    <ImageClip extentID="1098" gapBefore="0" mediaItemID="1094" duration="0.050000000000000003">
      <Effects />
      <Transitions />
      <BoundProperties>
        <BoundPropertyInt Name="rotateStepNinety" Value="0" />
      </BoundProperties>
    </ImageClip>
    <ImageClip extentID="1099" gapBefore="0" mediaItemID="1095" duration="0.050000000000000003">
      <Effects />
      <Transitions />
      <BoundProperties>
        <BoundPropertyInt Name="rotateStepNinety" Value="0" />
      </BoundProperties>
    </ImageClip>
    <ImageClip extentID="1100" gapBefore="0" mediaItemID="1096" duration="0.050000000000000003">
      <Effects />
      <Transitions />
      <BoundProperties>
        <BoundPropertyInt Name="rotateStepNinety" Value="0" />
      </BoundProperties>
    </ImageClip>
    <ImageClip extentID="1101" gapBefore="0" mediaItemID="1097" duration="0.050000000000000003">
      <Effects />
      <Transitions />
      <BoundProperties>
        <BoundPropertyInt Name="rotateStepNinety" Value="0" />
      </BoundProperties>
    </ImageClip>
    <ImageClip extentID="1102" gapBefore="0" mediaItemID="1098" duration="0.050000000000000003">
      <Effects />
      <Transitions />
      <BoundProperties>
        <BoundPropertyInt Name="rotateStepNinety" Value="0" />
      </BoundProperties>
    </ImageClip>
    <ImageClip extentID="1103" gapBefore="0" mediaItemID="1099" duration="0.050000000000000003">
      <Effects />
      <Transitions />
      <BoundProperties>
        <BoundPropertyInt Name="rotateStepNinety" Value="0" />
      </BoundProperties>
    </ImageClip>
    <ImageClip extentID="1104" gapBefore="0" mediaItemID="1100" duration="0.050000000000000003">
      <Effects />
      <Transitions />
      <BoundProperties>
        <BoundPropertyInt Name="rotateStepNinety" Value="0" />
      </BoundProperties>
    </ImageClip>
    <ImageClip extentID="1105" gapBefore="0" mediaItemID="1101" duration="0.050000000000000003">
      <Effects />
      <Transitions />
      <BoundProperties>
        <BoundPropertyInt Name="rotateStepNinety" Value="0" />
      </BoundProperties>
    </ImageClip>
    <ImageClip extentID="1106" gapBefore="0" mediaItemID="1102" duration="0.050000000000000003">
      <Effects />
      <Transitions />
      <BoundProperties>
        <BoundPropertyInt Name="rotateStepNinety" Value="0" />
      </BoundProperties>
    </ImageClip>
    <ImageClip extentID="1107" gapBefore="0" mediaItemID="1103" duration="0.050000000000000003">
      <Effects />
      <Transitions />
      <BoundProperties>
        <BoundPropertyInt Name="rotateStepNinety" Value="0" />
      </BoundProperties>
    </ImageClip>
    <ImageClip extentID="1108" gapBefore="0" mediaItemID="1104" duration="0.050000000000000003">
      <Effects />
      <Transitions />
      <BoundProperties>
        <BoundPropertyInt Name="rotateStepNinety" Value="0" />
      </BoundProperties>
    </ImageClip>
    <ImageClip extentID="1109" gapBefore="0" mediaItemID="1105" duration="0.050000000000000003">
      <Effects />
      <Transitions />
      <BoundProperties>
        <BoundPropertyInt Name="rotateStepNinety" Value="0" />
      </BoundProperties>
    </ImageClip>
    <ImageClip extentID="1110" gapBefore="0" mediaItemID="1106" duration="0.050000000000000003">
      <Effects />
      <Transitions />
      <BoundProperties>
        <BoundPropertyInt Name="rotateStepNinety" Value="0" />
      </BoundProperties>
    </ImageClip>
    <ImageClip extentID="1111" gapBefore="0" mediaItemID="1107" duration="0.050000000000000003">
      <Effects />
      <Transitions />
      <BoundProperties>
        <BoundPropertyInt Name="rotateStepNinety" Value="0" />
      </BoundProperties>
    </ImageClip>
    <ImageClip extentID="1112" gapBefore="0" mediaItemID="1108" duration="0.050000000000000003">
      <Effects />
      <Transitions />
      <BoundProperties>
        <BoundPropertyInt Name="rotateStepNinety" Value="0" />
      </BoundProperties>
    </ImageClip>
    <ImageClip extentID="1113" gapBefore="0" mediaItemID="1109" duration="0.050000000000000003">
      <Effects />
      <Transitions />
      <BoundProperties>
        <BoundPropertyInt Name="rotateStepNinety" Value="0" />
      </BoundProperties>
    </ImageClip>
    <ImageClip extentID="1114" gapBefore="0" mediaItemID="1110" duration="0.050000000000000003">
      <Effects />
      <Transitions />
      <BoundProperties>
        <BoundPropertyInt Name="rotateStepNinety" Value="0" />
      </BoundProperties>
    </ImageClip>
    <ImageClip extentID="1115" gapBefore="0" mediaItemID="1111" duration="0.050000000000000003">
      <Effects />
      <Transitions />
      <BoundProperties>
        <BoundPropertyInt Name="rotateStepNinety" Value="0" />
      </BoundProperties>
    </ImageClip>
    <ImageClip extentID="1116" gapBefore="0" mediaItemID="1112" duration="0.050000000000000003">
      <Effects />
      <Transitions />
      <BoundProperties>
        <BoundPropertyInt Name="rotateStepNinety" Value="0" />
      </BoundProperties>
    </ImageClip>
    <ImageClip extentID="1117" gapBefore="0" mediaItemID="1113" duration="0.050000000000000003">
      <Effects />
      <Transitions />
      <BoundProperties>
        <BoundPropertyInt Name="rotateStepNinety" Value="0" />
      </BoundProperties>
    </ImageClip>
    <ImageClip extentID="1118" gapBefore="0" mediaItemID="1114" duration="0.050000000000000003">
      <Effects />
      <Transitions />
      <BoundProperties>
        <BoundPropertyInt Name="rotateStepNinety" Value="0" />
      </BoundProperties>
    </ImageClip>
    <ImageClip extentID="1119" gapBefore="0" mediaItemID="1115" duration="0.050000000000000003">
      <Effects />
      <Transitions />
      <BoundProperties>
        <BoundPropertyInt Name="rotateStepNinety" Value="0" />
      </BoundProperties>
    </ImageClip>
    <ImageClip extentID="1120" gapBefore="0" mediaItemID="1116" duration="0.050000000000000003">
      <Effects />
      <Transitions />
      <BoundProperties>
        <BoundPropertyInt Name="rotateStepNinety" Value="0" />
      </BoundProperties>
    </ImageClip>
    <ImageClip extentID="1121" gapBefore="0" mediaItemID="1117" duration="0.050000000000000003">
      <Effects />
      <Transitions />
      <BoundProperties>
        <BoundPropertyInt Name="rotateStepNinety" Value="0" />
      </BoundProperties>
    </ImageClip>
    <ImageClip extentID="1122" gapBefore="0" mediaItemID="1118" duration="0.050000000000000003">
      <Effects />
      <Transitions />
      <BoundProperties>
        <BoundPropertyInt Name="rotateStepNinety" Value="0" />
      </BoundProperties>
    </ImageClip>
    <ImageClip extentID="1123" gapBefore="0" mediaItemID="1119" duration="0.050000000000000003">
      <Effects />
      <Transitions />
      <BoundProperties>
        <BoundPropertyInt Name="rotateStepNinety" Value="0" />
      </BoundProperties>
    </ImageClip>
    <ImageClip extentID="1124" gapBefore="0" mediaItemID="1120" duration="0.050000000000000003">
      <Effects />
      <Transitions />
      <BoundProperties>
        <BoundPropertyInt Name="rotateStepNinety" Value="0" />
      </BoundProperties>
    </ImageClip>
    <ImageClip extentID="1125" gapBefore="0" mediaItemID="1121" duration="0.050000000000000003">
      <Effects />
      <Transitions />
      <BoundProperties>
        <BoundPropertyInt Name="rotateStepNinety" Value="0" />
      </BoundProperties>
    </ImageClip>
    <ImageClip extentID="1126" gapBefore="0" mediaItemID="1122" duration="0.050000000000000003">
      <Effects />
      <Transitions />
      <BoundProperties>
        <BoundPropertyInt Name="rotateStepNinety" Value="0" />
      </BoundProperties>
    </ImageClip>
    <ImageClip extentID="1127" gapBefore="0" mediaItemID="1123" duration="0.050000000000000003">
      <Effects />
      <Transitions />
      <BoundProperties>
        <BoundPropertyInt Name="rotateStepNinety" Value="0" />
      </BoundProperties>
    </ImageClip>
    <ImageClip extentID="1128" gapBefore="0" mediaItemID="1124" duration="0.050000000000000003">
      <Effects />
      <Transitions />
      <BoundProperties>
        <BoundPropertyInt Name="rotateStepNinety" Value="0" />
      </BoundProperties>
    </ImageClip>
    <ImageClip extentID="1129" gapBefore="0" mediaItemID="1125" duration="0.050000000000000003">
      <Effects />
      <Transitions />
      <BoundProperties>
        <BoundPropertyInt Name="rotateStepNinety" Value="0" />
      </BoundProperties>
    </ImageClip>
    <ImageClip extentID="1130" gapBefore="0" mediaItemID="1126" duration="0.050000000000000003">
      <Effects />
      <Transitions />
      <BoundProperties>
        <BoundPropertyInt Name="rotateStepNinety" Value="0" />
      </BoundProperties>
    </ImageClip>
    <ImageClip extentID="1131" gapBefore="0" mediaItemID="1127" duration="0.050000000000000003">
      <Effects />
      <Transitions />
      <BoundProperties>
        <BoundPropertyInt Name="rotateStepNinety" Value="0" />
      </BoundProperties>
    </ImageClip>
    <ImageClip extentID="1132" gapBefore="0" mediaItemID="1128" duration="0.050000000000000003">
      <Effects />
      <Transitions />
      <BoundProperties>
        <BoundPropertyInt Name="rotateStepNinety" Value="0" />
      </BoundProperties>
    </ImageClip>
    <ImageClip extentID="1133" gapBefore="0" mediaItemID="1129" duration="0.050000000000000003">
      <Effects />
      <Transitions />
      <BoundProperties>
        <BoundPropertyInt Name="rotateStepNinety" Value="0" />
      </BoundProperties>
    </ImageClip>
    <ImageClip extentID="1134" gapBefore="0" mediaItemID="1130" duration="0.050000000000000003">
      <Effects />
      <Transitions />
      <BoundProperties>
        <BoundPropertyInt Name="rotateStepNinety" Value="0" />
      </BoundProperties>
    </ImageClip>
    <ImageClip extentID="1135" gapBefore="0" mediaItemID="1131" duration="0.050000000000000003">
      <Effects />
      <Transitions />
      <BoundProperties>
        <BoundPropertyInt Name="rotateStepNinety" Value="0" />
      </BoundProperties>
    </ImageClip>
    <ImageClip extentID="1136" gapBefore="0" mediaItemID="1132" duration="0.050000000000000003">
      <Effects />
      <Transitions />
      <BoundProperties>
        <BoundPropertyInt Name="rotateStepNinety" Value="0" />
      </BoundProperties>
    </ImageClip>
    <ImageClip extentID="1137" gapBefore="0" mediaItemID="1133" duration="0.050000000000000003">
      <Effects />
      <Transitions />
      <BoundProperties>
        <BoundPropertyInt Name="rotateStepNinety" Value="0" />
      </BoundProperties>
    </ImageClip>
    <ImageClip extentID="1138" gapBefore="0" mediaItemID="1134" duration="0.050000000000000003">
      <Effects />
      <Transitions />
      <BoundProperties>
        <BoundPropertyInt Name="rotateStepNinety" Value="0" />
      </BoundProperties>
    </ImageClip>
    <ImageClip extentID="1139" gapBefore="0" mediaItemID="1135" duration="0.050000000000000003">
      <Effects />
      <Transitions />
      <BoundProperties>
        <BoundPropertyInt Name="rotateStepNinety" Value="0" />
      </BoundProperties>
    </ImageClip>
    <ImageClip extentID="1140" gapBefore="0" mediaItemID="1136" duration="0.050000000000000003">
      <Effects />
      <Transitions />
      <BoundProperties>
        <BoundPropertyInt Name="rotateStepNinety" Value="0" />
      </BoundProperties>
    </ImageClip>
    <ImageClip extentID="1141" gapBefore="0" mediaItemID="1137" duration="0.050000000000000003">
      <Effects />
      <Transitions />
      <BoundProperties>
        <BoundPropertyInt Name="rotateStepNinety" Value="0" />
      </BoundProperties>
    </ImageClip>
    <ImageClip extentID="1142" gapBefore="0" mediaItemID="1138" duration="0.050000000000000003">
      <Effects />
      <Transitions />
      <BoundProperties>
        <BoundPropertyInt Name="rotateStepNinety" Value="0" />
      </BoundProperties>
    </ImageClip>
    <ImageClip extentID="1143" gapBefore="0" mediaItemID="1139" duration="0.050000000000000003">
      <Effects />
      <Transitions />
      <BoundProperties>
        <BoundPropertyInt Name="rotateStepNinety" Value="0" />
      </BoundProperties>
    </ImageClip>
    <ImageClip extentID="1144" gapBefore="0" mediaItemID="1140" duration="0.050000000000000003">
      <Effects />
      <Transitions />
      <BoundProperties>
        <BoundPropertyInt Name="rotateStepNinety" Value="0" />
      </BoundProperties>
    </ImageClip>
    <ImageClip extentID="1145" gapBefore="0" mediaItemID="1141" duration="0.050000000000000003">
      <Effects />
      <Transitions />
      <BoundProperties>
        <BoundPropertyInt Name="rotateStepNinety" Value="0" />
      </BoundProperties>
    </ImageClip>
    <ImageClip extentID="1146" gapBefore="0" mediaItemID="1142" duration="0.050000000000000003">
      <Effects />
      <Transitions />
      <BoundProperties>
        <BoundPropertyInt Name="rotateStepNinety" Value="0" />
      </BoundProperties>
    </ImageClip>
    <ImageClip extentID="1147" gapBefore="0" mediaItemID="1143" duration="0.050000000000000003">
      <Effects />
      <Transitions />
      <BoundProperties>
        <BoundPropertyInt Name="rotateStepNinety" Value="0" />
      </BoundProperties>
    </ImageClip>
    <ImageClip extentID="1148" gapBefore="0" mediaItemID="1144" duration="0.050000000000000003">
      <Effects />
      <Transitions />
      <BoundProperties>
        <BoundPropertyInt Name="rotateStepNinety" Value="0" />
      </BoundProperties>
    </ImageClip>
    <ImageClip extentID="1149" gapBefore="0" mediaItemID="1145" duration="0.050000000000000003">
      <Effects />
      <Transitions />
      <BoundProperties>
        <BoundPropertyInt Name="rotateStepNinety" Value="0" />
      </BoundProperties>
    </ImageClip>
    <ImageClip extentID="1150" gapBefore="0" mediaItemID="1146" duration="0.050000000000000003">
      <Effects />
      <Transitions />
      <BoundProperties>
        <BoundPropertyInt Name="rotateStepNinety" Value="0" />
      </BoundProperties>
    </ImageClip>
    <ImageClip extentID="1151" gapBefore="0" mediaItemID="1147" duration="0.050000000000000003">
      <Effects />
      <Transitions />
      <BoundProperties>
        <BoundPropertyInt Name="rotateStepNinety" Value="0" />
      </BoundProperties>
    </ImageClip>
    <ImageClip extentID="1152" gapBefore="0" mediaItemID="1148" duration="0.050000000000000003">
      <Effects />
      <Transitions />
      <BoundProperties>
        <BoundPropertyInt Name="rotateStepNinety" Value="0" />
      </BoundProperties>
    </ImageClip>
    <ImageClip extentID="1153" gapBefore="0" mediaItemID="1149" duration="0.050000000000000003">
      <Effects />
      <Transitions />
      <BoundProperties>
        <BoundPropertyInt Name="rotateStepNinety" Value="0" />
      </BoundProperties>
    </ImageClip>
    <ImageClip extentID="1154" gapBefore="0" mediaItemID="1150" duration="0.050000000000000003">
      <Effects />
      <Transitions />
      <BoundProperties>
        <BoundPropertyInt Name="rotateStepNinety" Value="0" />
      </BoundProperties>
    </ImageClip>
    <ImageClip extentID="1155" gapBefore="0" mediaItemID="1151" duration="0.050000000000000003">
      <Effects />
      <Transitions />
      <BoundProperties>
        <BoundPropertyInt Name="rotateStepNinety" Value="0" />
      </BoundProperties>
    </ImageClip>
    <ImageClip extentID="1156" gapBefore="0" mediaItemID="1152" duration="0.050000000000000003">
      <Effects />
      <Transitions />
      <BoundProperties>
        <BoundPropertyInt Name="rotateStepNinety" Value="0" />
      </BoundProperties>
    </ImageClip>
    <ImageClip extentID="1157" gapBefore="0" mediaItemID="1153" duration="0.050000000000000003">
      <Effects />
      <Transitions />
      <BoundProperties>
        <BoundPropertyInt Name="rotateStepNinety" Value="0" />
      </BoundProperties>
    </ImageClip>
    <ImageClip extentID="1158" gapBefore="0" mediaItemID="1154" duration="0.050000000000000003">
      <Effects />
      <Transitions />
      <BoundProperties>
        <BoundPropertyInt Name="rotateStepNinety" Value="0" />
      </BoundProperties>
    </ImageClip>
    <ImageClip extentID="1159" gapBefore="0" mediaItemID="1155" duration="0.050000000000000003">
      <Effects />
      <Transitions />
      <BoundProperties>
        <BoundPropertyInt Name="rotateStepNinety" Value="0" />
      </BoundProperties>
    </ImageClip>
    <ImageClip extentID="1160" gapBefore="0" mediaItemID="1156" duration="0.050000000000000003">
      <Effects />
      <Transitions />
      <BoundProperties>
        <BoundPropertyInt Name="rotateStepNinety" Value="0" />
      </BoundProperties>
    </ImageClip>
    <ImageClip extentID="1161" gapBefore="0" mediaItemID="1157" duration="0.050000000000000003">
      <Effects />
      <Transitions />
      <BoundProperties>
        <BoundPropertyInt Name="rotateStepNinety" Value="0" />
      </BoundProperties>
    </ImageClip>
    <ImageClip extentID="1162" gapBefore="0" mediaItemID="1158" duration="0.050000000000000003">
      <Effects />
      <Transitions />
      <BoundProperties>
        <BoundPropertyInt Name="rotateStepNinety" Value="0" />
      </BoundProperties>
    </ImageClip>
    <ImageClip extentID="1163" gapBefore="0" mediaItemID="1159" duration="0.050000000000000003">
      <Effects />
      <Transitions />
      <BoundProperties>
        <BoundPropertyInt Name="rotateStepNinety" Value="0" />
      </BoundProperties>
    </ImageClip>
    <ImageClip extentID="1164" gapBefore="0" mediaItemID="1160" duration="0.050000000000000003">
      <Effects />
      <Transitions />
      <BoundProperties>
        <BoundPropertyInt Name="rotateStepNinety" Value="0" />
      </BoundProperties>
    </ImageClip>
    <ImageClip extentID="1165" gapBefore="0" mediaItemID="1161" duration="0.050000000000000003">
      <Effects />
      <Transitions />
      <BoundProperties>
        <BoundPropertyInt Name="rotateStepNinety" Value="0" />
      </BoundProperties>
    </ImageClip>
    <ImageClip extentID="1166" gapBefore="0" mediaItemID="1162" duration="0.050000000000000003">
      <Effects />
      <Transitions />
      <BoundProperties>
        <BoundPropertyInt Name="rotateStepNinety" Value="0" />
      </BoundProperties>
    </ImageClip>
    <ImageClip extentID="1167" gapBefore="0" mediaItemID="1163" duration="0.050000000000000003">
      <Effects />
      <Transitions />
      <BoundProperties>
        <BoundPropertyInt Name="rotateStepNinety" Value="0" />
      </BoundProperties>
    </ImageClip>
    <ImageClip extentID="1168" gapBefore="0" mediaItemID="1164" duration="0.050000000000000003">
      <Effects />
      <Transitions />
      <BoundProperties>
        <BoundPropertyInt Name="rotateStepNinety" Value="0" />
      </BoundProperties>
    </ImageClip>
    <ImageClip extentID="1169" gapBefore="0" mediaItemID="1165" duration="0.050000000000000003">
      <Effects />
      <Transitions />
      <BoundProperties>
        <BoundPropertyInt Name="rotateStepNinety" Value="0" />
      </BoundProperties>
    </ImageClip>
    <ImageClip extentID="1170" gapBefore="0" mediaItemID="1166" duration="0.050000000000000003">
      <Effects />
      <Transitions />
      <BoundProperties>
        <BoundPropertyInt Name="rotateStepNinety" Value="0" />
      </BoundProperties>
    </ImageClip>
    <ImageClip extentID="1171" gapBefore="0" mediaItemID="1167" duration="0.050000000000000003">
      <Effects />
      <Transitions />
      <BoundProperties>
        <BoundPropertyInt Name="rotateStepNinety" Value="0" />
      </BoundProperties>
    </ImageClip>
    <ImageClip extentID="1172" gapBefore="0" mediaItemID="1168" duration="0.050000000000000003">
      <Effects />
      <Transitions />
      <BoundProperties>
        <BoundPropertyInt Name="rotateStepNinety" Value="0" />
      </BoundProperties>
    </ImageClip>
    <ImageClip extentID="1173" gapBefore="0" mediaItemID="1169" duration="0.050000000000000003">
      <Effects />
      <Transitions />
      <BoundProperties>
        <BoundPropertyInt Name="rotateStepNinety" Value="0" />
      </BoundProperties>
    </ImageClip>
    <ImageClip extentID="1174" gapBefore="0" mediaItemID="1170" duration="0.050000000000000003">
      <Effects />
      <Transitions />
      <BoundProperties>
        <BoundPropertyInt Name="rotateStepNinety" Value="0" />
      </BoundProperties>
    </ImageClip>
    <ImageClip extentID="1175" gapBefore="0" mediaItemID="1171" duration="0.050000000000000003">
      <Effects />
      <Transitions />
      <BoundProperties>
        <BoundPropertyInt Name="rotateStepNinety" Value="0" />
      </BoundProperties>
    </ImageClip>
    <ImageClip extentID="1176" gapBefore="0" mediaItemID="1172" duration="0.050000000000000003">
      <Effects />
      <Transitions />
      <BoundProperties>
        <BoundPropertyInt Name="rotateStepNinety" Value="0" />
      </BoundProperties>
    </ImageClip>
    <ImageClip extentID="1177" gapBefore="0" mediaItemID="1173" duration="0.050000000000000003">
      <Effects />
      <Transitions />
      <BoundProperties>
        <BoundPropertyInt Name="rotateStepNinety" Value="0" />
      </BoundProperties>
    </ImageClip>
    <ImageClip extentID="1178" gapBefore="0" mediaItemID="1174" duration="0.050000000000000003">
      <Effects />
      <Transitions />
      <BoundProperties>
        <BoundPropertyInt Name="rotateStepNinety" Value="0" />
      </BoundProperties>
    </ImageClip>
    <ImageClip extentID="1179" gapBefore="0" mediaItemID="1175" duration="0.050000000000000003">
      <Effects />
      <Transitions />
      <BoundProperties>
        <BoundPropertyInt Name="rotateStepNinety" Value="0" />
      </BoundProperties>
    </ImageClip>
    <ImageClip extentID="1180" gapBefore="0" mediaItemID="1176" duration="0.050000000000000003">
      <Effects />
      <Transitions />
      <BoundProperties>
        <BoundPropertyInt Name="rotateStepNinety" Value="0" />
      </BoundProperties>
    </ImageClip>
    <ImageClip extentID="1181" gapBefore="0" mediaItemID="1177" duration="0.050000000000000003">
      <Effects />
      <Transitions />
      <BoundProperties>
        <BoundPropertyInt Name="rotateStepNinety" Value="0" />
      </BoundProperties>
    </ImageClip>
    <ImageClip extentID="1182" gapBefore="0" mediaItemID="1178" duration="0.050000000000000003">
      <Effects />
      <Transitions />
      <BoundProperties>
        <BoundPropertyInt Name="rotateStepNinety" Value="0" />
      </BoundProperties>
    </ImageClip>
    <ImageClip extentID="1183" gapBefore="0" mediaItemID="1179" duration="0.050000000000000003">
      <Effects />
      <Transitions />
      <BoundProperties>
        <BoundPropertyInt Name="rotateStepNinety" Value="0" />
      </BoundProperties>
    </ImageClip>
    <ImageClip extentID="1184" gapBefore="0" mediaItemID="1180" duration="0.050000000000000003">
      <Effects />
      <Transitions />
      <BoundProperties>
        <BoundPropertyInt Name="rotateStepNinety" Value="0" />
      </BoundProperties>
    </ImageClip>
    <ImageClip extentID="1185" gapBefore="0" mediaItemID="1181" duration="0.050000000000000003">
      <Effects />
      <Transitions />
      <BoundProperties>
        <BoundPropertyInt Name="rotateStepNinety" Value="0" />
      </BoundProperties>
    </ImageClip>
    <ImageClip extentID="1186" gapBefore="0" mediaItemID="1182" duration="0.050000000000000003">
      <Effects />
      <Transitions />
      <BoundProperties>
        <BoundPropertyInt Name="rotateStepNinety" Value="0" />
      </BoundProperties>
    </ImageClip>
    <ImageClip extentID="1187" gapBefore="0" mediaItemID="1183" duration="0.050000000000000003">
      <Effects />
      <Transitions />
      <BoundProperties>
        <BoundPropertyInt Name="rotateStepNinety" Value="0" />
      </BoundProperties>
    </ImageClip>
    <ImageClip extentID="1188" gapBefore="0" mediaItemID="1184" duration="0.050000000000000003">
      <Effects />
      <Transitions />
      <BoundProperties>
        <BoundPropertyInt Name="rotateStepNinety" Value="0" />
      </BoundProperties>
    </ImageClip>
    <ImageClip extentID="1189" gapBefore="0" mediaItemID="1185" duration="0.050000000000000003">
      <Effects />
      <Transitions />
      <BoundProperties>
        <BoundPropertyInt Name="rotateStepNinety" Value="0" />
      </BoundProperties>
    </ImageClip>
    <ImageClip extentID="1190" gapBefore="0" mediaItemID="1186" duration="0.050000000000000003">
      <Effects />
      <Transitions />
      <BoundProperties>
        <BoundPropertyInt Name="rotateStepNinety" Value="0" />
      </BoundProperties>
    </ImageClip>
    <ImageClip extentID="1191" gapBefore="0" mediaItemID="1187" duration="0.050000000000000003">
      <Effects />
      <Transitions />
      <BoundProperties>
        <BoundPropertyInt Name="rotateStepNinety" Value="0" />
      </BoundProperties>
    </ImageClip>
    <ImageClip extentID="1192" gapBefore="0" mediaItemID="1188" duration="0.050000000000000003">
      <Effects />
      <Transitions />
      <BoundProperties>
        <BoundPropertyInt Name="rotateStepNinety" Value="0" />
      </BoundProperties>
    </ImageClip>
    <ImageClip extentID="1193" gapBefore="0" mediaItemID="1189" duration="0.050000000000000003">
      <Effects />
      <Transitions />
      <BoundProperties>
        <BoundPropertyInt Name="rotateStepNinety" Value="0" />
      </BoundProperties>
    </ImageClip>
    <ImageClip extentID="1194" gapBefore="0" mediaItemID="1190" duration="0.050000000000000003">
      <Effects />
      <Transitions />
      <BoundProperties>
        <BoundPropertyInt Name="rotateStepNinety" Value="0" />
      </BoundProperties>
    </ImageClip>
    <ImageClip extentID="1195" gapBefore="0" mediaItemID="1191" duration="0.050000000000000003">
      <Effects />
      <Transitions />
      <BoundProperties>
        <BoundPropertyInt Name="rotateStepNinety" Value="0" />
      </BoundProperties>
    </ImageClip>
    <ImageClip extentID="1196" gapBefore="0" mediaItemID="1192" duration="0.050000000000000003">
      <Effects />
      <Transitions />
      <BoundProperties>
        <BoundPropertyInt Name="rotateStepNinety" Value="0" />
      </BoundProperties>
    </ImageClip>
    <ImageClip extentID="1197" gapBefore="0" mediaItemID="1193" duration="0.050000000000000003">
      <Effects />
      <Transitions />
      <BoundProperties>
        <BoundPropertyInt Name="rotateStepNinety" Value="0" />
      </BoundProperties>
    </ImageClip>
    <ImageClip extentID="1198" gapBefore="0" mediaItemID="1194" duration="0.050000000000000003">
      <Effects />
      <Transitions />
      <BoundProperties>
        <BoundPropertyInt Name="rotateStepNinety" Value="0" />
      </BoundProperties>
    </ImageClip>
    <ImageClip extentID="1199" gapBefore="0" mediaItemID="1195" duration="0.050000000000000003">
      <Effects />
      <Transitions />
      <BoundProperties>
        <BoundPropertyInt Name="rotateStepNinety" Value="0" />
      </BoundProperties>
    </ImageClip>
    <ImageClip extentID="1200" gapBefore="0" mediaItemID="1196" duration="0.050000000000000003">
      <Effects />
      <Transitions />
      <BoundProperties>
        <BoundPropertyInt Name="rotateStepNinety" Value="0" />
      </BoundProperties>
    </ImageClip>
    <ImageClip extentID="1201" gapBefore="0" mediaItemID="1197" duration="0.050000000000000003">
      <Effects />
      <Transitions />
      <BoundProperties>
        <BoundPropertyInt Name="rotateStepNinety" Value="0" />
      </BoundProperties>
    </ImageClip>
    <ImageClip extentID="1202" gapBefore="0" mediaItemID="1198" duration="0.050000000000000003">
      <Effects />
      <Transitions />
      <BoundProperties>
        <BoundPropertyInt Name="rotateStepNinety" Value="0" />
      </BoundProperties>
    </ImageClip>
    <ImageClip extentID="1203" gapBefore="0" mediaItemID="1199" duration="0.050000000000000003">
      <Effects />
      <Transitions />
      <BoundProperties>
        <BoundPropertyInt Name="rotateStepNinety" Value="0" />
      </BoundProperties>
    </ImageClip>
    <ImageClip extentID="1204" gapBefore="0" mediaItemID="1200" duration="0.050000000000000003">
      <Effects />
      <Transitions />
      <BoundProperties>
        <BoundPropertyInt Name="rotateStepNinety" Value="0" />
      </BoundProperties>
    </ImageClip>
    <ImageClip extentID="1205" gapBefore="0" mediaItemID="1201" duration="0.050000000000000003">
      <Effects />
      <Transitions />
      <BoundProperties>
        <BoundPropertyInt Name="rotateStepNinety" Value="0" />
      </BoundProperties>
    </ImageClip>
    <ImageClip extentID="1206" gapBefore="0" mediaItemID="1202" duration="0.050000000000000003">
      <Effects />
      <Transitions />
      <BoundProperties>
        <BoundPropertyInt Name="rotateStepNinety" Value="0" />
      </BoundProperties>
    </ImageClip>
    <ImageClip extentID="1207" gapBefore="0" mediaItemID="1203" duration="0.050000000000000003">
      <Effects />
      <Transitions />
      <BoundProperties>
        <BoundPropertyInt Name="rotateStepNinety" Value="0" />
      </BoundProperties>
    </ImageClip>
    <ImageClip extentID="1208" gapBefore="0" mediaItemID="1204" duration="0.050000000000000003">
      <Effects />
      <Transitions />
      <BoundProperties>
        <BoundPropertyInt Name="rotateStepNinety" Value="0" />
      </BoundProperties>
    </ImageClip>
    <ImageClip extentID="1209" gapBefore="0" mediaItemID="1205" duration="0.050000000000000003">
      <Effects />
      <Transitions />
      <BoundProperties>
        <BoundPropertyInt Name="rotateStepNinety" Value="0" />
      </BoundProperties>
    </ImageClip>
    <ImageClip extentID="1210" gapBefore="0" mediaItemID="1206" duration="0.050000000000000003">
      <Effects />
      <Transitions />
      <BoundProperties>
        <BoundPropertyInt Name="rotateStepNinety" Value="0" />
      </BoundProperties>
    </ImageClip>
    <ImageClip extentID="1211" gapBefore="0" mediaItemID="1207" duration="0.050000000000000003">
      <Effects />
      <Transitions />
      <BoundProperties>
        <BoundPropertyInt Name="rotateStepNinety" Value="0" />
      </BoundProperties>
    </ImageClip>
    <ImageClip extentID="1212" gapBefore="0" mediaItemID="1208" duration="0.050000000000000003">
      <Effects />
      <Transitions />
      <BoundProperties>
        <BoundPropertyInt Name="rotateStepNinety" Value="0" />
      </BoundProperties>
    </ImageClip>
    <ImageClip extentID="1213" gapBefore="0" mediaItemID="1209" duration="0.050000000000000003">
      <Effects />
      <Transitions />
      <BoundProperties>
        <BoundPropertyInt Name="rotateStepNinety" Value="0" />
      </BoundProperties>
    </ImageClip>
    <ImageClip extentID="1214" gapBefore="0" mediaItemID="1210" duration="0.050000000000000003">
      <Effects />
      <Transitions />
      <BoundProperties>
        <BoundPropertyInt Name="rotateStepNinety" Value="0" />
      </BoundProperties>
    </ImageClip>
    <ImageClip extentID="1215" gapBefore="0" mediaItemID="1211" duration="0.050000000000000003">
      <Effects />
      <Transitions />
      <BoundProperties>
        <BoundPropertyInt Name="rotateStepNinety" Value="0" />
      </BoundProperties>
    </ImageClip>
    <ImageClip extentID="1216" gapBefore="0" mediaItemID="1212" duration="0.050000000000000003">
      <Effects />
      <Transitions />
      <BoundProperties>
        <BoundPropertyInt Name="rotateStepNinety" Value="0" />
      </BoundProperties>
    </ImageClip>
    <ImageClip extentID="1217" gapBefore="0" mediaItemID="1213" duration="0.050000000000000003">
      <Effects />
      <Transitions />
      <BoundProperties>
        <BoundPropertyInt Name="rotateStepNinety" Value="0" />
      </BoundProperties>
    </ImageClip>
    <ImageClip extentID="1218" gapBefore="0" mediaItemID="1214" duration="0.050000000000000003">
      <Effects />
      <Transitions />
      <BoundProperties>
        <BoundPropertyInt Name="rotateStepNinety" Value="0" />
      </BoundProperties>
    </ImageClip>
    <ImageClip extentID="1219" gapBefore="0" mediaItemID="1215" duration="0.050000000000000003">
      <Effects />
      <Transitions />
      <BoundProperties>
        <BoundPropertyInt Name="rotateStepNinety" Value="0" />
      </BoundProperties>
    </ImageClip>
    <ImageClip extentID="1220" gapBefore="0" mediaItemID="1216" duration="0.050000000000000003">
      <Effects />
      <Transitions />
      <BoundProperties>
        <BoundPropertyInt Name="rotateStepNinety" Value="0" />
      </BoundProperties>
    </ImageClip>
    <ImageClip extentID="1221" gapBefore="0" mediaItemID="1217" duration="0.050000000000000003">
      <Effects />
      <Transitions />
      <BoundProperties>
        <BoundPropertyInt Name="rotateStepNinety" Value="0" />
      </BoundProperties>
    </ImageClip>
    <ImageClip extentID="1222" gapBefore="0" mediaItemID="1218" duration="0.050000000000000003">
      <Effects />
      <Transitions />
      <BoundProperties>
        <BoundPropertyInt Name="rotateStepNinety" Value="0" />
      </BoundProperties>
    </ImageClip>
    <ImageClip extentID="1223" gapBefore="0" mediaItemID="1219" duration="0.050000000000000003">
      <Effects />
      <Transitions />
      <BoundProperties>
        <BoundPropertyInt Name="rotateStepNinety" Value="0" />
      </BoundProperties>
    </ImageClip>
    <ImageClip extentID="1224" gapBefore="0" mediaItemID="1220" duration="0.050000000000000003">
      <Effects />
      <Transitions />
      <BoundProperties>
        <BoundPropertyInt Name="rotateStepNinety" Value="0" />
      </BoundProperties>
    </ImageClip>
    <ImageClip extentID="1225" gapBefore="0" mediaItemID="1221" duration="0.050000000000000003">
      <Effects />
      <Transitions />
      <BoundProperties>
        <BoundPropertyInt Name="rotateStepNinety" Value="0" />
      </BoundProperties>
    </ImageClip>
    <ImageClip extentID="1226" gapBefore="0" mediaItemID="1222" duration="0.050000000000000003">
      <Effects />
      <Transitions />
      <BoundProperties>
        <BoundPropertyInt Name="rotateStepNinety" Value="0" />
      </BoundProperties>
    </ImageClip>
    <ImageClip extentID="1227" gapBefore="0" mediaItemID="1223" duration="0.050000000000000003">
      <Effects />
      <Transitions />
      <BoundProperties>
        <BoundPropertyInt Name="rotateStepNinety" Value="0" />
      </BoundProperties>
    </ImageClip>
    <ImageClip extentID="1228" gapBefore="0" mediaItemID="1224" duration="0.050000000000000003">
      <Effects />
      <Transitions />
      <BoundProperties>
        <BoundPropertyInt Name="rotateStepNinety" Value="0" />
      </BoundProperties>
    </ImageClip>
    <ImageClip extentID="1229" gapBefore="0" mediaItemID="1225" duration="0.050000000000000003">
      <Effects />
      <Transitions />
      <BoundProperties>
        <BoundPropertyInt Name="rotateStepNinety" Value="0" />
      </BoundProperties>
    </ImageClip>
    <ImageClip extentID="1230" gapBefore="0" mediaItemID="1226" duration="0.050000000000000003">
      <Effects />
      <Transitions />
      <BoundProperties>
        <BoundPropertyInt Name="rotateStepNinety" Value="0" />
      </BoundProperties>
    </ImageClip>
    <ImageClip extentID="1231" gapBefore="0" mediaItemID="1227" duration="0.050000000000000003">
      <Effects />
      <Transitions />
      <BoundProperties>
        <BoundPropertyInt Name="rotateStepNinety" Value="0" />
      </BoundProperties>
    </ImageClip>
    <ImageClip extentID="1232" gapBefore="0" mediaItemID="1228" duration="0.050000000000000003">
      <Effects />
      <Transitions />
      <BoundProperties>
        <BoundPropertyInt Name="rotateStepNinety" Value="0" />
      </BoundProperties>
    </ImageClip>
    <ImageClip extentID="1233" gapBefore="0" mediaItemID="1229" duration="0.050000000000000003">
      <Effects />
      <Transitions />
      <BoundProperties>
        <BoundPropertyInt Name="rotateStepNinety" Value="0" />
      </BoundProperties>
    </ImageClip>
    <ImageClip extentID="1234" gapBefore="0" mediaItemID="1230" duration="0.050000000000000003">
      <Effects />
      <Transitions />
      <BoundProperties>
        <BoundPropertyInt Name="rotateStepNinety" Value="0" />
      </BoundProperties>
    </ImageClip>
    <ImageClip extentID="1235" gapBefore="0" mediaItemID="1231" duration="0.050000000000000003">
      <Effects />
      <Transitions />
      <BoundProperties>
        <BoundPropertyInt Name="rotateStepNinety" Value="0" />
      </BoundProperties>
    </ImageClip>
    <ImageClip extentID="1236" gapBefore="0" mediaItemID="1232" duration="0.050000000000000003">
      <Effects />
      <Transitions />
      <BoundProperties>
        <BoundPropertyInt Name="rotateStepNinety" Value="0" />
      </BoundProperties>
    </ImageClip>
    <ImageClip extentID="1237" gapBefore="0" mediaItemID="1233" duration="0.050000000000000003">
      <Effects />
      <Transitions />
      <BoundProperties>
        <BoundPropertyInt Name="rotateStepNinety" Value="0" />
      </BoundProperties>
    </ImageClip>
    <ImageClip extentID="1238" gapBefore="0" mediaItemID="1234" duration="0.050000000000000003">
      <Effects />
      <Transitions />
      <BoundProperties>
        <BoundPropertyInt Name="rotateStepNinety" Value="0" />
      </BoundProperties>
    </ImageClip>
    <ImageClip extentID="1239" gapBefore="0" mediaItemID="1235" duration="0.050000000000000003">
      <Effects />
      <Transitions />
      <BoundProperties>
        <BoundPropertyInt Name="rotateStepNinety" Value="0" />
      </BoundProperties>
    </ImageClip>
    <ImageClip extentID="1240" gapBefore="0" mediaItemID="1236" duration="0.050000000000000003">
      <Effects />
      <Transitions />
      <BoundProperties>
        <BoundPropertyInt Name="rotateStepNinety" Value="0" />
      </BoundProperties>
    </ImageClip>
    <ImageClip extentID="1241" gapBefore="0" mediaItemID="1237" duration="0.050000000000000003">
      <Effects />
      <Transitions />
      <BoundProperties>
        <BoundPropertyInt Name="rotateStepNinety" Value="0" />
      </BoundProperties>
    </ImageClip>
    <ImageClip extentID="1242" gapBefore="0" mediaItemID="1238" duration="0.050000000000000003">
      <Effects />
      <Transitions />
      <BoundProperties>
        <BoundPropertyInt Name="rotateStepNinety" Value="0" />
      </BoundProperties>
    </ImageClip>
    <ImageClip extentID="1243" gapBefore="0" mediaItemID="1239" duration="0.050000000000000003">
      <Effects />
      <Transitions />
      <BoundProperties>
        <BoundPropertyInt Name="rotateStepNinety" Value="0" />
      </BoundProperties>
    </ImageClip>
    <ImageClip extentID="1244" gapBefore="0" mediaItemID="1240" duration="0.050000000000000003">
      <Effects />
      <Transitions />
      <BoundProperties>
        <BoundPropertyInt Name="rotateStepNinety" Value="0" />
      </BoundProperties>
    </ImageClip>
    <ImageClip extentID="1245" gapBefore="0" mediaItemID="1241" duration="0.050000000000000003">
      <Effects />
      <Transitions />
      <BoundProperties>
        <BoundPropertyInt Name="rotateStepNinety" Value="0" />
      </BoundProperties>
    </ImageClip>
    <ImageClip extentID="1246" gapBefore="0" mediaItemID="1242" duration="0.050000000000000003">
      <Effects />
      <Transitions />
      <BoundProperties>
        <BoundPropertyInt Name="rotateStepNinety" Value="0" />
      </BoundProperties>
    </ImageClip>
    <ImageClip extentID="1247" gapBefore="0" mediaItemID="1243" duration="0.050000000000000003">
      <Effects />
      <Transitions />
      <BoundProperties>
        <BoundPropertyInt Name="rotateStepNinety" Value="0" />
      </BoundProperties>
    </ImageClip>
    <ImageClip extentID="1248" gapBefore="0" mediaItemID="1244" duration="0.050000000000000003">
      <Effects />
      <Transitions />
      <BoundProperties>
        <BoundPropertyInt Name="rotateStepNinety" Value="0" />
      </BoundProperties>
    </ImageClip>
    <ImageClip extentID="1249" gapBefore="0" mediaItemID="1245" duration="0.050000000000000003">
      <Effects />
      <Transitions />
      <BoundProperties>
        <BoundPropertyInt Name="rotateStepNinety" Value="0" />
      </BoundProperties>
    </ImageClip>
    <ImageClip extentID="1250" gapBefore="0" mediaItemID="1246" duration="0.050000000000000003">
      <Effects />
      <Transitions />
      <BoundProperties>
        <BoundPropertyInt Name="rotateStepNinety" Value="0" />
      </BoundProperties>
    </ImageClip>
    <ImageClip extentID="1251" gapBefore="0" mediaItemID="1247" duration="0.050000000000000003">
      <Effects />
      <Transitions />
      <BoundProperties>
        <BoundPropertyInt Name="rotateStepNinety" Value="0" />
      </BoundProperties>
    </ImageClip>
    <ImageClip extentID="1252" gapBefore="0" mediaItemID="1248" duration="0.050000000000000003">
      <Effects />
      <Transitions />
      <BoundProperties>
        <BoundPropertyInt Name="rotateStepNinety" Value="0" />
      </BoundProperties>
    </ImageClip>
    <ImageClip extentID="1253" gapBefore="0" mediaItemID="1249" duration="0.050000000000000003">
      <Effects />
      <Transitions />
      <BoundProperties>
        <BoundPropertyInt Name="rotateStepNinety" Value="0" />
      </BoundProperties>
    </ImageClip>
    <ImageClip extentID="1254" gapBefore="0" mediaItemID="1250" duration="0.050000000000000003">
      <Effects />
      <Transitions />
      <BoundProperties>
        <BoundPropertyInt Name="rotateStepNinety" Value="0" />
      </BoundProperties>
    </ImageClip>
    <ImageClip extentID="1255" gapBefore="0" mediaItemID="1251" duration="0.050000000000000003">
      <Effects />
      <Transitions />
      <BoundProperties>
        <BoundPropertyInt Name="rotateStepNinety" Value="0" />
      </BoundProperties>
    </ImageClip>
    <ImageClip extentID="1256" gapBefore="0" mediaItemID="1252" duration="0.050000000000000003">
      <Effects />
      <Transitions />
      <BoundProperties>
        <BoundPropertyInt Name="rotateStepNinety" Value="0" />
      </BoundProperties>
    </ImageClip>
    <ImageClip extentID="1257" gapBefore="0" mediaItemID="1253" duration="0.050000000000000003">
      <Effects />
      <Transitions />
      <BoundProperties>
        <BoundPropertyInt Name="rotateStepNinety" Value="0" />
      </BoundProperties>
    </ImageClip>
    <ImageClip extentID="1258" gapBefore="0" mediaItemID="1254" duration="0.050000000000000003">
      <Effects />
      <Transitions />
      <BoundProperties>
        <BoundPropertyInt Name="rotateStepNinety" Value="0" />
      </BoundProperties>
    </ImageClip>
    <ImageClip extentID="1259" gapBefore="0" mediaItemID="1255" duration="0.050000000000000003">
      <Effects />
      <Transitions />
      <BoundProperties>
        <BoundPropertyInt Name="rotateStepNinety" Value="0" />
      </BoundProperties>
    </ImageClip>
    <ImageClip extentID="1260" gapBefore="0" mediaItemID="1256" duration="0.050000000000000003">
      <Effects />
      <Transitions />
      <BoundProperties>
        <BoundPropertyInt Name="rotateStepNinety" Value="0" />
      </BoundProperties>
    </ImageClip>
    <ImageClip extentID="1261" gapBefore="0" mediaItemID="1257" duration="0.050000000000000003">
      <Effects />
      <Transitions />
      <BoundProperties>
        <BoundPropertyInt Name="rotateStepNinety" Value="0" />
      </BoundProperties>
    </ImageClip>
    <ImageClip extentID="1262" gapBefore="0" mediaItemID="1258" duration="0.050000000000000003">
      <Effects />
      <Transitions />
      <BoundProperties>
        <BoundPropertyInt Name="rotateStepNinety" Value="0" />
      </BoundProperties>
    </ImageClip>
    <ImageClip extentID="1263" gapBefore="0" mediaItemID="1259" duration="0.050000000000000003">
      <Effects />
      <Transitions />
      <BoundProperties>
        <BoundPropertyInt Name="rotateStepNinety" Value="0" />
      </BoundProperties>
    </ImageClip>
    <ImageClip extentID="1264" gapBefore="0" mediaItemID="1260" duration="0.050000000000000003">
      <Effects />
      <Transitions />
      <BoundProperties>
        <BoundPropertyInt Name="rotateStepNinety" Value="0" />
      </BoundProperties>
    </ImageClip>
    <ImageClip extentID="1265" gapBefore="0" mediaItemID="1261" duration="0.050000000000000003">
      <Effects />
      <Transitions />
      <BoundProperties>
        <BoundPropertyInt Name="rotateStepNinety" Value="0" />
      </BoundProperties>
    </ImageClip>
    <ImageClip extentID="1266" gapBefore="0" mediaItemID="1262" duration="0.050000000000000003">
      <Effects />
      <Transitions />
      <BoundProperties>
        <BoundPropertyInt Name="rotateStepNinety" Value="0" />
      </BoundProperties>
    </ImageClip>
    <ImageClip extentID="1267" gapBefore="0" mediaItemID="1263" duration="0.050000000000000003">
      <Effects />
      <Transitions />
      <BoundProperties>
        <BoundPropertyInt Name="rotateStepNinety" Value="0" />
      </BoundProperties>
    </ImageClip>
    <ImageClip extentID="1268" gapBefore="0" mediaItemID="1264" duration="0.050000000000000003">
      <Effects />
      <Transitions />
      <BoundProperties>
        <BoundPropertyInt Name="rotateStepNinety" Value="0" />
      </BoundProperties>
    </ImageClip>
    <ImageClip extentID="1269" gapBefore="0" mediaItemID="1265" duration="0.050000000000000003">
      <Effects />
      <Transitions />
      <BoundProperties>
        <BoundPropertyInt Name="rotateStepNinety" Value="0" />
      </BoundProperties>
    </ImageClip>
    <ImageClip extentID="1270" gapBefore="0" mediaItemID="1266" duration="0.050000000000000003">
      <Effects />
      <Transitions />
      <BoundProperties>
        <BoundPropertyInt Name="rotateStepNinety" Value="0" />
      </BoundProperties>
    </ImageClip>
    <ImageClip extentID="1271" gapBefore="0" mediaItemID="1267" duration="0.050000000000000003">
      <Effects />
      <Transitions />
      <BoundProperties>
        <BoundPropertyInt Name="rotateStepNinety" Value="0" />
      </BoundProperties>
    </ImageClip>
    <ImageClip extentID="1272" gapBefore="0" mediaItemID="1268" duration="0.050000000000000003">
      <Effects />
      <Transitions />
      <BoundProperties>
        <BoundPropertyInt Name="rotateStepNinety" Value="0" />
      </BoundProperties>
    </ImageClip>
    <ImageClip extentID="1273" gapBefore="0" mediaItemID="1269" duration="0.050000000000000003">
      <Effects />
      <Transitions />
      <BoundProperties>
        <BoundPropertyInt Name="rotateStepNinety" Value="0" />
      </BoundProperties>
    </ImageClip>
    <ImageClip extentID="1274" gapBefore="0" mediaItemID="1270" duration="0.050000000000000003">
      <Effects />
      <Transitions />
      <BoundProperties>
        <BoundPropertyInt Name="rotateStepNinety" Value="0" />
      </BoundProperties>
    </ImageClip>
    <ImageClip extentID="1275" gapBefore="0" mediaItemID="1271" duration="0.050000000000000003">
      <Effects />
      <Transitions />
      <BoundProperties>
        <BoundPropertyInt Name="rotateStepNinety" Value="0" />
      </BoundProperties>
    </ImageClip>
    <ImageClip extentID="1276" gapBefore="0" mediaItemID="1272" duration="0.050000000000000003">
      <Effects />
      <Transitions />
      <BoundProperties>
        <BoundPropertyInt Name="rotateStepNinety" Value="0" />
      </BoundProperties>
    </ImageClip>
    <ImageClip extentID="1277" gapBefore="0" mediaItemID="1273" duration="0.050000000000000003">
      <Effects />
      <Transitions />
      <BoundProperties>
        <BoundPropertyInt Name="rotateStepNinety" Value="0" />
      </BoundProperties>
    </ImageClip>
    <ImageClip extentID="1278" gapBefore="0" mediaItemID="1274" duration="0.050000000000000003">
      <Effects />
      <Transitions />
      <BoundProperties>
        <BoundPropertyInt Name="rotateStepNinety" Value="0" />
      </BoundProperties>
    </ImageClip>
    <ImageClip extentID="1279" gapBefore="0" mediaItemID="1275" duration="0.050000000000000003">
      <Effects />
      <Transitions />
      <BoundProperties>
        <BoundPropertyInt Name="rotateStepNinety" Value="0" />
      </BoundProperties>
    </ImageClip>
    <ImageClip extentID="1280" gapBefore="0" mediaItemID="1276" duration="0.050000000000000003">
      <Effects />
      <Transitions />
      <BoundProperties>
        <BoundPropertyInt Name="rotateStepNinety" Value="0" />
      </BoundProperties>
    </ImageClip>
    <ImageClip extentID="1281" gapBefore="0" mediaItemID="1277" duration="0.050000000000000003">
      <Effects />
      <Transitions />
      <BoundProperties>
        <BoundPropertyInt Name="rotateStepNinety" Value="0" />
      </BoundProperties>
    </ImageClip>
    <ImageClip extentID="1282" gapBefore="0" mediaItemID="1278" duration="0.050000000000000003">
      <Effects />
      <Transitions />
      <BoundProperties>
        <BoundPropertyInt Name="rotateStepNinety" Value="0" />
      </BoundProperties>
    </ImageClip>
    <ImageClip extentID="1283" gapBefore="0" mediaItemID="1279" duration="0.050000000000000003">
      <Effects />
      <Transitions />
      <BoundProperties>
        <BoundPropertyInt Name="rotateStepNinety" Value="0" />
      </BoundProperties>
    </ImageClip>
    <ImageClip extentID="1284" gapBefore="0" mediaItemID="1280" duration="0.050000000000000003">
      <Effects />
      <Transitions />
      <BoundProperties>
        <BoundPropertyInt Name="rotateStepNinety" Value="0" />
      </BoundProperties>
    </ImageClip>
    <ImageClip extentID="1285" gapBefore="0" mediaItemID="1281" duration="0.050000000000000003">
      <Effects />
      <Transitions />
      <BoundProperties>
        <BoundPropertyInt Name="rotateStepNinety" Value="0" />
      </BoundProperties>
    </ImageClip>
    <ImageClip extentID="1286" gapBefore="0" mediaItemID="1282" duration="0.050000000000000003">
      <Effects />
      <Transitions />
      <BoundProperties>
        <BoundPropertyInt Name="rotateStepNinety" Value="0" />
      </BoundProperties>
    </ImageClip>
    <ImageClip extentID="1287" gapBefore="0" mediaItemID="1283" duration="0.050000000000000003">
      <Effects />
      <Transitions />
      <BoundProperties>
        <BoundPropertyInt Name="rotateStepNinety" Value="0" />
      </BoundProperties>
    </ImageClip>
    <ImageClip extentID="1288" gapBefore="0" mediaItemID="1284" duration="0.050000000000000003">
      <Effects />
      <Transitions />
      <BoundProperties>
        <BoundPropertyInt Name="rotateStepNinety" Value="0" />
      </BoundProperties>
    </ImageClip>
    <ImageClip extentID="1289" gapBefore="0" mediaItemID="1285" duration="0.050000000000000003">
      <Effects />
      <Transitions />
      <BoundProperties>
        <BoundPropertyInt Name="rotateStepNinety" Value="0" />
      </BoundProperties>
    </ImageClip>
    <ImageClip extentID="1290" gapBefore="0" mediaItemID="1286" duration="0.050000000000000003">
      <Effects />
      <Transitions />
      <BoundProperties>
        <BoundPropertyInt Name="rotateStepNinety" Value="0" />
      </BoundProperties>
    </ImageClip>
    <ImageClip extentID="1291" gapBefore="0" mediaItemID="1287" duration="0.050000000000000003">
      <Effects />
      <Transitions />
      <BoundProperties>
        <BoundPropertyInt Name="rotateStepNinety" Value="0" />
      </BoundProperties>
    </ImageClip>
    <ImageClip extentID="1292" gapBefore="0" mediaItemID="1288" duration="0.050000000000000003">
      <Effects />
      <Transitions />
      <BoundProperties>
        <BoundPropertyInt Name="rotateStepNinety" Value="0" />
      </BoundProperties>
    </ImageClip>
    <ImageClip extentID="1293" gapBefore="0" mediaItemID="1289" duration="0.050000000000000003">
      <Effects />
      <Transitions />
      <BoundProperties>
        <BoundPropertyInt Name="rotateStepNinety" Value="0" />
      </BoundProperties>
    </ImageClip>
    <ImageClip extentID="1294" gapBefore="0" mediaItemID="1290" duration="0.050000000000000003">
      <Effects />
      <Transitions />
      <BoundProperties>
        <BoundPropertyInt Name="rotateStepNinety" Value="0" />
      </BoundProperties>
    </ImageClip>
    <ImageClip extentID="1295" gapBefore="0" mediaItemID="1291" duration="0.050000000000000003">
      <Effects />
      <Transitions />
      <BoundProperties>
        <BoundPropertyInt Name="rotateStepNinety" Value="0" />
      </BoundProperties>
    </ImageClip>
    <ImageClip extentID="1296" gapBefore="0" mediaItemID="1292" duration="0.050000000000000003">
      <Effects />
      <Transitions />
      <BoundProperties>
        <BoundPropertyInt Name="rotateStepNinety" Value="0" />
      </BoundProperties>
    </ImageClip>
    <ImageClip extentID="1297" gapBefore="0" mediaItemID="1293" duration="0.050000000000000003">
      <Effects />
      <Transitions />
      <BoundProperties>
        <BoundPropertyInt Name="rotateStepNinety" Value="0" />
      </BoundProperties>
    </ImageClip>
    <ImageClip extentID="1298" gapBefore="0" mediaItemID="1294" duration="0.050000000000000003">
      <Effects />
      <Transitions />
      <BoundProperties>
        <BoundPropertyInt Name="rotateStepNinety" Value="0" />
      </BoundProperties>
    </ImageClip>
    <ImageClip extentID="1299" gapBefore="0" mediaItemID="1295" duration="0.050000000000000003">
      <Effects />
      <Transitions />
      <BoundProperties>
        <BoundPropertyInt Name="rotateStepNinety" Value="0" />
      </BoundProperties>
    </ImageClip>
    <ImageClip extentID="1300" gapBefore="0" mediaItemID="1296" duration="0.050000000000000003">
      <Effects />
      <Transitions />
      <BoundProperties>
        <BoundPropertyInt Name="rotateStepNinety" Value="0" />
      </BoundProperties>
    </ImageClip>
    <ImageClip extentID="1301" gapBefore="0" mediaItemID="1297" duration="0.050000000000000003">
      <Effects />
      <Transitions />
      <BoundProperties>
        <BoundPropertyInt Name="rotateStepNinety" Value="0" />
      </BoundProperties>
    </ImageClip>
    <ImageClip extentID="1302" gapBefore="0" mediaItemID="1298" duration="0.050000000000000003">
      <Effects />
      <Transitions />
      <BoundProperties>
        <BoundPropertyInt Name="rotateStepNinety" Value="0" />
      </BoundProperties>
    </ImageClip>
    <ImageClip extentID="1303" gapBefore="0" mediaItemID="1299" duration="0.050000000000000003">
      <Effects />
      <Transitions />
      <BoundProperties>
        <BoundPropertyInt Name="rotateStepNinety" Value="0" />
      </BoundProperties>
    </ImageClip>
    <ImageClip extentID="1304" gapBefore="0" mediaItemID="1300" duration="0.050000000000000003">
      <Effects />
      <Transitions />
      <BoundProperties>
        <BoundPropertyInt Name="rotateStepNinety" Value="0" />
      </BoundProperties>
    </ImageClip>
    <ImageClip extentID="1305" gapBefore="0" mediaItemID="1301" duration="0.050000000000000003">
      <Effects />
      <Transitions />
      <BoundProperties>
        <BoundPropertyInt Name="rotateStepNinety" Value="0" />
      </BoundProperties>
    </ImageClip>
    <ImageClip extentID="1306" gapBefore="0" mediaItemID="1302" duration="0.050000000000000003">
      <Effects />
      <Transitions />
      <BoundProperties>
        <BoundPropertyInt Name="rotateStepNinety" Value="0" />
      </BoundProperties>
    </ImageClip>
    <ImageClip extentID="1307" gapBefore="0" mediaItemID="1303" duration="0.050000000000000003">
      <Effects />
      <Transitions />
      <BoundProperties>
        <BoundPropertyInt Name="rotateStepNinety" Value="0" />
      </BoundProperties>
    </ImageClip>
    <ImageClip extentID="1308" gapBefore="0" mediaItemID="1304" duration="0.050000000000000003">
      <Effects />
      <Transitions />
      <BoundProperties>
        <BoundPropertyInt Name="rotateStepNinety" Value="0" />
      </BoundProperties>
    </ImageClip>
    <ImageClip extentID="1309" gapBefore="0" mediaItemID="1305" duration="0.050000000000000003">
      <Effects />
      <Transitions />
      <BoundProperties>
        <BoundPropertyInt Name="rotateStepNinety" Value="0" />
      </BoundProperties>
    </ImageClip>
    <ImageClip extentID="1310" gapBefore="0" mediaItemID="1306" duration="0.050000000000000003">
      <Effects />
      <Transitions />
      <BoundProperties>
        <BoundPropertyInt Name="rotateStepNinety" Value="0" />
      </BoundProperties>
    </ImageClip>
    <ImageClip extentID="1311" gapBefore="0" mediaItemID="1307" duration="0.050000000000000003">
      <Effects />
      <Transitions />
      <BoundProperties>
        <BoundPropertyInt Name="rotateStepNinety" Value="0" />
      </BoundProperties>
    </ImageClip>
    <ImageClip extentID="1312" gapBefore="0" mediaItemID="1308" duration="0.050000000000000003">
      <Effects />
      <Transitions />
      <BoundProperties>
        <BoundPropertyInt Name="rotateStepNinety" Value="0" />
      </BoundProperties>
    </ImageClip>
    <ImageClip extentID="1313" gapBefore="0" mediaItemID="1309" duration="0.050000000000000003">
      <Effects />
      <Transitions />
      <BoundProperties>
        <BoundPropertyInt Name="rotateStepNinety" Value="0" />
      </BoundProperties>
    </ImageClip>
    <ImageClip extentID="1314" gapBefore="0" mediaItemID="1310" duration="0.050000000000000003">
      <Effects />
      <Transitions />
      <BoundProperties>
        <BoundPropertyInt Name="rotateStepNinety" Value="0" />
      </BoundProperties>
    </ImageClip>
    <ImageClip extentID="1315" gapBefore="0" mediaItemID="1311" duration="0.050000000000000003">
      <Effects />
      <Transitions />
      <BoundProperties>
        <BoundPropertyInt Name="rotateStepNinety" Value="0" />
      </BoundProperties>
    </ImageClip>
    <ImageClip extentID="1316" gapBefore="0" mediaItemID="1312" duration="0.050000000000000003">
      <Effects />
      <Transitions />
      <BoundProperties>
        <BoundPropertyInt Name="rotateStepNinety" Value="0" />
      </BoundProperties>
    </ImageClip>
    <ImageClip extentID="1317" gapBefore="0" mediaItemID="1313" duration="0.050000000000000003">
      <Effects />
      <Transitions />
      <BoundProperties>
        <BoundPropertyInt Name="rotateStepNinety" Value="0" />
      </BoundProperties>
    </ImageClip>
    <ImageClip extentID="1318" gapBefore="0" mediaItemID="1314" duration="0.050000000000000003">
      <Effects />
      <Transitions />
      <BoundProperties>
        <BoundPropertyInt Name="rotateStepNinety" Value="0" />
      </BoundProperties>
    </ImageClip>
    <ImageClip extentID="1319" gapBefore="0" mediaItemID="1315" duration="0.050000000000000003">
      <Effects />
      <Transitions />
      <BoundProperties>
        <BoundPropertyInt Name="rotateStepNinety" Value="0" />
      </BoundProperties>
    </ImageClip>
    <ImageClip extentID="1320" gapBefore="0" mediaItemID="1316" duration="0.050000000000000003">
      <Effects />
      <Transitions />
      <BoundProperties>
        <BoundPropertyInt Name="rotateStepNinety" Value="0" />
      </BoundProperties>
    </ImageClip>
    <ImageClip extentID="1321" gapBefore="0" mediaItemID="1317" duration="0.050000000000000003">
      <Effects />
      <Transitions />
      <BoundProperties>
        <BoundPropertyInt Name="rotateStepNinety" Value="0" />
      </BoundProperties>
    </ImageClip>
    <ImageClip extentID="1322" gapBefore="0" mediaItemID="1318" duration="0.050000000000000003">
      <Effects />
      <Transitions />
      <BoundProperties>
        <BoundPropertyInt Name="rotateStepNinety" Value="0" />
      </BoundProperties>
    </ImageClip>
    <ImageClip extentID="1323" gapBefore="0" mediaItemID="1319" duration="0.050000000000000003">
      <Effects />
      <Transitions />
      <BoundProperties>
        <BoundPropertyInt Name="rotateStepNinety" Value="0" />
      </BoundProperties>
    </ImageClip>
    <ImageClip extentID="1324" gapBefore="0" mediaItemID="1320" duration="0.050000000000000003">
      <Effects />
      <Transitions />
      <BoundProperties>
        <BoundPropertyInt Name="rotateStepNinety" Value="0" />
      </BoundProperties>
    </ImageClip>
    <ImageClip extentID="1325" gapBefore="0" mediaItemID="1321" duration="0.050000000000000003">
      <Effects />
      <Transitions />
      <BoundProperties>
        <BoundPropertyInt Name="rotateStepNinety" Value="0" />
      </BoundProperties>
    </ImageClip>
    <ImageClip extentID="1326" gapBefore="0" mediaItemID="1322" duration="0.050000000000000003">
      <Effects />
      <Transitions />
      <BoundProperties>
        <BoundPropertyInt Name="rotateStepNinety" Value="0" />
      </BoundProperties>
    </ImageClip>
    <ImageClip extentID="1327" gapBefore="0" mediaItemID="1323" duration="0.050000000000000003">
      <Effects />
      <Transitions />
      <BoundProperties>
        <BoundPropertyInt Name="rotateStepNinety" Value="0" />
      </BoundProperties>
    </ImageClip>
    <ImageClip extentID="1328" gapBefore="0" mediaItemID="1324" duration="0.050000000000000003">
      <Effects />
      <Transitions />
      <BoundProperties>
        <BoundPropertyInt Name="rotateStepNinety" Value="0" />
      </BoundProperties>
    </ImageClip>
    <ImageClip extentID="1329" gapBefore="0" mediaItemID="1325" duration="0.050000000000000003">
      <Effects />
      <Transitions />
      <BoundProperties>
        <BoundPropertyInt Name="rotateStepNinety" Value="0" />
      </BoundProperties>
    </ImageClip>
    <ImageClip extentID="1330" gapBefore="0" mediaItemID="1326" duration="0.050000000000000003">
      <Effects />
      <Transitions />
      <BoundProperties>
        <BoundPropertyInt Name="rotateStepNinety" Value="0" />
      </BoundProperties>
    </ImageClip>
    <ImageClip extentID="1331" gapBefore="0" mediaItemID="1327" duration="0.050000000000000003">
      <Effects />
      <Transitions />
      <BoundProperties>
        <BoundPropertyInt Name="rotateStepNinety" Value="0" />
      </BoundProperties>
    </ImageClip>
    <ImageClip extentID="1332" gapBefore="0" mediaItemID="1328" duration="0.050000000000000003">
      <Effects />
      <Transitions />
      <BoundProperties>
        <BoundPropertyInt Name="rotateStepNinety" Value="0" />
      </BoundProperties>
    </ImageClip>
    <ImageClip extentID="1333" gapBefore="0" mediaItemID="1329" duration="0.050000000000000003">
      <Effects />
      <Transitions />
      <BoundProperties>
        <BoundPropertyInt Name="rotateStepNinety" Value="0" />
      </BoundProperties>
    </ImageClip>
    <ImageClip extentID="1334" gapBefore="0" mediaItemID="1330" duration="0.050000000000000003">
      <Effects />
      <Transitions />
      <BoundProperties>
        <BoundPropertyInt Name="rotateStepNinety" Value="0" />
      </BoundProperties>
    </ImageClip>
    <ImageClip extentID="1335" gapBefore="0" mediaItemID="1331" duration="0.050000000000000003">
      <Effects />
      <Transitions />
      <BoundProperties>
        <BoundPropertyInt Name="rotateStepNinety" Value="0" />
      </BoundProperties>
    </ImageClip>
    <ImageClip extentID="1336" gapBefore="0" mediaItemID="1332" duration="0.050000000000000003">
      <Effects />
      <Transitions />
      <BoundProperties>
        <BoundPropertyInt Name="rotateStepNinety" Value="0" />
      </BoundProperties>
    </ImageClip>
    <ImageClip extentID="1337" gapBefore="0" mediaItemID="1333" duration="0.050000000000000003">
      <Effects />
      <Transitions />
      <BoundProperties>
        <BoundPropertyInt Name="rotateStepNinety" Value="0" />
      </BoundProperties>
    </ImageClip>
    <ImageClip extentID="1338" gapBefore="0" mediaItemID="1334" duration="0.050000000000000003">
      <Effects />
      <Transitions />
      <BoundProperties>
        <BoundPropertyInt Name="rotateStepNinety" Value="0" />
      </BoundProperties>
    </ImageClip>
    <ImageClip extentID="1339" gapBefore="0" mediaItemID="1335" duration="0.050000000000000003">
      <Effects />
      <Transitions />
      <BoundProperties>
        <BoundPropertyInt Name="rotateStepNinety" Value="0" />
      </BoundProperties>
    </ImageClip>
    <ImageClip extentID="1349" gapBefore="0" mediaItemID="1345" duration="0.050000000000000003">
      <Effects />
      <Transitions />
      <BoundProperties>
        <BoundPropertyInt Name="rotateStepNinety" Value="0" />
      </BoundProperties>
    </ImageClip>
    <ImageClip extentID="1351" gapBefore="0" mediaItemID="1347" duration="0.050000000000000003">
      <Effects />
      <Transitions />
      <BoundProperties>
        <BoundPropertyInt Name="rotateStepNinety" Value="0" />
      </BoundProperties>
    </ImageClip>
    <ImageClip extentID="1352" gapBefore="0" mediaItemID="1348" duration="0.050000000000000003">
      <Effects />
      <Transitions />
      <BoundProperties>
        <BoundPropertyInt Name="rotateStepNinety" Value="0" />
      </BoundProperties>
    </ImageClip>
    <ImageClip extentID="1353" gapBefore="0" mediaItemID="1349" duration="0.050000000000000003">
      <Effects />
      <Transitions />
      <BoundProperties>
        <BoundPropertyInt Name="rotateStepNinety" Value="0" />
      </BoundProperties>
    </ImageClip>
    <ImageClip extentID="1354" gapBefore="0" mediaItemID="1350" duration="0.050000000000000003">
      <Effects />
      <Transitions />
      <BoundProperties>
        <BoundPropertyInt Name="rotateStepNinety" Value="0" />
      </BoundProperties>
    </ImageClip>
    <ImageClip extentID="1355" gapBefore="0" mediaItemID="1351" duration="0.050000000000000003">
      <Effects />
      <Transitions />
      <BoundProperties>
        <BoundPropertyInt Name="rotateStepNinety" Value="0" />
      </BoundProperties>
    </ImageClip>
    <ImageClip extentID="1356" gapBefore="0" mediaItemID="1352" duration="0.050000000000000003">
      <Effects />
      <Transitions />
      <BoundProperties>
        <BoundPropertyInt Name="rotateStepNinety" Value="0" />
      </BoundProperties>
    </ImageClip>
    <ImageClip extentID="1357" gapBefore="0" mediaItemID="1353" duration="0.050000000000000003">
      <Effects />
      <Transitions />
      <BoundProperties>
        <BoundPropertyInt Name="rotateStepNinety" Value="0" />
      </BoundProperties>
    </ImageClip>
    <ImageClip extentID="1358" gapBefore="0" mediaItemID="1354" duration="0.050000000000000003">
      <Effects />
      <Transitions />
      <BoundProperties>
        <BoundPropertyInt Name="rotateStepNinety" Value="0" />
      </BoundProperties>
    </ImageClip>
    <ImageClip extentID="1359" gapBefore="0" mediaItemID="1355" duration="0.050000000000000003">
      <Effects />
      <Transitions />
      <BoundProperties>
        <BoundPropertyInt Name="rotateStepNinety" Value="0" />
      </BoundProperties>
    </ImageClip>
    <ImageClip extentID="1360" gapBefore="0" mediaItemID="1356" duration="0.050000000000000003">
      <Effects />
      <Transitions />
      <BoundProperties>
        <BoundPropertyInt Name="rotateStepNinety" Value="0" />
      </BoundProperties>
    </ImageClip>
    <ImageClip extentID="1361" gapBefore="0" mediaItemID="1357" duration="0.050000000000000003">
      <Effects />
      <Transitions />
      <BoundProperties>
        <BoundPropertyInt Name="rotateStepNinety" Value="0" />
      </BoundProperties>
    </ImageClip>
    <ImageClip extentID="1362" gapBefore="0" mediaItemID="1358" duration="0.050000000000000003">
      <Effects />
      <Transitions />
      <BoundProperties>
        <BoundPropertyInt Name="rotateStepNinety" Value="0" />
      </BoundProperties>
    </ImageClip>
    <ImageClip extentID="1363" gapBefore="0" mediaItemID="1359" duration="0.050000000000000003">
      <Effects />
      <Transitions />
      <BoundProperties>
        <BoundPropertyInt Name="rotateStepNinety" Value="0" />
      </BoundProperties>
    </ImageClip>
    <ImageClip extentID="1364" gapBefore="0" mediaItemID="1360" duration="0.050000000000000003">
      <Effects />
      <Transitions />
      <BoundProperties>
        <BoundPropertyInt Name="rotateStepNinety" Value="0" />
      </BoundProperties>
    </ImageClip>
    <ImageClip extentID="1365" gapBefore="0" mediaItemID="1361" duration="0.050000000000000003">
      <Effects />
      <Transitions />
      <BoundProperties>
        <BoundPropertyInt Name="rotateStepNinety" Value="0" />
      </BoundProperties>
    </ImageClip>
    <ImageClip extentID="1366" gapBefore="0" mediaItemID="1362" duration="0.050000000000000003">
      <Effects />
      <Transitions />
      <BoundProperties>
        <BoundPropertyInt Name="rotateStepNinety" Value="0" />
      </BoundProperties>
    </ImageClip>
    <ImageClip extentID="1367" gapBefore="0" mediaItemID="1363" duration="0.050000000000000003">
      <Effects />
      <Transitions />
      <BoundProperties>
        <BoundPropertyInt Name="rotateStepNinety" Value="0" />
      </BoundProperties>
    </ImageClip>
    <ImageClip extentID="1368" gapBefore="0" mediaItemID="1364" duration="0.050000000000000003">
      <Effects />
      <Transitions />
      <BoundProperties>
        <BoundPropertyInt Name="rotateStepNinety" Value="0" />
      </BoundProperties>
    </ImageClip>
    <ImageClip extentID="1369" gapBefore="0" mediaItemID="1365" duration="0.050000000000000003">
      <Effects />
      <Transitions />
      <BoundProperties>
        <BoundPropertyInt Name="rotateStepNinety" Value="0" />
      </BoundProperties>
    </ImageClip>
    <ImageClip extentID="1370" gapBefore="0" mediaItemID="1366" duration="0.050000000000000003">
      <Effects />
      <Transitions />
      <BoundProperties>
        <BoundPropertyInt Name="rotateStepNinety" Value="0" />
      </BoundProperties>
    </ImageClip>
    <ImageClip extentID="1371" gapBefore="0" mediaItemID="1367" duration="0.050000000000000003">
      <Effects />
      <Transitions />
      <BoundProperties>
        <BoundPropertyInt Name="rotateStepNinety" Value="0" />
      </BoundProperties>
    </ImageClip>
    <ImageClip extentID="1372" gapBefore="0" mediaItemID="1368" duration="0.050000000000000003">
      <Effects />
      <Transitions />
      <BoundProperties>
        <BoundPropertyInt Name="rotateStepNinety" Value="0" />
      </BoundProperties>
    </ImageClip>
    <ImageClip extentID="1373" gapBefore="0" mediaItemID="1369" duration="0.050000000000000003">
      <Effects />
      <Transitions />
      <BoundProperties>
        <BoundPropertyInt Name="rotateStepNinety" Value="0" />
      </BoundProperties>
    </ImageClip>
    <ImageClip extentID="1374" gapBefore="0" mediaItemID="1370" duration="0.050000000000000003">
      <Effects />
      <Transitions />
      <BoundProperties>
        <BoundPropertyInt Name="rotateStepNinety" Value="0" />
      </BoundProperties>
    </ImageClip>
    <ImageClip extentID="1375" gapBefore="0" mediaItemID="1371" duration="0.050000000000000003">
      <Effects />
      <Transitions />
      <BoundProperties>
        <BoundPropertyInt Name="rotateStepNinety" Value="0" />
      </BoundProperties>
    </ImageClip>
    <ImageClip extentID="1376" gapBefore="0" mediaItemID="1372" duration="0.050000000000000003">
      <Effects />
      <Transitions />
      <BoundProperties>
        <BoundPropertyInt Name="rotateStepNinety" Value="0" />
      </BoundProperties>
    </ImageClip>
    <ImageClip extentID="1377" gapBefore="0" mediaItemID="1373" duration="0.050000000000000003">
      <Effects />
      <Transitions />
      <BoundProperties>
        <BoundPropertyInt Name="rotateStepNinety" Value="0" />
      </BoundProperties>
    </ImageClip>
    <ImageClip extentID="1378" gapBefore="0" mediaItemID="1374" duration="0.050000000000000003">
      <Effects />
      <Transitions />
      <BoundProperties>
        <BoundPropertyInt Name="rotateStepNinety" Value="0" />
      </BoundProperties>
    </ImageClip>
    <ImageClip extentID="1379" gapBefore="0" mediaItemID="1375" duration="0.050000000000000003">
      <Effects />
      <Transitions />
      <BoundProperties>
        <BoundPropertyInt Name="rotateStepNinety" Value="0" />
      </BoundProperties>
    </ImageClip>
    <ImageClip extentID="1380" gapBefore="0" mediaItemID="1376" duration="0.050000000000000003">
      <Effects />
      <Transitions />
      <BoundProperties>
        <BoundPropertyInt Name="rotateStepNinety" Value="0" />
      </BoundProperties>
    </ImageClip>
    <ImageClip extentID="1381" gapBefore="0" mediaItemID="1377" duration="0.050000000000000003">
      <Effects />
      <Transitions />
      <BoundProperties>
        <BoundPropertyInt Name="rotateStepNinety" Value="0" />
      </BoundProperties>
    </ImageClip>
    <ImageClip extentID="1382" gapBefore="0" mediaItemID="1378" duration="0.050000000000000003">
      <Effects />
      <Transitions />
      <BoundProperties>
        <BoundPropertyInt Name="rotateStepNinety" Value="0" />
      </BoundProperties>
    </ImageClip>
    <ImageClip extentID="1383" gapBefore="0" mediaItemID="1379" duration="0.050000000000000003">
      <Effects />
      <Transitions />
      <BoundProperties>
        <BoundPropertyInt Name="rotateStepNinety" Value="0" />
      </BoundProperties>
    </ImageClip>
    <ImageClip extentID="1384" gapBefore="0" mediaItemID="1380" duration="0.050000000000000003">
      <Effects />
      <Transitions />
      <BoundProperties>
        <BoundPropertyInt Name="rotateStepNinety" Value="0" />
      </BoundProperties>
    </ImageClip>
    <ImageClip extentID="1385" gapBefore="0" mediaItemID="1381" duration="0.050000000000000003">
      <Effects />
      <Transitions />
      <BoundProperties>
        <BoundPropertyInt Name="rotateStepNinety" Value="0" />
      </BoundProperties>
    </ImageClip>
    <ImageClip extentID="1386" gapBefore="0" mediaItemID="1382" duration="0.050000000000000003">
      <Effects />
      <Transitions />
      <BoundProperties>
        <BoundPropertyInt Name="rotateStepNinety" Value="0" />
      </BoundProperties>
    </ImageClip>
    <ImageClip extentID="1387" gapBefore="0" mediaItemID="1383" duration="0.050000000000000003">
      <Effects />
      <Transitions />
      <BoundProperties>
        <BoundPropertyInt Name="rotateStepNinety" Value="0" />
      </BoundProperties>
    </ImageClip>
    <ImageClip extentID="1388" gapBefore="0" mediaItemID="1384" duration="0.050000000000000003">
      <Effects />
      <Transitions />
      <BoundProperties>
        <BoundPropertyInt Name="rotateStepNinety" Value="0" />
      </BoundProperties>
    </ImageClip>
    <ImageClip extentID="1389" gapBefore="0" mediaItemID="1385" duration="0.050000000000000003">
      <Effects />
      <Transitions />
      <BoundProperties>
        <BoundPropertyInt Name="rotateStepNinety" Value="0" />
      </BoundProperties>
    </ImageClip>
    <ImageClip extentID="1390" gapBefore="0" mediaItemID="1386" duration="0.050000000000000003">
      <Effects />
      <Transitions />
      <BoundProperties>
        <BoundPropertyInt Name="rotateStepNinety" Value="0" />
      </BoundProperties>
    </ImageClip>
    <ImageClip extentID="1391" gapBefore="0" mediaItemID="1387" duration="0.050000000000000003">
      <Effects />
      <Transitions />
      <BoundProperties>
        <BoundPropertyInt Name="rotateStepNinety" Value="0" />
      </BoundProperties>
    </ImageClip>
    <ImageClip extentID="1392" gapBefore="0" mediaItemID="1388" duration="0.050000000000000003">
      <Effects />
      <Transitions />
      <BoundProperties>
        <BoundPropertyInt Name="rotateStepNinety" Value="0" />
      </BoundProperties>
    </ImageClip>
    <ImageClip extentID="1393" gapBefore="0" mediaItemID="1389" duration="0.050000000000000003">
      <Effects />
      <Transitions />
      <BoundProperties>
        <BoundPropertyInt Name="rotateStepNinety" Value="0" />
      </BoundProperties>
    </ImageClip>
    <ImageClip extentID="1394" gapBefore="0" mediaItemID="1390" duration="0.050000000000000003">
      <Effects />
      <Transitions />
      <BoundProperties>
        <BoundPropertyInt Name="rotateStepNinety" Value="0" />
      </BoundProperties>
    </ImageClip>
    <ImageClip extentID="1395" gapBefore="0" mediaItemID="1391" duration="0.050000000000000003">
      <Effects />
      <Transitions />
      <BoundProperties>
        <BoundPropertyInt Name="rotateStepNinety" Value="0" />
      </BoundProperties>
    </ImageClip>
    <ImageClip extentID="1396" gapBefore="0" mediaItemID="1392" duration="0.050000000000000003">
      <Effects />
      <Transitions />
      <BoundProperties>
        <BoundPropertyInt Name="rotateStepNinety" Value="0" />
      </BoundProperties>
    </ImageClip>
    <ImageClip extentID="1397" gapBefore="0" mediaItemID="1393" duration="0.050000000000000003">
      <Effects />
      <Transitions />
      <BoundProperties>
        <BoundPropertyInt Name="rotateStepNinety" Value="0" />
      </BoundProperties>
    </ImageClip>
    <ImageClip extentID="1398" gapBefore="0" mediaItemID="1394" duration="0.050000000000000003">
      <Effects />
      <Transitions />
      <BoundProperties>
        <BoundPropertyInt Name="rotateStepNinety" Value="0" />
      </BoundProperties>
    </ImageClip>
    <ImageClip extentID="1399" gapBefore="0" mediaItemID="1395" duration="0.050000000000000003">
      <Effects />
      <Transitions />
      <BoundProperties>
        <BoundPropertyInt Name="rotateStepNinety" Value="0" />
      </BoundProperties>
    </ImageClip>
    <ImageClip extentID="1400" gapBefore="0" mediaItemID="1396" duration="0.050000000000000003">
      <Effects />
      <Transitions />
      <BoundProperties>
        <BoundPropertyInt Name="rotateStepNinety" Value="0" />
      </BoundProperties>
    </ImageClip>
    <ImageClip extentID="1401" gapBefore="0" mediaItemID="1397" duration="0.050000000000000003">
      <Effects />
      <Transitions />
      <BoundProperties>
        <BoundPropertyInt Name="rotateStepNinety" Value="0" />
      </BoundProperties>
    </ImageClip>
    <ImageClip extentID="1402" gapBefore="0" mediaItemID="1398" duration="0.050000000000000003">
      <Effects />
      <Transitions />
      <BoundProperties>
        <BoundPropertyInt Name="rotateStepNinety" Value="0" />
      </BoundProperties>
    </ImageClip>
    <ImageClip extentID="1403" gapBefore="0" mediaItemID="1399" duration="0.050000000000000003">
      <Effects />
      <Transitions />
      <BoundProperties>
        <BoundPropertyInt Name="rotateStepNinety" Value="0" />
      </BoundProperties>
    </ImageClip>
    <ImageClip extentID="1404" gapBefore="0" mediaItemID="1400" duration="0.050000000000000003">
      <Effects />
      <Transitions />
      <BoundProperties>
        <BoundPropertyInt Name="rotateStepNinety" Value="0" />
      </BoundProperties>
    </ImageClip>
    <ImageClip extentID="1405" gapBefore="0" mediaItemID="1401" duration="0.050000000000000003">
      <Effects />
      <Transitions />
      <BoundProperties>
        <BoundPropertyInt Name="rotateStepNinety" Value="0" />
      </BoundProperties>
    </ImageClip>
    <ImageClip extentID="1406" gapBefore="0" mediaItemID="1402" duration="0.050000000000000003">
      <Effects />
      <Transitions />
      <BoundProperties>
        <BoundPropertyInt Name="rotateStepNinety" Value="0" />
      </BoundProperties>
    </ImageClip>
    <ImageClip extentID="1407" gapBefore="0" mediaItemID="1403" duration="0.050000000000000003">
      <Effects />
      <Transitions />
      <BoundProperties>
        <BoundPropertyInt Name="rotateStepNinety" Value="0" />
      </BoundProperties>
    </ImageClip>
    <ImageClip extentID="1408" gapBefore="0" mediaItemID="1404" duration="0.050000000000000003">
      <Effects />
      <Transitions />
      <BoundProperties>
        <BoundPropertyInt Name="rotateStepNinety" Value="0" />
      </BoundProperties>
    </ImageClip>
    <ImageClip extentID="1409" gapBefore="0" mediaItemID="1405" duration="0.050000000000000003">
      <Effects />
      <Transitions />
      <BoundProperties>
        <BoundPropertyInt Name="rotateStepNinety" Value="0" />
      </BoundProperties>
    </ImageClip>
    <ImageClip extentID="1410" gapBefore="0" mediaItemID="1406" duration="0.050000000000000003">
      <Effects />
      <Transitions />
      <BoundProperties>
        <BoundPropertyInt Name="rotateStepNinety" Value="0" />
      </BoundProperties>
    </ImageClip>
    <ImageClip extentID="1411" gapBefore="0" mediaItemID="1407" duration="0.050000000000000003">
      <Effects />
      <Transitions />
      <BoundProperties>
        <BoundPropertyInt Name="rotateStepNinety" Value="0" />
      </BoundProperties>
    </ImageClip>
    <ImageClip extentID="1412" gapBefore="0" mediaItemID="1408" duration="0.050000000000000003">
      <Effects />
      <Transitions />
      <BoundProperties>
        <BoundPropertyInt Name="rotateStepNinety" Value="0" />
      </BoundProperties>
    </ImageClip>
    <ImageClip extentID="1413" gapBefore="0" mediaItemID="1409" duration="0.050000000000000003">
      <Effects />
      <Transitions />
      <BoundProperties>
        <BoundPropertyInt Name="rotateStepNinety" Value="0" />
      </BoundProperties>
    </ImageClip>
    <ImageClip extentID="1414" gapBefore="0" mediaItemID="1410" duration="0.050000000000000003">
      <Effects />
      <Transitions />
      <BoundProperties>
        <BoundPropertyInt Name="rotateStepNinety" Value="0" />
      </BoundProperties>
    </ImageClip>
    <ImageClip extentID="1415" gapBefore="0" mediaItemID="1411" duration="0.050000000000000003">
      <Effects />
      <Transitions />
      <BoundProperties>
        <BoundPropertyInt Name="rotateStepNinety" Value="0" />
      </BoundProperties>
    </ImageClip>
    <ImageClip extentID="1416" gapBefore="0" mediaItemID="1412" duration="0.050000000000000003">
      <Effects />
      <Transitions />
      <BoundProperties>
        <BoundPropertyInt Name="rotateStepNinety" Value="0" />
      </BoundProperties>
    </ImageClip>
    <ImageClip extentID="1417" gapBefore="0" mediaItemID="1413" duration="0.050000000000000003">
      <Effects />
      <Transitions />
      <BoundProperties>
        <BoundPropertyInt Name="rotateStepNinety" Value="0" />
      </BoundProperties>
    </ImageClip>
    <ImageClip extentID="1418" gapBefore="0" mediaItemID="1414" duration="0.050000000000000003">
      <Effects />
      <Transitions />
      <BoundProperties>
        <BoundPropertyInt Name="rotateStepNinety" Value="0" />
      </BoundProperties>
    </ImageClip>
    <ImageClip extentID="1419" gapBefore="0" mediaItemID="1415" duration="0.050000000000000003">
      <Effects />
      <Transitions />
      <BoundProperties>
        <BoundPropertyInt Name="rotateStepNinety" Value="0" />
      </BoundProperties>
    </ImageClip>
    <ImageClip extentID="1420" gapBefore="0" mediaItemID="1416" duration="0.050000000000000003">
      <Effects />
      <Transitions />
      <BoundProperties>
        <BoundPropertyInt Name="rotateStepNinety" Value="0" />
      </BoundProperties>
    </ImageClip>
    <ImageClip extentID="1421" gapBefore="0" mediaItemID="1417" duration="0.050000000000000003">
      <Effects />
      <Transitions />
      <BoundProperties>
        <BoundPropertyInt Name="rotateStepNinety" Value="0" />
      </BoundProperties>
    </ImageClip>
    <ImageClip extentID="1422" gapBefore="0" mediaItemID="1418" duration="0.050000000000000003">
      <Effects />
      <Transitions />
      <BoundProperties>
        <BoundPropertyInt Name="rotateStepNinety" Value="0" />
      </BoundProperties>
    </ImageClip>
    <ImageClip extentID="1423" gapBefore="0" mediaItemID="1419" duration="0.050000000000000003">
      <Effects />
      <Transitions />
      <BoundProperties>
        <BoundPropertyInt Name="rotateStepNinety" Value="0" />
      </BoundProperties>
    </ImageClip>
    <ImageClip extentID="1424" gapBefore="0" mediaItemID="1420" duration="0.050000000000000003">
      <Effects />
      <Transitions />
      <BoundProperties>
        <BoundPropertyInt Name="rotateStepNinety" Value="0" />
      </BoundProperties>
    </ImageClip>
    <ImageClip extentID="1425" gapBefore="0" mediaItemID="1421" duration="0.050000000000000003">
      <Effects />
      <Transitions />
      <BoundProperties>
        <BoundPropertyInt Name="rotateStepNinety" Value="0" />
      </BoundProperties>
    </ImageClip>
    <ImageClip extentID="1426" gapBefore="0" mediaItemID="1422" duration="0.050000000000000003">
      <Effects />
      <Transitions />
      <BoundProperties>
        <BoundPropertyInt Name="rotateStepNinety" Value="0" />
      </BoundProperties>
    </ImageClip>
    <ImageClip extentID="1427" gapBefore="0" mediaItemID="1423" duration="0.050000000000000003">
      <Effects />
      <Transitions />
      <BoundProperties>
        <BoundPropertyInt Name="rotateStepNinety" Value="0" />
      </BoundProperties>
    </ImageClip>
    <ImageClip extentID="1428" gapBefore="0" mediaItemID="1424" duration="0.050000000000000003">
      <Effects />
      <Transitions />
      <BoundProperties>
        <BoundPropertyInt Name="rotateStepNinety" Value="0" />
      </BoundProperties>
    </ImageClip>
    <ImageClip extentID="1429" gapBefore="0" mediaItemID="1425" duration="0.050000000000000003">
      <Effects />
      <Transitions />
      <BoundProperties>
        <BoundPropertyInt Name="rotateStepNinety" Value="0" />
      </BoundProperties>
    </ImageClip>
    <ImageClip extentID="1430" gapBefore="0" mediaItemID="1426" duration="0.050000000000000003">
      <Effects />
      <Transitions />
      <BoundProperties>
        <BoundPropertyInt Name="rotateStepNinety" Value="0" />
      </BoundProperties>
    </ImageClip>
    <ImageClip extentID="1431" gapBefore="0" mediaItemID="1427" duration="0.050000000000000003">
      <Effects />
      <Transitions />
      <BoundProperties>
        <BoundPropertyInt Name="rotateStepNinety" Value="0" />
      </BoundProperties>
    </ImageClip>
    <ImageClip extentID="1432" gapBefore="0" mediaItemID="1428" duration="0.050000000000000003">
      <Effects />
      <Transitions />
      <BoundProperties>
        <BoundPropertyInt Name="rotateStepNinety" Value="0" />
      </BoundProperties>
    </ImageClip>
    <ImageClip extentID="1433" gapBefore="0" mediaItemID="1429" duration="0.050000000000000003">
      <Effects />
      <Transitions />
      <BoundProperties>
        <BoundPropertyInt Name="rotateStepNinety" Value="0" />
      </BoundProperties>
    </ImageClip>
    <ImageClip extentID="1434" gapBefore="0" mediaItemID="1430" duration="0.050000000000000003">
      <Effects />
      <Transitions />
      <BoundProperties>
        <BoundPropertyInt Name="rotateStepNinety" Value="0" />
      </BoundProperties>
    </ImageClip>
    <ImageClip extentID="1435" gapBefore="0" mediaItemID="1431" duration="0.050000000000000003">
      <Effects />
      <Transitions />
      <BoundProperties>
        <BoundPropertyInt Name="rotateStepNinety" Value="0" />
      </BoundProperties>
    </ImageClip>
    <ImageClip extentID="1436" gapBefore="0" mediaItemID="1432" duration="0.050000000000000003">
      <Effects />
      <Transitions />
      <BoundProperties>
        <BoundPropertyInt Name="rotateStepNinety" Value="0" />
      </BoundProperties>
    </ImageClip>
    <ImageClip extentID="1437" gapBefore="0" mediaItemID="1433" duration="0.050000000000000003">
      <Effects />
      <Transitions />
      <BoundProperties>
        <BoundPropertyInt Name="rotateStepNinety" Value="0" />
      </BoundProperties>
    </ImageClip>
    <ImageClip extentID="1438" gapBefore="0" mediaItemID="1434" duration="0.050000000000000003">
      <Effects />
      <Transitions />
      <BoundProperties>
        <BoundPropertyInt Name="rotateStepNinety" Value="0" />
      </BoundProperties>
    </ImageClip>
    <ImageClip extentID="1439" gapBefore="0" mediaItemID="1435" duration="0.050000000000000003">
      <Effects />
      <Transitions />
      <BoundProperties>
        <BoundPropertyInt Name="rotateStepNinety" Value="0" />
      </BoundProperties>
    </ImageClip>
    <ImageClip extentID="1440" gapBefore="0" mediaItemID="1436" duration="0.050000000000000003">
      <Effects />
      <Transitions />
      <BoundProperties>
        <BoundPropertyInt Name="rotateStepNinety" Value="0" />
      </BoundProperties>
    </ImageClip>
    <ImageClip extentID="1441" gapBefore="0" mediaItemID="1437" duration="0.050000000000000003">
      <Effects />
      <Transitions />
      <BoundProperties>
        <BoundPropertyInt Name="rotateStepNinety" Value="0" />
      </BoundProperties>
    </ImageClip>
    <ImageClip extentID="1442" gapBefore="0" mediaItemID="1438" duration="0.050000000000000003">
      <Effects />
      <Transitions />
      <BoundProperties>
        <BoundPropertyInt Name="rotateStepNinety" Value="0" />
      </BoundProperties>
    </ImageClip>
    <ImageClip extentID="1443" gapBefore="0" mediaItemID="1439" duration="0.050000000000000003">
      <Effects />
      <Transitions />
      <BoundProperties>
        <BoundPropertyInt Name="rotateStepNinety" Value="0" />
      </BoundProperties>
    </ImageClip>
    <ImageClip extentID="1444" gapBefore="0" mediaItemID="1440" duration="0.050000000000000003">
      <Effects />
      <Transitions />
      <BoundProperties>
        <BoundPropertyInt Name="rotateStepNinety" Value="0" />
      </BoundProperties>
    </ImageClip>
    <ImageClip extentID="1445" gapBefore="0" mediaItemID="1441" duration="0.050000000000000003">
      <Effects />
      <Transitions />
      <BoundProperties>
        <BoundPropertyInt Name="rotateStepNinety" Value="0" />
      </BoundProperties>
    </ImageClip>
    <ImageClip extentID="1446" gapBefore="0" mediaItemID="1442" duration="0.050000000000000003">
      <Effects />
      <Transitions />
      <BoundProperties>
        <BoundPropertyInt Name="rotateStepNinety" Value="0" />
      </BoundProperties>
    </ImageClip>
    <ImageClip extentID="1447" gapBefore="0" mediaItemID="1443" duration="0.050000000000000003">
      <Effects />
      <Transitions />
      <BoundProperties>
        <BoundPropertyInt Name="rotateStepNinety" Value="0" />
      </BoundProperties>
    </ImageClip>
    <ImageClip extentID="1448" gapBefore="0" mediaItemID="1444" duration="0.050000000000000003">
      <Effects />
      <Transitions />
      <BoundProperties>
        <BoundPropertyInt Name="rotateStepNinety" Value="0" />
      </BoundProperties>
    </ImageClip>
    <ExtentSelector extentID="1" gapBefore="0" primaryTrack="true">
      <Effects />
      <Transitions />
      <BoundProperties />
      <ExtentRefs>
        <ExtentRef id="5" />
        <ExtentRef id="6" />
        <ExtentRef id="7" />
        <ExtentRef id="8" />
        <ExtentRef id="9" />
        <ExtentRef id="10" />
        <ExtentRef id="11" />
        <ExtentRef id="12" />
        <ExtentRef id="13" />
        <ExtentRef id="14" />
        <ExtentRef id="15" />
        <ExtentRef id="16" />
        <ExtentRef id="17" />
        <ExtentRef id="18" />
        <ExtentRef id="19" />
        <ExtentRef id="20" />
        <ExtentRef id="21" />
        <ExtentRef id="22" />
        <ExtentRef id="23" />
        <ExtentRef id="24" />
        <ExtentRef id="25" />
        <ExtentRef id="26" />
        <ExtentRef id="27" />
        <ExtentRef id="28" />
        <ExtentRef id="29" />
        <ExtentRef id="30" />
        <ExtentRef id="31" />
        <ExtentRef id="32" />
        <ExtentRef id="33" />
        <ExtentRef id="34" />
        <ExtentRef id="35" />
        <ExtentRef id="36" />
        <ExtentRef id="37" />
        <ExtentRef id="38" />
        <ExtentRef id="39" />
        <ExtentRef id="40" />
        <ExtentRef id="41" />
        <ExtentRef id="42" />
        <ExtentRef id="43" />
        <ExtentRef id="44" />
        <ExtentRef id="45" />
        <ExtentRef id="46" />
        <ExtentRef id="47" />
        <ExtentRef id="48" />
        <ExtentRef id="49" />
        <ExtentRef id="50" />
        <ExtentRef id="51" />
        <ExtentRef id="52" />
        <ExtentRef id="53" />
        <ExtentRef id="54" />
        <ExtentRef id="55" />
        <ExtentRef id="56" />
        <ExtentRef id="57" />
        <ExtentRef id="58" />
        <ExtentRef id="59" />
        <ExtentRef id="60" />
        <ExtentRef id="61" />
        <ExtentRef id="62" />
        <ExtentRef id="63" />
        <ExtentRef id="64" />
        <ExtentRef id="65" />
        <ExtentRef id="66" />
        <ExtentRef id="67" />
        <ExtentRef id="68" />
        <ExtentRef id="69" />
        <ExtentRef id="70" />
        <ExtentRef id="71" />
        <ExtentRef id="72" />
        <ExtentRef id="73" />
        <ExtentRef id="74" />
        <ExtentRef id="75" />
        <ExtentRef id="76" />
        <ExtentRef id="77" />
        <ExtentRef id="78" />
        <ExtentRef id="79" />
        <ExtentRef id="80" />
        <ExtentRef id="81" />
        <ExtentRef id="82" />
        <ExtentRef id="83" />
        <ExtentRef id="84" />
        <ExtentRef id="85" />
        <ExtentRef id="86" />
        <ExtentRef id="87" />
        <ExtentRef id="88" />
        <ExtentRef id="89" />
        <ExtentRef id="90" />
        <ExtentRef id="91" />
        <ExtentRef id="92" />
        <ExtentRef id="93" />
        <ExtentRef id="94" />
        <ExtentRef id="95" />
        <ExtentRef id="96" />
        <ExtentRef id="97" />
        <ExtentRef id="98" />
        <ExtentRef id="99" />
        <ExtentRef id="100" />
        <ExtentRef id="101" />
        <ExtentRef id="102" />
        <ExtentRef id="103" />
        <ExtentRef id="104" />
        <ExtentRef id="105" />
        <ExtentRef id="106" />
        <ExtentRef id="107" />
        <ExtentRef id="108" />
        <ExtentRef id="109" />
        <ExtentRef id="110" />
        <ExtentRef id="111" />
        <ExtentRef id="112" />
        <ExtentRef id="113" />
        <ExtentRef id="114" />
        <ExtentRef id="115" />
        <ExtentRef id="116" />
        <ExtentRef id="117" />
        <ExtentRef id="118" />
        <ExtentRef id="119" />
        <ExtentRef id="120" />
        <ExtentRef id="121" />
        <ExtentRef id="122" />
        <ExtentRef id="123" />
        <ExtentRef id="124" />
        <ExtentRef id="125" />
        <ExtentRef id="126" />
        <ExtentRef id="127" />
        <ExtentRef id="128" />
        <ExtentRef id="129" />
        <ExtentRef id="130" />
        <ExtentRef id="131" />
        <ExtentRef id="132" />
        <ExtentRef id="133" />
        <ExtentRef id="134" />
        <ExtentRef id="135" />
        <ExtentRef id="136" />
        <ExtentRef id="137" />
        <ExtentRef id="138" />
        <ExtentRef id="139" />
        <ExtentRef id="140" />
        <ExtentRef id="141" />
        <ExtentRef id="142" />
        <ExtentRef id="143" />
        <ExtentRef id="144" />
        <ExtentRef id="145" />
        <ExtentRef id="146" />
        <ExtentRef id="147" />
        <ExtentRef id="148" />
        <ExtentRef id="149" />
        <ExtentRef id="150" />
        <ExtentRef id="151" />
        <ExtentRef id="152" />
        <ExtentRef id="153" />
        <ExtentRef id="154" />
        <ExtentRef id="155" />
        <ExtentRef id="156" />
        <ExtentRef id="157" />
        <ExtentRef id="158" />
        <ExtentRef id="159" />
        <ExtentRef id="160" />
        <ExtentRef id="161" />
        <ExtentRef id="162" />
        <ExtentRef id="163" />
        <ExtentRef id="164" />
        <ExtentRef id="165" />
        <ExtentRef id="166" />
        <ExtentRef id="167" />
        <ExtentRef id="168" />
        <ExtentRef id="169" />
        <ExtentRef id="170" />
        <ExtentRef id="171" />
        <ExtentRef id="172" />
        <ExtentRef id="173" />
        <ExtentRef id="174" />
        <ExtentRef id="175" />
        <ExtentRef id="176" />
        <ExtentRef id="177" />
        <ExtentRef id="178" />
        <ExtentRef id="179" />
        <ExtentRef id="180" />
        <ExtentRef id="181" />
        <ExtentRef id="182" />
        <ExtentRef id="183" />
        <ExtentRef id="184" />
        <ExtentRef id="185" />
        <ExtentRef id="186" />
        <ExtentRef id="187" />
        <ExtentRef id="188" />
        <ExtentRef id="189" />
        <ExtentRef id="190" />
        <ExtentRef id="191" />
        <ExtentRef id="192" />
        <ExtentRef id="193" />
        <ExtentRef id="194" />
        <ExtentRef id="195" />
        <ExtentRef id="196" />
        <ExtentRef id="197" />
        <ExtentRef id="198" />
        <ExtentRef id="199" />
        <ExtentRef id="200" />
        <ExtentRef id="201" />
        <ExtentRef id="202" />
        <ExtentRef id="203" />
        <ExtentRef id="204" />
        <ExtentRef id="205" />
        <ExtentRef id="206" />
        <ExtentRef id="207" />
        <ExtentRef id="208" />
        <ExtentRef id="209" />
        <ExtentRef id="210" />
        <ExtentRef id="211" />
        <ExtentRef id="212" />
        <ExtentRef id="213" />
        <ExtentRef id="214" />
        <ExtentRef id="215" />
        <ExtentRef id="216" />
        <ExtentRef id="217" />
        <ExtentRef id="218" />
        <ExtentRef id="219" />
        <ExtentRef id="220" />
        <ExtentRef id="221" />
        <ExtentRef id="222" />
        <ExtentRef id="223" />
        <ExtentRef id="224" />
        <ExtentRef id="225" />
        <ExtentRef id="226" />
        <ExtentRef id="227" />
        <ExtentRef id="228" />
        <ExtentRef id="229" />
        <ExtentRef id="230" />
        <ExtentRef id="231" />
        <ExtentRef id="232" />
        <ExtentRef id="233" />
        <ExtentRef id="234" />
        <ExtentRef id="235" />
        <ExtentRef id="236" />
        <ExtentRef id="237" />
        <ExtentRef id="238" />
        <ExtentRef id="239" />
        <ExtentRef id="240" />
        <ExtentRef id="241" />
        <ExtentRef id="242" />
        <ExtentRef id="243" />
        <ExtentRef id="244" />
        <ExtentRef id="245" />
        <ExtentRef id="246" />
        <ExtentRef id="247" />
        <ExtentRef id="248" />
        <ExtentRef id="249" />
        <ExtentRef id="250" />
        <ExtentRef id="251" />
        <ExtentRef id="252" />
        <ExtentRef id="253" />
        <ExtentRef id="254" />
        <ExtentRef id="255" />
        <ExtentRef id="256" />
        <ExtentRef id="257" />
        <ExtentRef id="258" />
        <ExtentRef id="259" />
        <ExtentRef id="260" />
        <ExtentRef id="261" />
        <ExtentRef id="262" />
        <ExtentRef id="263" />
        <ExtentRef id="264" />
        <ExtentRef id="265" />
        <ExtentRef id="266" />
        <ExtentRef id="267" />
        <ExtentRef id="268" />
        <ExtentRef id="269" />
        <ExtentRef id="270" />
        <ExtentRef id="271" />
        <ExtentRef id="272" />
        <ExtentRef id="273" />
        <ExtentRef id="274" />
        <ExtentRef id="275" />
        <ExtentRef id="276" />
        <ExtentRef id="277" />
        <ExtentRef id="278" />
        <ExtentRef id="279" />
        <ExtentRef id="280" />
        <ExtentRef id="281" />
        <ExtentRef id="282" />
        <ExtentRef id="283" />
        <ExtentRef id="284" />
        <ExtentRef id="285" />
        <ExtentRef id="286" />
        <ExtentRef id="287" />
        <ExtentRef id="288" />
        <ExtentRef id="289" />
        <ExtentRef id="290" />
        <ExtentRef id="291" />
        <ExtentRef id="292" />
        <ExtentRef id="293" />
        <ExtentRef id="294" />
        <ExtentRef id="295" />
        <ExtentRef id="296" />
        <ExtentRef id="297" />
        <ExtentRef id="298" />
        <ExtentRef id="299" />
        <ExtentRef id="300" />
        <ExtentRef id="301" />
        <ExtentRef id="302" />
        <ExtentRef id="303" />
        <ExtentRef id="304" />
        <ExtentRef id="305" />
        <ExtentRef id="306" />
        <ExtentRef id="307" />
        <ExtentRef id="308" />
        <ExtentRef id="309" />
        <ExtentRef id="310" />
        <ExtentRef id="311" />
        <ExtentRef id="312" />
        <ExtentRef id="313" />
        <ExtentRef id="314" />
        <ExtentRef id="315" />
        <ExtentRef id="316" />
        <ExtentRef id="317" />
        <ExtentRef id="318" />
        <ExtentRef id="319" />
        <ExtentRef id="320" />
        <ExtentRef id="321" />
        <ExtentRef id="322" />
        <ExtentRef id="323" />
        <ExtentRef id="324" />
        <ExtentRef id="325" />
        <ExtentRef id="326" />
        <ExtentRef id="327" />
        <ExtentRef id="328" />
        <ExtentRef id="329" />
        <ExtentRef id="330" />
        <ExtentRef id="331" />
        <ExtentRef id="332" />
        <ExtentRef id="333" />
        <ExtentRef id="334" />
        <ExtentRef id="335" />
        <ExtentRef id="336" />
        <ExtentRef id="337" />
        <ExtentRef id="338" />
        <ExtentRef id="339" />
        <ExtentRef id="340" />
        <ExtentRef id="341" />
        <ExtentRef id="342" />
        <ExtentRef id="343" />
        <ExtentRef id="344" />
        <ExtentRef id="345" />
        <ExtentRef id="346" />
        <ExtentRef id="347" />
        <ExtentRef id="348" />
        <ExtentRef id="349" />
        <ExtentRef id="350" />
        <ExtentRef id="351" />
        <ExtentRef id="352" />
        <ExtentRef id="353" />
        <ExtentRef id="354" />
        <ExtentRef id="355" />
        <ExtentRef id="356" />
        <ExtentRef id="357" />
        <ExtentRef id="358" />
        <ExtentRef id="359" />
        <ExtentRef id="360" />
        <ExtentRef id="361" />
        <ExtentRef id="362" />
        <ExtentRef id="363" />
        <ExtentRef id="364" />
        <ExtentRef id="365" />
        <ExtentRef id="366" />
        <ExtentRef id="367" />
        <ExtentRef id="368" />
        <ExtentRef id="369" />
        <ExtentRef id="370" />
        <ExtentRef id="371" />
        <ExtentRef id="372" />
        <ExtentRef id="373" />
        <ExtentRef id="374" />
        <ExtentRef id="375" />
        <ExtentRef id="376" />
        <ExtentRef id="377" />
        <ExtentRef id="378" />
        <ExtentRef id="379" />
        <ExtentRef id="380" />
        <ExtentRef id="381" />
        <ExtentRef id="382" />
        <ExtentRef id="383" />
        <ExtentRef id="384" />
        <ExtentRef id="385" />
        <ExtentRef id="386" />
        <ExtentRef id="387" />
        <ExtentRef id="388" />
        <ExtentRef id="389" />
        <ExtentRef id="390" />
        <ExtentRef id="391" />
        <ExtentRef id="392" />
        <ExtentRef id="393" />
        <ExtentRef id="394" />
        <ExtentRef id="395" />
        <ExtentRef id="396" />
        <ExtentRef id="397" />
        <ExtentRef id="398" />
        <ExtentRef id="399" />
        <ExtentRef id="400" />
        <ExtentRef id="401" />
        <ExtentRef id="402" />
        <ExtentRef id="403" />
        <ExtentRef id="404" />
        <ExtentRef id="405" />
        <ExtentRef id="406" />
        <ExtentRef id="407" />
        <ExtentRef id="408" />
        <ExtentRef id="409" />
        <ExtentRef id="410" />
        <ExtentRef id="411" />
        <ExtentRef id="412" />
        <ExtentRef id="413" />
        <ExtentRef id="414" />
        <ExtentRef id="415" />
        <ExtentRef id="416" />
        <ExtentRef id="417" />
        <ExtentRef id="418" />
        <ExtentRef id="419" />
        <ExtentRef id="420" />
        <ExtentRef id="421" />
        <ExtentRef id="422" />
        <ExtentRef id="423" />
        <ExtentRef id="424" />
        <ExtentRef id="425" />
        <ExtentRef id="426" />
        <ExtentRef id="427" />
        <ExtentRef id="428" />
        <ExtentRef id="429" />
        <ExtentRef id="430" />
        <ExtentRef id="431" />
        <ExtentRef id="432" />
        <ExtentRef id="433" />
        <ExtentRef id="434" />
        <ExtentRef id="435" />
        <ExtentRef id="436" />
        <ExtentRef id="437" />
        <ExtentRef id="438" />
        <ExtentRef id="439" />
        <ExtentRef id="440" />
        <ExtentRef id="441" />
        <ExtentRef id="442" />
        <ExtentRef id="443" />
        <ExtentRef id="444" />
        <ExtentRef id="445" />
        <ExtentRef id="446" />
        <ExtentRef id="447" />
        <ExtentRef id="448" />
        <ExtentRef id="449" />
        <ExtentRef id="450" />
        <ExtentRef id="451" />
        <ExtentRef id="452" />
        <ExtentRef id="453" />
        <ExtentRef id="454" />
        <ExtentRef id="455" />
        <ExtentRef id="456" />
        <ExtentRef id="457" />
        <ExtentRef id="458" />
        <ExtentRef id="459" />
        <ExtentRef id="460" />
        <ExtentRef id="461" />
        <ExtentRef id="462" />
        <ExtentRef id="463" />
        <ExtentRef id="464" />
        <ExtentRef id="465" />
        <ExtentRef id="466" />
        <ExtentRef id="467" />
        <ExtentRef id="468" />
        <ExtentRef id="469" />
        <ExtentRef id="470" />
        <ExtentRef id="471" />
        <ExtentRef id="472" />
        <ExtentRef id="473" />
        <ExtentRef id="474" />
        <ExtentRef id="475" />
        <ExtentRef id="476" />
        <ExtentRef id="477" />
        <ExtentRef id="478" />
        <ExtentRef id="479" />
        <ExtentRef id="480" />
        <ExtentRef id="481" />
        <ExtentRef id="482" />
        <ExtentRef id="483" />
        <ExtentRef id="484" />
        <ExtentRef id="485" />
        <ExtentRef id="486" />
        <ExtentRef id="487" />
        <ExtentRef id="488" />
        <ExtentRef id="489" />
        <ExtentRef id="490" />
        <ExtentRef id="491" />
        <ExtentRef id="492" />
        <ExtentRef id="493" />
        <ExtentRef id="494" />
        <ExtentRef id="495" />
        <ExtentRef id="496" />
        <ExtentRef id="497" />
        <ExtentRef id="498" />
        <ExtentRef id="499" />
        <ExtentRef id="500" />
        <ExtentRef id="501" />
        <ExtentRef id="502" />
        <ExtentRef id="503" />
        <ExtentRef id="504" />
        <ExtentRef id="505" />
        <ExtentRef id="506" />
        <ExtentRef id="507" />
        <ExtentRef id="508" />
        <ExtentRef id="509" />
        <ExtentRef id="510" />
        <ExtentRef id="511" />
        <ExtentRef id="512" />
        <ExtentRef id="513" />
        <ExtentRef id="514" />
        <ExtentRef id="515" />
        <ExtentRef id="516" />
        <ExtentRef id="517" />
        <ExtentRef id="518" />
        <ExtentRef id="519" />
        <ExtentRef id="520" />
        <ExtentRef id="521" />
        <ExtentRef id="522" />
        <ExtentRef id="523" />
        <ExtentRef id="524" />
        <ExtentRef id="525" />
        <ExtentRef id="526" />
        <ExtentRef id="527" />
        <ExtentRef id="528" />
        <ExtentRef id="529" />
        <ExtentRef id="530" />
        <ExtentRef id="531" />
        <ExtentRef id="532" />
        <ExtentRef id="533" />
        <ExtentRef id="534" />
        <ExtentRef id="535" />
        <ExtentRef id="536" />
        <ExtentRef id="537" />
        <ExtentRef id="538" />
        <ExtentRef id="539" />
        <ExtentRef id="540" />
        <ExtentRef id="541" />
        <ExtentRef id="542" />
        <ExtentRef id="543" />
        <ExtentRef id="544" />
        <ExtentRef id="545" />
        <ExtentRef id="546" />
        <ExtentRef id="547" />
        <ExtentRef id="548" />
        <ExtentRef id="549" />
        <ExtentRef id="550" />
        <ExtentRef id="551" />
        <ExtentRef id="552" />
        <ExtentRef id="553" />
        <ExtentRef id="554" />
        <ExtentRef id="555" />
        <ExtentRef id="556" />
        <ExtentRef id="557" />
        <ExtentRef id="558" />
        <ExtentRef id="559" />
        <ExtentRef id="560" />
        <ExtentRef id="561" />
        <ExtentRef id="562" />
        <ExtentRef id="563" />
        <ExtentRef id="564" />
        <ExtentRef id="565" />
        <ExtentRef id="566" />
        <ExtentRef id="567" />
        <ExtentRef id="568" />
        <ExtentRef id="569" />
        <ExtentRef id="570" />
        <ExtentRef id="571" />
        <ExtentRef id="572" />
        <ExtentRef id="573" />
        <ExtentRef id="574" />
        <ExtentRef id="575" />
        <ExtentRef id="576" />
        <ExtentRef id="577" />
        <ExtentRef id="578" />
        <ExtentRef id="579" />
        <ExtentRef id="580" />
        <ExtentRef id="581" />
        <ExtentRef id="582" />
        <ExtentRef id="583" />
        <ExtentRef id="584" />
        <ExtentRef id="585" />
        <ExtentRef id="586" />
        <ExtentRef id="587" />
        <ExtentRef id="588" />
        <ExtentRef id="589" />
        <ExtentRef id="590" />
        <ExtentRef id="591" />
        <ExtentRef id="592" />
        <ExtentRef id="593" />
        <ExtentRef id="594" />
        <ExtentRef id="595" />
        <ExtentRef id="596" />
        <ExtentRef id="597" />
        <ExtentRef id="598" />
        <ExtentRef id="599" />
        <ExtentRef id="600" />
        <ExtentRef id="601" />
        <ExtentRef id="602" />
        <ExtentRef id="603" />
        <ExtentRef id="604" />
        <ExtentRef id="605" />
        <ExtentRef id="606" />
        <ExtentRef id="607" />
        <ExtentRef id="608" />
        <ExtentRef id="609" />
        <ExtentRef id="610" />
        <ExtentRef id="611" />
        <ExtentRef id="612" />
        <ExtentRef id="613" />
        <ExtentRef id="614" />
        <ExtentRef id="615" />
        <ExtentRef id="616" />
        <ExtentRef id="617" />
        <ExtentRef id="618" />
        <ExtentRef id="619" />
        <ExtentRef id="620" />
        <ExtentRef id="621" />
        <ExtentRef id="622" />
        <ExtentRef id="623" />
        <ExtentRef id="624" />
        <ExtentRef id="625" />
        <ExtentRef id="626" />
        <ExtentRef id="627" />
        <ExtentRef id="628" />
        <ExtentRef id="629" />
        <ExtentRef id="630" />
        <ExtentRef id="631" />
        <ExtentRef id="632" />
        <ExtentRef id="633" />
        <ExtentRef id="634" />
        <ExtentRef id="635" />
        <ExtentRef id="636" />
        <ExtentRef id="637" />
        <ExtentRef id="638" />
        <ExtentRef id="639" />
        <ExtentRef id="640" />
        <ExtentRef id="641" />
        <ExtentRef id="642" />
        <ExtentRef id="643" />
        <ExtentRef id="644" />
        <ExtentRef id="645" />
        <ExtentRef id="646" />
        <ExtentRef id="647" />
        <ExtentRef id="648" />
        <ExtentRef id="649" />
        <ExtentRef id="650" />
        <ExtentRef id="651" />
        <ExtentRef id="652" />
        <ExtentRef id="653" />
        <ExtentRef id="654" />
        <ExtentRef id="655" />
        <ExtentRef id="656" />
        <ExtentRef id="657" />
        <ExtentRef id="658" />
        <ExtentRef id="659" />
        <ExtentRef id="660" />
        <ExtentRef id="661" />
        <ExtentRef id="662" />
        <ExtentRef id="663" />
        <ExtentRef id="664" />
        <ExtentRef id="665" />
        <ExtentRef id="666" />
        <ExtentRef id="667" />
        <ExtentRef id="668" />
        <ExtentRef id="669" />
        <ExtentRef id="670" />
        <ExtentRef id="671" />
        <ExtentRef id="672" />
        <ExtentRef id="673" />
        <ExtentRef id="674" />
        <ExtentRef id="675" />
        <ExtentRef id="676" />
        <ExtentRef id="677" />
        <ExtentRef id="678" />
        <ExtentRef id="679" />
        <ExtentRef id="680" />
        <ExtentRef id="681" />
        <ExtentRef id="682" />
        <ExtentRef id="683" />
        <ExtentRef id="684" />
        <ExtentRef id="685" />
        <ExtentRef id="686" />
        <ExtentRef id="687" />
        <ExtentRef id="688" />
        <ExtentRef id="689" />
        <ExtentRef id="690" />
        <ExtentRef id="691" />
        <ExtentRef id="692" />
        <ExtentRef id="693" />
        <ExtentRef id="694" />
        <ExtentRef id="695" />
        <ExtentRef id="696" />
        <ExtentRef id="697" />
        <ExtentRef id="698" />
        <ExtentRef id="699" />
        <ExtentRef id="700" />
        <ExtentRef id="701" />
        <ExtentRef id="702" />
        <ExtentRef id="703" />
        <ExtentRef id="704" />
        <ExtentRef id="705" />
        <ExtentRef id="706" />
        <ExtentRef id="707" />
        <ExtentRef id="708" />
        <ExtentRef id="709" />
        <ExtentRef id="710" />
        <ExtentRef id="711" />
        <ExtentRef id="712" />
        <ExtentRef id="713" />
        <ExtentRef id="714" />
        <ExtentRef id="715" />
        <ExtentRef id="716" />
        <ExtentRef id="717" />
        <ExtentRef id="718" />
        <ExtentRef id="719" />
        <ExtentRef id="720" />
        <ExtentRef id="721" />
        <ExtentRef id="722" />
        <ExtentRef id="723" />
        <ExtentRef id="724" />
        <ExtentRef id="725" />
        <ExtentRef id="726" />
        <ExtentRef id="727" />
        <ExtentRef id="728" />
        <ExtentRef id="729" />
        <ExtentRef id="730" />
        <ExtentRef id="731" />
        <ExtentRef id="732" />
        <ExtentRef id="733" />
        <ExtentRef id="734" />
        <ExtentRef id="735" />
        <ExtentRef id="736" />
        <ExtentRef id="737" />
        <ExtentRef id="738" />
        <ExtentRef id="739" />
        <ExtentRef id="740" />
        <ExtentRef id="741" />
        <ExtentRef id="742" />
        <ExtentRef id="743" />
        <ExtentRef id="744" />
        <ExtentRef id="745" />
        <ExtentRef id="746" />
        <ExtentRef id="747" />
        <ExtentRef id="748" />
        <ExtentRef id="749" />
        <ExtentRef id="750" />
        <ExtentRef id="751" />
        <ExtentRef id="752" />
        <ExtentRef id="753" />
        <ExtentRef id="754" />
        <ExtentRef id="755" />
        <ExtentRef id="756" />
        <ExtentRef id="757" />
        <ExtentRef id="758" />
        <ExtentRef id="759" />
        <ExtentRef id="760" />
        <ExtentRef id="761" />
        <ExtentRef id="762" />
        <ExtentRef id="763" />
        <ExtentRef id="764" />
        <ExtentRef id="765" />
        <ExtentRef id="766" />
        <ExtentRef id="767" />
        <ExtentRef id="768" />
        <ExtentRef id="769" />
        <ExtentRef id="770" />
        <ExtentRef id="771" />
        <ExtentRef id="772" />
        <ExtentRef id="773" />
        <ExtentRef id="774" />
        <ExtentRef id="775" />
        <ExtentRef id="776" />
        <ExtentRef id="777" />
        <ExtentRef id="778" />
        <ExtentRef id="779" />
        <ExtentRef id="780" />
        <ExtentRef id="781" />
        <ExtentRef id="782" />
        <ExtentRef id="783" />
        <ExtentRef id="784" />
        <ExtentRef id="785" />
        <ExtentRef id="786" />
        <ExtentRef id="787" />
        <ExtentRef id="788" />
        <ExtentRef id="789" />
        <ExtentRef id="790" />
        <ExtentRef id="791" />
        <ExtentRef id="792" />
        <ExtentRef id="793" />
        <ExtentRef id="794" />
        <ExtentRef id="795" />
        <ExtentRef id="796" />
        <ExtentRef id="797" />
        <ExtentRef id="798" />
        <ExtentRef id="799" />
        <ExtentRef id="800" />
        <ExtentRef id="801" />
        <ExtentRef id="802" />
        <ExtentRef id="803" />
        <ExtentRef id="804" />
        <ExtentRef id="805" />
        <ExtentRef id="806" />
        <ExtentRef id="807" />
        <ExtentRef id="808" />
        <ExtentRef id="809" />
        <ExtentRef id="810" />
        <ExtentRef id="811" />
        <ExtentRef id="812" />
        <ExtentRef id="813" />
        <ExtentRef id="814" />
        <ExtentRef id="815" />
        <ExtentRef id="816" />
        <ExtentRef id="817" />
        <ExtentRef id="818" />
        <ExtentRef id="819" />
        <ExtentRef id="820" />
        <ExtentRef id="821" />
        <ExtentRef id="822" />
        <ExtentRef id="823" />
        <ExtentRef id="824" />
        <ExtentRef id="825" />
        <ExtentRef id="826" />
        <ExtentRef id="827" />
        <ExtentRef id="828" />
        <ExtentRef id="829" />
        <ExtentRef id="830" />
        <ExtentRef id="831" />
        <ExtentRef id="832" />
        <ExtentRef id="833" />
        <ExtentRef id="834" />
        <ExtentRef id="835" />
        <ExtentRef id="836" />
        <ExtentRef id="837" />
        <ExtentRef id="838" />
        <ExtentRef id="839" />
        <ExtentRef id="840" />
        <ExtentRef id="841" />
        <ExtentRef id="842" />
        <ExtentRef id="843" />
        <ExtentRef id="844" />
        <ExtentRef id="845" />
        <ExtentRef id="846" />
        <ExtentRef id="847" />
        <ExtentRef id="848" />
        <ExtentRef id="849" />
        <ExtentRef id="850" />
        <ExtentRef id="851" />
        <ExtentRef id="852" />
        <ExtentRef id="853" />
        <ExtentRef id="854" />
        <ExtentRef id="855" />
        <ExtentRef id="856" />
        <ExtentRef id="857" />
        <ExtentRef id="858" />
        <ExtentRef id="859" />
        <ExtentRef id="860" />
        <ExtentRef id="861" />
        <ExtentRef id="862" />
        <ExtentRef id="863" />
        <ExtentRef id="864" />
        <ExtentRef id="865" />
        <ExtentRef id="866" />
        <ExtentRef id="867" />
        <ExtentRef id="868" />
        <ExtentRef id="869" />
        <ExtentRef id="870" />
        <ExtentRef id="871" />
        <ExtentRef id="872" />
        <ExtentRef id="873" />
        <ExtentRef id="874" />
        <ExtentRef id="875" />
        <ExtentRef id="876" />
        <ExtentRef id="877" />
        <ExtentRef id="878" />
        <ExtentRef id="879" />
        <ExtentRef id="880" />
        <ExtentRef id="881" />
        <ExtentRef id="882" />
        <ExtentRef id="883" />
        <ExtentRef id="884" />
        <ExtentRef id="885" />
        <ExtentRef id="886" />
        <ExtentRef id="887" />
        <ExtentRef id="888" />
        <ExtentRef id="889" />
        <ExtentRef id="890" />
        <ExtentRef id="891" />
        <ExtentRef id="892" />
        <ExtentRef id="893" />
        <ExtentRef id="894" />
        <ExtentRef id="895" />
        <ExtentRef id="896" />
        <ExtentRef id="897" />
        <ExtentRef id="898" />
        <ExtentRef id="899" />
        <ExtentRef id="900" />
        <ExtentRef id="901" />
        <ExtentRef id="902" />
        <ExtentRef id="903" />
        <ExtentRef id="904" />
        <ExtentRef id="905" />
        <ExtentRef id="906" />
        <ExtentRef id="907" />
        <ExtentRef id="908" />
        <ExtentRef id="909" />
        <ExtentRef id="910" />
        <ExtentRef id="911" />
        <ExtentRef id="912" />
        <ExtentRef id="913" />
        <ExtentRef id="914" />
        <ExtentRef id="915" />
        <ExtentRef id="916" />
        <ExtentRef id="917" />
        <ExtentRef id="918" />
        <ExtentRef id="919" />
        <ExtentRef id="920" />
        <ExtentRef id="921" />
        <ExtentRef id="922" />
        <ExtentRef id="923" />
        <ExtentRef id="924" />
        <ExtentRef id="925" />
        <ExtentRef id="926" />
        <ExtentRef id="927" />
        <ExtentRef id="928" />
        <ExtentRef id="929" />
        <ExtentRef id="930" />
        <ExtentRef id="931" />
        <ExtentRef id="932" />
        <ExtentRef id="933" />
        <ExtentRef id="934" />
        <ExtentRef id="935" />
        <ExtentRef id="936" />
        <ExtentRef id="937" />
        <ExtentRef id="938" />
        <ExtentRef id="939" />
        <ExtentRef id="940" />
        <ExtentRef id="941" />
        <ExtentRef id="942" />
        <ExtentRef id="943" />
        <ExtentRef id="944" />
        <ExtentRef id="945" />
        <ExtentRef id="946" />
        <ExtentRef id="947" />
        <ExtentRef id="948" />
        <ExtentRef id="949" />
        <ExtentRef id="950" />
        <ExtentRef id="951" />
        <ExtentRef id="952" />
        <ExtentRef id="953" />
        <ExtentRef id="954" />
        <ExtentRef id="955" />
        <ExtentRef id="956" />
        <ExtentRef id="957" />
        <ExtentRef id="958" />
        <ExtentRef id="959" />
        <ExtentRef id="960" />
        <ExtentRef id="961" />
        <ExtentRef id="962" />
        <ExtentRef id="963" />
        <ExtentRef id="964" />
        <ExtentRef id="965" />
        <ExtentRef id="966" />
        <ExtentRef id="967" />
        <ExtentRef id="968" />
        <ExtentRef id="969" />
        <ExtentRef id="970" />
        <ExtentRef id="971" />
        <ExtentRef id="972" />
        <ExtentRef id="973" />
        <ExtentRef id="974" />
        <ExtentRef id="975" />
        <ExtentRef id="976" />
        <ExtentRef id="977" />
        <ExtentRef id="978" />
        <ExtentRef id="979" />
        <ExtentRef id="980" />
        <ExtentRef id="981" />
        <ExtentRef id="982" />
        <ExtentRef id="983" />
        <ExtentRef id="984" />
        <ExtentRef id="985" />
        <ExtentRef id="986" />
        <ExtentRef id="987" />
        <ExtentRef id="988" />
        <ExtentRef id="989" />
        <ExtentRef id="990" />
        <ExtentRef id="991" />
        <ExtentRef id="992" />
        <ExtentRef id="993" />
        <ExtentRef id="994" />
        <ExtentRef id="995" />
        <ExtentRef id="996" />
        <ExtentRef id="997" />
        <ExtentRef id="998" />
        <ExtentRef id="999" />
        <ExtentRef id="1000" />
        <ExtentRef id="1001" />
        <ExtentRef id="1002" />
        <ExtentRef id="1003" />
        <ExtentRef id="1004" />
        <ExtentRef id="1005" />
        <ExtentRef id="1006" />
        <ExtentRef id="1007" />
        <ExtentRef id="1008" />
        <ExtentRef id="1009" />
        <ExtentRef id="1010" />
        <ExtentRef id="1011" />
        <ExtentRef id="1012" />
        <ExtentRef id="1013" />
        <ExtentRef id="1014" />
        <ExtentRef id="1015" />
        <ExtentRef id="1016" />
        <ExtentRef id="1017" />
        <ExtentRef id="1018" />
        <ExtentRef id="1019" />
        <ExtentRef id="1020" />
        <ExtentRef id="1021" />
        <ExtentRef id="1022" />
        <ExtentRef id="1023" />
        <ExtentRef id="1024" />
        <ExtentRef id="1025" />
        <ExtentRef id="1026" />
        <ExtentRef id="1027" />
        <ExtentRef id="1028" />
        <ExtentRef id="1029" />
        <ExtentRef id="1030" />
        <ExtentRef id="1031" />
        <ExtentRef id="1032" />
        <ExtentRef id="1033" />
        <ExtentRef id="1034" />
        <ExtentRef id="1035" />
        <ExtentRef id="1036" />
        <ExtentRef id="1037" />
        <ExtentRef id="1038" />
        <ExtentRef id="1039" />
        <ExtentRef id="1040" />
        <ExtentRef id="1041" />
        <ExtentRef id="1042" />
        <ExtentRef id="1043" />
        <ExtentRef id="1044" />
        <ExtentRef id="1045" />
        <ExtentRef id="1046" />
        <ExtentRef id="1047" />
        <ExtentRef id="1048" />
        <ExtentRef id="1049" />
        <ExtentRef id="1050" />
        <ExtentRef id="1051" />
        <ExtentRef id="1052" />
        <ExtentRef id="1053" />
        <ExtentRef id="1054" />
        <ExtentRef id="1055" />
        <ExtentRef id="1056" />
        <ExtentRef id="1057" />
        <ExtentRef id="1058" />
        <ExtentRef id="1059" />
        <ExtentRef id="1060" />
        <ExtentRef id="1061" />
        <ExtentRef id="1062" />
        <ExtentRef id="1063" />
        <ExtentRef id="1064" />
        <ExtentRef id="1065" />
        <ExtentRef id="1066" />
        <ExtentRef id="1067" />
        <ExtentRef id="1068" />
        <ExtentRef id="1069" />
        <ExtentRef id="1070" />
        <ExtentRef id="1071" />
        <ExtentRef id="1072" />
        <ExtentRef id="1073" />
        <ExtentRef id="1074" />
        <ExtentRef id="1075" />
        <ExtentRef id="1076" />
        <ExtentRef id="1077" />
        <ExtentRef id="1078" />
        <ExtentRef id="1079" />
        <ExtentRef id="1080" />
        <ExtentRef id="1081" />
        <ExtentRef id="1082" />
        <ExtentRef id="1083" />
        <ExtentRef id="1084" />
        <ExtentRef id="1085" />
        <ExtentRef id="1086" />
        <ExtentRef id="1087" />
        <ExtentRef id="1088" />
        <ExtentRef id="1089" />
        <ExtentRef id="1090" />
        <ExtentRef id="1091" />
        <ExtentRef id="1092" />
        <ExtentRef id="1093" />
        <ExtentRef id="1094" />
        <ExtentRef id="1095" />
        <ExtentRef id="1096" />
        <ExtentRef id="1097" />
        <ExtentRef id="1098" />
        <ExtentRef id="1099" />
        <ExtentRef id="1100" />
        <ExtentRef id="1101" />
        <ExtentRef id="1102" />
        <ExtentRef id="1103" />
        <ExtentRef id="1104" />
        <ExtentRef id="1105" />
        <ExtentRef id="1106" />
        <ExtentRef id="1107" />
        <ExtentRef id="1108" />
        <ExtentRef id="1109" />
        <ExtentRef id="1110" />
        <ExtentRef id="1111" />
        <ExtentRef id="1112" />
        <ExtentRef id="1113" />
        <ExtentRef id="1114" />
        <ExtentRef id="1115" />
        <ExtentRef id="1116" />
        <ExtentRef id="1117" />
        <ExtentRef id="1118" />
        <ExtentRef id="1119" />
        <ExtentRef id="1120" />
        <ExtentRef id="1121" />
        <ExtentRef id="1122" />
        <ExtentRef id="1123" />
        <ExtentRef id="1124" />
        <ExtentRef id="1125" />
        <ExtentRef id="1126" />
        <ExtentRef id="1127" />
        <ExtentRef id="1128" />
        <ExtentRef id="1129" />
        <ExtentRef id="1130" />
        <ExtentRef id="1131" />
        <ExtentRef id="1132" />
        <ExtentRef id="1133" />
        <ExtentRef id="1134" />
        <ExtentRef id="1135" />
        <ExtentRef id="1136" />
        <ExtentRef id="1137" />
        <ExtentRef id="1138" />
        <ExtentRef id="1139" />
        <ExtentRef id="1140" />
        <ExtentRef id="1141" />
        <ExtentRef id="1142" />
        <ExtentRef id="1143" />
        <ExtentRef id="1144" />
        <ExtentRef id="1145" />
        <ExtentRef id="1146" />
        <ExtentRef id="1147" />
        <ExtentRef id="1148" />
        <ExtentRef id="1149" />
        <ExtentRef id="1150" />
        <ExtentRef id="1151" />
        <ExtentRef id="1152" />
        <ExtentRef id="1153" />
        <ExtentRef id="1154" />
        <ExtentRef id="1155" />
        <ExtentRef id="1156" />
        <ExtentRef id="1157" />
        <ExtentRef id="1158" />
        <ExtentRef id="1159" />
        <ExtentRef id="1160" />
        <ExtentRef id="1161" />
        <ExtentRef id="1162" />
        <ExtentRef id="1163" />
        <ExtentRef id="1164" />
        <ExtentRef id="1165" />
        <ExtentRef id="1166" />
        <ExtentRef id="1167" />
        <ExtentRef id="1168" />
        <ExtentRef id="1169" />
        <ExtentRef id="1170" />
        <ExtentRef id="1171" />
        <ExtentRef id="1172" />
        <ExtentRef id="1173" />
        <ExtentRef id="1174" />
        <ExtentRef id="1175" />
        <ExtentRef id="1176" />
        <ExtentRef id="1177" />
        <ExtentRef id="1178" />
        <ExtentRef id="1179" />
        <ExtentRef id="1180" />
        <ExtentRef id="1181" />
        <ExtentRef id="1182" />
        <ExtentRef id="1183" />
        <ExtentRef id="1184" />
        <ExtentRef id="1185" />
        <ExtentRef id="1186" />
        <ExtentRef id="1187" />
        <ExtentRef id="1188" />
        <ExtentRef id="1189" />
        <ExtentRef id="1190" />
        <ExtentRef id="1191" />
        <ExtentRef id="1192" />
        <ExtentRef id="1193" />
        <ExtentRef id="1194" />
        <ExtentRef id="1195" />
        <ExtentRef id="1196" />
        <ExtentRef id="1197" />
        <ExtentRef id="1198" />
        <ExtentRef id="1199" />
        <ExtentRef id="1200" />
        <ExtentRef id="1201" />
        <ExtentRef id="1202" />
        <ExtentRef id="1203" />
        <ExtentRef id="1204" />
        <ExtentRef id="1205" />
        <ExtentRef id="1206" />
        <ExtentRef id="1207" />
        <ExtentRef id="1208" />
        <ExtentRef id="1209" />
        <ExtentRef id="1210" />
        <ExtentRef id="1211" />
        <ExtentRef id="1212" />
        <ExtentRef id="1213" />
        <ExtentRef id="1214" />
        <ExtentRef id="1215" />
        <ExtentRef id="1216" />
        <ExtentRef id="1217" />
        <ExtentRef id="1218" />
        <ExtentRef id="1219" />
        <ExtentRef id="1220" />
        <ExtentRef id="1221" />
        <ExtentRef id="1222" />
        <ExtentRef id="1223" />
        <ExtentRef id="1224" />
        <ExtentRef id="1225" />
        <ExtentRef id="1226" />
        <ExtentRef id="1227" />
        <ExtentRef id="1228" />
        <ExtentRef id="1229" />
        <ExtentRef id="1230" />
        <ExtentRef id="1231" />
        <ExtentRef id="1232" />
        <ExtentRef id="1233" />
        <ExtentRef id="1234" />
        <ExtentRef id="1235" />
        <ExtentRef id="1236" />
        <ExtentRef id="1237" />
        <ExtentRef id="1238" />
        <ExtentRef id="1239" />
        <ExtentRef id="1240" />
        <ExtentRef id="1241" />
        <ExtentRef id="1242" />
        <ExtentRef id="1243" />
        <ExtentRef id="1244" />
        <ExtentRef id="1245" />
        <ExtentRef id="1246" />
        <ExtentRef id="1247" />
        <ExtentRef id="1248" />
        <ExtentRef id="1249" />
        <ExtentRef id="1250" />
        <ExtentRef id="1251" />
        <ExtentRef id="1252" />
        <ExtentRef id="1253" />
        <ExtentRef id="1254" />
        <ExtentRef id="1255" />
        <ExtentRef id="1256" />
        <ExtentRef id="1257" />
        <ExtentRef id="1258" />
        <ExtentRef id="1259" />
        <ExtentRef id="1260" />
        <ExtentRef id="1261" />
        <ExtentRef id="1262" />
        <ExtentRef id="1263" />
        <ExtentRef id="1264" />
        <ExtentRef id="1265" />
        <ExtentRef id="1266" />
        <ExtentRef id="1267" />
        <ExtentRef id="1268" />
        <ExtentRef id="1269" />
        <ExtentRef id="1270" />
        <ExtentRef id="1271" />
        <ExtentRef id="1272" />
        <ExtentRef id="1273" />
        <ExtentRef id="1274" />
        <ExtentRef id="1275" />
        <ExtentRef id="1276" />
        <ExtentRef id="1277" />
        <ExtentRef id="1278" />
        <ExtentRef id="1279" />
        <ExtentRef id="1280" />
        <ExtentRef id="1281" />
        <ExtentRef id="1282" />
        <ExtentRef id="1283" />
        <ExtentRef id="1284" />
        <ExtentRef id="1285" />
        <ExtentRef id="1286" />
        <ExtentRef id="1287" />
        <ExtentRef id="1288" />
        <ExtentRef id="1289" />
        <ExtentRef id="1290" />
        <ExtentRef id="1291" />
        <ExtentRef id="1292" />
        <ExtentRef id="1293" />
        <ExtentRef id="1294" />
        <ExtentRef id="1295" />
        <ExtentRef id="1296" />
        <ExtentRef id="1297" />
        <ExtentRef id="1298" />
        <ExtentRef id="1299" />
        <ExtentRef id="1300" />
        <ExtentRef id="1301" />
        <ExtentRef id="1302" />
        <ExtentRef id="1303" />
        <ExtentRef id="1304" />
        <ExtentRef id="1305" />
        <ExtentRef id="1306" />
        <ExtentRef id="1307" />
        <ExtentRef id="1308" />
        <ExtentRef id="1309" />
        <ExtentRef id="1310" />
        <ExtentRef id="1311" />
        <ExtentRef id="1312" />
        <ExtentRef id="1313" />
        <ExtentRef id="1314" />
        <ExtentRef id="1315" />
        <ExtentRef id="1316" />
        <ExtentRef id="1317" />
        <ExtentRef id="1318" />
        <ExtentRef id="1319" />
        <ExtentRef id="1320" />
        <ExtentRef id="1321" />
        <ExtentRef id="1322" />
        <ExtentRef id="1323" />
        <ExtentRef id="1324" />
        <ExtentRef id="1325" />
        <ExtentRef id="1326" />
        <ExtentRef id="1327" />
        <ExtentRef id="1328" />
        <ExtentRef id="1329" />
        <ExtentRef id="1330" />
        <ExtentRef id="1331" />
        <ExtentRef id="1332" />
        <ExtentRef id="1333" />
        <ExtentRef id="1334" />
        <ExtentRef id="1335" />
        <ExtentRef id="1336" />
        <ExtentRef id="1337" />
        <ExtentRef id="1338" />
        <ExtentRef id="1339" />
        <ExtentRef id="1349" />
        <ExtentRef id="1351" />
        <ExtentRef id="1352" />
        <ExtentRef id="1353" />
        <ExtentRef id="1354" />
        <ExtentRef id="1355" />
        <ExtentRef id="1356" />
        <ExtentRef id="1357" />
        <ExtentRef id="1358" />
        <ExtentRef id="1359" />
        <ExtentRef id="1360" />
        <ExtentRef id="1361" />
        <ExtentRef id="1362" />
        <ExtentRef id="1363" />
        <ExtentRef id="1364" />
        <ExtentRef id="1365" />
        <ExtentRef id="1366" />
        <ExtentRef id="1367" />
        <ExtentRef id="1368" />
        <ExtentRef id="1369" />
        <ExtentRef id="1370" />
        <ExtentRef id="1371" />
        <ExtentRef id="1372" />
        <ExtentRef id="1373" />
        <ExtentRef id="1374" />
        <ExtentRef id="1375" />
        <ExtentRef id="1376" />
        <ExtentRef id="1377" />
        <ExtentRef id="1378" />
        <ExtentRef id="1379" />
        <ExtentRef id="1380" />
        <ExtentRef id="1381" />
        <ExtentRef id="1382" />
        <ExtentRef id="1383" />
        <ExtentRef id="1384" />
        <ExtentRef id="1385" />
        <ExtentRef id="1386" />
        <ExtentRef id="1387" />
        <ExtentRef id="1388" />
        <ExtentRef id="1389" />
        <ExtentRef id="1390" />
        <ExtentRef id="1391" />
        <ExtentRef id="1392" />
        <ExtentRef id="1393" />
        <ExtentRef id="1394" />
        <ExtentRef id="1395" />
        <ExtentRef id="1396" />
        <ExtentRef id="1397" />
        <ExtentRef id="1398" />
        <ExtentRef id="1399" />
        <ExtentRef id="1400" />
        <ExtentRef id="1401" />
        <ExtentRef id="1402" />
        <ExtentRef id="1403" />
        <ExtentRef id="1404" />
        <ExtentRef id="1405" />
        <ExtentRef id="1406" />
        <ExtentRef id="1407" />
        <ExtentRef id="1408" />
        <ExtentRef id="1409" />
        <ExtentRef id="1410" />
        <ExtentRef id="1411" />
        <ExtentRef id="1412" />
        <ExtentRef id="1413" />
        <ExtentRef id="1414" />
        <ExtentRef id="1415" />
        <ExtentRef id="1416" />
        <ExtentRef id="1417" />
        <ExtentRef id="1418" />
        <ExtentRef id="1419" />
        <ExtentRef id="1420" />
        <ExtentRef id="1421" />
        <ExtentRef id="1422" />
        <ExtentRef id="1423" />
        <ExtentRef id="1424" />
        <ExtentRef id="1425" />
        <ExtentRef id="1426" />
        <ExtentRef id="1427" />
        <ExtentRef id="1428" />
        <ExtentRef id="1429" />
        <ExtentRef id="1430" />
        <ExtentRef id="1431" />
        <ExtentRef id="1432" />
        <ExtentRef id="1433" />
        <ExtentRef id="1434" />
        <ExtentRef id="1435" />
        <ExtentRef id="1436" />
        <ExtentRef id="1437" />
        <ExtentRef id="1438" />
        <ExtentRef id="1439" />
        <ExtentRef id="1440" />
        <ExtentRef id="1441" />
        <ExtentRef id="1442" />
        <ExtentRef id="1443" />
        <ExtentRef id="1444" />
        <ExtentRef id="1445" />
        <ExtentRef id="1446" />
        <ExtentRef id="1447" />
        <ExtentRef id="1448" />
      </ExtentRefs>
    </ExtentSelector>
    <ExtentSelector extentID="2" gapBefore="0" primaryTrack="false">
      <Effects />
      <Transitions />
      <BoundProperties />
      <ExtentRefs />
    </ExtentSelector>
    <ExtentSelector extentID="3" gapBefore="0" primaryTrack="false">
      <Effects />
      <Transitions />
      <BoundProperties />
      <ExtentRefs />
    </ExtentSelector>
    <ExtentSelector extentID="4" gapBefore="0" primaryTrack="false">
      <Effects />
      <Transitions />
      <BoundProperties />
      <ExtentRefs />
    </ExtentSelector>
  </Extents>
  <BoundPlaceholders>
    <BoundPlaceholder placeholderID="SingleExtentView" extentID="0" />
    <BoundPlaceholder placeholderID="Main" extentID="1" />
    <BoundPlaceholder placeholderID="SoundTrack" extentID="2" />
    <BoundPlaceholder placeholderID="Text" extentID="4" />
    <BoundPlaceholder placeholderID="Narration" extentID="3" />
  </BoundPlaceholders>
  <BoundProperties>
    <BoundPropertyFloatSet Name="AspectRatio">
      <BoundPropertyFloatElement Value="1.7777776718139648" />
    </BoundPropertyFloatSet>
    <BoundPropertyFloat Name="DuckedNarrationAndSoundTrackMix" Value="0.5" />
    <BoundPropertyFloat Name="DuckedVideoAndNarrationMix" Value="0.5" />
    <BoundPropertyFloat Name="DuckedVideoAndSoundTrackMix" Value="0.5" />
    <BoundPropertyFloat Name="SoundTrackMix" Value="0.5" />
  </BoundProperties>
  <ThemeOperationLog themeID="0">
    <MonolithicThemeOperations />
  </ThemeOperationLog>
  <AudioDuckingProperties emphasisPlaceholderID="Narration" />
</Project>